# This file uses centimeters as units for non-parametric coordinates.

mtllib corner pillar.mtl
g default
v 0.228627 -0.001183 -0.117233
v 0.170617 -0.001183 -0.191821
v 0.089581 -0.001183 -0.240418
v -0.003538 -0.001183 -0.256459
v -0.096164 -0.001183 -0.237778
v -0.175787 -0.001183 -0.186899
v -0.231653 -0.001183 -0.110692
v -0.256218 -0.001183 -0.019450
v -0.246163 -0.001183 0.074504
v -0.202847 -0.001183 0.158482
v -0.132120 -0.001183 0.221141
v -0.043534 -0.001183 0.254020
v 0.255774 -0.001183 -0.026726
v 0.150387 3.253631 -0.077569
v 0.112210 3.253631 -0.126658
v 0.058879 3.253631 -0.158640
v -0.002404 3.253631 -0.169197
v -0.063363 3.253631 -0.156903
v -0.115764 3.253631 -0.123418
v -0.152530 3.253631 -0.073265
v -0.168697 3.253631 -0.013217
v -0.162080 3.253631 0.048616
v -0.133573 3.253631 0.103883
v -0.087026 3.253631 0.145120
v -0.028727 3.253631 0.166758
v 0.168253 3.253631 -0.018006
v 0.000000 -0.001183 0.000000
v 0.000000 3.253631 0.000000
v -0.032272 1.198336 0.187652
v -0.097824 1.198336 0.163322
v -0.150160 1.198336 0.116956
v -0.182213 1.198336 0.054814
v -0.189653 1.198336 -0.014710
v -0.171475 1.198336 -0.082227
v -0.130136 1.198336 -0.138618
v -0.071217 1.198336 -0.176268
v -0.002676 1.198336 -0.190091
v 0.066230 1.198336 -0.178221
v 0.126195 1.198336 -0.142260
v 0.169120 1.198336 -0.087067
v 0.189209 1.198336 -0.020094
v -0.041835 0.998456 0.244008
v -0.126947 0.998456 0.212419
v -0.194899 0.998456 0.152218
v -0.236516 0.998456 0.071534
v -0.246176 0.998456 -0.018735
v -0.222575 0.998456 -0.106398
v -0.168900 0.998456 -0.179615
v -0.092401 0.998456 -0.228499
v -0.003408 0.998456 -0.246447
v 0.086058 0.998456 -0.231035
v 0.163916 0.998456 -0.184345
v 0.219650 0.998456 -0.112682
v 0.245732 0.998456 -0.025725
v -0.032607 1.179095 0.189626
v -0.098844 1.179095 0.165043
v -0.151728 1.179095 0.118192
v -0.184116 1.179095 0.055400
v -0.191633 1.179095 -0.014851
v -0.173266 1.179095 -0.083074
v -0.131494 1.179095 -0.140054
v -0.071959 1.179095 -0.178098
v -0.002701 1.179095 -0.192066
v 0.066925 1.179095 -0.180072
v 0.127517 1.179095 -0.143735
v 0.170891 1.179095 -0.087964
v 0.191190 1.179095 -0.020291
v -0.028727 1.211390 0.166758
v -0.087026 1.211390 0.145120
v -0.133573 1.211390 0.103883
v -0.162080 1.211390 0.048616
v -0.168697 1.211390 -0.013217
v -0.152530 1.211390 -0.073265
v -0.115764 1.211390 -0.123418
v -0.063363 1.211390 -0.156903
v -0.002404 1.211390 -0.169197
v 0.058879 1.211390 -0.158640
v 0.112210 1.211390 -0.126658
v 0.150387 1.211390 -0.077569
v 0.168253 1.211390 -0.018006
v -0.030386 1.166319 0.176536
v -0.092080 1.166319 0.153639
v -0.141336 1.166319 0.110001
v -0.171502 1.166319 0.051517
v -0.178505 1.166319 -0.013916
v -0.161397 1.166319 -0.077459
v -0.122490 1.166319 -0.130532
v -0.067039 1.166319 -0.165966
v -0.002531 1.166319 -0.178976
v 0.062320 1.166319 -0.167804
v 0.118756 1.166319 -0.133960
v 0.159155 1.166319 -0.082014
v 0.178061 1.166319 -0.018983
v -0.038517 1.009435 0.224452
v -0.116841 1.009435 0.195382
v -0.179374 1.009435 0.139981
v -0.217672 1.009435 0.065732
v -0.226562 1.009435 -0.017338
v -0.204843 1.009435 -0.098010
v -0.155448 1.009435 -0.165389
v -0.085050 1.009435 -0.210374
v -0.003154 1.009435 -0.226891
v 0.079178 1.009435 -0.212708
v 0.150827 1.009435 -0.169741
v 0.202116 1.009435 -0.103793
v 0.226118 1.009435 -0.023771
v -0.037428 0.169111 0.218034
v -0.113524 0.169111 0.189791
v -0.174279 0.169111 0.135966
v -0.211488 0.169111 0.063828
v -0.220125 0.169111 -0.016880
v -0.199024 0.169111 -0.095258
v -0.151034 0.169111 -0.160720
v -0.082637 0.169111 -0.204426
v -0.003071 0.169111 -0.220473
v 0.076920 0.169111 -0.206693
v 0.146531 0.169111 -0.164949
v 0.196361 0.169111 -0.100876
v 0.219681 0.169111 -0.023130
v -0.042289 0.974193 0.246683
v -0.128329 0.974193 0.214750
v -0.197023 0.974193 0.153891
v -0.239094 0.974193 0.072328
v -0.248859 0.974193 -0.018926
v -0.225001 0.974193 -0.107545
v -0.170740 0.974193 -0.181562
v -0.093406 0.974193 -0.230979
v -0.003443 0.974193 -0.249122
v 0.087000 0.974193 -0.233542
v 0.165707 0.974193 -0.186343
v 0.222048 0.974193 -0.113898
v 0.248415 0.974193 -0.025993
v -0.035032 1.041323 0.203915
v -0.106228 1.041323 0.177491
v -0.163071 1.041323 0.127132
v -0.197883 1.041323 0.059639
v -0.205964 1.041323 -0.015871
v -0.186222 1.041323 -0.089202
v -0.141322 1.041323 -0.150449
v -0.077330 1.041323 -0.191340
v -0.002887 1.041323 -0.206354
v 0.071952 1.041323 -0.193462
v 0.137081 1.041323 -0.154405
v 0.183702 1.041323 -0.094459
v 0.205520 1.041323 -0.021719
v -0.033065 1.079275 0.192324
v -0.100238 1.079275 0.167392
v -0.153869 1.079275 0.119879
v -0.186715 1.079275 0.056200
v -0.194339 1.079275 -0.015043
v -0.175712 1.079275 -0.084231
v -0.133349 1.079275 -0.142017
v -0.072973 1.079275 -0.180598
v -0.002737 1.079275 -0.194763
v 0.067874 1.079275 -0.182599
v 0.129322 1.079275 -0.145749
v 0.173310 1.079275 -0.089190
v 0.193895 1.079275 -0.020560
v -0.031560 1.108307 0.183457
v -0.095656 1.108307 0.159668
v -0.146830 1.108307 0.114331
v -0.178171 1.108307 0.053570
v -0.185446 1.108307 -0.014410
v -0.167672 1.108307 -0.080428
v -0.127250 1.108307 -0.135566
v -0.069640 1.108307 -0.172380
v -0.002621 1.108307 -0.185896
v 0.064754 1.108307 -0.174289
v 0.123388 1.108307 -0.139128
v 0.165360 1.108307 -0.085160
v 0.185002 1.108307 -0.019674
v -0.039918 0.960001 0.232707
v -0.121107 0.960001 0.202574
v -0.185928 0.960001 0.145147
v -0.225627 0.960001 0.068181
v -0.234842 0.960001 -0.017928
v -0.212328 0.960001 -0.101551
v -0.161127 0.960001 -0.171395
v -0.088153 0.960001 -0.218025
v -0.003261 0.960001 -0.235146
v 0.082082 0.960001 -0.220444
v 0.156352 0.960001 -0.175906
v 0.209517 0.960001 -0.107546
v 0.234398 0.960001 -0.024596
v -0.039202 0.178352 0.228488
v -0.118926 0.178352 0.198898
v -0.182578 0.178352 0.142506
v -0.221561 0.178352 0.066929
v -0.230610 0.178352 -0.017626
v -0.208502 0.178352 -0.099741
v -0.158225 0.178352 -0.168325
v -0.086567 0.178352 -0.214115
v -0.003206 0.178352 -0.230927
v 0.080598 0.178352 -0.216490
v 0.153528 0.178352 -0.172755
v 0.205734 0.178352 -0.105628
v 0.230166 0.178352 -0.024174
v -0.037428 0.155309 0.218034
v -0.113524 0.155309 0.189791
v -0.174279 0.155309 0.135966
v -0.211488 0.155309 0.063828
v -0.220125 0.155309 -0.016880
v -0.199024 0.155309 -0.095258
v -0.151034 0.155309 -0.160720
v -0.082637 0.155309 -0.204426
v -0.003071 0.155309 -0.220473
v 0.076920 0.155309 -0.206693
v 0.146531 0.155309 -0.164949
v 0.196361 0.155309 -0.100876
v 0.219681 0.155309 -0.023130
v -0.039086 0.146153 0.227805
v -0.118573 0.146153 0.198303
v -0.182036 0.146153 0.142079
v -0.220903 0.146153 0.066727
v -0.229925 0.146153 -0.017578
v -0.207883 0.146153 -0.099448
v -0.157755 0.146153 -0.167828
v -0.086310 0.146153 -0.213482
v -0.003198 0.146153 -0.230244
v 0.080358 0.146153 -0.215850
v 0.153071 0.146153 -0.172245
v 0.205122 0.146153 -0.105317
v 0.229481 0.146153 -0.024106
v -0.043534 0.111320 0.254020
v -0.132120 0.111320 0.221141
v -0.202847 0.111320 0.158482
v -0.246163 0.111320 0.074504
v -0.256218 0.111320 -0.019450
v -0.231653 0.111320 -0.110692
v -0.175787 0.111320 -0.186899
v -0.096164 0.111320 -0.237778
v -0.003538 0.111320 -0.256459
v 0.089581 0.111320 -0.240418
v 0.170617 0.111320 -0.191821
v 0.228626 0.111320 -0.117233
v 0.255774 0.111320 -0.026726
v 0.138841 3.253631 0.099015
v 0.096943 3.253631 0.139027
v 0.037063 3.253631 0.165654
v 0.166103 3.253631 0.042857
vt 0.666604 0.861066
vt 0.650303 0.888700
vt 0.165731 0.048581
vt 0.113113 0.049602
vt 0.217755 0.047878
vt 0.267899 0.014597
vt 0.269520 0.047393
vt 0.723968 0.962718
vt 0.321099 0.047142
vt 0.778273 0.973270
vt 0.372605 0.046708
vt 0.836644 0.973438
vt 0.424124 0.046480
vt 0.891195 0.963199
vt 0.475749 0.046389
vt 0.934561 0.943936
vt 0.527571 0.046468
vt 0.960884 0.918250
vt 0.579711 0.046799
vt 0.966609 0.889610
vt 0.632461 0.047550
vt 0.950963 0.861885
vt 0.686836 0.049329
vt 0.053408 0.018703
vt 0.058619 0.051566
vt 0.808095 0.896522
vt 0.189074 0.981489
vt 0.225789 0.981478
vt 0.808972 0.893750
vt 0.299142 0.981490
vt 0.335793 0.981517
vt 0.372449 0.981561
vt 0.409113 0.981623
vt 0.445791 0.981701
vt 0.482486 0.981796
vt 0.519208 0.981904
vt 0.555965 0.982021
vt 0.592773 0.982135
vt 0.644316 0.907974
vt 0.570163 0.380102
vt 0.610029 0.381618
vt 0.603002 0.388227
vt 0.566001 0.387140
vt 0.531545 0.379141
vt 0.528462 0.386323
vt 0.492798 0.378465
vt 0.490530 0.385695
vt 0.453806 0.378004
vt 0.452308 0.385237
vt 0.414642 0.377709
vt 0.413894 0.384929
vt 0.375393 0.377552
vt 0.375385 0.384752
vt 0.336178 0.377627
vt 0.336871 0.384677
vt 0.297010 0.377825
vt 0.298444 0.385013
vt 0.260204 0.385497
vt 0.219185 0.379031
vt 0.222244 0.386130
vt 0.180545 0.379980
vt 0.184664 0.386926
vt 0.140608 0.381456
vt 0.147654 0.387953
vt 0.608227 0.314418
vt 0.659090 0.316784
vt 0.653072 0.323614
vt 0.604903 0.320931
vt 0.560248 0.313143
vt 0.557900 0.319595
vt 0.513375 0.312332
vt 0.511739 0.318773
vt 0.467109 0.311835
vt 0.466085 0.318272
vt 0.421204 0.311591
vt 0.420735 0.318019
vt 0.375462 0.311579
vt 0.375518 0.317990
vt 0.329695 0.311866
vt 0.330208 0.318181
vt 0.283733 0.312090
vt 0.284734 0.318481
vt 0.239024 0.319030
vt 0.190480 0.313502
vt 0.192821 0.319888
vt 0.142469 0.314852
vt 0.145796 0.321286
vt 0.091371 0.317362
vt 0.097490 0.324080
vt 0.573147 0.374608
vt 0.613542 0.376240
vt 0.533944 0.373484
vt 0.494577 0.372758
vt 0.454991 0.372282
vt 0.415251 0.371986
vt 0.375425 0.371833
vt 0.335597 0.371881
vt 0.295813 0.372114
vt 0.216766 0.373407
vt 0.177508 0.374532
vt 0.137184 0.376110
vt 0.575966 0.369373
vt 0.614975 0.371061
vt 0.536283 0.368170
vt 0.496310 0.367408
vt 0.456140 0.366925
vt 0.415846 0.366633
vt 0.375474 0.366491
vt 0.335089 0.366520
vt 0.294698 0.366884
vt 0.214441 0.368144
vt 0.174749 0.369352
vt 0.135797 0.371003
vt 0.643239 0.334866
vt 0.598433 0.332029
vt 0.553387 0.330604
vt 0.508620 0.329766
vt 0.464123 0.329263
vt 0.419809 0.329001
vt 0.375555 0.328937
vt 0.331188 0.328992
vt 0.286715 0.329396
vt 0.242139 0.329949
vt 0.197341 0.330818
vt 0.152288 0.332286
vt 0.107444 0.335190
vt 0.628495 0.068297
vt 0.677778 0.069350
vt 0.678353 0.073249
vt 0.627898 0.072390
vt 0.577578 0.067582
vt 0.577163 0.071675
vt 0.526452 0.067183
vt 0.526223 0.071256
vt 0.475296 0.067020
vt 0.475191 0.071071
vt 0.424149 0.067031
vt 0.424125 0.071062
vt 0.373016 0.067164
vt 0.373052 0.071179
vt 0.321858 0.067360
vt 0.321985 0.071392
vt 0.270677 0.067874
vt 0.270939 0.071846
vt 0.219924 0.072489
vt 0.168467 0.069222
vt 0.169007 0.073280
vt 0.117617 0.070220
vt 0.118301 0.074281
vt 0.068335 0.071451
vt 0.067883 0.075318
vt 0.611279 0.307335
vt 0.663042 0.309155
vt 0.562590 0.306089
vt 0.515025 0.305270
vt 0.468146 0.304759
vt 0.421682 0.304510
vt 0.375410 0.304500
vt 0.329119 0.304756
vt 0.282618 0.305030
vt 0.188078 0.306477
vt 0.139287 0.307819
vt 0.087577 0.309780
vt 0.633675 0.346283
vt 0.591238 0.343618
vt 0.548180 0.342187
vt 0.504969 0.341343
vt 0.461788 0.340839
vt 0.418657 0.340566
vt 0.375524 0.340469
vt 0.332326 0.340504
vt 0.289080 0.340900
vt 0.245804 0.341455
vt 0.202560 0.342329
vt 0.159505 0.343787
vt 0.117073 0.346483
vt 0.626493 0.354810
vt 0.585729 0.352464
vt 0.544068 0.351068
vt 0.502031 0.350229
vt 0.459885 0.349725
vt 0.417709 0.349443
vt 0.375499 0.349327
vt 0.333239 0.349352
vt 0.290980 0.349740
vt 0.248741 0.350284
vt 0.206673 0.351150
vt 0.165025 0.352564
vt 0.124278 0.354916
vt 0.613545 0.301530
vt 0.663982 0.302783
vt 0.564409 0.300377
vt 0.516316 0.299559
vt 0.468957 0.299042
vt 0.422060 0.298792
vt 0.375381 0.298789
vt 0.328704 0.299023
vt 0.281799 0.299423
vt 0.186260 0.300812
vt 0.137058 0.302065
vt 0.086587 0.303496
vt 0.629165 0.064227
vt 0.678579 0.065552
vt 0.578006 0.063507
vt 0.526692 0.063121
vt 0.475406 0.062974
vt 0.424170 0.063000
vt 0.372967 0.063149
vt 0.321694 0.063322
vt 0.270397 0.063851
vt 0.167902 0.065167
vt 0.116807 0.066167
vt 0.067451 0.067667
vt 0.629920 0.060294
vt 0.680607 0.061847
vt 0.578441 0.059578
vt 0.526939 0.059210
vt 0.475527 0.059083
vt 0.424197 0.059127
vt 0.372918 0.059296
vt 0.321554 0.059485
vt 0.270156 0.059994
vt 0.167358 0.061273
vt 0.115948 0.062266
vt 0.065272 0.063998
vt 0.662977 0.936173
vt 0.754899 0.971876
vt 0.704195 0.958788
vt 0.819019 0.976278
vt 0.655349 0.917370
vt 0.681062 0.943206
vt 0.826282 0.811777
vt 0.257980 0.378338
vt 0.262476 0.981478
vt 0.256181 0.372659
vt 0.237413 0.312649
vt 0.254444 0.367356
vt 0.235714 0.305612
vt 0.234409 0.299943
vt 0.219530 0.068451
vt 0.219140 0.064411
vt 0.218781 0.060534
vt 0.152263 0.981501
vt 0.645013 0.877688
vt 0.931222 0.949960
vt 0.881781 0.967937
vt 0.964152 0.924392
vt 0.976125 0.894685
vt 0.965522 0.864851
vt 0.933776 0.838921
vt 0.885175 0.820396
vt 0.826283 0.811777
vt 0.709752 0.827422
vt 0.765052 0.814229
vt 0.667853 0.849571
vt 0.702052 0.838202
vt 0.108350 0.017000
vt 0.636294 0.014764
vt 0.691850 0.016299
vt 0.581841 0.013955
vt 0.528393 0.013614
vt 0.475685 0.013554
vt 0.423473 0.013679
vt 0.371561 0.013942
vt 0.319830 0.014299
vt 0.215517 0.015040
vt 0.162424 0.015770
vn 0.888740 0.000000 -0.458412
vn 0.663127 -0.000000 -0.748507
vn 0.663127 -0.000000 -0.748507
vn 0.888740 0.000000 -0.458413
vn 0.347955 -0.000000 -0.937511
vn 0.347956 -0.000000 -0.937511
vn -0.014210 -0.000000 -0.999899
vn -0.014210 -0.000000 -0.999899
vn -0.374454 0.000000 -0.927245
vn -0.374454 0.000000 -0.927245
vn -0.684129 0.000000 -0.729361
vn -0.684129 0.000000 -0.729361
vn -0.901407 0.000000 -0.432973
vn -0.901406 0.000000 -0.432974
vn -0.996945 0.000000 -0.078111
vn -0.996945 0.000000 -0.078111
vn -0.957840 0.000000 0.287302
vn -0.957840 0.000000 0.287302
vn -0.789374 0.000000 0.613912
vn -0.789374 0.000000 0.613912
vn -0.514298 0.000000 0.857611
vn -0.514298 0.000000 0.857611
vn -0.347954 0.000000 0.937512
vn -0.347954 0.000000 0.937512
vn 0.957840 0.000000 -0.287302
vn 0.957840 0.000000 -0.287302
vn 0.000000 -1.000000 0.000001
vn -0.000000 -1.000000 -0.000001
vn -0.000000 -1.000000 -0.000000
vn 0.000000 -1.000000 0.000000
vn -0.000000 -1.000000 -0.000000
vn 0.000000 -1.000000 0.000000
vn 0.000000 -1.000000 0.000000
vn 0.000000 -1.000000 0.000000
vn 0.000000 -1.000000 0.000000
vn -0.000000 -1.000000 -0.000001
vn -0.000000 -1.000000 -0.000001
vn 0.000000 -1.000000 0.000000
vn 0.000000 -1.000000 0.000000
vn -0.000000 -1.000000 -0.000003
vn 0.000000 1.000000 0.000002
vn 0.000000 1.000000 0.000002
vn 0.000000 1.000000 0.000001
vn 0.000000 1.000000 0.000000
vn 0.000000 1.000000 0.000000
vn 0.000000 1.000000 0.000000
vn 0.000000 1.000000 0.000000
vn 0.000000 1.000000 0.000002
vn 0.000000 1.000000 0.000002
vn 0.000000 1.000000 0.000000
vn 0.000000 1.000000 0.000002
vn 0.000000 1.000000 0.000002
vn 0.000000 1.000000 0.000000
vn 0.000000 1.000000 0.000000
vn -0.269702 0.851119 0.450398
vn -0.184825 0.847264 0.497980
vn -0.184825 0.847264 0.497980
vn -0.270224 0.851117 0.450087
vn -0.414752 0.850624 0.323141
vn -0.415258 0.850621 0.322497
vn -0.504395 0.850019 0.151829
vn -0.504665 0.850016 0.150947
vn -0.526200 0.849385 -0.040722
vn -0.526134 0.849382 -0.041623
vn -0.476759 0.848807 -0.228533
vn -0.476434 0.848805 -0.229217
vn -0.362393 0.848365 -0.385938
vn -0.362022 0.848364 -0.386287
vn -0.198486 0.848120 -0.491218
vn -0.198309 0.848120 -0.491289
vn -0.007442 0.848107 -0.529772
vn -0.007596 0.848107 -0.529770
vn 0.184483 0.848328 -0.496291
vn 0.184034 0.848328 -0.496459
vn 0.350963 0.848753 -0.395529
vn 0.350413 0.848751 -0.396020
vn 0.469372 0.849322 -0.241543
vn 0.468968 0.849319 -0.242336
vn 0.511415 0.845532 -0.153398
vn 0.511415 0.845531 -0.153398
vn -0.249051 0.874638 0.415912
vn -0.170786 0.871256 0.460158
vn -0.245065 0.709904 0.660287
vn -0.359220 0.715337 0.599378
vn -0.383026 0.874205 0.298424
vn -0.552038 0.714600 0.429652
vn -0.465862 0.873675 0.140231
vn -0.670838 0.713700 0.201513
vn -0.486055 0.873118 -0.037617
vn -0.699288 0.712758 -0.054511
vn -0.440431 0.872611 -0.211119
vn -0.633141 0.711901 -0.303859
vn -0.334805 0.872222 -0.356558
vn -0.481018 0.711246 -0.512593
vn -0.183383 0.872008 -0.453842
vn -0.263412 0.710885 -0.652118
vn -0.006875 0.871999 -0.489459
vn -0.009946 0.710867 -0.703256
vn 0.170438 0.872194 -0.458508
vn 0.244749 0.711195 -0.659014
vn 0.324222 0.872565 -0.365392
vn 0.465922 0.711823 -0.525571
vn 0.433569 0.873062 -0.223116
vn 0.623582 0.712664 -0.321335
vn 0.472713 0.869735 -0.141789
vn 0.676543 0.707891 -0.202928
vn -0.511171 0.103405 0.853236
vn -0.346149 0.101752 0.932645
vn -0.346149 0.101752 0.932645
vn -0.511853 0.103405 0.852827
vn -0.784801 0.103192 0.611096
vn -0.785464 0.103192 0.610244
vn -0.952565 0.102930 0.286402
vn -0.952912 0.102929 0.285246
vn -0.991728 0.102653 -0.077064
vn -0.991636 0.102652 -0.078236
vn -0.896897 0.102403 -0.430220
vn -0.896473 0.102402 -0.431103
vn -0.680811 0.102211 -0.725293
vn -0.680321 0.102211 -0.725752
vn -0.372621 0.102111 -0.922348
vn -0.372393 0.102111 -0.922441
vn -0.014022 0.102116 -0.994674
vn -0.014231 0.102116 -0.994671
vn 0.346445 0.102215 -0.932485
vn 0.345867 0.102214 -0.932699
vn 0.660021 0.102391 -0.744236
vn 0.659321 0.102391 -0.744857
vn 0.884336 0.102629 -0.455431
vn 0.883801 0.102628 -0.456467
vn 0.952939 0.101030 -0.285833
vn 0.952939 0.101030 -0.285833
vn -0.514297 0.000000 0.857612
vn -0.347957 0.000000 0.937511
vn -0.347957 0.000000 0.937511
vn -0.514298 0.000000 0.857612
vn -0.789374 0.000000 0.613913
vn -0.789374 0.000000 0.613913
vn -0.957840 0.000000 0.287301
vn -0.957840 0.000000 0.287301
vn -0.996945 0.000000 -0.078111
vn -0.996945 0.000000 -0.078111
vn -0.901406 0.000000 -0.432974
vn -0.901406 0.000000 -0.432974
vn -0.684128 0.000000 -0.729362
vn -0.684128 0.000000 -0.729362
vn -0.374454 0.000000 -0.927245
vn -0.374454 0.000000 -0.927245
vn -0.014210 0.000000 -0.999899
vn -0.014210 0.000000 -0.999899
vn 0.347955 0.000000 -0.937511
vn 0.347955 0.000000 -0.937511
vn 0.663128 0.000000 -0.748506
vn 0.663128 0.000000 -0.748506
vn 0.888740 0.000000 -0.458412
vn 0.888740 0.000000 -0.458412
vn 0.957840 0.000000 -0.287302
vn 0.957840 0.000000 -0.287302
vn -0.357165 -0.720088 0.594900
vn -0.243471 -0.714421 0.655992
vn -0.243471 -0.714420 0.655992
vn -0.356478 -0.720090 0.595309
vn -0.548623 -0.719357 0.426073
vn -0.547958 -0.719360 0.426923
vn -0.666394 -0.718463 0.199324
vn -0.666041 -0.718467 0.200484
vn -0.694361 -0.717528 -0.054930
vn -0.694449 -0.717532 -0.053745
vn -0.628454 -0.716678 -0.302355
vn -0.628882 -0.716681 -0.301456
vn -0.477353 -0.716029 -0.509349
vn -0.477842 -0.716030 -0.508888
vn -0.261430 -0.715674 -0.647662
vn -0.261662 -0.715674 -0.647568
vn -0.010015 -0.715659 -0.698378
vn -0.009810 -0.715659 -0.698381
vn 0.242653 -0.715985 -0.654588
vn 0.243241 -0.715986 -0.654368
vn 0.462198 -0.716606 -0.522350
vn 0.462919 -0.716608 -0.521708
vn 0.618880 -0.717436 -0.319802
vn 0.619414 -0.717441 -0.318757
vn 0.672680 -0.711892 -0.201769
vn 0.672680 -0.711892 -0.201769
vn -0.313150 0.435954 0.843730
vn -0.461442 0.441529 0.769496
vn -0.708544 0.440778 0.551072
vn -0.860197 0.439862 0.258034
vn -0.895789 0.438906 -0.070166
vn -0.810332 0.438039 -0.389209
vn -0.615230 0.437379 -0.655890
vn -0.336809 0.437014 -0.834014
vn -0.012777 0.436995 -0.899373
vn 0.312927 0.437326 -0.843103
vn 0.596159 0.437961 -0.672892
vn 0.798611 0.438812 -0.411903
vn 0.863038 0.433767 -0.258866
vn -0.460735 -0.445009 0.767913
vn -0.312546 -0.439506 0.842110
vn -0.230901 -0.748086 0.622135
vn -0.337805 -0.753419 0.564134
vn -0.707362 -0.444257 0.549795
vn -0.519311 -0.752735 0.404606
vn -0.858648 -0.443342 0.257237
vn -0.631297 -0.751899 0.190029
vn -0.894062 -0.442386 -0.070342
vn -0.658310 -0.751021 -0.050949
vn -0.808683 -0.441516 -0.388710
vn -0.596228 -0.750220 -0.285801
vn -0.613938 -0.440857 -0.654771
vn -0.453070 -0.749608 -0.482509
vn -0.336112 -0.440493 -0.832463
vn -0.248111 -0.749271 -0.614030
vn -0.012806 -0.440474 -0.897674
vn -0.009302 -0.749255 -0.662216
vn 0.312180 -0.440803 -0.841568
vn 0.230639 -0.749560 -0.620457
vn 0.594839 -0.441437 -0.671788
vn 0.438892 -0.750145 -0.494627
vn 0.796953 -0.442289 -0.411396
vn 0.587189 -0.750932 -0.302177
vn 0.861310 -0.437494 -0.258350
vn 0.638184 -0.745707 -0.191424
vn -0.510733 0.110990 0.852545
vn -0.345872 0.109222 0.931903
vn -0.345872 0.109222 0.931903
vn -0.511445 0.110990 0.852118
vn -0.784151 0.110757 0.610606
vn -0.784825 0.110756 0.609740
vn -0.951782 0.110476 0.286193
vn -0.952141 0.110475 0.284995
vn -0.990926 0.110186 -0.076975
vn -0.990830 0.110185 -0.078193
vn -0.896182 0.109925 -0.429854
vn -0.895743 0.109924 -0.430768
vn -0.680264 0.109726 -0.724707
vn -0.679773 0.109725 -0.725168
vn -0.372325 0.109613 -0.921607
vn -0.372092 0.109613 -0.921701
vn -0.014011 0.109602 -0.993877
vn -0.014219 0.109602 -0.993874
vn 0.346183 0.109700 -0.931731
vn 0.345579 0.109700 -0.931956
vn 0.659510 0.109895 -0.743619
vn 0.658774 0.109895 -0.744271
vn 0.883631 0.110155 -0.455040
vn 0.883078 0.110154 -0.456114
vn 0.952191 0.108441 -0.285608
vn 0.952191 0.108441 -0.285608
vn -0.332879 0.291179 0.896887
vn -0.491394 0.295542 0.819260
vn -0.754317 0.294974 0.586512
vn -0.915461 0.294282 0.274463
vn -0.953011 0.293560 -0.074788
vn -0.861828 0.292906 -0.414075
vn -0.654178 0.292410 -0.697530
vn -0.358097 0.292136 -0.886805
vn -0.013609 0.292122 -0.956284
vn 0.332693 0.292371 -0.896568
vn 0.633982 0.292847 -0.715757
vn 0.849548 0.293489 -0.438329
vn 0.916893 0.289259 -0.275020
vn -0.341766 0.187765 0.920837
vn -0.504785 0.190618 0.841936
vn -0.774881 0.190225 0.602804
vn -0.940397 0.189749 0.282221
vn -0.978939 0.189253 -0.076558
vn -0.885245 0.188803 -0.425082
vn -0.671928 0.188461 -0.716237
vn -0.367786 0.188273 -0.910652
vn -0.013931 0.188263 -0.982020
vn 0.341793 0.188433 -0.920690
vn 0.651292 0.188761 -0.734974
vn 0.872751 0.189203 -0.450009
vn 0.941006 0.186658 -0.282253
vn -0.345522 0.118051 0.930956
vn -0.510918 0.119960 0.851218
vn -0.784019 0.119710 0.609085
vn -0.951156 0.119407 0.284682
vn -0.989804 0.119092 -0.078130
vn -0.894814 0.118806 -0.430341
vn -0.679063 0.118588 -0.724438
vn -0.371706 0.118468 -0.920761
vn -0.014207 0.118463 -0.992857
vn 0.345216 0.118571 -0.931003
vn 0.658081 0.118779 -0.743520
vn 0.882157 0.119061 -0.455658
vn 0.951237 0.117214 -0.285322
vn -0.514108 -0.026058 0.857329
vn -0.347842 -0.025668 0.937202
vn -0.248344 -0.700430 0.669121
vn -0.363731 -0.706217 0.607419
vn -0.789092 -0.026003 0.613725
vn -0.559082 -0.705472 0.435588
vn -0.957510 -0.025936 0.287232
vn -0.679527 -0.704560 0.204544
vn -0.996613 -0.025866 -0.078058
vn -0.708470 -0.703607 -0.054833
vn -0.901116 -0.025803 -0.432809
vn -0.641549 -0.702740 -0.307526
vn -0.683913 -0.025755 -0.729109
vn -0.487448 -0.702076 -0.519119
vn -0.374335 -0.025728 -0.926937
vn -0.266916 -0.701711 -0.660574
vn -0.014199 -0.025727 -0.999568
vn -0.010007 -0.701695 -0.712407
vn 0.347853 -0.025751 -0.937195
vn 0.248133 -0.702028 -0.667523
vn 0.662922 -0.025797 -0.748244
vn 0.472244 -0.702662 -0.532215
vn 0.888454 -0.025859 -0.458236
vn 0.631920 -0.703511 -0.325192
vn 0.957528 -0.025539 -0.287208
vn 0.686046 -0.697851 -0.205779
vn -0.514316 -0.005468 0.857583
vn -0.347952 -0.005380 0.937497
vn -0.789386 -0.005456 0.613873
vn -0.957838 -0.005442 0.287256
vn -0.996927 -0.005428 -0.078153
vn -0.901378 -0.005414 -0.432999
vn -0.684101 -0.005404 -0.729367
vn -0.374440 -0.005399 -0.927236
vn -0.014215 -0.005398 -0.999884
vn 0.347929 -0.005403 -0.937505
vn 0.663091 -0.005413 -0.748519
vn 0.888707 -0.005426 -0.458444
vn 0.957826 -0.005341 -0.287298
vn -0.466351 0.422339 0.777268
vn -0.316262 0.416992 0.852113
vn -0.715952 0.421608 0.556471
vn -0.869032 0.420717 0.260349
vn -0.904827 0.419786 -0.071187
vn -0.818381 0.418945 -0.393367
vn -0.621278 0.418300 -0.662600
vn -0.340124 0.417944 -0.842400
vn -0.012958 0.417925 -0.908389
vn 0.315912 0.418248 -0.851627
vn 0.601971 0.418868 -0.679838
vn 0.806545 0.419694 -0.416343
vn 0.871447 0.415038 -0.261388
vn -0.348868 0.734080 0.582596
vn -0.238352 0.728542 0.642195
vn -0.536280 0.733367 0.417823
vn -0.651878 0.732496 0.196225
vn -0.679720 0.731582 -0.052607
vn -0.615575 0.730751 -0.295077
vn -0.467747 0.730114 -0.498142
vn -0.256141 0.729763 -0.633907
vn -0.009603 0.729746 -0.683650
vn 0.238109 0.730067 -0.640552
vn 0.453127 0.730678 -0.510671
vn 0.606280 0.731492 -0.311999
vn 0.658633 0.726069 -0.197554
vn -0.408572 0.606245 0.682302
vn -0.278364 0.599998 0.750011
vn -0.278364 0.599998 0.750011
vn -0.409356 0.606243 0.681834
vn -0.627835 0.605437 0.489152
vn -0.628593 0.605433 0.488182
vn -0.762834 0.604451 0.229616
vn -0.763235 0.604446 0.228292
vn -0.795046 0.603420 -0.061535
vn -0.794944 0.603416 -0.062883
vn -0.719716 0.602483 -0.344998
vn -0.719226 0.602479 -0.346024
vn -0.546705 0.601768 -0.582228
vn -0.546149 0.601767 -0.582751
vn -0.299325 0.601374 -0.740779
vn -0.299060 0.601374 -0.740886
vn -0.011223 0.601355 -0.798903
vn -0.011456 0.601355 -0.798899
vn 0.278291 0.601714 -0.748662
vn 0.277619 0.601712 -0.748913
vn 0.529767 0.602398 -0.597046
vn 0.528942 0.602395 -0.597780
vn 0.709113 0.603317 -0.364920
vn 0.708503 0.603313 -0.366111
vn 0.768258 0.597225 -0.230437
vn 0.768258 0.597225 -0.230437
vn -0.000000 1.000000 -0.000001
vn -0.000000 1.000000 -0.000002
vn 0.000000 1.000000 0.000000
vn 0.000000 1.000000 0.000000
vn -0.000000 1.000000 -0.000002
vn 0.000000 1.000000 0.000000
vn 0.000000 1.000000 0.000000
s 1
g corner_pillar
usemtl initialShadingGroup
f 1/257/1 2/267/2 234/3/3 235/4/4
f 2/267/2 3/266/5 233/5/6 234/3/3
f 3/266/5 4/6/7 232/7/8 233/5/6
f 4/6/7 5/265/9 231/9/10 232/7/8
f 5/265/9 6/264/11 230/11/12 231/9/10
f 6/264/11 7/263/13 229/13/14 230/11/12
f 7/263/13 8/262/15 228/15/16 229/13/14
f 8/262/15 9/261/17 227/17/18 228/15/16
f 9/261/17 10/260/19 226/19/20 227/17/18
f 10/260/19 11/258/21 225/21/22 226/19/20
f 11/258/21 12/259/23 224/23/24 225/21/22
f 13/24/25 1/257/1 235/4/4 236/25/26
s 2
f 2/2/27 1/1/28 27/26/29
f 3/230/30 2/2/27 27/26/29
f 4/231/31 3/230/30 27/26/29
f 5/8/32 4/231/31 27/26/29
f 6/10/33 5/8/32 27/26/29
f 7/12/34 6/10/33 27/26/29
f 8/14/35 7/12/34 27/26/29
f 9/16/36 8/14/35 27/26/29
f 10/18/37 9/16/36 27/26/29
f 11/20/38 10/18/37 27/26/29
f 12/22/39 11/20/38 27/26/29
f 1/1/28 13/256/40 27/26/29
s 3
f 14/244/41 15/255/42 28/29/43
f 15/255/42 16/253/44 28/29/43
f 16/253/44 17/254/45 28/29/43
f 17/254/45 18/232/46 28/29/43
f 18/252/46 19/251/47 28/29/43
f 19/251/47 20/250/48 28/29/43
f 20/250/48 21/249/49 28/29/43
f 21/249/49 22/248/50 28/29/43
f 22/248/50 23/247/51 28/29/43
f 23/247/51 24/245/52 28/29/43
f 24/245/52 25/246/53 28/29/43
f 26/39/54 14/244/41 28/29/43
s 4
f 30/40/55 29/41/56 68/42/57 69/43/58
f 31/44/59 30/40/55 69/43/58 70/45/60
f 32/46/61 31/44/59 70/45/60 71/47/62
f 33/48/63 32/46/61 71/47/62 72/49/64
f 34/50/65 33/48/63 72/49/64 73/51/66
f 35/52/67 34/50/65 73/51/66 74/53/68
f 36/54/69 35/52/67 74/53/68 75/55/70
f 37/56/71 36/54/69 75/55/70 76/57/72
f 38/233/73 37/56/71 76/57/72 77/58/74
f 39/59/75 38/233/73 77/58/74 78/60/76
f 40/61/77 39/59/75 78/60/76 79/62/78
f 41/63/79 40/61/77 79/62/78 80/64/80
s 5
f 43/65/81 42/66/82 94/67/83 95/68/84
f 44/69/85 43/65/81 95/68/84 96/70/86
f 45/71/87 44/69/85 96/70/86 97/72/88
f 46/73/89 45/71/87 97/72/88 98/74/90
f 47/75/91 46/73/89 98/74/90 99/76/92
f 48/77/93 47/75/91 99/76/92 100/78/94
f 49/79/95 48/77/93 100/78/94 101/80/96
f 50/81/97 49/79/95 101/80/96 102/82/98
f 51/236/99 50/81/97 102/82/98 103/83/100
f 52/84/101 51/236/99 103/83/100 104/85/102
f 53/86/103 52/84/101 104/85/102 105/87/104
f 54/88/105 53/86/103 105/87/104 106/89/106
s 6
f 56/90/107 55/91/108 29/41/109 30/40/110
f 57/92/111 56/90/107 30/40/110 31/44/112
f 58/93/113 57/92/111 31/44/112 32/46/114
f 59/94/115 58/93/113 32/46/114 33/48/116
f 60/95/117 59/94/115 33/48/116 34/50/118
f 61/96/119 60/95/117 34/50/118 35/52/120
f 62/97/121 61/96/119 35/52/120 36/54/122
f 63/98/123 62/97/121 36/54/122 37/56/124
f 64/235/125 63/98/123 37/56/124 38/233/126
f 65/99/127 64/235/125 38/233/126 39/59/128
f 66/100/129 65/99/127 39/59/128 40/61/130
f 67/101/131 66/100/129 40/61/130 41/63/132
s 7
f 69/43/133 68/42/134 25/38/135 24/37/136
f 70/45/137 69/43/133 24/37/136 23/36/138
f 71/47/139 70/45/137 23/36/138 22/35/140
f 72/49/141 71/47/139 22/35/140 21/34/142
f 73/51/143 72/49/141 21/34/142 20/33/144
f 74/53/145 73/51/143 20/33/144 19/32/146
f 75/55/147 74/53/145 19/32/146 18/31/148
f 76/57/149 75/55/147 18/31/148 17/30/150
f 77/58/151 76/57/149 17/30/150 16/234/152
f 78/60/153 77/58/151 16/234/152 15/28/154
f 79/62/155 78/60/153 15/28/154 14/27/156
f 26/243/157 80/64/158 79/62/155 14/27/156
s 8
f 82/102/159 81/103/160 55/91/161 56/90/162
f 83/104/163 82/102/159 56/90/162 57/92/164
f 84/105/165 83/104/163 57/92/164 58/93/166
f 85/106/167 84/105/165 58/93/166 59/94/168
f 86/107/169 85/106/167 59/94/168 60/95/170
f 87/108/171 86/107/169 60/95/170 61/96/172
f 88/109/173 87/108/171 61/96/172 62/97/174
f 89/110/175 88/109/173 62/97/174 63/98/176
f 90/237/177 89/110/175 63/98/176 64/235/178
f 91/111/179 90/237/177 64/235/178 65/99/180
f 92/112/181 91/111/179 65/99/180 66/100/182
f 93/113/183 92/112/181 66/100/182 67/101/184
s 5
f 95/68/84 94/67/83 133/114/185 134/115/186
f 96/70/86 95/68/84 134/115/186 135/116/187
f 97/72/88 96/70/86 135/116/187 136/117/188
f 98/74/90 97/72/88 136/117/188 137/118/189
f 99/76/92 98/74/90 137/118/189 138/119/190
f 100/78/94 99/76/92 138/119/190 139/120/191
f 101/80/96 100/78/94 139/120/191 140/121/192
f 102/82/98 101/80/96 140/121/192 141/122/193
f 103/83/100 102/82/98 141/122/193 142/123/194
f 104/85/102 103/83/100 142/123/194 143/124/195
f 105/87/104 104/85/102 143/124/195 144/125/196
f 106/89/106 105/87/104 144/125/196 145/126/197
s 9
f 108/127/198 107/128/199 185/129/200 186/130/201
f 109/131/202 108/127/198 186/130/201 187/132/203
f 110/133/204 109/131/202 187/132/203 188/134/205
f 111/135/206 110/133/204 188/134/205 189/136/207
f 112/137/208 111/135/206 189/136/207 190/138/209
f 113/139/210 112/137/208 190/138/209 191/140/211
f 114/141/212 113/139/210 191/140/211 192/142/213
f 115/143/214 114/141/212 192/142/213 193/144/215
f 116/240/216 115/143/214 193/144/215 194/145/217
f 117/146/218 116/240/216 194/145/217 195/147/219
f 118/148/220 117/146/218 195/147/219 196/149/221
f 119/150/222 118/148/220 196/149/221 197/151/223
s 10
f 121/152/224 120/153/225 42/66/226 43/65/227
f 122/154/228 121/152/224 43/65/227 44/69/229
f 123/155/230 122/154/228 44/69/229 45/71/231
f 124/156/232 123/155/230 45/71/231 46/73/233
f 125/157/234 124/156/232 46/73/233 47/75/235
f 126/158/236 125/157/234 47/75/235 48/77/237
f 127/159/238 126/158/236 48/77/237 49/79/239
f 128/160/240 127/159/238 49/79/239 50/81/241
f 129/238/242 128/160/240 50/81/241 51/236/243
f 130/161/244 129/238/242 51/236/243 52/84/245
f 131/162/246 130/161/244 52/84/245 53/86/247
f 132/163/248 131/162/246 53/86/247 54/88/249
s 5
f 134/115/186 133/114/185 146/164/250 147/165/251
f 135/116/187 134/115/186 147/165/251 148/166/252
f 136/117/188 135/116/187 148/166/252 149/167/253
f 137/118/189 136/117/188 149/167/253 150/168/254
f 138/119/190 137/118/189 150/168/254 151/169/255
f 139/120/191 138/119/190 151/169/255 152/170/256
f 140/121/192 139/120/191 152/170/256 153/171/257
f 141/122/193 140/121/192 153/171/257 154/172/258
f 142/123/194 141/122/193 154/172/258 155/173/259
f 143/124/195 142/123/194 155/173/259 156/174/260
f 144/125/196 143/124/195 156/174/260 157/175/261
f 145/126/197 144/125/196 157/175/261 158/176/262
f 147/165/251 146/164/250 159/177/263 160/178/264
f 148/166/252 147/165/251 160/178/264 161/179/265
f 149/167/253 148/166/252 161/179/265 162/180/266
f 150/168/254 149/167/253 162/180/266 163/181/267
f 151/169/255 150/168/254 163/181/267 164/182/268
f 152/170/256 151/169/255 164/182/268 165/183/269
f 153/171/257 152/170/256 165/183/269 166/184/270
f 154/172/258 153/171/257 166/184/270 167/185/271
f 155/173/259 154/172/258 167/185/271 168/186/272
f 156/174/260 155/173/259 168/186/272 169/187/273
f 157/175/261 156/174/260 169/187/273 170/188/274
f 158/176/262 157/175/261 170/188/274 171/189/275
f 160/178/264 159/177/263 81/103/276 82/102/277
f 161/179/265 160/178/264 82/102/277 83/104/278
f 162/180/266 161/179/265 83/104/278 84/105/279
f 163/181/267 162/180/266 84/105/279 85/106/280
f 164/182/268 163/181/267 85/106/280 86/107/281
f 165/183/269 164/182/268 86/107/281 87/108/282
f 166/184/270 165/183/269 87/108/282 88/109/283
f 167/185/271 166/184/270 88/109/283 89/110/284
f 168/186/272 167/185/271 89/110/284 90/237/285
f 169/187/273 168/186/272 90/237/285 91/111/286
f 170/188/274 169/187/273 91/111/286 92/112/287
f 171/189/275 170/188/274 92/112/287 93/113/288
s 11
f 173/190/289 172/191/290 120/153/291 121/152/292
f 174/192/293 173/190/289 121/152/292 122/154/294
f 175/193/295 174/192/293 122/154/294 123/155/296
f 176/194/297 175/193/295 123/155/296 124/156/298
f 177/195/299 176/194/297 124/156/298 125/157/300
f 178/196/301 177/195/299 125/157/300 126/158/302
f 179/197/303 178/196/301 126/158/302 127/159/304
f 180/198/305 179/197/303 127/159/304 128/160/306
f 181/239/307 180/198/305 128/160/306 129/238/308
f 182/199/309 181/239/307 129/238/308 130/161/310
f 183/200/311 182/199/309 130/161/310 131/162/312
f 184/201/313 183/200/311 131/162/312 132/163/314
f 186/130/315 185/129/316 172/191/290 173/190/289
f 187/132/317 186/130/315 173/190/289 174/192/293
f 188/134/318 187/132/317 174/192/293 175/193/295
f 189/136/319 188/134/318 175/193/295 176/194/297
f 190/138/320 189/136/319 176/194/297 177/195/299
f 191/140/321 190/138/320 177/195/299 178/196/301
f 192/142/322 191/140/321 178/196/301 179/197/303
f 193/144/323 192/142/322 179/197/303 180/198/305
f 194/145/324 193/144/323 180/198/305 181/239/307
f 195/147/325 194/145/324 181/239/307 182/199/309
f 196/149/326 195/147/325 182/199/309 183/200/311
f 197/151/327 196/149/326 183/200/311 184/201/313
s 9
f 108/127/198 199/202/328 198/203/329 107/128/199
f 109/131/202 200/204/330 199/202/328 108/127/198
f 110/133/204 201/205/331 200/204/330 109/131/202
f 111/135/206 202/206/332 201/205/331 110/133/204
f 112/137/208 203/207/333 202/206/332 111/135/206
f 113/139/210 204/208/334 203/207/333 112/137/208
f 114/141/212 205/209/335 204/208/334 113/139/210
f 115/143/214 206/210/336 205/209/335 114/141/212
f 116/240/216 207/241/337 206/210/336 115/143/214
f 117/146/218 208/211/338 207/241/337 116/240/216
f 118/148/220 209/212/339 208/211/338 117/146/218
f 119/150/222 210/213/340 209/212/339 118/148/220
f 212/214/341 211/215/342 198/203/329 199/202/328
f 213/216/343 212/214/341 199/202/328 200/204/330
f 214/217/344 213/216/343 200/204/330 201/205/331
f 215/218/345 214/217/344 201/205/331 202/206/332
f 216/219/346 215/218/345 202/206/332 203/207/333
f 217/220/347 216/219/346 203/207/333 204/208/334
f 218/221/348 217/220/347 204/208/334 205/209/335
f 219/222/349 218/221/348 205/209/335 206/210/336
f 220/242/350 219/222/349 206/210/336 207/241/337
f 221/223/351 220/242/350 207/241/337 208/211/338
f 222/224/352 221/223/351 208/211/338 209/212/339
f 223/225/353 222/224/352 209/212/339 210/213/340
s 12
f 225/21/354 224/23/355 211/215/356 212/214/357
f 226/19/358 225/21/354 212/214/357 213/216/359
f 227/17/360 226/19/358 213/216/359 214/217/361
f 228/15/362 227/17/360 214/217/361 215/218/363
f 229/13/364 228/15/362 215/218/363 216/219/365
f 230/11/366 229/13/364 216/219/365 217/220/367
f 231/9/368 230/11/366 217/220/367 218/221/369
f 232/7/370 231/9/368 218/221/369 219/222/371
f 233/5/372 232/7/370 219/222/371 220/242/373
f 234/3/374 233/5/372 220/242/373 221/223/375
f 235/4/376 234/3/374 221/223/375 222/224/377
f 236/25/378 235/4/376 222/224/377 223/225/379
s 13
f 28/29/380 240/226/381 26/39/382
f 28/29/380 238/227/383 237/228/384
f 28/29/380 239/229/385 238/227/383
f 28/29/380 25/246/386 239/229/385
f 28/29/380 237/228/384 240/226/381
