# This file uses centimeters as units for non-parametric coordinates.

mtllib door_handle.mtl
g default
v 0.232643 0.566449 0.061183
v 0.219421 0.582985 0.059980
v 0.200315 0.592161 0.059313
v 0.179110 0.592161 0.059313
v 0.160004 0.582985 0.059980
v 0.146783 0.566449 0.061183
v 0.142064 0.545830 0.062682
v 0.146783 0.525210 0.064182
v 0.160004 0.508675 0.065384
v 0.179110 0.499498 0.066052
v 0.200315 0.499498 0.066052
v 0.219421 0.508675 0.065384
v 0.232643 0.525210 0.064182
v 0.237361 0.545830 0.062682
v 0.242639 0.570312 0.047928
v 0.226339 0.590698 0.046446
v 0.202784 0.602011 0.045623
v 0.176641 0.602011 0.045623
v 0.153086 0.590698 0.046446
v 0.136786 0.570312 0.047928
v 0.130969 0.544891 0.049777
v 0.136786 0.519471 0.051626
v 0.153086 0.499085 0.053109
v 0.176641 0.487771 0.053931
v 0.202784 0.487771 0.053931
v 0.226339 0.499085 0.053109
v 0.242639 0.519470 0.051626
v 0.248456 0.544891 0.049777
v 0.232643 0.565511 0.048278
v 0.219421 0.582046 0.047075
v 0.200315 0.591223 0.046408
v 0.179110 0.591223 0.046408
v 0.160004 0.582046 0.047075
v 0.146783 0.565511 0.048278
v 0.142064 0.544891 0.049777
v 0.146783 0.524272 0.051277
v 0.160004 0.507736 0.052479
v 0.179110 0.498560 0.053147
v 0.200315 0.498560 0.053147
v 0.219421 0.507736 0.052479
v 0.232643 0.524272 0.051277
v 0.237361 0.544891 0.049777
v 0.237641 0.568850 0.061008
v 0.242639 0.570859 0.055440
v 0.222880 0.587311 0.059665
v 0.226339 0.591244 0.053957
v 0.201550 0.597556 0.058920
v 0.202784 0.602558 0.053134
v 0.177875 0.597556 0.058920
v 0.176641 0.602558 0.053134
v 0.156545 0.587311 0.059665
v 0.153086 0.591244 0.053957
v 0.141784 0.568850 0.061008
v 0.136786 0.570859 0.055440
v 0.136516 0.545830 0.062682
v 0.130969 0.545438 0.057288
v 0.141784 0.522810 0.064356
v 0.136786 0.520017 0.059137
v 0.156545 0.504349 0.065699
v 0.153086 0.499631 0.060620
v 0.177875 0.494104 0.066444
v 0.176641 0.488317 0.061443
v 0.201550 0.494104 0.066444
v 0.202784 0.488317 0.061443
v 0.222880 0.504349 0.065699
v 0.226339 0.499631 0.060620
v 0.237641 0.522809 0.064356
v 0.242639 0.520017 0.059137
v 0.242909 0.545830 0.062682
v 0.248456 0.545438 0.057288
vt 0.604598 0.966393
vt 0.606564 0.953910
vt 0.627540 0.952185
vt 0.631195 0.964282
vt 0.579732 0.956785
vt 0.586883 0.946361
vt 0.561443 0.937390
vt 0.572382 0.931051
vt 0.553327 0.911980
vt 0.565931 0.911005
vt 0.557064 0.885540
vt 0.568832 0.890166
vt 0.571952 0.863350
vt 0.580525 0.872647
vt 0.595008 0.849853
vt 0.598664 0.861950
vt 0.621603 0.847742
vt 0.619638 0.860225
vt 0.646469 0.857349
vt 0.639319 0.867773
vt 0.664758 0.876741
vt 0.672875 0.902151
vt 0.660271 0.903128
vt 0.669140 0.928591
vt 0.657371 0.923967
vt 0.654253 0.950783
vt 0.645680 0.941486
vt 0.632897 0.969741
vt 0.635294 0.977571
vt 0.602516 0.980145
vt 0.603757 0.972051
vt 0.658164 0.954957
vt 0.663734 0.960960
vt 0.576528 0.961524
vt 0.549430 0.944402
vt 0.556511 0.940285
vt 0.539466 0.913100
vt 0.547630 0.912455
vt 0.544096 0.880516
vt 0.551727 0.883488
vt 0.562472 0.853172
vt 0.568042 0.859176
vt 0.590910 0.836564
vt 0.593306 0.844394
vt 0.623684 0.833990
vt 0.622444 0.842084
vt 0.649672 0.852609
vt 0.676770 0.869727
vt 0.669689 0.873845
vt 0.686737 0.901027
vt 0.678572 0.901674
vt 0.682109 0.933613
vt 0.674478 0.930642
vt 0.637714 0.985204
vt 0.601382 0.988074
vt 0.542547 0.948499
vt 0.531491 0.913816
vt 0.536605 0.877689
vt 0.556966 0.847358
vt 0.588490 0.828931
vt 0.624818 0.826061
vt 0.658730 0.839176
vt 0.683652 0.865629
vt 0.694712 0.900310
vt 0.689601 0.936438
vt 0.669241 0.966773
vt 0.653820 0.883083
vt 0.571914 0.968291
vt 0.567467 0.974955
vt 0.654285 0.845841
vn -0.623490 -0.779772 0.056712
vn -0.623490 -0.779772 0.056712
vn -0.900969 -0.432740 0.031474
vn -0.900969 -0.432741 0.031474
vn -0.222522 -0.972360 0.070715
vn -0.222522 -0.972360 0.070715
vn 0.222522 -0.972360 0.070715
vn 0.222522 -0.972360 0.070715
vn 0.623490 -0.779772 0.056712
vn 0.623490 -0.779772 0.056712
vn 0.900969 -0.432741 0.031473
vn 0.900969 -0.432740 0.031473
vn 1.000000 -0.000000 0.000001
vn 1.000000 -0.000000 0.000001
vn 0.900968 0.432742 -0.031471
vn 0.900968 0.432742 -0.031471
vn 0.623490 0.779772 -0.056710
vn 0.623490 0.779772 -0.056710
vn 0.222523 0.972359 -0.070717
vn 0.222523 0.972359 -0.070717
vn -0.222523 0.972359 -0.070717
vn -0.222523 0.972359 -0.070717
vn -0.623490 0.779772 -0.056710
vn -0.623490 0.779772 -0.056710
vn -0.900968 0.432743 -0.031471
vn -0.900968 0.432742 -0.031471
vn -1.000000 0.000000 0.000001
vn -1.000000 0.000000 0.000001
vn 0.628944 0.354023 0.692169
vn 0.628944 0.354023 0.692169
vn 0.435245 0.596278 0.674548
vn 0.435244 0.596279 0.674548
vn 0.698075 0.051937 0.714139
vn 0.698075 0.051937 0.714139
vn 0.155338 0.730722 0.664768
vn 0.155338 0.730722 0.664768
vn -0.155338 0.730722 0.664767
vn -0.155338 0.730722 0.664767
vn -0.435245 0.596279 0.674547
vn -0.435245 0.596279 0.674547
vn -0.628944 0.354023 0.692168
vn -0.628944 0.354023 0.692168
vn -0.698075 0.051938 0.714139
vn -0.698075 0.051937 0.714139
vn -0.628943 -0.250148 0.736109
vn -0.628943 -0.250147 0.736109
vn -0.435241 -0.492400 0.753729
vn -0.435241 -0.492400 0.753729
vn -0.155335 -0.626840 0.763507
vn -0.155335 -0.626840 0.763507
vn 0.155335 -0.626840 0.763507
vn 0.155335 -0.626840 0.763507
vn 0.435241 -0.492402 0.753728
vn 0.435241 -0.492402 0.753728
vn 0.628944 -0.250148 0.736108
vn 0.628944 -0.250148 0.736108
vn 0.000000 0.072536 0.997366
vn 0.000000 0.072536 0.997366
vn 0.000000 0.072536 0.997366
vn 0.000000 0.072536 0.997366
vn 0.000000 0.072536 0.997366
vn 0.000000 0.072536 0.997366
vn 0.000000 0.072536 0.997366
vn 0.000000 0.072536 0.997366
vn 0.000000 0.072536 0.997366
vn 0.000000 0.072536 0.997366
vn 0.000000 0.072536 0.997366
vn 0.000000 0.072536 0.997366
vn -0.000000 0.072536 0.997366
vn -0.000000 0.072536 0.997366
vn 0.000000 0.072536 0.997366
vn 0.000000 0.072536 0.997366
vn 0.000000 0.072536 0.997366
vn 0.000000 0.072536 0.997366
vn 0.000000 0.072536 0.997366
vn 0.000000 0.072536 0.997366
vn 0.000000 0.072536 0.997366
vn 0.000000 0.072536 0.997366
vn 0.000000 0.072535 0.997366
vn 0.000000 0.072535 0.997366
vn 0.000001 0.072535 0.997366
vn 0.000001 0.072535 0.997366
vn 0.000000 0.072536 0.997366
vn 0.000000 0.072536 0.997366
vn 0.623489 0.779772 -0.056712
vn 0.900969 0.432741 -0.031475
vn 0.900969 0.432741 -0.031475
vn 0.623489 0.779772 -0.056712
vn 0.222522 0.972360 -0.070717
vn 0.222522 0.972360 -0.070717
vn -0.222521 0.972360 -0.070717
vn -0.222521 0.972360 -0.070717
vn -0.623489 0.779772 -0.056712
vn -0.623489 0.779772 -0.056712
vn -0.900969 0.432741 -0.031474
vn -0.900969 0.432741 -0.031474
vn -1.000000 0.000000 -0.000002
vn -1.000000 -0.000000 -0.000002
vn -0.900969 -0.432742 0.031469
vn -0.900969 -0.432741 0.031469
vn -0.623489 -0.779773 0.056707
vn -0.623489 -0.779773 0.056707
vn -0.222520 -0.972360 0.070712
vn -0.222520 -0.972360 0.070712
vn 0.222520 -0.972360 0.070713
vn 0.222520 -0.972360 0.070713
vn 0.623489 -0.779773 0.056708
vn 0.623489 -0.779773 0.056708
vn 0.900969 -0.432741 0.031471
vn 0.900969 -0.432741 0.031471
vn 1.000000 -0.000000 -0.000001
vn 1.000000 -0.000001 -0.000001
s 1
g pTorus2
usemtl lambert4SG
f 2/1/1 30/2/2 29/3/3 1/4/4
f 3/5/5 31/6/6 30/2/2 2/1/1
f 4/7/7 32/8/8 31/6/6 3/5/5
f 5/9/9 33/10/10 32/8/8 4/7/7
f 6/11/11 34/12/12 33/10/10 5/9/9
f 7/13/13 35/14/14 34/12/12 6/11/11
f 8/15/15 36/16/16 35/14/14 7/13/13
f 9/17/17 37/18/18 36/16/16 8/15/15
f 10/19/19 38/20/20 37/18/18 9/17/17
f 11/21/21 39/67/22 38/20/20 10/19/19
f 12/22/23 40/23/24 39/67/22 11/21/21
f 13/24/25 41/25/26 40/23/24 12/22/23
f 14/26/27 42/27/28 41/25/26 13/24/25
f 1/4/4 29/3/3 42/27/28 14/26/27
s 2
f 43/28/29 44/29/30 46/30/31 45/31/32
f 44/29/30 43/28/29 69/32/33 70/33/34
f 45/31/32 46/30/31 48/68/35 47/34/36
f 47/34/36 48/68/35 50/35/37 49/36/38
f 49/36/38 50/35/37 52/37/39 51/38/40
f 51/38/40 52/37/39 54/39/41 53/40/42
f 53/40/42 54/39/41 56/41/43 55/42/44
f 55/42/44 56/41/43 58/43/45 57/44/46
f 57/44/46 58/43/45 60/45/47 59/46/48
f 59/46/48 60/45/47 62/70/49 61/47/50
f 61/47/50 62/70/49 64/48/51 63/49/52
f 63/49/52 64/48/51 66/50/53 65/51/54
f 65/51/54 66/50/53 68/52/55 67/53/56
f 67/53/56 68/52/55 70/33/34 69/32/33
s 3
f 2/1/57 1/4/58 43/28/59 45/31/60
f 3/5/61 2/1/57 45/31/60 47/34/62
f 4/7/63 3/5/61 47/34/62 49/36/64
f 5/9/65 4/7/63 49/36/64 51/38/66
f 6/11/67 5/9/65 51/38/66 53/40/68
f 7/13/69 6/11/67 53/40/68 55/42/70
f 8/15/71 7/13/69 55/42/70 57/44/72
f 9/17/73 8/15/71 57/44/72 59/46/74
f 10/19/75 9/17/73 59/46/74 61/47/76
f 11/21/77 10/19/75 61/47/76 63/49/78
f 12/22/79 11/21/77 63/49/78 65/51/80
f 13/24/81 12/22/79 65/51/80 67/53/82
f 14/26/83 13/24/81 67/53/82 69/32/84
f 1/4/58 14/26/83 69/32/84 43/28/59
s 4
f 46/30/85 44/29/86 15/54/87 16/55/88
f 48/68/89 46/30/85 16/55/88 17/69/90
f 50/35/91 48/68/89 17/69/90 18/56/92
f 52/37/93 50/35/91 18/56/92 19/57/94
f 54/39/95 52/37/93 19/57/94 20/58/96
f 56/41/97 54/39/95 20/58/96 21/59/98
f 58/43/99 56/41/97 21/59/98 22/60/100
f 60/45/101 58/43/99 22/60/100 23/61/102
f 62/70/103 60/45/101 23/61/102 24/62/104
f 64/48/105 62/70/103 24/62/104 25/63/106
f 66/50/107 64/48/105 25/63/106 26/64/108
f 68/52/109 66/50/107 26/64/108 27/65/110
f 70/33/111 68/52/109 27/65/110 28/66/112
f 44/29/86 70/33/111 28/66/112 15/54/87
