# This file uses centimeters as units for non-parametric coordinates.

mtllib door_frame_begin 3.mtl
g default
v 0.016074 0.220501 0.052828
v 0.025977 0.214086 0.052828
v 0.025977 0.220501 0.070593
v 0.025977 0.235988 0.077952
v 0.017691 0.235988 0.070593
v 0.013497 0.235988 0.052828
v 0.088414 0.220501 0.052828
v 0.090991 0.235988 0.052828
v 0.086797 0.235988 0.070593
v 0.078511 0.235988 0.077952
v 0.078511 0.220501 0.070593
v 0.078511 0.214086 0.052828
v 0.016074 0.317193 0.052828
v 0.013497 0.301706 0.052828
v 0.017691 0.301706 0.070593
v 0.025977 0.301706 0.077952
v 0.025977 0.317193 0.070593
v 0.025977 0.323608 0.052828
v 0.088414 0.317193 0.052828
v 0.078511 0.323608 0.052828
v 0.078511 0.317193 0.070593
v 0.078511 0.301706 0.077952
v 0.086797 0.301706 0.070593
v 0.090991 0.301706 0.052828
v 0.017668 0.301706 -0.070601
v 0.013497 0.301706 -0.052835
v 0.016074 0.317193 -0.052835
v 0.025977 0.323608 -0.052835
v 0.025977 0.317193 -0.070601
v 0.025977 0.301706 -0.077960
v 0.086820 0.301706 -0.070601
v 0.078511 0.301706 -0.077960
v 0.078511 0.317193 -0.070601
v 0.078511 0.323608 -0.052835
v 0.088414 0.317193 -0.052835
v 0.090991 0.301706 -0.052835
v 0.016074 0.220501 -0.052835
v 0.013497 0.235988 -0.052835
v 0.017668 0.235988 -0.070601
v 0.025977 0.235988 -0.077960
v 0.025977 0.220501 -0.070601
v 0.025977 0.214086 -0.052835
v 0.088414 0.220501 -0.052835
v 0.078511 0.214086 -0.052835
v 0.078511 0.220501 -0.070601
v 0.078511 0.235988 -0.077960
v 0.086820 0.235988 -0.070601
v 0.090991 0.235988 -0.052835
v 0.018783 0.223347 0.067328
v 0.085705 0.223347 0.067328
v 0.018783 0.314347 0.067328
v 0.085705 0.314347 0.067328
v 0.018761 0.314347 -0.067336
v 0.085727 0.314347 -0.067336
v 0.018761 0.223347 -0.067336
v 0.085727 0.223347 -0.067336
v -0.113112 -0.023213 0.070023
v -0.094382 -0.030972 0.070023
v -0.094382 -0.023213 0.084993
v -0.094382 -0.004483 0.091194
v -0.113112 -0.004483 0.084993
v -0.120871 -0.004483 0.070023
v 0.104686 -0.023213 0.070023
v 0.112444 -0.004483 0.070023
v 0.104686 -0.004483 0.084993
v 0.085955 -0.004483 0.091194
v 0.085955 -0.023213 0.084993
v 0.085955 -0.030972 0.070023
v -0.113112 0.093727 0.070023
v -0.120871 0.074996 0.070023
v -0.113112 0.074996 0.084993
v -0.094382 0.074996 0.091194
v -0.094382 0.093727 0.084993
v -0.094382 0.101485 0.070023
v 0.104686 0.093727 0.070023
v 0.085955 0.101485 0.070023
v 0.085955 0.093727 0.084993
v 0.085955 0.074996 0.091194
v 0.104686 0.074996 0.084993
v 0.112444 0.074996 0.070023
v -0.113112 0.074996 -0.084993
v -0.120871 0.074996 -0.070023
v -0.113112 0.093727 -0.070023
v -0.094382 0.101485 -0.070023
v -0.094382 0.093727 -0.084993
v -0.094382 0.074996 -0.091194
v 0.104686 0.074996 -0.084993
v 0.085955 0.074996 -0.091194
v 0.085955 0.093727 -0.084993
v 0.085955 0.101485 -0.070023
v 0.104686 0.093727 -0.070023
v 0.112444 0.074996 -0.070023
v -0.113112 -0.023213 -0.070023
v -0.120871 -0.004483 -0.070023
v -0.113112 -0.004483 -0.084993
v -0.094382 -0.004483 -0.091194
v -0.094382 -0.023213 -0.084993
v -0.094382 -0.030972 -0.070023
v 0.104686 -0.023213 -0.070023
v 0.085955 -0.030972 -0.070023
v 0.085955 -0.023213 -0.084993
v 0.085955 -0.004483 -0.091194
v 0.104686 -0.004483 -0.084993
v 0.112444 -0.004483 -0.070023
v -0.109670 -0.019771 0.082242
v 0.101243 -0.019771 0.082242
v -0.109670 0.090284 0.082242
v 0.101243 0.090284 0.082242
v -0.109670 0.090284 -0.082242
v 0.101243 0.090284 -0.082242
v -0.109670 -0.019771 -0.082242
v 0.101243 -0.019771 -0.082242
v -0.022094 -0.025760 0.079389
v -0.022094 -0.007029 0.085181
v -0.022094 0.081122 0.091194
v -0.022094 0.099852 0.084993
v -0.022094 0.107610 0.070023
v -0.022094 0.107610 -0.070023
v -0.022094 0.099852 -0.084993
v -0.022094 0.081122 -0.091194
v -0.022094 -0.007029 -0.085181
v -0.022094 -0.025760 -0.079389
v -0.022094 -0.033518 -0.065406
v -0.022094 -0.033518 0.065406
v -0.000618 0.334917 0.047125
v 0.011272 0.329207 0.047125
v 0.011662 0.333895 0.062693
v 0.012605 0.345213 0.069142
v 0.002329 0.346069 0.062693
v -0.002872 0.346502 0.047125
v 0.089094 0.327448 0.047125
v 0.093232 0.338500 0.047125
v 0.088031 0.338933 0.062693
v 0.077756 0.339788 0.069142
v 0.076813 0.328470 0.062693
v 0.076423 0.323782 0.047125
v 0.005265 0.405581 0.047125
v 0.001127 0.394528 0.047125
v 0.006328 0.394095 0.062693
v 0.016604 0.393240 0.069142
v 0.017546 0.404558 0.062693
v 0.017936 0.409246 0.047125
v 0.094978 0.398111 0.047125
v 0.083087 0.403821 0.047125
v 0.082697 0.399133 0.062693
v 0.081755 0.387815 0.069142
v 0.092030 0.386960 0.062693
v 0.097231 0.386526 0.047125
v 0.006300 0.394098 -0.061035
v 0.001127 0.394528 -0.045467
v 0.005265 0.405581 -0.045467
v 0.017936 0.409246 -0.045467
v 0.017546 0.404558 -0.061035
v 0.016604 0.393240 -0.067483
v 0.092059 0.386957 -0.061035
v 0.081755 0.387815 -0.067483
v 0.082697 0.399133 -0.061035
v 0.083087 0.403821 -0.045467
v 0.094978 0.398111 -0.045467
v 0.097231 0.386526 -0.045467
v -0.000618 0.334917 -0.045467
v -0.002872 0.346502 -0.045467
v 0.002301 0.346071 -0.061035
v 0.012605 0.345213 -0.067483
v 0.011662 0.333895 -0.061035
v 0.011272 0.329207 -0.045467
v 0.089094 0.327448 -0.045467
v 0.076423 0.323782 -0.045467
v 0.076813 0.328470 -0.061035
v 0.077756 0.339788 -0.067483
v 0.088060 0.338930 -0.061035
v 0.093232 0.338500 -0.045467
v 0.002915 0.336718 0.059832
v 0.085908 0.329807 0.059832
v 0.008452 0.403221 0.059832
v 0.091445 0.396310 0.059832
v 0.008425 0.403223 -0.058174
v 0.091472 0.396308 -0.058174
v 0.002887 0.336720 -0.058174
v 0.085935 0.329805 -0.058174
v -0.061543 0.409991 0.046139
v -0.039502 0.402952 0.046139
v -0.039502 0.409991 0.061326
v -0.039502 0.426986 0.067617
v -0.057944 0.426986 0.061326
v -0.067279 0.426986 0.046139
v 0.099473 0.409991 0.046139
v 0.105209 0.426986 0.046139
v 0.095874 0.426986 0.061326
v 0.077431 0.426986 0.067617
v 0.077431 0.409991 0.061326
v 0.077431 0.402952 0.046139
v -0.061543 0.516094 0.046139
v -0.067279 0.499100 0.046139
v -0.057944 0.499100 0.061326
v -0.039502 0.499100 0.067617
v -0.039502 0.516094 0.061326
v -0.039502 0.523134 0.046139
v 0.099473 0.516094 0.046139
v 0.077431 0.523134 0.046139
v 0.077431 0.516094 0.061326
v 0.077431 0.499100 0.067617
v 0.095874 0.499100 0.061326
v 0.105209 0.499100 0.046139
v -0.057995 0.499100 -0.059380
v -0.067279 0.499100 -0.044192
v -0.061543 0.516094 -0.044192
v -0.039502 0.523134 -0.044192
v -0.039502 0.516094 -0.059380
v -0.039502 0.499100 -0.065671
v 0.095925 0.499100 -0.059380
v 0.077431 0.499100 -0.065671
v 0.077431 0.516094 -0.059380
v 0.077431 0.523134 -0.044192
v 0.099473 0.516094 -0.044192
v 0.105209 0.499100 -0.044192
v -0.061543 0.409991 -0.044192
v -0.067279 0.426986 -0.044192
v -0.057995 0.426986 -0.059380
v -0.039502 0.426986 -0.065671
v -0.039502 0.409991 -0.059380
v -0.039502 0.402952 -0.044192
v 0.099473 0.409991 -0.044192
v 0.077431 0.402952 -0.044192
v 0.077431 0.409991 -0.059380
v 0.077431 0.426986 -0.065671
v 0.095925 0.426986 -0.059380
v 0.105209 0.426986 -0.044192
v -0.055513 0.413114 0.058535
v 0.093443 0.413114 0.058535
v -0.055513 0.512971 0.058535
v 0.093443 0.512971 0.058535
v -0.055562 0.512971 -0.056588
v 0.093492 0.512971 -0.056588
v -0.055562 0.413114 -0.056588
v 0.093492 0.413114 -0.056588
v 0.028999 0.522060 0.043238
v 0.039070 0.516044 0.043238
v 0.038248 0.523133 0.057307
v 0.036263 0.540248 0.063135
v 0.028524 0.539350 0.057307
v 0.024607 0.538896 0.043238
v 0.096563 0.529896 0.043238
v 0.096985 0.547290 0.043238
v 0.093068 0.546836 0.057307
v 0.085329 0.545938 0.063135
v 0.087314 0.528824 0.057307
v 0.088137 0.521734 0.043238
v 0.016606 0.628914 0.043238
v 0.016184 0.611520 0.043238
v 0.020101 0.611974 0.057307
v 0.027840 0.612872 0.063135
v 0.025855 0.629986 0.057307
v 0.025033 0.637075 0.043238
v 0.084171 0.636750 0.043238
v 0.074099 0.642766 0.043238
v 0.074922 0.635677 0.057307
v 0.076907 0.618562 0.063135
v 0.084645 0.619460 0.057307
v 0.088562 0.619914 0.043238
v 0.020080 0.611972 -0.054513
v 0.016184 0.611520 -0.040443
v 0.016606 0.628914 -0.040443
v 0.025033 0.637075 -0.040443
v 0.025855 0.629986 -0.054513
v 0.027840 0.612872 -0.060341
v 0.084667 0.619462 -0.054513
v 0.076907 0.618562 -0.060341
v 0.074922 0.635677 -0.054513
v 0.074099 0.642766 -0.040443
v 0.084171 0.636750 -0.040443
v 0.088562 0.619914 -0.040443
v 0.028999 0.522060 -0.040443
v 0.024607 0.538896 -0.040443
v 0.028503 0.539348 -0.054513
v 0.036263 0.540248 -0.060341
v 0.038248 0.523133 -0.054513
v 0.039070 0.516044 -0.040443
v 0.096563 0.529896 -0.040443
v 0.088137 0.521734 -0.040443
v 0.087314 0.528824 -0.054513
v 0.085329 0.545938 -0.060341
v 0.093089 0.546838 -0.054513
v 0.096985 0.547290 -0.040443
v 0.031164 0.525499 0.054721
v 0.093668 0.532748 0.054721
v 0.019501 0.626062 0.054721
v 0.082005 0.633311 0.054721
v 0.019481 0.626059 -0.051927
v 0.082026 0.633313 -0.051927
v 0.031144 0.525497 -0.051927
v 0.093689 0.532751 -0.051927
v -0.005822 0.107451 0.052630
v 0.007787 0.100790 0.052630
v 0.007888 0.107238 0.070320
v 0.008130 0.122804 0.077647
v -0.003341 0.122982 0.070320
v -0.009147 0.123073 0.052630
v 0.094329 0.105893 0.052630
v 0.098138 0.121403 0.052630
v 0.092332 0.121494 0.070320
v 0.080861 0.121672 0.077647
v 0.080619 0.106106 0.070320
v 0.080519 0.099659 0.052630
v -0.004310 0.204636 0.052630
v -0.008120 0.189125 0.052630
v -0.002314 0.189035 0.070320
v 0.009157 0.188856 0.077647
v 0.009400 0.204422 0.070320
v 0.009500 0.210870 0.052630
v 0.095841 0.203077 0.052630
v 0.082231 0.209738 0.052630
v 0.082131 0.203291 0.070320
v 0.081889 0.187725 0.077647
v 0.093360 0.187546 0.070320
v 0.099166 0.187456 0.052630
v -0.002345 0.189035 -0.070270
v -0.008120 0.189125 -0.052581
v -0.004310 0.204636 -0.052581
v 0.009500 0.210870 -0.052581
v 0.009400 0.204422 -0.070270
v 0.009157 0.188856 -0.077597
v 0.093392 0.187546 -0.070270
v 0.081889 0.187725 -0.077597
v 0.082131 0.203291 -0.070270
v 0.082231 0.209738 -0.052581
v 0.095841 0.203077 -0.052581
v 0.099166 0.187456 -0.052581
v -0.005822 0.107451 -0.052581
v -0.009147 0.123073 -0.052581
v -0.003373 0.122983 -0.070270
v 0.008130 0.122804 -0.077597
v 0.007888 0.107238 -0.070270
v 0.007787 0.100790 -0.052581
v 0.094329 0.105893 -0.052581
v 0.080519 0.099659 -0.052581
v 0.080619 0.106106 -0.070270
v 0.080861 0.121672 -0.077597
v 0.092364 0.121493 -0.070270
v 0.098138 0.121403 -0.052581
v -0.002027 0.110254 0.067069
v 0.090623 0.108812 0.067069
v -0.000604 0.201716 0.067069
v 0.092046 0.200275 0.067069
v -0.000634 0.201717 -0.067019
v 0.092076 0.200274 -0.067019
v -0.002057 0.110254 -0.067019
v 0.090653 0.108812 -0.067019
vt 0.076263 0.065978
vt 0.076263 0.083726
vt 0.214701 0.065978
vt 0.214245 0.083726
vt 0.076263 0.187752
vt 0.214701 0.187752
vt 0.214245 0.187752
vt 0.214245 0.083726
vt 0.076388 0.199263
vt 0.214827 0.199263
vt 0.076718 0.187752
vt 0.076718 0.083726
vt 0.214701 0.204178
vt 0.214575 0.084971
vt 0.076137 0.084971
vt 0.214701 0.083726
vt 0.076388 0.066144
vt 0.214827 0.066144
vt 0.214575 0.192968
vt 0.076137 0.192968
vt 0.076263 0.204178
vt 0.076718 0.083726
vt 0.076718 0.187752
vt 0.214245 0.187752
vt 0.055928 0.059523
vt 0.070294 0.047945
vt 0.070006 0.047945
vt 0.070006 0.046854
vt 0.055982 0.082800
vt 0.220669 0.047945
vt 0.235035 0.059523
vt 0.235089 0.082800
vt 0.220957 0.046854
vt 0.220957 0.047945
vt 0.070294 0.223667
vt 0.056054 0.059927
vt 0.055875 0.188678
vt 0.075168 0.046761
vt 0.235161 0.059927
vt 0.220669 0.223667
vt 0.216048 0.046761
vt 0.234982 0.188678
vt 0.235035 0.198052
vt 0.234910 0.203662
vt 0.056054 0.205481
vt 0.220669 0.223667
vt 0.215704 0.223487
vt 0.055803 0.203662
vt 0.055928 0.198052
vt 0.075887 0.223473
vt 0.070294 0.223667
vt 0.235161 0.205481
vt 0.220669 0.047945
vt 0.055928 0.210633
vt 0.234910 0.074278
vt 0.235035 0.073426
vt 0.075042 0.224379
vt 0.235035 0.210633
vt 0.070294 0.047945
vt 0.215922 0.224379
vt 0.055928 0.073426
vt 0.055803 0.074278
vt 0.055928 0.046854
vt 0.055928 0.047945
vt 0.235035 0.047945
vt 0.235035 0.046854
vt 0.055928 0.223667
vt 0.235161 0.047111
vt 0.235035 0.223667
vt 0.235161 0.223681
vt 0.056054 0.223677
vt 0.055928 0.223667
vt 0.235035 0.047945
vt 0.055928 0.224142
vt 0.235035 0.224142
vt 0.055928 0.047945
vt 0.215076 0.224440
vt 0.234910 0.224243
vt 0.055803 0.224239
vt 0.075259 0.224426
vt 0.235035 0.223667
vt 0.235089 0.188678
vt 0.055982 0.188678
vt 0.056054 0.047111
vt 0.234982 0.082800
vt 0.235035 0.047945
vt 0.055928 0.047945
vt 0.055875 0.082800
vt 0.074916 0.048287
vt 0.215922 0.223439
vt 0.055803 0.047923
vt 0.234910 0.047923
vt 0.215796 0.048287
vt 0.235035 0.223667
vt 0.055928 0.223667
vt 0.075042 0.223439
vt 0.076263 0.065978
vt 0.055928 0.059523
vt 0.055928 0.210633
vt 0.076263 0.204178
vt 0.070294 0.047945
vt 0.076718 0.083726
vt 0.214245 0.083726
vt 0.220669 0.047945
vt 0.076263 0.083726
vt 0.070006 0.047945
vt 0.130515 0.047945
vt 0.131756 0.083726
vt 0.070006 0.046854
vt 0.131756 0.065978
vt 0.130515 0.046854
vt 0.055982 0.082800
vt 0.055982 0.188678
vt 0.076718 0.187752
vt 0.055875 0.082800
vt 0.076263 0.187752
vt 0.055875 0.188678
vt 0.214245 0.083726
vt 0.220669 0.047945
vt 0.070294 0.047945
vt 0.076718 0.083726
vt 0.235035 0.059523
vt 0.214701 0.065978
vt 0.214701 0.204178
vt 0.235035 0.210633
vt 0.214701 0.083726
vt 0.235089 0.082800
vt 0.235089 0.188678
vt 0.214701 0.187752
vt 0.234982 0.082800
vt 0.214245 0.187752
vt 0.234982 0.188678
vt 0.070294 0.223667
vt 0.220669 0.223667
vt 0.214245 0.187752
vt 0.069338 0.224785
vt 0.075666 0.204485
vt 0.208782 0.205206
vt 0.214890 0.225574
vt 0.056277 0.205600
vt 0.056583 0.149129
vt 0.075967 0.148992
vt 0.075042 0.223439
vt 0.131756 0.187752
vt 0.131514 0.223439
vt 0.076416 0.066048
vt 0.070309 0.045681
vt 0.215860 0.046469
vt 0.209532 0.066770
vt 0.220669 0.223667
vt 0.076718 0.187752
vt 0.070294 0.223667
vt 0.235035 0.198052
vt 0.235035 0.073426
vt 0.234910 0.203662
vt 0.214575 0.192968
vt 0.214575 0.084971
vt 0.234910 0.074278
vt 0.215704 0.223487
vt 0.158635 0.223511
vt 0.159082 0.192968
vt 0.233939 0.206471
vt 0.209083 0.149714
vt 0.234226 0.149402
vt 0.076137 0.192968
vt 0.055803 0.203662
vt 0.055803 0.074278
vt 0.076137 0.084971
vt 0.055928 0.198052
vt 0.055928 0.073426
vt 0.075042 0.224379
vt 0.131514 0.224379
vt 0.131756 0.204178
vt 0.215796 0.048287
vt 0.159082 0.084971
vt 0.159324 0.048287
vt 0.055928 0.047945
vt 0.055928 0.046854
vt 0.055928 0.047945
vt 0.220957 0.046854
vt 0.235035 0.046854
vt 0.235035 0.047945
vt 0.220957 0.047945
vt 0.235035 0.047945
vt 0.056523 0.224716
vt 0.055928 0.223667
vt 0.055928 0.223667
vt 0.235035 0.223667
vt 0.057040 0.064723
vt 0.057493 0.045611
vt 0.215922 0.223439
vt 0.235035 0.223667
vt 0.235161 0.223681
vt 0.235035 0.223667
vt 0.233647 0.225927
vt 0.055928 0.223667
vt 0.075887 0.223473
vt 0.056054 0.223677
vt 0.234710 0.066656
vt 0.234621 0.046822
vt 0.055928 0.224142
vt 0.235035 0.047945
vt 0.234910 0.047923
vt 0.055928 0.047945
vt 0.215922 0.224379
vt 0.235035 0.224142
vt 0.074916 0.048287
vt 0.055803 0.047923
vt 0.076263 0.065978
vt 0.055928 0.059523
vt 0.055928 0.210633
vt 0.076263 0.204178
vt 0.070294 0.047945
vt 0.076718 0.083726
vt 0.214245 0.083726
vt 0.220669 0.047945
vt 0.076263 0.083726
vt 0.070006 0.047945
vt 0.220957 0.047945
vt 0.214701 0.083726
vt 0.220957 0.046854
vt 0.070006 0.046854
vt 0.214701 0.065978
vt 0.055982 0.082800
vt 0.055982 0.188678
vt 0.076718 0.187752
vt 0.055875 0.082800
vt 0.076263 0.187752
vt 0.055875 0.188678
vt 0.214245 0.083726
vt 0.220669 0.047945
vt 0.070294 0.047945
vt 0.076718 0.083726
vt 0.235035 0.059523
vt 0.214701 0.204178
vt 0.235035 0.210633
vt 0.235089 0.082800
vt 0.235089 0.188678
vt 0.214701 0.187752
vt 0.234982 0.082800
vt 0.214245 0.187752
vt 0.234982 0.188678
vt 0.070294 0.223667
vt 0.220669 0.223667
vt 0.214245 0.187752
vt 0.056054 0.059927
vt 0.076388 0.066144
vt 0.076388 0.199263
vt 0.056054 0.205481
vt 0.075168 0.046761
vt 0.216048 0.046761
vt 0.214827 0.066144
vt 0.075042 0.223439
vt 0.215922 0.223439
vt 0.235161 0.059927
vt 0.235161 0.205481
vt 0.214827 0.199263
vt 0.220669 0.223667
vt 0.076718 0.187752
vt 0.070294 0.223667
vt 0.235035 0.198052
vt 0.235035 0.073426
vt 0.234910 0.203662
vt 0.214575 0.192968
vt 0.214575 0.084971
vt 0.234910 0.074278
vt 0.215704 0.223487
vt 0.075887 0.223473
vt 0.076137 0.192968
vt 0.075259 0.224426
vt 0.215076 0.224440
vt 0.055803 0.203662
vt 0.055803 0.074278
vt 0.076137 0.084971
vt 0.055928 0.198052
vt 0.055928 0.073426
vt 0.075042 0.224379
vt 0.215922 0.224379
vt 0.215796 0.048287
vt 0.074916 0.048287
vt 0.055928 0.047945
vt 0.055928 0.046854
vt 0.055928 0.047945
vt 0.235035 0.046854
vt 0.235035 0.047945
vt 0.235035 0.047945
vt 0.056054 0.047111
vt 0.055928 0.223667
vt 0.055928 0.223667
vt 0.235035 0.223667
vt 0.235161 0.047111
vt 0.235035 0.223667
vt 0.235161 0.223681
vt 0.235035 0.223667
vt 0.055803 0.224239
vt 0.055928 0.223667
vt 0.056054 0.223677
vt 0.234910 0.224243
vt 0.055928 0.224142
vt 0.235035 0.047945
vt 0.234910 0.047923
vt 0.055928 0.047945
vt 0.235035 0.224142
vt 0.055803 0.047923
vt 0.076263 0.065978
vt 0.055928 0.059523
vt 0.055928 0.210633
vt 0.076263 0.204178
vt 0.070294 0.047945
vt 0.076718 0.083726
vt 0.214245 0.083726
vt 0.220669 0.047945
vt 0.076263 0.083726
vt 0.070006 0.047945
vt 0.220957 0.047945
vt 0.214701 0.083726
vt 0.220957 0.046854
vt 0.070006 0.046854
vt 0.214701 0.065978
vt 0.055982 0.082800
vt 0.055982 0.188678
vt 0.076718 0.187752
vt 0.055875 0.082800
vt 0.076263 0.187752
vt 0.055875 0.188678
vt 0.214245 0.083726
vt 0.220669 0.047945
vt 0.070294 0.047945
vt 0.076718 0.083726
vt 0.235035 0.059523
vt 0.214701 0.204178
vt 0.235035 0.210633
vt 0.235089 0.082800
vt 0.235089 0.188678
vt 0.214701 0.187752
vt 0.234982 0.082800
vt 0.214245 0.187752
vt 0.234982 0.188678
vt 0.070294 0.223667
vt 0.220669 0.223667
vt 0.214245 0.187752
vt 0.068733 0.224108
vt 0.075196 0.203850
vt 0.208305 0.205458
vt 0.214277 0.225866
vt 0.055800 0.204837
vt 0.057501 0.063967
vt 0.076868 0.065422
vt 0.075042 0.223439
vt 0.215922 0.223439
vt 0.070896 0.045014
vt 0.216440 0.046772
vt 0.209977 0.067029
vt 0.220669 0.223667
vt 0.076718 0.187752
vt 0.070294 0.223667
vt 0.235035 0.198052
vt 0.235035 0.073426
vt 0.234910 0.203662
vt 0.214575 0.192968
vt 0.214575 0.084971
vt 0.234910 0.074278
vt 0.215704 0.223487
vt 0.075887 0.223473
vt 0.076137 0.192968
vt 0.233453 0.206891
vt 0.235155 0.067084
vt 0.055803 0.203662
vt 0.055803 0.074278
vt 0.076137 0.084971
vt 0.055928 0.198052
vt 0.055928 0.073426
vt 0.075042 0.224379
vt 0.215922 0.224379
vt 0.215796 0.048287
vt 0.074916 0.048287
vt 0.055928 0.047945
vt 0.055928 0.046854
vt 0.055928 0.047945
vt 0.235035 0.046854
vt 0.235035 0.047945
vt 0.235035 0.047945
vt 0.055919 0.223953
vt 0.055928 0.223667
vt 0.055928 0.223667
vt 0.235035 0.223667
vt 0.058082 0.044859
vt 0.235035 0.223667
vt 0.235161 0.223681
vt 0.235035 0.223667
vt 0.233031 0.226344
vt 0.055928 0.223667
vt 0.056054 0.223677
vt 0.235198 0.047250
vt 0.055928 0.224142
vt 0.235035 0.047945
vt 0.234910 0.047923
vt 0.055928 0.047945
vt 0.235035 0.224142
vt 0.055803 0.047923
vt 0.076263 0.065978
vt 0.055928 0.059523
vt 0.055928 0.210633
vt 0.076263 0.204178
vt 0.070294 0.047945
vt 0.076718 0.083726
vt 0.214245 0.083726
vt 0.220669 0.047945
vt 0.076263 0.083726
vt 0.070006 0.047945
vt 0.220957 0.047945
vt 0.214701 0.083726
vt 0.220957 0.046854
vt 0.070006 0.046854
vt 0.214701 0.065978
vt 0.055982 0.082800
vt 0.055982 0.188678
vt 0.076718 0.187752
vt 0.055875 0.082800
vt 0.076263 0.187752
vt 0.055875 0.188678
vt 0.214245 0.083726
vt 0.220669 0.047945
vt 0.070294 0.047945
vt 0.076718 0.083726
vt 0.235035 0.059523
vt 0.214701 0.204178
vt 0.235035 0.210633
vt 0.235089 0.082800
vt 0.235089 0.188678
vt 0.214701 0.187752
vt 0.234982 0.082800
vt 0.214245 0.187752
vt 0.234982 0.188678
vt 0.070294 0.223667
vt 0.220669 0.223667
vt 0.214245 0.187752
vt 0.068733 0.224108
vt 0.075196 0.203850
vt 0.208305 0.205458
vt 0.214277 0.225866
vt 0.055800 0.204837
vt 0.057501 0.063967
vt 0.076868 0.065422
vt 0.075042 0.223439
vt 0.215922 0.223439
vt 0.070896 0.045014
vt 0.216440 0.046772
vt 0.209977 0.067029
vt 0.220669 0.223667
vt 0.076718 0.187752
vt 0.070294 0.223667
vt 0.235035 0.198052
vt 0.235035 0.073426
vt 0.234910 0.203662
vt 0.214575 0.192968
vt 0.214575 0.084971
vt 0.234910 0.074278
vt 0.215704 0.223487
vt 0.075887 0.223473
vt 0.076137 0.192968
vt 0.233453 0.206891
vt 0.235155 0.067084
vt 0.055803 0.203662
vt 0.055803 0.074278
vt 0.076137 0.084971
vt 0.055928 0.198052
vt 0.055928 0.073426
vt 0.075042 0.224379
vt 0.215922 0.224379
vt 0.215796 0.048287
vt 0.074916 0.048287
vt 0.055928 0.047945
vt 0.055928 0.046854
vt 0.055928 0.047945
vt 0.235035 0.046854
vt 0.235035 0.047945
vt 0.235035 0.047945
vt 0.055919 0.223953
vt 0.055928 0.223667
vt 0.055928 0.223667
vt 0.235035 0.223667
vt 0.058082 0.044859
vt 0.235035 0.223667
vt 0.235161 0.223681
vt 0.235035 0.223667
vt 0.233031 0.226344
vt 0.055928 0.223667
vt 0.056054 0.223677
vt 0.235198 0.047250
vt 0.055928 0.224142
vt 0.235035 0.047945
vt 0.234910 0.047923
vt 0.055928 0.047945
vt 0.235035 0.224142
vt 0.055803 0.047923
vt 0.076263 0.065978
vt 0.055928 0.059523
vt 0.055928 0.210633
vt 0.076263 0.204178
vt 0.070294 0.047945
vt 0.076718 0.083726
vt 0.214245 0.083726
vt 0.220669 0.047945
vt 0.076263 0.083726
vt 0.070006 0.047945
vt 0.220957 0.047945
vt 0.214701 0.083726
vt 0.220957 0.046854
vt 0.070006 0.046854
vt 0.214701 0.065978
vt 0.055982 0.082800
vt 0.055982 0.188678
vt 0.076718 0.187752
vt 0.055875 0.082800
vt 0.076263 0.187752
vt 0.055875 0.188678
vt 0.214245 0.083726
vt 0.220669 0.047945
vt 0.070294 0.047945
vt 0.076718 0.083726
vt 0.235035 0.059523
vt 0.214701 0.204178
vt 0.235035 0.210633
vt 0.235089 0.082800
vt 0.235089 0.188678
vt 0.214701 0.187752
vt 0.234982 0.082800
vt 0.214245 0.187752
vt 0.234982 0.188678
vt 0.070294 0.223667
vt 0.220669 0.223667
vt 0.214245 0.187752
vt 0.068733 0.224108
vt 0.075197 0.203850
vt 0.208305 0.205458
vt 0.214277 0.225866
vt 0.055800 0.204837
vt 0.057501 0.063967
vt 0.076868 0.065422
vt 0.075042 0.223439
vt 0.215922 0.223439
vt 0.070896 0.045014
vt 0.216440 0.046772
vt 0.209977 0.067029
vt 0.220669 0.223667
vt 0.076718 0.187752
vt 0.070294 0.223667
vt 0.235035 0.198052
vt 0.235035 0.073426
vt 0.234910 0.203662
vt 0.214575 0.192968
vt 0.214575 0.084971
vt 0.234910 0.074278
vt 0.215704 0.223487
vt 0.075887 0.223473
vt 0.076137 0.192968
vt 0.233453 0.206891
vt 0.235155 0.067084
vt 0.055803 0.203662
vt 0.055803 0.074278
vt 0.076137 0.084971
vt 0.055928 0.198052
vt 0.055928 0.073426
vt 0.075042 0.224379
vt 0.215922 0.224379
vt 0.215796 0.048287
vt 0.074916 0.048287
vt 0.055928 0.047945
vt 0.055928 0.046854
vt 0.055928 0.047945
vt 0.235035 0.046854
vt 0.235035 0.047945
vt 0.235035 0.047945
vt 0.055919 0.223953
vt 0.055928 0.223667
vt 0.055928 0.223667
vt 0.235035 0.223667
vt 0.058082 0.044859
vt 0.235035 0.223667
vt 0.235161 0.223681
vt 0.235035 0.223667
vt 0.233031 0.226344
vt 0.055928 0.223667
vt 0.056054 0.223677
vt 0.235198 0.047250
vt 0.055928 0.224142
vt 0.235035 0.047945
vt 0.234910 0.047923
vt 0.055928 0.047945
vt 0.235035 0.224142
vt 0.055803 0.047923
vn -0.097499 -0.994027 0.049043
vn -0.540675 -0.840634 0.031720
vn -0.540611 -0.840674 -0.031739
vn -0.097497 -0.994027 -0.049042
vn -0.986304 -0.163080 0.024683
vn -0.998995 -0.030737 0.032627
vn -0.999001 -0.030735 -0.032447
vn -0.986310 -0.163067 -0.024527
vn -0.111311 -0.085394 0.990110
vn -0.074226 -0.422575 0.903283
vn 0.074226 -0.422576 0.903283
vn 0.111311 -0.085394 0.990110
vn 0.061910 -0.939508 0.336885
vn -0.061910 -0.939508 0.336885
vn 0.097499 -0.994027 0.049043
vn -0.973279 -0.021599 0.228609
vn -0.973279 0.021599 0.228609
vn -0.998995 0.030737 0.032627
vn -0.653684 -0.053675 0.754862
vn -0.111311 0.085394 0.990110
vn -0.653684 0.053675 0.754862
vn 0.998995 -0.030737 0.032627
vn 0.986304 -0.163078 0.024683
vn 0.986310 -0.163065 -0.024527
vn 0.999001 -0.030735 -0.032447
vn 0.540673 -0.840634 0.031720
vn 0.097496 -0.994027 -0.049042
vn 0.540609 -0.840675 -0.031739
vn 0.653682 -0.053675 0.754863
vn 0.653682 0.053675 0.754863
vn 0.111311 0.085394 0.990110
vn 0.973279 -0.021599 0.228607
vn 0.998995 0.030737 0.032627
vn 0.973279 0.021599 0.228607
vn -0.986304 0.163080 0.024683
vn -0.986310 0.163067 -0.024527
vn -0.999001 0.030735 -0.032447
vn -0.540675 0.840634 0.031720
vn -0.097499 0.994027 0.049043
vn -0.097497 0.994027 -0.049042
vn -0.540611 0.840674 -0.031739
vn -0.061910 0.939509 0.336883
vn 0.061910 0.939509 0.336883
vn 0.097499 0.994027 0.049043
vn -0.074226 0.422575 0.903283
vn 0.074226 0.422575 0.903283
vn 0.540673 0.840634 0.031720
vn 0.540609 0.840675 -0.031739
vn 0.097496 0.994027 -0.049042
vn 0.986304 0.163078 0.024683
vn 0.999001 0.030735 -0.032447
vn 0.986310 0.163065 -0.024527
vn -0.973559 0.021584 -0.227413
vn -0.973559 -0.021584 -0.227413
vn -0.652649 0.053727 -0.755753
vn -0.111276 0.085386 -0.990115
vn -0.111276 -0.085386 -0.990115
vn -0.652649 -0.053727 -0.755753
vn -0.074218 0.422555 -0.903293
vn 0.074218 0.422555 -0.903293
vn 0.111276 0.085386 -0.990115
vn -0.061926 0.939525 -0.336835
vn 0.061926 0.939525 -0.336836
vn 0.652647 0.053727 -0.755755
vn 0.652647 -0.053727 -0.755755
vn 0.111276 -0.085386 -0.990115
vn 0.973560 0.021584 -0.227411
vn 0.973560 -0.021584 -0.227411
vn -0.061926 -0.939525 -0.336837
vn 0.061926 -0.939524 -0.336837
vn -0.074218 -0.422555 -0.903293
vn 0.074218 -0.422555 -0.903293
vn -0.963817 -0.151207 0.219530
vn -0.498053 -0.821507 0.277614
vn -0.576198 -0.308270 0.756945
vn 0.498052 -0.821507 0.277615
vn 0.963817 -0.151207 0.219530
vn 0.576197 -0.308271 0.756945
vn -0.498053 0.821507 0.277616
vn -0.963817 0.151207 0.219531
vn -0.576198 0.308270 0.756945
vn 0.963817 0.151207 0.219529
vn 0.498051 0.821507 0.277618
vn 0.576197 0.308271 0.756945
vn -0.575090 0.308521 -0.757685
vn -0.964121 0.151123 -0.218250
vn -0.497568 0.821891 -0.277346
vn 0.964121 0.151123 -0.218249
vn 0.575089 0.308521 -0.757686
vn 0.497567 0.821892 -0.277348
vn -0.497568 -0.821891 -0.277345
vn -0.964121 -0.151123 -0.218251
vn -0.575090 -0.308521 -0.757685
vn 0.964121 -0.151123 -0.218249
vn 0.497567 -0.821892 -0.277344
vn 0.575088 -0.308521 -0.757686
vn -0.110995 -0.992528 0.050686
vn -0.379720 -0.924577 0.031156
vn -0.379720 -0.924577 -0.031156
vn -0.110995 -0.992528 -0.050686
vn -0.924576 -0.379722 0.031156
vn -0.995989 -0.076338 0.046668
vn -0.995989 -0.076338 -0.046668
vn -0.924576 -0.379722 -0.031156
vn -0.023510 -0.077316 0.996729
vn 0.012168 -0.301191 0.953486
vn -0.000321 -0.304898 0.952385
vn -0.000058 -0.089597 0.995978
vn -0.057247 -0.885120 0.461829
vn -0.000168 -0.998822 0.048519
vn 0.000016 -0.881401 0.472368
vn -0.890076 -0.051075 0.452942
vn -0.890076 0.051075 0.452942
vn -0.995989 0.076338 0.046668
vn -0.309160 -0.041186 0.950118
vn -0.035628 0.029128 0.998941
vn -0.309160 0.041186 0.950118
vn 0.995989 -0.076337 0.046667
vn 0.924578 -0.379718 0.031156
vn 0.924578 -0.379718 -0.031156
vn 0.995989 -0.076337 -0.046667
vn 0.379718 -0.924578 0.031156
vn 0.079621 -0.995518 0.051038
vn 0.079621 -0.995518 -0.051038
vn 0.379718 -0.924578 -0.031156
vn 0.016892 -0.080198 0.996636
vn 0.309159 -0.041185 0.950118
vn 0.309159 0.041185 0.950118
vn 0.026054 0.029689 0.999220
vn 0.890078 -0.051075 0.452937
vn 0.995989 0.076337 0.046667
vn 0.890078 0.051075 0.452937
vn -0.924576 0.379722 0.031156
vn -0.924576 0.379722 -0.031156
vn -0.995989 0.076338 -0.046668
vn -0.379720 0.924577 0.031156
vn -0.148443 0.987807 0.046921
vn -0.148443 0.987807 -0.046921
vn -0.379720 0.924577 -0.031156
vn -0.118184 0.885349 0.449656
vn -0.000241 0.887849 0.460135
vn 0.000027 0.998794 0.049090
vn -0.065263 0.308572 0.948960
vn -0.000289 0.035862 0.999357
vn 0.000188 0.314281 0.949330
vn 0.106996 0.993105 0.047889
vn 0.379718 0.924578 0.031156
vn 0.379718 0.924578 -0.031156
vn 0.106996 0.993105 -0.047889
vn 0.924578 0.379718 0.031156
vn 0.995989 0.076337 -0.046667
vn 0.924578 0.379718 -0.031156
vn -0.890076 0.051075 -0.452942
vn -0.890076 -0.051075 -0.452942
vn -0.309160 0.041186 -0.950118
vn -0.035628 0.029128 -0.998941
vn -0.023510 -0.077316 -0.996729
vn -0.309160 -0.041186 -0.950118
vn -0.065263 0.308572 -0.948960
vn 0.000188 0.314281 -0.949330
vn -0.000289 0.035862 -0.999357
vn -0.118184 0.885349 -0.449656
vn 0.000027 0.998794 -0.049090
vn -0.000241 0.887849 -0.460135
vn 0.026054 0.029689 -0.999220
vn 0.309159 0.041185 -0.950118
vn 0.309159 -0.041185 -0.950118
vn 0.016892 -0.080198 -0.996636
vn 0.890078 0.051075 -0.452937
vn 0.890078 -0.051075 -0.452937
vn -0.057247 -0.885120 -0.461829
vn 0.000016 -0.881401 -0.472368
vn -0.000168 -0.998822 -0.048519
vn 0.012168 -0.301191 -0.953486
vn -0.000058 -0.089597 -0.995978
vn -0.000321 -0.304898 -0.952385
vn -0.862493 -0.315956 0.395321
vn -0.315957 -0.862493 0.395319
vn -0.270513 -0.270511 0.923930
vn 0.040043 -0.884320 0.465161
vn 0.315955 -0.862494 0.395319
vn 0.862494 -0.315955 0.395318
vn -0.008208 -0.302263 0.953189
vn 0.270511 -0.270512 0.923930
vn -0.315957 0.862493 0.395319
vn -0.862493 0.315956 0.395320
vn -0.270513 0.270511 0.923930
vn 0.862494 0.315955 0.395318
vn 0.083820 0.887359 0.453396
vn 0.315955 0.862494 0.395319
vn 0.046440 0.310337 0.949491
vn 0.270511 0.270512 0.923930
vn -0.270513 0.270511 -0.923930
vn -0.862493 0.315956 -0.395320
vn -0.315957 0.862493 -0.395319
vn 0.862494 0.315955 -0.395318
vn 0.046440 0.310337 -0.949491
vn 0.270511 0.270512 -0.923930
vn 0.083820 0.887359 -0.453396
vn 0.315955 0.862494 -0.395319
vn -0.315957 -0.862493 -0.395319
vn -0.862493 -0.315956 -0.395321
vn -0.270513 -0.270511 -0.923930
vn 0.862494 -0.315955 -0.395318
vn 0.040043 -0.884320 -0.465161
vn 0.315955 -0.862494 -0.395319
vn -0.008208 -0.302263 -0.953189
vn 0.270511 -0.270512 -0.923930
vn -0.140497 -0.989215 0.041407
vn -0.430789 -0.902043 0.027196
vn -0.430742 -0.902064 -0.027225
vn -0.140496 -0.989215 -0.041406
vn -0.981298 -0.189131 0.035820
vn -0.998456 0.031018 0.046076
vn -0.998468 0.031022 -0.045823
vn -0.981311 -0.189109 -0.035587
vn -0.086875 -0.095448 0.991636
vn -0.093721 -0.480783 0.871816
vn 0.012917 -0.489663 0.871816
vn 0.069893 -0.108501 0.991636
vn -0.041639 -0.956975 0.287168
vn -0.117200 -0.950683 0.287169
vn -0.025035 -0.998829 0.041407
vn -0.947692 0.043305 0.316236
vn -0.941803 0.114022 0.316236
vn -0.989837 0.134535 0.046076
vn -0.523680 -0.026615 0.851499
vn -0.069893 0.108501 0.991636
vn -0.512067 0.112855 0.851499
vn 0.989837 -0.134534 0.046076
vn 0.936508 -0.348812 0.035820
vn 0.936524 -0.348792 -0.035587
vn 0.989849 -0.134532 -0.045823
vn 0.275677 -0.960866 0.027196
vn -0.025037 -0.998829 -0.041406
vn 0.275626 -0.960879 -0.027225
vn 0.512066 -0.112855 0.851500
vn 0.523678 0.026615 0.851500
vn 0.086875 0.095448 0.991636
vn 0.941804 -0.114022 0.316234
vn 0.998456 -0.031019 0.046076
vn 0.947692 -0.043305 0.316234
vn -0.936507 0.348815 0.035820
vn -0.936523 0.348795 -0.035587
vn -0.989849 0.134533 -0.045823
vn -0.275678 0.960865 0.027196
vn 0.025035 0.998829 0.041408
vn 0.025036 0.998829 -0.041407
vn -0.275627 0.960879 -0.027225
vn 0.041639 0.956974 0.287171
vn 0.117200 0.950682 0.287171
vn 0.140497 0.989215 0.041408
vn -0.012917 0.489663 0.871816
vn 0.093721 0.480784 0.871816
vn 0.430790 0.902042 0.027196
vn 0.430743 0.902064 -0.027225
vn 0.140496 0.989215 -0.041407
vn 0.981299 0.189127 0.035820
vn 0.998468 -0.031023 -0.045823
vn 0.981312 0.189105 -0.035587
vn -0.942327 0.114046 -0.314664
vn -0.948212 0.043367 -0.314664
vn -0.511021 0.112801 -0.852135
vn -0.069870 0.108490 -0.991639
vn -0.086850 -0.095441 -0.991639
vn -0.522640 -0.026735 -0.852134
vn -0.012906 0.489641 -0.871829
vn 0.093705 0.480764 -0.871829
vn 0.086850 0.095441 -0.991639
vn 0.041631 0.956987 -0.287128
vn 0.117210 0.950694 -0.287128
vn 0.522638 0.026734 -0.852135
vn 0.511020 -0.112801 -0.852135
vn 0.069870 -0.108490 -0.991639
vn 0.948213 -0.043368 -0.314662
vn 0.942328 -0.114046 -0.314662
vn -0.117210 -0.950695 -0.287125
vn -0.041631 -0.956988 -0.287125
vn -0.093705 -0.480763 -0.871829
vn 0.012906 -0.489640 -0.871829
vn -0.939527 -0.168171 0.298340
vn -0.399493 -0.879874 0.257347
vn -0.465391 -0.356801 0.810003
vn 0.248477 -0.933827 0.257345
vn 0.898778 -0.321234 0.298340
vn 0.399973 -0.428855 0.810003
vn -0.248478 0.933827 0.257346
vn -0.898777 0.321235 0.298340
vn -0.399974 0.428855 0.810003
vn 0.939528 0.168170 0.298339
vn 0.399493 0.879874 0.257348
vn 0.465390 0.356802 0.810002
vn -0.398953 0.428931 -0.810466
vn -0.899333 0.321213 -0.296685
vn -0.248072 0.934019 -0.257040
vn 0.940072 0.168057 -0.296685
vn 0.464395 0.357046 -0.810466
vn 0.399125 0.880130 -0.257041
vn -0.399125 -0.880131 -0.257039
vn -0.940072 -0.168058 -0.296685
vn -0.464397 -0.357046 -0.810465
vn 0.899334 -0.321211 -0.296684
vn 0.248071 -0.934019 -0.257038
vn 0.398951 -0.428931 -0.810467
vn -0.048363 -0.996818 0.063367
vn -0.302387 -0.952430 0.037939
vn -0.302346 -0.952440 -0.038018
vn -0.048362 -0.996818 -0.063365
vn -0.946129 -0.317213 0.064925
vn -0.994592 -0.061596 0.083627
vn -0.994630 -0.061595 -0.083173
vn -0.946165 -0.317196 -0.064482
vn -0.043654 -0.067592 0.996758
vn -0.030028 -0.342214 0.939142
vn 0.030028 -0.342214 0.939142
vn 0.043654 -0.067592 0.996758
vn 0.033031 -0.908038 0.417583
vn -0.033031 -0.908038 0.417583
vn 0.048363 -0.996818 0.063367
vn -0.852469 -0.041948 0.521091
vn -0.852469 0.041948 0.521091
vn -0.994592 0.061596 0.083627
vn -0.315983 -0.047180 0.947591
vn -0.043654 0.067592 0.996758
vn -0.315983 0.047180 0.947591
vn 0.994592 -0.061595 0.083627
vn 0.946131 -0.317209 0.064925
vn 0.946167 -0.317192 -0.064482
vn 0.994630 -0.061594 -0.083173
vn 0.302386 -0.952430 0.037939
vn 0.048362 -0.996818 -0.063365
vn 0.302345 -0.952440 -0.038018
vn 0.315982 -0.047180 0.947591
vn 0.315982 0.047180 0.947591
vn 0.043654 0.067592 0.996758
vn 0.852471 -0.041948 0.521088
vn 0.994592 0.061595 0.083627
vn 0.852471 0.041948 0.521088
vn -0.946129 0.317213 0.064925
vn -0.946165 0.317196 -0.064482
vn -0.994630 0.061595 -0.083173
vn -0.302388 0.952430 0.037939
vn -0.048364 0.996818 0.063367
vn -0.048362 0.996818 -0.063366
vn -0.302347 0.952439 -0.038018
vn -0.033031 0.908037 0.417586
vn 0.033030 0.908037 0.417586
vn 0.048364 0.996818 0.063367
vn -0.030028 0.342214 0.939142
vn 0.030028 0.342214 0.939142
vn 0.302387 0.952430 0.037939
vn 0.302346 0.952440 -0.038018
vn 0.048362 0.996818 -0.063366
vn 0.946131 0.317209 0.064925
vn 0.994630 0.061594 -0.083173
vn 0.946167 0.317192 -0.064482
vn -0.853750 0.041961 -0.518989
vn -0.853750 -0.041961 -0.518989
vn -0.315199 0.047184 -0.947852
vn -0.043639 0.067586 -0.996759
vn -0.043639 -0.067586 -0.996759
vn -0.315199 -0.047183 -0.947852
vn -0.030025 0.342197 -0.939149
vn 0.030025 0.342197 -0.939149
vn 0.043639 0.067586 -0.996759
vn -0.033030 0.908065 -0.417525
vn 0.033030 0.908065 -0.417525
vn 0.315197 0.047184 -0.947853
vn 0.315197 -0.047183 -0.947853
vn 0.043639 -0.067586 -0.996759
vn 0.853752 0.041961 -0.518986
vn 0.853752 -0.041961 -0.518986
vn -0.033030 -0.908066 -0.417522
vn 0.033030 -0.908066 -0.417522
vn -0.030025 -0.342196 -0.939149
vn 0.030025 -0.342196 -0.939149
vn -0.829609 -0.264002 0.491987
vn -0.264442 -0.884752 0.383777
vn -0.268448 -0.291322 0.918187
vn 0.264441 -0.884752 0.383778
vn 0.829610 -0.264001 0.491986
vn 0.268446 -0.291322 0.918187
vn -0.264442 0.884752 0.383776
vn -0.829609 0.264002 0.491987
vn -0.268448 0.291322 0.918187
vn 0.829610 0.264001 0.491986
vn 0.264441 0.884752 0.383778
vn 0.268447 0.291323 0.918187
vn -0.267729 0.291340 -0.918391
vn -0.830893 0.264180 -0.489720
vn -0.264144 0.885028 -0.383345
vn 0.830893 0.264179 -0.489720
vn 0.267727 0.291340 -0.918392
vn 0.264143 0.885028 -0.383345
vn -0.264144 -0.885028 -0.383345
vn -0.830893 -0.264180 -0.489720
vn -0.267729 -0.291340 -0.918391
vn 0.830894 -0.264178 -0.489720
vn 0.264143 -0.885028 -0.383345
vn 0.267728 -0.291340 -0.918391
vn 0.000549 -0.997667 0.068266
vn -0.509332 -0.859488 0.043138
vn -0.509260 -0.859529 -0.043166
vn 0.000551 -0.997667 -0.068265
vn -0.967447 -0.251515 0.028065
vn -0.989268 -0.140884 0.038734
vn -0.989277 -0.140883 -0.038520
vn -0.967454 -0.251505 -0.027887
vn -0.087122 -0.071825 0.993605
vn -0.023042 -0.320582 0.946941
vn 0.095805 -0.306798 0.946941
vn 0.101249 -0.049978 0.993605
vn 0.178159 -0.875940 0.448317
vn 0.027054 -0.893465 0.448317
vn 0.227809 -0.971310 0.068266
vn -0.954505 -0.129697 0.268513
vn -0.958852 -0.092211 0.268513
vn -0.995253 -0.089277 0.038734
vn -0.580575 -0.107389 0.807094
vn -0.101249 0.049978 0.993605
vn -0.589743 -0.028342 0.807094
vn 0.995253 0.089278 0.038733
vn 0.999332 -0.023409 0.028065
vn 0.999337 -0.023398 -0.027887
vn 0.995261 0.089281 -0.038520
vn 0.692528 -0.720100 0.043137
vn 0.227807 -0.971311 -0.068265
vn 0.692468 -0.720156 -0.043166
vn 0.589741 0.028342 0.807095
vn 0.580574 0.107389 0.807095
vn 0.087122 0.071825 0.993605
vn 0.958853 0.092211 0.268512
vn 0.989268 0.140884 0.038733
vn 0.954505 0.129697 0.268512
vn -0.999332 0.023411 0.028065
vn -0.999337 0.023400 -0.027887
vn -0.995261 -0.089280 -0.038520
vn -0.692530 0.720098 0.043138
vn -0.227809 0.971310 0.068266
vn -0.227807 0.971310 -0.068265
vn -0.692470 0.720154 -0.043166
vn -0.178159 0.875940 0.448318
vn -0.027054 0.893465 0.448318
vn -0.000549 0.997667 0.068266
vn -0.095805 0.306798 0.946941
vn 0.023042 0.320582 0.946941
vn 0.509330 0.859489 0.043138
vn 0.509259 0.859530 -0.043166
vn -0.000551 0.997667 -0.068265
vn 0.967447 0.251513 0.028065
vn 0.989277 0.140883 -0.038520
vn 0.967455 0.251503 -0.027887
vn -0.959232 -0.092266 -0.267136
vn -0.954887 -0.129730 -0.267136
vn -0.588691 -0.028189 -0.807867
vn -0.101217 0.049976 -0.993608
vn -0.087092 -0.071816 -0.993608
vn -0.579516 -0.107297 -0.807866
vn -0.095813 0.306780 -0.946946
vn 0.023054 0.320566 -0.946946
vn 0.087092 0.071816 -0.993608
vn -0.178163 0.875971 -0.448256
vn -0.027057 0.893496 -0.448256
vn 0.579514 0.107297 -0.807868
vn 0.588688 0.028189 -0.807868
vn 0.101217 -0.049976 -0.993608
vn 0.954887 0.129730 -0.267134
vn 0.959232 0.092266 -0.267134
vn 0.027057 -0.893497 -0.448254
vn 0.178163 -0.875971 -0.448254
vn -0.023054 -0.320567 -0.946945
vn 0.095812 -0.306781 -0.946945
vn -0.936513 -0.236427 0.258931
vn -0.452861 -0.815721 0.359883
vn -0.493552 -0.295930 0.817822
vn 0.627539 -0.690420 0.359882
vn 0.965767 -0.015802 0.258930
vn 0.548180 -0.175113 0.817823
vn -0.627540 0.690418 0.359884
vn -0.965767 0.015803 0.258930
vn -0.548181 0.175112 0.817822
vn 0.936514 0.236426 0.258931
vn 0.452860 0.815722 0.359883
vn 0.493551 0.295931 0.817822
vn -0.547107 0.175390 -0.818482
vn -0.966164 0.015700 -0.257449
vn -0.627146 0.690931 -0.359585
vn 0.936925 0.236417 -0.257448
vn 0.492442 0.295955 -0.818481
vn 0.452359 0.816131 -0.359585
vn -0.452360 -0.816131 -0.359585
vn -0.936925 -0.236417 -0.257448
vn -0.492443 -0.295955 -0.818480
vn 0.966165 -0.015699 -0.257448
vn 0.627145 -0.690933 -0.359584
vn 0.547106 -0.175390 -0.818482
vn -0.086592 -0.995001 0.049749
vn -0.437039 -0.898853 0.032560
vn -0.436983 -0.898879 -0.032592
vn -0.086591 -0.995001 -0.049748
vn -0.977790 -0.206722 0.034533
vn -0.998621 -0.026689 0.045205
vn -0.998633 -0.026686 -0.044956
vn -0.977802 -0.206705 -0.034310
vn -0.081978 -0.083834 0.993102
vn -0.061016 -0.418833 0.906011
vn 0.047957 -0.420529 0.906011
vn 0.079331 -0.086344 0.993102
vn 0.032166 -0.939905 0.339918
vn -0.061390 -0.938449 0.339918
vn 0.055596 -0.997213 0.049749
vn -0.950517 -0.014736 0.310324
vn -0.949598 0.044299 0.310324
vn -0.997308 0.057742 0.045205
vn -0.528899 -0.049459 0.847243
vn -0.079331 0.086344 0.993102
vn -0.527104 0.065888 0.847243
vn 0.997308 -0.057742 0.045204
vn 0.970887 -0.237038 0.034532
vn 0.970899 -0.237021 -0.034310
vn 0.997319 -0.057739 -0.044956
vn 0.408863 -0.912015 0.032560
vn 0.055595 -0.997213 -0.049748
vn 0.408807 -0.912039 -0.032592
vn 0.527102 -0.065888 0.847244
vn 0.528897 0.049459 0.847244
vn 0.081978 0.083834 0.993102
vn 0.949599 -0.044299 0.310322
vn 0.998621 0.026688 0.045204
vn 0.950517 0.014735 0.310322
vn -0.970886 0.237041 0.034533
vn -0.970898 0.237024 -0.034310
vn -0.997319 0.057740 -0.044956
vn -0.408864 0.912014 0.032560
vn -0.055597 0.997213 0.049749
vn -0.055595 0.997213 -0.049748
vn -0.408808 0.912039 -0.032592
vn -0.032166 0.939905 0.339919
vn 0.061390 0.938449 0.339919
vn 0.086592 0.995001 0.049749
vn -0.047957 0.420529 0.906011
vn 0.061016 0.418834 0.906011
vn 0.437037 0.898854 0.032560
vn 0.436982 0.898880 -0.032592
vn 0.086591 0.995001 -0.049748
vn 0.977791 0.206719 0.034532
vn 0.998633 0.026685 -0.044956
vn 0.977802 0.206702 -0.034310
vn -0.950104 0.044291 -0.308774
vn -0.951022 -0.014713 -0.308774
vn -0.526052 0.065903 -0.847895
vn -0.079305 0.086336 -0.993105
vn -0.081952 -0.083827 -0.993105
vn -0.527847 -0.049506 -0.847895
vn -0.047950 0.420508 -0.906021
vn 0.061009 0.418813 -0.906021
vn 0.081952 0.083827 -0.993105
vn -0.032174 0.939922 -0.339869
vn 0.061399 0.938467 -0.339869
vn 0.527846 0.049506 -0.847896
vn 0.526050 -0.065903 -0.847896
vn 0.079305 -0.086336 -0.993105
vn 0.951022 0.014712 -0.308772
vn 0.950104 -0.044291 -0.308772
vn -0.061399 -0.938467 -0.339868
vn 0.032174 -0.939923 -0.339868
vn -0.061008 -0.418813 -0.906021
vn 0.047950 -0.420508 -0.906021
vn -0.936743 -0.187224 0.295738
vn -0.398082 -0.867579 0.298056
vn -0.457806 -0.326508 0.826926
vn 0.370898 -0.879544 0.298056
vn 0.930465 -0.216273 0.295737
vn 0.447425 -0.340592 0.826927
vn -0.370899 0.879543 0.298056
vn -0.930465 0.216275 0.295738
vn -0.447427 0.340592 0.826926
vn 0.936743 0.187223 0.295736
vn 0.398081 0.867580 0.298055
vn 0.457804 0.326508 0.826927
vn -0.446388 0.340725 -0.827432
vn -0.931000 0.216222 -0.294088
vn -0.370471 0.879835 -0.297728
vn 0.937276 0.187153 -0.294087
vn 0.456770 0.326673 -0.827433
vn 0.397663 0.867884 -0.297728
vn -0.397664 -0.867884 -0.297727
vn -0.937275 -0.187155 -0.294088
vn -0.456772 -0.326673 -0.827432
vn 0.931000 -0.216221 -0.294087
vn 0.370471 -0.879835 -0.297728
vn 0.446387 -0.340725 -0.827433
s 1
g stone7
usemtl lambert3SG
f 2/1/1 1/25/2 37/54/3 42/21/4
s 2
f 1/26/5 6/22/6 38/8/7 37/53/8
s 3
f 4/2/9 3/27/10 11/34/11 10/16/12
s 1
f 11/33/13 3/28/14 2/1/1 12/3/15
s 2
f 6/22/6 5/29/16 15/83/17 14/23/18
s 3
f 5/88/19 4/2/9 16/5/20 15/37/21
s 4
f 8/4/22 7/30/23 43/59/24 48/12/25
s 1
f 7/31/26 12/3/15 44/13/27 43/58/28
s 3
f 10/16/12 9/32/29 23/82/30 22/6/31
s 4
f 9/85/32 8/4/22 24/7/33 23/42/34
s 2
f 14/23/18 13/35/35 27/46/36 26/24/37
s 5
f 13/36/38 18/17/39 28/9/40 27/45/41
f 18/17/39 17/38/42 21/41/43 20/18/44
s 3
f 17/96/45 16/5/20 22/6/31 21/90/46
s 5
f 20/18/44 19/39/47 35/52/48 34/10/49
s 4
f 19/40/50 24/7/33 36/11/51 35/51/52
s 2
f 26/24/37 25/43/53 39/56/54 38/8/7
s 6
f 25/44/55 30/19/56 40/14/57 39/55/58
f 30/19/56 29/47/59 33/50/60 32/20/61
s 5
f 29/80/62 28/9/40 34/10/49 33/77/63
s 6
f 32/20/61 31/48/64 47/62/65 46/15/66
s 4
f 31/49/67 36/11/51 48/12/25 47/61/68
s 1
f 42/21/4 41/57/69 45/60/70 44/13/27
s 6
f 41/93/71 40/14/57 46/15/66 45/89/72
s 3
f 16/5/20 4/2/9 10/16/12 22/6/31
s 5
f 28/9/40 18/17/39 20/18/44 34/10/49
s 6
f 40/14/57 30/19/56 32/20/61 46/15/66
s 1
f 2/1/1 42/21/4 44/13/27 12/3/15
s 4
f 8/4/22 48/12/25 36/11/51 24/7/33
s 2
f 38/8/7 6/22/6 14/23/18 26/24/37
f 5/29/16 6/22/6 1/26/5 49/64/73
s 1
f 1/25/2 2/1/1 3/28/14 49/63/74
s 3
f 3/27/10 4/2/9 5/88/19 49/87/75
s 1
f 11/33/13 12/3/15 7/31/26 50/66/76
s 4
f 7/30/23 8/4/22 9/85/32 50/65/77
s 3
f 9/32/29 10/16/12 11/34/11 50/86/78
s 5
f 17/38/42 18/17/39 13/36/38 51/84/79
s 2
f 13/35/35 14/23/18 15/83/17 51/67/80
s 3
f 15/37/21 16/5/20 17/96/45 51/95/81
s 4
f 23/42/34 24/7/33 19/40/50 52/81/82
s 5
f 19/39/47 20/18/44 21/41/43 52/68/83
s 3
f 21/90/46 22/6/31 23/82/30 52/94/84
s 6
f 29/47/59 30/19/56 25/44/55 53/70/85
s 2
f 25/43/53 26/24/37 27/46/36 53/69/86
s 5
f 27/45/41 28/9/40 29/80/62 53/79/87
s 4
f 35/51/52 36/11/51 31/49/67 54/72/88
s 6
f 31/48/64 32/20/61 33/50/60 54/71/89
s 5
f 33/77/63 34/10/49 35/52/48 54/78/90
s 1
f 41/57/69 42/21/4 37/54/3 55/74/91
s 2
f 37/53/8 38/8/7 39/56/54 55/73/92
s 6
f 39/55/58 40/14/57 41/93/71 55/92/93
s 4
f 47/61/68 48/12/25 43/59/24 56/76/94
s 1
f 43/58/28 44/13/27 45/60/70 56/75/95
s 6
f 45/89/72 46/15/66 47/62/65 56/91/96
s 7
f 58/97/97 57/98/98 93/99/99 98/100/100
s 8
f 57/101/101 62/102/102 94/103/103 93/104/104
s 9
f 60/105/105 59/106/106 113/107/107 114/108/108
s 7
f 59/109/109 58/97/97 124/110/110 113/111/111
s 8
f 62/102/102 61/112/112 71/113/113 70/114/114
s 9
f 61/115/115 60/105/105 72/116/116 71/117/117
s 10
f 64/118/118 63/119/119 99/120/120 104/121/121
s 7
f 63/122/122 68/123/123 100/124/124 99/125/125
s 9
f 66/126/126 65/127/127 79/128/128 78/129/129
s 10
f 65/130/130 64/118/118 80/131/131 79/132/132
s 8
f 70/114/114 69/133/133 83/134/134 82/135/135
s 13
f 69/136/136 74/137/137 84/138/138 83/139/139
f 74/137/137 73/140/140 116/141/141 117/142/142
s 9
f 73/143/143 72/116/116 115/144/144 116/145/145
s 13
f 76/146/146 75/147/147 91/148/148 90/149/149
s 10
f 75/150/150 80/131/131 92/151/151 91/152/152
s 8
f 82/135/135 81/153/153 95/154/154 94/103/103
s 15
f 81/155/155 86/156/156 96/157/157 95/158/158
f 86/156/156 85/159/159 119/160/160 120/161/161
s 13
f 85/162/162 84/138/138 118/163/163 119/164/164
s 15
f 88/165/165 87/166/166 103/167/167 102/168/168
s 10
f 87/169/169 92/151/151 104/121/121 103/170/170
s 7
f 98/100/100 97/171/171 122/172/172 123/173/173
s 15
f 97/174/174 96/157/157 121/175/175 122/176/176
s 9
f 60/105/105 114/108/108 115/144/144 72/116/116
s 13
f 74/137/137 117/142/142 118/163/163 84/138/138
s 15
f 86/156/156 120/161/161 121/175/175 96/157/157
s 7
f 98/100/100 123/173/173 124/110/110 58/97/97
s 10
f 64/118/118 104/121/121 92/151/151 80/131/131
s 8
f 94/103/103 62/102/102 70/114/114 82/135/135
f 61/112/112 62/102/102 57/101/101 105/177/177
s 7
f 57/98/98 58/97/97 59/109/109 105/178/178
s 9
f 59/106/106 60/105/105 61/115/115 105/179/179
s 7
f 67/180/180 68/123/123 63/122/122 106/181/181
s 10
f 63/119/119 64/118/118 65/130/130 106/182/182
s 9
f 65/127/127 66/126/126 67/183/183 106/184/184
s 13
f 73/140/140 74/137/137 69/136/136 107/185/185
s 8
f 69/133/133 70/114/114 71/113/113 107/186/186
s 9
f 71/117/117 72/116/116 73/143/143 107/187/187
s 10
f 79/132/132 80/131/131 75/150/150 108/188/188
s 13
f 75/147/147 76/146/146 77/189/189 108/190/190
s 9
f 77/191/191 78/129/129 79/128/128 108/192/192
s 15
f 85/159/159 86/156/156 81/155/155 109/193/193
s 8
f 81/153/153 82/135/135 83/134/134 109/194/194
s 13
f 83/139/139 84/138/138 85/162/162 109/195/195
s 10
f 91/152/152 92/151/151 87/169/169 110/196/196
s 15
f 87/166/166 88/165/165 89/197/197 110/198/198
s 13
f 89/199/199 90/149/149 91/148/148 110/200/200
s 7
f 97/171/171 98/100/100 93/99/99 111/201/201
s 8
f 93/104/104 94/103/103 95/154/154 111/202/202
s 15
f 95/158/158 96/157/157 97/174/174 111/203/203
s 10
f 103/170/170 104/121/121 99/120/120 112/204/204
s 7
f 99/125/125 100/124/124 101/205/205 112/206/206
s 15
f 101/207/207 102/168/168 103/167/167 112/208/208
s 9
f 114/108/108 113/107/107 67/183/183 66/126/126
f 115/144/144 114/108/108 66/126/126 78/129/129
f 116/145/145 115/144/144 78/129/129 77/191/191
s 13
f 117/142/142 116/141/141 77/189/189 76/146/146
f 118/163/163 117/142/142 76/146/146 90/149/149
f 119/164/164 118/163/163 90/149/149 89/199/199
s 15
f 120/161/161 119/160/160 89/197/197 88/165/165
f 121/175/175 120/161/161 88/165/165 102/168/168
f 122/176/176 121/175/175 102/168/168 101/207/207
s 7
f 123/173/173 122/172/172 101/205/205 100/124/124
f 124/110/110 123/173/173 100/124/124 68/123/123
f 113/111/111 124/110/110 68/123/123 67/180/180
s 17
f 126/209/209 125/210/210 161/211/211 166/212/212
s 18
f 125/213/213 130/214/214 162/215/215 161/216/216
s 19
f 128/217/217 127/218/218 135/219/219 134/220/220
s 17
f 135/221/221 127/222/222 126/209/209 136/223/223
s 18
f 130/214/214 129/224/224 139/225/225 138/226/226
s 19
f 129/227/227 128/217/217 140/228/228 139/229/229
s 20
f 132/230/230 131/231/231 167/232/232 172/233/233
s 17
f 131/234/234 136/223/223 168/235/235 167/236/236
s 19
f 134/220/220 133/237/237 147/238/238 146/239/239
s 20
f 133/240/240 132/230/230 148/241/241 147/242/242
s 18
f 138/226/226 137/243/243 151/244/244 150/245/245
s 21
f 137/246/246 142/247/247 152/248/248 151/249/249
f 142/247/247 141/250/250 145/251/251 144/252/252
s 19
f 141/253/253 140/228/228 146/239/239 145/254/254
s 21
f 144/252/252 143/255/255 159/256/256 158/257/257
s 20
f 143/258/258 148/241/241 160/259/259 159/260/260
s 18
f 150/245/245 149/261/261 163/262/262 162/215/215
s 22
f 149/263/263 154/264/264 164/265/265 163/266/266
f 154/264/264 153/267/267 157/268/268 156/269/269
s 21
f 153/270/270 152/248/248 158/257/257 157/271/271
s 22
f 156/269/269 155/272/272 171/273/273 170/274/274
s 20
f 155/275/275 160/259/259 172/233/233 171/276/276
s 17
f 166/212/212 165/277/277 169/278/278 168/235/235
s 22
f 165/279/279 164/265/265 170/274/274 169/280/280
s 19
f 140/228/228 128/217/217 134/220/220 146/239/239
s 21
f 152/248/248 142/247/247 144/252/252 158/257/257
s 22
f 164/265/265 154/264/264 156/269/269 170/274/274
s 17
f 126/209/209 166/212/212 168/235/235 136/223/223
s 20
f 132/230/230 172/233/233 160/259/259 148/241/241
s 18
f 162/215/215 130/214/214 138/226/226 150/245/245
f 129/224/224 130/214/214 125/213/213 173/281/281
s 17
f 125/210/210 126/209/209 127/222/222 173/282/282
s 19
f 127/218/218 128/217/217 129/227/227 173/283/283
s 17
f 135/221/221 136/223/223 131/234/234 174/284/284
s 20
f 131/231/231 132/230/230 133/240/240 174/285/285
s 19
f 133/237/237 134/220/220 135/219/219 174/286/286
s 21
f 141/250/250 142/247/247 137/246/246 175/287/287
s 18
f 137/243/243 138/226/226 139/225/225 175/288/288
s 19
f 139/229/229 140/228/228 141/253/253 175/289/289
s 20
f 147/242/242 148/241/241 143/258/258 176/290/290
s 21
f 143/255/255 144/252/252 145/251/251 176/291/291
s 19
f 145/254/254 146/239/239 147/238/238 176/292/292
s 22
f 153/267/267 154/264/264 149/263/263 177/293/293
s 18
f 149/261/261 150/245/245 151/244/244 177/294/294
s 21
f 151/249/249 152/248/248 153/270/270 177/295/295
s 20
f 159/260/260 160/259/259 155/275/275 178/296/296
s 22
f 155/272/272 156/269/269 157/268/268 178/297/297
s 21
f 157/271/271 158/257/257 159/256/256 178/298/298
s 17
f 165/277/277 166/212/212 161/211/211 179/299/299
s 18
f 161/216/216 162/215/215 163/262/262 179/300/300
s 22
f 163/266/266 164/265/265 165/279/279 179/301/301
s 20
f 171/276/276 172/233/233 167/232/232 180/302/302
s 17
f 167/236/236 168/235/235 169/278/278 180/303/303
s 22
f 169/280/280 170/274/274 171/273/273 180/304/304
s 23
f 182/305/305 181/306/306 217/307/307 222/308/308
s 24
f 181/309/309 186/310/310 218/311/311 217/312/312
s 25
f 184/313/313 183/314/314 191/315/315 190/316/316
s 23
f 191/317/317 183/318/318 182/305/305 192/319/319
s 24
f 186/310/310 185/320/320 195/321/321 194/322/322
s 25
f 185/323/323 184/313/313 196/324/324 195/325/325
s 26
f 188/326/326 187/327/327 223/328/328 228/329/329
s 23
f 187/330/330 192/319/319 224/331/331 223/332/332
s 25
f 190/316/316 189/333/333 203/334/334 202/335/335
s 26
f 189/336/336 188/326/326 204/337/337 203/338/338
s 24
f 194/322/322 193/339/339 207/340/340 206/341/341
s 27
f 193/342/342 198/343/343 208/344/344 207/345/345
f 198/343/343 197/346/346 201/347/347 200/348/348
s 25
f 197/349/349 196/324/324 202/335/335 201/350/350
s 27
f 200/348/348 199/351/351 215/352/352 214/353/353
s 26
f 199/354/354 204/337/337 216/355/355 215/356/356
s 24
f 206/341/341 205/357/357 219/358/358 218/311/311
s 28
f 205/359/359 210/360/360 220/361/361 219/362/362
f 210/360/360 209/363/363 213/364/364 212/365/365
s 27
f 209/366/366 208/344/344 214/353/353 213/367/367
s 28
f 212/365/365 211/368/368 227/369/369 226/370/370
s 26
f 211/371/371 216/355/355 228/329/329 227/372/372
s 23
f 222/308/308 221/373/373 225/374/374 224/331/331
s 28
f 221/375/375 220/361/361 226/370/370 225/376/376
s 25
f 196/324/324 184/313/313 190/316/316 202/335/335
s 27
f 208/344/344 198/343/343 200/348/348 214/353/353
s 28
f 220/361/361 210/360/360 212/365/365 226/370/370
s 23
f 182/305/305 222/308/308 224/331/331 192/319/319
s 26
f 188/326/326 228/329/329 216/355/355 204/337/337
s 24
f 218/311/311 186/310/310 194/322/322 206/341/341
f 185/320/320 186/310/310 181/309/309 229/377/377
s 23
f 181/306/306 182/305/305 183/318/318 229/378/378
s 25
f 183/314/314 184/313/313 185/323/323 229/379/379
s 23
f 191/317/317 192/319/319 187/330/330 230/380/380
s 26
f 187/327/327 188/326/326 189/336/336 230/381/381
s 25
f 189/333/333 190/316/316 191/315/315 230/382/382
s 27
f 197/346/346 198/343/343 193/342/342 231/383/383
s 24
f 193/339/339 194/322/322 195/321/321 231/384/384
s 25
f 195/325/325 196/324/324 197/349/349 231/385/385
s 26
f 203/338/338 204/337/337 199/354/354 232/386/386
s 27
f 199/351/351 200/348/348 201/347/347 232/387/387
s 25
f 201/350/350 202/335/335 203/334/334 232/388/388
s 28
f 209/363/363 210/360/360 205/359/359 233/389/389
s 24
f 205/357/357 206/341/341 207/340/340 233/390/390
s 27
f 207/345/345 208/344/344 209/366/366 233/391/391
s 26
f 215/356/356 216/355/355 211/371/371 234/392/392
s 28
f 211/368/368 212/365/365 213/364/364 234/393/393
s 27
f 213/367/367 214/353/353 215/352/352 234/394/394
s 23
f 221/373/373 222/308/308 217/307/307 235/395/395
s 24
f 217/312/312 218/311/311 219/358/358 235/396/396
s 28
f 219/362/362 220/361/361 221/375/375 235/397/397
s 26
f 227/372/372 228/329/329 223/328/328 236/398/398
s 23
f 223/332/332 224/331/331 225/374/374 236/399/399
s 28
f 225/376/376 226/370/370 227/369/369 236/400/400
s 29
f 238/401/401 237/402/402 273/403/403 278/404/404
s 30
f 237/405/405 242/406/406 274/407/407 273/408/408
s 31
f 240/409/409 239/410/410 247/411/411 246/412/412
s 29
f 247/413/413 239/414/414 238/401/401 248/415/415
s 30
f 242/406/406 241/416/416 251/417/417 250/418/418
s 31
f 241/419/419 240/409/409 252/420/420 251/421/421
s 32
f 244/422/422 243/423/423 279/424/424 284/425/425
s 29
f 243/426/426 248/415/415 280/427/427 279/428/428
s 31
f 246/412/412 245/429/429 259/430/430 258/431/431
s 32
f 245/432/432 244/422/422 260/433/433 259/434/434
s 30
f 250/418/418 249/435/435 263/436/436 262/437/437
s 33
f 249/438/438 254/439/439 264/440/440 263/441/441
f 254/439/439 253/442/442 257/443/443 256/444/444
s 31
f 253/445/445 252/420/420 258/431/431 257/446/446
s 33
f 256/444/444 255/447/447 271/448/448 270/449/449
s 32
f 255/450/450 260/433/433 272/451/451 271/452/452
s 30
f 262/437/437 261/453/453 275/454/454 274/407/407
s 34
f 261/455/455 266/456/456 276/457/457 275/458/458
f 266/456/456 265/459/459 269/460/460 268/461/461
s 33
f 265/462/462 264/440/440 270/449/449 269/463/463
s 34
f 268/461/461 267/464/464 283/465/465 282/466/466
s 32
f 267/467/467 272/451/451 284/425/425 283/468/468
s 29
f 278/404/404 277/469/469 281/470/470 280/427/427
s 34
f 277/471/471 276/457/457 282/466/466 281/472/472
s 31
f 252/420/420 240/409/409 246/412/412 258/431/431
s 33
f 264/440/440 254/439/439 256/444/444 270/449/449
s 34
f 276/457/457 266/456/456 268/461/461 282/466/466
s 29
f 238/401/401 278/404/404 280/427/427 248/415/415
s 32
f 244/422/422 284/425/425 272/451/451 260/433/433
s 30
f 274/407/407 242/406/406 250/418/418 262/437/437
f 241/416/416 242/406/406 237/405/405 285/473/473
s 29
f 237/402/402 238/401/401 239/414/414 285/474/474
s 31
f 239/410/410 240/409/409 241/419/419 285/475/475
s 29
f 247/413/413 248/415/415 243/426/426 286/476/476
s 32
f 243/423/423 244/422/422 245/432/432 286/477/477
s 31
f 245/429/429 246/412/412 247/411/411 286/478/478
s 33
f 253/442/442 254/439/439 249/438/438 287/479/479
s 30
f 249/435/435 250/418/418 251/417/417 287/480/480
s 31
f 251/421/421 252/420/420 253/445/445 287/481/481
s 32
f 259/434/434 260/433/433 255/450/450 288/482/482
s 33
f 255/447/447 256/444/444 257/443/443 288/483/483
s 31
f 257/446/446 258/431/431 259/430/430 288/484/484
s 34
f 265/459/459 266/456/456 261/455/455 289/485/485
s 30
f 261/453/453 262/437/437 263/436/436 289/486/486
s 33
f 263/441/441 264/440/440 265/462/462 289/487/487
s 32
f 271/452/452 272/451/451 267/467/467 290/488/488
s 34
f 267/464/464 268/461/461 269/460/460 290/489/489
s 33
f 269/463/463 270/449/449 271/448/448 290/490/490
s 29
f 277/469/469 278/404/404 273/403/403 291/491/491
s 30
f 273/408/408 274/407/407 275/454/454 291/492/492
s 34
f 275/458/458 276/457/457 277/471/471 291/493/493
s 32
f 283/468/468 284/425/425 279/424/424 292/494/494
s 29
f 279/428/428 280/427/427 281/470/470 292/495/495
s 34
f 281/472/472 282/466/466 283/465/465 292/496/496
s 35
f 294/497/497 293/498/498 329/499/499 334/500/500
s 36
f 293/501/501 298/502/502 330/503/503 329/504/504
s 37
f 296/505/505 295/506/506 303/507/507 302/508/508
s 35
f 303/509/509 295/510/510 294/497/497 304/511/511
s 36
f 298/502/502 297/512/512 307/513/513 306/514/514
s 37
f 297/515/515 296/505/505 308/516/516 307/517/517
s 38
f 300/518/518 299/519/519 335/520/520 340/521/521
s 35
f 299/522/522 304/511/511 336/523/523 335/524/524
s 37
f 302/508/508 301/525/525 315/526/526 314/527/527
s 38
f 301/528/528 300/518/518 316/529/529 315/530/530
s 36
f 306/514/514 305/531/531 319/532/532 318/533/533
s 39
f 305/534/534 310/535/535 320/536/536 319/537/537
f 310/535/535 309/538/538 313/539/539 312/540/540
s 37
f 309/541/541 308/516/516 314/527/527 313/542/542
s 39
f 312/540/540 311/543/543 327/544/544 326/545/545
s 38
f 311/546/546 316/529/529 328/547/547 327/548/548
s 36
f 318/533/533 317/549/549 331/550/550 330/503/503
s 40
f 317/551/551 322/552/552 332/553/553 331/554/554
f 322/552/552 321/555/555 325/556/556 324/557/557
s 39
f 321/558/558 320/536/536 326/545/545 325/559/559
s 40
f 324/557/557 323/560/560 339/561/561 338/562/562
s 38
f 323/563/563 328/547/547 340/521/521 339/564/564
s 35
f 334/500/500 333/565/565 337/566/566 336/523/523
s 40
f 333/567/567 332/553/553 338/562/562 337/568/568
s 37
f 308/516/516 296/505/505 302/508/508 314/527/527
s 39
f 320/536/536 310/535/535 312/540/540 326/545/545
s 40
f 332/553/553 322/552/552 324/557/557 338/562/562
s 35
f 294/497/497 334/500/500 336/523/523 304/511/511
s 38
f 300/518/518 340/521/521 328/547/547 316/529/529
s 36
f 330/503/503 298/502/502 306/514/514 318/533/533
f 297/512/512 298/502/502 293/501/501 341/569/569
s 35
f 293/498/498 294/497/497 295/510/510 341/570/570
s 37
f 295/506/506 296/505/505 297/515/515 341/571/571
s 35
f 303/509/509 304/511/511 299/522/522 342/572/572
s 38
f 299/519/519 300/518/518 301/528/528 342/573/573
s 37
f 301/525/525 302/508/508 303/507/507 342/574/574
s 39
f 309/538/538 310/535/535 305/534/534 343/575/575
s 36
f 305/531/531 306/514/514 307/513/513 343/576/576
s 37
f 307/517/517 308/516/516 309/541/541 343/577/577
s 38
f 315/530/530 316/529/529 311/546/546 344/578/578
s 39
f 311/543/543 312/540/540 313/539/539 344/579/579
s 37
f 313/542/542 314/527/527 315/526/526 344/580/580
s 40
f 321/555/555 322/552/552 317/551/551 345/581/581
s 36
f 317/549/549 318/533/533 319/532/532 345/582/582
s 39
f 319/537/537 320/536/536 321/558/558 345/583/583
s 38
f 327/548/548 328/547/547 323/563/563 346/584/584
s 40
f 323/560/560 324/557/557 325/556/556 346/585/585
s 39
f 325/559/559 326/545/545 327/544/544 346/586/586
s 35
f 333/565/565 334/500/500 329/499/499 347/587/587
s 36
f 329/504/504 330/503/503 331/550/550 347/588/588
s 40
f 331/554/554 332/553/553 333/567/567 347/589/589
s 38
f 339/564/564 340/521/521 335/520/520 348/590/590
s 35
f 335/524/524 336/523/523 337/566/566 348/591/591
s 40
f 337/568/568 338/562/562 339/561/561 348/592/592
