# This file uses centimeters as units for non-parametric coordinates.

mtllib door_frame_begin 2.mtl
g default
v -0.617159 -0.023213 0.058443
v -0.598428 -0.030972 0.058443
v -0.598428 -0.023213 0.070937
v -0.598428 -0.004483 0.076113
v -0.617159 -0.004483 0.070937
v -0.624917 -0.004483 0.058443
v -0.399361 -0.023213 0.058443
v -0.391602 -0.004483 0.058443
v -0.399361 -0.004483 0.070937
v -0.418091 -0.004483 0.076113
v -0.418091 -0.023213 0.070937
v -0.418091 -0.030972 0.058443
v -0.617159 0.093727 0.058443
v -0.624917 0.074996 0.058443
v -0.617159 0.074996 0.070937
v -0.598428 0.074996 0.076113
v -0.598428 0.093727 0.070937
v -0.598428 0.101485 0.058443
v -0.399361 0.093727 0.058443
v -0.418091 0.101485 0.058443
v -0.418091 0.093727 0.070937
v -0.418091 0.074996 0.076113
v -0.399361 0.074996 0.070937
v -0.391602 0.074996 0.058443
v -0.617159 0.074996 -0.070937
v -0.624917 0.074996 -0.058443
v -0.617159 0.093727 -0.058443
v -0.598428 0.101485 -0.058443
v -0.598428 0.093727 -0.070937
v -0.598428 0.074996 -0.076113
v -0.399361 0.074996 -0.070937
v -0.418091 0.074996 -0.076113
v -0.418091 0.093727 -0.070937
v -0.418091 0.101485 -0.058443
v -0.399361 0.093727 -0.058443
v -0.391602 0.074996 -0.058443
v -0.617159 -0.023213 -0.058443
v -0.624917 -0.004483 -0.058443
v -0.617159 -0.004483 -0.070937
v -0.598428 -0.004483 -0.076113
v -0.598428 -0.023213 -0.070937
v -0.598428 -0.030972 -0.058443
v -0.399361 -0.023213 -0.058443
v -0.418091 -0.030972 -0.058443
v -0.418091 -0.023213 -0.070937
v -0.418091 -0.004483 -0.076113
v -0.399361 -0.004483 -0.070937
v -0.391602 -0.004483 -0.058443
v -0.613716 -0.019771 0.068641
v -0.402803 -0.019771 0.068641
v -0.613716 0.090284 0.068641
v -0.402803 0.090284 0.068641
v -0.613716 0.090284 -0.068641
v -0.402803 0.090284 -0.068641
v -0.613716 -0.019771 -0.068641
v -0.402803 -0.019771 -0.068641
v -0.526140 -0.025760 0.066260
v -0.526140 -0.007029 0.071094
v -0.526140 0.081122 0.076113
v -0.526140 0.099852 0.070937
v -0.526140 0.107610 0.058443
v -0.526140 0.107610 -0.058443
v -0.526140 0.099852 -0.070937
v -0.526140 0.081122 -0.076113
v -0.526140 -0.007029 -0.071094
v -0.526140 -0.025760 -0.066260
v -0.526140 -0.033518 -0.054589
v -0.526140 -0.033518 0.054589
v -0.502045 0.081245 0.048007
v -0.412562 0.081245 0.048007
v -0.502045 0.081245 -0.047576
v -0.412562 0.081245 -0.047576
v -0.475601 0.323744 0.043192
v -0.475601 0.323744 -0.042761
v -0.425519 0.323744 -0.042761
v -0.425519 0.323744 0.043192
v -0.484880 0.213487 0.037294
v -0.484880 0.213487 -0.036864
v -0.421403 0.213487 -0.036864
v -0.421403 0.213487 0.037294
v -0.494116 0.423402 -0.057742
v -0.494116 0.423402 0.058172
v -0.414260 0.423402 0.058172
v -0.414260 0.423402 -0.057742
v -0.467563 0.525658 -0.047576
v -0.467563 0.525658 0.048007
v -0.414783 0.525658 0.048007
v -0.414783 0.525658 -0.047576
v -0.480014 0.620171 -0.047576
v -0.480014 0.620171 0.048007
v -0.430464 0.620171 0.048007
v -0.430464 0.620171 -0.047576
v -0.509868 0.107451 0.047125
v -0.496259 0.100790 0.047125
v -0.496159 0.107238 0.062693
v -0.495917 0.122804 0.069142
v -0.507388 0.122982 0.062693
v -0.513194 0.123073 0.047125
v -0.409718 0.105893 0.047125
v -0.405908 0.121403 0.047125
v -0.411714 0.121494 0.062693
v -0.423185 0.121672 0.069142
v -0.423427 0.106106 0.062693
v -0.423528 0.099659 0.047125
v -0.508356 0.204636 0.047125
v -0.512166 0.189125 0.047125
v -0.506360 0.189035 0.062693
v -0.494889 0.188856 0.069142
v -0.494647 0.204422 0.062693
v -0.494546 0.210870 0.047125
v -0.408206 0.203077 0.047125
v -0.421815 0.209738 0.047125
v -0.421915 0.203291 0.062693
v -0.422157 0.187725 0.069142
v -0.410686 0.187546 0.062693
v -0.404880 0.187456 0.047125
v -0.506392 0.189035 -0.061035
v -0.512166 0.189125 -0.045467
v -0.508356 0.204636 -0.045467
v -0.494546 0.210870 -0.045467
v -0.494647 0.204422 -0.061035
v -0.494889 0.188856 -0.067483
v -0.410655 0.187546 -0.061035
v -0.422157 0.187725 -0.067483
v -0.421915 0.203291 -0.061035
v -0.421815 0.209738 -0.045467
v -0.408206 0.203077 -0.045467
v -0.404880 0.187456 -0.045467
v -0.509868 0.107451 -0.045467
v -0.513194 0.123073 -0.045467
v -0.507419 0.122983 -0.061035
v -0.495917 0.122804 -0.067483
v -0.496159 0.107238 -0.061035
v -0.496259 0.100790 -0.045467
v -0.409718 0.105893 -0.045467
v -0.423528 0.099659 -0.045467
v -0.423427 0.106106 -0.061035
v -0.423185 0.121672 -0.067483
v -0.411682 0.121493 -0.061035
v -0.405908 0.121403 -0.045467
v -0.506073 0.110254 0.059832
v -0.413424 0.108812 0.059832
v -0.504650 0.201716 0.059832
v -0.412001 0.200275 0.059832
v -0.504681 0.201717 -0.058174
v -0.411970 0.200274 -0.058174
v -0.506104 0.110254 -0.058174
v -0.413393 0.108812 -0.058174
v -0.475047 0.522060 0.044882
v -0.464976 0.516044 0.044882
v -0.465799 0.523133 0.059586
v -0.467784 0.540248 0.065676
v -0.475522 0.539350 0.059586
v -0.479439 0.538896 0.044882
v -0.407483 0.529896 0.044882
v -0.407061 0.547290 0.044882
v -0.410978 0.546836 0.059586
v -0.418717 0.545938 0.065676
v -0.416732 0.528824 0.059586
v -0.415910 0.521734 0.044882
v -0.487440 0.628914 0.044882
v -0.487862 0.611520 0.044882
v -0.483945 0.611974 0.059586
v -0.476206 0.612872 0.065676
v -0.478191 0.629986 0.059586
v -0.479013 0.637075 0.044882
v -0.419876 0.636750 0.044882
v -0.429947 0.642766 0.044882
v -0.429125 0.635677 0.059586
v -0.427140 0.618562 0.065676
v -0.419401 0.619460 0.059586
v -0.415484 0.619914 0.044882
v -0.483966 0.611972 -0.057272
v -0.487862 0.611520 -0.042568
v -0.487440 0.628914 -0.042568
v -0.479013 0.637075 -0.042568
v -0.478191 0.629986 -0.057272
v -0.476206 0.612872 -0.063362
v -0.419380 0.619462 -0.057272
v -0.427140 0.618562 -0.063362
v -0.429125 0.635677 -0.057272
v -0.429947 0.642766 -0.042568
v -0.419876 0.636750 -0.042568
v -0.415484 0.619914 -0.042568
v -0.475047 0.522060 -0.042568
v -0.479439 0.538896 -0.042568
v -0.475544 0.539348 -0.057272
v -0.467784 0.540248 -0.063362
v -0.465799 0.523133 -0.057272
v -0.464976 0.516044 -0.042568
v -0.407483 0.529896 -0.042568
v -0.415910 0.521734 -0.042568
v -0.416732 0.528824 -0.057272
v -0.418717 0.545938 -0.063362
v -0.410957 0.546838 -0.057272
v -0.407061 0.547290 -0.042568
v -0.472882 0.525499 0.056883
v -0.410378 0.532748 0.056883
v -0.484545 0.626062 0.056883
v -0.422041 0.633311 0.056883
v -0.484566 0.626059 -0.054569
v -0.422021 0.633313 -0.054569
v -0.472903 0.525497 -0.054569
v -0.410358 0.532751 -0.054569
v -0.487972 0.220501 0.039948
v -0.478070 0.214086 0.039948
v -0.478070 0.220501 0.052750
v -0.478070 0.235988 0.058053
v -0.486355 0.235988 0.052750
v -0.490549 0.235988 0.039948
v -0.415632 0.220501 0.039948
v -0.413056 0.235988 0.039948
v -0.417249 0.235988 0.052750
v -0.425535 0.235988 0.058053
v -0.425535 0.220501 0.052750
v -0.425535 0.214086 0.039948
v -0.487972 0.317193 0.039948
v -0.490549 0.301706 0.039948
v -0.486355 0.301706 0.052750
v -0.478070 0.301706 0.058053
v -0.478070 0.317193 0.052750
v -0.478070 0.323608 0.039948
v -0.415632 0.317193 0.039948
v -0.425535 0.323608 0.039948
v -0.425535 0.317193 0.052750
v -0.425535 0.301706 0.058053
v -0.417249 0.301706 0.052750
v -0.413056 0.301706 0.039948
v -0.486378 0.301706 -0.048995
v -0.490549 0.301706 -0.036193
v -0.487972 0.317193 -0.036193
v -0.478070 0.323608 -0.036193
v -0.478070 0.317193 -0.048995
v -0.478070 0.301706 -0.054298
v -0.417227 0.301706 -0.048995
v -0.425535 0.301706 -0.054298
v -0.425535 0.317193 -0.048995
v -0.425535 0.323608 -0.036193
v -0.415632 0.317193 -0.036193
v -0.413056 0.301706 -0.036193
v -0.487972 0.220501 -0.036193
v -0.490549 0.235988 -0.036193
v -0.486378 0.235988 -0.048995
v -0.478070 0.235988 -0.054298
v -0.478070 0.220501 -0.048995
v -0.478070 0.214086 -0.036193
v -0.415632 0.220501 -0.036193
v -0.425535 0.214086 -0.036193
v -0.425535 0.220501 -0.048995
v -0.425535 0.235988 -0.054298
v -0.417227 0.235988 -0.048995
v -0.413056 0.235988 -0.036193
v -0.485263 0.223347 0.050397
v -0.418342 0.223347 0.050397
v -0.485263 0.314347 0.050397
v -0.418342 0.314347 0.050397
v -0.485285 0.314347 -0.046642
v -0.418319 0.314347 -0.046642
v -0.485285 0.223347 -0.046642
v -0.418319 0.223347 -0.046642
v -0.561601 0.412619 0.057445
v -0.540651 0.405929 0.057445
v -0.540651 0.412619 0.076990
v -0.540651 0.428772 0.085086
v -0.558180 0.428772 0.076990
v -0.567052 0.428772 0.057445
v -0.408562 0.412619 0.057445
v -0.403110 0.428772 0.057445
v -0.411982 0.428772 0.076990
v -0.429512 0.428772 0.085086
v -0.429512 0.412619 0.076990
v -0.429512 0.405929 0.057445
v -0.561601 0.513466 0.057445
v -0.567052 0.497313 0.057445
v -0.558180 0.497313 0.076990
v -0.540651 0.497313 0.085086
v -0.540651 0.513466 0.076990
v -0.540651 0.520156 0.057445
v -0.408562 0.513466 0.057445
v -0.429512 0.520156 0.057445
v -0.429512 0.513466 0.076990
v -0.429512 0.497313 0.085086
v -0.411982 0.497313 0.076990
v -0.403110 0.497313 0.057445
v -0.558229 0.497313 -0.078347
v -0.567052 0.497313 -0.058802
v -0.561601 0.513466 -0.058802
v -0.540651 0.520156 -0.058802
v -0.540651 0.513466 -0.078347
v -0.540651 0.497313 -0.086443
v -0.411934 0.497313 -0.078347
v -0.429512 0.497313 -0.086443
v -0.429512 0.513466 -0.078347
v -0.429512 0.520156 -0.058802
v -0.408562 0.513466 -0.058802
v -0.403110 0.497313 -0.058802
v -0.561601 0.412619 -0.058802
v -0.567052 0.428772 -0.058802
v -0.558229 0.428772 -0.078347
v -0.540651 0.428772 -0.086443
v -0.540651 0.412619 -0.078347
v -0.540651 0.405929 -0.058802
v -0.408562 0.412619 -0.058802
v -0.429512 0.405929 -0.058802
v -0.429512 0.412619 -0.078347
v -0.429512 0.428772 -0.086443
v -0.411934 0.428772 -0.078347
v -0.403110 0.428772 -0.058802
v -0.555870 0.415588 0.073398
v -0.414293 0.415588 0.073398
v -0.555870 0.510497 0.073398
v -0.414293 0.510497 0.073398
v -0.555916 0.510497 -0.074755
v -0.414247 0.510497 -0.074755
v -0.555916 0.415588 -0.074755
v -0.414247 0.415588 -0.074755
v -0.504665 0.334917 0.047125
v -0.492774 0.329207 0.047125
v -0.492384 0.333895 0.062693
v -0.491441 0.345213 0.069142
v -0.501717 0.346069 0.062693
v -0.506918 0.346502 0.047125
v -0.414952 0.327448 0.047125
v -0.410814 0.338500 0.047125
v -0.416015 0.338933 0.062693
v -0.426291 0.339788 0.069142
v -0.427233 0.328470 0.062693
v -0.427623 0.323782 0.047125
v -0.498781 0.405581 0.047125
v -0.502919 0.394528 0.047125
v -0.497718 0.394095 0.062693
v -0.487443 0.393240 0.069142
v -0.486500 0.404558 0.062693
v -0.486110 0.409246 0.047125
v -0.409068 0.398111 0.047125
v -0.420959 0.403821 0.047125
v -0.421349 0.399133 0.062693
v -0.422292 0.387815 0.069142
v -0.412016 0.386960 0.062693
v -0.406815 0.386526 0.047125
v -0.497746 0.394098 -0.061035
v -0.502919 0.394528 -0.045467
v -0.498781 0.405581 -0.045467
v -0.486110 0.409246 -0.045467
v -0.486500 0.404558 -0.061035
v -0.487443 0.393240 -0.067483
v -0.411988 0.386957 -0.061035
v -0.422292 0.387815 -0.067483
v -0.421349 0.399133 -0.061035
v -0.420959 0.403821 -0.045467
v -0.409068 0.398111 -0.045467
v -0.406815 0.386526 -0.045467
v -0.504665 0.334917 -0.045467
v -0.506918 0.346502 -0.045467
v -0.501745 0.346071 -0.061035
v -0.491441 0.345213 -0.067483
v -0.492384 0.333895 -0.061035
v -0.492774 0.329207 -0.045467
v -0.414952 0.327448 -0.045467
v -0.427623 0.323782 -0.045467
v -0.427233 0.328470 -0.061035
v -0.426291 0.339788 -0.067483
v -0.415987 0.338930 -0.061035
v -0.410814 0.338500 -0.045467
v -0.501132 0.336718 0.059832
v -0.418139 0.329807 0.059832
v -0.495595 0.403221 0.059832
v -0.412601 0.396310 0.059832
v -0.495622 0.403223 -0.058174
v -0.412574 0.396308 -0.058174
v -0.501159 0.336720 -0.058174
v -0.418111 0.329805 -0.058174
vt 0.086016 0.133540
vt 0.086016 0.145944
vt 0.224454 0.133540
vt 0.223999 0.145944
vt 0.086016 0.218648
vt 0.224454 0.218648
vt 0.223999 0.218648
vt 0.223999 0.145944
vt 0.086142 0.226693
vt 0.224580 0.226693
vt 0.086472 0.218648
vt 0.086472 0.145944
vt 0.224454 0.230129
vt 0.224329 0.146815
vt 0.085890 0.146815
vt 0.224454 0.145944
vt 0.086142 0.133656
vt 0.224580 0.133656
vt 0.224329 0.222294
vt 0.085890 0.222294
vt 0.086016 0.230129
vt 0.086472 0.145944
vt 0.086472 0.218648
vt 0.223999 0.218648
vt 0.065682 0.129029
vt 0.080048 0.120937
vt 0.079760 0.120937
vt 0.079760 0.120175
vt 0.065735 0.145297
vt 0.230422 0.120937
vt 0.244789 0.129029
vt 0.244842 0.145297
vt 0.230710 0.120175
vt 0.230710 0.120937
vt 0.080048 0.243750
vt 0.065807 0.129311
vt 0.065628 0.219296
vt 0.084921 0.120109
vt 0.244914 0.129311
vt 0.230422 0.243750
vt 0.225801 0.120109
vt 0.244735 0.219296
vt 0.244789 0.225847
vt 0.244663 0.229768
vt 0.065807 0.231039
vt 0.230422 0.243750
vt 0.225458 0.243624
vt 0.065556 0.229768
vt 0.065682 0.225847
vt 0.085641 0.243614
vt 0.080048 0.243750
vt 0.244914 0.231039
vt 0.230422 0.120937
vt 0.065682 0.234640
vt 0.244663 0.139341
vt 0.244789 0.138745
vt 0.084795 0.244247
vt 0.244789 0.234640
vt 0.080048 0.120937
vt 0.225675 0.244247
vt 0.065682 0.138745
vt 0.065556 0.139341
vt 0.065682 0.120175
vt 0.065682 0.120937
vt 0.244789 0.120937
vt 0.244789 0.120175
vt 0.065682 0.243750
vt 0.244914 0.120354
vt 0.244789 0.243750
vt 0.244914 0.243760
vt 0.065807 0.243757
vt 0.065682 0.243750
vt 0.244789 0.120937
vt 0.065682 0.244082
vt 0.244789 0.244082
vt 0.065682 0.120937
vt 0.140269 0.120937
vt 0.140269 0.120175
vt 0.141509 0.145944
vt 0.141509 0.218648
vt 0.141393 0.120109
vt 0.141635 0.133656
vt 0.141635 0.226693
vt 0.168388 0.243640
vt 0.168835 0.222294
vt 0.168835 0.146815
vt 0.141267 0.244247
vt 0.141509 0.230129
vt 0.141509 0.133540
vt 0.142082 0.244264
vt 0.224830 0.244290
vt 0.244663 0.244152
vt 0.065556 0.244149
vt 0.085012 0.244280
vt 0.244789 0.243750
vt 0.244842 0.219296
vt 0.065735 0.219296
vt 0.065807 0.120354
vt 0.244735 0.145297
vt 0.244789 0.120937
vt 0.065682 0.120937
vt 0.065628 0.145297
vt 0.169077 0.121176
vt 0.084669 0.121176
vt 0.141267 0.243590
vt 0.225675 0.243590
vt 0.065556 0.120922
vt 0.244663 0.120922
vt 0.225549 0.121176
vt 0.244789 0.243750
vt 0.065682 0.243750
vt 0.084795 0.243590
vt 0.164191 0.044788
vt 0.173283 0.046899
vt 0.170039 0.059270
vt 0.162622 0.057745
vt 0.123492 0.243656
vt 0.131298 0.245311
vt 0.128492 0.258053
vt 0.119481 0.256142
vt 0.126451 0.267678
vt 0.117440 0.265767
vt 0.183132 0.048782
vt 0.181793 0.062147
vt 0.154569 0.042813
vt 0.150544 0.055401
vt 0.160068 0.068748
vt 0.150336 0.066864
vt 0.125437 0.232501
vt 0.132642 0.234029
vt 0.177028 0.072508
vt 0.167383 0.070263
vt 0.157987 0.078082
vt 0.148274 0.076168
vt 0.165505 0.079644
vt 0.175150 0.081852
vt 0.127309 0.223133
vt 0.134733 0.224707
vt 0.155359 0.089869
vt 0.145669 0.087917
vt 0.163133 0.091491
vt 0.172778 0.093653
vt 0.129673 0.211303
vt 0.137373 0.212935
vt 0.152456 0.102887
vt 0.142793 0.100893
vt 0.160513 0.104575
vt 0.170158 0.106685
vt 0.132283 0.198238
vt 0.140289 0.199935
vt 0.086016 0.133540
vt 0.065682 0.129029
vt 0.065682 0.234640
vt 0.086016 0.230129
vt 0.080048 0.120937
vt 0.086472 0.145944
vt 0.223999 0.145944
vt 0.230422 0.120937
vt 0.086016 0.145944
vt 0.079760 0.120937
vt 0.230710 0.120937
vt 0.224454 0.145944
vt 0.230710 0.120175
vt 0.079760 0.120175
vt 0.224454 0.133540
vt 0.065735 0.145297
vt 0.065735 0.219296
vt 0.086472 0.218648
vt 0.065628 0.145297
vt 0.086016 0.218648
vt 0.065628 0.219296
vt 0.223999 0.145944
vt 0.230422 0.120937
vt 0.080048 0.120937
vt 0.086472 0.145944
vt 0.244789 0.129029
vt 0.224454 0.230129
vt 0.244789 0.234640
vt 0.244842 0.145297
vt 0.244842 0.219296
vt 0.224454 0.218648
vt 0.244735 0.145297
vt 0.223999 0.218648
vt 0.244735 0.219296
vt 0.080048 0.243750
vt 0.230422 0.243750
vt 0.223999 0.218648
vt 0.065807 0.129311
vt 0.086142 0.133656
vt 0.086142 0.226693
vt 0.065807 0.231039
vt 0.084921 0.120109
vt 0.225801 0.120109
vt 0.224580 0.133656
vt 0.084795 0.243590
vt 0.225675 0.243590
vt 0.244914 0.129311
vt 0.244914 0.231039
vt 0.224580 0.226693
vt 0.230422 0.243750
vt 0.086472 0.218648
vt 0.080048 0.243750
vt 0.244789 0.225847
vt 0.244789 0.138745
vt 0.244663 0.229768
vt 0.224329 0.222294
vt 0.224329 0.146815
vt 0.244663 0.139341
vt 0.225458 0.243624
vt 0.085641 0.243614
vt 0.085890 0.222294
vt 0.085012 0.244280
vt 0.224830 0.244290
vt 0.065556 0.229768
vt 0.065556 0.139341
vt 0.085890 0.146815
vt 0.065682 0.225847
vt 0.065682 0.138745
vt 0.084795 0.244247
vt 0.225675 0.244247
vt 0.225549 0.121176
vt 0.084669 0.121176
vt 0.065682 0.120937
vt 0.065682 0.120175
vt 0.065682 0.120937
vt 0.244789 0.120175
vt 0.244789 0.120937
vt 0.244789 0.120937
vt 0.065807 0.120354
vt 0.065682 0.243750
vt 0.065682 0.243750
vt 0.244789 0.243750
vt 0.244914 0.120354
vt 0.244789 0.243750
vt 0.244914 0.243760
vt 0.244789 0.243750
vt 0.065556 0.244149
vt 0.065682 0.243750
vt 0.065807 0.243757
vt 0.244663 0.244152
vt 0.065682 0.244082
vt 0.244789 0.120937
vt 0.244663 0.120922
vt 0.065682 0.120937
vt 0.244789 0.244082
vt 0.065556 0.120922
vt 0.086016 0.133540
vt 0.065682 0.129029
vt 0.065682 0.234640
vt 0.086016 0.230129
vt 0.080048 0.120937
vt 0.086472 0.145944
vt 0.223999 0.145944
vt 0.230422 0.120937
vt 0.086016 0.145944
vt 0.079760 0.120937
vt 0.230710 0.120937
vt 0.224454 0.145944
vt 0.230710 0.120175
vt 0.079760 0.120175
vt 0.224454 0.133540
vt 0.065735 0.145297
vt 0.065735 0.219296
vt 0.086472 0.218648
vt 0.065628 0.145297
vt 0.086016 0.218648
vt 0.065628 0.219296
vt 0.223999 0.145944
vt 0.230422 0.120937
vt 0.080048 0.120937
vt 0.086472 0.145944
vt 0.244789 0.129029
vt 0.224454 0.230129
vt 0.244789 0.234640
vt 0.244842 0.145297
vt 0.244842 0.219296
vt 0.224454 0.218648
vt 0.244735 0.145297
vt 0.223999 0.218648
vt 0.244735 0.219296
vt 0.080048 0.243750
vt 0.230422 0.243750
vt 0.223999 0.218648
vt 0.065807 0.129311
vt 0.086142 0.133656
vt 0.086142 0.226693
vt 0.065807 0.231039
vt 0.084921 0.120109
vt 0.225801 0.120109
vt 0.224580 0.133656
vt 0.084795 0.243590
vt 0.225675 0.243590
vt 0.244914 0.129311
vt 0.244914 0.231039
vt 0.224580 0.226693
vt 0.230422 0.243750
vt 0.086472 0.218648
vt 0.080048 0.243750
vt 0.244789 0.225847
vt 0.244789 0.138745
vt 0.244663 0.229768
vt 0.224329 0.222294
vt 0.224329 0.146815
vt 0.244663 0.139341
vt 0.225458 0.243624
vt 0.085641 0.243614
vt 0.085890 0.222294
vt 0.085012 0.244280
vt 0.224830 0.244290
vt 0.065556 0.229768
vt 0.065556 0.139341
vt 0.085890 0.146815
vt 0.065682 0.225847
vt 0.065682 0.138745
vt 0.084795 0.244247
vt 0.225675 0.244247
vt 0.225549 0.121176
vt 0.084669 0.121176
vt 0.065682 0.120937
vt 0.065682 0.120175
vt 0.065682 0.120937
vt 0.244789 0.120175
vt 0.244789 0.120937
vt 0.244789 0.120937
vt 0.065807 0.120354
vt 0.065682 0.243750
vt 0.065682 0.243750
vt 0.244789 0.243750
vt 0.244914 0.120354
vt 0.244789 0.243750
vt 0.244914 0.243760
vt 0.244789 0.243750
vt 0.065556 0.244149
vt 0.065682 0.243750
vt 0.065807 0.243757
vt 0.244663 0.244152
vt 0.065682 0.244082
vt 0.244789 0.120937
vt 0.244663 0.120922
vt 0.065682 0.120937
vt 0.244789 0.244082
vt 0.065556 0.120922
vt 0.086016 0.133540
vt 0.065682 0.129029
vt 0.065682 0.234640
vt 0.086016 0.230129
vt 0.080048 0.120937
vt 0.086472 0.145944
vt 0.223999 0.145944
vt 0.230422 0.120937
vt 0.086016 0.145944
vt 0.079760 0.120937
vt 0.230710 0.120937
vt 0.224454 0.145944
vt 0.230710 0.120175
vt 0.079760 0.120175
vt 0.224454 0.133540
vt 0.065735 0.145297
vt 0.065735 0.219296
vt 0.086472 0.218648
vt 0.065628 0.145297
vt 0.086016 0.218648
vt 0.065628 0.219296
vt 0.223999 0.145944
vt 0.230422 0.120937
vt 0.080048 0.120937
vt 0.086472 0.145944
vt 0.244789 0.129029
vt 0.224454 0.230129
vt 0.244789 0.234640
vt 0.244842 0.145297
vt 0.244842 0.219296
vt 0.224454 0.218648
vt 0.244735 0.145297
vt 0.223999 0.218648
vt 0.244735 0.219296
vt 0.080048 0.243750
vt 0.230422 0.243750
vt 0.223999 0.218648
vt 0.065807 0.129311
vt 0.086142 0.133656
vt 0.086142 0.226693
vt 0.065807 0.231039
vt 0.084921 0.120109
vt 0.225801 0.120109
vt 0.224580 0.133656
vt 0.084795 0.243590
vt 0.225675 0.243590
vt 0.244914 0.129311
vt 0.244914 0.231039
vt 0.224580 0.226693
vt 0.230422 0.243750
vt 0.086472 0.218648
vt 0.080048 0.243750
vt 0.244789 0.225847
vt 0.244789 0.138745
vt 0.244663 0.229768
vt 0.224329 0.222294
vt 0.224329 0.146815
vt 0.244663 0.139341
vt 0.225458 0.243624
vt 0.085641 0.243614
vt 0.085890 0.222294
vt 0.085012 0.244280
vt 0.224830 0.244290
vt 0.065556 0.229768
vt 0.065556 0.139341
vt 0.085890 0.146815
vt 0.065682 0.225847
vt 0.065682 0.138745
vt 0.084795 0.244247
vt 0.225675 0.244247
vt 0.225549 0.121176
vt 0.084669 0.121176
vt 0.065682 0.120937
vt 0.065682 0.120175
vt 0.065682 0.120937
vt 0.244789 0.120175
vt 0.244789 0.120937
vt 0.244789 0.120937
vt 0.065807 0.120354
vt 0.065682 0.243750
vt 0.065682 0.243750
vt 0.244789 0.243750
vt 0.244914 0.120354
vt 0.244789 0.243750
vt 0.244914 0.243760
vt 0.244789 0.243750
vt 0.065556 0.244149
vt 0.065682 0.243750
vt 0.065807 0.243757
vt 0.244663 0.244152
vt 0.065682 0.244082
vt 0.244789 0.120937
vt 0.244663 0.120922
vt 0.065682 0.120937
vt 0.244789 0.244082
vt 0.065556 0.120922
vt 0.086016 0.133540
vt 0.065682 0.129029
vt 0.065682 0.234640
vt 0.086016 0.230129
vt 0.080048 0.120937
vt 0.086472 0.145944
vt 0.223999 0.145944
vt 0.230422 0.120937
vt 0.086016 0.145944
vt 0.079760 0.120937
vt 0.230710 0.120937
vt 0.224454 0.145944
vt 0.230710 0.120175
vt 0.079760 0.120175
vt 0.224454 0.133540
vt 0.065735 0.145297
vt 0.065735 0.219296
vt 0.086472 0.218648
vt 0.065628 0.145297
vt 0.086016 0.218648
vt 0.065628 0.219296
vt 0.223999 0.145944
vt 0.230422 0.120937
vt 0.080048 0.120937
vt 0.086472 0.145944
vt 0.244789 0.129029
vt 0.224454 0.230129
vt 0.244789 0.234640
vt 0.244842 0.145297
vt 0.244842 0.219296
vt 0.224454 0.218648
vt 0.244735 0.145297
vt 0.223999 0.218648
vt 0.244735 0.219296
vt 0.080048 0.243750
vt 0.230422 0.243750
vt 0.223999 0.218648
vt 0.065807 0.129311
vt 0.086142 0.133656
vt 0.086142 0.226693
vt 0.065807 0.231039
vt 0.084921 0.120109
vt 0.225801 0.120109
vt 0.224580 0.133656
vt 0.084795 0.243590
vt 0.225675 0.243590
vt 0.244914 0.129311
vt 0.244914 0.231039
vt 0.224580 0.226693
vt 0.230422 0.243750
vt 0.086472 0.218648
vt 0.080048 0.243750
vt 0.244789 0.225847
vt 0.244789 0.138745
vt 0.244663 0.229768
vt 0.224329 0.222294
vt 0.224329 0.146815
vt 0.244663 0.139341
vt 0.225458 0.243624
vt 0.085641 0.243614
vt 0.085890 0.222294
vt 0.085012 0.244280
vt 0.224830 0.244290
vt 0.065556 0.229768
vt 0.065556 0.139341
vt 0.085890 0.146815
vt 0.065682 0.225847
vt 0.065682 0.138745
vt 0.084795 0.244247
vt 0.225675 0.244247
vt 0.225549 0.121176
vt 0.084669 0.121176
vt 0.065682 0.120937
vt 0.065682 0.120175
vt 0.065682 0.120937
vt 0.244789 0.120175
vt 0.244789 0.120937
vt 0.244789 0.120937
vt 0.065807 0.120354
vt 0.065682 0.243750
vt 0.065682 0.243750
vt 0.244789 0.243750
vt 0.244914 0.120354
vt 0.244789 0.243750
vt 0.244914 0.243760
vt 0.244789 0.243750
vt 0.065556 0.244149
vt 0.065682 0.243750
vt 0.065807 0.243757
vt 0.244663 0.244152
vt 0.065682 0.244082
vt 0.244789 0.120937
vt 0.244663 0.120922
vt 0.065682 0.120937
vt 0.244789 0.244082
vt 0.065556 0.120922
vt 0.086016 0.133540
vt 0.065682 0.129029
vt 0.065682 0.234640
vt 0.086016 0.230129
vt 0.080048 0.120937
vt 0.086472 0.145944
vt 0.223999 0.145944
vt 0.230422 0.120937
vt 0.086016 0.145944
vt 0.079760 0.120937
vt 0.230710 0.120937
vt 0.224454 0.145944
vt 0.230710 0.120175
vt 0.079760 0.120175
vt 0.224454 0.133540
vt 0.065735 0.145297
vt 0.065735 0.219296
vt 0.086472 0.218648
vt 0.065628 0.145297
vt 0.086016 0.218648
vt 0.065628 0.219296
vt 0.223999 0.145944
vt 0.230422 0.120937
vt 0.080048 0.120937
vt 0.086472 0.145944
vt 0.244789 0.129029
vt 0.224454 0.230129
vt 0.244789 0.234640
vt 0.244842 0.145297
vt 0.244842 0.219296
vt 0.224454 0.218648
vt 0.244735 0.145297
vt 0.223999 0.218648
vt 0.244735 0.219296
vt 0.080048 0.243750
vt 0.230422 0.243750
vt 0.223999 0.218648
vt 0.065807 0.129311
vt 0.086142 0.133656
vt 0.086142 0.226693
vt 0.065807 0.231039
vt 0.084921 0.120109
vt 0.225801 0.120109
vt 0.224580 0.133656
vt 0.084795 0.243590
vt 0.225675 0.243590
vt 0.244914 0.129311
vt 0.244914 0.231039
vt 0.224580 0.226693
vt 0.230422 0.243750
vt 0.086472 0.218648
vt 0.080048 0.243750
vt 0.244789 0.225847
vt 0.244789 0.138745
vt 0.244663 0.229768
vt 0.224329 0.222294
vt 0.224329 0.146815
vt 0.244663 0.139341
vt 0.225458 0.243624
vt 0.085641 0.243614
vt 0.085890 0.222294
vt 0.085012 0.244280
vt 0.224830 0.244290
vt 0.065556 0.229768
vt 0.065556 0.139341
vt 0.085890 0.146815
vt 0.065682 0.225847
vt 0.065682 0.138745
vt 0.084795 0.244247
vt 0.225675 0.244247
vt 0.225549 0.121176
vt 0.084669 0.121176
vt 0.065682 0.120937
vt 0.065682 0.120175
vt 0.065682 0.120937
vt 0.244789 0.120175
vt 0.244789 0.120937
vt 0.244789 0.120937
vt 0.065807 0.120354
vt 0.065682 0.243750
vt 0.065682 0.243750
vt 0.244789 0.243750
vt 0.244914 0.120354
vt 0.244789 0.243750
vt 0.244914 0.243760
vt 0.244789 0.243750
vt 0.065556 0.244149
vt 0.065682 0.243750
vt 0.065807 0.243757
vt 0.244663 0.244152
vt 0.065682 0.244082
vt 0.244789 0.120937
vt 0.244663 0.120922
vt 0.065682 0.120937
vt 0.244789 0.244082
vt 0.065556 0.120922
vn -0.110548 -0.992058 0.060006
vn -0.379690 -0.924383 0.036752
vn -0.379690 -0.924383 -0.036752
vn -0.110548 -0.992058 -0.060006
vn -0.924383 -0.379692 0.036752
vn -0.995530 -0.076230 0.055765
vn -0.995530 -0.076230 -0.055765
vn -0.924383 -0.379692 -0.036752
vn -0.019713 -0.064824 0.997702
vn 0.010690 -0.254947 0.966896
vn -0.000242 -0.258143 0.966107
vn -0.000050 -0.074719 0.997205
vn -0.055792 -0.846735 0.529081
vn -0.000141 -0.998280 0.058631
vn 0.000013 -0.841461 0.540317
vn -0.852845 -0.050171 0.519749
vn -0.852845 0.050171 0.519749
vn -0.995530 0.076230 0.055765
vn -0.261984 -0.034472 0.964456
vn -0.029862 0.024409 0.999256
vn -0.261984 0.034472 0.964457
vn 0.995530 -0.076229 0.055764
vn 0.924384 -0.379688 0.036752
vn 0.924384 -0.379688 -0.036752
vn 0.995530 -0.076229 -0.055764
vn 0.379689 -0.924384 0.036752
vn 0.079351 -0.995002 0.060619
vn 0.079351 -0.995002 -0.060619
vn 0.379689 -0.924384 -0.036752
vn 0.014178 -0.067167 0.997641
vn 0.261982 -0.034472 0.964457
vn 0.261982 0.034471 0.964457
vn 0.021837 0.024850 0.999453
vn 0.852849 -0.050170 0.519742
vn 0.995530 0.076229 0.055764
vn 0.852849 0.050170 0.519742
vn -0.924383 0.379692 0.036752
vn -0.924383 0.379692 -0.036752
vn -0.995530 0.076230 -0.055765
vn -0.379690 0.924383 0.036752
vn -0.148297 0.987344 0.056214
vn -0.148297 0.987344 -0.056214
vn -0.379690 0.924383 -0.036752
vn -0.114453 0.848782 0.516206
vn -0.000264 0.849542 0.527521
vn 0.000031 0.998280 0.058629
vn -0.054898 0.261581 0.963619
vn -0.000242 0.029968 0.999551
vn 0.000162 0.266329 0.963882
vn 0.106883 0.992615 0.057367
vn 0.379689 0.924384 0.036752
vn 0.379689 0.924384 -0.036752
vn 0.106883 0.992615 -0.057367
vn 0.924384 0.379688 0.036752
vn 0.995530 0.076229 -0.055764
vn 0.924384 0.379688 -0.036752
vn -0.852845 0.050171 -0.519749
vn -0.852845 -0.050171 -0.519749
vn -0.261984 0.034472 -0.964457
vn -0.029862 0.024409 -0.999256
vn -0.019713 -0.064824 -0.997702
vn -0.261984 -0.034472 -0.964456
vn -0.054898 0.261581 -0.963619
vn 0.000162 0.266329 -0.963882
vn -0.000242 0.029968 -0.999551
vn -0.114453 0.848783 -0.516206
vn 0.000031 0.998280 -0.058629
vn -0.000264 0.849542 -0.527521
vn 0.021837 0.024850 -0.999453
vn 0.261982 0.034471 -0.964457
vn 0.261982 -0.034471 -0.964457
vn 0.014178 -0.067167 -0.997641
vn 0.852849 0.050170 -0.519742
vn 0.852849 -0.050170 -0.519742
vn -0.055792 -0.846735 -0.529081
vn 0.000013 -0.841461 -0.540317
vn -0.000141 -0.998280 -0.058631
vn 0.010690 -0.254947 -0.966896
vn -0.000050 -0.074719 -0.997205
vn -0.000242 -0.258143 -0.966107
vn -0.834558 -0.305723 0.458308
vn -0.305724 -0.834559 0.458306
vn -0.230963 -0.230962 0.945152
vn 0.039141 -0.845452 0.532615
vn 0.305722 -0.834559 0.458307
vn 0.834560 -0.305719 0.458307
vn -0.007257 -0.255873 0.966683
vn 0.230962 -0.230963 0.945152
vn -0.305724 0.834559 0.458306
vn -0.834558 0.305723 0.458308
vn -0.230963 0.230962 0.945152
vn 0.834560 0.305720 0.458306
vn 0.081218 0.850149 0.520241
vn 0.305722 0.834559 0.458307
vn 0.039035 0.263018 0.964001
vn 0.230962 0.230962 0.945152
vn -0.230963 0.230962 -0.945152
vn -0.834558 0.305723 -0.458308
vn -0.305723 0.834559 -0.458306
vn 0.834560 0.305719 -0.458306
vn 0.039035 0.263019 -0.964001
vn 0.230962 0.230963 -0.945152
vn 0.081218 0.850149 -0.520241
vn 0.305722 0.834559 -0.458307
vn -0.305724 -0.834559 -0.458307
vn -0.834558 -0.305723 -0.458308
vn -0.230963 -0.230962 -0.945152
vn 0.834560 -0.305720 -0.458306
vn 0.039141 -0.845452 -0.532615
vn 0.305722 -0.834559 -0.458307
vn -0.007257 -0.255873 -0.966683
vn 0.230962 -0.230962 -0.945152
vn 0.000000 0.080743 0.996735
vn 0.000000 0.080743 0.996735
vn 0.000000 0.031634 0.999500
vn 0.000000 0.033737 0.999431
vn 0.000000 0.033737 -0.999431
vn 0.000000 0.031634 -0.999500
vn 0.000000 0.080743 -0.996735
vn 0.000000 0.080743 -0.996735
vn 0.000000 -1.000000 0.000000
vn 0.000000 -1.000000 0.000000
vn 0.000000 -1.000000 0.000000
vn 0.000000 -1.000000 0.000000
vn 0.997773 0.066709 0.000000
vn 0.997773 0.066709 0.000000
vn 0.998546 0.053901 0.000000
vn 0.998546 0.053901 0.000000
vn -0.991681 0.128723 0.000000
vn -0.991681 0.128723 0.000000
vn -0.994016 0.109232 0.000000
vn -0.994016 0.109232 0.000000
vn -0.997703 -0.067741 -0.000000
vn -0.997703 -0.067741 -0.000000
vn 0.000000 -0.103549 -0.994624
vn 0.000000 -0.103252 -0.994655
vn 0.998880 -0.047318 -0.000000
vn 0.998880 -0.047318 -0.000000
vn 0.000000 -0.103252 0.994655
vn 0.000000 -0.103549 0.994624
vn -0.998807 0.048833 0.000000
vn -0.998807 0.048833 0.000000
vn 0.000000 -0.018186 0.999835
vn 0.000000 -0.025839 0.999666
vn 0.998712 -0.050730 -0.000000
vn 0.998712 -0.050730 -0.000000
vn 0.000000 -0.025839 -0.999666
vn 0.000000 -0.018186 -0.999835
vn -0.996215 0.086924 0.000000
vn -0.996215 0.086923 0.000000
vn 0.000000 0.060638 0.998160
vn 0.000000 0.059585 0.998223
vn 0.997134 0.075655 0.000000
vn 0.997134 0.075654 0.000000
vn 0.000000 0.059585 -0.998223
vn 0.000000 0.060638 -0.998160
vn -0.991435 -0.130601 -0.000000
vn -0.991435 -0.130601 -0.000000
vn 0.000000 0.000000 1.000000
vn 0.000000 0.000000 1.000000
vn 0.986515 0.163673 0.000000
vn 0.986515 0.163673 0.000000
vn 0.000000 0.000000 -1.000000
vn 0.000000 0.000000 -1.000000
vn -0.086490 -0.994652 0.056445
vn -0.437003 -0.898715 0.036586
vn -0.436948 -0.898741 -0.036627
vn -0.086489 -0.994653 -0.056444
vn -0.977632 -0.206702 0.038854
vn -0.998327 -0.026660 0.051313
vn -0.998341 -0.026657 -0.051031
vn -0.977646 -0.206685 -0.038601
vn -0.072503 -0.074054 0.994615
vn -0.053818 -0.376417 0.924886
vn 0.042082 -0.377909 0.924886
vn 0.070164 -0.076274 0.994615
vn 0.033042 -0.924475 0.379809
vn -0.061786 -0.922999 0.379809
vn 0.055505 -0.996862 0.056445
vn -0.937471 -0.015161 0.347733
vn -0.936545 0.044319 0.347733
vn -0.997014 0.057704 0.051313
vn -0.481166 -0.044169 0.875516
vn -0.070164 0.076274 0.994615
vn -0.479559 0.059117 0.875516
vn 0.997014 -0.057704 0.051313
vn 0.970729 -0.237014 0.038854
vn 0.970743 -0.236997 -0.038601
vn 0.997029 -0.057702 -0.051031
vn 0.408832 -0.911876 0.036586
vn 0.055504 -0.996862 -0.056444
vn 0.408776 -0.911900 -0.036627
vn 0.479558 -0.059117 0.875517
vn 0.481165 0.044169 0.875517
vn 0.072503 0.074054 0.994615
vn 0.936546 -0.044318 0.347732
vn 0.998327 0.026659 0.051313
vn 0.937472 0.015161 0.347732
vn -0.970729 0.237016 0.038854
vn -0.970743 0.236999 -0.038601
vn -0.997029 0.057702 -0.051031
vn -0.408833 0.911876 0.036586
vn -0.055505 0.996862 0.056445
vn -0.055504 0.996862 -0.056444
vn -0.408777 0.911899 -0.036627
vn -0.033042 0.924475 0.379809
vn 0.061786 0.922999 0.379809
vn 0.086490 0.994652 0.056445
vn -0.042082 0.377908 0.924886
vn 0.053818 0.376416 0.924886
vn 0.437002 0.898716 0.036586
vn 0.436947 0.898741 -0.036627
vn 0.086489 0.994653 -0.056444
vn 0.977633 0.206700 0.038854
vn 0.998341 0.026656 -0.051031
vn 0.977646 0.206683 -0.038601
vn -0.937171 0.044316 -0.346044
vn -0.938096 -0.015140 -0.346044
vn -0.478539 0.059123 -0.876074
vn -0.070141 0.076267 -0.994617
vn -0.072479 -0.074048 -0.994617
vn -0.480147 -0.044207 -0.876074
vn -0.042079 0.377890 -0.924894
vn 0.053815 0.376398 -0.924894
vn 0.072479 0.074048 -0.994617
vn -0.033046 0.924497 -0.379754
vn 0.061791 0.923022 -0.379754
vn 0.480145 0.044207 -0.876075
vn 0.478537 -0.059123 -0.876075
vn 0.070140 -0.076267 -0.994617
vn 0.938097 0.015139 -0.346042
vn 0.937172 -0.044317 -0.346042
vn -0.061791 -0.923022 -0.379754
vn 0.033046 -0.924497 -0.379754
vn -0.053815 -0.376398 -0.924894
vn 0.042079 -0.377890 -0.924894
vn -0.925039 -0.184885 0.331844
vn -0.393031 -0.856573 0.334379
vn -0.418077 -0.298173 0.858082
vn 0.366193 -0.868385 0.334379
vn 0.918841 -0.213572 0.331842
vn 0.408598 -0.311034 0.858083
vn -0.366194 0.868385 0.334380
vn -0.918840 0.213574 0.331843
vn -0.408599 0.311035 0.858082
vn 0.925040 0.184885 0.331842
vn 0.393030 0.856574 0.334378
vn 0.418076 0.298173 0.858083
vn -0.407609 0.311125 -0.858520
vn -0.919495 0.213549 -0.330038
vn -0.365781 0.868697 -0.334021
vn 0.925694 0.184840 -0.330038
vn 0.417089 0.298295 -0.858520
vn 0.392628 0.856898 -0.334020
vn -0.392629 -0.856897 -0.334021
vn -0.925693 -0.184842 -0.330039
vn -0.417090 -0.298294 -0.858520
vn 0.919496 -0.213551 -0.330036
vn 0.365782 -0.868697 -0.334021
vn 0.407607 -0.311126 -0.858520
vn 0.000483 -0.997860 0.065379
vn -0.509371 -0.859556 0.041289
vn -0.509300 -0.859597 -0.041315
vn 0.000485 -0.997861 -0.065378
vn -0.967476 -0.251517 0.027018
vn -0.989330 -0.140895 0.037071
vn -0.989338 -0.140894 -0.036867
vn -0.967483 -0.251506 -0.026847
vn -0.090892 -0.074960 0.993035
vn -0.024515 -0.333455 0.942447
vn 0.100185 -0.318992 0.942447
vn 0.105636 -0.052167 0.993035
vn 0.178703 -0.883628 0.432744
vn 0.028284 -0.901073 0.432745
vn 0.227918 -0.971483 0.065379
vn -0.957432 -0.129991 0.257732
vn -0.961770 -0.092595 0.257732
vn -0.995317 -0.089280 0.037071
vn -0.597144 -0.110648 0.794466
vn -0.105637 0.052167 0.993035
vn -0.606618 -0.028963 0.794466
vn 0.995316 0.089281 0.037071
vn 0.999361 -0.023407 0.027018
vn 0.999366 -0.023395 -0.026847
vn 0.995324 0.089284 -0.036867
vn 0.692583 -0.720156 0.041288
vn 0.227915 -0.971484 -0.065378
vn 0.692523 -0.720212 -0.041314
vn 0.606617 0.028963 0.794467
vn 0.597143 0.110647 0.794467
vn 0.090892 0.074960 0.993035
vn 0.961770 0.092595 0.257731
vn 0.989330 0.140895 0.037071
vn 0.957433 0.129991 0.257731
vn -0.999361 0.023409 0.027018
vn -0.999366 0.023397 -0.026847
vn -0.995324 -0.089283 -0.036867
vn -0.692585 0.720154 0.041288
vn -0.227918 0.971483 0.065379
vn -0.227916 0.971484 -0.065377
vn -0.692525 0.720210 -0.041314
vn -0.178703 0.883628 0.432742
vn -0.028284 0.901074 0.432742
vn -0.000483 0.997860 0.065379
vn -0.100185 0.318992 0.942447
vn 0.024515 0.333454 0.942447
vn 0.509368 0.859558 0.041289
vn 0.509297 0.859599 -0.041314
vn -0.000485 0.997860 -0.065377
vn 0.967476 0.251515 0.027018
vn 0.989338 0.140894 -0.036867
vn 0.967484 0.251504 -0.026847
vn -0.962120 -0.092647 -0.256402
vn -0.957785 -0.130020 -0.256402
vn -0.605568 -0.028806 -0.795272
vn -0.105604 0.052165 -0.993039
vn -0.090861 -0.074951 -0.993039
vn -0.596088 -0.110559 -0.795271
vn -0.100192 0.318974 -0.942453
vn 0.024526 0.333438 -0.942453
vn 0.090861 0.074951 -0.993039
vn -0.178710 0.883657 -0.432682
vn -0.028284 0.901103 -0.432682
vn 0.596086 0.110559 -0.795272
vn 0.605567 0.028806 -0.795273
vn 0.105604 -0.052165 -0.993039
vn 0.957786 0.130020 -0.256400
vn 0.962120 0.092647 -0.256400
vn 0.028284 -0.901102 -0.432684
vn 0.178710 -0.883656 -0.432684
vn -0.024526 -0.333439 -0.942453
vn 0.100192 -0.318974 -0.942453
vn -0.939173 -0.237098 0.248473
vn -0.455356 -0.820213 0.346268
vn -0.508091 -0.304650 0.805626
vn 0.630995 -0.694223 0.346264
vn 0.968509 -0.015849 0.248473
vn 0.564331 -0.180271 0.805626
vn -0.630998 0.694220 0.346266
vn -0.968509 0.015851 0.248473
vn -0.564331 0.180271 0.805626
vn 0.939173 0.237097 0.248474
vn 0.455353 0.820214 0.346269
vn 0.508091 0.304649 0.805625
vn -0.563252 0.180565 -0.806315
vn -0.968877 0.015745 -0.247043
vn -0.630596 0.694730 -0.345976
vn 0.939555 0.237078 -0.247044
vn 0.506973 0.304690 -0.806314
vn 0.454845 0.820619 -0.345977
vn -0.454847 -0.820618 -0.345977
vn -0.939555 -0.237078 -0.247043
vn -0.506975 -0.304689 -0.806313
vn 0.968877 -0.015742 -0.247043
vn 0.630593 -0.694733 -0.345975
vn 0.563251 -0.180567 -0.806315
vn -0.097051 -0.992973 0.067715
vn -0.540462 -0.840240 0.043568
vn -0.540397 -0.840279 -0.043605
vn -0.097049 -0.992974 -0.067713
vn -0.986060 -0.163077 0.033045
vn -0.998506 -0.030698 0.045204
vn -0.998517 -0.030696 -0.044955
vn -0.986069 -0.163065 -0.032833
vn -0.081327 -0.062190 0.994745
vn -0.052462 -0.319296 0.946202
vn 0.052462 -0.319296 0.946202
vn 0.081327 -0.062190 0.994745
vn 0.064808 -0.893527 0.444308
vn -0.064808 -0.893527 0.444308
vn 0.097051 -0.992973 0.067715
vn -0.950556 -0.022134 0.309764
vn -0.950556 0.022134 0.309764
vn -0.998506 0.030698 0.045204
vn -0.529307 -0.041773 0.847401
vn -0.081327 0.062190 0.994745
vn -0.529307 0.041773 0.847401
vn 0.998506 -0.030698 0.045203
vn 0.986060 -0.163074 0.033045
vn 0.986069 -0.163062 -0.032833
vn 0.998517 -0.030696 -0.044955
vn 0.540458 -0.840242 0.043568
vn 0.097049 -0.992974 -0.067713
vn 0.540394 -0.840282 -0.043605
vn 0.529305 -0.041773 0.847403
vn 0.529305 0.041773 0.847403
vn 0.081327 0.062190 0.994745
vn 0.950556 -0.022134 0.309762
vn 0.998506 0.030698 0.045203
vn 0.950556 0.022134 0.309762
vn -0.986060 0.163077 0.033045
vn -0.986069 0.163065 -0.032833
vn -0.998517 0.030696 -0.044955
vn -0.540462 0.840240 0.043568
vn -0.097051 0.992973 0.067715
vn -0.097049 0.992974 -0.067714
vn -0.540397 0.840279 -0.043605
vn -0.064808 0.893527 0.444309
vn 0.064808 0.893526 0.444309
vn 0.097051 0.992973 0.067715
vn -0.052462 0.319296 0.946202
vn 0.052462 0.319296 0.946202
vn 0.540458 0.840242 0.043568
vn 0.540394 0.840282 -0.043605
vn 0.097049 0.992974 -0.067714
vn 0.986060 0.163074 0.033045
vn 0.998517 0.030696 -0.044955
vn 0.986069 0.163062 -0.032833
vn -0.951059 0.022124 -0.308215
vn -0.951059 -0.022124 -0.308216
vn -0.528254 0.041798 -0.848057
vn -0.081300 0.062184 -0.994748
vn -0.081300 -0.062184 -0.994748
vn -0.528254 -0.041798 -0.848057
vn -0.052468 0.319279 -0.946207
vn 0.052468 0.319279 -0.946207
vn 0.081300 0.062184 -0.994748
vn -0.064809 0.893557 -0.444247
vn 0.064809 0.893557 -0.444247
vn 0.528252 0.041797 -0.848058
vn 0.528252 -0.041797 -0.848058
vn 0.081300 -0.062184 -0.994748
vn 0.951060 0.022124 -0.308214
vn 0.951060 -0.022124 -0.308214
vn -0.064809 -0.893558 -0.444246
vn 0.064809 -0.893558 -0.444246
vn -0.052468 -0.319279 -0.946207
vn 0.052468 -0.319278 -0.946207
vn -0.943010 -0.147942 0.298070
vn -0.481182 -0.793681 0.372202
vn -0.465763 -0.249185 0.849101
vn 0.481181 -0.793681 0.372203
vn 0.943010 -0.147941 0.298070
vn 0.465760 -0.249187 0.849102
vn -0.481182 0.793681 0.372203
vn -0.943010 0.147943 0.298069
vn -0.465762 0.249185 0.849101
vn 0.943010 0.147940 0.298070
vn 0.481181 0.793679 0.372207
vn 0.465760 0.249187 0.849101
vn -0.464709 0.249304 -0.849643
vn -0.943541 0.147897 -0.296405
vn -0.480745 0.794104 -0.371865
vn 0.943541 0.147896 -0.296406
vn 0.464707 0.249303 -0.849644
vn 0.480743 0.794103 -0.371869
vn -0.480745 -0.794103 -0.371865
vn -0.943541 -0.147896 -0.296406
vn -0.464709 -0.249304 -0.849643
vn 0.943541 -0.147896 -0.296406
vn 0.480743 -0.794105 -0.371864
vn 0.464707 -0.249303 -0.849645
vn -0.048490 -0.997720 0.046933
vn -0.302377 -0.952727 0.029642
vn -0.302335 -0.952739 -0.029688
vn -0.048489 -0.997720 -0.046932
vn -0.947024 -0.317489 0.048450
vn -0.996156 -0.061823 0.062053
vn -0.996177 -0.061821 -0.061714
vn -0.947047 -0.317468 -0.048128
vn -0.058591 -0.090916 0.994134
vn -0.040054 -0.441919 0.896160
vn 0.040054 -0.441919 0.896161
vn 0.058591 -0.090916 0.994134
vn 0.032797 -0.946330 0.321534
vn -0.032797 -0.946330 0.321534
vn 0.048490 -0.997720 0.046933
vn -0.910556 -0.042480 0.411197
vn -0.910556 0.042480 0.411197
vn -0.996156 0.061823 0.062053
vn -0.410432 -0.063244 0.909695
vn -0.058591 0.090916 0.994134
vn -0.410432 0.063244 0.909695
vn 0.996156 -0.061823 0.062053
vn 0.947023 -0.317489 0.048450
vn 0.947047 -0.317467 -0.048128
vn 0.996177 -0.061821 -0.061714
vn 0.302376 -0.952728 0.029642
vn 0.048489 -0.997720 -0.046932
vn 0.302334 -0.952740 -0.029688
vn 0.410431 -0.063244 0.909696
vn 0.410431 0.063244 0.909696
vn 0.058591 0.090916 0.994134
vn 0.910557 -0.042481 0.411196
vn 0.996156 0.061823 0.062053
vn 0.910557 0.042480 0.411196
vn -0.947023 0.317489 0.048450
vn -0.947047 0.317468 -0.048128
vn -0.996177 0.061821 -0.061714
vn -0.302379 0.952727 0.029642
vn -0.048491 0.997720 0.046934
vn -0.048490 0.997721 -0.046933
vn -0.302337 0.952739 -0.029688
vn -0.032797 0.946329 0.321537
vn 0.032797 0.946329 0.321537
vn 0.048491 0.997720 0.046934
vn -0.040054 0.441919 0.896160
vn 0.040054 0.441919 0.896160
vn 0.302378 0.952727 0.029642
vn 0.302337 0.952739 -0.029688
vn 0.048490 0.997720 -0.046933
vn 0.947023 0.317489 0.048450
vn 0.996177 0.061821 -0.061714
vn 0.947047 0.317468 -0.048128
vn -0.911407 0.042471 -0.409308
vn -0.911407 -0.042471 -0.409308
vn -0.409491 0.063257 -0.910118
vn -0.058572 0.090908 -0.994135
vn -0.058572 -0.090908 -0.994135
vn -0.409491 -0.063257 -0.910118
vn -0.040046 0.441898 -0.896171
vn 0.040046 0.441898 -0.896171
vn 0.058572 0.090908 -0.994135
vn -0.032801 0.946345 -0.321488
vn 0.032801 0.946345 -0.321488
vn 0.409489 0.063257 -0.910119
vn 0.409489 -0.063257 -0.910119
vn 0.058572 -0.090908 -0.994135
vn 0.911408 0.042470 -0.409306
vn 0.911408 -0.042470 -0.409306
vn -0.032801 -0.946346 -0.321485
vn 0.032801 -0.946346 -0.321485
vn -0.040046 -0.441897 -0.896171
vn 0.040046 -0.441897 -0.896171
vn -0.879395 -0.279841 0.385167
vn -0.273763 -0.915943 0.293432
vn -0.341811 -0.370937 0.863464
vn 0.273763 -0.915943 0.293433
vn 0.879394 -0.279843 0.385167
vn 0.341810 -0.370937 0.863465
vn -0.273764 0.915941 0.293436
vn -0.879395 0.279842 0.385167
vn -0.341811 0.370938 0.863464
vn 0.879395 0.279844 0.385166
vn 0.273764 0.915942 0.293435
vn 0.341810 0.370937 0.863465
vn -0.340943 0.371011 -0.863776
vn -0.880253 0.279877 -0.383175
vn -0.273434 0.916153 -0.293081
vn 0.880255 0.279873 -0.383174
vn 0.340942 0.371011 -0.863777
vn 0.273433 0.916154 -0.293081
vn -0.273433 -0.916155 -0.293078
vn -0.880253 -0.279876 -0.383176
vn -0.340943 -0.371011 -0.863776
vn 0.880255 -0.279872 -0.383174
vn 0.273432 -0.916155 -0.293078
vn 0.340941 -0.371009 -0.863777
vn -0.140497 -0.989215 0.041407
vn -0.430790 -0.902043 0.027196
vn -0.430743 -0.902064 -0.027225
vn -0.140496 -0.989215 -0.041406
vn -0.981299 -0.189129 0.035820
vn -0.998456 0.031018 0.046076
vn -0.998468 0.031022 -0.045823
vn -0.981311 -0.189108 -0.035587
vn -0.086875 -0.095448 0.991636
vn -0.093720 -0.480782 0.871817
vn 0.012917 -0.489661 0.871817
vn 0.069893 -0.108501 0.991636
vn -0.041639 -0.956975 0.287168
vn -0.117200 -0.950683 0.287168
vn -0.025035 -0.998829 0.041407
vn -0.947692 0.043305 0.316236
vn -0.941804 0.114022 0.316236
vn -0.989837 0.134534 0.046076
vn -0.523681 -0.026615 0.851499
vn -0.069893 0.108501 0.991636
vn -0.512068 0.112855 0.851499
vn 0.989837 -0.134534 0.046075
vn 0.936509 -0.348809 0.035820
vn 0.936525 -0.348790 -0.035587
vn 0.989849 -0.134532 -0.045823
vn 0.275676 -0.960866 0.027195
vn -0.025037 -0.998829 -0.041406
vn 0.275626 -0.960879 -0.027225
vn 0.512065 -0.112854 0.851501
vn 0.523678 0.026615 0.851501
vn 0.086875 0.095448 0.991636
vn 0.941805 -0.114022 0.316233
vn 0.998456 -0.031019 0.046075
vn 0.947693 -0.043305 0.316233
vn -0.936507 0.348815 0.035820
vn -0.936523 0.348795 -0.035587
vn -0.989849 0.134532 -0.045823
vn -0.275677 0.960866 0.027196
vn 0.025035 0.998829 0.041407
vn 0.025036 0.998829 -0.041407
vn -0.275627 0.960879 -0.027225
vn 0.041639 0.956974 0.287170
vn 0.117200 0.950683 0.287171
vn 0.140497 0.989215 0.041408
vn -0.012917 0.489663 0.871816
vn 0.093721 0.480783 0.871816
vn 0.430790 0.902042 0.027196
vn 0.430743 0.902064 -0.027225
vn 0.140496 0.989215 -0.041407
vn 0.981299 0.189127 0.035820
vn 0.998468 -0.031023 -0.045823
vn 0.981312 0.189104 -0.035587
vn -0.942328 0.114046 -0.314662
vn -0.948213 0.043367 -0.314662
vn -0.511021 0.112801 -0.852135
vn -0.069870 0.108490 -0.991639
vn -0.086850 -0.095441 -0.991639
vn -0.522640 -0.026735 -0.852135
vn -0.012906 0.489640 -0.871829
vn 0.093705 0.480763 -0.871829
vn 0.086850 0.095441 -0.991639
vn 0.041631 0.956987 -0.287128
vn 0.117210 0.950694 -0.287128
vn 0.522638 0.026734 -0.852135
vn 0.511020 -0.112801 -0.852135
vn 0.069870 -0.108490 -0.991639
vn 0.948213 -0.043368 -0.314662
vn 0.942328 -0.114046 -0.314661
vn -0.117210 -0.950695 -0.287125
vn -0.041631 -0.956988 -0.287125
vn -0.093705 -0.480762 -0.871830
vn 0.012906 -0.489639 -0.871830
vn -0.939528 -0.168170 0.298339
vn -0.399493 -0.879875 0.257345
vn -0.465391 -0.356801 0.810003
vn 0.248477 -0.933828 0.257342
vn 0.898779 -0.321232 0.298339
vn 0.399972 -0.428854 0.810004
vn -0.248477 0.933827 0.257344
vn -0.898778 0.321234 0.298340
vn -0.399974 0.428855 0.810002
vn 0.939528 0.168170 0.298339
vn 0.399493 0.879874 0.257345
vn 0.465390 0.356803 0.810002
vn -0.398952 0.428932 -0.810465
vn -0.899334 0.321212 -0.296685
vn -0.248071 0.934019 -0.257039
vn 0.940072 0.168054 -0.296685
vn 0.464394 0.357046 -0.810467
vn 0.399125 0.880131 -0.257038
vn -0.399127 -0.880130 -0.257039
vn -0.940072 -0.168062 -0.296683
vn -0.464397 -0.357046 -0.810465
vn 0.899334 -0.321212 -0.296684
vn 0.248071 -0.934020 -0.257038
vn 0.398951 -0.428930 -0.810467
s 1
g stone7
usemtl lambert3SG
f 2/1/1 1/25/2 37/54/3 42/21/4
s 2
f 1/26/5 6/22/6 38/8/7 37/53/8
s 3
f 4/2/9 3/27/10 57/77/11 58/79/12
s 1
f 3/28/13 2/1/1 68/89/14 57/78/15
s 2
f 6/22/6 5/29/16 15/97/17 14/23/18
s 3
f 5/102/19 4/2/9 16/5/20 15/37/21
s 4
f 8/4/22 7/30/23 43/59/24 48/12/25
s 1
f 7/31/26 12/3/27 44/13/28 43/58/29
s 3
f 10/16/30 9/32/31 23/96/32 22/6/33
s 4
f 9/99/34 8/4/22 24/7/35 23/42/36
s 2
f 14/23/18 13/35/37 27/46/38 26/24/39
s 7
f 13/36/40 18/17/41 28/9/42 27/45/43
f 18/17/41 17/38/44 60/81/45 61/82/46
s 3
f 17/112/47 16/5/20 59/80/48 60/105/49
s 7
f 20/18/50 19/39/51 35/52/52 34/10/53
s 4
f 19/40/54 24/7/35 36/11/55 35/51/56
s 2
f 26/24/39 25/43/57 39/56/58 38/8/7
s 9
f 25/44/59 30/19/60 40/14/61 39/55/62
f 30/19/60 29/47/63 63/84/64 64/85/65
s 7
f 29/94/66 28/9/42 62/83/67 63/90/68
s 9
f 32/20/69 31/48/70 47/62/71 46/15/72
s 4
f 31/49/73 36/11/55 48/12/25 47/61/74
s 1
f 42/21/4 41/57/75 66/87/76 67/88/77
s 9
f 41/109/78 40/14/61 65/86/79 66/103/80
s 3
f 4/2/9 58/79/12 59/80/48 16/5/20
s 7
f 18/17/41 61/82/46 62/83/67 28/9/42
s 9
f 30/19/60 64/85/65 65/86/79 40/14/61
s 1
f 42/21/4 67/88/77 68/89/14 2/1/1
s 4
f 8/4/22 48/12/25 36/11/55 24/7/35
s 2
f 38/8/7 6/22/6 14/23/18 26/24/39
f 5/29/16 6/22/6 1/26/5 49/64/81
s 1
f 1/25/2 2/1/1 3/28/13 49/63/82
s 3
f 3/27/10 4/2/9 5/102/19 49/101/83
s 1
f 11/33/84 12/3/27 7/31/26 50/66/85
s 4
f 7/30/23 8/4/22 9/99/34 50/65/86
s 3
f 9/32/31 10/16/30 11/34/87 50/100/88
s 7
f 17/38/44 18/17/41 13/36/40 51/98/89
s 2
f 13/35/37 14/23/18 15/97/17 51/67/90
s 3
f 15/37/21 16/5/20 17/112/47 51/111/91
s 4
f 23/42/36 24/7/35 19/40/54 52/95/92
s 7
f 19/39/51 20/18/50 21/41/93 52/68/94
s 3
f 21/106/95 22/6/33 23/96/32 52/110/96
s 9
f 29/47/63 30/19/60 25/44/59 53/70/97
s 2
f 25/43/57 26/24/39 27/46/38 53/69/98
s 7
f 27/45/43 28/9/42 29/94/66 53/93/99
s 4
f 35/51/56 36/11/55 31/49/73 54/72/100
s 9
f 31/48/70 32/20/69 33/50/101 54/71/102
s 7
f 33/91/103 34/10/53 35/52/52 54/92/104
s 1
f 41/57/75 42/21/4 37/54/3 55/74/105
s 2
f 37/53/8 38/8/7 39/56/58 55/73/106
s 9
f 39/55/62 40/14/61 41/109/78 55/108/107
s 4
f 47/61/74 48/12/25 43/59/24 56/76/108
s 1
f 43/58/29 44/13/28 45/60/109 56/75/110
s 9
f 45/104/111 46/15/72 47/62/71 56/107/112
s 3
f 58/79/12 57/77/11 11/34/87 10/16/30
f 59/80/48 58/79/12 10/16/30 22/6/33
f 60/105/49 59/80/48 22/6/33 21/106/95
s 7
f 61/82/46 60/81/45 21/41/93 20/18/50
f 62/83/67 61/82/46 20/18/50 34/10/53
f 63/90/68 62/83/67 34/10/53 33/91/103
s 9
f 64/85/65 63/84/64 33/50/101 32/20/69
f 65/86/79 64/85/65 32/20/69 46/15/72
f 66/103/80 65/86/79 46/15/72 45/104/111
s 1
f 67/88/77 66/87/76 45/60/109 44/13/28
f 68/89/14 67/88/77 44/13/28 12/3/27
f 57/78/15 68/89/14 12/3/27 11/33/84
s 11
f 69/113/113 70/114/114 80/115/115 77/116/116
s 12
f 78/117/117 79/118/118 72/119/119 71/120/120
s off
f 71/120/121 72/119/122 70/121/123 69/122/124
s 13
f 70/114/125 72/123/126 79/124/127 80/115/128
s 14
f 71/125/129 69/113/130 77/116/131 78/126/132
f 78/126/132 77/116/131 73/127/133 74/128/134
s 12
f 74/129/135 75/130/136 79/118/118 78/117/117
s 13
f 80/115/128 79/124/127 75/131/137 76/132/138
s 11
f 77/116/116 80/115/115 76/132/139 73/127/140
s 14
f 74/128/134 73/127/133 82/133/141 81/134/142
s 11
f 73/127/140 76/132/139 83/135/143 82/133/144
s 13
f 76/132/138 75/131/137 84/136/145 83/135/146
s 12
f 81/137/147 84/138/148 75/130/136 74/129/135
s 14
f 81/134/142 82/133/141 86/139/149 85/140/150
s 11
f 82/133/144 83/135/143 87/141/151 86/139/152
s 13
f 83/135/146 84/136/145 88/142/153 87/141/154
s 12
f 85/143/155 88/144/156 84/138/148 81/137/147
s 14
f 85/140/150 86/139/149 90/145/157 89/146/158
s 11
f 86/139/152 87/141/151 91/147/159 90/145/160
s 13
f 87/141/154 88/142/153 92/148/161 91/147/162
s 12
f 89/149/163 92/150/164 88/144/156 85/143/155
s 15
f 94/151/165 93/152/166 129/153/167 134/154/168
s 16
f 93/155/169 98/156/170 130/157/171 129/158/172
s 17
f 96/159/173 95/160/174 103/161/175 102/162/176
s 15
f 103/163/177 95/164/178 94/151/165 104/165/179
s 16
f 98/156/170 97/166/180 107/167/181 106/168/182
s 17
f 97/169/183 96/159/173 108/170/184 107/171/185
s 18
f 100/172/186 99/173/187 135/174/188 140/175/189
s 15
f 99/176/190 104/165/179 136/177/191 135/178/192
s 17
f 102/162/176 101/179/193 115/180/194 114/181/195
s 18
f 101/182/196 100/172/186 116/183/197 115/184/198
s 16
f 106/168/182 105/185/199 119/186/200 118/187/201
s 19
f 105/188/202 110/189/203 120/190/204 119/191/205
f 110/189/203 109/192/206 113/193/207 112/194/208
s 17
f 109/195/209 108/170/184 114/181/195 113/196/210
s 19
f 112/194/208 111/197/211 127/198/212 126/199/213
s 18
f 111/200/214 116/183/197 128/201/215 127/202/216
s 16
f 118/187/201 117/203/217 131/204/218 130/157/171
s 20
f 117/205/219 122/206/220 132/207/221 131/208/222
f 122/206/220 121/209/223 125/210/224 124/211/225
s 19
f 121/212/226 120/190/204 126/199/213 125/213/227
s 20
f 124/211/225 123/214/228 139/215/229 138/216/230
s 18
f 123/217/231 128/201/215 140/175/189 139/218/232
s 15
f 134/154/168 133/219/233 137/220/234 136/177/191
s 20
f 133/221/235 132/207/221 138/216/230 137/222/236
s 17
f 108/170/184 96/159/173 102/162/176 114/181/195
s 19
f 120/190/204 110/189/203 112/194/208 126/199/213
s 20
f 132/207/221 122/206/220 124/211/225 138/216/230
s 15
f 94/151/165 134/154/168 136/177/191 104/165/179
s 18
f 100/172/186 140/175/189 128/201/215 116/183/197
s 16
f 130/157/171 98/156/170 106/168/182 118/187/201
f 97/166/180 98/156/170 93/155/169 141/223/237
s 15
f 93/152/166 94/151/165 95/164/178 141/224/238
s 17
f 95/160/174 96/159/173 97/169/183 141/225/239
s 15
f 103/163/177 104/165/179 99/176/190 142/226/240
s 18
f 99/173/187 100/172/186 101/182/196 142/227/241
s 17
f 101/179/193 102/162/176 103/161/175 142/228/242
s 19
f 109/192/206 110/189/203 105/188/202 143/229/243
s 16
f 105/185/199 106/168/182 107/167/181 143/230/244
s 17
f 107/171/185 108/170/184 109/195/209 143/231/245
s 18
f 115/184/198 116/183/197 111/200/214 144/232/246
s 19
f 111/197/211 112/194/208 113/193/207 144/233/247
s 17
f 113/196/210 114/181/195 115/180/194 144/234/248
s 20
f 121/209/223 122/206/220 117/205/219 145/235/249
s 16
f 117/203/217 118/187/201 119/186/200 145/236/250
s 19
f 119/191/205 120/190/204 121/212/226 145/237/251
s 18
f 127/202/216 128/201/215 123/217/231 146/238/252
s 20
f 123/214/228 124/211/225 125/210/224 146/239/253
s 19
f 125/213/227 126/199/213 127/198/212 146/240/254
s 15
f 133/219/233 134/154/168 129/153/167 147/241/255
s 16
f 129/158/172 130/157/171 131/204/218 147/242/256
s 20
f 131/208/222 132/207/221 133/221/235 147/243/257
s 18
f 139/218/232 140/175/189 135/174/188 148/244/258
s 15
f 135/178/192 136/177/191 137/220/234 148/245/259
s 20
f 137/222/236 138/216/230 139/215/229 148/246/260
s 21
f 150/247/261 149/248/262 185/249/263 190/250/264
s 22
f 149/251/265 154/252/266 186/253/267 185/254/268
s 23
f 152/255/269 151/256/270 159/257/271 158/258/272
s 21
f 159/259/273 151/260/274 150/247/261 160/261/275
s 22
f 154/252/266 153/262/276 163/263/277 162/264/278
s 23
f 153/265/279 152/255/269 164/266/280 163/267/281
s 24
f 156/268/282 155/269/283 191/270/284 196/271/285
s 21
f 155/272/286 160/261/275 192/273/287 191/274/288
s 23
f 158/258/272 157/275/289 171/276/290 170/277/291
s 24
f 157/278/292 156/268/282 172/279/293 171/280/294
s 22
f 162/264/278 161/281/295 175/282/296 174/283/297
s 25
f 161/284/298 166/285/299 176/286/300 175/287/301
f 166/285/299 165/288/302 169/289/303 168/290/304
s 23
f 165/291/305 164/266/280 170/277/291 169/292/306
s 25
f 168/290/304 167/293/307 183/294/308 182/295/309
s 24
f 167/296/310 172/279/293 184/297/311 183/298/312
s 22
f 174/283/297 173/299/313 187/300/314 186/253/267
s 26
f 173/301/315 178/302/316 188/303/317 187/304/318
f 178/302/316 177/305/319 181/306/320 180/307/321
s 25
f 177/308/322 176/286/300 182/295/309 181/309/323
s 26
f 180/307/321 179/310/324 195/311/325 194/312/326
s 24
f 179/313/327 184/297/311 196/271/285 195/314/328
s 21
f 190/250/264 189/315/329 193/316/330 192/273/287
s 26
f 189/317/331 188/303/317 194/312/326 193/318/332
s 23
f 164/266/280 152/255/269 158/258/272 170/277/291
s 25
f 176/286/300 166/285/299 168/290/304 182/295/309
s 26
f 188/303/317 178/302/316 180/307/321 194/312/326
s 21
f 150/247/261 190/250/264 192/273/287 160/261/275
s 24
f 156/268/282 196/271/285 184/297/311 172/279/293
s 22
f 186/253/267 154/252/266 162/264/278 174/283/297
f 153/262/276 154/252/266 149/251/265 197/319/333
s 21
f 149/248/262 150/247/261 151/260/274 197/320/334
s 23
f 151/256/270 152/255/269 153/265/279 197/321/335
s 21
f 159/259/273 160/261/275 155/272/286 198/322/336
s 24
f 155/269/283 156/268/282 157/278/292 198/323/337
s 23
f 157/275/289 158/258/272 159/257/271 198/324/338
s 25
f 165/288/302 166/285/299 161/284/298 199/325/339
s 22
f 161/281/295 162/264/278 163/263/277 199/326/340
s 23
f 163/267/281 164/266/280 165/291/305 199/327/341
s 24
f 171/280/294 172/279/293 167/296/310 200/328/342
s 25
f 167/293/307 168/290/304 169/289/303 200/329/343
s 23
f 169/292/306 170/277/291 171/276/290 200/330/344
s 26
f 177/305/319 178/302/316 173/301/315 201/331/345
s 22
f 173/299/313 174/283/297 175/282/296 201/332/346
s 25
f 175/287/301 176/286/300 177/308/322 201/333/347
s 24
f 183/298/312 184/297/311 179/313/327 202/334/348
s 26
f 179/310/324 180/307/321 181/306/320 202/335/349
s 25
f 181/309/323 182/295/309 183/294/308 202/336/350
s 21
f 189/315/329 190/250/264 185/249/263 203/337/351
s 22
f 185/254/268 186/253/267 187/300/314 203/338/352
s 26
f 187/304/318 188/303/317 189/317/331 203/339/353
s 24
f 195/314/328 196/271/285 191/270/284 204/340/354
s 21
f 191/274/288 192/273/287 193/316/330 204/341/355
s 26
f 193/318/332 194/312/326 195/311/325 204/342/356
s 27
f 206/343/357 205/344/358 241/345/359 246/346/360
s 28
f 205/347/361 210/348/362 242/349/363 241/350/364
s 29
f 208/351/365 207/352/366 215/353/367 214/354/368
s 27
f 215/355/369 207/356/370 206/343/357 216/357/371
s 28
f 210/348/362 209/358/372 219/359/373 218/360/374
s 29
f 209/361/375 208/351/365 220/362/376 219/363/377
s 30
f 212/364/378 211/365/379 247/366/380 252/367/381
s 27
f 211/368/382 216/357/371 248/369/383 247/370/384
s 29
f 214/354/368 213/371/385 227/372/386 226/373/387
s 30
f 213/374/388 212/364/378 228/375/389 227/376/390
s 28
f 218/360/374 217/377/391 231/378/392 230/379/393
s 31
f 217/380/394 222/381/395 232/382/396 231/383/397
f 222/381/395 221/384/398 225/385/399 224/386/400
s 29
f 221/387/401 220/362/376 226/373/387 225/388/402
s 31
f 224/386/400 223/389/403 239/390/404 238/391/405
s 30
f 223/392/406 228/375/389 240/393/407 239/394/408
s 28
f 230/379/393 229/395/409 243/396/410 242/349/363
s 32
f 229/397/411 234/398/412 244/399/413 243/400/414
f 234/398/412 233/401/415 237/402/416 236/403/417
s 31
f 233/404/418 232/382/396 238/391/405 237/405/419
s 32
f 236/403/417 235/406/420 251/407/421 250/408/422
s 30
f 235/409/423 240/393/407 252/367/381 251/410/424
s 27
f 246/346/360 245/411/425 249/412/426 248/369/383
s 32
f 245/413/427 244/399/413 250/408/422 249/414/428
s 29
f 220/362/376 208/351/365 214/354/368 226/373/387
s 31
f 232/382/396 222/381/395 224/386/400 238/391/405
s 32
f 244/399/413 234/398/412 236/403/417 250/408/422
s 27
f 206/343/357 246/346/360 248/369/383 216/357/371
s 30
f 212/364/378 252/367/381 240/393/407 228/375/389
s 28
f 242/349/363 210/348/362 218/360/374 230/379/393
f 209/358/372 210/348/362 205/347/361 253/415/429
s 27
f 205/344/358 206/343/357 207/356/370 253/416/430
s 29
f 207/352/366 208/351/365 209/361/375 253/417/431
s 27
f 215/355/369 216/357/371 211/368/382 254/418/432
s 30
f 211/365/379 212/364/378 213/374/388 254/419/433
s 29
f 213/371/385 214/354/368 215/353/367 254/420/434
s 31
f 221/384/398 222/381/395 217/380/394 255/421/435
s 28
f 217/377/391 218/360/374 219/359/373 255/422/436
s 29
f 219/363/377 220/362/376 221/387/401 255/423/437
s 30
f 227/376/390 228/375/389 223/392/406 256/424/438
s 31
f 223/389/403 224/386/400 225/385/399 256/425/439
s 29
f 225/388/402 226/373/387 227/372/386 256/426/440
s 32
f 233/401/415 234/398/412 229/397/411 257/427/441
s 28
f 229/395/409 230/379/393 231/378/392 257/428/442
s 31
f 231/383/397 232/382/396 233/404/418 257/429/443
s 30
f 239/394/408 240/393/407 235/409/423 258/430/444
s 32
f 235/406/420 236/403/417 237/402/416 258/431/445
s 31
f 237/405/419 238/391/405 239/390/404 258/432/446
s 27
f 245/411/425 246/346/360 241/345/359 259/433/447
s 28
f 241/350/364 242/349/363 243/396/410 259/434/448
s 32
f 243/400/414 244/399/413 245/413/427 259/435/449
s 30
f 251/410/424 252/367/381 247/366/380 260/436/450
s 27
f 247/370/384 248/369/383 249/412/426 260/437/451
s 32
f 249/414/428 250/408/422 251/407/421 260/438/452
s 33
f 262/439/453 261/440/454 297/441/455 302/442/456
s 34
f 261/443/457 266/444/458 298/445/459 297/446/460
s 35
f 264/447/461 263/448/462 271/449/463 270/450/464
s 33
f 271/451/465 263/452/466 262/439/453 272/453/467
s 34
f 266/444/458 265/454/468 275/455/469 274/456/470
s 35
f 265/457/471 264/447/461 276/458/472 275/459/473
s 36
f 268/460/474 267/461/475 303/462/476 308/463/477
s 33
f 267/464/478 272/453/467 304/465/479 303/466/480
s 35
f 270/450/464 269/467/481 283/468/482 282/469/483
s 36
f 269/470/484 268/460/474 284/471/485 283/472/486
s 34
f 274/456/470 273/473/487 287/474/488 286/475/489
s 37
f 273/476/490 278/477/491 288/478/492 287/479/493
f 278/477/491 277/480/494 281/481/495 280/482/496
s 35
f 277/483/497 276/458/472 282/469/483 281/484/498
s 37
f 280/482/496 279/485/499 295/486/500 294/487/501
s 36
f 279/488/502 284/471/485 296/489/503 295/490/504
s 34
f 286/475/489 285/491/505 299/492/506 298/445/459
s 38
f 285/493/507 290/494/508 300/495/509 299/496/510
f 290/494/508 289/497/511 293/498/512 292/499/513
s 37
f 289/500/514 288/478/492 294/487/501 293/501/515
s 38
f 292/499/513 291/502/516 307/503/517 306/504/518
s 36
f 291/505/519 296/489/503 308/463/477 307/506/520
s 33
f 302/442/456 301/507/521 305/508/522 304/465/479
s 38
f 301/509/523 300/495/509 306/504/518 305/510/524
s 35
f 276/458/472 264/447/461 270/450/464 282/469/483
s 37
f 288/478/492 278/477/491 280/482/496 294/487/501
s 38
f 300/495/509 290/494/508 292/499/513 306/504/518
s 33
f 262/439/453 302/442/456 304/465/479 272/453/467
s 36
f 268/460/474 308/463/477 296/489/503 284/471/485
s 34
f 298/445/459 266/444/458 274/456/470 286/475/489
f 265/454/468 266/444/458 261/443/457 309/511/525
s 33
f 261/440/454 262/439/453 263/452/466 309/512/526
s 35
f 263/448/462 264/447/461 265/457/471 309/513/527
s 33
f 271/451/465 272/453/467 267/464/478 310/514/528
s 36
f 267/461/475 268/460/474 269/470/484 310/515/529
s 35
f 269/467/481 270/450/464 271/449/463 310/516/530
s 37
f 277/480/494 278/477/491 273/476/490 311/517/531
s 34
f 273/473/487 274/456/470 275/455/469 311/518/532
s 35
f 275/459/473 276/458/472 277/483/497 311/519/533
s 36
f 283/472/486 284/471/485 279/488/502 312/520/534
s 37
f 279/485/499 280/482/496 281/481/495 312/521/535
s 35
f 281/484/498 282/469/483 283/468/482 312/522/536
s 38
f 289/497/511 290/494/508 285/493/507 313/523/537
s 34
f 285/491/505 286/475/489 287/474/488 313/524/538
s 37
f 287/479/493 288/478/492 289/500/514 313/525/539
s 36
f 295/490/504 296/489/503 291/505/519 314/526/540
s 38
f 291/502/516 292/499/513 293/498/512 314/527/541
s 37
f 293/501/515 294/487/501 295/486/500 314/528/542
s 33
f 301/507/521 302/442/456 297/441/455 315/529/543
s 34
f 297/446/460 298/445/459 299/492/506 315/530/544
s 38
f 299/496/510 300/495/509 301/509/523 315/531/545
s 36
f 307/506/520 308/463/477 303/462/476 316/532/546
s 33
f 303/466/480 304/465/479 305/508/522 316/533/547
s 38
f 305/510/524 306/504/518 307/503/517 316/534/548
s 39
f 318/535/549 317/536/550 353/537/551 358/538/552
s 40
f 317/539/553 322/540/554 354/541/555 353/542/556
s 41
f 320/543/557 319/544/558 327/545/559 326/546/560
s 39
f 327/547/561 319/548/562 318/535/549 328/549/563
s 40
f 322/540/554 321/550/564 331/551/565 330/552/566
s 41
f 321/553/567 320/543/557 332/554/568 331/555/569
s 42
f 324/556/570 323/557/571 359/558/572 364/559/573
s 39
f 323/560/574 328/549/563 360/561/575 359/562/576
s 41
f 326/546/560 325/563/577 339/564/578 338/565/579
s 42
f 325/566/580 324/556/570 340/567/581 339/568/582
s 40
f 330/552/566 329/569/583 343/570/584 342/571/585
s 43
f 329/572/586 334/573/587 344/574/588 343/575/589
f 334/573/587 333/576/590 337/577/591 336/578/592
s 41
f 333/579/593 332/554/568 338/565/579 337/580/594
s 43
f 336/578/592 335/581/595 351/582/596 350/583/597
s 42
f 335/584/598 340/567/581 352/585/599 351/586/600
s 40
f 342/571/585 341/587/601 355/588/602 354/541/555
s 44
f 341/589/603 346/590/604 356/591/605 355/592/606
f 346/590/604 345/593/607 349/594/608 348/595/609
s 43
f 345/596/610 344/574/588 350/583/597 349/597/611
s 44
f 348/595/609 347/598/612 363/599/613 362/600/614
s 42
f 347/601/615 352/585/599 364/559/573 363/602/616
s 39
f 358/538/552 357/603/617 361/604/618 360/561/575
s 44
f 357/605/619 356/591/605 362/600/614 361/606/620
s 41
f 332/554/568 320/543/557 326/546/560 338/565/579
s 43
f 344/574/588 334/573/587 336/578/592 350/583/597
s 44
f 356/591/605 346/590/604 348/595/609 362/600/614
s 39
f 318/535/549 358/538/552 360/561/575 328/549/563
s 42
f 324/556/570 364/559/573 352/585/599 340/567/581
s 40
f 354/541/555 322/540/554 330/552/566 342/571/585
f 321/550/564 322/540/554 317/539/553 365/607/621
s 39
f 317/536/550 318/535/549 319/548/562 365/608/622
s 41
f 319/544/558 320/543/557 321/553/567 365/609/623
s 39
f 327/547/561 328/549/563 323/560/574 366/610/624
s 42
f 323/557/571 324/556/570 325/566/580 366/611/625
s 41
f 325/563/577 326/546/560 327/545/559 366/612/626
s 43
f 333/576/590 334/573/587 329/572/586 367/613/627
s 40
f 329/569/583 330/552/566 331/551/565 367/614/628
s 41
f 331/555/569 332/554/568 333/579/593 367/615/629
s 42
f 339/568/582 340/567/581 335/584/598 368/616/630
s 43
f 335/581/595 336/578/592 337/577/591 368/617/631
s 41
f 337/580/594 338/565/579 339/564/578 368/618/632
s 44
f 345/593/607 346/590/604 341/589/603 369/619/633
s 40
f 341/587/601 342/571/585 343/570/584 369/620/634
s 43
f 343/575/589 344/574/588 345/596/610 369/621/635
s 42
f 351/586/600 352/585/599 347/601/615 370/622/636
s 44
f 347/598/612 348/595/609 349/594/608 370/623/637
s 43
f 349/597/611 350/583/597 351/582/596 370/624/638
s 39
f 357/603/617 358/538/552 353/537/551 371/625/639
s 40
f 353/542/556 354/541/555 355/588/602 371/626/640
s 44
f 355/592/606 356/591/605 357/605/619 371/627/641
s 42
f 363/602/616 364/559/573 359/558/572 372/628/642
s 39
f 359/562/576 360/561/575 361/604/618 372/629/643
s 44
f 361/606/620 362/600/614 363/599/613 372/630/644
