# This file uses centimeters as units for non-parametric coordinates.

mtllib door_room_transition.mtl
g default
v -1.513004 1.485643 0.245172
v -1.513004 1.591411 0.245172
v -1.513004 1.591411 -0.245172
v -1.513004 1.485643 -0.245172
v -1.273432 1.485643 0.245172
v -1.273432 1.485643 -0.245172
v -1.018638 1.452115 0.245172
v -1.018638 1.452115 -0.245172
v -1.285989 1.623044 0.232069
v -1.273432 1.636147 0.200435
v -1.260876 1.604514 0.200435
v -1.230561 1.591411 0.200435
v -1.243118 1.578307 0.232069
v -1.273432 1.546673 0.245172
v -1.316303 1.591411 0.245172
v -1.303747 1.559777 0.245172
v -1.273432 1.636147 -0.200435
v -1.285989 1.623044 -0.232069
v -1.316303 1.591411 -0.245172
v -1.273432 1.546673 -0.245172
v -1.243118 1.578307 -0.232069
v -1.230561 1.591411 -0.200435
v -1.260876 1.604514 -0.200435
v -1.303747 1.559777 -0.245172
v -1.036706 1.510160 0.245172
v -1.046071 1.540246 0.232069
v -1.049951 1.552709 0.200435
v -1.049951 1.552709 -0.200435
v -1.046071 1.540246 -0.232069
v -1.036706 1.510160 -0.245172
v -1.316303 1.936240 0.232069
v -1.316303 1.949343 0.200435
v -1.285989 1.936240 0.200435
v -1.273432 1.904606 0.200435
v -1.285989 1.904606 0.232069
v -1.316303 1.904606 0.245172
v -1.316303 1.936240 -0.232069
v -1.316303 1.904606 -0.245172
v -1.285989 1.904606 -0.232069
v -1.273432 1.904606 -0.200435
v -1.285989 1.936240 -0.200435
v -1.316303 1.949343 -0.200435
v -1.513004 1.949343 0.200435
v -1.513004 1.936240 0.232069
v -1.513004 1.904606 0.245172
v -1.513004 1.936240 -0.232069
v -1.513004 1.949343 -0.200435
v -1.513004 1.904606 -0.245172
v -1.273432 1.591411 0.232069
v -1.273432 1.591411 -0.232069
v -1.291560 1.930426 0.226255
v -1.291560 1.930426 -0.226255
v -0.680850 0.000901 -0.264084
v -0.680850 0.000901 0.264084
v -1.273432 0.009067 -0.264084
v -1.273432 0.009067 0.264084
v -1.513004 0.009067 -0.264084
v -1.513004 0.009067 0.264084
v -0.768097 0.281190 0.264084
v -1.273432 0.303773 0.264084
v -1.513004 0.303773 0.264084
v -1.513004 0.303773 -0.264084
v -1.273432 0.303773 -0.264084
v -0.768097 0.281190 -0.264084
v -0.811217 0.419716 0.218242
v -1.273432 0.449424 0.218242
v -1.513004 0.449424 0.218242
v -1.513004 0.449424 -0.218242
v -1.273432 0.449424 -0.218242
v -0.811217 0.419716 -0.218242
v -0.960918 1.266685 0.218242
v -1.273432 1.290676 0.218242
v -1.513004 1.290676 0.218242
v -1.513004 1.290676 -0.218242
v -1.273432 1.290676 -0.218242
v -0.960918 1.266685 -0.218242
v -1.012528 1.432486 0.245172
v -1.273432 1.465004 0.245172
v -1.513004 1.465004 0.245172
v -1.513004 1.465004 -0.245172
v -1.273432 1.465004 -0.245172
v -1.012528 1.432486 -0.245172
v 0.215573 2.984728 0.231855
v 0.208577 2.957420 0.299516
v 0.191686 2.891493 0.327542
v 0.215573 2.984728 -0.231855
v 0.208577 2.957420 -0.299516
v 0.191686 2.891493 -0.327542
v 0.905249 -0.010080 0.327542
v 1.004092 -0.010080 0.231855
v 0.975142 -0.010080 0.299516
v 1.274015 1.036658 0.231855
v 1.246242 1.041204 0.299516
v 1.179191 1.052180 0.327542
v 0.608679 -0.010080 0.231855
v 0.705674 -0.010080 0.327542
v 0.637088 -0.010080 0.299516
v 0.878207 1.057191 0.327542
v 0.810798 1.064283 0.299516
v 0.782876 1.067221 0.231855
v 0.771892 2.120188 -0.327542
v 0.715098 2.079879 -0.299571
v 0.690514 2.064433 -0.231993
v 0.837311 1.705213 -0.231855
v 0.865599 1.710352 -0.299516
v 0.933891 1.722758 -0.327542
v 1.077632 2.419138 -0.232027
v 1.052639 2.404190 -0.299585
v 0.994936 2.364971 -0.327542
v 1.331126 1.778375 -0.231855
v 1.302716 1.773981 -0.299516
v 1.234129 1.763373 -0.327542
v 0.131249 2.498673 -0.327542
v 0.120042 2.431921 -0.299505
v 0.115400 2.404271 -0.231818
v 0.760395 2.137486 0.334635
v 0.703996 2.094268 0.308487
v 0.681431 2.074875 0.240466
v 0.508987 2.260051 0.231806
v 0.526329 2.282128 0.299466
v 0.568183 2.335408 0.327443
v 0.637088 -0.010080 -0.299516
v 0.705674 -0.010080 -0.327542
v 0.608679 -0.010080 -0.231855
v 0.878207 1.057191 -0.327542
v 0.810798 1.064283 -0.299516
v 0.782876 1.067221 -0.231855
v 0.975142 -0.010080 -0.299516
v 1.004092 -0.010080 -0.231855
v 0.905249 -0.010080 -0.327542
v 1.274015 1.036658 -0.231855
v 1.246242 1.041204 -0.299516
v 1.179191 1.052180 -0.327542
v 1.234330 1.763915 0.327542
v 1.302775 1.774140 0.299539
v 1.331126 1.778375 0.231934
v 0.837311 1.705213 0.231949
v 0.865538 1.710591 0.299497
v 0.933658 1.723570 0.327410
v 0.476629 2.792265 0.327542
v 0.508488 2.852581 0.299516
v 0.521685 2.877564 0.231855
v 0.821738 2.680011 0.231916
v 0.804216 2.658093 0.299534
v 0.761917 2.605178 0.327542
v 0.521685 2.877564 -0.231855
v 0.508488 2.852581 -0.299516
v 0.476629 2.792265 -0.327542
v 0.762064 2.604999 -0.327542
v 0.804260 2.658041 -0.299516
v 0.821738 2.680011 -0.231855
v 0.347138 2.444560 -0.327542
v 0.319251 2.381292 -0.299516
v 0.307699 2.355086 -0.231855
v 0.508990 2.242908 -0.231855
v 0.526414 2.264900 -0.299516
v 0.568478 2.317995 -0.327542
v 0.347138 2.444560 0.327542
v 0.319250 2.381292 0.299516
v 0.307699 2.355086 0.231855
v 0.115400 2.404270 0.231818
v 0.120042 2.431921 0.299505
v 0.131249 2.498673 0.327542
v 1.086664 2.408754 0.221999
v 1.064675 2.391223 0.289916
v 1.008386 2.351597 0.319866
v 0.815436 1.892873 -0.299549
v 0.789370 1.881550 -0.231938
v 0.783921 1.887815 0.237059
v 0.808751 1.901603 0.304891
v 0.869838 1.932725 0.331745
v 1.156227 2.084613 0.322936
v 1.217378 2.112479 0.293765
v 1.241912 2.124691 0.225973
v 1.236493 2.130922 -0.231958
v 1.210133 2.120195 -0.299557
v 1.148077 2.092421 -0.327542
v 0.876829 1.922022 -0.327542
v 1.312551 1.469199 0.299525
v 1.244942 1.471694 0.327542
v 0.936397 1.465289 0.327489
v 0.868704 1.464353 0.299508
v 0.840660 1.463964 0.231892
v 0.840660 1.463964 -0.231855
v 0.868728 1.464257 -0.299516
v 0.936490 1.464965 -0.327542
v 1.244862 1.471477 -0.327542
v 1.312527 1.469135 -0.299516
v 1.340555 1.468165 -0.231855
v 1.340555 1.468165 0.231886
v 0.678372 2.229207 -0.327542
v 0.628944 2.182505 -0.299543
v 0.607940 2.163786 -0.231924
v 0.603398 2.169007 0.236136
v 0.623352 2.189742 0.303976
v 0.670170 2.236690 0.331039
v 0.899209 2.479604 0.323704
v 0.948504 2.525875 0.294725
v 0.968259 2.545599 0.226957
v 0.963743 2.550792 -0.231941
v 0.942508 2.532332 -0.299550
v 0.892559 2.486202 -0.327542
v 0.766855 1.985603 -0.299560
v 0.741531 1.972218 -0.231966
v 0.734264 1.980572 0.238762
v 0.757962 1.997162 0.306689
v 0.816705 2.034332 0.333190
v 1.088701 2.225797 0.321401
v 1.147421 2.259542 0.291841
v 1.170683 2.274414 0.223986
v 1.163457 2.282722 -0.231992
v 1.137781 2.269884 -0.299571
v 1.077901 2.236388 -0.327542
v 0.825949 2.020331 -0.327542
v 0.823173 1.796465 -0.231897
v 0.850349 1.804696 -0.299532
v 0.915192 1.825474 -0.327542
v 1.209331 1.921369 -0.327542
v 1.274653 1.940560 -0.299536
v 1.302038 1.948120 -0.231907
v 1.304748 1.945005 0.228953
v 1.278306 1.936781 0.296652
v 1.213507 1.917736 0.325239
v 0.911580 1.831231 0.329578
v 0.846976 1.809180 0.302194
v 0.820448 1.799598 0.234504
v 1.246287 1.611298 0.327542
v 1.314313 1.615162 0.299532
v 1.342491 1.616763 0.231910
v 1.342491 1.616763 -0.231855
v 1.314272 1.615051 -0.299516
v 1.246145 1.610918 -0.327542
v 0.941655 1.595776 -0.327542
v 0.873628 1.589219 -0.299516
v 0.845450 1.586503 -0.231855
v 0.845450 1.586503 0.231921
v 0.873586 1.589386 0.299503
v 0.941492 1.596344 0.327450
v 1.287555 1.248847 0.299520
v 1.220226 1.255582 0.327542
v 0.915461 1.254885 0.327516
v 0.847910 1.257963 0.299512
v 0.819927 1.259238 0.231874
v 0.819927 1.259238 -0.231855
v 0.847922 1.257915 -0.299516
v 0.915507 1.254723 -0.327542
v 1.220186 1.255474 -0.327542
v 1.287544 1.248815 -0.299516
v 1.315444 1.246057 -0.231855
v 1.315444 1.246057 0.231871
v 0.407503 2.308203 0.231830
v 0.421950 2.332345 0.299491
v 0.456821 2.390618 0.327492
v 0.624493 2.712699 0.327542
v 0.661573 2.769315 0.299525
v 0.676932 2.792766 0.231885
v 0.676932 2.792766 -0.231855
v 0.661595 2.769289 -0.299516
v 0.624568 2.712610 -0.327542
v 0.456966 2.390483 -0.327542
v 0.421991 2.332303 -0.299516
v 0.407503 2.308203 -0.231855
v 0.366172 2.942576 0.231855
v 0.356076 2.916431 0.299516
v 0.331701 2.853310 0.327542
v 0.236736 2.474933 0.327542
v 0.217189 2.409922 0.299510
v 0.209093 2.382994 0.231836
v 0.209093 2.382994 -0.231836
v 0.217189 2.409923 -0.299510
v 0.236736 2.474933 -0.327542
v 0.331701 2.853310 -0.327542
v 0.356076 2.916431 -0.299516
v 0.366172 2.942576 -0.231855
v -0.000449 2.981363 0.299516
v -0.000449 3.009631 0.231855
v -0.000449 2.913127 0.327542
v -0.000449 2.913128 -0.327542
v -0.000449 3.009631 -0.231855
v -0.000449 2.406940 -0.231842
v -0.000449 2.504444 -0.327542
v -0.000449 2.406940 0.231842
v -0.000449 2.504444 0.327542
v -0.000449 2.981363 -0.299516
v -0.000449 2.435494 -0.299512
v -0.000449 2.435494 0.299512
v -0.216472 2.984728 0.231855
v -0.209475 2.957420 0.299516
v -0.192585 2.891493 0.327542
v -0.216472 2.984728 -0.231855
v -0.209475 2.957420 -0.299516
v -0.192585 2.891493 -0.327542
v -0.906148 -0.010080 0.327542
v -1.004991 -0.010080 0.231855
v -0.976041 -0.010080 0.299516
v -1.274914 1.036658 0.231855
v -1.247141 1.041204 0.299516
v -1.180090 1.052180 0.327542
v -0.609578 -0.010080 0.231855
v -0.706573 -0.010080 0.327542
v -0.637987 -0.010080 0.299516
v -0.879106 1.057191 0.327542
v -0.811697 1.064283 0.299516
v -0.783775 1.067221 0.231855
v -0.772791 2.120188 -0.327542
v -0.715997 2.079879 -0.299571
v -0.691413 2.064433 -0.231993
v -0.838210 1.705213 -0.231855
v -0.866498 1.710352 -0.299516
v -0.934790 1.722758 -0.327542
v -1.078531 2.419138 -0.232027
v -1.053538 2.404190 -0.299585
v -0.995835 2.364971 -0.327542
v -1.332025 1.778375 -0.231855
v -1.303615 1.773981 -0.299516
v -1.235028 1.763373 -0.327542
v -0.132148 2.498673 -0.327542
v -0.120941 2.431921 -0.299505
v -0.116299 2.404271 -0.231818
v -0.761294 2.137486 0.334635
v -0.704895 2.094268 0.308487
v -0.682330 2.074875 0.240466
v -0.509886 2.260051 0.231806
v -0.527228 2.282128 0.299466
v -0.569082 2.335408 0.327443
v -0.637987 -0.010080 -0.299516
v -0.706573 -0.010080 -0.327542
v -0.609578 -0.010080 -0.231855
v -0.879106 1.057191 -0.327542
v -0.811697 1.064283 -0.299516
v -0.783775 1.067221 -0.231855
v -0.976041 -0.010080 -0.299516
v -1.004991 -0.010080 -0.231855
v -0.906148 -0.010080 -0.327542
v -1.274914 1.036658 -0.231855
v -1.247141 1.041204 -0.299516
v -1.180090 1.052180 -0.327542
v -1.235229 1.763915 0.327542
v -1.303674 1.774140 0.299539
v -1.332025 1.778375 0.231934
v -0.838210 1.705213 0.231949
v -0.866437 1.710591 0.299497
v -0.934557 1.723570 0.327410
v -0.477528 2.792265 0.327542
v -0.509387 2.852581 0.299516
v -0.522584 2.877564 0.231855
v -0.822636 2.680011 0.231916
v -0.805115 2.658093 0.299534
v -0.762815 2.605178 0.327542
v -0.522584 2.877564 -0.231855
v -0.509387 2.852581 -0.299516
v -0.477528 2.792265 -0.327542
v -0.762963 2.604999 -0.327542
v -0.805159 2.658041 -0.299516
v -0.822636 2.680011 -0.231855
v -0.348036 2.444560 -0.327542
v -0.320149 2.381292 -0.299516
v -0.308598 2.355086 -0.231855
v -0.509889 2.242908 -0.231855
v -0.527312 2.264900 -0.299516
v -0.569376 2.317995 -0.327542
v -0.348036 2.444560 0.327542
v -0.320149 2.381292 0.299516
v -0.308598 2.355086 0.231855
v -0.116299 2.404270 0.231818
v -0.120941 2.431921 0.299505
v -0.132148 2.498673 0.327542
v -1.087563 2.408754 0.221999
v -1.065574 2.391223 0.289916
v -1.009284 2.351597 0.319866
v -0.816335 1.892873 -0.299549
v -0.790269 1.881550 -0.231938
v -0.784819 1.887815 0.237059
v -0.809649 1.901603 0.304891
v -0.870736 1.932725 0.331745
v -1.157125 2.084613 0.322936
v -1.218277 2.112479 0.293765
v -1.242811 2.124691 0.225973
v -1.237392 2.130922 -0.231958
v -1.211032 2.120195 -0.299557
v -1.148975 2.092421 -0.327542
v -0.877728 1.922022 -0.327542
v -1.313450 1.469199 0.299525
v -1.245841 1.471694 0.327542
v -0.937296 1.465289 0.327489
v -0.869603 1.464353 0.299508
v -0.841559 1.463964 0.231892
v -0.841559 1.463964 -0.231855
v -0.869627 1.464257 -0.299516
v -0.937389 1.464965 -0.327542
v -1.245760 1.471477 -0.327542
v -1.313426 1.469135 -0.299516
v -1.341454 1.468165 -0.231855
v -1.341454 1.468165 0.231886
v -0.679271 2.229207 -0.327542
v -0.629842 2.182505 -0.299543
v -0.608839 2.163786 -0.231924
v -0.604297 2.169007 0.236136
v -0.624251 2.189742 0.303976
v -0.671069 2.236690 0.331039
v -0.900108 2.479604 0.323704
v -0.949403 2.525875 0.294725
v -0.969158 2.545599 0.226957
v -0.964642 2.550792 -0.231941
v -0.943406 2.532332 -0.299550
v -0.893458 2.486202 -0.327542
v -0.767754 1.985603 -0.299560
v -0.742430 1.972218 -0.231966
v -0.735163 1.980572 0.238762
v -0.758860 1.997162 0.306689
v -0.817604 2.034332 0.333190
v -1.089599 2.225797 0.321401
v -1.148320 2.259542 0.291841
v -1.171582 2.274414 0.223986
v -1.164356 2.282722 -0.231992
v -1.138679 2.269884 -0.299571
v -1.078800 2.236388 -0.327542
v -0.826848 2.020331 -0.327542
v -0.824072 1.796465 -0.231897
v -0.851248 1.804696 -0.299532
v -0.916090 1.825474 -0.327542
v -1.210230 1.921369 -0.327542
v -1.275552 1.940560 -0.299536
v -1.302937 1.948120 -0.231907
v -1.305647 1.945005 0.228953
v -1.279204 1.936781 0.296652
v -1.214406 1.917736 0.325239
v -0.912479 1.831231 0.329578
v -0.847875 1.809180 0.302194
v -0.821347 1.799598 0.234504
v -1.247185 1.611298 0.327542
v -1.315212 1.615162 0.299532
v -1.343390 1.616763 0.231910
v -1.343390 1.616763 -0.231855
v -1.315171 1.615051 -0.299516
v -1.247044 1.610918 -0.327542
v -0.942554 1.595776 -0.327542
v -0.874527 1.589219 -0.299516
v -0.846349 1.586503 -0.231855
v -0.846349 1.586503 0.231921
v -0.874485 1.589386 0.299503
v -0.942391 1.596344 0.327450
v -1.288454 1.248847 0.299520
v -1.221125 1.255582 0.327542
v -0.916360 1.254885 0.327516
v -0.848809 1.257963 0.299512
v -0.820826 1.259238 0.231874
v -0.820826 1.259238 -0.231855
v -0.848821 1.257915 -0.299516
v -0.916406 1.254723 -0.327542
v -1.221084 1.255474 -0.327542
v -1.288442 1.248815 -0.299516
v -1.316343 1.246057 -0.231855
v -1.316343 1.246057 0.231871
v -0.408402 2.308203 0.231830
v -0.422849 2.332345 0.299491
v -0.457720 2.390618 0.327492
v -0.625392 2.712699 0.327542
v -0.662472 2.769315 0.299525
v -0.677831 2.792766 0.231885
v -0.677831 2.792766 -0.231855
v -0.662494 2.769289 -0.299516
v -0.625466 2.712610 -0.327542
v -0.457865 2.390483 -0.327542
v -0.422890 2.332303 -0.299516
v -0.408402 2.308203 -0.231855
v -0.367071 2.942576 0.231855
v -0.356974 2.916431 0.299516
v -0.332600 2.853310 0.327542
v -0.237635 2.474933 0.327542
v -0.218088 2.409922 0.299510
v -0.209992 2.382994 0.231836
v -0.209992 2.382994 -0.231836
v -0.218088 2.409923 -0.299510
v -0.237635 2.474933 -0.327542
v -0.332600 2.853310 -0.327542
v -0.356974 2.916431 -0.299516
v -0.367071 2.942576 -0.231855
v 1.540700 1.485643 0.245172
v 1.540700 1.591411 0.245172
v 1.540700 1.591411 -0.245172
v 1.540700 1.485643 -0.245172
v 1.290700 1.485643 0.245172
v 1.290700 1.485643 -0.245172
v 1.024814 1.452115 0.245172
v 1.024814 1.452115 -0.245172
v 1.303803 1.623044 0.232069
v 1.290700 1.636147 0.200435
v 1.277596 1.604514 0.200435
v 1.245963 1.591411 0.200435
v 1.259066 1.578307 0.232069
v 1.290700 1.546673 0.245172
v 1.335437 1.591411 0.245172
v 1.322334 1.559777 0.245172
v 1.290700 1.636147 -0.200435
v 1.303803 1.623044 -0.232069
v 1.335437 1.591411 -0.245172
v 1.290700 1.546673 -0.245172
v 1.259066 1.578307 -0.232069
v 1.245963 1.591411 -0.200435
v 1.277596 1.604514 -0.200435
v 1.322334 1.559777 -0.245172
v 1.043668 1.510160 0.245172
v 1.053442 1.540246 0.232069
v 1.057490 1.552709 0.200435
v 1.057490 1.552709 -0.200435
v 1.053442 1.540246 -0.232069
v 1.043669 1.510160 -0.245172
v 1.335437 1.936240 0.232069
v 1.335437 1.949343 0.200435
v 1.303803 1.936240 0.200435
v 1.290700 1.904606 0.200435
v 1.303803 1.904606 0.232069
v 1.335437 1.904606 0.245172
v 1.335437 1.936240 -0.232069
v 1.335437 1.904606 -0.245172
v 1.303803 1.904606 -0.232069
v 1.290700 1.904606 -0.200435
v 1.303803 1.936240 -0.200435
v 1.335437 1.949343 -0.200435
v 1.540700 1.949343 0.200435
v 1.540700 1.936240 0.232069
v 1.540700 1.904606 0.245172
v 1.540700 1.936240 -0.232069
v 1.540700 1.949343 -0.200435
v 1.540700 1.904606 -0.245172
v 1.290700 1.591411 0.232069
v 1.290700 1.591411 -0.232069
v 1.309617 1.930426 0.226255
v 1.309617 1.930426 -0.226255
v 0.672322 0.000901 -0.264084
v 0.672322 0.000901 0.264084
v 1.290700 0.009067 -0.264084
v 1.290700 0.009067 0.264084
v 1.540700 0.009067 -0.264084
v 1.540700 0.009067 0.264084
v 0.763367 0.281190 0.264084
v 1.290700 0.303773 0.264084
v 1.540700 0.303773 0.264084
v 1.540700 0.303773 -0.264084
v 1.290700 0.303773 -0.264084
v 0.763367 0.281190 -0.264084
v 0.808363 0.419716 0.218242
v 1.290700 0.449424 0.218242
v 1.540700 0.449424 0.218242
v 1.540700 0.449424 -0.218242
v 1.290700 0.449424 -0.218242
v 0.808363 0.419716 -0.218242
v 0.964582 1.266685 0.218242
v 1.290700 1.290676 0.218242
v 1.540700 1.290676 0.218242
v 1.540700 1.290676 -0.218242
v 1.290700 1.290676 -0.218242
v 0.964582 1.266685 -0.218242
v 1.018438 1.432486 0.245172
v 1.290700 1.465004 0.245172
v 1.540700 1.465004 0.245172
v 1.540700 1.465004 -0.245172
v 1.290700 1.465004 -0.245172
v 1.018438 1.432486 -0.245172
vt 0.625000 0.000000
vt 0.625000 1.000000
vt 0.875000 0.000000
vt 0.875000 0.250000
vt 0.562500 1.000000
vt 0.437500 1.000000
vt 0.562500 0.000000
vt 0.625000 0.250000
vt 0.562500 0.750000
vt 0.625000 0.750000
vt 0.562500 0.242969
vt 0.573684 0.250000
vt 0.551316 0.272809
vt 0.562500 0.507031
vt 0.551316 0.477191
vt 0.562500 0.477191
vt 0.448684 0.477191
vt 0.625000 0.272809
vt 0.573684 0.250000
vt 0.625000 0.250000
vt 0.562500 0.477191
vt 0.573684 0.272809
vt 0.625000 0.500000
vt 0.573684 0.477191
vt 0.625000 0.477191
vt 0.437500 0.000000
vt 0.437500 0.750000
vt 0.625000 0.500000
vt 0.573684 0.500000
vt 0.573684 0.500000
vt 0.562500 0.272809
vt 0.437500 0.242969
vt 0.437500 0.507031
vt 0.562500 0.272809
vt 0.570408 0.245029
vt 0.570408 0.504971
vt 0.448684 0.272809
vt 0.567059 0.255094
vt 0.557840 0.272671
vt 0.554614 0.252198
vt 0.567067 0.494879
vt 0.554612 0.497974
vt 0.557840 0.477329
vt 0.445388 0.252026
vt 0.445386 0.497802
vt 0.572674 0.255040
vt 0.567133 0.272681
vt 0.566890 0.254526
vt 0.572674 0.494960
vt 0.566882 0.495501
vt 0.567133 0.477319
vt 0.625000 0.250000
vt 0.625000 0.500000
vt 0.562500 0.250000
vt 0.562500 0.500000
vt 0.562500 0.250000
vt 0.562500 0.500000
vt 0.437500 0.750000
vt 0.437500 1.000000
vt 0.562500 0.750000
vt 0.625000 0.750000
vt 0.625000 1.000000
vt 0.562500 1.000000
vt 0.437500 1.000000
vt 0.562500 1.000000
vt 0.625000 1.000000
vt 0.625000 0.750000
vt 0.562500 0.750000
vt 0.437500 0.750000
vt 0.437500 1.000000
vt 0.562500 1.000000
vt 0.625000 1.000000
vt 0.625000 0.750000
vt 0.562500 0.750000
vt 0.437500 0.750000
vt 0.437500 1.000000
vt 0.562500 1.000000
vt 0.625000 1.000000
vt 0.625000 0.750000
vt 0.562500 0.750000
vt 0.437500 0.750000
vt 0.437500 1.000000
vt 0.562500 1.000000
vt 0.625000 1.000000
vt 0.625000 0.750000
vt 0.562500 0.750000
vt 0.437500 0.750000
vt 0.617494 0.121583
vt 0.628836 0.123737
vt 0.629264 0.137556
vt 0.617907 0.134815
vt 0.664791 0.124298
vt 0.665151 0.138179
vt 0.570357 0.185798
vt 0.570357 0.107714
vt 0.570357 0.119743
vt 0.570357 0.194301
vt 0.581818 0.110398
vt 0.581881 0.123046
vt 0.570357 0.491914
vt 0.570357 0.538930
vt 0.570357 0.547572
vt 0.570357 0.497856
vt 0.580619 0.532656
vt 0.580683 0.541179
vt 0.550063 0.259209
vt 0.550063 0.211070
vt 0.529768 0.211070
vt 0.529768 0.258985
vt 0.560406 0.216681
vt 0.538813 0.216794
vt 0.583761 0.750000
vt 0.570357 0.750000
vt 0.570357 0.642286
vt 0.581077 0.638862
vt 0.570357 0.713483
vt 0.570357 0.564202
vt 0.838483 -0.000000
vt 0.875000 0.000000
vt 0.874989 0.127575
vt 0.839033 0.127014
vt 0.625000 0.750000
vt 0.611341 0.750000
vt 0.614390 0.625319
vt 0.624986 0.622419
vt 0.504561 0.283267
vt 0.505118 0.246194
vt 0.542065 0.245113
vt 0.541351 0.282332
vt 0.497293 0.240328
vt 0.533264 0.239325
vt 0.494118 0.506502
vt 0.501306 0.500000
vt 0.537171 0.500000
vt 0.529236 0.506625
vt 0.501863 0.462927
vt 0.537886 0.462769
vt 0.473710 0.491040
vt 0.473710 0.538930
vt 0.501739 0.538930
vt 0.501739 0.491040
vt 0.479093 0.532150
vt 0.508463 0.532152
vt 0.473710 0.258960
vt 0.473710 0.211070
vt 0.447088 0.211070
vt 0.447088 0.258969
vt 0.479774 0.217170
vt 0.451264 0.217061
vt 0.661517 -0.000000
vt 0.583761 0.377350
vt 0.611341 0.124988
vt 0.613532 0.516955
vt 0.613244 0.506827
vt 0.667749 0.233596
vt 0.839076 0.238684
vt 0.839010 0.248871
vt 0.668039 0.243569
vt 0.620330 0.236996
vt 0.581999 0.216568
vt 0.582026 0.207983
vt 0.620176 0.227146
vt 0.570357 0.536517
vt 0.570357 0.253209
vt 0.570357 0.259433
vt 0.420466 0.491021
vt 0.420466 0.258979
vt 0.391070 0.258967
vt 0.391070 0.491033
vt 0.573909 0.462611
vt 0.578140 0.281398
vt 0.604775 0.280798
vt 0.600000 0.462204
vt 0.537833 0.532155
vt 0.564353 0.506748
vt 0.588799 0.506788
vt 0.559226 0.532406
vt 0.550063 0.491477
vt 0.529768 0.491040
vt 0.569234 0.238322
vt 0.594782 0.237659
vt 0.467648 0.463077
vt 0.469618 0.284144
vt 0.450785 0.532460
vt 0.461611 0.506347
vt 0.447088 0.491031
vt 0.463937 0.241331
vt 0.501739 0.258972
vt 0.509293 0.216982
vt 0.570357 0.555687
vt 0.839095 0.141198
vt 0.581050 0.626144
vt 0.614449 0.611748
vt 0.625000 0.786517
vt 0.625000 0.963483
vt 0.625000 1.000000
vt 0.611341 0.875012
vt 0.583761 0.622650
vt 0.570357 0.500000
vt 0.625000 0.000000
vt 0.624972 0.500000
vt 0.624973 0.510236
vt 0.874978 0.249987
vt 0.874979 0.239751
vt 0.570357 0.630257
vt 0.624984 0.608171
vt 0.874987 0.141821
vt 0.570357 0.211070
vt 0.570357 0.202428
vt 0.470025 0.247220
vt 0.579013 0.244033
vt 0.605764 0.243250
vt 0.467241 0.500000
vt 0.599004 0.500000
vt 0.573036 0.500000
vt 0.447088 0.538930
vt 0.550063 0.538930
vt 0.529768 0.538930
vt 0.501739 0.211070
vt 0.420466 0.211070
vt 0.390664 0.211070
vt 0.422754 0.216952
vt 0.390507 0.217265
vt 0.632208 0.232540
vt 0.632516 0.242468
vt 0.570357 0.512713
vt 0.570357 0.569178
vt 0.570357 0.582141
vt 0.570357 0.521627
vt 0.570357 0.228313
vt 0.570357 0.237649
vt 0.570357 0.180822
vt 0.570357 0.167859
vt 0.582093 0.186519
vt 0.582133 0.173641
vt 0.619791 0.202521
vt 0.619560 0.187746
vt 0.630977 0.192829
vt 0.631439 0.207721
vt 0.666589 0.193702
vt 0.667024 0.208662
vt 0.839341 0.197935
vt 0.839242 0.213216
vt 0.874981 0.214162
vt 0.874982 0.198809
vt 0.614252 0.542275
vt 0.624976 0.535827
vt 0.624978 0.551181
vt 0.614684 0.557467
vt 0.580942 0.575268
vt 0.580845 0.562485
vt 0.618940 0.167897
vt 0.630335 0.172101
vt 0.582039 0.154668
vt 0.570357 0.149816
vt 0.570357 0.215559
vt 0.570357 0.534400
vt 0.570357 0.600184
vt 0.580982 0.594347
vt 0.614596 0.577822
vt 0.624980 0.572552
vt 0.839249 0.176659
vt 0.874984 0.177439
vt 0.666050 0.172881
vt 0.631411 0.280199
vt 0.626091 0.461797
vt 0.570357 0.556214
vt 0.570357 0.503799
vt 0.570357 0.246985
vt 0.570357 0.193786
vt 0.582052 0.199397
vt 0.620022 0.217296
vt 0.631901 0.222612
vt 0.667459 0.223622
vt 0.839142 0.228497
vt 0.874979 0.229516
vt 0.624975 0.520473
vt 0.613820 0.527083
vt 0.580748 0.549701
vt 0.618320 0.148048
vt 0.629692 0.151374
vt 0.665510 0.152059
vt 0.839156 0.155383
vt 0.874986 0.156068
vt 0.624983 0.593924
vt 0.614508 0.598178
vt 0.581023 0.613425
vt 0.570357 0.618228
vt 0.570357 0.547172
vt 0.570357 0.202804
vt 0.570357 0.131772
vt 0.581944 0.135695
vt 0.434675 0.285020
vt 0.434932 0.248247
vt 0.430581 0.242334
vt 0.420466 0.538930
vt 0.422477 0.532771
vt 0.429104 0.506191
vt 0.433176 0.500000
vt 0.433433 0.463227
vt 0.388529 0.286177
vt 0.388936 0.249592
vt 0.388779 0.243380
vt 0.388247 0.463425
vt 0.390417 0.532645
vt 0.388413 0.506255
vt 0.388528 0.500000
vt 0.390664 0.538930
vt 0.617494 0.121583
vt 0.617907 0.134815
vt 0.629264 0.137556
vt 0.628836 0.123737
vt 0.665151 0.138179
vt 0.664791 0.124298
vt 0.570357 0.185798
vt 0.570357 0.194301
vt 0.570357 0.119743
vt 0.570357 0.107714
vt 0.581881 0.123046
vt 0.581818 0.110398
vt 0.570357 0.491914
vt 0.570357 0.497856
vt 0.570357 0.547572
vt 0.570357 0.538930
vt 0.580683 0.541179
vt 0.580619 0.532656
vt 0.550063 0.259209
vt 0.529768 0.258985
vt 0.529768 0.211070
vt 0.550063 0.211070
vt 0.538813 0.216794
vt 0.560406 0.216681
vt 0.583761 0.750000
vt 0.581077 0.638862
vt 0.570357 0.642286
vt 0.570357 0.750000
vt 0.570357 0.564202
vt 0.570357 0.713483
vt 0.838483 -0.000000
vt 0.839033 0.127014
vt 0.874989 0.127575
vt 0.875000 0.000000
vt 0.625000 0.750000
vt 0.624986 0.622419
vt 0.614390 0.625319
vt 0.611341 0.750000
vt 0.504561 0.283267
vt 0.541351 0.282332
vt 0.542065 0.245113
vt 0.505118 0.246194
vt 0.533264 0.239325
vt 0.497293 0.240328
vt 0.494118 0.506502
vt 0.529236 0.506625
vt 0.537171 0.500000
vt 0.501306 0.500000
vt 0.537886 0.462769
vt 0.501863 0.462927
vt 0.473710 0.491040
vt 0.501739 0.491040
vt 0.501739 0.538930
vt 0.473710 0.538930
vt 0.508463 0.532152
vt 0.479093 0.532150
vt 0.473710 0.258960
vt 0.447088 0.258969
vt 0.447088 0.211070
vt 0.473710 0.211070
vt 0.451264 0.217061
vt 0.479774 0.217170
vt 0.661517 -0.000000
vt 0.611341 0.124988
vt 0.583761 0.377350
vt 0.613532 0.516955
vt 0.613244 0.506827
vt 0.667749 0.233596
vt 0.668039 0.243569
vt 0.839010 0.248871
vt 0.839076 0.238684
vt 0.620330 0.236996
vt 0.620176 0.227146
vt 0.582026 0.207983
vt 0.581999 0.216568
vt 0.570357 0.536517
vt 0.570357 0.259433
vt 0.570357 0.253209
vt 0.420466 0.491021
vt 0.391070 0.491033
vt 0.391070 0.258967
vt 0.420466 0.258979
vt 0.573909 0.462611
vt 0.600000 0.462204
vt 0.604775 0.280798
vt 0.578140 0.281398
vt 0.537833 0.532155
vt 0.559226 0.532406
vt 0.588799 0.506788
vt 0.564353 0.506748
vt 0.550063 0.491477
vt 0.529768 0.491040
vt 0.569234 0.238322
vt 0.594782 0.237659
vt 0.467648 0.463077
vt 0.469618 0.284144
vt 0.450785 0.532460
vt 0.461611 0.506347
vt 0.447088 0.491031
vt 0.463937 0.241331
vt 0.501739 0.258972
vt 0.509293 0.216982
vt 0.570357 0.555687
vt 0.839095 0.141198
vt 0.614449 0.611748
vt 0.581050 0.626144
vt 0.570357 0.500000
vt 0.583761 0.622650
vt 0.611341 0.875012
vt 0.625000 1.000000
vt 0.625000 0.963483
vt 0.625000 0.786517
vt 0.625000 0.000000
vt 0.624973 0.510236
vt 0.624972 0.500000
vt 0.874978 0.249987
vt 0.874979 0.239751
vt 0.570357 0.630257
vt 0.624984 0.608171
vt 0.874987 0.141821
vt 0.570357 0.202428
vt 0.570357 0.211070
vt 0.470025 0.247220
vt 0.605764 0.243250
vt 0.579013 0.244033
vt 0.467241 0.500000
vt 0.573036 0.500000
vt 0.599004 0.500000
vt 0.447088 0.538930
vt 0.529768 0.538930
vt 0.550063 0.538930
vt 0.501739 0.211070
vt 0.390664 0.211070
vt 0.420466 0.211070
vt 0.390507 0.217265
vt 0.422754 0.216952
vt 0.632516 0.242468
vt 0.632208 0.232540
vt 0.570357 0.512713
vt 0.570357 0.521627
vt 0.570357 0.582141
vt 0.570357 0.569178
vt 0.570357 0.237649
vt 0.570357 0.228313
vt 0.570357 0.180822
vt 0.570357 0.167859
vt 0.582093 0.186519
vt 0.582133 0.173641
vt 0.619791 0.202521
vt 0.619560 0.187746
vt 0.631439 0.207721
vt 0.630977 0.192829
vt 0.667024 0.208662
vt 0.666589 0.193702
vt 0.839242 0.213216
vt 0.839341 0.197935
vt 0.874981 0.214162
vt 0.874982 0.198809
vt 0.614252 0.542275
vt 0.614684 0.557467
vt 0.624978 0.551181
vt 0.624976 0.535827
vt 0.580845 0.562485
vt 0.580942 0.575268
vt 0.618940 0.167897
vt 0.630335 0.172101
vt 0.582039 0.154668
vt 0.570357 0.149816
vt 0.570357 0.215559
vt 0.570357 0.534400
vt 0.570357 0.600184
vt 0.580982 0.594347
vt 0.614596 0.577822
vt 0.624980 0.572552
vt 0.874984 0.177439
vt 0.839249 0.176659
vt 0.666050 0.172881
vt 0.631411 0.280199
vt 0.626091 0.461797
vt 0.570357 0.503799
vt 0.570357 0.556214
vt 0.570357 0.246985
vt 0.570357 0.193786
vt 0.582052 0.199397
vt 0.620022 0.217296
vt 0.631901 0.222612
vt 0.667459 0.223622
vt 0.839142 0.228497
vt 0.874979 0.229516
vt 0.613820 0.527083
vt 0.624975 0.520473
vt 0.580748 0.549701
vt 0.618320 0.148048
vt 0.629692 0.151374
vt 0.665510 0.152059
vt 0.839156 0.155383
vt 0.874986 0.156068
vt 0.614508 0.598178
vt 0.624983 0.593924
vt 0.581023 0.613425
vt 0.570357 0.618228
vt 0.570357 0.547172
vt 0.570357 0.202804
vt 0.570357 0.131772
vt 0.581944 0.135695
vt 0.434675 0.285020
vt 0.434932 0.248247
vt 0.430581 0.242334
vt 0.420466 0.538930
vt 0.422477 0.532771
vt 0.429104 0.506191
vt 0.433176 0.500000
vt 0.433433 0.463227
vt 0.388529 0.286177
vt 0.388936 0.249592
vt 0.388779 0.243380
vt 0.388247 0.463425
vt 0.390417 0.532645
vt 0.388413 0.506255
vt 0.388528 0.500000
vt 0.390664 0.538930
vt 0.625000 0.000000
vt 0.875000 0.000000
vt 0.875000 0.250000
vt 0.625000 0.250000
vt 0.562500 0.750000
vt 0.562500 0.507031
vt 0.570408 0.504971
vt 0.625000 0.500000
vt 0.625000 0.750000
vt 0.562500 1.000000
vt 0.562500 0.750000
vt 0.625000 0.750000
vt 0.625000 1.000000
vt 0.437500 1.000000
vt 0.437500 0.750000
vt 0.573684 0.250000
vt 0.570408 0.245029
vt 0.554614 0.252198
vt 0.551316 0.272809
vt 0.448684 0.272809
vt 0.445388 0.252026
vt 0.562500 0.242969
vt 0.437500 0.242969
vt 0.562500 0.272809
vt 0.567059 0.255094
vt 0.566890 0.254526
vt 0.562500 0.272809
vt 0.573684 0.250000
vt 0.557840 0.272671
vt 0.557840 0.477329
vt 0.551316 0.477191
vt 0.562500 0.477191
vt 0.554612 0.497974
vt 0.437500 0.507031
vt 0.445386 0.497802
vt 0.448684 0.477191
vt 0.573684 0.500000
vt 0.567067 0.494879
vt 0.566882 0.495501
vt 0.573684 0.500000
vt 0.562500 0.477191
vt 0.573684 0.272809
vt 0.572674 0.255040
vt 0.625000 0.250000
vt 0.625000 0.272809
vt 0.625000 0.250000
vt 0.567133 0.272681
vt 0.567133 0.477319
vt 0.573684 0.477191
vt 0.572674 0.494960
vt 0.625000 0.500000
vt 0.625000 0.500000
vt 0.625000 0.477191
vt 0.437500 0.000000
vt 0.562500 0.000000
vt 0.437500 0.750000
vt 0.562500 0.250000
vt 0.562500 0.500000
vt 0.562500 0.250000
vt 0.562500 0.500000
vt 0.625000 0.750000
vt 0.562500 0.750000
vt 0.625000 1.000000
vt 0.625000 1.000000
vt 0.562500 1.000000
vt 0.562500 1.000000
vt 0.437500 0.750000
vt 0.437500 1.000000
vt 0.437500 1.000000
vt 0.562500 1.000000
vt 0.437500 1.000000
vt 0.625000 1.000000
vt 0.625000 0.750000
vt 0.562500 0.750000
vt 0.437500 0.750000
vt 0.562500 1.000000
vt 0.437500 1.000000
vt 0.625000 1.000000
vt 0.625000 0.750000
vt 0.562500 0.750000
vt 0.437500 0.750000
vt 0.562500 1.000000
vt 0.437500 1.000000
vt 0.625000 1.000000
vt 0.625000 0.750000
vt 0.562500 0.750000
vt 0.437500 0.750000
vn -1.000000 0.000000 0.000000
vn -1.000000 0.000000 0.000000
vn -1.000000 0.000000 0.000000
vn -1.000000 0.000000 0.000000
vn 0.000000 0.000000 -1.000000
vn 0.000000 0.000000 -1.000000
vn 0.000000 0.000000 -1.000000
vn 0.010385 0.010193 -0.999894
vn 0.011381 0.050070 -0.998681
vn -0.009813 -0.999952 0.000000
vn 0.000000 -1.000000 0.000000
vn 0.000000 -1.000000 0.000000
vn -0.009813 -0.999952 0.000000
vn -0.013780 -0.999905 0.000000
vn -0.013780 -0.999905 0.000000
vn 0.035133 0.002887 0.999379
vn 0.000000 0.000000 1.000000
vn 0.010385 0.010193 0.999894
vn 0.216411 0.887204 0.407476
vn 0.183430 0.902437 0.389821
vn 0.208523 0.977365 0.035708
vn 0.237005 0.970806 0.036927
vn 0.011381 0.050070 0.998681
vn 0.015099 0.087823 0.996022
vn 0.063882 0.371581 0.926200
vn 0.069457 0.362748 0.929295
vn 0.998524 0.040713 0.035946
vn 0.998760 0.040763 0.028598
vn 0.930302 0.025991 0.365873
vn 0.920406 0.053106 0.387340
vn 0.389907 0.007776 0.920822
vn 0.393737 0.025245 0.918877
vn 0.053617 0.036497 0.997894
vn 0.237005 0.970807 -0.036927
vn 0.396389 0.917061 -0.043302
vn 0.396389 0.917061 0.043302
vn 0.928605 0.368597 0.042770
vn 0.928605 0.368597 -0.042770
vn 0.998524 0.040713 -0.035946
vn 0.069457 0.362748 -0.929295
vn 0.063882 0.371582 -0.926200
vn 0.015099 0.087824 -0.996022
vn 0.208523 0.977366 -0.035708
vn 0.183430 0.902437 -0.389822
vn 0.216411 0.887203 -0.407476
vn 0.035133 0.002887 -0.999379
vn 0.052132 0.034994 -0.998027
vn 0.396741 0.011387 -0.917860
vn 0.389907 0.007776 -0.920822
vn 0.920406 0.053106 -0.387340
vn 0.929391 0.011754 -0.368910
vn 0.998821 0.039875 -0.027674
vn 0.056281 0.997997 0.028903
vn 0.000000 0.999541 0.030282
vn 0.000000 0.923882 0.382678
vn 0.036778 0.924877 0.378484
vn 0.036779 0.378488 0.924875
vn 0.000000 0.382682 0.923880
vn 0.000000 0.037972 0.999279
vn 0.929425 0.368920 -0.008170
vn 0.930118 0.366805 0.018284
vn 0.394494 0.918700 0.019093
vn 0.396747 0.917888 -0.008533
vn 0.055115 0.998096 -0.027686
vn 0.000000 0.037972 -0.999279
vn 0.000000 0.382682 -0.923880
vn 0.016842 0.382628 -0.923749
vn 0.016842 0.923750 -0.382624
vn 0.000000 0.923882 -0.382678
vn 0.000000 0.999541 -0.030282
vn 0.000000 0.000000 1.000000
vn 0.000000 0.000000 1.000000
vn 0.000000 0.000000 -1.000000
vn -1.000000 -0.000000 0.000000
vn -1.000000 -0.000000 0.000000
vn 0.208566 0.196942 0.957974
vn 0.824036 0.327092 0.462574
vn 0.349452 0.808456 0.473584
vn 0.824036 0.327092 -0.462574
vn 0.208565 0.196942 -0.957974
vn 0.349452 0.808456 -0.473584
vn 0.337844 0.323750 0.883769
vn 0.337838 0.883772 0.323748
vn 0.895695 0.314427 0.314429
vn 0.336709 0.883798 -0.324850
vn 0.336715 0.324851 -0.883796
vn 0.895695 0.314427 -0.314431
vn -1.000000 -0.000004 0.000000
vn -1.000000 -0.000004 0.000000
vn -1.000000 -0.000003 0.000000
vn -1.000000 -0.000003 0.000000
vn 0.000000 0.000000 1.000000
vn 0.000000 0.000000 -1.000000
vn 0.000000 0.000000 -1.000000
vn 0.000000 0.000000 -1.000000
vn 0.000000 0.000000 -1.000000
vn -1.000000 0.000000 0.000000
vn -1.000000 0.000000 0.000000
vn -1.000000 0.000000 0.000000
vn -1.000000 0.000000 0.000000
vn 0.000000 0.000000 1.000000
vn 0.000000 0.000000 1.000000
vn 0.000000 0.000000 1.000000
vn 0.000000 0.000000 1.000000
vn 0.000000 0.000000 -1.000000
vn 0.000000 0.000000 -1.000000
vn 0.000000 0.000000 -1.000000
vn 0.000000 0.000000 -1.000000
vn 0.000000 0.000000 1.000000
vn 0.000000 0.000000 1.000000
vn 0.000000 0.000000 1.000000
vn 0.000000 0.000000 1.000000
vn -0.000000 0.000000 1.000000
vn -0.000000 0.000000 1.000000
vn -0.000000 0.000000 1.000000
vn -0.000000 0.000000 1.000000
vn 0.000000 0.000000 1.000000
vn 0.000000 0.000000 1.000000
vn 0.000000 0.000000 1.000000
vn 0.000000 0.000000 1.000000
vn -1.000000 0.000000 0.000000
vn -1.000000 0.000000 0.000000
vn -1.000000 0.000000 0.000000
vn -1.000000 0.000000 0.000000
vn 0.000000 0.000000 -1.000000
vn 0.000000 0.000000 -1.000000
vn 0.000000 0.000000 -1.000000
vn 0.000000 0.000000 -1.000000
vn -0.000000 -0.000000 -1.000000
vn -0.000000 -0.000000 -1.000000
vn -0.000000 -0.000000 -1.000000
vn -0.000000 -0.000000 -1.000000
vn 0.016716 0.309299 0.950818
vn 0.016716 0.309299 0.950818
vn 0.016716 0.309299 0.950818
vn 0.016716 0.309299 0.950818
vn 0.000000 0.300221 0.953870
vn 0.000000 0.300221 0.953870
vn 0.000000 0.300221 0.953870
vn 0.000000 0.300221 0.953870
vn -1.000000 0.000000 0.000000
vn -1.000000 0.000000 0.000000
vn -1.000000 0.000000 0.000000
vn -1.000000 0.000000 0.000000
vn 0.000000 0.300221 -0.953870
vn 0.000000 0.300221 -0.953870
vn 0.000000 0.300221 -0.953870
vn 0.000000 0.300221 -0.953870
vn 0.016716 0.309299 -0.950818
vn 0.016716 0.309299 -0.950818
vn 0.016716 0.309299 -0.950818
vn 0.016716 0.309299 -0.950818
vn -0.000000 -0.000000 1.000000
vn -0.000000 -0.000000 1.000000
vn -0.000000 -0.000000 1.000000
vn -0.000000 -0.000000 1.000000
vn 0.000000 0.000000 1.000000
vn 0.000000 0.000000 1.000000
vn 0.000000 0.000000 1.000000
vn 0.000000 0.000000 1.000000
vn -1.000000 0.000000 0.000000
vn -1.000000 0.000000 0.000000
vn -1.000000 0.000000 0.000000
vn -1.000000 0.000000 0.000000
vn 0.000000 0.000000 -1.000000
vn 0.000000 0.000000 -1.000000
vn 0.000000 0.000000 -1.000000
vn 0.000000 0.000000 -1.000000
vn 0.000000 -0.000000 -1.000000
vn 0.000000 -0.000000 -1.000000
vn 0.000000 -0.000000 -1.000000
vn 0.000000 -0.000000 -1.000000
vn -0.015639 -0.158698 0.987203
vn -0.015639 -0.158698 0.987203
vn -0.015639 -0.158698 0.987203
vn -0.015639 -0.158698 0.987203
vn 0.000000 -0.152668 0.988278
vn 0.000000 -0.152668 0.988278
vn 0.000000 -0.152668 0.988278
vn 0.000000 -0.152668 0.988278
vn -1.000000 0.000000 0.000000
vn -1.000000 0.000000 0.000000
vn -1.000000 0.000000 0.000000
vn -1.000000 0.000000 0.000000
vn 0.000000 -0.152668 -0.988278
vn 0.000000 -0.152668 -0.988278
vn 0.000000 -0.152668 -0.988278
vn 0.000000 -0.152668 -0.988278
vn -0.015639 -0.158698 -0.987203
vn -0.015639 -0.158698 -0.987203
vn -0.015639 -0.158698 -0.987203
vn -0.015639 -0.158698 -0.987203
vn 0.094809 -0.023604 0.995216
vn 0.371352 -0.092065 0.923916
vn 0.378210 -0.058404 0.923876
vn 0.079202 -0.012407 0.996781
vn 0.896621 -0.222596 0.382781
vn 0.969321 -0.240247 0.051951
vn 0.986984 -0.152171 0.052031
vn 0.912952 -0.141645 0.382695
vn -0.985051 0.163910 0.052997
vn -0.911409 0.151726 0.382509
vn -0.914941 0.131817 0.381453
vn -0.988152 0.143999 0.053109
vn -0.377660 0.062607 0.923825
vn -0.080463 0.013396 0.996668
vn -0.070665 0.010032 0.997450
vn -0.379739 0.055599 0.923422
vn -0.820102 -0.569259 -0.058110
vn -0.754820 -0.526415 -0.391322
vn -0.810585 -0.436585 -0.390315
vn -0.877207 -0.476649 -0.057570
vn -0.307241 -0.215690 -0.926866
vn -0.046608 -0.032852 -0.998373
vn -0.052584 -0.028049 -0.998223
vn -0.333705 -0.177805 -0.925757
vn -0.719055 -0.692290 0.060785
vn -0.680741 -0.619754 0.390508
vn -0.542276 -0.745645 0.387235
vn -0.580633 -0.811353 0.067609
vn -0.287450 -0.236836 0.928052
vn -0.029994 -0.024246 0.999256
vn -0.026436 -0.035135 0.999033
vn -0.228835 -0.300899 0.925794
vn -0.102036 0.016496 -0.994644
vn -0.377631 0.061052 -0.923941
vn -0.377659 0.062611 -0.923826
vn -0.080470 0.013390 -0.996667
vn -0.911974 0.147458 -0.382832
vn -0.985902 0.159417 -0.050818
vn -0.985050 0.163911 -0.053000
vn -0.911403 0.151735 -0.382519
vn 0.966823 -0.249315 -0.055631
vn 0.894590 -0.230690 -0.382741
vn 0.896622 -0.222591 -0.382782
vn 0.969321 -0.240247 -0.051952
vn 0.370503 -0.095546 -0.923904
vn 0.067448 -0.017394 -0.997571
vn 0.094829 -0.023619 -0.995213
vn 0.371352 -0.092061 -0.923917
vn 0.433698 0.899563 0.051883
vn 0.400391 0.832068 0.383862
vn 0.507487 0.771306 0.384116
vn 0.549147 0.834129 0.051639
vn 0.165747 0.343672 0.924347
vn 0.033158 0.069001 0.997066
vn 0.045245 0.068664 0.996613
vn 0.209238 0.318669 0.924483
vn 0.033117 0.069043 -0.997064
vn 0.165785 0.343636 -0.924354
vn 0.209285 0.318642 -0.924482
vn 0.044367 0.067535 -0.996730
vn 0.400428 0.832045 -0.383873
vn 0.433701 0.899561 -0.051896
vn 0.549148 0.834127 -0.051657
vn 0.507571 0.771254 -0.384108
vn -0.352163 -0.934321 -0.055005
vn -0.327112 -0.862252 -0.386677
vn -0.451143 -0.805211 -0.384845
vn -0.461154 -0.886012 -0.048167
vn -0.133875 -0.354085 -0.925582
vn -0.017206 -0.044724 -0.998851
vn -0.025778 -0.045369 -0.998638
vn -0.187296 -0.331203 -0.924784
vn -0.352146 -0.934327 0.055016
vn -0.327008 -0.862266 0.386735
vn -0.228398 -0.894648 0.383979
vn -0.247312 -0.967431 0.053985
vn -0.133623 -0.354078 0.925621
vn -0.017121 -0.044792 0.998850
vn -0.012396 -0.048970 0.998723
vn -0.093130 -0.369957 0.924370
vn 0.966823 -0.249315 0.055631
vn -0.102036 0.016496 0.994644
vn 0.067448 -0.017394 0.997571
vn 0.075976 0.042405 -0.996208
vn 0.065768 0.049036 -0.996629
vn 0.875971 0.480075 0.046927
vn 0.874686 0.481145 -0.058518
vn 0.799803 0.597763 -0.054728
vn 0.801363 0.596131 0.049459
vn 0.095367 0.068539 0.993080
vn -0.016633 -0.010483 0.999807
vn -0.022773 -0.014181 0.999640
vn 0.101793 0.059035 0.993052
vn -0.985902 0.159417 0.050818
vn -0.876659 -0.478478 0.050269
vn -0.819538 -0.570444 0.054333
vn -0.113447 -0.992014 -0.055123
vn -0.113447 -0.992014 0.055123
vn -0.000000 -0.998534 0.054129
vn -0.000000 -0.998534 -0.054128
vn 0.644830 0.762619 -0.051056
vn 0.645364 0.762004 0.053432
vn 0.714348 0.697760 0.053281
vn 0.713236 0.699071 -0.050943
vn -0.032805 -0.045038 -0.998447
vn 0.050769 0.060080 -0.996902
vn 0.057673 0.056315 -0.996746
vn -0.039943 -0.040687 -0.998373
vn -0.714274 -0.698166 -0.048753
vn -0.583180 -0.811309 -0.040964
vn 0.058176 0.063957 0.996256
vn 0.077877 0.067706 0.994661
vn 0.330010 0.942561 -0.051695
vn 0.330010 0.942561 0.051695
vn -0.012396 -0.048970 -0.998723
vn 0.024847 0.071515 -0.997130
vn -0.247312 -0.967431 -0.053986
vn 0.024847 0.071515 0.997130
vn -0.453253 -0.889374 0.059801
vn -0.024001 -0.049715 0.998475
vn -0.988149 0.144006 -0.053136
vn 0.986984 -0.152166 -0.052041
vn -0.070669 0.009984 -0.997450
vn 0.079326 -0.012469 -0.996771
vn 0.000000 -1.000000 0.000000
vn 0.000000 -1.000000 0.000000
vn 0.000000 -1.000000 0.000000
vn 0.000000 -1.000000 0.000000
vn 0.000000 -1.000000 0.000000
vn 0.000000 -1.000000 0.000000
vn 0.000000 -1.000000 0.000000
vn 0.000000 -1.000000 0.000000
vn 0.000000 -1.000000 0.000000
vn 0.000000 -1.000000 0.000000
vn 0.000000 -1.000000 0.000000
vn 0.000000 -1.000000 0.000000
vn 0.370503 -0.095546 0.923904
vn 0.894590 -0.230690 0.382741
vn -0.911974 0.147458 0.382832
vn -0.377631 0.061052 0.923941
vn 0.301734 0.223430 -0.926842
vn 0.328951 0.183587 -0.926330
vn 0.737287 0.551060 -0.390821
vn 0.805102 0.445687 -0.391374
vn -0.914891 0.131877 -0.381554
vn -0.379769 0.055596 -0.923409
vn 0.378183 -0.058350 -0.923890
vn 0.912941 -0.141619 -0.382731
vn -0.296209 -0.199506 0.934054
vn -0.307225 -0.180648 0.934334
vn -0.755519 -0.522978 0.394569
vn -0.804962 -0.446899 0.390280
vn 0.304478 0.871814 0.383711
vn 0.126211 0.360142 0.924321
vn 0.601522 0.701429 0.382321
vn 0.667779 0.638944 0.381866
vn 0.257334 0.286944 0.922736
vn 0.296568 0.257299 0.919698
vn 0.126211 0.360142 -0.924321
vn 0.304478 0.871814 -0.383711
vn 0.658533 0.646411 -0.385340
vn 0.595873 0.706081 -0.382603
vn 0.271847 0.264520 -0.925272
vn 0.246452 0.292400 -0.923994
vn -0.228398 -0.894647 -0.383981
vn -0.093130 -0.369957 -0.924369
vn -0.264148 -0.271554 -0.925465
vn -0.224360 -0.309745 -0.923970
vn -0.647426 -0.656967 -0.386309
vn -0.541475 -0.748742 -0.382349
vn -0.396786 -0.834478 0.382370
vn -0.166956 -0.343863 0.924058
vn -0.107163 -0.916695 0.384950
vn -0.000000 -0.923252 0.384194
vn -0.044966 -0.377804 0.924793
vn -0.005429 -0.044120 0.999012
vn 0.000000 -0.045573 0.998961
vn 0.000000 -0.380857 0.924634
vn 0.344311 0.201799 0.916912
vn 0.323795 0.232267 0.917174
vn 0.810839 0.447531 0.377169
vn 0.743087 0.550314 0.380759
vn -0.961171 -0.269898 -0.057492
vn -0.888395 -0.243661 -0.389079
vn -0.916433 -0.098871 -0.387782
vn -0.992372 -0.110267 -0.055137
vn -0.992184 -0.112711 0.053546
vn -0.959640 -0.276098 0.053481
vn -0.880531 -0.273676 0.386997
vn -0.914668 -0.115098 0.387473
vn -0.036673 -0.013580 0.999235
vn -0.348127 -0.125909 0.928954
vn -0.370464 -0.054306 0.927258
vn -0.056112 -0.008314 0.998390
vn 0.103357 0.030195 0.994186
vn 0.088183 0.011679 0.996036
vn 0.377135 0.049447 0.924837
vn 0.372778 0.108471 0.921559
vn 0.916542 0.106854 0.385400
vn 0.991779 0.117186 0.051400
vn 0.966343 0.252855 0.047394
vn 0.895075 0.232772 0.380341
vn 0.991554 0.117941 -0.053955
vn 0.965383 0.254705 -0.056232
vn 0.889978 0.238081 -0.388917
vn 0.914766 0.111091 -0.388410
vn 0.094530 0.024804 -0.995213
vn 0.365973 0.097408 -0.925514
vn 0.375136 0.045386 -0.925858
vn 0.087942 0.010482 -0.996070
vn -0.059425 -0.006761 -0.998210
vn -0.048922 -0.013855 -0.998707
vn -0.364516 -0.101505 -0.925649
vn -0.375744 -0.041248 -0.925805
vn 0.082981 0.002895 0.996547
vn 0.379317 0.013189 0.925173
vn -0.066207 -0.000816 0.997806
vn -0.379610 -0.003281 0.925141
vn -0.998439 -0.013657 0.054161
vn -0.922581 -0.013431 0.385571
vn -0.998436 -0.013649 -0.054211
vn -0.922562 -0.013273 -0.385621
vn -0.066180 -0.000929 -0.997807
vn -0.379971 -0.003398 -0.924992
vn 0.083358 0.002816 -0.996516
vn 0.378957 0.013344 -0.925318
vn 0.998162 0.030493 -0.052364
vn 0.922017 0.028557 -0.386094
vn 0.998167 0.030477 0.052288
vn 0.922162 0.028498 0.385754
vn -0.836420 -0.387100 -0.388015
vn -0.903856 -0.423965 -0.057424
vn -0.902540 -0.427529 0.051391
vn -0.828949 -0.404207 0.386600
vn -0.322733 -0.170496 0.931007
vn -0.026507 -0.015476 0.999529
vn 0.103458 0.045918 0.993573
vn 0.362754 0.160384 0.917980
vn 0.857150 0.352527 0.375523
vn 0.924329 0.378832 0.045862
vn 0.923187 0.379919 -0.058195
vn 0.851092 0.353170 -0.388477
vn 0.350640 0.146261 -0.925018
vn 0.084949 0.035292 -0.995760
vn -0.048843 -0.022490 -0.998553
vn -0.345388 -0.158670 -0.924949
vn 0.081694 -0.005961 0.996640
vn 0.381180 -0.027608 0.924088
vn 0.921209 -0.067555 0.383160
vn 0.996010 -0.072637 0.051843
vn 0.996010 -0.072627 -0.051868
vn 0.921160 -0.067516 -0.383284
vn 0.381060 -0.027502 -0.924141
vn 0.081949 -0.006045 -0.996618
vn -0.069066 0.005230 -0.997598
vn -0.381929 0.029959 -0.923706
vn -0.921298 0.071137 -0.382294
vn -0.995544 0.077689 -0.053452
vn -0.995546 0.077680 0.053415
vn -0.921361 0.071049 0.382159
vn -0.381815 0.029972 0.923753
vn -0.069039 0.005300 0.997600
vn 0.179765 0.982376 0.051198
vn 0.164842 0.908671 0.383595
vn 0.069088 0.375499 0.924244
vn 0.013400 0.075098 0.997086
vn -0.107163 -0.916696 -0.384947
vn -0.044966 -0.377803 -0.924794
vn -0.005429 -0.044120 -0.999012
vn 0.013400 0.075098 -0.997086
vn 0.069088 0.375500 -0.924244
vn 0.164842 0.908671 -0.383595
vn 0.179765 0.982376 -0.051198
vn 0.000000 0.998702 0.050943
vn -0.000000 0.923089 0.384587
vn -0.000000 0.380857 0.924634
vn 0.000000 0.079447 0.996839
vn 0.000000 0.998702 -0.050943
vn -0.000000 -0.045573 -0.998961
vn -0.000000 0.079448 -0.996839
vn -0.000000 0.380859 -0.924633
vn 0.000000 0.923088 -0.384588
vn -0.000000 -0.923255 -0.384188
vn -0.000000 -0.380856 -0.924634
vn -0.094809 -0.023604 0.995216
vn -0.079202 -0.012407 0.996781
vn -0.378210 -0.058404 0.923876
vn -0.371353 -0.092065 0.923916
vn -0.896621 -0.222596 0.382783
vn -0.912951 -0.141645 0.382696
vn -0.986984 -0.152171 0.052031
vn -0.969321 -0.240247 0.051952
vn 0.985051 0.163910 0.052997
vn 0.988152 0.143999 0.053109
vn 0.914941 0.131817 0.381454
vn 0.911409 0.151726 0.382509
vn 0.377660 0.062608 0.923825
vn 0.379739 0.055599 0.923421
vn 0.070665 0.010032 0.997450
vn 0.080463 0.013396 0.996668
vn 0.820102 -0.569259 -0.058110
vn 0.877207 -0.476649 -0.057570
vn 0.810585 -0.436586 -0.390313
vn 0.754821 -0.526416 -0.391320
vn 0.307241 -0.215690 -0.926866
vn 0.333705 -0.177805 -0.925757
vn 0.052584 -0.028049 -0.998223
vn 0.046608 -0.032852 -0.998373
vn 0.719055 -0.692290 0.060785
vn 0.580633 -0.811353 0.067609
vn 0.542276 -0.745644 0.387235
vn 0.680741 -0.619754 0.390508
vn 0.287451 -0.236836 0.928052
vn 0.228835 -0.300899 0.925794
vn 0.026436 -0.035135 0.999033
vn 0.029994 -0.024246 0.999256
vn 0.102036 0.016496 -0.994644
vn 0.080470 0.013390 -0.996667
vn 0.377659 0.062611 -0.923825
vn 0.377631 0.061052 -0.923941
vn 0.911974 0.147458 -0.382832
vn 0.911403 0.151735 -0.382519
vn 0.985050 0.163911 -0.053000
vn 0.985902 0.159417 -0.050818
vn -0.966823 -0.249315 -0.055631
vn -0.969321 -0.240247 -0.051952
vn -0.896621 -0.222591 -0.382783
vn -0.894589 -0.230690 -0.382743
vn -0.370504 -0.095546 -0.923904
vn -0.371353 -0.092061 -0.923917
vn -0.094829 -0.023619 -0.995213
vn -0.067448 -0.017394 -0.997571
vn -0.433698 0.899563 0.051883
vn -0.549147 0.834129 0.051639
vn -0.507487 0.771306 0.384115
vn -0.400391 0.832068 0.383862
vn -0.165747 0.343672 0.924347
vn -0.209238 0.318669 0.924483
vn -0.045245 0.068664 0.996613
vn -0.033158 0.069001 0.997065
vn -0.033117 0.069043 -0.997064
vn -0.044367 0.067535 -0.996730
vn -0.209285 0.318642 -0.924482
vn -0.165785 0.343636 -0.924354
vn -0.400428 0.832045 -0.383873
vn -0.507571 0.771254 -0.384108
vn -0.549148 0.834128 -0.051657
vn -0.433701 0.899561 -0.051896
vn 0.352163 -0.934321 -0.055006
vn 0.461154 -0.886012 -0.048167
vn 0.451143 -0.805211 -0.384846
vn 0.327111 -0.862251 -0.386679
vn 0.133875 -0.354085 -0.925582
vn 0.187296 -0.331203 -0.924784
vn 0.025778 -0.045369 -0.998638
vn 0.017206 -0.044724 -0.998851
vn 0.352146 -0.934327 0.055016
vn 0.247312 -0.967431 0.053985
vn 0.228398 -0.894647 0.383980
vn 0.327008 -0.862265 0.386736
vn 0.133623 -0.354078 0.925621
vn 0.093130 -0.369956 0.924370
vn 0.012396 -0.048970 0.998723
vn 0.017121 -0.044792 0.998850
vn -0.966823 -0.249315 0.055631
vn -0.067448 -0.017394 0.997571
vn 0.102036 0.016496 0.994644
vn -0.075976 0.042405 -0.996208
vn -0.065768 0.049036 -0.996629
vn -0.875972 0.480075 0.046927
vn -0.801363 0.596130 0.049459
vn -0.799803 0.597762 -0.054728
vn -0.874686 0.481145 -0.058518
vn -0.095366 0.068539 0.993080
vn -0.101793 0.059035 0.993052
vn 0.022773 -0.014181 0.999640
vn 0.016633 -0.010483 0.999807
vn 0.985902 0.159417 0.050818
vn 0.819538 -0.570444 0.054333
vn 0.876660 -0.478478 0.050268
vn 0.113447 -0.992014 -0.055123
vn 0.113447 -0.992014 0.055123
vn -0.644830 0.762619 -0.051056
vn -0.713236 0.699071 -0.050943
vn -0.714347 0.697760 0.053281
vn -0.645364 0.762004 0.053432
vn 0.032805 -0.045038 -0.998447
vn 0.039943 -0.040687 -0.998373
vn -0.057673 0.056315 -0.996746
vn -0.050769 0.060080 -0.996902
vn 0.714274 -0.698166 -0.048753
vn 0.583181 -0.811309 -0.040964
vn -0.058175 0.063957 0.996256
vn -0.077877 0.067706 0.994661
vn -0.330010 0.942561 -0.051696
vn -0.330010 0.942561 0.051696
vn 0.012396 -0.048970 -0.998723
vn -0.024847 0.071515 -0.997130
vn 0.247312 -0.967431 -0.053986
vn -0.024847 0.071515 0.997130
vn 0.453253 -0.889374 0.059801
vn 0.024001 -0.049715 0.998475
vn 0.988149 0.144005 -0.053136
vn -0.986984 -0.152166 -0.052041
vn -0.079326 -0.012469 -0.996771
vn 0.070669 0.009984 -0.997450
vn 0.000000 -1.000000 0.000000
vn 0.000000 -1.000000 0.000000
vn 0.000000 -1.000000 0.000000
vn 0.000000 -1.000000 0.000000
vn 0.000000 -1.000000 0.000000
vn 0.000000 -1.000000 0.000000
vn 0.000000 -1.000000 0.000000
vn 0.000000 -1.000000 0.000000
vn 0.000000 -1.000000 0.000000
vn 0.000000 -1.000000 0.000000
vn 0.000000 -1.000000 0.000000
vn 0.000000 -1.000000 0.000000
vn -0.370504 -0.095546 0.923904
vn -0.894589 -0.230690 0.382743
vn 0.911974 0.147458 0.382832
vn 0.377631 0.061052 0.923941
vn -0.328951 0.183588 -0.926330
vn -0.301734 0.223431 -0.926842
vn -0.737286 0.551060 -0.390822
vn -0.805102 0.445687 -0.391375
vn 0.914891 0.131876 -0.381554
vn 0.379769 0.055596 -0.923409
vn -0.378182 -0.058350 -0.923891
vn -0.912942 -0.141619 -0.382729
vn 0.307225 -0.180647 0.934334
vn 0.296209 -0.199506 0.934054
vn 0.755519 -0.522978 0.394569
vn 0.804962 -0.446899 0.390280
vn -0.304478 0.871813 0.383712
vn -0.126210 0.360142 0.924321
vn -0.667778 0.638944 0.381868
vn -0.601521 0.701429 0.382322
vn -0.257333 0.286944 0.922737
vn -0.296567 0.257298 0.919699
vn -0.126210 0.360142 -0.924321
vn -0.304478 0.871813 -0.383712
vn -0.595873 0.706080 -0.382604
vn -0.658533 0.646411 -0.385341
vn -0.271847 0.264519 -0.925272
vn -0.246451 0.292399 -0.923994
vn 0.228398 -0.894646 -0.383982
vn 0.093130 -0.369956 -0.924370
vn 0.224360 -0.309745 -0.923970
vn 0.264148 -0.271554 -0.925465
vn 0.647426 -0.656967 -0.386309
vn 0.541475 -0.748742 -0.382349
vn 0.396786 -0.834478 0.382372
vn 0.166956 -0.343863 0.924058
vn 0.107163 -0.916695 0.384951
vn 0.044966 -0.377803 0.924793
vn 0.005429 -0.044120 0.999012
vn -0.323795 0.232267 0.917175
vn -0.344311 0.201798 0.916912
vn -0.810840 0.447530 0.377168
vn -0.743087 0.550313 0.380760
vn 0.961171 -0.269898 -0.057492
vn 0.992371 -0.110267 -0.055137
vn 0.916432 -0.098872 -0.387784
vn 0.888395 -0.243662 -0.389080
vn 0.959640 -0.276099 0.053481
vn 0.992184 -0.112711 0.053546
vn 0.880531 -0.273676 0.386997
vn 0.914667 -0.115098 0.387474
vn 0.036673 -0.013580 0.999235
vn 0.056112 -0.008314 0.998390
vn 0.370464 -0.054306 0.927258
vn 0.348126 -0.125909 0.928954
vn -0.103357 0.030195 0.994186
vn -0.088183 0.011679 0.996036
vn -0.372778 0.108471 0.921559
vn -0.377135 0.049447 0.924837
vn -0.916542 0.106854 0.385400
vn -0.895074 0.232773 0.380340
vn -0.966343 0.252856 0.047394
vn -0.991779 0.117186 0.051400
vn -0.965383 0.254705 -0.056232
vn -0.991554 0.117941 -0.053955
vn -0.889978 0.238082 -0.388917
vn -0.914765 0.111091 -0.388411
vn -0.094530 0.024804 -0.995213
vn -0.087942 0.010482 -0.996070
vn -0.375136 0.045387 -0.925858
vn -0.365973 0.097408 -0.925514
vn 0.048922 -0.013855 -0.998707
vn 0.059425 -0.006761 -0.998210
vn 0.364516 -0.101505 -0.925648
vn 0.375744 -0.041249 -0.925805
vn -0.082980 0.002895 0.996547
vn -0.379317 0.013189 0.925173
vn 0.066207 -0.000816 0.997806
vn 0.379610 -0.003280 0.925141
vn 0.998439 -0.013657 0.054161
vn 0.922580 -0.013431 0.385571
vn 0.998436 -0.013649 -0.054211
vn 0.922561 -0.013273 -0.385623
vn 0.379971 -0.003398 -0.924992
vn 0.066179 -0.000929 -0.997807
vn -0.083358 0.002816 -0.996516
vn -0.378957 0.013344 -0.925318
vn -0.922017 0.028557 -0.386095
vn -0.998162 0.030492 -0.052365
vn -0.998167 0.030477 0.052288
vn -0.922162 0.028497 0.385753
vn 0.903856 -0.423965 -0.057424
vn 0.836420 -0.387100 -0.388015
vn 0.902540 -0.427529 0.051390
vn 0.828950 -0.404207 0.386600
vn 0.026507 -0.015476 0.999529
vn 0.322732 -0.170496 0.931008
vn -0.103458 0.045918 0.993573
vn -0.362754 0.160384 0.917979
vn -0.857151 0.352527 0.375523
vn -0.924329 0.378832 0.045862
vn -0.923187 0.379920 -0.058195
vn -0.851092 0.353169 -0.388477
vn -0.084949 0.035292 -0.995760
vn -0.350641 0.146261 -0.925018
vn 0.048843 -0.022490 -0.998553
vn 0.345387 -0.158670 -0.924949
vn -0.081694 -0.005962 0.996640
vn -0.381181 -0.027609 0.924088
vn -0.921208 -0.067555 0.383161
vn -0.996010 -0.072637 0.051843
vn -0.996010 -0.072628 -0.051869
vn -0.921160 -0.067516 -0.383284
vn -0.081949 -0.006045 -0.996618
vn -0.381059 -0.027502 -0.924142
vn 0.069066 0.005231 -0.997598
vn 0.381930 0.029959 -0.923706
vn 0.995544 0.077688 -0.053452
vn 0.921298 0.071137 -0.382294
vn 0.995546 0.077679 0.053415
vn 0.921361 0.071049 0.382159
vn 0.381815 0.029972 0.923753
vn 0.069039 0.005300 0.997600
vn -0.179765 0.982376 0.051198
vn -0.164842 0.908671 0.383594
vn -0.069088 0.375499 0.924244
vn -0.013400 0.075098 0.997086
vn 0.107163 -0.916696 -0.384948
vn 0.044966 -0.377804 -0.924793
vn 0.005429 -0.044120 -0.999012
vn -0.013400 0.075098 -0.997086
vn -0.069088 0.375500 -0.924244
vn -0.164842 0.908670 -0.383595
vn -0.179765 0.982376 -0.051198
vn 1.000000 0.000000 0.000000
vn 1.000000 0.000000 0.000000
vn 1.000000 0.000000 0.000000
vn 1.000000 0.000000 0.000000
vn 0.000000 0.000000 -1.000000
vn -0.010867 0.049449 -0.998717
vn -0.010041 0.010041 -0.999899
vn 0.000000 0.000000 -1.000000
vn 0.000000 0.000000 -1.000000
vn 0.009404 -0.999956 0.000000
vn 0.009404 -0.999956 0.000000
vn 0.000000 -1.000000 0.000000
vn 0.000000 -1.000000 0.000000
vn 0.013205 -0.999913 0.000000
vn 0.013205 -0.999913 0.000000
vn -0.034097 0.002834 0.999415
vn -0.010041 0.010041 0.999899
vn -0.000000 0.000000 1.000000
vn -0.208422 0.888592 0.408613
vn -0.227591 0.973045 0.037216
vn -0.200179 0.979105 0.035807
vn -0.176021 0.903680 0.390357
vn -0.010867 0.049449 0.998717
vn -0.066371 0.363153 0.929363
vn -0.061227 0.371642 0.926355
vn -0.014380 0.087286 0.996080
vn -0.998392 0.042509 0.037510
vn -0.914301 0.054608 0.401337
vn -0.924787 0.027095 0.379519
vn -0.998650 0.042520 0.029826
vn -0.375752 0.008095 0.926685
vn -0.051398 0.036513 0.998011
vn -0.379748 0.025207 0.924747
vn -0.382309 0.922984 0.044047
vn -0.382309 0.922984 -0.044047
vn -0.227591 0.973045 -0.037216
vn -0.922981 0.382316 0.044047
vn -0.998392 0.042509 -0.037510
vn -0.922981 0.382316 -0.044047
vn -0.066371 0.363153 -0.929363
vn -0.014380 0.087286 -0.996080
vn -0.061228 0.371642 -0.926355
vn -0.208422 0.888592 -0.408613
vn -0.176021 0.903680 -0.390357
vn -0.200179 0.979105 -0.035807
vn -0.034097 0.002834 -0.999415
vn -0.375752 0.008095 -0.926685
vn -0.382659 0.011368 -0.923820
vn -0.049963 0.035008 -0.998137
vn -0.914301 0.054608 -0.401337
vn -0.998717 0.041600 -0.028868
vn -0.923810 0.012254 -0.382656
vn -0.053949 0.998125 0.028917
vn -0.035346 0.924929 0.378493
vn 0.000000 0.923881 0.382680
vn 0.000000 0.999541 0.030282
vn -0.035346 0.378495 0.924928
vn 0.000000 0.037972 0.999279
vn 0.000000 0.382682 0.923880
vn -0.924590 0.380488 0.019062
vn -0.923845 0.382671 -0.008518
vn -0.380482 0.924592 0.019062
vn -0.052823 0.998220 -0.027698
vn -0.382665 0.923848 -0.008518
vn -0.016188 0.382632 -0.923759
vn 0.000000 0.382682 -0.923880
vn 0.000000 0.037972 -0.999279
vn -0.016188 0.923760 -0.382629
vn 0.000000 0.999541 -0.030282
vn 0.000000 0.923881 -0.382680
vn 0.000000 0.000000 1.000000
vn -0.000000 0.000000 1.000000
vn 0.000000 0.000000 -1.000000
vn 1.000000 -0.000000 0.000000
vn 1.000000 -0.000000 0.000000
vn -0.198757 0.198756 0.959683
vn -0.812517 0.336561 0.475965
vn -0.336558 0.812520 0.475962
vn -0.812517 0.336561 -0.475965
vn -0.198757 0.198757 -0.959683
vn -0.336558 0.812520 -0.475963
vn -0.325269 0.325268 0.887919
vn -0.325266 0.887923 0.325263
vn -0.887920 0.325268 0.325266
vn -0.325266 0.887923 -0.325263
vn -0.325269 0.325269 -0.887919
vn -0.887921 0.325267 -0.325267
vn 1.000000 0.000000 0.000000
vn 1.000000 0.000011 0.000000
vn 1.000000 0.000011 0.000000
vn 1.000000 0.000000 0.000000
vn -0.000000 0.000000 1.000000
vn 0.000000 0.000000 -1.000000
vn 0.000000 0.000000 -1.000000
vn 0.000000 0.000000 -1.000000
vn 0.000000 0.000000 -1.000000
vn 1.000000 0.000000 0.000000
vn 1.000000 0.000000 0.000000
vn 1.000000 0.000000 0.000000
vn 1.000000 0.000000 0.000000
vn 0.000000 0.000000 1.000000
vn 0.000000 0.000000 1.000000
vn 0.000000 0.000000 1.000000
vn 0.000000 0.000000 1.000000
vn 0.000000 0.000000 -1.000000
vn 0.000000 0.000000 -1.000000
vn 0.000000 0.000000 -1.000000
vn 0.000000 0.000000 -1.000000
vn 0.000000 0.000000 1.000000
vn 0.000000 0.000000 1.000000
vn 0.000000 0.000000 1.000000
vn 0.000000 0.000000 1.000000
vn 0.000000 0.000000 1.000000
vn 0.000000 0.000000 1.000000
vn 0.000000 0.000000 1.000000
vn 0.000000 0.000000 1.000000
vn 0.000000 0.000000 1.000000
vn 0.000000 0.000000 1.000000
vn 0.000000 0.000000 1.000000
vn 0.000000 0.000000 1.000000
vn 1.000000 0.000000 0.000000
vn 1.000000 0.000000 0.000000
vn 1.000000 0.000000 0.000000
vn 1.000000 0.000000 0.000000
vn 0.000000 0.000000 -1.000000
vn 0.000000 0.000000 -1.000000
vn 0.000000 0.000000 -1.000000
vn 0.000000 0.000000 -1.000000
vn 0.000000 -0.000000 -1.000000
vn 0.000000 -0.000000 -1.000000
vn 0.000000 -0.000000 -1.000000
vn 0.000000 -0.000000 -1.000000
vn -0.016019 0.309303 0.950829
vn -0.016019 0.309303 0.950829
vn -0.016019 0.309303 0.950829
vn -0.016019 0.309303 0.950829
vn 0.000000 0.300221 0.953870
vn 0.000000 0.300221 0.953870
vn 0.000000 0.300221 0.953870
vn 0.000000 0.300221 0.953870
vn 1.000000 0.000001 0.000000
vn 1.000000 0.000001 0.000000
vn 1.000000 0.000001 0.000000
vn 1.000000 0.000001 0.000000
vn 0.000000 0.300221 -0.953870
vn 0.000000 0.300221 -0.953870
vn 0.000000 0.300221 -0.953870
vn 0.000000 0.300221 -0.953870
vn -0.016019 0.309303 -0.950829
vn -0.016019 0.309303 -0.950829
vn -0.016019 0.309303 -0.950829
vn -0.016019 0.309303 -0.950829
vn 0.000000 -0.000000 1.000000
vn 0.000000 -0.000000 1.000000
vn 0.000000 -0.000000 1.000000
vn 0.000000 -0.000000 1.000000
vn 0.000000 0.000000 1.000000
vn 0.000000 0.000000 1.000000
vn 0.000000 0.000000 1.000000
vn 0.000000 0.000000 1.000000
vn 1.000000 0.000000 0.000000
vn 1.000000 0.000000 0.000000
vn 1.000000 0.000000 0.000000
vn 1.000000 0.000000 0.000000
vn 0.000000 0.000000 -1.000000
vn 0.000000 0.000000 -1.000000
vn 0.000000 0.000000 -1.000000
vn 0.000000 0.000000 -1.000000
vn -0.000000 -0.000000 -1.000000
vn -0.000000 -0.000000 -1.000000
vn -0.000000 -0.000000 -1.000000
vn -0.000000 -0.000000 -1.000000
vn 0.014987 -0.158700 0.987213
vn 0.014987 -0.158700 0.987213
vn 0.014987 -0.158700 0.987213
vn 0.014987 -0.158700 0.987213
vn 0.000000 -0.152668 0.988278
vn 0.000000 -0.152668 0.988278
vn 0.000000 -0.152668 0.988278
vn 0.000000 -0.152668 0.988278
vn 1.000000 -0.000000 0.000000
vn 1.000000 -0.000000 0.000000
vn 1.000000 -0.000000 0.000000
vn 1.000000 -0.000000 0.000000
vn 0.000000 -0.152668 -0.988278
vn 0.000000 -0.152668 -0.988278
vn 0.000000 -0.152668 -0.988278
vn 0.000000 -0.152668 -0.988278
vn 0.014987 -0.158700 -0.987213
vn 0.014987 -0.158700 -0.987213
vn 0.014987 -0.158700 -0.987213
vn 0.014987 -0.158700 -0.987213
s 1
g wall_6
usemtl initialShadingGroup
f 1/1/1 2/8/2 3/4/3 4/3/4
s 2
f 6/9/5 4/10/6 3/28/7 24/36/8 20/14/9
s 3
f 56/63/10 58/62/11 57/61/12 55/60/13
f 54/59/14 56/63/10 55/60/13 53/58/15
s 4
f 15/12/16 2/8/17 16/35/18
s 5
f 13/40/19 26/44/20 27/37/21 12/13/22
s 4
f 14/11/23 25/32/24 26/44/25 13/40/26
s 7
f 10/34/27 34/31/28 35/48/29 9/38/30
s 4
f 9/38/31 35/48/32 36/19/33 15/12/16
s 5
f 12/13/22 22/15/34 23/43/35 11/39/36
s 7
f 11/39/37 23/43/38 17/16/39 10/34/27
s 2
f 21/42/40 29/45/41 30/33/42 20/14/9
s 5
f 22/15/34 28/17/43 29/45/44 21/42/45
s 2
f 19/29/46 38/30/47 39/50/48 18/41/49
s 7
f 18/41/50 39/50/51 40/21/52 17/16/39
s 12
f 32/22/53 43/18/54 44/52/55 31/46/56
s 4
f 31/46/57 44/52/58 45/20/59 36/19/33
s 7
f 34/31/28 40/21/52 41/51/60 33/47/61
s 12
f 33/47/62 41/51/63 42/24/64 32/22/53
s 2
f 38/30/47 48/23/65 46/53/66 37/49/67
s 12
f 37/49/68 46/53/69 47/25/70 42/24/64
s 4
f 7/26/71 25/32/24 14/11/23 5/7/72
s 2
f 30/33/42 8/27/73 6/9/5 20/14/9
s 12
f 42/24/64 47/25/70 43/18/54 32/22/53
s 4
f 36/19/33 45/20/59 2/8/17 15/12/16
s 2
f 3/28/7 48/23/65 38/30/47 19/29/46
s 5
f 27/37/21 28/17/43 22/15/34 12/13/22
s 7
f 40/21/52 34/31/28 10/34/27 17/16/39
s 1
f 48/23/74 3/28/3 2/8/2 45/20/75
s 4
f 16/35/18 49/54/76 9/38/31 15/12/16
s 7
f 9/38/30 49/54/77 11/39/37 10/34/27
s 5
f 11/39/36 49/54/78 13/40/19 12/13/22
s 4
f 13/40/26 49/54/76 16/35/18 14/11/23
s 7
f 23/43/38 50/55/79 18/41/50 17/16/39
s 2
f 18/41/49 50/55/80 24/36/8 19/29/46
f 24/36/8 50/55/80 21/42/40 20/14/9
s 5
f 21/42/45 50/55/81 23/43/35 22/15/34
s 4
f 35/48/32 51/56/82 31/46/57 36/19/33
s 12
f 31/46/56 51/56/83 33/47/62 32/22/53
s 7
f 33/47/61 51/56/84 35/48/29 34/31/28
s 12
f 41/51/63 52/57/85 42/24/64
s 2
f 52/57/86 39/50/48 38/30/47
s 7
f 39/50/51 52/57/87 40/21/52
s 1
f 46/53/88 44/52/89 43/18/90 47/25/91
f 46/53/88 48/23/74 45/20/75 44/52/89
s 4
f 2/8/17 1/1/92 5/7/72 14/11/23 16/35/18
s 2
f 3/28/7 19/29/46 24/36/8
s 12
f 52/57/85 37/49/68 42/24/64
s 7
f 52/57/87 41/51/60 40/21/52
s 2
f 37/49/67 52/57/86 38/30/47
s off
f 6/9/93 81/86/94 80/85/95 4/10/96
f 4/10/97 80/85/98 79/84/99 1/2/100
f 1/2/101 79/84/102 78/83/103 5/5/104
f 8/27/105 82/87/106 81/86/107 6/9/108
f 5/5/109 78/83/110 77/82/111 7/6/112
f 60/65/113 56/63/114 54/59/115 59/64/116
f 61/66/117 58/62/118 56/63/119 60/65/120
f 62/67/121 57/61/122 58/62/123 61/66/124
f 63/68/125 55/60/126 57/61/127 62/67/128
f 64/69/129 53/58/130 55/60/131 63/68/132
f 66/71/133 60/65/134 59/64/135 65/70/136
f 67/72/137 61/66/138 60/65/139 66/71/140
f 68/73/141 62/67/142 61/66/143 67/72/144
f 69/74/145 63/68/146 62/67/147 68/73/148
f 70/75/149 64/69/150 63/68/151 69/74/152
f 72/77/153 66/71/154 65/70/155 71/76/156
f 73/78/157 67/72/158 66/71/159 72/77/160
f 74/79/161 68/73/162 67/72/163 73/78/164
f 75/80/165 69/74/166 68/73/167 74/79/168
f 76/81/169 70/75/170 69/74/171 75/80/172
f 78/83/173 72/77/174 71/76/175 77/82/176
f 79/84/177 73/78/178 72/77/179 78/83/180
f 80/85/181 74/79/182 73/78/183 79/84/184
f 81/86/185 75/80/186 74/79/187 80/85/188
f 82/87/189 76/81/190 75/80/191 81/86/192
s 14
f 94/88/193 93/89/194 239/90/195 240/91/196
s 15
f 93/89/197 92/92/198 250/93/199 239/90/200
s 16
f 100/94/201 99/95/202 242/96/203 243/97/204
s 14
f 99/95/205 98/98/206 241/99/207 242/96/208
s 16
f 103/100/209 102/101/210 203/102/211 204/103/212
s 19
f 102/101/213 101/104/214 214/105/215 203/102/216
s 16
f 194/106/217 195/107/218 120/108/219 119/109/220
s 14
f 195/107/221 196/110/222 121/111/223 120/108/224
s 19
f 123/112/225 122/113/226 126/114/227 125/115/228
s 16
f 122/113/229 124/116/230 127/117/231 126/114/232
s 15
f 129/118/233 128/119/234 132/120/235 131/121/236
s 19
f 128/122/237 130/123/238 133/124/239 132/125/240
s 15
f 142/126/241 141/127/242 255/128/243 256/129/244
s 14
f 141/127/245 140/130/246 254/131/247 255/128/248
s 19
f 148/132/249 147/133/250 258/134/251 259/135/252
s 15
f 147/133/253 146/136/254 257/137/255 258/134/256
s 16
f 154/138/257 153/139/258 261/140/259 262/141/260
s 19
f 153/139/261 152/142/262 260/143/263 261/140/264
s 16
f 160/144/265 159/145/266 267/146/267 268/147/268
s 14
f 159/145/269 158/148/270 266/149/271 267/146/272
s 15
f 92/92/198 90/150/273 129/118/233 131/121/236
s 14
f 94/88/193 98/98/206 96/151/274 89/152/275
s 19
f 123/112/225 125/115/228 133/124/239 130/123/238
f 213/153/276 214/105/215 101/104/214 109/154/277
s 15
f 210/155/278 211/156/279 107/157/280 164/158/281
s 14
f 166/159/282 116/160/283 207/161/284 208/162/285
s 16
f 95/163/286 100/94/201 127/117/231 124/116/230
f 204/103/212 205/164/287 118/165/288 103/100/209
f 115/166/289 161/167/290 282/168/291 280/169/292
s 15
f 151/170/293 143/171/294 199/172/295 200/173/296
s 19
f 157/174/297 149/175/298 202/176/299 191/177/300
s 16
f 193/178/301 194/106/217 119/109/220 155/179/302
s 14
f 145/180/303 121/111/223 196/110/222 197/181/304
s 15
f 274/182/305 263/183/306 142/126/241 146/136/254
s 19
f 271/184/307 272/185/308 148/132/249 152/142/262
s 16
f 154/138/257 160/144/265 268/147/268 269/186/309
s 14
f 265/187/310 266/149/271 158/148/270 140/130/246
s 16
f 262/141/260 251/188/311 160/144/265 154/138/257
s 19
f 152/142/262 148/132/249 259/135/252 260/143/263
s 15
f 146/136/254 142/126/241 256/129/244 257/137/255
s 14
f 140/130/246 158/148/270 253/189/312 254/131/247
s 16
f 100/94/201 243/97/204 244/190/313 127/117/231
s 14
f 240/91/196 241/99/207 98/98/206 94/88/193
s 15
f 92/92/198 131/121/236 249/191/314 250/93/199
s 19
f 133/124/239 125/115/228 246/192/315 247/193/316
s off
f 128/122/317 129/194/318 90/195/319 91/196/320 89/197/321 96/198/322 97/199/323 95/163/324 124/116/325 122/113/326 123/112/327 130/123/328
s 14
f 89/152/275 91/200/329 93/89/194 94/88/193
s 15
f 91/200/330 90/150/273 92/92/198 93/89/197
s 16
f 95/163/286 97/199/331 99/95/202 100/94/201
s 14
f 97/199/332 96/151/274 98/98/206 99/95/205
s 19
f 109/154/277 108/201/333 212/202/334 213/153/276
s 15
f 108/203/335 107/157/280 211/156/279 212/204/336
s 16
f 244/190/313 245/205/337 126/114/232 127/117/231
s 19
f 245/205/338 246/192/315 125/115/228 126/114/227
f 247/193/316 248/206/339 132/125/240 133/124/239
s 15
f 248/207/340 249/191/314 131/121/236 132/120/235
s 14
f 116/160/283 117/208/341 206/209/342 207/161/284
s 16
f 117/208/343 118/165/288 205/164/287 206/209/344
s 15
f 263/183/306 264/210/345 141/127/242 142/126/241
s 14
f 264/210/346 265/187/310 140/130/246 141/127/245
s 15
f 143/171/294 144/211/347 198/212/348 199/172/295
s 14
f 144/211/349 145/180/303 197/181/304 198/212/350
s 19
f 272/185/308 273/213/351 147/133/250 148/132/249
s 15
f 273/213/352 274/182/305 146/136/254 147/133/253
f 200/173/296 201/214/353 150/215/354 151/170/293
s 19
f 201/214/355 202/176/299 149/175/298 150/215/356
s 16
f 269/186/309 270/216/357 153/139/258 154/138/257
s 19
f 270/216/358 271/184/307 152/142/262 153/139/261
f 191/177/300 192/217/359 156/218/360 157/174/297
s 16
f 192/217/361 193/178/301 155/179/302 156/218/362
f 251/188/311 252/219/363 159/145/266 160/144/265
s 14
f 252/219/364 253/189/312 158/148/270 159/145/269
s 16
f 161/167/290 162/220/365 286/221/366 282/168/291
s 14
f 162/220/367 163/222/368 283/223/369 286/221/370
f 208/162/285 209/224/371 165/225/372 166/159/282
s 15
f 209/224/373 210/155/278 164/158/281 165/225/374
s 16
f 215/226/375 216/227/376 105/228/377 104/229/378
f 104/229/378 137/230/379 226/231/380 215/226/375
f 225/232/381 226/231/380 137/230/379 138/233/382
s 14
f 224/234/383 225/232/384 138/233/385 139/235/386
f 223/236/387 224/234/383 139/235/386 134/237/388
f 134/237/388 135/238/389 222/239/390 223/236/387
s 15
f 135/238/391 136/240/392 221/241/393 222/239/394
f 136/240/392 110/242/395 220/243/396 221/241/393
f 219/244/397 220/243/396 110/242/395 111/245/398
s 19
f 218/246/399 219/247/400 111/248/401 112/249/402
f 112/249/402 106/250/403 217/251/404 218/246/399
f 216/227/405 217/251/404 106/250/403 105/228/406
s 14
f 227/252/407 228/253/408 135/238/389 134/237/388
f 134/237/388 139/235/386 238/254/409 227/252/407
f 237/255/410 238/254/409 139/235/386 138/233/385
s 16
f 236/256/411 237/255/412 138/233/382 137/230/379
f 235/257/413 236/256/411 137/230/379 104/229/378
f 104/229/378 105/228/377 234/258/414 235/257/413
s 19
f 105/228/406 106/250/403 233/259/415 234/258/416
f 232/260/417 233/259/415 106/250/403 112/249/402
f 112/249/402 111/248/401 231/261/418 232/260/417
s 15
f 111/245/398 110/242/395 230/262/419 231/263/420
f 229/264/421 230/262/419 110/242/395 136/240/392
f 228/253/422 229/264/421 136/240/392 135/238/391
s 19
f 101/104/214 102/101/213 192/217/359 191/177/300
s 16
f 102/101/210 103/100/209 193/178/301 192/217/361
f 118/165/288 194/106/217 193/178/301 103/100/209
f 118/165/288 117/208/343 195/107/218 194/106/217
s 14
f 117/208/341 116/160/283 196/110/222 195/107/221
f 197/181/304 196/110/222 116/160/283 166/159/282
f 198/212/350 197/181/304 166/159/282 165/225/372
s 15
f 199/172/295 198/212/348 165/225/374 164/265/281
f 200/173/296 199/172/295 164/265/281 107/266/280
f 107/266/280 108/201/335 201/214/353 200/173/296
s 19
f 108/201/333 109/154/277 202/176/299 201/214/355
f 191/177/300 202/176/299 109/154/277 101/104/214
s 16
f 204/103/212 203/102/211 167/267/423 168/268/424
f 168/268/424 169/269/425 205/164/287 204/103/212
f 206/209/344 205/164/287 169/269/425 170/270/426
s 14
f 207/161/284 206/209/342 170/270/427 171/271/428
f 208/162/285 207/161/284 171/271/428 172/272/429
f 172/272/429 173/273/430 209/224/371 208/162/285
s 15
f 173/273/431 174/274/432 210/155/278 209/224/373
f 174/274/432 175/275/433 211/156/279 210/155/278
f 212/204/336 211/156/279 175/275/433 176/276/434
s 19
f 213/153/276 212/202/334 176/277/435 177/278/436
f 177/278/436 178/279/437 214/105/215 213/153/276
f 203/102/216 214/105/215 178/279/437 167/267/438
s 16
f 168/268/424 167/267/423 216/227/376 215/226/375
s 19
f 167/267/438 178/279/437 217/251/404 216/227/405
f 218/246/399 217/251/404 178/279/437 177/278/436
f 177/278/436 176/277/435 219/247/400 218/246/399
s 15
f 176/276/434 175/275/433 220/243/396 219/244/397
f 221/241/393 220/243/396 175/275/433 174/274/432
f 222/239/394 221/241/393 174/274/432 173/273/431
s 14
f 223/236/387 222/239/390 173/273/430 172/272/429
f 172/272/429 171/271/428 224/234/383 223/236/387
f 171/271/428 170/270/427 225/232/384 224/234/383
s 16
f 170/270/426 169/269/425 226/231/380 225/232/381
f 215/226/375 226/231/380 169/269/425 168/268/424
s 14
f 180/280/439 179/281/440 228/253/408 227/252/407
s 15
f 179/281/441 190/282/442 229/264/421 228/253/422
f 190/282/442 189/283/443 230/262/419 229/264/421
f 231/263/420 230/262/419 189/283/443 188/284/444
s 19
f 232/260/417 231/261/418 188/285/445 187/286/446
f 187/286/446 186/287/447 233/259/415 232/260/417
f 234/258/416 233/259/415 186/287/447 185/288/448
s 16
f 235/257/413 234/258/414 185/288/449 184/289/450
f 184/289/450 183/290/451 236/256/411 235/257/413
f 183/290/451 182/291/452 237/255/412 236/256/411
s 14
f 182/291/453 181/292/454 238/254/409 237/255/410
f 227/252/407 238/254/409 181/292/454 180/280/439
f 240/91/196 239/90/195 179/281/440 180/280/439
f 180/280/439 181/292/454 241/99/207 240/91/196
f 242/96/208 241/99/207 181/292/454 182/291/453
s 16
f 243/97/204 242/96/203 182/291/452 183/290/451
f 244/190/313 243/97/204 183/290/451 184/289/450
f 184/289/450 185/288/449 245/205/337 244/190/313
s 19
f 185/288/448 186/287/447 246/192/315 245/205/338
f 247/193/316 246/192/315 186/287/447 187/286/446
f 187/286/446 188/285/445 248/206/339 247/193/316
s 15
f 188/284/444 189/283/443 249/191/314 248/207/340
f 250/93/199 249/191/314 189/283/443 190/282/442
f 239/90/200 250/93/199 190/282/442 179/281/441
s 16
f 119/109/220 120/108/219 252/219/363 251/188/311
s 14
f 120/108/224 121/111/223 253/189/312 252/219/364
f 254/131/247 253/189/312 121/111/223 145/180/303
f 255/128/248 254/131/247 145/180/303 144/211/349
s 15
f 256/129/244 255/128/243 144/211/347 143/171/294
f 257/137/255 256/129/244 143/171/294 151/170/293
f 258/134/256 257/137/255 151/170/293 150/215/354
s 19
f 259/135/252 258/134/251 150/215/356 149/175/298
f 260/143/263 259/135/252 149/175/298 157/174/297
f 261/140/264 260/143/263 157/174/297 156/218/360
s 16
f 262/141/260 261/140/259 156/218/362 155/179/302
f 155/179/302 119/109/220 251/188/311 262/141/260
s 15
f 83/293/455 84/294/456 264/210/345 263/183/306
s 14
f 84/294/457 85/295/458 265/187/310 264/210/346
f 85/295/458 163/222/368 266/149/271 265/187/310
f 267/146/272 266/149/271 163/222/368 162/220/367
s 16
f 268/147/268 267/146/267 162/220/365 161/167/290
f 269/186/309 268/147/268 161/167/290 115/166/289
f 115/166/289 114/296/459 270/216/357 269/186/309
s 19
f 114/296/460 113/297/461 271/184/307 270/216/358
f 113/297/461 88/298/462 272/185/308 271/184/307
f 88/298/462 87/299/463 273/213/351 272/185/308
s 15
f 87/299/464 86/300/465 274/182/305 273/213/352
f 86/300/465 83/293/455 263/183/306 274/182/305
f 276/301/466 275/302/467 84/294/456 83/293/455
s 14
f 275/302/468 277/303/469 85/295/458 84/294/457
s 15
f 279/304/470 276/301/466 83/293/455 86/300/465
s 19
f 281/305/471 278/306/472 88/298/462 113/297/461
s 14
f 277/303/469 283/223/369 163/222/368 85/295/458
s 19
f 278/306/472 284/307/473 87/299/463 88/298/462
s 15
f 284/307/474 279/304/470 86/300/465 87/299/464
s 16
f 280/169/292 285/308/475 114/296/459 115/166/289
s 19
f 285/308/476 281/305/471 113/297/461 114/296/460
s 14
f 298/309/477 444/310/478 443/311/479 297/312/480
s 15
f 297/312/481 443/311/482 454/313/483 296/314/484
s 16
f 304/315/485 447/316/486 446/317/487 303/318/488
s 14
f 303/318/489 446/317/490 445/319/491 302/320/492
s 16
f 307/321/493 408/322/494 407/323/495 306/324/496
s 19
f 306/324/497 407/323/498 418/325/499 305/326/500
s 16
f 398/327/501 323/328/502 324/329/503 399/330/504
s 14
f 399/330/505 324/329/506 325/331/507 400/332/508
s 19
f 327/333/509 329/334/510 330/335/511 326/336/512
s 16
f 326/336/513 330/335/514 331/337/515 328/338/516
s 15
f 333/339/517 335/340/518 336/341/519 332/342/520
s 19
f 332/343/521 336/344/522 337/345/523 334/346/524
s 15
f 346/347/525 460/348/526 459/349/527 345/350/528
s 14
f 345/350/529 459/349/530 458/351/531 344/352/532
s 19
f 352/353/533 463/354/534 462/355/535 351/356/536
s 15
f 351/356/537 462/355/538 461/357/539 350/358/540
s 16
f 358/359/541 466/360/542 465/361/543 357/362/544
s 19
f 357/362/545 465/361/546 464/363/547 356/364/548
s 16
f 364/365/549 472/366/550 471/367/551 363/368/552
s 14
f 363/368/553 471/367/554 470/369/555 362/370/556
s 15
f 296/314/484 335/340/518 333/339/517 294/371/557
s 14
f 298/309/477 293/372/558 300/373/559 302/320/492
s 19
f 327/333/509 334/346/524 337/345/523 329/334/510
f 417/374/560 313/375/561 305/326/500 418/325/499
s 15
f 414/376/562 368/377/563 311/378/564 415/379/565
s 14
f 370/380/566 412/381/567 411/382/568 320/383/569
s 16
f 299/384/570 328/338/516 331/337/515 304/315/485
f 408/322/494 307/321/493 322/385/571 409/386/572
f 319/387/573 280/388/292 282/389/291 365/390/574
s 15
f 355/391/575 404/392/576 403/393/577 347/394/578
s 19
f 361/395/579 395/396/580 406/397/581 353/398/582
s 16
f 397/399/583 359/400/584 323/328/502 398/327/501
s 14
f 349/401/585 401/402/586 400/332/508 325/331/507
s 15
f 478/403/587 350/358/540 346/347/525 467/404/588
s 19
f 475/405/589 356/364/548 352/353/533 476/406/590
s 16
f 358/359/541 473/407/591 472/366/550 364/365/549
s 14
f 469/408/592 344/352/532 362/370/556 470/369/555
s 16
f 466/360/542 358/359/541 364/365/549 455/409/593
s 19
f 356/364/548 464/363/547 463/354/534 352/353/533
s 15
f 350/358/540 461/357/539 460/348/526 346/347/525
s 14
f 344/352/532 458/351/531 457/410/594 362/370/556
s 16
f 304/315/485 331/337/515 448/411/595 447/316/486
s 14
f 444/310/478 298/309/477 302/320/492 445/319/491
s 15
f 296/314/484 454/313/483 453/412/596 335/340/518
s 19
f 337/345/523 451/413/597 450/414/598 329/334/510
s off
f 332/343/599 334/346/600 327/333/601 326/336/602 328/338/603 299/384/604 301/415/605 300/416/606 293/417/607 295/418/608 294/419/609 333/420/610
s 14
f 293/372/558 298/309/477 297/312/480 295/421/611
s 15
f 295/421/612 297/312/481 296/314/484 294/371/557
s 16
f 299/384/570 304/315/485 303/318/488 301/415/613
s 14
f 301/415/614 303/318/489 302/320/492 300/373/559
s 19
f 313/375/561 417/374/560 416/422/615 312/423/616
s 15
f 312/424/617 416/425/618 415/379/565 311/378/564
s 16
f 448/411/595 331/337/515 330/335/514 449/426/619
s 19
f 449/426/620 330/335/511 329/334/510 450/414/598
f 451/413/597 337/345/523 336/344/522 452/427/621
s 15
f 452/428/622 336/341/519 335/340/518 453/412/596
s 14
f 320/383/569 411/382/568 410/429/623 321/430/624
s 16
f 321/430/625 410/429/626 409/386/572 322/385/571
s 15
f 467/404/588 346/347/525 345/350/528 468/431/627
s 14
f 468/431/628 345/350/529 344/352/532 469/408/592
s 15
f 347/394/578 403/393/577 402/432/629 348/433/630
s 14
f 348/433/631 402/432/632 401/402/586 349/401/585
s 19
f 476/406/590 352/353/533 351/356/536 477/434/633
s 15
f 477/434/634 351/356/537 350/358/540 478/403/587
f 404/392/576 355/391/575 354/435/635 405/436/636
s 19
f 405/436/637 354/435/638 353/398/582 406/397/581
s 16
f 473/407/591 358/359/541 357/362/544 474/437/639
s 19
f 474/437/640 357/362/545 356/364/548 475/405/589
f 395/396/580 361/395/579 360/438/641 396/439/642
s 16
f 396/439/643 360/438/644 359/400/584 397/399/583
f 455/409/593 364/365/549 363/368/552 456/440/645
s 14
f 456/440/646 363/368/553 362/370/556 457/410/594
s 16
f 365/390/574 282/389/291 286/441/366 366/442/647
s 14
f 366/442/648 286/441/370 283/443/369 367/444/649
f 412/381/567 370/380/566 369/445/650 413/446/651
s 15
f 413/446/652 369/445/653 368/377/563 414/376/562
s 16
f 419/447/654 308/448/655 309/449/656 420/450/657
f 308/448/655 419/447/654 430/451/658 341/452/659
f 429/453/660 342/454/661 341/452/659 430/451/658
s 14
f 428/455/662 343/456/663 342/454/664 429/453/665
f 427/457/666 338/458/667 343/456/663 428/455/662
f 338/458/667 427/457/666 426/459/668 339/460/669
s 15
f 339/460/670 426/459/671 425/461/672 340/462/673
f 340/462/673 425/461/672 424/463/674 314/464/675
f 423/465/676 315/466/677 314/464/675 424/463/674
s 19
f 422/467/678 316/468/679 315/469/680 423/470/681
f 316/468/679 422/467/678 421/471/682 310/472/683
f 420/450/684 309/449/685 310/472/683 421/471/682
s 14
f 431/473/686 338/458/667 339/460/669 432/474/687
f 338/458/667 431/473/686 442/475/688 343/456/663
f 441/476/689 342/454/664 343/456/663 442/475/688
s 16
f 440/477/690 341/452/659 342/454/661 441/476/691
f 439/478/692 308/448/655 341/452/659 440/477/690
f 308/448/655 439/478/692 438/479/693 309/449/656
s 19
f 309/449/685 438/479/694 437/480/695 310/472/683
f 436/481/696 316/468/679 310/472/683 437/480/695
f 316/468/679 436/481/696 435/482/697 315/469/680
s 15
f 315/466/677 435/483/698 434/484/699 314/464/675
f 433/485/700 340/462/673 314/464/675 434/484/699
f 432/474/701 339/460/670 340/462/673 433/485/700
s 19
f 305/326/500 395/396/580 396/439/642 306/324/497
s 16
f 306/324/496 396/439/643 397/399/583 307/321/493
f 322/385/571 307/321/493 397/399/583 398/327/501
f 322/385/571 398/327/501 399/330/504 321/430/625
s 14
f 321/430/624 399/330/505 400/332/508 320/383/569
f 401/402/586 370/380/566 320/383/569 400/332/508
f 402/432/632 369/445/650 370/380/566 401/402/586
s 15
f 403/393/577 368/486/563 369/445/653 402/432/629
f 404/392/576 311/487/564 368/486/563 403/393/577
f 311/487/564 404/392/576 405/436/636 312/423/617
s 19
f 312/423/616 405/436/637 406/397/581 313/375/561
f 395/396/580 305/326/500 313/375/561 406/397/581
s 16
f 408/322/494 372/488/702 371/489/703 407/323/495
f 372/488/702 408/322/494 409/386/572 373/490/704
f 410/429/626 374/491/705 373/490/704 409/386/572
s 14
f 411/382/568 375/492/706 374/491/707 410/429/623
f 412/381/567 376/493/708 375/492/706 411/382/568
f 376/493/708 412/381/567 413/446/651 377/494/709
s 15
f 377/494/710 413/446/652 414/376/562 378/495/711
f 378/495/711 414/376/562 415/379/565 379/496/712
f 416/425/618 380/497/713 379/496/712 415/379/565
s 19
f 417/374/560 381/498/714 380/499/715 416/422/615
f 381/498/714 417/374/560 418/325/499 382/500/716
f 407/323/498 371/489/717 382/500/716 418/325/499
s 16
f 372/488/702 419/447/654 420/450/657 371/489/703
s 19
f 371/489/717 420/450/684 421/471/682 382/500/716
f 422/467/678 381/498/714 382/500/716 421/471/682
f 381/498/714 422/467/678 423/470/681 380/499/715
s 15
f 380/497/713 423/465/676 424/463/674 379/496/712
f 425/461/672 378/495/711 379/496/712 424/463/674
f 426/459/671 377/494/710 378/495/711 425/461/672
s 14
f 427/457/666 376/493/708 377/494/709 426/459/668
f 376/493/708 427/457/666 428/455/662 375/492/706
f 375/492/706 428/455/662 429/453/665 374/491/707
s 16
f 374/491/705 429/453/660 430/451/658 373/490/704
f 419/447/654 372/488/702 373/490/704 430/451/658
s 14
f 384/501/718 431/473/686 432/474/687 383/502/719
s 15
f 383/502/720 432/474/701 433/485/700 394/503/721
f 394/503/721 433/485/700 434/484/699 393/504/722
f 435/483/698 392/505/723 393/504/722 434/484/699
s 19
f 436/481/696 391/506/724 392/507/725 435/482/697
f 391/506/724 436/481/696 437/480/695 390/508/726
f 438/479/694 389/509/727 390/508/726 437/480/695
s 16
f 439/478/692 388/510/728 389/509/729 438/479/693
f 388/510/728 439/478/692 440/477/690 387/511/730
f 387/511/730 440/477/690 441/476/691 386/512/731
s 14
f 386/512/732 441/476/689 442/475/688 385/513/733
f 431/473/686 384/501/718 385/513/733 442/475/688
f 444/310/478 384/501/718 383/502/719 443/311/479
f 384/501/718 444/310/478 445/319/491 385/513/733
f 446/317/490 386/512/732 385/513/733 445/319/491
s 16
f 447/316/486 387/511/730 386/512/731 446/317/487
f 448/411/595 388/510/728 387/511/730 447/316/486
f 388/510/728 448/411/595 449/426/619 389/509/729
s 19
f 389/509/727 449/426/620 450/414/598 390/508/726
f 451/413/597 391/506/724 390/508/726 450/414/598
f 391/506/724 451/413/597 452/427/621 392/507/725
s 15
f 392/505/723 452/428/622 453/412/596 393/504/722
f 454/313/483 394/503/721 393/504/722 453/412/596
f 443/311/482 383/502/720 394/503/721 454/313/483
s 16
f 323/328/502 455/409/593 456/440/645 324/329/503
s 14
f 324/329/506 456/440/646 457/410/594 325/331/507
f 458/351/531 349/401/585 325/331/507 457/410/594
f 459/349/530 348/433/631 349/401/585 458/351/531
s 15
f 460/348/526 347/394/578 348/433/630 459/349/527
f 461/357/539 355/391/575 347/394/578 460/348/526
f 462/355/538 354/435/635 355/391/575 461/357/539
s 19
f 463/354/534 353/398/582 354/435/638 462/355/535
f 464/363/547 361/395/579 353/398/582 463/354/534
f 465/361/546 360/438/641 361/395/579 464/363/547
s 16
f 466/360/542 359/400/584 360/438/644 465/361/543
f 359/400/584 466/360/542 455/409/593 323/328/502
s 15
f 287/514/734 467/404/588 468/431/627 288/515/735
s 14
f 288/515/736 468/431/628 469/408/592 289/516/737
f 289/516/737 469/408/592 470/369/555 367/444/649
f 471/367/554 366/442/648 367/444/649 470/369/555
s 16
f 472/366/550 365/390/574 366/442/647 471/367/551
f 473/407/591 319/387/573 365/390/574 472/366/550
f 319/387/573 473/407/591 474/437/639 318/517/738
s 19
f 318/517/739 474/437/640 475/405/589 317/518/740
f 317/518/740 475/405/589 476/406/590 292/519/741
f 292/519/741 476/406/590 477/434/633 291/520/742
s 15
f 291/520/743 477/434/634 478/403/587 290/521/744
f 290/521/744 478/403/587 467/404/588 287/514/734
f 276/522/466 287/514/734 288/515/735 275/523/467
s 14
f 275/523/468 288/515/736 289/516/737 277/524/469
s 15
f 279/525/470 290/521/744 287/514/734 276/522/466
s 19
f 281/526/471 317/518/740 292/519/741 278/527/472
s 14
f 277/524/469 289/516/737 367/444/649 283/443/369
s 19
f 278/527/472 292/519/741 291/520/742 284/528/473
s 15
f 284/528/474 291/520/743 290/521/744 279/525/470
s 16
f 280/388/292 319/387/573 318/517/738 285/529/475
s 19
f 285/529/476 318/517/739 317/518/740 281/526/471
s 72
f 479/530/745 482/531/746 481/532/747 480/533/748
s 73
f 484/534/749 498/535/750 502/536/751 481/537/752 482/538/753
s 74
f 534/539/754 533/540/755 535/541/756 536/542/757
f 532/543/758 531/544/759 533/540/755 534/539/754
s 75
f 493/545/760 494/546/761 480/533/762
s 76
f 491/547/763 490/548/764 505/549/765 504/550/766
s 75
f 492/551/767 491/547/768 504/550/769 503/552/770
s 78
f 488/553/771 487/554/772 513/555/773 512/556/774
s 75
f 487/554/775 493/545/760 514/557/776 513/555/777
s 76
f 490/548/764 489/558/778 501/559/779 500/560/780
s 78
f 489/558/781 488/553/771 495/561/782 501/559/783
s 73
f 499/562/784 498/535/750 508/563/785 507/564/786
s 76
f 500/560/780 499/562/787 507/564/788 506/565/789
s 73
f 497/566/790 496/567/791 517/568/792 516/569/793
s 78
f 496/567/794 495/561/782 518/570/795 517/568/796
s 80
f 510/571/797 509/572/798 522/573/799 521/574/800
s 75
f 509/572/801 514/557/776 523/575/802 522/573/803
s 78
f 512/556/774 511/576/804 519/577/805 518/570/795
s 80
f 511/576/806 510/571/797 520/578/807 519/577/808
s 73
f 516/569/793 515/579/809 524/580/810 526/581/811
s 80
f 515/579/812 520/578/807 525/582/813 524/580/814
s 75
f 485/583/815 483/584/816 492/551/767 503/552/770
s 73
f 508/563/785 498/535/750 484/534/749 486/585/817
s 80
f 520/578/807 510/571/797 521/574/800 525/582/813
s 75
f 514/557/776 493/545/760 480/533/762 523/575/802
s 73
f 481/537/752 497/566/790 516/569/793 526/581/811
s 76
f 505/549/765 490/548/764 500/560/780 506/565/789
s 78
f 518/570/795 495/561/782 488/553/771 512/556/774
s 72
f 526/581/818 523/575/819 480/533/748 481/537/747
s 75
f 494/546/761 493/545/760 487/554/775 527/586/820
s 78
f 487/554/772 488/553/771 489/558/781 527/586/821
s 76
f 489/558/778 490/548/764 491/547/763 527/586/822
s 75
f 491/547/768 492/551/767 494/546/761 527/586/820
s 78
f 501/559/783 495/561/782 496/567/794 528/587/823
s 73
f 496/567/791 497/566/790 502/536/751 528/587/824
f 502/536/751 498/535/750 499/562/784 528/587/824
s 76
f 499/562/787 500/560/780 501/559/779 528/587/825
s 75
f 513/555/777 514/557/776 509/572/801 529/588/826
s 80
f 509/572/798 510/571/797 511/576/806 529/588/827
s 78
f 511/576/804 512/556/774 513/555/773 529/588/828
s 80
f 519/577/808 520/578/807 530/589/829
s 73
f 530/589/830 516/569/793 517/568/792
s 78
f 517/568/796 518/570/795 530/589/831
s 72
f 524/580/832 525/582/833 521/574/834 522/573/835
f 524/580/832 522/573/835 523/575/819 526/581/818
s 75
f 480/533/762 494/546/761 492/551/767 483/584/816 479/530/836
s 73
f 481/537/752 502/536/751 497/566/790
s 80
f 530/589/829 520/578/807 515/579/812
s 78
f 530/589/831 518/570/795 519/577/805
s 73
f 515/579/809 516/569/793 530/589/830
s off
f 484/534/837 482/538/838 558/590/839 559/591/840
f 482/538/841 479/592/842 557/593/843 558/590/844
f 479/592/845 483/594/846 556/595/847 557/593/848
f 486/585/849 484/534/850 559/591/851 560/596/852
f 483/594/853 485/597/854 555/598/855 556/595/856
f 538/599/857 537/600/858 532/543/859 534/539/860
f 539/601/861 538/599/862 534/539/863 536/542/864
f 540/602/865 539/601/866 536/542/867 535/541/868
f 541/603/869 540/602/870 535/541/871 533/540/872
f 542/604/873 541/603/874 533/540/875 531/544/876
f 544/605/877 543/606/878 537/600/879 538/599/880
f 545/607/881 544/605/882 538/599/883 539/601/884
f 546/608/885 545/607/886 539/601/887 540/602/888
f 547/609/889 546/608/890 540/602/891 541/603/892
f 548/610/893 547/609/894 541/603/895 542/604/896
f 550/611/897 549/612/898 543/606/899 544/605/900
f 551/613/901 550/611/902 544/605/903 545/607/904
f 552/614/905 551/613/906 545/607/907 546/608/908
f 553/615/909 552/614/910 546/608/911 547/609/912
f 554/616/913 553/615/914 547/609/915 548/610/916
f 556/595/917 555/598/918 549/612/919 550/611/920
f 557/593/921 556/595/922 550/611/923 551/613/924
f 558/590/925 557/593/926 551/613/927 552/614/928
f 559/591/929 558/590/930 552/614/931 553/615/932
f 560/596/933 559/591/934 553/615/935 554/616/936
