# This file uses centimeters as units for non-parametric coordinates.

mtllib door_frame_begin.mtl
g default
v -0.475047 0.533441 0.044882
v -0.464976 0.527425 0.044882
v -0.465799 0.534514 0.059586
v -0.467784 0.551629 0.065676
v -0.475522 0.550731 0.059586
v -0.479439 0.550277 0.044882
v -0.407483 0.541277 0.044882
v -0.407061 0.558671 0.044882
v -0.410978 0.558217 0.059586
v -0.418717 0.557319 0.065676
v -0.416732 0.540205 0.059586
v -0.415910 0.533116 0.044882
v -0.487440 0.640295 0.044882
v -0.487862 0.622901 0.044882
v -0.483945 0.623355 0.059586
v -0.476206 0.624253 0.065676
v -0.478191 0.641367 0.059586
v -0.479013 0.648457 0.044882
v -0.419876 0.648131 0.044882
v -0.429947 0.654147 0.044882
v -0.429125 0.647058 0.059586
v -0.427140 0.629943 0.065676
v -0.419401 0.630841 0.059586
v -0.415484 0.631295 0.044882
v -0.483966 0.623353 -0.057272
v -0.487862 0.622901 -0.042568
v -0.487440 0.640295 -0.042568
v -0.479013 0.648457 -0.042568
v -0.478191 0.641367 -0.057272
v -0.476206 0.624253 -0.063362
v -0.419380 0.630843 -0.057272
v -0.427140 0.629943 -0.063362
v -0.429125 0.647058 -0.057272
v -0.429947 0.654147 -0.042568
v -0.419876 0.648131 -0.042568
v -0.415484 0.631295 -0.042568
v -0.475047 0.533441 -0.042568
v -0.479439 0.550277 -0.042568
v -0.475544 0.550729 -0.057272
v -0.467784 0.551629 -0.063362
v -0.465799 0.534514 -0.057272
v -0.464976 0.527425 -0.042568
v -0.407483 0.541277 -0.042568
v -0.415910 0.533116 -0.042568
v -0.416732 0.540205 -0.057272
v -0.418717 0.557319 -0.063362
v -0.410957 0.558219 -0.057272
v -0.407061 0.558671 -0.042568
v -0.472882 0.536880 0.056883
v -0.410378 0.544129 0.056883
v -0.484545 0.637443 0.056883
v -0.422041 0.644692 0.056883
v -0.484566 0.637440 -0.054569
v -0.422021 0.644694 -0.054569
v -0.472903 0.536878 -0.054569
v -0.410358 0.544132 -0.054569
v -0.509868 0.107451 0.047125
v -0.496259 0.100790 0.047125
v -0.496159 0.107238 0.062693
v -0.495917 0.122804 0.069142
v -0.507388 0.122982 0.062693
v -0.513194 0.123073 0.047125
v -0.409718 0.105893 0.047125
v -0.405908 0.121403 0.047125
v -0.411714 0.121494 0.062693
v -0.423185 0.121672 0.069142
v -0.423427 0.106106 0.062693
v -0.423528 0.099659 0.047125
v -0.508356 0.204636 0.047125
v -0.512166 0.189125 0.047125
v -0.506360 0.189035 0.062693
v -0.494889 0.188856 0.069142
v -0.494647 0.204422 0.062693
v -0.494546 0.210870 0.047125
v -0.408206 0.203077 0.047125
v -0.421815 0.209738 0.047125
v -0.421915 0.203291 0.062693
v -0.422157 0.187725 0.069142
v -0.410686 0.187546 0.062693
v -0.404880 0.187456 0.047125
v -0.506392 0.189035 -0.061035
v -0.512166 0.189125 -0.045467
v -0.508356 0.204636 -0.045467
v -0.494546 0.210870 -0.045467
v -0.494647 0.204422 -0.061035
v -0.494889 0.188856 -0.067483
v -0.410655 0.187546 -0.061035
v -0.422157 0.187725 -0.067483
v -0.421915 0.203291 -0.061035
v -0.421815 0.209738 -0.045467
v -0.408206 0.203077 -0.045467
v -0.404880 0.187456 -0.045467
v -0.509868 0.107451 -0.045467
v -0.513194 0.123073 -0.045467
v -0.507419 0.122983 -0.061035
v -0.495917 0.122804 -0.067483
v -0.496159 0.107238 -0.061035
v -0.496259 0.100790 -0.045467
v -0.409718 0.105893 -0.045467
v -0.423528 0.099659 -0.045467
v -0.423427 0.106106 -0.061035
v -0.423185 0.121672 -0.067483
v -0.411682 0.121493 -0.061035
v -0.405908 0.121403 -0.045467
v -0.506073 0.110254 0.059832
v -0.413424 0.108812 0.059832
v -0.504650 0.201716 0.059832
v -0.412001 0.200275 0.059832
v -0.504681 0.201717 -0.058174
v -0.411970 0.200274 -0.058174
v -0.506104 0.110254 -0.058174
v -0.413393 0.108812 -0.058174
v -0.504665 0.334917 0.047125
v -0.492774 0.329207 0.047125
v -0.492384 0.333895 0.062693
v -0.491441 0.345213 0.069142
v -0.501717 0.346069 0.062693
v -0.506918 0.346502 0.047125
v -0.414952 0.327448 0.047125
v -0.410814 0.338500 0.047125
v -0.416015 0.338933 0.062693
v -0.426291 0.339788 0.069142
v -0.427233 0.328470 0.062693
v -0.427623 0.323782 0.047125
v -0.498781 0.405581 0.047125
v -0.502919 0.394528 0.047125
v -0.497718 0.394095 0.062693
v -0.487443 0.393240 0.069142
v -0.486500 0.404558 0.062693
v -0.486110 0.409246 0.047125
v -0.409068 0.398111 0.047125
v -0.420959 0.403821 0.047125
v -0.421349 0.399133 0.062693
v -0.422292 0.387815 0.069142
v -0.412016 0.386960 0.062693
v -0.406815 0.386526 0.047125
v -0.497746 0.394098 -0.061035
v -0.502919 0.394528 -0.045467
v -0.498781 0.405581 -0.045467
v -0.486110 0.409246 -0.045467
v -0.486500 0.404558 -0.061035
v -0.487443 0.393240 -0.067483
v -0.411988 0.386957 -0.061035
v -0.422292 0.387815 -0.067483
v -0.421349 0.399133 -0.061035
v -0.420959 0.403821 -0.045467
v -0.409068 0.398111 -0.045467
v -0.406815 0.386526 -0.045467
v -0.504665 0.334917 -0.045467
v -0.506918 0.346502 -0.045467
v -0.501745 0.346071 -0.061035
v -0.491441 0.345213 -0.067483
v -0.492384 0.333895 -0.061035
v -0.492774 0.329207 -0.045467
v -0.414952 0.327448 -0.045467
v -0.427623 0.323782 -0.045467
v -0.427233 0.328470 -0.061035
v -0.426291 0.339788 -0.067483
v -0.415987 0.338930 -0.061035
v -0.410814 0.338500 -0.045467
v -0.501132 0.336718 0.059832
v -0.418139 0.329807 0.059832
v -0.495595 0.403221 0.059832
v -0.412601 0.396310 0.059832
v -0.495622 0.403223 -0.058174
v -0.412574 0.396308 -0.058174
v -0.501159 0.336720 -0.058174
v -0.418111 0.329805 -0.058174
v -0.561601 0.418822 0.057445
v -0.540651 0.412131 0.057445
v -0.540651 0.418822 0.076990
v -0.540651 0.434974 0.085086
v -0.558180 0.434974 0.076990
v -0.567052 0.434974 0.057445
v -0.408562 0.418822 0.057445
v -0.403110 0.434974 0.057445
v -0.411982 0.434974 0.076990
v -0.429512 0.434974 0.085086
v -0.429512 0.418822 0.076990
v -0.429512 0.412131 0.057445
v -0.561601 0.519668 0.057445
v -0.567052 0.503516 0.057445
v -0.558180 0.503516 0.076990
v -0.540651 0.503516 0.085086
v -0.540651 0.519668 0.076990
v -0.540651 0.526359 0.057445
v -0.408562 0.519668 0.057445
v -0.429512 0.526359 0.057445
v -0.429512 0.519668 0.076990
v -0.429512 0.503516 0.085086
v -0.411982 0.503516 0.076990
v -0.403110 0.503516 0.057445
v -0.558229 0.503516 -0.078347
v -0.567052 0.503516 -0.058802
v -0.561601 0.519668 -0.058802
v -0.540651 0.526359 -0.058802
v -0.540651 0.519668 -0.078347
v -0.540651 0.503516 -0.086443
v -0.411934 0.503516 -0.078347
v -0.429512 0.503516 -0.086443
v -0.429512 0.519668 -0.078347
v -0.429512 0.526359 -0.058802
v -0.408562 0.519668 -0.058802
v -0.403110 0.503516 -0.058802
v -0.561601 0.418822 -0.058802
v -0.567052 0.434974 -0.058802
v -0.558229 0.434974 -0.078347
v -0.540651 0.434974 -0.086443
v -0.540651 0.418822 -0.078347
v -0.540651 0.412131 -0.058802
v -0.408562 0.418822 -0.058802
v -0.429512 0.412131 -0.058802
v -0.429512 0.418822 -0.078347
v -0.429512 0.434974 -0.086443
v -0.411934 0.434974 -0.078347
v -0.403110 0.434974 -0.058802
v -0.555870 0.421791 0.073398
v -0.414293 0.421791 0.073398
v -0.555870 0.516700 0.073398
v -0.414293 0.516700 0.073398
v -0.555916 0.516700 -0.074755
v -0.414247 0.516700 -0.074755
v -0.555916 0.421791 -0.074755
v -0.414247 0.421791 -0.074755
v -0.617159 -0.023213 0.087612
v -0.598428 -0.030972 0.087612
v -0.598428 -0.023213 0.106342
v -0.598428 -0.004483 0.114100
v -0.617159 -0.004483 0.106342
v -0.624917 -0.004483 0.087612
v -0.399361 -0.023213 0.087612
v -0.391602 -0.004483 0.087612
v -0.399361 -0.004483 0.106342
v -0.418091 -0.004483 0.114100
v -0.418091 -0.023213 0.106342
v -0.418091 -0.030972 0.087612
v -0.617159 0.093727 0.087612
v -0.624917 0.074996 0.087612
v -0.617159 0.074996 0.106342
v -0.598428 0.074996 0.114100
v -0.598428 0.093727 0.106342
v -0.598428 0.101485 0.087612
v -0.399361 0.093727 0.087612
v -0.418091 0.101485 0.087612
v -0.418091 0.093727 0.106342
v -0.418091 0.074996 0.114100
v -0.399361 0.074996 0.106342
v -0.391602 0.074996 0.087612
v -0.617159 0.074996 -0.106342
v -0.624917 0.074996 -0.087612
v -0.617159 0.093727 -0.087612
v -0.598428 0.101485 -0.087612
v -0.598428 0.093727 -0.106342
v -0.598428 0.074996 -0.114100
v -0.399361 0.074996 -0.106342
v -0.418091 0.074996 -0.114100
v -0.418091 0.093727 -0.106342
v -0.418091 0.101485 -0.087612
v -0.399361 0.093727 -0.087612
v -0.391602 0.074996 -0.087612
v -0.617159 -0.023213 -0.087612
v -0.624917 -0.004483 -0.087612
v -0.617159 -0.004483 -0.106342
v -0.598428 -0.004483 -0.114100
v -0.598428 -0.023213 -0.106342
v -0.598428 -0.030972 -0.087612
v -0.399361 -0.023213 -0.087612
v -0.418091 -0.030972 -0.087612
v -0.418091 -0.023213 -0.106342
v -0.418091 -0.004483 -0.114100
v -0.399361 -0.004483 -0.106342
v -0.391602 -0.004483 -0.087612
v -0.613716 -0.019771 0.102900
v -0.402803 -0.019771 0.102900
v -0.613716 0.090284 0.102900
v -0.402803 0.090284 0.102900
v -0.613716 0.090284 -0.102900
v -0.402803 0.090284 -0.102900
v -0.613716 -0.019771 -0.102900
v -0.402803 -0.019771 -0.102900
v -0.526140 -0.025760 0.099330
v -0.526140 -0.007029 0.106577
v -0.526140 0.081122 0.114100
v -0.526140 0.099852 0.106342
v -0.526140 0.107610 0.087612
v -0.526140 0.107610 -0.087612
v -0.526140 0.099852 -0.106342
v -0.526140 0.081122 -0.114100
v -0.526140 -0.007029 -0.106577
v -0.526140 -0.025760 -0.099330
v -0.526140 -0.033518 -0.081835
v -0.526140 -0.033518 0.081835
v -0.487972 0.220501 0.039948
v -0.478070 0.214086 0.039948
v -0.478070 0.220501 0.052750
v -0.478070 0.235988 0.058053
v -0.486355 0.235988 0.052750
v -0.490549 0.235988 0.039948
v -0.415632 0.220501 0.039948
v -0.413056 0.235988 0.039948
v -0.417249 0.235988 0.052750
v -0.425535 0.235988 0.058053
v -0.425535 0.220501 0.052750
v -0.425535 0.214086 0.039948
v -0.487972 0.317193 0.039948
v -0.490549 0.301706 0.039948
v -0.486355 0.301706 0.052750
v -0.478070 0.301706 0.058053
v -0.478070 0.317193 0.052750
v -0.478070 0.323608 0.039948
v -0.415632 0.317193 0.039948
v -0.425535 0.323608 0.039948
v -0.425535 0.317193 0.052750
v -0.425535 0.301706 0.058053
v -0.417249 0.301706 0.052750
v -0.413056 0.301706 0.039948
v -0.486378 0.301706 -0.048995
v -0.490549 0.301706 -0.036193
v -0.487972 0.317193 -0.036193
v -0.478070 0.323608 -0.036193
v -0.478070 0.317193 -0.048995
v -0.478070 0.301706 -0.054298
v -0.417227 0.301706 -0.048995
v -0.425535 0.301706 -0.054298
v -0.425535 0.317193 -0.048995
v -0.425535 0.323608 -0.036193
v -0.415632 0.317193 -0.036193
v -0.413056 0.301706 -0.036193
v -0.487972 0.220501 -0.036193
v -0.490549 0.235988 -0.036193
v -0.486378 0.235988 -0.048995
v -0.478070 0.235988 -0.054298
v -0.478070 0.220501 -0.048995
v -0.478070 0.214086 -0.036193
v -0.415632 0.220501 -0.036193
v -0.425535 0.214086 -0.036193
v -0.425535 0.220501 -0.048995
v -0.425535 0.235988 -0.054298
v -0.417227 0.235988 -0.048995
v -0.413056 0.235988 -0.036193
v -0.485263 0.223347 0.050397
v -0.418342 0.223347 0.050397
v -0.485263 0.314347 0.050397
v -0.418342 0.314347 0.050397
v -0.485285 0.314347 -0.046642
v -0.418319 0.314347 -0.046642
v -0.485285 0.223347 -0.046642
v -0.418319 0.223347 -0.046642
v -0.502045 0.081245 0.048007
v -0.412562 0.081245 0.048007
v -0.502045 1.057082 0.048007
v -0.412562 1.057082 0.048007
v -0.502045 1.057082 -0.047576
v -0.412562 1.057082 -0.047576
v -0.502045 0.081245 -0.047576
v -0.412562 0.081245 -0.047576
v -0.475601 0.323744 0.043192
v -0.475601 0.323744 -0.042761
v -0.425519 0.323744 -0.042761
v -0.425519 0.323744 0.043192
v -0.484880 0.213487 0.037294
v -0.484880 0.213487 -0.036864
v -0.421403 0.213487 -0.036864
v -0.421403 0.213487 0.037294
v -0.494116 0.423402 -0.057742
v -0.494116 0.423402 0.058172
v -0.414260 0.423402 0.058172
v -0.414260 0.423402 -0.057742
v -0.467563 0.525658 -0.047576
v -0.467563 0.525658 0.048007
v -0.414783 0.525658 0.048007
v -0.414783 0.525658 -0.047576
v -0.480014 0.650317 -0.047576
v -0.480014 0.650317 0.048007
v -0.430464 0.650317 0.048007
v -0.430464 0.650317 -0.047576
vt 0.086016 0.133540
vt 0.086016 0.145944
vt 0.224454 0.133540
vt 0.223999 0.145944
vt 0.086016 0.218648
vt 0.224454 0.218648
vt 0.223999 0.218648
vt 0.223999 0.145944
vt 0.086142 0.226693
vt 0.224580 0.226693
vt 0.086472 0.218648
vt 0.086472 0.145944
vt 0.224454 0.230129
vt 0.224329 0.146815
vt 0.085890 0.146815
vt 0.224454 0.145944
vt 0.086142 0.133656
vt 0.224580 0.133656
vt 0.224329 0.222294
vt 0.085890 0.222294
vt 0.086016 0.230129
vt 0.086472 0.145944
vt 0.086472 0.218648
vt 0.223999 0.218648
vt 0.065682 0.129029
vt 0.080048 0.120937
vt 0.079760 0.120937
vt 0.079760 0.120175
vt 0.065735 0.145297
vt 0.230422 0.120937
vt 0.244789 0.129029
vt 0.244842 0.145297
vt 0.230710 0.120175
vt 0.230710 0.120937
vt 0.080048 0.243750
vt 0.065807 0.129311
vt 0.065628 0.219296
vt 0.084921 0.120109
vt 0.244914 0.129311
vt 0.230422 0.243750
vt 0.225801 0.120109
vt 0.244735 0.219296
vt 0.244789 0.225847
vt 0.244663 0.229768
vt 0.065807 0.231039
vt 0.230422 0.243750
vt 0.225458 0.243624
vt 0.065556 0.229768
vt 0.065682 0.225847
vt 0.085641 0.243614
vt 0.080048 0.243750
vt 0.244914 0.231039
vt 0.230422 0.120937
vt 0.065682 0.234640
vt 0.244663 0.139341
vt 0.244789 0.138745
vt 0.084795 0.244247
vt 0.244789 0.234640
vt 0.080048 0.120937
vt 0.225675 0.244247
vt 0.065682 0.138745
vt 0.065556 0.139341
vt 0.065682 0.120175
vt 0.065682 0.120937
vt 0.244789 0.120937
vt 0.244789 0.120175
vt 0.065682 0.243750
vt 0.244914 0.120354
vt 0.244789 0.243750
vt 0.244914 0.243760
vt 0.065807 0.243757
vt 0.065682 0.243750
vt 0.244789 0.120937
vt 0.065682 0.244082
vt 0.244789 0.244082
vt 0.065682 0.120937
vt 0.224830 0.244290
vt 0.244663 0.244152
vt 0.065556 0.244149
vt 0.085012 0.244280
vt 0.244789 0.243750
vt 0.244842 0.219296
vt 0.065735 0.219296
vt 0.065807 0.120354
vt 0.244735 0.145297
vt 0.244789 0.120937
vt 0.065682 0.120937
vt 0.065628 0.145297
vt 0.084669 0.121176
vt 0.225675 0.243590
vt 0.065556 0.120922
vt 0.244663 0.120922
vt 0.225549 0.121176
vt 0.244789 0.243750
vt 0.065682 0.243750
vt 0.084795 0.243590
vt 0.086016 0.133540
vt 0.065682 0.129029
vt 0.065682 0.234640
vt 0.086016 0.230129
vt 0.080048 0.120937
vt 0.086472 0.145944
vt 0.223999 0.145944
vt 0.230422 0.120937
vt 0.086016 0.145944
vt 0.079760 0.120937
vt 0.230710 0.120937
vt 0.224454 0.145944
vt 0.230710 0.120175
vt 0.079760 0.120175
vt 0.224454 0.133540
vt 0.065735 0.145297
vt 0.065735 0.219296
vt 0.086472 0.218648
vt 0.065628 0.145297
vt 0.086016 0.218648
vt 0.065628 0.219296
vt 0.223999 0.145944
vt 0.230422 0.120937
vt 0.080048 0.120937
vt 0.086472 0.145944
vt 0.244789 0.129029
vt 0.224454 0.230129
vt 0.244789 0.234640
vt 0.244842 0.145297
vt 0.244842 0.219296
vt 0.224454 0.218648
vt 0.244735 0.145297
vt 0.223999 0.218648
vt 0.244735 0.219296
vt 0.080048 0.243750
vt 0.230422 0.243750
vt 0.223999 0.218648
vt 0.065807 0.129311
vt 0.086142 0.133656
vt 0.086142 0.226693
vt 0.065807 0.231039
vt 0.084921 0.120109
vt 0.225801 0.120109
vt 0.224580 0.133656
vt 0.084795 0.243590
vt 0.225675 0.243590
vt 0.244914 0.129311
vt 0.244914 0.231039
vt 0.224580 0.226693
vt 0.230422 0.243750
vt 0.086472 0.218648
vt 0.080048 0.243750
vt 0.244789 0.225847
vt 0.244789 0.138745
vt 0.244663 0.229768
vt 0.224329 0.222294
vt 0.224329 0.146815
vt 0.244663 0.139341
vt 0.225458 0.243624
vt 0.085641 0.243614
vt 0.085890 0.222294
vt 0.085012 0.244280
vt 0.224830 0.244290
vt 0.065556 0.229768
vt 0.065556 0.139341
vt 0.085890 0.146815
vt 0.065682 0.225847
vt 0.065682 0.138745
vt 0.084795 0.244247
vt 0.225675 0.244247
vt 0.225549 0.121176
vt 0.084669 0.121176
vt 0.065682 0.120937
vt 0.065682 0.120175
vt 0.065682 0.120937
vt 0.244789 0.120175
vt 0.244789 0.120937
vt 0.244789 0.120937
vt 0.065807 0.120354
vt 0.065682 0.243750
vt 0.065682 0.243750
vt 0.244789 0.243750
vt 0.244914 0.120354
vt 0.244789 0.243750
vt 0.244914 0.243760
vt 0.244789 0.243750
vt 0.065556 0.244149
vt 0.065682 0.243750
vt 0.065807 0.243757
vt 0.244663 0.244152
vt 0.065682 0.244082
vt 0.244789 0.120937
vt 0.244663 0.120922
vt 0.065682 0.120937
vt 0.244789 0.244082
vt 0.065556 0.120922
vt 0.086016 0.133540
vt 0.065682 0.129029
vt 0.065682 0.234640
vt 0.086016 0.230129
vt 0.080048 0.120937
vt 0.086472 0.145944
vt 0.223999 0.145944
vt 0.230422 0.120937
vt 0.086016 0.145944
vt 0.079760 0.120937
vt 0.230710 0.120937
vt 0.224454 0.145944
vt 0.230710 0.120175
vt 0.079760 0.120175
vt 0.224454 0.133540
vt 0.065735 0.145297
vt 0.065735 0.219296
vt 0.086472 0.218648
vt 0.065628 0.145297
vt 0.086016 0.218648
vt 0.065628 0.219296
vt 0.223999 0.145944
vt 0.230422 0.120937
vt 0.080048 0.120937
vt 0.086472 0.145944
vt 0.244789 0.129029
vt 0.224454 0.230129
vt 0.244789 0.234640
vt 0.244842 0.145297
vt 0.244842 0.219296
vt 0.224454 0.218648
vt 0.244735 0.145297
vt 0.223999 0.218648
vt 0.244735 0.219296
vt 0.080048 0.243750
vt 0.230422 0.243750
vt 0.223999 0.218648
vt 0.065807 0.129311
vt 0.086142 0.133656
vt 0.086142 0.226693
vt 0.065807 0.231039
vt 0.084921 0.120109
vt 0.225801 0.120109
vt 0.224580 0.133656
vt 0.084795 0.243590
vt 0.225675 0.243590
vt 0.244914 0.129311
vt 0.244914 0.231039
vt 0.224580 0.226693
vt 0.230422 0.243750
vt 0.086472 0.218648
vt 0.080048 0.243750
vt 0.244789 0.225847
vt 0.244789 0.138745
vt 0.244663 0.229768
vt 0.224329 0.222294
vt 0.224329 0.146815
vt 0.244663 0.139341
vt 0.225458 0.243624
vt 0.085641 0.243614
vt 0.085890 0.222294
vt 0.085012 0.244280
vt 0.224830 0.244290
vt 0.065556 0.229768
vt 0.065556 0.139341
vt 0.085890 0.146815
vt 0.065682 0.225847
vt 0.065682 0.138745
vt 0.084795 0.244247
vt 0.225675 0.244247
vt 0.225549 0.121176
vt 0.084669 0.121176
vt 0.065682 0.120937
vt 0.065682 0.120175
vt 0.065682 0.120937
vt 0.244789 0.120175
vt 0.244789 0.120937
vt 0.244789 0.120937
vt 0.065807 0.120354
vt 0.065682 0.243750
vt 0.065682 0.243750
vt 0.244789 0.243750
vt 0.244914 0.120354
vt 0.244789 0.243750
vt 0.244914 0.243760
vt 0.244789 0.243750
vt 0.065556 0.244149
vt 0.065682 0.243750
vt 0.065807 0.243757
vt 0.244663 0.244152
vt 0.065682 0.244082
vt 0.244789 0.120937
vt 0.244663 0.120922
vt 0.065682 0.120937
vt 0.244789 0.244082
vt 0.065556 0.120922
vt 0.086016 0.133540
vt 0.065682 0.129029
vt 0.065682 0.234640
vt 0.086016 0.230129
vt 0.080048 0.120937
vt 0.086472 0.145944
vt 0.223999 0.145944
vt 0.230422 0.120937
vt 0.086016 0.145944
vt 0.079760 0.120937
vt 0.230710 0.120937
vt 0.224454 0.145944
vt 0.230710 0.120175
vt 0.079760 0.120175
vt 0.224454 0.133540
vt 0.065735 0.145297
vt 0.065735 0.219296
vt 0.086472 0.218648
vt 0.065628 0.145297
vt 0.086016 0.218648
vt 0.065628 0.219296
vt 0.223999 0.145944
vt 0.230422 0.120937
vt 0.080048 0.120937
vt 0.086472 0.145944
vt 0.244789 0.129029
vt 0.224454 0.230129
vt 0.244789 0.234640
vt 0.244842 0.145297
vt 0.244842 0.219296
vt 0.224454 0.218648
vt 0.244735 0.145297
vt 0.223999 0.218648
vt 0.244735 0.219296
vt 0.080048 0.243750
vt 0.230422 0.243750
vt 0.223999 0.218648
vt 0.065807 0.129311
vt 0.086142 0.133656
vt 0.086142 0.226693
vt 0.065807 0.231039
vt 0.084921 0.120109
vt 0.225801 0.120109
vt 0.224580 0.133656
vt 0.084795 0.243590
vt 0.225675 0.243590
vt 0.244914 0.129311
vt 0.244914 0.231039
vt 0.224580 0.226693
vt 0.230422 0.243750
vt 0.086472 0.218648
vt 0.080048 0.243750
vt 0.244789 0.225847
vt 0.244789 0.138745
vt 0.244663 0.229768
vt 0.224329 0.222294
vt 0.224329 0.146815
vt 0.244663 0.139341
vt 0.225458 0.243624
vt 0.085641 0.243614
vt 0.085890 0.222294
vt 0.085012 0.244280
vt 0.224830 0.244290
vt 0.065556 0.229768
vt 0.065556 0.139341
vt 0.085890 0.146815
vt 0.065682 0.225847
vt 0.065682 0.138745
vt 0.084795 0.244247
vt 0.225675 0.244247
vt 0.225549 0.121176
vt 0.084669 0.121176
vt 0.065682 0.120937
vt 0.065682 0.120175
vt 0.065682 0.120937
vt 0.244789 0.120175
vt 0.244789 0.120937
vt 0.244789 0.120937
vt 0.065807 0.120354
vt 0.065682 0.243750
vt 0.065682 0.243750
vt 0.244789 0.243750
vt 0.244914 0.120354
vt 0.244789 0.243750
vt 0.244914 0.243760
vt 0.244789 0.243750
vt 0.065556 0.244149
vt 0.065682 0.243750
vt 0.065807 0.243757
vt 0.244663 0.244152
vt 0.065682 0.244082
vt 0.244789 0.120937
vt 0.244663 0.120922
vt 0.065682 0.120937
vt 0.244789 0.244082
vt 0.065556 0.120922
vt 0.086016 0.133540
vt 0.065682 0.129029
vt 0.065682 0.234640
vt 0.086016 0.230129
vt 0.080048 0.120937
vt 0.086472 0.145944
vt 0.223999 0.145944
vt 0.230422 0.120937
vt 0.086016 0.145944
vt 0.079760 0.120937
vt 0.140269 0.120937
vt 0.141509 0.145944
vt 0.079760 0.120175
vt 0.141509 0.133540
vt 0.140269 0.120175
vt 0.065735 0.145297
vt 0.065735 0.219296
vt 0.086472 0.218648
vt 0.065628 0.145297
vt 0.086016 0.218648
vt 0.065628 0.219296
vt 0.223999 0.145944
vt 0.230422 0.120937
vt 0.080048 0.120937
vt 0.086472 0.145944
vt 0.244789 0.129029
vt 0.224454 0.133540
vt 0.224454 0.230129
vt 0.244789 0.234640
vt 0.224454 0.145944
vt 0.244842 0.145297
vt 0.244842 0.219296
vt 0.224454 0.218648
vt 0.244735 0.145297
vt 0.223999 0.218648
vt 0.244735 0.219296
vt 0.080048 0.243750
vt 0.230422 0.243750
vt 0.223999 0.218648
vt 0.065807 0.129311
vt 0.086142 0.133656
vt 0.086142 0.226693
vt 0.065807 0.231039
vt 0.084921 0.120109
vt 0.141393 0.120109
vt 0.141635 0.133656
vt 0.084795 0.243590
vt 0.141509 0.218648
vt 0.141267 0.243590
vt 0.224580 0.133656
vt 0.244914 0.129311
vt 0.244914 0.231039
vt 0.224580 0.226693
vt 0.230422 0.243750
vt 0.086472 0.218648
vt 0.080048 0.243750
vt 0.244789 0.225847
vt 0.244789 0.138745
vt 0.244663 0.229768
vt 0.224329 0.222294
vt 0.224329 0.146815
vt 0.244663 0.139341
vt 0.225458 0.243624
vt 0.168388 0.243640
vt 0.168835 0.222294
vt 0.085012 0.244280
vt 0.141635 0.226693
vt 0.142082 0.244264
vt 0.085890 0.222294
vt 0.065556 0.229768
vt 0.065556 0.139341
vt 0.085890 0.146815
vt 0.065682 0.225847
vt 0.065682 0.138745
vt 0.084795 0.244247
vt 0.141267 0.244247
vt 0.141509 0.230129
vt 0.225549 0.121176
vt 0.168835 0.146815
vt 0.169077 0.121176
vt 0.065682 0.120937
vt 0.065682 0.120175
vt 0.065682 0.120937
vt 0.230710 0.120175
vt 0.244789 0.120175
vt 0.244789 0.120937
vt 0.230710 0.120937
vt 0.244789 0.120937
vt 0.065807 0.120354
vt 0.065682 0.243750
vt 0.065682 0.243750
vt 0.244789 0.243750
vt 0.225801 0.120109
vt 0.244914 0.120354
vt 0.225675 0.243590
vt 0.244789 0.243750
vt 0.244914 0.243760
vt 0.244789 0.243750
vt 0.065556 0.244149
vt 0.065682 0.243750
vt 0.085641 0.243614
vt 0.065807 0.243757
vt 0.224830 0.244290
vt 0.244663 0.244152
vt 0.065682 0.244082
vt 0.244789 0.120937
vt 0.244663 0.120922
vt 0.065682 0.120937
vt 0.225675 0.244247
vt 0.244789 0.244082
vt 0.084669 0.121176
vt 0.065556 0.120922
vt 0.086016 0.133540
vt 0.065682 0.129029
vt 0.065682 0.234640
vt 0.086016 0.230129
vt 0.080048 0.120937
vt 0.086472 0.145944
vt 0.223999 0.145944
vt 0.230422 0.120937
vt 0.086016 0.145944
vt 0.079760 0.120937
vt 0.230710 0.120937
vt 0.224454 0.145944
vt 0.230710 0.120175
vt 0.079760 0.120175
vt 0.224454 0.133540
vt 0.065735 0.145297
vt 0.065735 0.219296
vt 0.086472 0.218648
vt 0.065628 0.145297
vt 0.086016 0.218648
vt 0.065628 0.219296
vt 0.223999 0.145944
vt 0.230422 0.120937
vt 0.080048 0.120937
vt 0.086472 0.145944
vt 0.244789 0.129029
vt 0.224454 0.230129
vt 0.244789 0.234640
vt 0.244842 0.145297
vt 0.244842 0.219296
vt 0.224454 0.218648
vt 0.244735 0.145297
vt 0.223999 0.218648
vt 0.244735 0.219296
vt 0.080048 0.243750
vt 0.230422 0.243750
vt 0.223999 0.218648
vt 0.065807 0.129311
vt 0.086142 0.133656
vt 0.086142 0.226693
vt 0.065807 0.231039
vt 0.084921 0.120109
vt 0.225801 0.120109
vt 0.224580 0.133656
vt 0.084795 0.243590
vt 0.225675 0.243590
vt 0.244914 0.129311
vt 0.244914 0.231039
vt 0.224580 0.226693
vt 0.230422 0.243750
vt 0.086472 0.218648
vt 0.080048 0.243750
vt 0.244789 0.225847
vt 0.244789 0.138745
vt 0.244663 0.229768
vt 0.224329 0.222294
vt 0.224329 0.146815
vt 0.244663 0.139341
vt 0.225458 0.243624
vt 0.085641 0.243614
vt 0.085890 0.222294
vt 0.085012 0.244280
vt 0.224830 0.244290
vt 0.065556 0.229768
vt 0.065556 0.139341
vt 0.085890 0.146815
vt 0.065682 0.225847
vt 0.065682 0.138745
vt 0.084795 0.244247
vt 0.225675 0.244247
vt 0.225549 0.121176
vt 0.084669 0.121176
vt 0.065682 0.120937
vt 0.065682 0.120175
vt 0.065682 0.120937
vt 0.244789 0.120175
vt 0.244789 0.120937
vt 0.244789 0.120937
vt 0.065807 0.120354
vt 0.065682 0.243750
vt 0.065682 0.243750
vt 0.244789 0.243750
vt 0.244914 0.120354
vt 0.244789 0.243750
vt 0.244914 0.243760
vt 0.244789 0.243750
vt 0.065556 0.244149
vt 0.065682 0.243750
vt 0.065807 0.243757
vt 0.244663 0.244152
vt 0.065682 0.244082
vt 0.244789 0.120937
vt 0.244663 0.120922
vt 0.065682 0.120937
vt 0.244789 0.244082
vt 0.065556 0.120922
vt 0.164191 0.044788
vt 0.173283 0.046899
vt 0.170039 0.059270
vt 0.162622 0.057745
vt 0.142916 0.145672
vt 0.151903 0.147578
vt 0.149873 0.157205
vt 0.140864 0.155295
vt 0.123492 0.243656
vt 0.131298 0.245311
vt 0.128492 0.258053
vt 0.119481 0.256142
vt 0.126451 0.267678
vt 0.117440 0.265767
vt 0.183132 0.048782
vt 0.181793 0.062147
vt 0.154569 0.042813
vt 0.150544 0.055401
vt 0.142793 0.100893
vt 0.152456 0.102887
vt 0.133338 0.143541
vt 0.140289 0.199935
vt 0.132283 0.198238
vt 0.160513 0.104575
vt 0.170158 0.106685
vt 0.161548 0.149519
vt 0.160068 0.068748
vt 0.150336 0.066864
vt 0.125437 0.232501
vt 0.132642 0.234029
vt 0.177028 0.072508
vt 0.167383 0.070263
vt 0.157987 0.078082
vt 0.148274 0.076168
vt 0.165505 0.079644
vt 0.175150 0.081852
vt 0.127309 0.223133
vt 0.134733 0.224707
vt 0.155359 0.089869
vt 0.145669 0.087917
vt 0.163133 0.091491
vt 0.172778 0.093653
vt 0.129673 0.211303
vt 0.137373 0.212935
vn 0.000483 -0.997860 0.065378
vn -0.509371 -0.859556 0.041289
vn -0.509300 -0.859597 -0.041315
vn 0.000485 -0.997861 -0.065377
vn -0.967476 -0.251517 0.027018
vn -0.989330 -0.140895 0.037071
vn -0.989338 -0.140894 -0.036867
vn -0.967483 -0.251506 -0.026847
vn -0.090892 -0.074960 0.993035
vn -0.024515 -0.333454 0.942447
vn 0.100186 -0.318991 0.942448
vn 0.105636 -0.052167 0.993036
vn 0.178703 -0.883629 0.432741
vn 0.028284 -0.901075 0.432741
vn 0.227918 -0.971483 0.065378
vn -0.957432 -0.129991 0.257732
vn -0.961769 -0.092595 0.257732
vn -0.995316 -0.089280 0.037071
vn -0.597145 -0.110648 0.794465
vn -0.105636 0.052167 0.993035
vn -0.606618 -0.028963 0.794465
vn 0.995316 0.089281 0.037071
vn 0.999361 -0.023407 0.027018
vn 0.999366 -0.023395 -0.026847
vn 0.995324 0.089284 -0.036867
vn 0.692583 -0.720156 0.041289
vn 0.227915 -0.971484 -0.065377
vn 0.692523 -0.720212 -0.041315
vn 0.606617 0.028963 0.794467
vn 0.597144 0.110647 0.794466
vn 0.090892 0.074960 0.993035
vn 0.961770 0.092595 0.257731
vn 0.989330 0.140895 0.037071
vn 0.957433 0.129991 0.257730
vn -0.999361 0.023409 0.027018
vn -0.999366 0.023397 -0.026847
vn -0.995324 -0.089283 -0.036867
vn -0.692585 0.720154 0.041289
vn -0.227918 0.971483 0.065378
vn -0.227916 0.971484 -0.065377
vn -0.692525 0.720210 -0.041315
vn -0.178703 0.883630 0.432739
vn -0.028284 0.901075 0.432739
vn -0.000482 0.997860 0.065378
vn -0.100186 0.318992 0.942448
vn 0.024515 0.333454 0.942447
vn 0.509368 0.859558 0.041289
vn 0.509297 0.859599 -0.041314
vn -0.000485 0.997861 -0.065377
vn 0.967476 0.251515 0.027018
vn 0.989338 0.140894 -0.036867
vn 0.967484 0.251504 -0.026847
vn -0.962120 -0.092647 -0.256402
vn -0.957785 -0.130020 -0.256402
vn -0.605569 -0.028806 -0.795271
vn -0.105604 0.052165 -0.993039
vn -0.090861 -0.074951 -0.993039
vn -0.596087 -0.110559 -0.795271
vn -0.100192 0.318974 -0.942453
vn 0.024526 0.333438 -0.942453
vn 0.090861 0.074951 -0.993039
vn -0.178710 0.883658 -0.432679
vn -0.028284 0.901104 -0.432679
vn 0.596086 0.110559 -0.795272
vn 0.605567 0.028806 -0.795272
vn 0.105604 -0.052165 -0.993039
vn 0.957786 0.130020 -0.256400
vn 0.962120 0.092647 -0.256400
vn 0.028284 -0.901103 -0.432681
vn 0.178709 -0.883657 -0.432681
vn -0.024526 -0.333438 -0.942453
vn 0.100192 -0.318974 -0.942453
vn -0.939173 -0.237098 0.248474
vn -0.455356 -0.820213 0.346268
vn -0.508091 -0.304650 0.805626
vn 0.630992 -0.694223 0.346271
vn 0.968509 -0.015849 0.248473
vn 0.564330 -0.180271 0.805627
vn -0.630995 0.694221 0.346270
vn -0.968509 0.015851 0.248473
vn -0.564331 0.180271 0.805626
vn 0.939173 0.237098 0.248473
vn 0.455353 0.820214 0.346269
vn 0.508091 0.304649 0.805625
vn -0.563255 0.180566 -0.806312
vn -0.968876 0.015745 -0.247044
vn -0.630595 0.694728 -0.345981
vn 0.939555 0.237078 -0.247044
vn 0.506973 0.304689 -0.806314
vn 0.454845 0.820619 -0.345977
vn -0.454847 -0.820618 -0.345978
vn -0.939555 -0.237078 -0.247045
vn -0.506974 -0.304688 -0.806314
vn 0.968877 -0.015741 -0.247043
vn 0.630590 -0.694733 -0.345981
vn 0.563251 -0.180567 -0.806315
vn -0.086490 -0.994652 0.056445
vn -0.437003 -0.898715 0.036586
vn -0.436948 -0.898741 -0.036627
vn -0.086489 -0.994653 -0.056444
vn -0.977632 -0.206702 0.038854
vn -0.998327 -0.026660 0.051313
vn -0.998341 -0.026657 -0.051031
vn -0.977646 -0.206685 -0.038601
vn -0.072503 -0.074054 0.994615
vn -0.053818 -0.376417 0.924886
vn 0.042082 -0.377909 0.924886
vn 0.070164 -0.076274 0.994615
vn 0.033042 -0.924475 0.379809
vn -0.061786 -0.922999 0.379809
vn 0.055505 -0.996862 0.056445
vn -0.937471 -0.015161 0.347733
vn -0.936545 0.044319 0.347733
vn -0.997014 0.057704 0.051313
vn -0.481166 -0.044169 0.875516
vn -0.070164 0.076274 0.994615
vn -0.479559 0.059117 0.875516
vn 0.997014 -0.057704 0.051313
vn 0.970729 -0.237014 0.038854
vn 0.970743 -0.236997 -0.038601
vn 0.997029 -0.057702 -0.051031
vn 0.408832 -0.911876 0.036586
vn 0.055504 -0.996862 -0.056444
vn 0.408776 -0.911900 -0.036627
vn 0.479558 -0.059117 0.875517
vn 0.481165 0.044169 0.875517
vn 0.072503 0.074054 0.994615
vn 0.936546 -0.044318 0.347732
vn 0.998327 0.026659 0.051313
vn 0.937472 0.015161 0.347732
vn -0.970729 0.237016 0.038854
vn -0.970743 0.236999 -0.038601
vn -0.997029 0.057702 -0.051031
vn -0.408833 0.911876 0.036586
vn -0.055505 0.996862 0.056445
vn -0.055504 0.996862 -0.056444
vn -0.408777 0.911899 -0.036627
vn -0.033042 0.924475 0.379809
vn 0.061786 0.922999 0.379809
vn 0.086490 0.994652 0.056445
vn -0.042082 0.377908 0.924886
vn 0.053818 0.376416 0.924886
vn 0.437002 0.898716 0.036586
vn 0.436947 0.898741 -0.036627
vn 0.086489 0.994653 -0.056444
vn 0.977633 0.206700 0.038854
vn 0.998341 0.026656 -0.051031
vn 0.977646 0.206683 -0.038601
vn -0.937171 0.044316 -0.346044
vn -0.938096 -0.015140 -0.346044
vn -0.478539 0.059123 -0.876074
vn -0.070141 0.076267 -0.994617
vn -0.072479 -0.074048 -0.994617
vn -0.480147 -0.044207 -0.876074
vn -0.042079 0.377890 -0.924894
vn 0.053815 0.376398 -0.924894
vn 0.072479 0.074048 -0.994617
vn -0.033046 0.924497 -0.379754
vn 0.061791 0.923022 -0.379754
vn 0.480145 0.044207 -0.876075
vn 0.478537 -0.059123 -0.876075
vn 0.070140 -0.076267 -0.994617
vn 0.938097 0.015139 -0.346042
vn 0.937172 -0.044317 -0.346042
vn -0.061791 -0.923022 -0.379754
vn 0.033046 -0.924497 -0.379754
vn -0.053815 -0.376398 -0.924894
vn 0.042079 -0.377890 -0.924894
vn -0.925039 -0.184885 0.331844
vn -0.393031 -0.856573 0.334379
vn -0.418077 -0.298173 0.858082
vn 0.366193 -0.868385 0.334379
vn 0.918841 -0.213572 0.331842
vn 0.408598 -0.311034 0.858083
vn -0.366194 0.868385 0.334380
vn -0.918840 0.213574 0.331843
vn -0.408599 0.311035 0.858082
vn 0.925040 0.184885 0.331842
vn 0.393030 0.856574 0.334378
vn 0.418076 0.298173 0.858083
vn -0.407609 0.311125 -0.858520
vn -0.919495 0.213549 -0.330038
vn -0.365781 0.868697 -0.334021
vn 0.925694 0.184840 -0.330038
vn 0.417089 0.298295 -0.858520
vn 0.392628 0.856898 -0.334020
vn -0.392629 -0.856897 -0.334021
vn -0.925693 -0.184842 -0.330039
vn -0.417090 -0.298294 -0.858520
vn 0.919496 -0.213551 -0.330036
vn 0.365782 -0.868697 -0.334021
vn 0.407607 -0.311126 -0.858520
vn -0.140497 -0.989215 0.041407
vn -0.430790 -0.902043 0.027196
vn -0.430743 -0.902064 -0.027225
vn -0.140496 -0.989215 -0.041406
vn -0.981299 -0.189129 0.035820
vn -0.998456 0.031018 0.046076
vn -0.998468 0.031022 -0.045823
vn -0.981311 -0.189108 -0.035587
vn -0.086875 -0.095448 0.991636
vn -0.093720 -0.480782 0.871817
vn 0.012917 -0.489661 0.871817
vn 0.069893 -0.108501 0.991636
vn -0.041639 -0.956975 0.287168
vn -0.117200 -0.950683 0.287168
vn -0.025035 -0.998829 0.041407
vn -0.947692 0.043305 0.316236
vn -0.941804 0.114022 0.316236
vn -0.989837 0.134534 0.046076
vn -0.523681 -0.026615 0.851499
vn -0.069893 0.108501 0.991636
vn -0.512068 0.112855 0.851499
vn 0.989837 -0.134534 0.046075
vn 0.936509 -0.348809 0.035820
vn 0.936525 -0.348790 -0.035587
vn 0.989849 -0.134532 -0.045823
vn 0.275676 -0.960866 0.027195
vn -0.025037 -0.998829 -0.041406
vn 0.275626 -0.960879 -0.027225
vn 0.512065 -0.112854 0.851501
vn 0.523678 0.026615 0.851501
vn 0.086875 0.095448 0.991636
vn 0.941805 -0.114022 0.316233
vn 0.998456 -0.031019 0.046075
vn 0.947693 -0.043305 0.316233
vn -0.936507 0.348815 0.035820
vn -0.936523 0.348795 -0.035587
vn -0.989849 0.134532 -0.045823
vn -0.275677 0.960866 0.027196
vn 0.025035 0.998829 0.041407
vn 0.025036 0.998829 -0.041407
vn -0.275627 0.960879 -0.027225
vn 0.041639 0.956974 0.287170
vn 0.117200 0.950683 0.287171
vn 0.140497 0.989215 0.041408
vn -0.012917 0.489663 0.871816
vn 0.093721 0.480783 0.871816
vn 0.430790 0.902042 0.027196
vn 0.430743 0.902064 -0.027225
vn 0.140496 0.989215 -0.041407
vn 0.981299 0.189127 0.035820
vn 0.998468 -0.031023 -0.045823
vn 0.981312 0.189104 -0.035587
vn -0.942328 0.114046 -0.314662
vn -0.948213 0.043367 -0.314662
vn -0.511021 0.112801 -0.852135
vn -0.069870 0.108490 -0.991639
vn -0.086850 -0.095441 -0.991639
vn -0.522640 -0.026735 -0.852135
vn -0.012906 0.489640 -0.871829
vn 0.093705 0.480763 -0.871829
vn 0.086850 0.095441 -0.991639
vn 0.041631 0.956987 -0.287128
vn 0.117210 0.950694 -0.287128
vn 0.522638 0.026734 -0.852135
vn 0.511020 -0.112801 -0.852135
vn 0.069870 -0.108490 -0.991639
vn 0.948213 -0.043368 -0.314662
vn 0.942328 -0.114046 -0.314661
vn -0.117210 -0.950695 -0.287125
vn -0.041631 -0.956988 -0.287125
vn -0.093705 -0.480762 -0.871830
vn 0.012906 -0.489639 -0.871830
vn -0.939528 -0.168170 0.298339
vn -0.399493 -0.879875 0.257345
vn -0.465391 -0.356801 0.810003
vn 0.248477 -0.933828 0.257342
vn 0.898779 -0.321232 0.298339
vn 0.399972 -0.428854 0.810004
vn -0.248477 0.933827 0.257344
vn -0.898778 0.321234 0.298340
vn -0.399974 0.428855 0.810002
vn 0.939528 0.168170 0.298339
vn 0.399493 0.879874 0.257345
vn 0.465390 0.356803 0.810002
vn -0.398952 0.428932 -0.810465
vn -0.899334 0.321212 -0.296685
vn -0.248071 0.934019 -0.257039
vn 0.940072 0.168054 -0.296685
vn 0.464394 0.357046 -0.810467
vn 0.399125 0.880131 -0.257038
vn -0.399127 -0.880130 -0.257039
vn -0.940072 -0.168062 -0.296683
vn -0.464397 -0.357046 -0.810465
vn 0.899334 -0.321212 -0.296684
vn 0.248071 -0.934020 -0.257038
vn 0.398951 -0.428930 -0.810467
vn -0.048490 -0.997720 0.046933
vn -0.302377 -0.952727 0.029642
vn -0.302335 -0.952739 -0.029688
vn -0.048489 -0.997720 -0.046932
vn -0.947024 -0.317489 0.048450
vn -0.996156 -0.061823 0.062053
vn -0.996177 -0.061821 -0.061714
vn -0.947047 -0.317468 -0.048128
vn -0.058591 -0.090916 0.994134
vn -0.040055 -0.441919 0.896160
vn 0.040055 -0.441919 0.896161
vn 0.058591 -0.090916 0.994134
vn 0.032797 -0.946330 0.321534
vn -0.032797 -0.946330 0.321534
vn 0.048490 -0.997720 0.046933
vn -0.910556 -0.042480 0.411197
vn -0.910556 0.042480 0.411197
vn -0.996156 0.061823 0.062053
vn -0.410432 -0.063244 0.909695
vn -0.058591 0.090916 0.994134
vn -0.410432 0.063244 0.909695
vn 0.996156 -0.061823 0.062053
vn 0.947023 -0.317489 0.048450
vn 0.947047 -0.317467 -0.048128
vn 0.996177 -0.061821 -0.061714
vn 0.302376 -0.952728 0.029642
vn 0.048489 -0.997720 -0.046932
vn 0.302334 -0.952740 -0.029688
vn 0.410431 -0.063244 0.909696
vn 0.410431 0.063244 0.909696
vn 0.058591 0.090916 0.994134
vn 0.910557 -0.042480 0.411196
vn 0.996156 0.061823 0.062053
vn 0.910557 0.042481 0.411196
vn -0.947023 0.317489 0.048450
vn -0.947047 0.317468 -0.048128
vn -0.996177 0.061821 -0.061714
vn -0.302379 0.952727 0.029642
vn -0.048491 0.997720 0.046934
vn -0.048490 0.997721 -0.046933
vn -0.302337 0.952739 -0.029688
vn -0.032797 0.946329 0.321537
vn 0.032797 0.946329 0.321537
vn 0.048491 0.997720 0.046934
vn -0.040054 0.441919 0.896160
vn 0.040054 0.441919 0.896160
vn 0.302378 0.952727 0.029642
vn 0.302337 0.952739 -0.029688
vn 0.048490 0.997721 -0.046933
vn 0.947023 0.317489 0.048450
vn 0.996177 0.061821 -0.061714
vn 0.947047 0.317468 -0.048128
vn -0.911407 0.042471 -0.409308
vn -0.911407 -0.042471 -0.409308
vn -0.409491 0.063257 -0.910118
vn -0.058572 0.090908 -0.994135
vn -0.058572 -0.090908 -0.994135
vn -0.409491 -0.063257 -0.910118
vn -0.040046 0.441898 -0.896171
vn 0.040046 0.441898 -0.896171
vn 0.058572 0.090908 -0.994135
vn -0.032801 0.946345 -0.321489
vn 0.032801 0.946345 -0.321489
vn 0.409489 0.063257 -0.910119
vn 0.409489 -0.063257 -0.910119
vn 0.058572 -0.090908 -0.994135
vn 0.911408 0.042470 -0.409306
vn 0.911408 -0.042470 -0.409306
vn -0.032801 -0.946346 -0.321485
vn 0.032801 -0.946346 -0.321486
vn -0.040046 -0.441897 -0.896171
vn 0.040046 -0.441897 -0.896171
vn -0.879395 -0.279841 0.385167
vn -0.273763 -0.915943 0.293432
vn -0.341811 -0.370937 0.863464
vn 0.273763 -0.915942 0.293435
vn 0.879394 -0.279843 0.385167
vn 0.341811 -0.370937 0.863465
vn -0.273764 0.915941 0.293436
vn -0.879394 0.279842 0.385167
vn -0.341811 0.370938 0.863464
vn 0.879394 0.279844 0.385166
vn 0.273764 0.915941 0.293437
vn 0.341810 0.370937 0.863465
vn -0.340943 0.371012 -0.863775
vn -0.880253 0.279877 -0.383176
vn -0.273434 0.916153 -0.293083
vn 0.880256 0.279873 -0.383172
vn 0.340942 0.371010 -0.863777
vn 0.273433 0.916153 -0.293083
vn -0.273433 -0.916155 -0.293077
vn -0.880253 -0.279876 -0.383176
vn -0.340943 -0.371011 -0.863776
vn 0.880255 -0.279872 -0.383174
vn 0.273432 -0.916155 -0.293079
vn 0.340942 -0.371010 -0.863777
vn -0.111610 -0.992897 0.041214
vn -0.379736 -0.924748 0.025321
vn -0.379736 -0.924748 -0.025321
vn -0.111610 -0.992897 -0.041214
vn -0.924747 -0.379740 0.025321
vn -0.996371 -0.076451 0.037408
vn -0.996371 -0.076451 -0.037408
vn -0.924747 -0.379740 -0.025321
vn -0.029184 -0.095957 0.994958
vn 0.013882 -0.367465 0.929934
vn -0.000472 -0.371837 0.928298
vn -0.000067 -0.112257 0.993679
vn -0.058087 -0.921313 0.384458
vn -0.000209 -0.999268 0.038253
vn 0.000020 -0.919223 0.393736
vn -0.925014 -0.051227 0.376464
vn -0.925014 0.051227 0.376464
vn -0.996371 0.076451 0.037408
vn -0.376460 -0.051227 0.925015
vn -0.044251 0.036192 0.998365
vn -0.376460 0.051227 0.925016
vn 0.996372 -0.076450 0.037407
vn 0.924749 -0.379734 0.025321
vn 0.924749 -0.379734 -0.025321
vn 0.996372 -0.076450 -0.037407
vn 0.379734 -0.924749 0.025321
vn 0.079982 -0.995940 0.041302
vn 0.079982 -0.995940 -0.041302
vn 0.379734 -0.924749 -0.025321
vn 0.020930 -0.099725 0.994795
vn 0.376458 -0.051227 0.925016
vn 0.376458 0.051227 0.925016
vn 0.032360 0.036964 0.998793
vn 0.925016 -0.051227 0.376458
vn 0.996372 0.076450 0.037407
vn 0.925016 0.051227 0.376458
vn -0.924747 0.379740 0.025321
vn -0.924747 0.379740 -0.025321
vn -0.996371 0.076451 -0.037408
vn -0.379736 0.924748 0.025321
vn -0.148587 0.988188 0.037497
vn -0.148587 0.988188 -0.037497
vn -0.379736 0.924748 -0.025321
vn -0.121074 0.919656 0.373596
vn -0.000209 0.923880 0.382684
vn 0.000022 0.999225 0.039373
vn -0.080488 0.375501 0.923321
vn -0.000360 0.044773 0.998997
vn 0.000222 0.382684 0.923880
vn 0.107109 0.993510 0.038277
vn 0.379734 0.924749 0.025321
vn 0.379734 0.924749 -0.025321
vn 0.107109 0.993510 -0.038277
vn 0.924749 0.379734 0.025321
vn 0.996372 0.076450 -0.037407
vn 0.924749 0.379734 -0.025321
vn -0.925014 0.051227 -0.376463
vn -0.925014 -0.051227 -0.376464
vn -0.376460 0.051227 -0.925016
vn -0.044251 0.036192 -0.998365
vn -0.029184 -0.095957 -0.994958
vn -0.376460 -0.051227 -0.925016
vn -0.080488 0.375501 -0.923321
vn 0.000222 0.382684 -0.923880
vn -0.000360 0.044773 -0.998997
vn -0.121074 0.919656 -0.373596
vn 0.000022 0.999225 -0.039373
vn -0.000209 0.923880 -0.382684
vn 0.032360 0.036964 -0.998793
vn 0.376458 0.051227 -0.925016
vn 0.376458 -0.051227 -0.925016
vn 0.020930 -0.099725 -0.994795
vn 0.925016 0.051227 -0.376458
vn 0.925016 -0.051227 -0.376458
vn -0.058087 -0.921313 -0.384458
vn 0.000020 -0.919224 -0.393736
vn -0.000209 -0.999268 -0.038253
vn 0.013882 -0.367465 -0.929934
vn -0.000067 -0.112257 -0.993679
vn -0.000472 -0.371837 -0.928298
vn -0.887918 -0.325271 0.325270
vn -0.325270 -0.887919 0.325268
vn -0.325271 -0.325268 0.887919
vn 0.040435 -0.921017 0.387417
vn 0.325270 -0.887919 0.325269
vn 0.887920 -0.325267 0.325269
vn -0.009244 -0.368724 0.929493
vn 0.325270 -0.325269 0.887919
vn -0.325271 0.887919 0.325268
vn -0.887918 0.325271 0.325269
vn -0.325271 0.325268 0.887919
vn 0.887920 0.325266 0.325269
vn 0.085772 0.922295 0.376848
vn 0.325270 0.887919 0.325269
vn 0.057348 0.377800 0.924110
vn 0.325269 0.325269 0.887919
vn -0.325271 0.325268 -0.887919
vn -0.887918 0.325271 -0.325270
vn -0.325270 0.887919 -0.325268
vn 0.887920 0.325267 -0.325269
vn 0.057349 0.377800 -0.924110
vn 0.325269 0.325269 -0.887919
vn 0.085772 0.922295 -0.376848
vn 0.325270 0.887919 -0.325269
vn -0.325271 -0.887919 -0.325268
vn -0.887918 -0.325272 -0.325270
vn -0.325271 -0.325268 -0.887919
vn 0.887920 -0.325267 -0.325269
vn 0.040435 -0.921017 -0.387417
vn 0.325270 -0.887919 -0.325269
vn -0.009244 -0.368724 -0.929493
vn 0.325270 -0.325269 -0.887919
vn -0.097051 -0.992973 0.067715
vn -0.540462 -0.840240 0.043568
vn -0.540397 -0.840279 -0.043605
vn -0.097049 -0.992974 -0.067713
vn -0.986060 -0.163077 0.033045
vn -0.998506 -0.030698 0.045204
vn -0.998517 -0.030696 -0.044955
vn -0.986069 -0.163065 -0.032833
vn -0.081327 -0.062190 0.994745
vn -0.052462 -0.319296 0.946202
vn 0.052462 -0.319296 0.946202
vn 0.081327 -0.062190 0.994745
vn 0.064808 -0.893527 0.444308
vn -0.064808 -0.893527 0.444308
vn 0.097051 -0.992973 0.067715
vn -0.950556 -0.022134 0.309764
vn -0.950556 0.022134 0.309764
vn -0.998506 0.030698 0.045204
vn -0.529307 -0.041773 0.847401
vn -0.081327 0.062190 0.994745
vn -0.529307 0.041773 0.847401
vn 0.998506 -0.030698 0.045203
vn 0.986060 -0.163074 0.033045
vn 0.986069 -0.163062 -0.032833
vn 0.998517 -0.030696 -0.044955
vn 0.540458 -0.840242 0.043568
vn 0.097049 -0.992974 -0.067713
vn 0.540394 -0.840282 -0.043605
vn 0.529305 -0.041773 0.847403
vn 0.529305 0.041773 0.847403
vn 0.081327 0.062190 0.994745
vn 0.950556 -0.022134 0.309762
vn 0.998506 0.030698 0.045203
vn 0.950556 0.022134 0.309762
vn -0.986060 0.163077 0.033045
vn -0.986069 0.163065 -0.032833
vn -0.998517 0.030696 -0.044955
vn -0.540462 0.840240 0.043568
vn -0.097051 0.992973 0.067715
vn -0.097049 0.992974 -0.067714
vn -0.540397 0.840279 -0.043605
vn -0.064808 0.893527 0.444309
vn 0.064808 0.893526 0.444309
vn 0.097051 0.992973 0.067715
vn -0.052462 0.319296 0.946202
vn 0.052462 0.319296 0.946202
vn 0.540458 0.840242 0.043568
vn 0.540394 0.840282 -0.043605
vn 0.097049 0.992974 -0.067714
vn 0.986060 0.163074 0.033045
vn 0.998517 0.030696 -0.044955
vn 0.986069 0.163062 -0.032833
vn -0.951059 0.022124 -0.308215
vn -0.951059 -0.022124 -0.308216
vn -0.528254 0.041798 -0.848057
vn -0.081300 0.062184 -0.994748
vn -0.081300 -0.062184 -0.994748
vn -0.528254 -0.041798 -0.848057
vn -0.052468 0.319279 -0.946207
vn 0.052468 0.319279 -0.946207
vn 0.081300 0.062184 -0.994748
vn -0.064809 0.893557 -0.444247
vn 0.064809 0.893557 -0.444247
vn 0.528252 0.041797 -0.848058
vn 0.528252 -0.041797 -0.848058
vn 0.081300 -0.062184 -0.994748
vn 0.951060 0.022124 -0.308214
vn 0.951060 -0.022124 -0.308214
vn -0.064809 -0.893558 -0.444246
vn 0.064809 -0.893558 -0.444246
vn -0.052468 -0.319279 -0.946207
vn 0.052468 -0.319278 -0.946207
vn -0.943010 -0.147942 0.298070
vn -0.481182 -0.793681 0.372202
vn -0.465763 -0.249185 0.849101
vn 0.481181 -0.793681 0.372203
vn 0.943010 -0.147941 0.298070
vn 0.465760 -0.249187 0.849102
vn -0.481182 0.793681 0.372203
vn -0.943010 0.147943 0.298069
vn -0.465762 0.249185 0.849101
vn 0.943010 0.147940 0.298070
vn 0.481181 0.793679 0.372207
vn 0.465760 0.249187 0.849101
vn -0.464709 0.249304 -0.849643
vn -0.943541 0.147897 -0.296405
vn -0.480745 0.794104 -0.371865
vn 0.943541 0.147896 -0.296406
vn 0.464707 0.249303 -0.849644
vn 0.480743 0.794103 -0.371869
vn -0.480745 -0.794103 -0.371865
vn -0.943541 -0.147896 -0.296406
vn -0.464709 -0.249304 -0.849643
vn 0.943541 -0.147896 -0.296406
vn 0.480743 -0.794105 -0.371864
vn 0.464707 -0.249303 -0.849645
vn 0.000000 0.080743 0.996735
vn 0.000000 0.080743 0.996735
vn 0.000000 0.031634 0.999500
vn 0.000000 0.033737 0.999431
vn 0.000000 1.000000 0.000000
vn 0.000000 1.000000 0.000000
vn 0.000000 1.000000 0.000000
vn 0.000000 1.000000 0.000000
vn 0.000000 0.033737 -0.999431
vn 0.000000 0.031634 -0.999500
vn 0.000000 0.080743 -0.996735
vn 0.000000 0.080743 -0.996735
vn 0.000000 -1.000000 0.000000
vn 0.000000 -1.000000 0.000000
vn 0.000000 -1.000000 0.000000
vn 0.000000 -1.000000 0.000000
vn 0.997773 0.066709 0.000000
vn 0.997773 0.066709 0.000000
vn 0.998546 0.053901 0.000000
vn 0.998546 0.053901 0.000000
vn -0.991681 0.128723 0.000000
vn -0.991681 0.128723 0.000000
vn -0.994016 0.109232 0.000000
vn -0.994016 0.109232 0.000000
vn -0.997902 -0.064749 -0.000000
vn -0.997902 -0.064749 -0.000000
vn -0.998537 -0.054083 0.000000
vn -0.998537 -0.054083 0.000000
vn 0.000000 0.000000 -1.000000
vn 0.000000 0.000000 -1.000000
vn 0.000000 0.000000 -1.000000
vn 0.000000 0.000000 -1.000000
vn 0.999991 -0.004179 0.000000
vn 0.999991 -0.004180 0.000000
vn 0.999033 -0.043968 0.000000
vn 0.999033 -0.043968 0.000000
vn 0.000000 0.000000 1.000000
vn 0.000000 0.000000 1.000000
vn 0.000000 0.000000 1.000000
vn 0.000000 0.000000 1.000000
vn -0.997703 -0.067741 -0.000000
vn -0.997703 -0.067741 -0.000000
vn 0.000000 -0.103549 -0.994624
vn 0.000000 -0.103252 -0.994655
vn 0.998880 -0.047318 -0.000000
vn 0.998880 -0.047318 -0.000000
vn 0.000000 -0.103252 0.994655
vn 0.000000 -0.103549 0.994624
vn -0.998807 0.048833 0.000000
vn -0.998807 0.048833 0.000000
vn 0.000000 -0.018186 0.999835
vn 0.000000 -0.025839 0.999666
vn 0.998712 -0.050730 -0.000000
vn 0.998712 -0.050730 -0.000000
vn 0.000000 -0.025839 -0.999666
vn 0.000000 -0.018186 -0.999835
vn -0.997086 0.076282 0.000000
vn -0.997086 0.076281 0.000000
vn 0.000000 0.053290 0.998579
vn 0.000000 0.053329 0.998577
vn 0.997794 0.066387 0.000000
vn 0.997794 0.066387 0.000000
vn 0.000000 0.053329 -0.998577
vn 0.000000 0.053290 -0.998579
s 1
g stone7
usemtl lambert3SG
f 2/1/1 1/25/2 37/54/3 42/21/4
s 2
f 1/26/5 6/22/6 38/8/7 37/53/8
s 3
f 4/2/9 3/27/10 11/34/11 10/16/12
s 1
f 11/33/13 3/28/14 2/1/1 12/3/15
s 2
f 6/22/6 5/29/16 15/83/17 14/23/18
s 3
f 5/88/19 4/2/9 16/5/20 15/37/21
s 4
f 8/4/22 7/30/23 43/59/24 48/12/25
s 1
f 7/31/26 12/3/15 44/13/27 43/58/28
s 3
f 10/16/12 9/32/29 23/82/30 22/6/31
s 4
f 9/85/32 8/4/22 24/7/33 23/42/34
s 2
f 14/23/18 13/35/35 27/46/36 26/24/37
s 5
f 13/36/38 18/17/39 28/9/40 27/45/41
f 18/17/39 17/38/42 21/41/43 20/18/44
s 3
f 17/96/45 16/5/20 22/6/31 21/90/46
s 5
f 20/18/44 19/39/47 35/52/48 34/10/49
s 4
f 19/40/50 24/7/33 36/11/51 35/51/52
s 2
f 26/24/37 25/43/53 39/56/54 38/8/7
s 6
f 25/44/55 30/19/56 40/14/57 39/55/58
f 30/19/56 29/47/59 33/50/60 32/20/61
s 5
f 29/80/62 28/9/40 34/10/49 33/77/63
s 6
f 32/20/61 31/48/64 47/62/65 46/15/66
s 4
f 31/49/67 36/11/51 48/12/25 47/61/68
s 1
f 42/21/4 41/57/69 45/60/70 44/13/27
s 6
f 41/93/71 40/14/57 46/15/66 45/89/72
s 3
f 16/5/20 4/2/9 10/16/12 22/6/31
s 5
f 28/9/40 18/17/39 20/18/44 34/10/49
s 6
f 40/14/57 30/19/56 32/20/61 46/15/66
s 1
f 2/1/1 42/21/4 44/13/27 12/3/15
s 4
f 8/4/22 48/12/25 36/11/51 24/7/33
s 2
f 38/8/7 6/22/6 14/23/18 26/24/37
f 5/29/16 6/22/6 1/26/5 49/64/73
s 1
f 1/25/2 2/1/1 3/28/14 49/63/74
s 3
f 3/27/10 4/2/9 5/88/19 49/87/75
s 1
f 11/33/13 12/3/15 7/31/26 50/66/76
s 4
f 7/30/23 8/4/22 9/85/32 50/65/77
s 3
f 9/32/29 10/16/12 11/34/11 50/86/78
s 5
f 17/38/42 18/17/39 13/36/38 51/84/79
s 2
f 13/35/35 14/23/18 15/83/17 51/67/80
s 3
f 15/37/21 16/5/20 17/96/45 51/95/81
s 4
f 23/42/34 24/7/33 19/40/50 52/81/82
s 5
f 19/39/47 20/18/44 21/41/43 52/68/83
s 3
f 21/90/46 22/6/31 23/82/30 52/94/84
s 6
f 29/47/59 30/19/56 25/44/55 53/70/85
s 2
f 25/43/53 26/24/37 27/46/36 53/69/86
s 5
f 27/45/41 28/9/40 29/80/62 53/79/87
s 4
f 35/51/52 36/11/51 31/49/67 54/72/88
s 6
f 31/48/64 32/20/61 33/50/60 54/71/89
s 5
f 33/77/63 34/10/49 35/52/48 54/78/90
s 1
f 41/57/69 42/21/4 37/54/3 55/74/91
s 2
f 37/53/8 38/8/7 39/56/54 55/73/92
s 6
f 39/55/58 40/14/57 41/93/71 55/92/93
s 4
f 47/61/68 48/12/25 43/59/24 56/76/94
s 1
f 43/58/28 44/13/27 45/60/70 56/75/95
s 6
f 45/89/72 46/15/66 47/62/65 56/91/96
s 7
f 58/97/97 57/98/98 93/99/99 98/100/100
s 8
f 57/101/101 62/102/102 94/103/103 93/104/104
s 9
f 60/105/105 59/106/106 67/107/107 66/108/108
s 7
f 67/109/109 59/110/110 58/97/97 68/111/111
s 8
f 62/102/102 61/112/112 71/113/113 70/114/114
s 9
f 61/115/115 60/105/105 72/116/116 71/117/117
s 10
f 64/118/118 63/119/119 99/120/120 104/121/121
s 7
f 63/122/122 68/111/111 100/123/123 99/124/124
s 9
f 66/108/108 65/125/125 79/126/126 78/127/127
s 10
f 65/128/128 64/118/118 80/129/129 79/130/130
s 8
f 70/114/114 69/131/131 83/132/132 82/133/133
s 11
f 69/134/134 74/135/135 84/136/136 83/137/137
f 74/135/135 73/138/138 77/139/139 76/140/140
s 9
f 73/141/141 72/116/116 78/127/127 77/142/142
s 11
f 76/140/140 75/143/143 91/144/144 90/145/145
s 10
f 75/146/146 80/129/129 92/147/147 91/148/148
s 8
f 82/133/133 81/149/149 95/150/150 94/103/103
s 12
f 81/151/151 86/152/152 96/153/153 95/154/154
f 86/152/152 85/155/155 89/156/156 88/157/157
s 11
f 85/158/158 84/136/136 90/145/145 89/159/159
s 12
f 88/157/157 87/160/160 103/161/161 102/162/162
s 10
f 87/163/163 92/147/147 104/121/121 103/164/164
s 7
f 98/100/100 97/165/165 101/166/166 100/123/123
s 12
f 97/167/167 96/153/153 102/162/162 101/168/168
s 9
f 72/116/116 60/105/105 66/108/108 78/127/127
s 11
f 84/136/136 74/135/135 76/140/140 90/145/145
s 12
f 96/153/153 86/152/152 88/157/157 102/162/162
s 7
f 58/97/97 98/100/100 100/123/123 68/111/111
s 10
f 64/118/118 104/121/121 92/147/147 80/129/129
s 8
f 94/103/103 62/102/102 70/114/114 82/133/133
f 61/112/112 62/102/102 57/101/101 105/169/169
s 7
f 57/98/98 58/97/97 59/110/110 105/170/170
s 9
f 59/106/106 60/105/105 61/115/115 105/171/171
s 7
f 67/109/109 68/111/111 63/122/122 106/172/172
s 10
f 63/119/119 64/118/118 65/128/128 106/173/173
s 9
f 65/125/125 66/108/108 67/107/107 106/174/174
s 11
f 73/138/138 74/135/135 69/134/134 107/175/175
s 8
f 69/131/131 70/114/114 71/113/113 107/176/176
s 9
f 71/117/117 72/116/116 73/141/141 107/177/177
s 10
f 79/130/130 80/129/129 75/146/146 108/178/178
s 11
f 75/143/143 76/140/140 77/139/139 108/179/179
s 9
f 77/142/142 78/127/127 79/126/126 108/180/180
s 12
f 85/155/155 86/152/152 81/151/151 109/181/181
s 8
f 81/149/149 82/133/133 83/132/132 109/182/182
s 11
f 83/137/137 84/136/136 85/158/158 109/183/183
s 10
f 91/148/148 92/147/147 87/163/163 110/184/184
s 12
f 87/160/160 88/157/157 89/156/156 110/185/185
s 11
f 89/159/159 90/145/145 91/144/144 110/186/186
s 7
f 97/165/165 98/100/100 93/99/99 111/187/187
s 8
f 93/104/104 94/103/103 95/150/150 111/188/188
s 12
f 95/154/154 96/153/153 97/167/167 111/189/189
s 10
f 103/164/164 104/121/121 99/120/120 112/190/190
s 7
f 99/124/124 100/123/123 101/166/166 112/191/191
s 12
f 101/168/168 102/162/162 103/161/161 112/192/192
s 13
f 114/193/193 113/194/194 149/195/195 154/196/196
s 14
f 113/197/197 118/198/198 150/199/199 149/200/200
s 15
f 116/201/201 115/202/202 123/203/203 122/204/204
s 13
f 123/205/205 115/206/206 114/193/193 124/207/207
s 14
f 118/198/198 117/208/208 127/209/209 126/210/210
s 15
f 117/211/211 116/201/201 128/212/212 127/213/213
s 16
f 120/214/214 119/215/215 155/216/216 160/217/217
s 13
f 119/218/218 124/207/207 156/219/219 155/220/220
s 15
f 122/204/204 121/221/221 135/222/222 134/223/223
s 16
f 121/224/224 120/214/214 136/225/225 135/226/226
s 14
f 126/210/210 125/227/227 139/228/228 138/229/229
s 17
f 125/230/230 130/231/231 140/232/232 139/233/233
f 130/231/231 129/234/234 133/235/235 132/236/236
s 15
f 129/237/237 128/212/212 134/223/223 133/238/238
s 17
f 132/236/236 131/239/239 147/240/240 146/241/241
s 16
f 131/242/242 136/225/225 148/243/243 147/244/244
s 14
f 138/229/229 137/245/245 151/246/246 150/199/199
s 18
f 137/247/247 142/248/248 152/249/249 151/250/250
f 142/248/248 141/251/251 145/252/252 144/253/253
s 17
f 141/254/254 140/232/232 146/241/241 145/255/255
s 18
f 144/253/253 143/256/256 159/257/257 158/258/258
s 16
f 143/259/259 148/243/243 160/217/217 159/260/260
s 13
f 154/196/196 153/261/261 157/262/262 156/219/219
s 18
f 153/263/263 152/249/249 158/258/258 157/264/264
s 15
f 128/212/212 116/201/201 122/204/204 134/223/223
s 17
f 140/232/232 130/231/231 132/236/236 146/241/241
s 18
f 152/249/249 142/248/248 144/253/253 158/258/258
s 13
f 114/193/193 154/196/196 156/219/219 124/207/207
s 16
f 120/214/214 160/217/217 148/243/243 136/225/225
s 14
f 150/199/199 118/198/198 126/210/210 138/229/229
f 117/208/208 118/198/198 113/197/197 161/265/265
s 13
f 113/194/194 114/193/193 115/206/206 161/266/266
s 15
f 115/202/202 116/201/201 117/211/211 161/267/267
s 13
f 123/205/205 124/207/207 119/218/218 162/268/268
s 16
f 119/215/215 120/214/214 121/224/224 162/269/269
s 15
f 121/221/221 122/204/204 123/203/203 162/270/270
s 17
f 129/234/234 130/231/231 125/230/230 163/271/271
s 14
f 125/227/227 126/210/210 127/209/209 163/272/272
s 15
f 127/213/213 128/212/212 129/237/237 163/273/273
s 16
f 135/226/226 136/225/225 131/242/242 164/274/274
s 17
f 131/239/239 132/236/236 133/235/235 164/275/275
s 15
f 133/238/238 134/223/223 135/222/222 164/276/276
s 18
f 141/251/251 142/248/248 137/247/247 165/277/277
s 14
f 137/245/245 138/229/229 139/228/228 165/278/278
s 17
f 139/233/233 140/232/232 141/254/254 165/279/279
s 16
f 147/244/244 148/243/243 143/259/259 166/280/280
s 18
f 143/256/256 144/253/253 145/252/252 166/281/281
s 17
f 145/255/255 146/241/241 147/240/240 166/282/282
s 13
f 153/261/261 154/196/196 149/195/195 167/283/283
s 14
f 149/200/200 150/199/199 151/246/246 167/284/284
s 18
f 151/250/250 152/249/249 153/263/263 167/285/285
s 16
f 159/260/260 160/217/217 155/216/216 168/286/286
s 13
f 155/220/220 156/219/219 157/262/262 168/287/287
s 18
f 157/264/264 158/258/258 159/257/257 168/288/288
s 19
f 170/289/289 169/290/290 205/291/291 210/292/292
s 20
f 169/293/293 174/294/294 206/295/295 205/296/296
s 21
f 172/297/297 171/298/298 179/299/299 178/300/300
s 19
f 179/301/301 171/302/302 170/289/289 180/303/303
s 20
f 174/294/294 173/304/304 183/305/305 182/306/306
s 21
f 173/307/307 172/297/297 184/308/308 183/309/309
s 22
f 176/310/310 175/311/311 211/312/312 216/313/313
s 19
f 175/314/314 180/303/303 212/315/315 211/316/316
s 21
f 178/300/300 177/317/317 191/318/318 190/319/319
s 22
f 177/320/320 176/310/310 192/321/321 191/322/322
s 20
f 182/306/306 181/323/323 195/324/324 194/325/325
s 23
f 181/326/326 186/327/327 196/328/328 195/329/329
f 186/327/327 185/330/330 189/331/331 188/332/332
s 21
f 185/333/333 184/308/308 190/319/319 189/334/334
s 23
f 188/332/332 187/335/335 203/336/336 202/337/337
s 22
f 187/338/338 192/321/321 204/339/339 203/340/340
s 20
f 194/325/325 193/341/341 207/342/342 206/295/295
s 24
f 193/343/343 198/344/344 208/345/345 207/346/346
f 198/344/344 197/347/347 201/348/348 200/349/349
s 23
f 197/350/350 196/328/328 202/337/337 201/351/351
s 24
f 200/349/349 199/352/352 215/353/353 214/354/354
s 22
f 199/355/355 204/339/339 216/313/313 215/356/356
s 19
f 210/292/292 209/357/357 213/358/358 212/315/315
s 24
f 209/359/359 208/345/345 214/354/354 213/360/360
s 21
f 184/308/308 172/297/297 178/300/300 190/319/319
s 23
f 196/328/328 186/327/327 188/332/332 202/337/337
s 24
f 208/345/345 198/344/344 200/349/349 214/354/354
s 19
f 170/289/289 210/292/292 212/315/315 180/303/303
s 22
f 176/310/310 216/313/313 204/339/339 192/321/321
s 20
f 206/295/295 174/294/294 182/306/306 194/325/325
f 173/304/304 174/294/294 169/293/293 217/361/361
s 19
f 169/290/290 170/289/289 171/302/302 217/362/362
s 21
f 171/298/298 172/297/297 173/307/307 217/363/363
s 19
f 179/301/301 180/303/303 175/314/314 218/364/364
s 22
f 175/311/311 176/310/310 177/320/320 218/365/365
s 21
f 177/317/317 178/300/300 179/299/299 218/366/366
s 23
f 185/330/330 186/327/327 181/326/326 219/367/367
s 20
f 181/323/323 182/306/306 183/305/305 219/368/368
s 21
f 183/309/309 184/308/308 185/333/333 219/369/369
s 22
f 191/322/322 192/321/321 187/338/338 220/370/370
s 23
f 187/335/335 188/332/332 189/331/331 220/371/371
s 21
f 189/334/334 190/319/319 191/318/318 220/372/372
s 24
f 197/347/347 198/344/344 193/343/343 221/373/373
s 20
f 193/341/341 194/325/325 195/324/324 221/374/374
s 23
f 195/329/329 196/328/328 197/350/350 221/375/375
s 22
f 203/340/340 204/339/339 199/355/355 222/376/376
s 24
f 199/352/352 200/349/349 201/348/348 222/377/377
s 23
f 201/351/351 202/337/337 203/336/336 222/378/378
s 19
f 209/357/357 210/292/292 205/291/291 223/379/379
s 20
f 205/296/296 206/295/295 207/342/342 223/380/380
s 24
f 207/346/346 208/345/345 209/359/359 223/381/381
s 22
f 215/356/356 216/313/313 211/312/312 224/382/382
s 19
f 211/316/316 212/315/315 213/358/358 224/383/383
s 24
f 213/360/360 214/354/354 215/353/353 224/384/384
s 25
f 226/385/385 225/386/386 261/387/387 266/388/388
s 26
f 225/389/389 230/390/390 262/391/391 261/392/392
s 27
f 228/393/393 227/394/394 281/395/395 282/396/396
s 25
f 227/397/397 226/385/385 292/398/398 281/399/399
s 26
f 230/390/390 229/400/400 239/401/401 238/402/402
s 27
f 229/403/403 228/393/393 240/404/404 239/405/405
s 28
f 232/406/406 231/407/407 267/408/408 272/409/409
s 25
f 231/410/410 236/411/411 268/412/412 267/413/413
s 27
f 234/414/414 233/415/415 247/416/416 246/417/417
s 28
f 233/418/418 232/406/406 248/419/419 247/420/420
s 26
f 238/402/402 237/421/421 251/422/422 250/423/423
s 31
f 237/424/424 242/425/425 252/426/426 251/427/427
f 242/425/425 241/428/428 284/429/429 285/430/430
s 27
f 241/431/431 240/404/404 283/432/432 284/433/433
s 31
f 244/434/434 243/435/435 259/436/436 258/437/437
s 28
f 243/438/438 248/419/419 260/439/439 259/440/440
s 26
f 250/423/423 249/441/441 263/442/442 262/391/391
s 33
f 249/443/443 254/444/444 264/445/445 263/446/446
f 254/444/444 253/447/447 287/448/448 288/449/449
s 31
f 253/450/450 252/426/426 286/451/451 287/452/452
s 33
f 256/453/453 255/454/454 271/455/455 270/456/456
s 28
f 255/457/457 260/439/439 272/409/409 271/458/458
s 25
f 266/388/388 265/459/459 290/460/460 291/461/461
s 33
f 265/462/462 264/445/445 289/463/463 290/464/464
s 27
f 228/393/393 282/396/396 283/432/432 240/404/404
s 31
f 242/425/425 285/430/430 286/451/451 252/426/426
s 33
f 254/444/444 288/449/449 289/463/463 264/445/445
s 25
f 266/388/388 291/461/461 292/398/398 226/385/385
s 28
f 232/406/406 272/409/409 260/439/439 248/419/419
s 26
f 262/391/391 230/390/390 238/402/402 250/423/423
f 229/400/400 230/390/390 225/389/389 273/465/465
s 25
f 225/386/386 226/385/385 227/397/397 273/466/466
s 27
f 227/394/394 228/393/393 229/403/403 273/467/467
s 25
f 235/468/468 236/411/411 231/410/410 274/469/469
s 28
f 231/407/407 232/406/406 233/418/418 274/470/470
s 27
f 233/415/415 234/414/414 235/471/471 274/472/472
s 31
f 241/428/428 242/425/425 237/424/424 275/473/473
s 26
f 237/421/421 238/402/402 239/401/401 275/474/474
s 27
f 239/405/405 240/404/404 241/431/431 275/475/475
s 28
f 247/420/420 248/419/419 243/438/438 276/476/476
s 31
f 243/435/435 244/434/434 245/477/477 276/478/478
s 27
f 245/479/479 246/417/417 247/416/416 276/480/480
s 33
f 253/447/447 254/444/444 249/443/443 277/481/481
s 26
f 249/441/441 250/423/423 251/422/422 277/482/482
s 31
f 251/427/427 252/426/426 253/450/450 277/483/483
s 28
f 259/440/440 260/439/439 255/457/457 278/484/484
s 33
f 255/454/454 256/453/453 257/485/485 278/486/486
s 31
f 257/487/487 258/437/437 259/436/436 278/488/488
s 25
f 265/459/459 266/388/388 261/387/387 279/489/489
s 26
f 261/392/392 262/391/391 263/442/442 279/490/490
s 33
f 263/446/446 264/445/445 265/462/462 279/491/491
s 28
f 271/458/458 272/409/409 267/408/408 280/492/492
s 25
f 267/413/413 268/412/412 269/493/493 280/494/494
s 33
f 269/495/495 270/456/456 271/455/455 280/496/496
s 27
f 282/396/396 281/395/395 235/471/471 234/414/414
f 283/432/432 282/396/396 234/414/414 246/417/417
f 284/433/433 283/432/432 246/417/417 245/479/479
s 31
f 285/430/430 284/429/429 245/477/477 244/434/434
f 286/451/451 285/430/430 244/434/434 258/437/437
f 287/452/452 286/451/451 258/437/437 257/487/487
s 33
f 288/449/449 287/448/448 257/485/485 256/453/453
f 289/463/463 288/449/449 256/453/453 270/456/456
f 290/464/464 289/463/463 270/456/456 269/495/495
s 25
f 291/461/461 290/460/460 269/493/493 268/412/412
f 292/398/398 291/461/461 268/412/412 236/411/411
f 281/399/399 292/398/398 236/411/411 235/468/468
s 35
f 294/497/497 293/498/498 329/499/499 334/500/500
s 36
f 293/501/501 298/502/502 330/503/503 329/504/504
s 37
f 296/505/505 295/506/506 303/507/507 302/508/508
s 35
f 303/509/509 295/510/510 294/497/497 304/511/511
s 36
f 298/502/502 297/512/512 307/513/513 306/514/514
s 37
f 297/515/515 296/505/505 308/516/516 307/517/517
s 38
f 300/518/518 299/519/519 335/520/520 340/521/521
s 35
f 299/522/522 304/511/511 336/523/523 335/524/524
s 37
f 302/508/508 301/525/525 315/526/526 314/527/527
s 38
f 301/528/528 300/518/518 316/529/529 315/530/530
s 36
f 306/514/514 305/531/531 319/532/532 318/533/533
s 39
f 305/534/534 310/535/535 320/536/536 319/537/537
f 310/535/535 309/538/538 313/539/539 312/540/540
s 37
f 309/541/541 308/516/516 314/527/527 313/542/542
s 39
f 312/540/540 311/543/543 327/544/544 326/545/545
s 38
f 311/546/546 316/529/529 328/547/547 327/548/548
s 36
f 318/533/533 317/549/549 331/550/550 330/503/503
s 40
f 317/551/551 322/552/552 332/553/553 331/554/554
f 322/552/552 321/555/555 325/556/556 324/557/557
s 39
f 321/558/558 320/536/536 326/545/545 325/559/559
s 40
f 324/557/557 323/560/560 339/561/561 338/562/562
s 38
f 323/563/563 328/547/547 340/521/521 339/564/564
s 35
f 334/500/500 333/565/565 337/566/566 336/523/523
s 40
f 333/567/567 332/553/553 338/562/562 337/568/568
s 37
f 308/516/516 296/505/505 302/508/508 314/527/527
s 39
f 320/536/536 310/535/535 312/540/540 326/545/545
s 40
f 332/553/553 322/552/552 324/557/557 338/562/562
s 35
f 294/497/497 334/500/500 336/523/523 304/511/511
s 38
f 300/518/518 340/521/521 328/547/547 316/529/529
s 36
f 330/503/503 298/502/502 306/514/514 318/533/533
f 297/512/512 298/502/502 293/501/501 341/569/569
s 35
f 293/498/498 294/497/497 295/510/510 341/570/570
s 37
f 295/506/506 296/505/505 297/515/515 341/571/571
s 35
f 303/509/509 304/511/511 299/522/522 342/572/572
s 38
f 299/519/519 300/518/518 301/528/528 342/573/573
s 37
f 301/525/525 302/508/508 303/507/507 342/574/574
s 39
f 309/538/538 310/535/535 305/534/534 343/575/575
s 36
f 305/531/531 306/514/514 307/513/513 343/576/576
s 37
f 307/517/517 308/516/516 309/541/541 343/577/577
s 38
f 315/530/530 316/529/529 311/546/546 344/578/578
s 39
f 311/543/543 312/540/540 313/539/539 344/579/579
s 37
f 313/542/542 314/527/527 315/526/526 344/580/580
s 40
f 321/555/555 322/552/552 317/551/551 345/581/581
s 36
f 317/549/549 318/533/533 319/532/532 345/582/582
s 39
f 319/537/537 320/536/536 321/558/558 345/583/583
s 38
f 327/548/548 328/547/547 323/563/563 346/584/584
s 40
f 323/560/560 324/557/557 325/556/556 346/585/585
s 39
f 325/559/559 326/545/545 327/544/544 346/586/586
s 35
f 333/565/565 334/500/500 329/499/499 347/587/587
s 36
f 329/504/504 330/503/503 331/550/550 347/588/588
s 40
f 331/554/554 332/553/553 333/567/567 347/589/589
s 38
f 339/564/564 340/521/521 335/520/520 348/590/590
s 35
f 335/524/524 336/523/523 337/566/566 348/591/591
s 40
f 337/568/568 338/562/562 339/561/561 348/592/592
s 41
f 349/593/593 350/594/594 364/595/595 361/596/596
s off
f 351/597/597 352/598/598 354/599/599 353/600/600
s 42
f 362/601/601 363/602/602 356/603/603 355/604/604
s off
f 355/604/605 356/603/606 350/605/607 349/606/608
s 43
f 350/594/609 356/607/610 363/608/611 364/595/612
s 44
f 355/609/613 349/593/614 361/596/615 362/610/616
f 373/611/617 374/612/618 351/597/619 353/613/620
s 42
f 353/600/621 354/599/622 376/614/623 373/615/624
s 43
f 375/616/625 376/617/626 354/618/627 352/598/628
s 41
f 374/612/629 375/616/630 352/598/631 351/597/632
s 44
f 362/610/616 361/596/615 357/619/633 358/620/634
s 42
f 358/621/635 359/622/636 363/602/602 362/601/601
s 43
f 364/595/612 363/608/611 359/623/637 360/624/638
s 41
f 361/596/596 364/595/595 360/624/639 357/619/640
s 44
f 358/620/634 357/619/633 366/625/641 365/626/642
s 41
f 357/619/640 360/624/639 367/627/643 366/625/644
s 43
f 360/624/638 359/623/637 368/628/645 367/627/646
s 42
f 365/629/647 368/630/648 359/622/636 358/621/635
s 44
f 365/626/642 366/625/641 370/631/649 369/632/650
s 41
f 366/625/644 367/627/643 371/633/651 370/631/652
s 43
f 367/627/646 368/628/645 372/634/653 371/633/654
s 42
f 369/635/655 372/636/656 368/630/648 365/629/647
s 44
f 369/632/650 370/631/649 374/612/618 373/611/617
s 41
f 370/631/652 371/633/651 375/616/630 374/612/629
s 43
f 371/633/654 372/634/653 376/617/626 375/616/625
s 42
f 373/615/624 376/614/623 372/636/656 369/635/655
