# This file uses centimeters as units for non-parametric coordinates.

mtllib wall_for_door.mtl
g default
v -1.000000 -0.005979 0.079818
v 1.000000 -0.005979 0.079818
v -1.000000 1.206850 0.079818
v 1.000000 1.206850 0.079818
v -1.000000 3.250007 0.079818
v 1.000000 3.250007 0.079818
v -1.000000 1.187782 0.143384
v -1.000000 1.201265 0.137800
v -1.000000 1.206850 0.124316
v 1.000000 1.187782 0.143384
v 1.000000 1.206850 0.124316
v 1.000000 1.201265 0.137800
v -1.000000 0.994343 0.137800
v -1.000000 1.007826 0.143384
v 1.000000 1.007826 0.143384
v 1.000000 0.994343 0.137800
v 0.000000 3.250007 0.079818
v 0.500000 3.250007 0.079818
v -0.500000 3.250007 0.079818
v -0.973163 -0.005979 0.103905
v 0.976247 -0.005979 0.103490
v -1.000000 0.988758 0.079818
v 1.000000 0.988758 0.079818
v -0.973163 0.988758 0.103905
v -0.973163 0.988758 0.103905
v 0.976247 0.988758 0.103490
v 0.976247 0.988758 0.103490
v 1.000000 -0.005979 0.079818
v 1.000000 0.988758 0.079818
v -1.000000 -0.005979 0.079818
v -1.000000 0.988758 0.079818
v -1.000000 0.988758 0.079818
v -1.000000 1.206850 0.079818
v 1.000000 0.988758 0.079818
v 1.000000 1.206850 0.079818
v 1.000000 0.988758 0.079818
v 1.000000 1.206850 0.079818
v 1.000000 1.206850 0.124316
v 1.000000 0.988758 0.124316
v 1.000000 0.988758 0.124316
v 1.000000 1.206850 0.124316
v 1.000000 1.201265 0.137800
v 1.000000 0.994343 0.137800
v -1.000000 0.994343 0.137800
v -1.000000 1.201265 0.137800
v -1.000000 1.206850 0.124316
v -1.000000 0.988758 0.124316
v -1.000000 0.988758 0.124316
v -1.000000 1.206850 0.124316
v -1.000000 1.206850 0.079818
v -1.000000 0.988758 0.079818
v -0.973163 0.988758 0.103905
v -1.000000 0.988758 0.124316
v -1.000000 0.988758 0.079818
v 1.000000 0.988758 0.124316
v 0.976247 0.988758 0.103490
v 1.000000 0.988758 0.079818
v -1.000000 -0.005979 -0.079818
v 1.000000 -0.005979 -0.079818
v -1.000000 1.206850 -0.079818
v 1.000000 1.206850 -0.079818
v -1.000000 3.250007 -0.079818
v 1.000000 3.250007 -0.079818
v -1.000000 1.187782 -0.143384
v -1.000000 1.201265 -0.137800
v -1.000000 1.206850 -0.124316
v 1.000000 1.187782 -0.143384
v 1.000000 1.206850 -0.124316
v 1.000000 1.201265 -0.137800
v -1.000000 0.994343 -0.137800
v -1.000000 1.007826 -0.143384
v 1.000000 1.007826 -0.143384
v 1.000000 0.994343 -0.137800
v 0.000000 3.250007 -0.079818
v 0.500000 3.250007 -0.079818
v -0.500000 3.250007 -0.079818
v -0.973163 -0.005979 -0.103905
v 0.976247 -0.005979 -0.103490
v -1.000000 0.988758 -0.079818
v 1.000000 0.988758 -0.079818
v -0.973163 0.988758 -0.103905
v -0.973163 0.988758 -0.103905
v 0.976247 0.988758 -0.103490
v 0.976247 0.988758 -0.103490
v 1.000000 -0.005979 -0.079818
v 1.000000 0.988758 -0.079818
v -1.000000 -0.005979 -0.079818
v -1.000000 0.988758 -0.079818
v -1.000000 0.988758 -0.079818
v -1.000000 1.206850 -0.079818
v 1.000000 0.988758 -0.079818
v 1.000000 1.206850 -0.079818
v 1.000000 0.988758 -0.079818
v 1.000000 1.206850 -0.079818
v 1.000000 1.206850 -0.124316
v 1.000000 0.988758 -0.124316
v 1.000000 0.988758 -0.124316
v 1.000000 1.206850 -0.124316
v 1.000000 1.201265 -0.137800
v 1.000000 0.994343 -0.137800
v -1.000000 0.994343 -0.137800
v -1.000000 1.201265 -0.137800
v -1.000000 1.206850 -0.124316
v -1.000000 0.988758 -0.124316
v -1.000000 0.988758 -0.124316
v -1.000000 1.206850 -0.124316
v -1.000000 1.206850 -0.079818
v -1.000000 0.988758 -0.079818
v -0.973163 0.988758 -0.103905
v -1.000000 0.988758 -0.124316
v -1.000000 0.988758 -0.079818
v 1.000000 0.988758 -0.124316
v 0.976247 0.988758 -0.103490
v 1.000000 0.988758 -0.079818
v -0.751321 -0.005979 0.103905
v -0.744244 0.988758 0.103905
v -0.727174 1.007826 0.143384
v -0.731323 1.187782 0.143384
v -0.735223 1.206850 0.079818
v -0.500000 2.286506 0.079818
v 0.000000 2.474282 0.079818
v 0.500000 2.323535 0.079818
v 0.791460 1.206850 0.079818
v -0.748244 1.837967 0.079818
v 0.769496 1.798292 0.079818
v -0.727164 0.994343 0.137800
v -0.731923 1.206850 0.124316
v -0.731112 1.201265 0.137800
v -0.752479 -0.005979 0.079818
v -0.760158 -0.005979 -0.079818
v -0.761317 -0.005979 -0.103905
v 0.754562 -0.005979 0.103490
v 0.756909 -0.005979 0.079818
v 0.772735 -0.005979 -0.079818
v 0.775082 -0.005979 -0.103490
v 0.751995 0.988758 0.103490
v 0.735986 1.007826 0.143384
v 0.734532 1.187782 0.143384
v 0.751613 1.201265 0.137800
v 0.765263 1.206850 0.124316
v 0.738370 0.994343 0.137800
v -0.750175 1.206850 -0.079818
v -0.500000 2.311597 -0.079818
v 0.000000 2.477764 -0.079818
v 0.500000 2.314527 -0.079818
v 0.776397 1.206850 -0.079818
v -0.755440 1.882120 -0.079818
v 0.760374 1.918375 -0.079818
v 0.736615 0.988758 -0.103490
v 0.739725 0.994343 -0.137800
v 0.745575 1.007826 -0.143384
v 0.761723 1.187782 -0.143384
v 0.763308 1.201265 -0.137800
v 0.765499 1.206850 -0.124316
v -0.748412 1.206850 -0.124316
v -0.748062 1.201265 -0.137800
v -0.747037 1.187782 -0.143384
v -0.751953 1.007826 -0.143384
v -0.752858 0.994343 -0.137800
v -0.756482 0.988758 -0.103905
vt 0.019042 0.019471
vt 0.983263 0.020324
vt 0.024098 0.904848
vt 0.985269 0.904848
vt 0.908101 0.391722
vt 0.908101 0.332954
vt 0.908101 0.391722
vt 0.984722 0.429745
vt 0.908101 0.332954
vt 0.909949 0.396125
vt 0.909949 0.396125
vt 0.909949 0.328550
vt 0.909949 0.328550
vt 0.504684 0.904848
vt 0.744977 0.904848
vt 0.264391 0.904848
vt 0.031981 0.019483
vt 0.971811 0.020314
vt 0.981754 0.326049
vt 0.981754 0.327650
vt 0.020499 0.326049
vt 0.020499 0.327650
vt 0.981754 0.379217
vt 0.020499 0.379217
vt 0.983942 0.429745
vt 0.981754 0.384680
vt 0.981754 0.380817
vt 0.020499 0.380817
vt 0.020499 0.384680
vt 0.022687 0.429745
vt 0.263044 0.984952
vt 0.503358 0.984952
vt 0.743672 0.984952
vt 0.983942 0.984952
vt 0.022687 0.984952
vt 0.981754 0.397432
vt 0.984722 0.429745
vt 0.020499 0.397432
vt 0.017502 0.111081
vt 0.028962 0.122351
vt 0.982407 0.111081
vt 0.969459 0.122548
vt 0.984722 0.984952
vt 0.984722 0.984952
vt 0.018315 0.299158
vt 0.982535 0.300011
vt 0.031253 0.299170
vt 0.031253 0.299170
vt 0.971084 0.300001
vt 0.971084 0.300001
vt 0.980926 0.020882
vt 0.980926 0.300152
vt 0.980926 0.020882
vt 0.980926 0.300152
vt 0.981992 0.326669
vt 0.981992 0.397892
vt 0.981992 0.326669
vt 0.981992 0.397892
vt 0.929137 0.326726
vt 0.929137 0.397949
vt 0.914411 0.397949
vt 0.914411 0.326726
vt 0.914411 0.326726
vt 0.914411 0.397949
vt 0.909949 0.396125
vt 0.909949 0.328550
vt 0.909949 0.328550
vt 0.909949 0.396125
vt 0.914411 0.397949
vt 0.914411 0.326726
vt 0.914411 0.326726
vt 0.914411 0.397949
vt 0.929137 0.397949
vt 0.929137 0.326726
vt 0.031187 0.317174
vt 0.020499 0.322186
vt 0.020499 0.310552
vt 0.981754 0.322186
vt 0.968126 0.315380
vt 0.981754 0.308318
vt 0.971811 0.020314
vt 0.031981 0.019483
vt 0.031981 0.019483
vt 0.031253 0.299170
vt 0.024098 0.984627
vt 0.264391 0.984627
vt 0.982407 0.035081
vt 0.935509 0.020882
vt 0.935509 0.300152
vt 0.935509 0.020882
vt 0.935509 0.300152
vt 0.929137 0.326726
vt 0.929137 0.397949
vt 0.929137 0.326726
vt 0.929137 0.397949
vt 0.022687 0.429745
vt 0.263044 0.984952
vt 0.022687 0.984952
vt 0.941925 0.429745
vt 0.941925 0.984952
vt 0.941925 0.429745
vt 0.941925 0.984952
vt 0.020499 0.379217
vt 0.020499 0.327650
vt 0.020499 0.397432
vt 0.020499 0.384680
vt 0.020499 0.380817
vt 0.020499 0.326049
vt 0.909949 0.328550
vt 0.908101 0.332954
vt 0.908101 0.391722
vt 0.909949 0.396125
vt 0.929137 0.326726
vt 0.929137 0.397949
vt 0.914411 0.397949
vt 0.914411 0.326726
vt 0.909949 0.328550
vt 0.909949 0.396125
vt 0.908101 0.391722
vt 0.908101 0.332954
vt 0.914411 0.326726
vt 0.914411 0.397949
vt 0.909949 0.396125
vt 0.909949 0.328550
vt 0.909949 0.328550
vt 0.909949 0.396125
vt 0.914411 0.397949
vt 0.914411 0.326726
vt 0.914411 0.326726
vt 0.914411 0.397949
vt 0.929137 0.397949
vt 0.929137 0.326726
vt 0.971811 0.020314
vt 0.971084 0.300001
vt 0.981754 0.326049
vt 0.981754 0.327650
vt 0.981754 0.379217
vt 0.981754 0.380817
vt 0.981754 0.384680
vt 0.981754 0.397432
vt 0.743672 0.984952
vt 0.983942 0.429745
vt 0.983942 0.984952
vt 0.744977 0.984627
vt 0.985269 0.984627
vt 0.017502 0.035081
vt 0.504684 0.984627
vt 0.503358 0.984952
vt 0.969459 0.023613
vt 0.018315 0.299158
vt 0.019042 0.019471
vt 0.031981 0.019483
vt 0.031253 0.299170
vt 0.028962 0.023811
vt 0.983263 0.020324
vt 0.982535 0.300011
vt 0.971084 0.300001
vt 0.971811 0.020314
vt 0.031187 0.317174
vt 0.020499 0.322186
vt 0.020499 0.310552
vt 0.981754 0.322186
vt 0.968126 0.315380
vt 0.981754 0.308318
vt 0.138933 0.019577
vt 0.862431 0.122548
vt 0.141617 0.299267
vt 0.151651 0.327650
vt 0.149656 0.379217
vt 0.149969 0.429745
vt 0.147781 0.397432
vt 0.263044 0.723130
vt 0.503358 0.774156
vt 0.743672 0.733193
vt 0.883730 0.429745
vt 0.881542 0.397432
vt 0.143710 0.601244
vt 0.873176 0.590463
vt 0.151655 0.326049
vt 0.149368 0.384680
vt 0.149758 0.380817
vt 0.862990 0.111081
vt 0.866695 0.035081
vt 0.867254 0.023613
vt 0.134113 0.019573
vt 0.864934 0.020219
vt 0.135914 0.122351
vt 0.134782 0.111081
vt 0.127147 0.035081
vt 0.126015 0.023811
vt 0.874827 0.020228
vt 0.862969 0.299905
vt 0.854885 0.327650
vt 0.854186 0.379217
vt 0.862394 0.380817
vt 0.868954 0.384680
vt 0.856030 0.326049
vt 0.140594 0.397432
vt 0.142782 0.429745
vt 0.263044 0.729949
vt 0.503358 0.775102
vt 0.743672 0.730745
vt 0.874304 0.397432
vt 0.876491 0.429745
vt 0.140250 0.613243
vt 0.868792 0.623095
vt 0.855555 0.299899
vt 0.856682 0.326049
vt 0.859493 0.327650
vt 0.867253 0.379217
vt 0.868014 0.380817
vt 0.869067 0.384680
vt 0.141441 0.384680
vt 0.141609 0.380817
vt 0.142102 0.379217
vt 0.139739 0.327650
vt 0.139304 0.326049
vt 0.135717 0.299262
vn 0.000000 0.000000 1.000000
vn 0.000000 0.000000 1.000000
vn 0.000000 0.000000 1.000000
vn 0.000000 0.000000 1.000000
vn 0.000000 1.000000 0.000000
vn 0.000000 1.000000 0.000000
vn 0.000000 1.000000 0.000000
vn 0.000000 1.000000 0.000000
vn 1.000000 0.000000 0.000000
vn 1.000000 0.000000 0.000000
vn 1.000000 0.000000 0.000000
vn 1.000000 0.000000 0.000000
vn -1.000000 0.000000 0.000000
vn -1.000000 0.000000 0.000000
vn -1.000000 0.000000 0.000000
vn -1.000000 0.000000 0.000000
vn -1.000000 0.000000 0.000000
vn -1.000000 0.000000 0.000000
vn -1.000000 0.000000 0.000000
vn -1.000000 0.000000 0.000000
vn 1.000000 0.000000 0.000000
vn 1.000000 0.000000 0.000000
vn 1.000000 0.000000 0.000000
vn 1.000000 0.000000 0.000000
vn 0.000000 0.000000 1.000000
vn 0.000000 0.000000 1.000000
vn 0.000000 0.000000 1.000000
vn 1.000000 0.000000 0.000000
vn 1.000000 0.000000 0.000000
vn 1.000000 0.000000 0.000000
vn 1.000000 0.000000 0.000000
vn -1.000000 0.000000 0.000000
vn -1.000000 0.000000 0.000000
vn -1.000000 0.000000 0.000000
vn -1.000000 0.000000 0.000000
vn 0.000000 -0.029406 0.999568
vn 0.000000 0.028388 0.999597
vn 0.000000 0.028664 0.999589
vn 0.000000 -0.029065 0.999578
vn 0.000000 -0.382681 0.923881
vn 0.000000 -0.382681 0.923881
vn -1.000000 0.000000 0.000000
vn -1.000000 0.000000 0.000000
vn -1.000000 0.000000 0.000000
vn -1.000000 0.000000 0.000000
vn 1.000000 0.000000 0.000000
vn 1.000000 0.000000 0.000000
vn 1.000000 0.000000 0.000000
vn 1.000000 0.000000 0.000000
vn 1.000000 0.000000 0.000000
vn 1.000000 0.000000 0.000000
vn 1.000000 0.000000 0.000000
vn 1.000000 0.000000 0.000000
vn 1.000000 0.000000 0.000000
vn 1.000000 0.000000 0.000000
vn 1.000000 0.000000 0.000000
vn 1.000000 0.000000 0.000000
vn -1.000000 0.000000 0.000000
vn -1.000000 0.000000 0.000000
vn -1.000000 0.000000 0.000000
vn -1.000000 0.000000 0.000000
vn -1.000000 0.000000 0.000000
vn -1.000000 0.000000 0.000000
vn -1.000000 0.000000 0.000000
vn -1.000000 0.000000 0.000000
vn 0.000000 -0.027988 0.999608
vn 0.000000 -0.382681 0.923880
vn 0.000000 -0.382681 0.923880
vn 0.000000 -0.028665 0.999589
vn 0.000000 0.000000 1.000000
vn 0.000000 0.000000 1.000000
vn 0.000000 0.000000 1.000000
vn 0.000000 0.000000 1.000000
vn 0.000000 1.000000 0.000000
vn 0.000000 1.000000 0.000000
vn 0.000000 1.000000 0.000000
vn 0.000000 1.000000 0.000000
vn 0.000000 -1.000000 0.000000
vn 0.000000 -1.000000 0.000000
vn 0.000000 -1.000000 0.000000
vn 0.000000 -1.000000 0.000000
vn 0.000000 1.000000 0.000000
vn 0.000000 1.000000 0.000000
vn 0.000000 0.000000 1.000000
vn 0.000000 0.000000 1.000000
vn 0.000000 0.000000 1.000000
vn 0.000000 0.000000 1.000000
vn -0.667935 0.000000 0.744219
vn -0.667935 0.000000 0.744219
vn -0.667935 0.000000 0.744219
vn -0.667935 0.000000 0.744219
vn 0.000000 -1.000000 -0.000002
vn 0.000000 -1.000000 -0.000002
vn 0.000000 -1.000000 -0.000002
vn 0.000000 -1.000000 -0.000002
vn 0.705904 0.000000 0.708307
vn 0.705904 0.000000 0.708307
vn 0.705904 0.000000 0.708307
vn 0.705904 0.000000 0.708307
vn 0.000000 -1.000000 0.000000
vn 0.000000 -1.000000 0.000000
vn 0.000000 -1.000000 0.000000
vn 0.000000 -1.000000 0.000000
vn 0.000000 -1.000000 0.000000
vn 0.000000 -1.000000 0.000000
vn 0.000000 0.029220 -0.999573
vn 0.000000 -0.027953 -0.999609
vn 0.000000 -0.028548 -0.999592
vn 0.000000 0.029068 -0.999577
vn 0.000000 1.000000 0.000000
vn 0.000000 0.995340 -0.096428
vn 0.000000 0.995363 -0.096185
vn 0.000000 1.000000 0.000000
vn 0.000000 0.923880 -0.382683
vn 0.000000 0.923880 -0.382683
vn 0.000000 0.382681 -0.923880
vn 0.000000 0.382681 -0.923880
vn 0.000000 -0.382681 -0.923881
vn 0.000000 -0.382681 -0.923880
vn -1.000000 0.000000 0.000000
vn -1.000000 0.000000 0.000000
vn -1.000000 0.000000 0.000000
vn -1.000000 0.000000 0.000000
vn 1.000000 0.000000 0.000000
vn 1.000000 0.000000 0.000000
vn 1.000000 0.000000 0.000000
vn 1.000000 0.000000 0.000000
vn 1.000000 0.000000 0.000000
vn 1.000000 0.000000 0.000000
vn 1.000000 0.000000 0.000000
vn 1.000000 0.000000 0.000000
vn 1.000000 0.000000 0.000000
vn 1.000000 0.000000 0.000000
vn 1.000000 0.000000 0.000000
vn 1.000000 0.000000 0.000000
vn -1.000000 0.000000 0.000000
vn -1.000000 0.000000 0.000000
vn -1.000000 0.000000 0.000000
vn -1.000000 0.000000 0.000000
vn -1.000000 0.000000 0.000000
vn -1.000000 0.000000 0.000000
vn -1.000000 0.000000 0.000000
vn -1.000000 0.000000 0.000000
vn 0.000000 0.000000 -1.000000
vn 0.000000 0.000000 -1.000000
vn 0.000000 0.000000 -1.000000
vn 0.000000 0.000000 -1.000000
vn 0.000000 -0.382681 -0.923881
vn 0.000000 -0.032951 -0.999457
vn 0.000000 -0.030053 -0.999548
vn 0.000000 -0.382681 -0.923881
vn 0.000000 0.027892 -0.999611
vn 0.000000 0.026345 -0.999653
vn 0.000000 0.382681 -0.923881
vn 0.000000 0.382681 -0.923881
vn 0.000000 0.923881 -0.382680
vn 0.000000 0.995039 -0.099488
vn 0.000000 0.995192 -0.097946
vn 0.000000 0.923881 -0.382680
vn 0.000000 1.000000 0.000000
vn 0.000000 1.000000 0.000000
vn -0.667935 0.000000 -0.744219
vn -0.667935 0.000000 -0.744219
vn -0.667935 0.000000 -0.744219
vn -0.667935 0.000000 -0.744219
vn 0.000000 -1.000000 0.000000
vn 0.000000 -1.000000 0.000000
vn 0.000000 -1.000000 0.000000
vn 0.000000 -1.000000 0.000000
vn 0.705904 0.000000 -0.708307
vn 0.705904 0.000000 -0.708307
vn 0.705904 0.000000 -0.708307
vn 0.705904 0.000000 -0.708307
vn 0.000000 -1.000000 0.000000
vn 0.000000 -1.000000 0.000000
vn 0.000000 -1.000000 0.000000
vn 0.000000 -1.000000 0.000000
vn 0.000000 -1.000000 0.000000
vn 0.000000 -1.000000 0.000000
vn 0.000000 0.000000 1.000000
vn 0.000000 0.000000 1.000000
vn 0.000000 0.000000 1.000000
vn 0.000000 -0.923880 0.382682
vn 0.000000 -0.000000 0.000000
vn 0.000000 -0.000000 0.000000
vn 0.000000 -0.923880 0.382682
vn 0.008282 -0.994567 0.103768
vn 0.008282 -0.994567 0.103768
vn 0.008282 -0.994567 0.103768
vn 0.008282 -0.994567 0.103768
vn 0.000000 0.995290 0.096940
vn 0.000000 1.000000 0.000000
vn 0.000000 1.000000 0.000000
vn 0.000000 0.995339 0.096439
vn 0.000000 0.923880 0.382682
vn 0.000000 0.923880 0.382682
vn 0.000000 0.382681 0.923880
vn 0.000000 0.382681 0.923880
vn 0.000000 -1.000000 0.000001
vn 0.000000 -1.000000 0.000001
vn 0.000000 -1.000000 0.000001
vn 0.000000 -1.000000 0.000001
vn 0.000000 -1.000000 0.000000
vn 0.000000 -1.000000 0.000000
vn 0.000000 -1.000000 0.000000
vn 0.000000 -1.000000 0.000000
vn 0.000000 -1.000000 0.000000
vn 0.000000 -1.000000 0.000000
vn 0.000000 -1.000000 0.000000
vn 0.000000 -1.000000 0.000000
vn 0.000000 0.000000 1.000000
vn 0.000000 0.000000 1.000000
vn 0.000000 0.000000 1.000000
vn 0.000000 0.000000 1.000000
vn 0.000000 0.028066 0.999606
vn 0.000000 0.024237 0.999706
vn 0.000000 0.382681 0.923881
vn 0.000000 0.382681 0.923881
vn 0.000000 0.994094 0.108523
vn 0.000000 0.923880 0.382683
vn 0.000000 0.923880 0.382683
vn 0.000000 0.994755 0.102291
vn 0.000000 1.000000 0.000000
vn 0.000000 1.000000 0.000000
vn -0.012330 -0.985545 0.168964
vn -0.012330 -0.985545 0.168964
vn -0.012330 -0.985545 0.168964
vn -0.012330 -0.985545 0.168964
vn 0.000000 -0.987009 0.160665
vn 0.000000 -0.000000 0.000000
vn 0.000000 -0.000000 0.000000
vn 0.000000 -0.987009 0.160665
vn 0.000000 0.000000 -1.000000
vn 0.000000 0.000000 -1.000000
vn 0.000000 0.000000 -1.000000
vn 0.000000 0.000000 -1.000000
vn 0.000000 0.000000 -1.000000
vn 0.000000 0.000000 -1.000000
vn 0.000000 0.000000 -1.000000
vn 0.000000 0.000000 -1.000000
vn 0.000000 0.000000 -1.000000
vn 0.000000 0.000000 -1.000000
vn 0.000000 0.000000 -1.000000
vn -0.012392 -0.985537 -0.169004
vn -0.012392 -0.985537 -0.169004
vn -0.012392 -0.985537 -0.169004
vn -0.012392 -0.985537 -0.169004
vn 0.000000 -0.000000 -0.000000
vn 0.000000 -0.987009 -0.160665
vn 0.000000 -0.987009 -0.160665
vn 0.000000 -0.000000 -0.000000
vn 0.000000 0.000000 -1.000000
vn 0.000000 0.000000 -1.000000
vn 0.000000 0.000000 -1.000000
vn 0.000000 0.000000 -1.000000
vn 0.000000 0.000000 -1.000000
vn 0.000000 0.000000 -1.000000
vn 0.000000 0.000000 -1.000000
vn 0.012849 -0.984933 -0.172461
vn 0.012849 -0.984933 -0.172460
vn 0.012849 -0.984933 -0.172460
vn 0.012849 -0.984933 -0.172460
vn 0.000000 -0.986696 -0.162577
vn 0.000000 -0.000000 -0.000000
vn 0.000000 -0.000000 -0.000000
vn 0.000000 -0.986696 -0.162577
s off
g Wall_For_Door
usemtl initialShadingGroup
f 20/17/1 115/165/2 116/167/3 25/47/4
s 1
f 5/3/5 19/16/6 76/86/7 62/85/8
s off
f 86/89/9 29/52/10 28/51/11 85/88/12
f 87/90/13 30/53/14 31/54/15 88/91/16
f 89/92/17 32/55/18 33/56/19 90/93/20
f 92/95/21 35/58/22 34/57/23 91/94/24
s 2
f 3/30/25 119/170/26 124/177/27
s off
f 6/44/28 4/8/29 61/99/30 63/100/31
f 60/101/32 3/37/33 5/43/34 62/102/35
s 3
f 117/168/36 118/169/37 7/24/38 14/22/39
f 14/22/39 13/21/40 126/179/41 117/168/36
s off
f 13/12/42 14/6/43 7/7/44 8/10/45
f 36/59/46 37/60/47 38/61/48 39/62/49
f 16/13/50 12/11/51 10/5/52 15/9/53
f 40/63/54 41/64/55 42/65/56 43/66/57
f 44/67/58 45/68/59 46/69/60 47/70/61
f 48/71/62 49/72/63 50/73/64 51/74/65
s 4
f 137/193/66 141/197/67 16/19/68 15/20/69
s 2
f 18/33/70 122/174/71 125/178/72 6/34/73
s 1
f 18/15/74 6/4/75 63/145/76 75/144/77
s off
f 59/146/78 2/39/79 133/188/80 134/189/81
s 1
f 17/14/82 18/15/74 75/144/77 74/147/83
s 2
f 17/32/84 121/173/85 122/174/71 18/33/70
f 19/31/86 120/172/87 121/173/85 17/32/84
s 1
f 19/16/6 17/14/82 74/147/83 76/86/7
s off
f 22/45/88 1/1/89 20/82/90 24/48/91
f 132/187/92 133/188/93 2/39/94 21/40/95
f 2/2/96 23/46/97 27/50/98 21/18/99
f 52/75/100 53/76/101 54/77/102
f 55/78/103 56/79/104 57/80/105
s 7
f 157/215/106 158/216/107 71/104/108 64/103/109
s 8
f 142/198/110 155/213/111 66/106/112 60/105/113
f 66/106/112 155/213/111 156/214/114 65/107/115
s 7
f 65/107/116 156/214/117 157/215/106 64/103/109
f 71/104/108 158/216/107 159/217/118 70/108/119
s off
f 70/109/120 65/112/121 64/111/122 71/110/123
f 93/113/124 96/116/125 95/115/126 94/114/127
f 73/117/128 72/120/129 67/119/130 69/118/131
f 97/121/132 100/124/133 99/123/134 98/122/135
f 101/125/136 104/128/137 103/127/138 102/126/139
f 105/129/140 108/132/141 107/131/142 106/130/143
f 135/191/144 149/207/145 83/134/146 78/133/147
s 9
f 150/208/148 151/209/149 72/136/150 73/135/151
f 67/137/152 72/136/150 151/209/149 152/210/153
f 152/210/153 153/211/154 69/138/155 67/137/152
s 10
f 153/211/156 154/212/157 68/139/158 69/138/159
f 61/140/160 68/139/158 154/212/157 146/203/161
s off
f 79/150/162 81/153/163 77/152/164 58/151/165
f 134/189/166 135/190/167 78/154/168 59/146/169
f 59/155/170 78/158/171 84/157/172 80/156/173
f 109/159/174 111/161/175 110/160/176
f 112/162/177 114/164/178 113/163/179
s 2
f 3/30/25 124/177/27 5/35/180
f 4/25/181 125/178/72 123/175/182
f 6/34/73 125/178/72 4/25/181
f 5/35/180 124/177/27 120/172/87 19/31/86
s off
f 126/179/183 13/21/184 44/67/185 47/70/186
f 25/47/187 116/167/188 126/179/189 47/70/190
s 11
f 127/180/191 119/171/192 3/38/193 9/29/194
f 9/29/194 8/28/195 128/181/196 127/180/191
s 3
f 8/28/197 7/24/38 118/169/37 128/181/198
s off
f 1/41/199 129/182/200 115/166/201 20/42/202
f 130/183/203 129/182/204 1/41/205 58/87/206
f 58/87/207 77/149/208 131/184/209 130/183/210
f 136/192/211 132/186/212 21/81/213 26/49/214
s 4
f 10/23/215 138/194/216 137/193/66 15/20/69
f 139/195/217 138/194/216 10/23/215 12/27/218
s 12
f 140/196/219 139/195/220 12/27/221 11/26/222
f 4/36/223 123/176/224 140/196/219 11/26/222
s off
f 56/79/225 55/78/226 16/19/227 141/197/228
f 136/192/229 26/49/230 56/79/231 141/197/232
s 13
f 60/96/233 62/98/234 147/205/235
f 76/97/236 74/148/237 144/201/238 143/200/239
f 74/148/237 75/141/240 145/202/241 144/201/238
f 75/141/240 63/143/242 148/206/243 145/202/241
s off
f 112/162/244 113/163/245 150/208/246 73/135/247
f 83/134/248 149/207/249 150/208/250 113/163/251
f 77/83/252 82/84/253 160/218/254 131/185/255
s 13
f 148/206/243 61/142/256 146/204/257
f 148/206/243 63/143/242 61/142/256
f 147/205/235 62/98/234 76/97/236 143/200/239
f 60/96/233 147/205/235 142/199/258
s off
f 70/108/259 159/217/260 109/159/261 110/160/262
f 160/218/263 82/84/264 109/159/265 159/217/266
