# This file uses centimeters as units for non-parametric coordinates.

mtllib wall_1_cross_connect.mtl
g default
v 0.245172 1.485643 0.500000
v 0.245172 1.485643 -0.500000
v 0.245172 1.591411 0.500000
v 0.245172 1.591411 -0.500000
v -0.245172 1.591411 0.500000
v -0.245172 1.591411 -0.500000
v -0.245172 1.485643 0.500000
v -0.245172 1.485643 -0.500000
v 0.200435 1.949343 0.500000
v 0.245172 1.904606 0.500000
v 0.232069 1.936240 0.500000
v -0.200435 1.949343 0.500000
v -0.232069 1.936240 0.500000
v -0.245172 1.904606 0.500000
v 0.200435 1.949343 -0.500000
v 0.232069 1.936240 -0.500000
v 0.245172 1.904606 -0.500000
v -0.232069 1.936240 -0.500000
v -0.200435 1.949343 -0.500000
v -0.245172 1.904606 -0.500000
v -0.264084 0.009067 0.500000
v 0.264084 0.009067 0.500000
v -0.264084 0.009067 -0.500000
v 0.264084 0.009067 -0.500000
v -0.264084 0.303773 0.500000
v 0.264084 0.303773 0.500000
v 0.264084 0.303773 -0.500000
v -0.264084 0.303773 -0.500000
v -0.218242 0.449424 0.500000
v 0.218242 0.449424 0.500000
v 0.218242 0.449424 -0.500000
v -0.218242 0.449424 -0.500000
v -0.218242 1.290676 0.500000
v 0.218242 1.290676 0.500000
v 0.218242 1.290676 -0.500000
v -0.218242 1.290676 -0.500000
v -0.245172 1.465004 0.500000
v 0.245172 1.465004 0.500000
v 0.245172 1.465004 -0.500000
v -0.245172 1.465004 -0.500000
v -0.500000 1.485643 0.245172
v 0.500000 1.485643 0.245172
v -0.500000 1.591411 0.245172
v 0.500000 1.591411 0.245172
v -0.500000 1.591411 -0.245172
v 0.500000 1.591411 -0.245172
v -0.500000 1.485643 -0.245172
v 0.500000 1.485643 -0.245172
v -0.500000 1.949343 0.200435
v -0.500000 1.904606 0.245172
v -0.500000 1.936240 0.232069
v -0.500000 1.949343 -0.200435
v -0.500000 1.936240 -0.232069
v -0.500000 1.904606 -0.245172
v 0.500000 1.949343 0.200435
v 0.500000 1.936240 0.232069
v 0.500000 1.904606 0.245172
v 0.500000 1.936240 -0.232069
v 0.500000 1.949343 -0.200435
v 0.500000 1.904606 -0.245172
v -0.500000 0.009067 -0.264084
v -0.500000 0.009067 0.264084
v 0.500000 0.009067 -0.264084
v 0.500000 0.009067 0.264084
v -0.500000 0.303773 -0.264084
v -0.500000 0.303773 0.264084
v 0.500000 0.303773 0.264084
v 0.500000 0.303773 -0.264084
v -0.500000 0.449424 -0.218242
v -0.500000 0.449424 0.218242
v 0.500000 0.449424 0.218242
v 0.500000 0.449424 -0.218242
v -0.500000 1.290676 -0.218242
v -0.500000 1.290676 0.218242
v 0.500000 1.290676 0.218242
v 0.500000 1.290676 -0.218242
v -0.500000 1.465004 -0.245172
v -0.500000 1.465004 0.245172
v 0.500000 1.465004 0.245172
v 0.500000 1.465004 -0.245172
vt 0.625000 0.000000
vt 0.375000 1.000000
vt 0.625000 1.000000
vt 0.875000 0.000000
vt 0.875000 0.250000
vt 0.125000 0.000000
vt 0.125000 0.250000
vt 0.625000 0.250000
vt 0.625000 0.750000
vt 0.375000 0.000000
vt 0.375000 0.750000
vt 0.375000 0.250000
vt 0.375000 0.272809
vt 0.375000 0.477191
vt 0.375000 0.500000
vt 0.625000 0.272809
vt 0.625000 0.250000
vt 0.625000 0.500000
vt 0.625000 0.477191
vt 0.375000 0.500000
vt 0.625000 0.500000
vt 0.375000 0.250000
vt 0.375000 0.250000
vt 0.375000 0.500000
vt 0.625000 0.250000
vt 0.625000 0.500000
vt 0.375000 0.750000
vt 0.375000 1.000000
vt 0.625000 0.750000
vt 0.625000 1.000000
vt 0.375000 0.750000
vt 0.375000 1.000000
vt 0.625000 1.000000
vt 0.625000 0.750000
vt 0.375000 0.750000
vt 0.375000 1.000000
vt 0.625000 1.000000
vt 0.625000 0.750000
vt 0.375000 0.750000
vt 0.375000 1.000000
vt 0.625000 1.000000
vt 0.625000 0.750000
vt 0.375000 0.750000
vt 0.375000 1.000000
vt 0.625000 1.000000
vt 0.625000 0.750000
vt 0.625000 0.000000
vt 0.875000 0.000000
vt 0.875000 0.250000
vt 0.625000 0.250000
vt 0.125000 0.000000
vt 0.375000 0.000000
vt 0.375000 0.250000
vt 0.125000 0.250000
vt 0.375000 0.500000
vt 0.375000 0.250000
vt 0.375000 0.500000
vt 0.625000 0.500000
vt 0.625000 0.250000
vt 0.625000 0.500000
vt 0.625000 0.500000
vt 0.625000 0.477191
vt 0.625000 0.272809
vt 0.625000 0.250000
vt 0.375000 0.500000
vt 0.375000 0.250000
vt 0.375000 0.272809
vt 0.375000 0.477191
vt 0.375000 1.000000
vt 0.375000 0.750000
vt 0.375000 0.750000
vt 0.375000 1.000000
vt 0.625000 0.750000
vt 0.625000 1.000000
vt 0.625000 1.000000
vt 0.625000 0.750000
vt 0.375000 1.000000
vt 0.375000 0.750000
vt 0.375000 0.750000
vt 0.375000 1.000000
vt 0.625000 0.750000
vt 0.625000 1.000000
vt 0.625000 1.000000
vt 0.625000 0.750000
vt 0.375000 1.000000
vt 0.375000 0.750000
vt 0.625000 0.750000
vt 0.625000 1.000000
vt 0.375000 1.000000
vt 0.375000 0.750000
vt 0.625000 0.750000
vt 0.625000 1.000000
vn 0.000000 0.000000 -1.000000
vn 0.000000 0.000000 -1.000000
vn 0.000000 0.000000 -1.000000
vn 0.000000 0.000000 -1.000000
vn 0.000000 0.000000 1.000000
vn 0.000000 0.000000 1.000000
vn 0.000000 0.000000 1.000000
vn 0.000000 0.000000 1.000000
vn 0.000000 0.000000 1.000000
vn 0.000000 0.000000 1.000000
vn 0.000000 0.000000 -1.000000
vn 0.000000 0.000000 -1.000000
vn 0.000000 0.000000 -1.000000
vn 0.000000 0.000000 -1.000000
vn 0.000000 0.000000 -1.000000
vn 0.000000 0.000000 -1.000000
vn 0.000000 0.000000 1.000000
vn 0.000000 0.000000 1.000000
vn 0.000000 0.000000 1.000000
vn 0.000000 0.000000 1.000000
vn 0.000000 0.000000 1.000000
vn 0.000000 0.000000 1.000000
vn 0.000000 0.000000 1.000000
vn 0.000000 0.000000 1.000000
vn 0.000000 0.000000 -1.000000
vn 0.000000 0.000000 -1.000000
vn 0.000000 0.000000 -1.000000
vn 0.000000 0.000000 -1.000000
vn 0.000000 0.000000 1.000000
vn 0.000000 0.000000 1.000000
vn 0.000000 0.000000 1.000000
vn 0.000000 0.000000 1.000000
vn 0.000000 0.000000 -1.000000
vn 0.000000 0.000000 -1.000000
vn 0.000000 0.000000 -1.000000
vn 0.000000 0.000000 -1.000000
vn 0.000000 0.000000 1.000000
vn 0.000000 0.000000 1.000000
vn 0.000000 0.000000 1.000000
vn 0.000000 0.000000 1.000000
vn 0.000000 0.000000 -1.000000
vn 0.000000 0.000000 -1.000000
vn 0.000000 0.000000 -1.000000
vn 0.000000 0.000000 -1.000000
vn 0.000000 0.000000 1.000000
vn 0.000000 0.000000 1.000000
vn 0.000000 0.000000 1.000000
vn 0.000000 0.000000 1.000000
vn 0.000000 0.000000 -1.000000
vn 0.000000 0.000000 -1.000000
vn 0.000000 0.000000 -1.000000
vn 0.000000 0.000000 -1.000000
vn 0.000000 0.000000 1.000000
vn 0.000000 0.000000 1.000000
vn 0.000000 0.000000 1.000000
vn 0.000000 0.000000 1.000000
vn 0.000000 0.000000 -1.000000
vn 0.000000 0.000000 -1.000000
vn 0.000000 0.000000 -1.000000
vn 0.000000 0.000000 -1.000000
vn 1.000000 0.000000 0.000000
vn 1.000000 0.000000 0.000000
vn 1.000000 0.000000 0.000000
vn 1.000000 0.000000 0.000000
vn 0.999279 0.037972 0.000000
vn 0.999279 0.037972 0.000000
vn 0.923880 0.382683 0.000000
vn 0.923880 0.382683 0.000000
vn 0.382679 0.923882 0.000000
vn 0.030282 0.999541 0.000000
vn 0.030282 0.999541 0.000000
vn 0.382679 0.923882 0.000000
vn -0.030282 0.999541 0.000000
vn -0.030282 0.999541 0.000000
vn -0.382679 0.923882 0.000000
vn -0.382679 0.923882 0.000000
vn -0.923880 0.382683 0.000000
vn -0.999279 0.037972 0.000000
vn -0.999279 0.037972 0.000000
vn -0.923880 0.382683 0.000000
vn -1.000000 0.000000 0.000000
vn -1.000000 0.000000 0.000000
vn -1.000000 0.000000 0.000000
vn -1.000000 0.000000 0.000000
vn -1.000000 0.000000 0.000000
vn -1.000000 0.000000 0.000000
vn -1.000000 0.000000 0.000000
vn -1.000000 0.000000 0.000000
vn -0.988278 -0.152668 0.000000
vn -0.988278 -0.152668 0.000000
vn -0.988278 -0.152668 0.000000
vn -0.988278 -0.152668 0.000000
vn -1.000000 0.000000 0.000000
vn -1.000000 0.000000 0.000000
vn -1.000000 0.000000 0.000000
vn -1.000000 0.000000 0.000000
vn -0.953870 0.300221 0.000000
vn -0.953870 0.300221 0.000000
vn -0.953870 0.300221 0.000000
vn -0.953870 0.300221 0.000000
vn -1.000000 0.000000 0.000000
vn -1.000000 0.000000 0.000000
vn -1.000000 0.000000 0.000000
vn -1.000000 0.000000 0.000000
vn 0.000000 -1.000000 0.000000
vn 0.000000 -1.000000 0.000000
vn 0.000000 -1.000000 0.000000
vn 0.000000 -1.000000 0.000000
vn 1.000000 0.000000 0.000000
vn 1.000000 0.000000 0.000000
vn 1.000000 0.000000 0.000000
vn 1.000000 0.000000 0.000000
vn 0.953870 0.300221 0.000000
vn 0.953870 0.300221 0.000000
vn 0.953870 0.300221 0.000000
vn 0.953870 0.300221 0.000000
vn 1.000000 0.000000 0.000000
vn 1.000000 0.000000 0.000000
vn 1.000000 0.000000 0.000000
vn 1.000000 0.000000 0.000000
vn 0.988278 -0.152668 0.000000
vn 0.988278 -0.152668 0.000000
vn 0.988278 -0.152668 0.000000
vn 0.988278 -0.152668 0.000000
vn 1.000000 0.000000 0.000000
vn 1.000000 0.000000 0.000000
vn 1.000000 0.000000 0.000000
vn 1.000000 0.000000 0.000000
vn 1.000000 0.000000 0.000000
vn 1.000000 0.000000 0.000000
vn 1.000000 0.000000 0.000000
vn 1.000000 0.000000 0.000000
vn -1.000000 0.000000 0.000000
vn -1.000000 0.000000 0.000000
vn -1.000000 0.000000 0.000000
vn -1.000000 0.000000 0.000000
vn -1.000000 0.000000 0.000000
vn -1.000000 0.000000 0.000000
vn 1.000000 -0.000000 0.000000
vn 1.000000 -0.000000 0.000000
vn 1.000000 -0.000000 0.000000
vn 1.000000 0.000003 0.000000
vn 1.000000 0.000003 0.000000
vn 1.000000 -0.000000 0.000000
vn -1.000000 0.000000 0.000000
vn -1.000000 0.000000 0.000000
vn -1.000000 -0.000001 0.000000
vn -1.000000 -0.000001 0.000000
vn -1.000000 0.000000 0.000000
vn -1.000000 0.000000 0.000000
vn -1.000000 0.000000 0.000000
vn -1.000000 0.000000 0.000000
vn 1.000000 0.000000 0.000000
vn 1.000000 0.000000 0.000000
vn 1.000000 0.000000 0.000000
vn 1.000000 0.000000 0.000000
vn -1.000000 0.000000 0.000000
vn -1.000000 0.000000 0.000000
vn -1.000000 0.000000 0.000000
vn -1.000000 0.000000 0.000000
vn 1.000000 0.000000 0.000000
vn 1.000000 0.000000 0.000000
vn 1.000000 0.000000 0.000000
vn 1.000000 0.000000 0.000000
vn -1.000000 0.000000 0.000000
vn -1.000000 0.000000 0.000000
vn -1.000000 0.000000 0.000000
vn -1.000000 0.000000 0.000000
vn 1.000000 0.000000 0.000000
vn 1.000000 0.000000 0.000000
vn 1.000000 0.000000 0.000000
vn 1.000000 0.000000 0.000000
vn -1.000000 0.000000 0.000000
vn -1.000000 0.000000 0.000000
vn -1.000000 0.000000 0.000000
vn -1.000000 0.000000 0.000000
vn 1.000000 0.000000 0.000000
vn 1.000000 0.000000 0.000000
vn 1.000000 0.000000 0.000000
vn 1.000000 0.000000 0.000000
vn -1.000000 0.000000 0.000000
vn -1.000000 0.000000 0.000000
vn -1.000000 0.000000 0.000000
vn -1.000000 0.000000 0.000000
vn 1.000000 0.000000 0.000000
vn 1.000000 0.000000 0.000000
vn 1.000000 0.000000 0.000000
vn 1.000000 0.000000 0.000000
vn 0.000000 0.000000 1.000000
vn 0.000000 0.000000 1.000000
vn 0.000000 0.000000 1.000000
vn 0.000000 0.000000 1.000000
vn 0.000000 0.037972 0.999279
vn 0.000000 0.037972 0.999279
vn 0.000000 0.382683 0.923880
vn 0.000000 0.382683 0.923880
vn 0.000000 0.923882 0.382679
vn 0.000000 0.999541 0.030282
vn 0.000000 0.999541 0.030282
vn 0.000000 0.923882 0.382679
vn 0.000000 0.999541 -0.030282
vn 0.000000 0.999541 -0.030282
vn 0.000000 0.923882 -0.382679
vn 0.000000 0.923882 -0.382679
vn 0.000000 0.382683 -0.923880
vn 0.000000 0.037972 -0.999279
vn 0.000000 0.037972 -0.999279
vn 0.000000 0.382683 -0.923880
vn 0.000000 0.000000 -1.000000
vn 0.000000 0.000000 -1.000000
vn 0.000000 0.000000 -1.000000
vn 0.000000 0.000000 -1.000000
vn 0.000000 0.000000 -1.000000
vn 0.000000 0.000000 -1.000000
vn 0.000000 0.000000 -1.000000
vn 0.000000 0.000000 -1.000000
vn 0.000000 -0.152668 -0.988278
vn 0.000000 -0.152668 -0.988278
vn 0.000000 -0.152668 -0.988278
vn 0.000000 -0.152668 -0.988278
vn 0.000000 0.000000 -1.000000
vn 0.000000 0.000000 -1.000000
vn 0.000000 0.000000 -1.000000
vn 0.000000 0.000000 -1.000000
vn 0.000000 0.300221 -0.953870
vn 0.000000 0.300221 -0.953870
vn 0.000000 0.300221 -0.953870
vn 0.000000 0.300221 -0.953870
vn 0.000000 0.000000 -1.000000
vn 0.000000 0.000000 -1.000000
vn 0.000000 0.000000 -1.000000
vn 0.000000 0.000000 -1.000000
vn 0.000000 -1.000000 0.000000
vn 0.000000 -1.000000 0.000000
vn 0.000000 -1.000000 0.000000
vn 0.000000 -1.000000 0.000000
vn 0.000000 0.000000 1.000000
vn 0.000000 0.000000 1.000000
vn 0.000000 0.000000 1.000000
vn 0.000000 0.000000 1.000000
vn 0.000000 0.300221 0.953870
vn 0.000000 0.300221 0.953870
vn 0.000000 0.300221 0.953870
vn 0.000000 0.300221 0.953870
vn 0.000000 0.000000 1.000000
vn 0.000000 0.000000 1.000000
vn 0.000000 0.000000 1.000000
vn 0.000000 0.000000 1.000000
vn 0.000000 -0.152668 0.988278
vn 0.000000 -0.152668 0.988278
vn 0.000000 -0.152668 0.988278
vn 0.000000 -0.152668 0.988278
vn 0.000000 0.000000 1.000000
vn 0.000000 0.000000 1.000000
vn 0.000000 0.000000 1.000000
vn 0.000000 0.000000 1.000000
s 1
g wall_4
usemtl initialShadingGroup
f 2/1/1 8/4/2 6/5/3 4/8/4
s 2
f 7/6/5 1/10/6 3/22/7 5/7/8
f 5/20/8 3/22/7 10/12/9 14/15/10
s 1
f 20/18/11 17/17/12 4/8/4 6/21/3
f 18/26/13 19/19/14 15/16/15 16/25/16
f 18/26/13 16/25/16 17/17/12 20/18/11
s 2
f 13/24/17 11/23/18 9/13/19 12/14/20
f 14/15/10 10/12/9 11/23/18 13/24/17
s off
f 1/2/21 7/11/22 37/43/23 38/44/24
f 8/9/25 2/3/26 39/45/27 40/46/28
f 26/32/29 25/31/30 21/27/31 22/28/32
f 28/34/33 27/33/34 24/30/35 23/29/36
f 30/36/37 29/35/38 25/31/39 26/32/40
f 32/38/41 31/37/42 27/33/43 28/34/44
f 34/40/45 33/39/46 29/35/47 30/36/48
f 36/42/49 35/41/50 31/37/51 32/38/52
f 38/44/53 37/43/54 33/39/55 34/40/56
f 40/46/57 39/45/58 35/41/59 36/42/60
s 3
f 2/1/61 4/8/62 3/22/63 1/10/64
f 4/8/62 17/17/65 10/12/66 3/22/63
f 17/17/65 16/25/67 11/23/68 10/12/66
s 4
f 16/25/69 15/16/70 9/13/71 11/23/72
f 9/13/71 15/16/70 19/19/73 12/14/74
f 19/19/73 18/26/75 13/24/76 12/14/74
s 5
f 18/26/77 20/18/78 14/15/79 13/24/80
f 20/18/78 6/21/81 5/20/82 14/15/79
f 6/21/81 8/9/83 7/11/84 5/20/82
s off
f 8/9/85 40/46/86 37/43/87 7/11/88
f 40/46/89 36/42/90 33/39/91 37/43/92
f 36/42/93 32/38/94 29/35/95 33/39/96
f 32/38/97 28/34/98 25/31/99 29/35/100
f 28/34/101 23/29/102 21/27/103 25/31/104
f 23/29/105 24/30/106 22/28/107 21/27/108
f 24/30/109 27/33/110 26/32/111 22/28/112
f 27/33/113 31/37/114 30/36/115 26/32/116
f 31/37/117 35/41/118 34/40/119 30/36/120
f 35/41/121 39/45/122 38/44/123 34/40/124
f 39/45/125 2/3/126 1/2/127 38/44/128
s 6
f 42/47/129 48/48/130 46/49/131 44/50/132
s 7
f 47/51/133 41/52/134 43/53/135 45/54/136
f 45/55/136 43/53/135 50/56/137 54/57/138
s 6
f 60/58/139 57/59/140 44/50/132 46/60/131
f 58/61/141 59/62/142 55/63/143 56/64/144
f 58/61/141 56/64/144 57/59/140 60/58/139
s 7
f 53/65/145 51/66/146 49/67/147 52/68/148
f 54/57/138 50/56/137 51/66/146 53/65/145
s off
f 41/69/149 47/70/150 77/71/151 78/72/152
f 48/73/153 42/74/154 79/75/155 80/76/156
f 66/77/157 65/78/158 61/79/159 62/80/160
f 68/81/161 67/82/162 64/83/163 63/84/164
f 70/85/165 69/86/166 65/78/167 66/77/168
f 72/87/169 71/88/170 67/82/171 68/81/172
f 74/89/173 73/90/174 69/86/175 70/85/176
f 76/91/177 75/92/178 71/88/179 72/87/180
f 78/72/181 77/71/182 73/90/183 74/89/184
f 80/76/185 79/75/186 75/92/187 76/91/188
s 8
f 42/47/189 44/50/190 43/53/191 41/52/192
f 44/50/190 57/59/193 50/56/194 43/53/191
f 57/59/193 56/64/195 51/66/196 50/56/194
s 9
f 56/64/197 55/63/198 49/67/199 51/66/200
f 49/67/199 55/63/198 59/62/201 52/68/202
f 59/62/201 58/61/203 53/65/204 52/68/202
s 10
f 58/61/205 60/58/206 54/57/207 53/65/208
f 60/58/206 46/60/209 45/55/210 54/57/207
f 46/60/209 48/73/211 47/70/212 45/55/210
s off
f 48/73/213 80/76/214 77/71/215 47/70/216
f 80/76/217 76/91/218 73/90/219 77/71/220
f 76/91/221 72/87/222 69/86/223 73/90/224
f 72/87/225 68/81/226 65/78/227 69/86/228
f 68/81/229 63/84/230 61/79/231 65/78/232
f 63/84/233 64/83/234 62/80/235 61/79/236
f 64/83/237 67/82/238 66/77/239 62/80/240
f 67/82/241 71/88/242 70/85/243 66/77/244
f 71/88/245 75/92/246 74/89/247 70/85/248
f 75/92/249 79/75/250 78/72/251 74/89/252
f 79/75/253 42/74/254 41/69/255 78/72/256
