# This file uses centimeters as units for non-parametric coordinates.

mtllib wall_candle.mtl
g default
v 0.068131 0.394483 0.342936
v 0.055663 0.396490 0.324004
v 0.040839 0.397489 0.314582
v 0.000000 0.397912 0.310594
v 0.000000 0.386803 0.415376
v 0.040839 0.387226 0.411388
v 0.055663 0.388225 0.401967
v 0.068131 0.390232 0.383035
v 0.071191 0.392357 0.362985
v 0.072856 0.566258 0.351591
v 0.055761 0.568649 0.329031
v 0.030178 0.570248 0.313957
v 0.000000 0.570809 0.308663
v 0.000000 0.556064 0.447743
v 0.030178 0.556625 0.442450
v 0.055761 0.558223 0.427376
v 0.072856 0.560615 0.404815
v 0.078858 0.563436 0.378203
v -0.068131 0.394483 0.342936
v -0.055663 0.396490 0.324004
v -0.040839 0.397489 0.314582
v -0.040839 0.387226 0.411388
v -0.055663 0.388225 0.401967
v -0.068131 0.390232 0.383035
v -0.071191 0.392357 0.362985
v -0.072856 0.566258 0.351591
v -0.055761 0.568649 0.329031
v -0.030178 0.570248 0.313957
v -0.030178 0.556625 0.442450
v -0.055761 0.558223 0.427376
v -0.072856 0.560615 0.404815
v -0.078858 0.563436 0.378203
v 0.055213 0.587968 0.358036
v 0.042258 0.589781 0.340939
v 0.022870 0.590992 0.329515
v 0.000000 0.591418 0.325503
v 0.000000 0.580243 0.430903
v 0.022870 0.580669 0.426892
v 0.042258 0.581880 0.415468
v 0.055213 0.583692 0.398371
v 0.059762 0.585830 0.378203
v -0.055213 0.587968 0.358036
v -0.042258 0.589781 0.340939
v -0.022870 0.590992 0.329515
v -0.022870 0.580669 0.426892
v -0.042258 0.581880 0.415468
v -0.055213 0.583692 0.398371
v -0.059762 0.585830 0.378203
v 0.043451 0.596995 0.362332
v 0.033256 0.598422 0.348877
v 0.017998 0.599375 0.339887
v -0.000000 0.599710 0.336730
v -0.000000 0.590916 0.419677
v 0.017998 0.591251 0.416520
v 0.033256 0.592204 0.407530
v 0.043451 0.593630 0.394074
v 0.047031 0.595313 0.378203
v -0.043451 0.596995 0.362332
v -0.033256 0.598422 0.348877
v -0.017998 0.599375 0.339887
v -0.017998 0.591251 0.416520
v -0.033256 0.592204 0.407530
v -0.043451 0.593630 0.394074
v -0.047031 0.595313 0.378203
v 0.024687 0.601637 0.369186
v 0.018894 0.602448 0.361542
v -0.000000 0.600681 0.378203
v 0.010225 0.602989 0.356434
v -0.000000 0.603179 0.354640
v -0.000000 0.598183 0.401766
v 0.010225 0.598373 0.399973
v 0.018894 0.598915 0.394865
v 0.024687 0.599725 0.387220
v 0.026720 0.600681 0.378203
v -0.024687 0.601637 0.369186
v -0.018894 0.602448 0.361542
v -0.010225 0.602989 0.356434
v -0.010225 0.598373 0.399973
v -0.018894 0.598915 0.394865
v -0.024687 0.599725 0.387220
v -0.026720 0.600681 0.378203
v -0.090738 -0.460269 0.082194
v -0.061551 -0.498618 0.082194
v -0.082189 -0.487386 0.082194
v -0.090738 -0.416978 0.132989
v -0.082189 -0.431053 0.148293
v -0.061551 -0.436883 0.154632
v 0.090738 -0.460269 0.082194
v 0.082189 -0.487386 0.082194
v 0.061551 -0.498618 0.082194
v 0.090738 -0.416978 0.132989
v 0.082189 -0.431053 0.148293
v 0.061551 -0.436883 0.154632
v -0.082189 0.421912 0.296920
v -0.090738 0.421912 0.318189
v -0.061551 0.421912 0.288111
v -0.090738 -0.306250 0.136954
v -0.082189 -0.299001 0.117490
v -0.061551 -0.295999 0.109428
v 0.082189 0.421912 0.296920
v 0.061551 0.421912 0.288111
v 0.090738 0.421912 0.318189
v 0.090738 -0.306250 0.136954
v 0.082189 -0.299001 0.117490
v 0.061551 -0.295999 0.109428
v -0.090738 -0.368462 0.167787
v -0.082189 -0.377762 0.186515
v -0.061551 -0.381614 0.194272
v -0.082189 -0.361906 0.082194
v -0.061551 -0.345205 0.082194
v -0.090738 -0.402227 0.082194
v -0.061551 -0.319402 0.097568
v -0.082189 -0.323527 0.105061
v -0.090738 -0.333486 0.123152
v 0.082189 -0.361906 0.082194
v 0.090738 -0.402227 0.082194
v 0.061551 -0.345205 0.082194
v 0.090738 -0.333486 0.123152
v 0.082189 -0.323527 0.105061
v 0.061551 -0.319402 0.097568
v 0.061551 -0.381614 0.194272
v 0.082189 -0.377762 0.186515
v 0.090738 -0.368462 0.167787
v -0.082189 0.421912 0.433582
v -0.061551 0.421912 0.442530
v -0.090738 0.421912 0.411981
v 0.082189 0.421912 0.433582
v 0.090738 0.421912 0.411981
v 0.061551 0.421912 0.442530
v 0.078382 0.421912 0.402749
v 0.070997 0.421912 0.420076
v -0.078382 0.421912 0.402749
v -0.070997 0.421912 0.420076
v 0.070997 0.421912 0.310454
v -0.070997 0.421912 0.310454
v 0.053169 0.421912 0.303388
v -0.053169 0.421912 0.303388
v 0.078382 0.421912 0.327514
v -0.078382 0.421912 0.327514
v -0.053169 0.421912 0.427253
v 0.053169 0.421912 0.427253
v 0.071619 0.418995 0.398331
v 0.064872 0.418995 0.413613
v -0.071619 0.418995 0.398331
v -0.064872 0.418995 0.413613
v 0.064872 0.418995 0.316930
v -0.064872 0.418995 0.316930
v 0.048582 0.418995 0.310697
v -0.048582 0.418995 0.310697
v 0.071619 0.418995 0.331976
v -0.071619 0.418995 0.331976
v -0.048582 0.418995 0.419943
v 0.048582 0.418995 0.419943
v 0.068589 0.368089 0.388680
v 0.062127 0.368089 0.403315
v -0.068589 0.368089 0.388680
v -0.062127 0.368089 0.403315
v 0.062127 0.368089 0.310723
v -0.062127 0.368089 0.310723
v 0.046526 0.368089 0.304754
v -0.046526 0.368089 0.304754
v 0.068589 0.368089 0.325133
v -0.068589 0.368089 0.325133
v -0.046526 0.368089 0.409377
v 0.046526 0.368089 0.409377
vt 0.375000 0.312500
vt 0.390625 0.312500
vt 0.406250 0.312500
vt 0.421875 0.312500
vt 0.546875 0.312500
vt 0.562500 0.312500
vt 0.578125 0.312500
vt 0.593750 0.312500
vt 0.609375 0.312500
vt 0.625000 0.312500
vt 0.375000 0.687500
vt 0.390625 0.687500
vt 0.406250 0.687500
vt 0.421875 0.687500
vt 0.546875 0.687500
vt 0.562500 0.687500
vt 0.578125 0.687500
vt 0.593750 0.687500
vt 0.609375 0.687500
vt 0.625000 0.687500
vt 0.644356 0.783956
vt 0.610485 0.733265
vt 0.559794 0.699394
vt 0.500000 0.687500
vt 0.500000 1.000000
vt 0.559794 0.988106
vt 0.610485 0.954235
vt 0.644356 0.903544
vt 0.656250 0.843750
vt 0.500000 0.843750
vt 0.375000 0.312500
vt 0.390625 0.312500
vt 0.390625 0.687500
vt 0.375000 0.687500
vt 0.406250 0.312500
vt 0.406250 0.687500
vt 0.421875 0.312500
vt 0.421875 0.687500
vt 0.546875 0.312500
vt 0.562500 0.312500
vt 0.562500 0.687500
vt 0.546875 0.687500
vt 0.578125 0.312500
vt 0.578125 0.687500
vt 0.593750 0.312500
vt 0.593750 0.687500
vt 0.609375 0.312500
vt 0.609375 0.687500
vt 0.625000 0.312500
vt 0.625000 0.687500
vt 0.644356 0.903544
vt 0.610485 0.954235
vt 0.500000 0.843750
vt 0.559794 0.988106
vt 0.500000 1.000000
vt 0.500000 0.687500
vt 0.559794 0.699394
vt 0.610485 0.733265
vt 0.644356 0.783956
vt 0.656250 0.843750
vt 0.644356 0.903544
vt 0.610485 0.954235
vt 0.559794 0.988106
vt 0.500000 1.000000
vt 0.500000 0.687500
vt 0.559794 0.699394
vt 0.610485 0.733265
vt 0.644356 0.783956
vt 0.656250 0.843750
vt 0.610485 0.954235
vt 0.644356 0.903544
vt 0.559794 0.988106
vt 0.500000 1.000000
vt 0.559794 0.699394
vt 0.500000 0.687500
vt 0.610485 0.733265
vt 0.644356 0.783956
vt 0.656250 0.843750
vt 0.644356 0.903544
vt 0.610485 0.954235
vt 0.559794 0.988106
vt 0.500000 1.000000
vt 0.500000 0.687500
vt 0.559794 0.699394
vt 0.610485 0.733265
vt 0.644356 0.783956
vt 0.656250 0.843750
vt 0.610485 0.954235
vt 0.644356 0.903544
vt 0.559794 0.988106
vt 0.500000 1.000000
vt 0.559794 0.699394
vt 0.500000 0.687500
vt 0.610485 0.733265
vt 0.644356 0.783956
vt 0.656250 0.843750
vt 0.644356 0.903544
vt 0.610485 0.954235
vt 0.559794 0.988106
vt 0.500000 1.000000
vt 0.500000 0.687500
vt 0.559794 0.699394
vt 0.610485 0.733265
vt 0.644356 0.783956
vt 0.656250 0.843750
vt 0.610485 0.954235
vt 0.644356 0.903544
vt 0.559794 0.988106
vt 0.500000 1.000000
vt 0.559794 0.699394
vt 0.500000 0.687500
vt 0.610485 0.733265
vt 0.644356 0.783956
vt 0.656250 0.843750
vt 0.312506 0.000000
vt 0.375000 0.000000
vt 0.375000 0.041257
vt 0.317284 0.036434
vt 0.415208 0.000000
vt 0.415208 0.041257
vt 0.584792 0.041257
vt 0.625000 0.041257
vt 0.625000 0.062562
vt 0.584791 0.062562
vt 0.682716 0.036434
vt 0.686399 0.059526
vt 0.173695 0.250000
vt 0.125000 0.250000
vt 0.125000 0.062562
vt 0.195836 0.066219
vt 0.375000 0.500000
vt 0.415208 0.500000
vt 0.415208 0.687438
vt 0.375000 0.687438
vt 0.415208 0.750000
vt 0.375000 0.750000
vt 0.375000 0.708743
vt 0.415209 0.708743
vt 0.125000 0.000000
vt 0.217923 0.000000
vt 0.194421 0.057276
vt 0.125000 0.041257
vt 0.782077 0.000000
vt 0.875000 0.000000
vt 0.875000 0.041257
vt 0.805579 0.057276
vt 0.625000 0.750000
vt 0.584792 0.750000
vt 0.584792 0.708743
vt 0.625000 0.708743
vt 0.584792 0.000000
vt 0.687494 0.000000
vt 0.313601 0.059526
vt 0.325542 0.250000
vt 0.584792 0.500000
vt 0.584791 0.687438
vt 0.804164 0.066219
vt 0.826305 0.250000
vt 0.674458 0.250000
vt 0.415208 0.062562
vt 0.584792 0.250000
vt 0.415208 0.250000
vt 0.625000 0.250000
vt 0.625000 0.299458
vt 0.375000 0.299458
vt 0.375000 0.250000
vt 0.375000 0.062562
vt 0.625000 0.000000
vt 0.625000 0.500000
vt 0.625000 0.687438
vt 0.875000 0.250000
vt 0.875000 0.062562
vt 0.375000 0.250000
vt 0.625000 0.250000
vt 0.375000 0.500000
vt 0.625000 0.500000
vt 0.584792 0.500000
vt 0.415208 0.500000
vt 0.375000 0.451305
vt 0.625000 0.451305
vt 0.415208 0.250000
vt 0.584792 0.250000
vt 0.625000 0.299458
vt 0.625000 0.299458
vt 0.625000 0.250000
vt 0.375000 0.299458
vt 0.375000 0.250000
vt 0.375000 0.299458
vt 0.584792 0.500000
vt 0.625000 0.500000
vt 0.415208 0.500000
vt 0.375000 0.500000
vt 0.625000 0.451305
vt 0.625000 0.451305
vt 0.375000 0.451305
vt 0.375000 0.451305
vt 0.415208 0.250000
vt 0.584792 0.250000
vt 0.625000 0.299458
vt 0.625000 0.250000
vt 0.375000 0.250000
vt 0.375000 0.299458
vt 0.584792 0.500000
vt 0.625000 0.500000
vt 0.415208 0.500000
vt 0.375000 0.500000
vt 0.625000 0.451305
vt 0.375000 0.451305
vt 0.415208 0.250000
vt 0.584792 0.250000
vn 0.917959 -0.005182 -0.396642
vn 0.691903 0.019064 -0.721739
vn 0.682228 0.019567 -0.730877
vn 0.913645 -0.004321 -0.406490
vn 0.301574 0.009671 -0.953394
vn 0.278794 0.007924 -0.960318
vn 0.000000 -0.003368 -0.999994
vn 0.000000 -0.003368 -0.999994
vn -0.000000 -0.180105 0.983647
vn 0.301046 -0.159088 0.940246
vn 0.280898 -0.161700 0.946018
vn -0.000000 -0.180105 0.983647
vn 0.690500 -0.108866 0.715093
vn 0.685123 -0.109489 0.720152
vn 0.916787 -0.075380 0.392198
vn 0.915811 -0.075582 0.394434
vn 0.999209 -0.039719 -0.002157
vn 0.999206 -0.039357 -0.006221
vn 0.175297 0.984327 0.019287
vn 0.132734 0.989882 -0.050154
vn 0.000000 0.994427 0.105427
vn 0.070937 0.992965 -0.094808
vn 0.000000 0.993927 -0.110041
vn 0.000000 0.951652 0.307178
vn 0.068604 0.953629 0.293060
vn 0.129263 0.959239 0.251299
vn 0.172712 0.967432 0.185056
vn 0.189672 0.976442 0.102882
vn -0.917959 -0.005182 -0.396642
vn -0.913645 -0.004321 -0.406490
vn -0.682229 0.019567 -0.730877
vn -0.691903 0.019064 -0.721739
vn -0.278795 0.007924 -0.960318
vn -0.301574 0.009671 -0.953394
vn -0.280898 -0.161700 0.946018
vn -0.301046 -0.159088 0.940246
vn -0.685123 -0.109489 0.720152
vn -0.690500 -0.108866 0.715093
vn -0.915811 -0.075582 0.394434
vn -0.916787 -0.075380 0.392198
vn -0.999206 -0.039357 -0.006221
vn -0.999209 -0.039719 -0.002157
vn -0.175298 0.984327 0.019287
vn -0.132735 0.989882 -0.050154
vn -0.070937 0.992965 -0.094808
vn -0.068604 0.953630 0.293060
vn -0.129263 0.959239 0.251299
vn -0.172712 0.967432 0.185054
vn -0.189673 0.976443 0.102880
vn 0.713934 0.654235 -0.249551
vn 0.546977 0.648106 -0.529881
vn 0.507598 0.693523 -0.511244
vn 0.671749 0.697806 -0.248636
vn 0.293820 0.637596 -0.712138
vn 0.269877 0.685148 -0.676564
vn 0.000000 0.632748 -0.774358
vn 0.000000 0.681285 -0.732019
vn 0.000000 0.571509 0.820596
vn 0.261618 0.579136 0.772113
vn 0.247295 0.620535 0.744165
vn 0.000000 0.613153 0.789964
vn 0.498382 0.599645 0.626132
vn 0.473147 0.640706 0.604672
vn 0.677199 0.625798 0.387012
vn 0.645346 0.667150 0.372075
vn 0.758584 0.646881 0.078070
vn 0.721315 0.689195 0.068658
vn -0.546977 0.648106 -0.529881
vn -0.713934 0.654235 -0.249551
vn -0.671750 0.697806 -0.248636
vn -0.507598 0.693523 -0.511244
vn -0.293819 0.637596 -0.712139
vn -0.269877 0.685148 -0.676564
vn -0.261618 0.579136 0.772113
vn -0.247295 0.620535 0.744165
vn -0.498382 0.599645 0.626132
vn -0.473147 0.640706 0.604672
vn -0.677199 0.625798 0.387012
vn -0.645346 0.667150 0.372075
vn -0.758584 0.646881 0.078070
vn -0.721316 0.689195 0.068658
vn 0.328311 0.901354 -0.282441
vn 0.430517 0.895676 -0.111441
vn 0.176313 0.902162 -0.393722
vn 0.000000 0.901887 -0.431971
vn 0.163491 0.827780 0.536703
vn 0.000000 0.822361 0.568966
vn 0.309350 0.842647 0.440736
vn 0.416461 0.862857 0.286423
vn 0.461678 0.882350 0.091174
vn -0.430518 0.895676 -0.111441
vn -0.328311 0.901354 -0.282442
vn -0.176313 0.902162 -0.393722
vn -0.163491 0.827781 0.536703
vn -0.309350 0.842647 0.440736
vn -0.416461 0.862857 0.286423
vn -0.461678 0.882350 0.091173
vn -0.976064 -0.165525 0.141070
vn -0.923880 -0.291257 0.248225
vn -0.924863 -0.260886 0.276707
vn -0.990476 -0.094450 0.100178
vn -0.382682 -0.703158 0.599269
vn -0.046998 -0.760251 0.647927
vn -0.056619 -0.690477 0.721135
vn -0.385043 -0.637350 0.667477
vn 0.056619 -0.690477 0.721135
vn 0.385043 -0.637350 0.667477
vn 0.383838 -0.293202 0.875615
vn 0.057381 -0.317282 0.946594
vn 0.924863 -0.260886 0.276707
vn 0.990476 -0.094450 0.100178
vn 0.986152 -0.052472 0.157323
vn 0.924334 -0.120731 0.361981
vn -0.997391 0.017436 -0.070055
vn -0.923880 0.092427 -0.371354
vn -0.924003 0.095453 -0.370281
vn -0.998097 0.015392 -0.059707
vn -0.382684 0.223140 -0.896528
vn -0.062516 0.241052 -0.968497
vn -0.060956 0.248502 -0.966712
vn -0.382962 0.230108 -0.894645
vn -0.091310 0.509721 -0.855481
vn -0.382682 0.472896 -0.793677
vn -0.382868 0.449989 -0.806797
vn -0.066879 0.483621 -0.872719
vn -0.923880 0.195879 -0.328751
vn -0.999526 0.015762 -0.026454
vn -0.994768 0.050378 -0.088881
vn -0.923948 0.188622 -0.332778
vn 0.999526 0.015762 -0.026454
vn 0.923880 0.195879 -0.328751
vn 0.923948 0.188622 -0.332778
vn 0.994768 0.050378 -0.088881
vn 0.382682 0.472896 -0.793677
vn 0.091310 0.509721 -0.855481
vn 0.066879 0.483621 -0.872719
vn 0.382868 0.449989 -0.806797
vn 0.046998 -0.760251 0.647927
vn 0.976064 -0.165525 0.141070
vn -0.986152 -0.052472 0.157323
vn -0.991513 -0.038378 0.124215
vn 0.062516 0.241052 -0.968497
vn 0.060956 0.248502 -0.966712
vn 0.998097 0.015392 -0.059707
vn 0.997391 0.017436 -0.070055
vn 0.991513 -0.038378 0.124215
vn -0.057381 -0.317282 0.946594
vn 0.055416 -0.294739 0.953970
vn -0.055416 -0.294739 0.953970
vn 0.000000 1.000000 0.000000
vn 0.000000 1.000000 0.000000
vn 0.000000 1.000000 0.000000
vn 0.000000 1.000000 0.000000
vn -0.924334 -0.120731 0.361981
vn -0.383837 -0.293202 0.875615
vn 0.382682 -0.703158 0.599269
vn 0.923880 -0.291257 0.248225
vn 0.382684 0.223140 -0.896528
vn 0.382962 0.230108 -0.894645
vn 0.923880 0.092427 -0.371354
vn 0.924003 0.095453 -0.370281
vn -0.923880 -0.112965 0.365629
vn -0.382681 -0.272723 0.882710
vn 0.382682 -0.272723 0.882710
vn 0.923880 -0.112965 0.365629
vn 0.000000 1.000000 0.000001
vn 0.000000 1.000000 0.000001
vn 0.000000 1.000000 0.000000
vn 0.000000 1.000000 0.000000
vn 0.000000 1.000000 0.000000
vn 0.000000 1.000000 0.000000
vn 0.000000 1.000000 0.000000
vn 0.000000 1.000000 0.000000
vn 0.000000 1.000000 0.000000
vn 0.000000 1.000000 0.000000
vn 0.000000 1.000000 0.000000
vn 0.000000 1.000000 0.000000
vn 0.000000 1.000000 0.000000
vn 0.000000 1.000000 0.000000
vn 0.000000 1.000000 0.000000
vn 0.000000 1.000000 0.000000
vn 0.000000 1.000000 -0.000001
vn 0.000000 1.000000 -0.000001
vn 0.000000 1.000000 -0.000001
vn 0.000000 1.000000 -0.000001
vn 0.000000 1.000000 0.000002
vn 0.000000 1.000000 0.000002
vn 0.000000 1.000000 0.000002
vn 0.000000 1.000000 0.000002
vn 0.000000 1.000000 -0.000001
vn 0.000000 1.000000 -0.000001
vn 0.000000 1.000000 -0.000001
vn 0.000000 1.000000 -0.000001
vn 0.000000 1.000000 0.000000
vn 0.000000 1.000000 0.000000
vn 0.000000 1.000000 0.000000
vn 0.000000 1.000000 0.000000
vn 0.000000 1.000000 0.000000
vn 0.000000 1.000000 0.000000
vn 0.000000 1.000000 0.000000
vn 0.000000 1.000000 0.000000
vn 0.000000 1.000000 0.000000
vn 0.000000 1.000000 0.000000
vn 0.000000 1.000000 0.000000
vn 0.000000 1.000000 0.000000
vn 0.000000 1.000000 0.000000
vn 0.000000 1.000000 0.000000
vn 0.000000 1.000000 0.000000
vn 0.000000 1.000000 0.000000
vn 0.000000 1.000000 0.000001
vn 0.000000 1.000000 0.000001
vn 0.000000 1.000000 0.000001
vn 0.000000 1.000000 0.000001
vn 0.000000 1.000000 -0.000002
vn 0.000000 1.000000 -0.000002
vn 0.000000 1.000000 -0.000002
vn 0.000000 1.000000 -0.000002
vn 0.000000 1.000000 0.000001
vn 0.000000 1.000000 0.000001
vn 0.000000 1.000000 0.000001
vn 0.000000 1.000000 0.000001
vn -0.213822 0.950332 -0.226162
vn -0.369235 0.928259 -0.044730
vn -0.382857 0.923540 -0.022225
vn -0.215278 0.950312 -0.224861
vn 0.369235 0.928259 -0.044729
vn 0.213822 0.950332 -0.226161
vn 0.215278 0.950312 -0.224861
vn 0.382857 0.923540 -0.022225
vn -0.212203 0.950424 0.227298
vn -0.030304 0.934354 0.355056
vn -0.014124 0.931521 0.363414
vn -0.213111 0.950414 0.226489
vn 0.030304 0.934354 0.355056
vn 0.014124 0.931521 0.363414
vn 0.212203 0.950424 0.227299
vn 0.213111 0.950414 0.226490
vn -0.368843 0.928402 0.044998
vn -0.382738 0.923590 0.022238
vn 0.368842 0.928402 0.044999
vn 0.382737 0.923589 0.022238
vn 0.030691 0.934418 -0.354855
vn 0.014385 0.931569 -0.363280
vn -0.030691 0.934418 -0.354855
vn -0.014385 0.931569 -0.363280
vn -0.654305 0.183693 -0.733581
vn -0.992219 0.077544 -0.097409
vn -0.994986 0.072335 -0.069065
vn -0.689507 0.179156 -0.701772
vn 0.992219 0.077544 -0.097409
vn 0.654305 0.183693 -0.733581
vn 0.689507 0.179156 -0.701772
vn 0.994986 0.072335 -0.069065
vn -0.698942 -0.049299 0.713477
vn -0.058075 -0.113449 0.991845
vn -0.051021 -0.113774 0.992196
vn -0.655147 -0.056526 0.753383
vn 0.058075 -0.113449 0.991845
vn 0.051021 -0.113774 0.992196
vn 0.698942 -0.049299 0.713477
vn 0.655147 -0.056526 0.753383
vn -0.996221 0.049742 0.071199
vn -0.994391 0.046429 0.095034
vn 0.996221 0.049742 0.071199
vn 0.994391 0.046429 0.095035
vn 0.054609 0.205045 -0.977228
vn 0.054443 0.205040 -0.977238
vn -0.054609 0.205045 -0.977228
vn -0.054443 0.205040 -0.977238
s 1
g wall_candle
usemtl initialShadingGroup
f 1/1/1 2/2/2 11/12/3 10/11/4
f 2/2/2 3/3/5 12/13/6 11/12/3
f 3/3/5 4/4/7 13/14/8 12/13/6
f 5/5/9 6/6/10 15/16/11 14/15/12
f 6/6/10 7/7/13 16/17/14 15/16/11
f 7/7/13 8/8/15 17/18/16 16/17/14
f 8/8/15 9/9/17 18/19/18 17/18/16
f 9/9/17 1/10/1 10/20/4 18/19/18
s 3
f 65/97/19 66/98/20 67/30/21
f 66/98/20 68/99/22 67/30/21
f 68/99/22 69/100/23 67/30/21
f 70/101/24 71/102/25 67/30/21
f 71/102/25 72/103/26 67/30/21
f 72/103/26 73/104/27 67/30/21
f 73/104/27 74/105/28 67/30/21
f 74/105/28 65/97/19 67/30/21
s 1
f 19/31/29 26/34/30 27/33/31 20/32/32
f 20/32/32 27/33/31 28/36/33 21/35/34
f 21/35/34 28/36/33 13/38/8 4/37/7
f 5/39/9 14/42/12 29/41/35 22/40/36
f 22/40/36 29/41/35 30/44/37 23/43/38
f 23/43/38 30/44/37 31/46/39 24/45/40
f 24/45/40 31/46/39 32/48/41 25/47/42
f 25/47/42 32/48/41 26/50/30 19/49/29
s 3
f 75/107/43 67/53/21 76/106/44
f 76/106/44 67/53/21 77/108/45
f 77/108/45 67/53/21 69/109/23
f 70/111/24 67/53/21 78/110/46
f 78/110/46 67/53/21 79/112/47
f 79/112/47 67/53/21 80/113/48
f 80/113/48 67/53/21 81/114/49
f 81/114/49 67/53/21 75/107/43
f 10/28/50 11/27/51 34/62/52 33/61/53
f 11/27/51 12/26/54 35/63/55 34/62/52
f 12/26/54 13/25/56 36/64/57 35/63/55
f 14/24/58 15/23/59 38/66/60 37/65/61
f 15/23/59 16/22/62 39/67/63 38/66/60
f 16/22/62 17/21/64 40/68/65 39/67/63
f 17/21/64 18/29/66 41/69/67 40/68/65
f 18/29/66 10/28/50 33/61/53 41/69/67
f 27/52/68 26/51/69 42/71/70 43/70/71
f 28/54/72 27/52/68 43/70/71 44/72/73
f 13/55/56 28/54/72 44/72/73 36/73/57
f 29/57/74 14/56/58 37/75/61 45/74/75
f 30/58/76 29/57/74 45/74/75 46/76/77
f 31/59/78 30/58/76 46/76/77 47/77/79
f 32/60/80 31/59/78 47/77/79 48/78/81
f 26/51/69 32/60/80 48/78/81 42/71/70
f 33/61/53 34/62/52 50/80/82 49/79/83
f 34/62/52 35/63/55 51/81/84 50/80/82
f 35/63/55 36/64/57 52/82/85 51/81/84
f 37/65/61 38/66/60 54/84/86 53/83/87
f 38/66/60 39/67/63 55/85/88 54/84/86
f 39/67/63 40/68/65 56/86/89 55/85/88
f 40/68/65 41/69/67 57/87/90 56/86/89
f 41/69/67 33/61/53 49/79/83 57/87/90
f 43/70/71 42/71/70 58/89/91 59/88/92
f 44/72/73 43/70/71 59/88/92 60/90/93
f 36/73/57 44/72/73 60/90/93 52/91/85
f 45/74/75 37/75/61 53/93/87 61/92/94
f 46/76/77 45/74/75 61/92/94 62/94/95
f 47/77/79 46/76/77 62/94/95 63/95/96
f 48/78/81 47/77/79 63/95/96 64/96/97
f 42/71/70 48/78/81 64/96/97 58/89/91
f 49/79/83 50/80/82 66/98/20 65/97/19
f 50/80/82 51/81/84 68/99/22 66/98/20
f 51/81/84 52/82/85 69/100/23 68/99/22
f 53/83/87 54/84/86 71/102/25 70/101/24
f 54/84/86 55/85/88 72/103/26 71/102/25
f 55/85/88 56/86/89 73/104/27 72/103/26
f 56/86/89 57/87/90 74/105/28 73/104/27
f 57/87/90 49/79/83 65/97/19 74/105/28
f 59/88/92 58/89/91 75/107/43 76/106/44
f 60/90/93 59/88/92 76/106/44 77/108/45
f 52/91/85 60/90/93 77/108/45 69/109/23
f 61/92/94 53/93/87 70/111/24 78/110/46
f 62/94/95 61/92/94 78/110/46 79/112/47
f 63/95/96 62/94/95 79/112/47 80/113/48
f 64/96/97 63/95/96 80/113/48 81/114/49
f 58/89/91 64/96/97 81/114/49 75/107/43
s 10
f 82/115/98 84/116/99 86/117/100 85/118/101
s 11
f 84/116/102 83/119/103 87/120/104 86/117/105
f 93/121/106 92/122/107 122/123/108 121/124/109
s 13
f 92/122/110 91/125/111 123/126/112 122/123/113
s 10
f 95/127/114 94/128/115 98/129/116 97/130/117
s 15
f 94/131/118 96/132/119 99/133/120 98/134/121
f 110/135/122 109/136/123 113/137/124 112/138/125
s 10
f 109/139/126 111/140/127 114/141/128 113/142/129
s 13
f 116/143/130 115/144/131 119/145/132 118/146/133
s 15
f 115/147/134 117/148/135 120/149/136 119/150/137
s 11
f 87/120/104 83/119/103 90/151/138 93/121/106
s 15
f 112/138/125 120/149/136 117/148/135 110/135/122
s 13
f 91/125/111 88/152/139 116/143/130 118/146/133
s 10
f 114/141/128 111/140/127 82/115/98 85/118/101
f 97/130/117 106/153/140 126/154/141 95/127/114
s 15
f 99/133/120 96/132/119 101/155/142 105/156/143
s 13
f 123/126/112 103/157/144 102/158/145 128/159/146
s 11
f 108/160/147 121/124/109 129/161/148 125/162/149
s 10
f 114/141/128 85/118/101 106/153/140 97/130/117
s 11
f 87/120/104 93/121/106 121/124/109 108/160/147
s 13
f 91/125/111 118/146/133 103/157/144 123/126/112
s 15
f 99/133/120 105/156/143 120/149/136 112/138/125
s 17
f 155/163/150 154/164/151 156/165/152 157/166/153
s 10
f 85/118/101 86/117/100 107/167/154 106/153/140
s 11
f 86/117/105 87/120/104 108/160/147 107/167/155
f 90/151/138 89/168/156 92/122/107 93/121/106
s 13
f 89/168/157 88/152/139 91/125/111 92/122/110
s 15
f 101/155/142 100/169/158 104/170/159 105/156/143
s 13
f 100/171/160 102/158/145 103/157/144 104/172/161
s 10
f 106/153/140 107/167/154 124/173/162 126/154/141
s 11
f 107/167/155 108/160/147 125/162/149 124/173/163
s 10
f 97/130/117 98/129/116 113/142/129 114/141/128
s 15
f 98/134/121 99/133/120 112/138/125 113/137/124
f 105/156/143 104/170/159 119/150/137 120/149/136
s 13
f 104/172/161 103/157/144 118/146/133 119/145/132
s 11
f 121/124/109 122/123/108 127/174/164 129/161/148
s 13
f 122/123/113 123/126/112 128/159/146 127/174/165
s 17
f 159/175/166 158/176/167 160/177/168 161/178/169
f 163/179/170 162/180/171 158/176/167 159/175/166
f 156/165/152 154/164/151 162/180/171 163/179/170
f 155/163/150 157/166/153 164/181/172 165/182/173
s off
f 127/174/174 128/183/175 130/184/176 131/185/177
f 126/186/178 124/173/179 133/187/180 132/188/181
f 100/169/182 101/155/183 136/189/184 134/190/185
f 101/155/186 96/132/187 137/191/188 136/189/189
f 96/132/190 94/131/191 135/192/192 137/191/193
f 102/193/194 100/169/195 134/190/196 138/194/197
f 94/131/198 95/195/199 139/196/200 135/192/201
f 128/183/202 102/193/203 138/194/204 130/184/205
f 95/195/206 126/186/207 132/188/208 139/196/209
f 124/173/210 125/162/211 140/197/212 133/187/213
f 125/162/214 129/161/215 141/198/216 140/197/217
f 129/161/218 127/174/219 131/185/220 141/198/221
s 19
f 131/185/222 130/184/223 142/199/224 143/200/225
f 132/188/226 133/187/227 145/201/228 144/202/229
f 134/190/230 136/189/231 148/203/232 146/204/233
f 136/189/231 137/191/234 149/205/235 148/203/232
f 137/191/234 135/192/236 147/206/237 149/205/235
f 138/194/238 134/190/230 146/204/233 150/207/239
f 135/192/236 139/196/240 151/208/241 147/206/237
f 130/184/223 138/194/238 150/207/239 142/199/224
f 139/196/240 132/188/226 144/202/229 151/208/241
f 133/187/227 140/197/242 152/209/243 145/201/228
f 140/197/242 141/198/244 153/210/245 152/209/243
f 141/198/244 131/185/222 143/200/225 153/210/245
s 22
f 143/200/246 142/199/247 154/164/248 155/163/249
f 144/202/250 145/201/251 157/166/252 156/165/253
f 146/204/254 148/203/255 160/177/256 158/176/257
f 148/203/255 149/205/258 161/178/259 160/177/256
f 149/205/258 147/206/260 159/175/261 161/178/259
f 150/207/262 146/204/254 158/176/257 162/180/263
f 147/206/260 151/208/264 163/179/265 159/175/261
f 142/199/247 150/207/262 162/180/263 154/164/248
f 151/208/264 144/202/250 156/165/253 163/179/265
f 145/201/251 152/209/266 164/181/267 157/166/252
f 152/209/266 153/210/268 165/182/269 164/181/267
f 153/210/268 143/200/246 155/163/249 165/182/269
