# This file uses centimeters as units for non-parametric coordinates.

mtllib wall_1_corner.mtl
g default
v 0.500000 1.485643 0.245172
v 0.500000 1.591411 0.245172
v 0.500000 1.591411 -0.245172
v 0.500000 1.485643 -0.245172
v 0.500000 1.949343 0.200435
v 0.500000 1.936240 0.232069
v 0.500000 1.904606 0.245172
v 0.500000 1.936240 -0.232069
v 0.500000 1.949343 -0.200435
v 0.500000 1.904606 -0.245172
v 0.500000 0.009067 -0.264084
v 0.500000 0.009067 0.264084
v 0.500000 0.303773 0.264084
v 0.500000 0.303773 -0.264084
v 0.500000 0.449424 0.218242
v 0.500000 0.449424 -0.218242
v 0.500000 1.290676 0.218242
v 0.500000 1.290676 -0.218242
v 0.500000 1.465004 0.245172
v 0.500000 1.465004 -0.245172
v 0.238334 1.485643 0.245172
v 0.119914 1.591411 0.245172
v 0.119914 1.904606 0.245172
v 0.119914 1.936240 0.232069
v 0.160174 1.949343 0.169824
v -0.225351 1.949343 -0.223968
v -0.241168 1.936240 -0.239785
v -0.247720 1.904606 -0.246337
v -0.247720 1.591411 -0.246337
v -0.247720 1.485643 -0.246337
v -0.247720 1.465004 -0.246337
v -0.234255 1.290676 -0.232872
v -0.234255 0.449424 -0.232872
v -0.257176 0.303773 -0.255793
v -0.257176 0.009067 -0.255793
v 0.264084 0.009067 0.261196
v 0.262106 0.303773 0.264084
v 0.216086 0.449424 0.218242
v 0.201730 1.290676 0.218242
v 0.235214 1.465005 0.245172
v 0.245172 1.485643 0.500000
v 0.245172 1.591411 0.500000
v -0.245172 1.591411 0.500000
v -0.245172 1.485643 0.500000
v 0.200435 1.949343 0.500000
v 0.245172 1.904606 0.500000
v 0.232069 1.936240 0.500000
v -0.200435 1.949343 0.500000
v -0.232069 1.936240 0.500000
v -0.245172 1.904606 0.500000
v -0.264084 0.009067 0.500000
v 0.264084 0.009067 0.500000
v -0.264084 0.303773 0.500000
v 0.264084 0.303773 0.500000
v -0.218242 0.449424 0.500000
v 0.218242 0.449424 0.500000
v -0.218242 1.290676 0.500000
v 0.218242 1.290676 0.500000
v -0.245172 1.465004 0.500000
v 0.245172 1.465004 0.500000
v 0.245172 1.485643 0.139212
v 0.245172 1.591411 0.139212
v 0.245172 1.904606 0.139212
v 0.232069 1.936240 0.139212
v 0.264084 0.303773 0.139212
v 0.218242 0.449424 0.139212
v 0.218242 1.290676 0.139212
v 0.245172 1.465004 0.139212
vt 0.625000 0.000000
vt 0.875000 0.000000
vt 0.875000 0.250000
vt 0.625000 0.250000
vt 0.625000 0.500000
vt 0.625000 0.250000
vt 0.625000 0.500000
vt 0.625000 0.500000
vt 0.625000 0.477191
vt 0.625000 0.272809
vt 0.625000 0.250000
vt 0.625000 0.750000
vt 0.625000 1.000000
vt 0.625000 1.000000
vt 0.625000 0.750000
vt 0.625000 0.750000
vt 0.625000 1.000000
vt 0.625000 1.000000
vt 0.625000 0.750000
vt 0.625000 0.750000
vt 0.625000 1.000000
vt 0.625000 0.750000
vt 0.625000 1.000000
vt 0.437433 0.000000
vt 0.437433 1.000000
vt 0.437433 0.250000
vt 0.437433 0.250000
vt 0.437433 0.250000
vt 0.481204 0.287873
vt 0.439429 0.489916
vt 0.438394 0.502327
vt 0.437746 0.500586
vt 0.438019 0.583768
vt 0.438070 0.746643
vt 0.438078 0.749078
vt 0.441447 0.749654
vt 0.441446 0.749953
vt 0.435717 0.749987
vt 0.427750 0.753320
vt 0.482721 0.998525
vt 0.437433 1.000000
vt 0.437433 1.000000
vt 0.437433 1.000000
vt 0.437433 1.000000
vt 0.125000 0.000000
vt 0.375000 0.000000
vt 0.375000 0.250000
vt 0.125000 0.250000
vt 0.375000 0.500000
vt 0.375000 0.250000
vt 0.375000 0.500000
vt 0.375000 0.500000
vt 0.375000 0.250000
vt 0.375000 0.272809
vt 0.375000 0.477191
vt 0.375000 1.000000
vt 0.375000 0.750000
vt 0.375000 0.750000
vt 0.375000 1.000000
vt 0.375000 1.000000
vt 0.375000 0.750000
vt 0.375000 0.750000
vt 0.375000 1.000000
vt 0.375000 1.000000
vt 0.375000 0.750000
vt 0.375000 1.000000
vt 0.375000 0.750000
vt 0.561875 0.000000
vt 0.561875 0.250000
vt 0.561875 0.250000
vt 0.561875 0.250000
vt 0.517290 0.292819
vt 0.559977 0.490624
vt 0.561262 0.503045
vt 0.561916 0.500784
vt 0.561643 0.585548
vt 0.561587 0.748101
vt 0.561577 0.749450
vt 0.558207 0.749784
vt 0.558208 0.749970
vt 0.563937 0.749992
vt 0.571852 0.752763
vt 0.512818 0.999914
vt 0.561875 1.000000
vt 0.561875 1.000000
vt 0.561875 1.000000
vt 0.561875 1.000000
vt 0.561875 1.000000
vn 1.000000 0.000000 0.000000
vn 1.000000 0.000000 0.000000
vn 1.000000 0.000000 0.000000
vn 1.000000 0.000000 0.000000
vn 1.000000 -0.000000 0.000000
vn 1.000000 -0.000000 0.000000
vn 1.000000 -0.000000 0.000000
vn 1.000000 0.000003 0.000000
vn 1.000000 0.000003 0.000000
vn 1.000000 -0.000000 0.000000
vn 1.000000 0.000000 0.000000
vn 1.000000 0.000000 0.000000
vn 1.000000 0.000000 0.000000
vn 1.000000 0.000000 0.000000
vn 1.000000 0.000000 0.000000
vn 1.000000 0.000000 0.000000
vn 1.000000 0.000000 0.000000
vn 1.000000 0.000000 0.000000
vn 1.000000 0.000000 0.000000
vn 1.000000 0.000000 0.000000
vn 1.000000 0.000000 0.000000
vn 1.000000 0.000000 0.000000
vn 1.000000 0.000000 0.000000
vn 1.000000 0.000000 0.000000
vn 1.000000 0.000000 0.000000
vn 1.000000 0.000000 0.000000
vn 1.000000 0.000000 0.000000
vn 1.000000 0.000000 0.000000
vn 1.000000 0.000000 0.000000
vn 1.000000 0.000000 0.000000
vn 0.000000 0.000000 1.000000
vn -0.000000 0.000000 1.000000
vn -0.000000 0.000000 1.000000
vn 0.000000 0.000000 1.000000
vn 0.000000 0.037972 0.999279
vn 0.000000 0.037972 0.999279
vn 0.000000 0.382683 0.923880
vn 0.000000 0.382683 0.923880
vn -0.011241 0.964354 0.264375
vn -0.000992 0.999727 0.023340
vn -0.000763 0.999839 0.017948
vn -0.011241 0.964354 0.264375
vn 0.002332 0.993990 -0.109445
vn 0.000882 0.999143 -0.041373
vn 0.010357 0.873861 -0.486066
vn 0.010357 0.873861 -0.486066
vn 0.005697 0.296129 -0.955131
vn 0.001959 0.028328 -0.999597
vn 0.001912 0.024999 -0.999686
vn 0.005697 0.296129 -0.955131
vn 0.001557 0.000000 -0.999999
vn 0.001557 0.000000 -0.999999
vn 0.001557 0.000000 -0.999999
vn 0.001557 0.000000 -0.999999
vn 0.001557 -0.000000 -0.999999
vn 0.001557 -0.000000 -0.999999
vn 0.001557 -0.000000 -0.999999
vn 0.001557 -0.000000 -0.999999
vn 0.010586 -0.114679 -0.993346
vn 0.010586 -0.114679 -0.993346
vn 0.010586 -0.114679 -0.993346
vn 0.010586 -0.114679 -0.993346
vn 0.019920 0.000000 -0.999802
vn 0.019920 0.000000 -0.999802
vn 0.019920 0.000000 -0.999802
vn 0.019920 0.000000 -0.999802
vn 0.004136 0.229430 -0.973316
vn 0.004136 0.229430 -0.973316
vn 0.004136 0.229430 -0.973316
vn 0.004136 0.229430 -0.973316
vn -0.010950 0.000000 -0.999940
vn -0.010950 0.000000 -0.999940
vn -0.010950 0.000000 -0.999940
vn -0.010950 0.000000 -0.999940
vn 0.000000 -1.000000 0.000000
vn 0.000000 -1.000000 0.000000
vn 0.000000 -1.000000 0.000000
vn 0.000000 -1.000000 0.000000
vn -0.006095 -0.004920 0.999969
vn -0.006095 -0.004920 0.999969
vn -0.006095 -0.004920 0.999969
vn -0.006095 -0.004920 0.999969
vn 0.000000 0.300221 0.953870
vn 0.000000 0.300221 0.953870
vn 0.000000 0.300221 0.953870
vn 0.000000 0.300221 0.953870
vn 0.000000 0.000000 1.000000
vn 0.000000 0.000000 1.000000
vn 0.000000 0.000000 1.000000
vn 0.000000 0.000000 1.000000
vn 0.000000 -0.152668 0.988278
vn 0.000000 -0.152668 0.988278
vn 0.000000 -0.152668 0.988278
vn 0.000000 -0.152668 0.988278
vn -0.000000 0.000000 1.000000
vn -0.000000 0.000000 1.000000
vn -0.000000 0.000000 1.000000
vn -0.000000 0.000000 1.000000
vn 0.000000 0.000000 1.000000
vn 0.000000 0.000000 1.000000
vn 0.000000 0.000000 1.000000
vn 0.000000 0.000000 1.000000
vn 0.000000 0.000000 1.000000
vn 0.000000 0.000000 1.000000
vn 0.000000 0.000000 1.000000
vn 0.000000 0.000000 1.000000
vn 0.000000 0.000000 1.000000
vn 0.000000 0.000000 1.000000
vn 0.000000 0.000000 1.000000
vn 0.000000 0.000000 1.000000
vn 0.000000 0.000000 1.000000
vn 0.000000 0.000000 1.000000
vn 0.000000 0.000000 1.000000
vn 0.000000 0.000000 1.000000
vn 0.000000 0.000000 1.000000
vn 0.000000 0.000000 1.000000
vn 0.000000 0.000000 1.000000
vn 0.000000 0.000000 1.000000
vn 0.000000 0.000000 1.000000
vn 0.000000 0.000000 1.000000
vn 0.000000 0.000000 1.000000
vn 0.000000 0.000000 1.000000
vn 0.000000 0.000000 1.000000
vn 0.000000 0.000000 1.000000
vn 0.000000 0.000000 1.000000
vn 0.000000 0.000000 1.000000
vn 0.000000 0.000000 1.000000
vn 0.000000 0.000000 1.000000
vn 1.000000 0.000000 0.000000
vn 1.000000 0.000000 0.000000
vn 1.000000 0.000000 0.000000
vn 1.000000 0.000000 0.000000
vn 0.999279 0.037972 0.000000
vn 0.999279 0.037972 0.000000
vn 0.923880 0.382683 0.000000
vn 0.923880 0.382683 0.000000
vn 0.241453 0.970311 -0.014069
vn 0.015685 0.999877 -0.000914
vn 0.023674 0.999719 -0.001380
vn 0.241453 0.970311 -0.014069
vn -0.114481 0.993422 0.002660
vn -0.042265 0.999106 0.000982
vn -0.486301 0.873718 0.011301
vn -0.486301 0.873718 0.011301
vn -0.955171 0.295959 0.007486
vn -0.999681 0.024977 0.003769
vn -0.999592 0.028321 0.003816
vn -0.955171 0.295959 0.007486
vn -0.999994 0.000000 0.003413
vn -0.999994 0.000000 0.003413
vn -0.999994 0.000000 0.003413
vn -0.999994 0.000000 0.003413
vn -0.999994 0.000000 0.003413
vn -0.999994 0.000000 0.003413
vn -0.999994 0.000000 0.003413
vn -0.999994 0.000000 0.003413
vn -0.993333 -0.114605 0.012464
vn -0.993333 -0.114605 0.012464
vn -0.993333 -0.114605 0.012464
vn -0.993333 -0.114605 0.012464
vn -0.999761 0.000000 0.021844
vn -0.999761 0.000000 0.021844
vn -0.999761 0.000000 0.021844
vn -0.999761 0.000000 0.021844
vn -0.973339 0.229293 0.005952
vn -0.973339 0.229293 0.005952
vn -0.973339 0.229293 0.005952
vn -0.973339 0.229293 0.005952
vn -0.999958 0.000000 -0.009140
vn -0.999958 0.000000 -0.009140
vn -0.999958 0.000000 -0.009140
vn -0.999958 0.000000 -0.009140
vn 0.000000 -1.000000 0.000000
vn 0.000000 -1.000000 0.000000
vn 0.000000 -1.000000 0.000000
vn 0.000000 -1.000000 0.000000
vn 1.000000 0.000000 0.000000
vn 1.000000 0.000000 0.000000
vn 1.000000 0.000000 0.000000
vn 1.000000 0.000000 0.000000
vn 0.953870 0.300221 0.000000
vn 0.953870 0.300221 0.000000
vn 0.953870 0.300221 0.000000
vn 0.953870 0.300221 0.000000
vn 1.000000 0.000000 0.000000
vn 1.000000 0.000000 0.000000
vn 1.000000 0.000000 0.000000
vn 1.000000 0.000000 0.000000
vn 0.988278 -0.152668 0.000000
vn 0.988278 -0.152668 0.000000
vn 0.988278 -0.152668 0.000000
vn 0.988278 -0.152668 0.000000
vn 1.000000 0.000000 0.000000
vn 1.000000 0.000000 0.000000
vn 1.000000 0.000000 0.000000
vn 1.000000 0.000000 0.000000
s 1
g polySurface2
usemtl initialShadingGroup
f 1/1/1 4/2/2 3/3/3 2/4/4
f 10/5/5 7/6/6 2/4/4 3/7/3
f 8/8/7 9/9/8 5/10/9 6/11/10
f 8/8/7 6/11/10 7/6/6 10/5/5
s off
f 4/12/11 1/13/12 19/14/13 20/15/14
f 14/16/15 13/17/16 12/18/17 11/19/18
f 16/20/19 15/21/20 13/17/21 14/16/22
f 18/22/23 17/23/24 15/21/25 16/20/26
f 20/15/27 19/14/28 17/23/29 18/22/30
s 2
f 1/1/31 2/4/32 22/26/33 21/24/34
f 2/4/32 7/6/35 23/27/36 22/26/33
f 7/6/35 6/11/37 24/28/38 23/27/36
s 3
f 6/11/39 5/10/40 25/29/41 24/28/42
f 26/30/43 25/29/41 5/10/40 9/9/44
f 9/9/44 8/8/45 27/31/46 26/30/43
s 4
f 8/8/47 10/5/48 28/32/49 27/31/50
f 10/5/48 3/7/51 29/33/52 28/32/49
f 3/7/51 4/12/53 30/34/54 29/33/52
s off
f 4/12/55 20/15/56 31/35/57 30/34/58
f 20/15/59 18/22/60 32/36/61 31/35/62
f 18/22/63 16/20/64 33/37/65 32/36/66
f 16/20/67 14/16/68 34/38/69 33/37/70
f 14/16/71 11/19/72 35/39/73 34/38/74
f 11/19/75 12/18/76 36/40/77 35/39/78
f 12/18/79 13/17/80 37/41/81 36/40/82
f 13/17/83 15/21/84 38/42/85 37/41/86
f 15/21/87 17/23/88 39/43/89 38/42/90
f 17/23/91 19/14/92 40/44/93 39/43/94
f 19/14/95 1/13/96 21/25/97 40/44/98
s 5
f 44/45/99 41/46/100 42/47/101 43/48/102
f 43/49/102 42/47/101 46/50/103 50/51/104
f 49/52/105 47/53/106 45/54/107 48/55/108
f 50/51/104 46/50/103 47/53/106 49/52/105
s off
f 41/56/109 44/57/110 59/58/111 60/59/112
f 54/60/113 53/61/114 51/62/115 52/63/116
f 56/64/117 55/65/118 53/61/119 54/60/120
f 58/66/121 57/67/122 55/65/123 56/64/124
f 60/59/125 59/58/126 57/67/127 58/66/128
s 6
f 61/68/129 62/69/130 42/47/131 41/46/132
f 62/69/130 63/70/133 46/50/134 42/47/131
f 63/70/133 64/71/135 47/53/136 46/50/134
s 7
f 64/71/137 25/72/138 45/54/139 47/53/140
f 45/54/139 25/72/138 26/73/141 48/55/142
f 26/73/141 27/74/143 49/52/144 48/55/142
s 8
f 27/74/145 28/75/146 50/51/147 49/52/148
f 28/75/146 29/76/149 43/49/150 50/51/147
f 29/76/149 30/77/151 44/57/152 43/49/150
s off
f 30/77/153 31/78/154 59/58/155 44/57/156
f 31/78/157 32/79/158 57/67/159 59/58/160
f 32/79/161 33/80/162 55/65/163 57/67/164
f 33/80/165 34/81/166 53/61/167 55/65/168
f 34/81/169 35/82/170 51/62/171 53/61/172
f 35/82/173 36/83/174 52/63/175 51/62/176
f 36/83/177 65/84/178 54/60/179 52/63/180
f 65/84/181 66/85/182 56/64/183 54/60/184
f 66/85/185 67/86/186 58/66/187 56/64/188
f 67/86/189 68/87/190 60/59/191 58/66/192
f 68/87/193 61/88/194 41/56/195 60/59/196
