# This file uses centimeters as units for non-parametric coordinates.

mtllib wall_1.mtl
g default
v -0.500000 1.485643 0.245172
v 0.500000 1.485643 0.245172
v -0.500000 1.591411 0.245172
v 0.500000 1.591411 0.245172
v -0.500000 1.591411 -0.245172
v 0.500000 1.591411 -0.245172
v -0.500000 1.485643 -0.245172
v 0.500000 1.485643 -0.245172
v 0.250000 1.485643 0.245172
v 0.250000 1.485643 -0.245172
v -0.250000 1.485643 0.245172
v -0.250000 1.485643 -0.245172
v 0.263103 1.623044 0.232069
v 0.250000 1.636147 0.200435
v 0.236897 1.604514 0.200435
v 0.205263 1.591411 0.200435
v 0.218366 1.578307 0.232069
v 0.250000 1.546673 0.245172
v 0.294737 1.591411 0.245172
v 0.281634 1.559777 0.245172
v 0.250000 1.636147 -0.200435
v 0.263103 1.623044 -0.232069
v 0.294737 1.591411 -0.245172
v 0.250000 1.546673 -0.245172
v 0.218366 1.578307 -0.232069
v 0.205263 1.591411 -0.200435
v 0.236897 1.604514 -0.200435
v 0.281634 1.559777 -0.245172
v -0.250000 1.636147 0.200435
v -0.263103 1.623044 0.232069
v -0.294737 1.591411 0.245172
v -0.250000 1.546673 0.245172
v -0.218366 1.578307 0.232069
v -0.205263 1.591411 0.200435
v -0.236897 1.604514 0.200435
v -0.281634 1.559777 0.245172
v -0.263103 1.623044 -0.232069
v -0.250000 1.636147 -0.200435
v -0.236897 1.604514 -0.200435
v -0.205263 1.591411 -0.200435
v -0.218366 1.578307 -0.232069
v -0.250000 1.546673 -0.245172
v -0.294737 1.591411 -0.245172
v -0.281634 1.559777 -0.245172
v -0.263103 1.936240 0.200435
v -0.294737 1.949343 0.200435
v -0.294737 1.936240 0.232069
v -0.294737 1.904606 0.245172
v -0.263103 1.904606 0.232069
v -0.250000 1.904606 0.200435
v -0.500000 1.949343 0.200435
v -0.500000 1.904606 0.245172
v -0.500000 1.936240 0.232069
v -0.294737 1.936240 -0.232069
v -0.294737 1.949343 -0.200435
v -0.263103 1.936240 -0.200435
v -0.250000 1.904606 -0.200435
v -0.263103 1.904606 -0.232069
v -0.294737 1.904606 -0.245172
v -0.500000 1.949343 -0.200435
v -0.500000 1.936240 -0.232069
v -0.500000 1.904606 -0.245172
v 0.294737 1.936240 0.232069
v 0.294737 1.949343 0.200435
v 0.263103 1.936240 0.200435
v 0.250000 1.904606 0.200435
v 0.263103 1.904606 0.232069
v 0.294737 1.904606 0.245172
v 0.294737 1.936240 -0.232069
v 0.294737 1.904606 -0.245172
v 0.263103 1.904606 -0.232069
v 0.250000 1.904606 -0.200435
v 0.263103 1.936240 -0.200435
v 0.294737 1.949343 -0.200435
v 0.500000 1.949343 0.200435
v 0.500000 1.936240 0.232069
v 0.500000 1.904606 0.245172
v 0.500000 1.936240 -0.232069
v 0.500000 1.949343 -0.200435
v 0.500000 1.904606 -0.245172
v 0.250000 1.591411 0.232069
v 0.250000 1.591411 -0.232069
v -0.250000 1.591411 0.232069
v -0.250000 1.591411 -0.232069
v -0.268917 1.930426 0.226255
v -0.268917 1.930426 -0.226255
v 0.268917 1.930426 0.226255
v 0.268917 1.930426 -0.226255
v -0.500000 0.009067 -0.264084
v -0.250000 0.009067 -0.264084
v -0.250000 0.009067 0.264084
v -0.500000 0.009067 0.264084
v 0.250000 0.009067 -0.264084
v 0.250000 0.009067 0.264084
v 0.500000 0.009067 -0.264084
v 0.500000 0.009067 0.264084
v -0.500000 0.303773 -0.264084
v -0.500000 0.303773 0.264084
v -0.250000 0.303773 0.264084
v 0.250000 0.303773 0.264084
v 0.500000 0.303773 0.264084
v 0.500000 0.303773 -0.264084
v 0.250000 0.303773 -0.264084
v -0.250000 0.303773 -0.264084
v -0.500000 0.449424 -0.218242
v -0.500000 0.449424 0.218242
v -0.250000 0.449424 0.218242
v 0.250000 0.449424 0.218242
v 0.500000 0.449424 0.218242
v 0.500000 0.449424 -0.218242
v 0.250000 0.449424 -0.218242
v -0.250000 0.449424 -0.218242
v -0.500000 1.290676 -0.218242
v -0.500000 1.290676 0.218242
v -0.250000 1.290676 0.218242
v 0.250000 1.290676 0.218242
v 0.500000 1.290676 0.218242
v 0.500000 1.290676 -0.218242
v 0.250000 1.290676 -0.218242
v -0.250000 1.290676 -0.218242
v -0.500000 1.465004 -0.245172
v -0.500000 1.465004 0.245172
v -0.250000 1.465004 0.245172
v 0.250000 1.465004 0.245172
v 0.500000 1.465004 0.245172
v 0.500000 1.465004 -0.245172
v 0.250000 1.465004 -0.245172
v -0.250000 1.465004 -0.245172
vt 0.625000 0.000000
vt 0.375000 1.000000
vt 0.625000 1.000000
vt 0.875000 0.000000
vt 0.875000 0.250000
vt 0.125000 0.000000
vt 0.125000 0.250000
vt 0.562500 1.000000
vt 0.437500 1.000000
vt 0.562500 0.000000
vt 0.625000 0.250000
vt 0.562500 0.750000
vt 0.625000 0.750000
vt 0.375000 0.000000
vt 0.375000 0.750000
vt 0.562500 0.242969
vt 0.573684 0.250000
vt 0.551316 0.272809
vt 0.562500 0.507031
vt 0.551316 0.477191
vt 0.562500 0.477191
vt 0.437500 0.272809
vt 0.448684 0.477191
vt 0.426316 0.500000
vt 0.437500 0.272809
vt 0.437500 0.477191
vt 0.375000 0.250000
vt 0.426316 0.272809
vt 0.375000 0.272809
vt 0.375000 0.477191
vt 0.426316 0.500000
vt 0.375000 0.500000
vt 0.625000 0.272809
vt 0.573684 0.250000
vt 0.625000 0.250000
vt 0.562500 0.477191
vt 0.573684 0.272809
vt 0.625000 0.500000
vt 0.573684 0.477191
vt 0.625000 0.477191
vt 0.426316 0.477191
vt 0.437500 0.000000
vt 0.437500 0.750000
vt 0.426316 0.250000
vt 0.426316 0.250000
vt 0.375000 0.500000
vt 0.625000 0.500000
vt 0.573684 0.500000
vt 0.573684 0.500000
vt 0.562500 0.272809
vt 0.437500 0.477191
vt 0.375000 0.250000
vt 0.437500 0.242969
vt 0.437500 0.507031
vt 0.562500 0.272809
vt 0.570408 0.245029
vt 0.570408 0.504971
vt 0.429592 0.245029
vt 0.448684 0.272809
vt 0.429591 0.504971
vt 0.567059 0.255094
vt 0.557840 0.272671
vt 0.554614 0.252198
vt 0.567067 0.494879
vt 0.554612 0.497974
vt 0.557840 0.477329
vt 0.432933 0.255121
vt 0.445388 0.252026
vt 0.442160 0.272671
vt 0.432941 0.494906
vt 0.442160 0.477329
vt 0.445386 0.497802
vt 0.432867 0.272681
vt 0.427326 0.255040
vt 0.433118 0.254499
vt 0.375000 0.250000
vt 0.427326 0.494960
vt 0.432867 0.477319
vt 0.433110 0.495474
vt 0.375000 0.500000
vt 0.572674 0.255040
vt 0.567133 0.272681
vt 0.566890 0.254526
vt 0.572674 0.494960
vt 0.566882 0.495501
vt 0.567133 0.477319
vt 0.625000 0.250000
vt 0.625000 0.500000
vt 0.562500 0.250000
vt 0.562500 0.500000
vt 0.437500 0.250000
vt 0.437500 0.500000
vt 0.437500 0.250000
vt 0.437500 0.500000
vt 0.562500 0.250000
vt 0.562500 0.500000
vt 0.375000 0.750000
vt 0.437500 0.750000
vt 0.437500 1.000000
vt 0.375000 1.000000
vt 0.562500 0.750000
vt 0.625000 0.750000
vt 0.625000 1.000000
vt 0.562500 1.000000
vt 0.375000 0.750000
vt 0.375000 1.000000
vt 0.437500 1.000000
vt 0.562500 1.000000
vt 0.625000 1.000000
vt 0.625000 0.750000
vt 0.562500 0.750000
vt 0.437500 0.750000
vt 0.375000 0.750000
vt 0.375000 1.000000
vt 0.437500 1.000000
vt 0.562500 1.000000
vt 0.625000 1.000000
vt 0.625000 0.750000
vt 0.562500 0.750000
vt 0.437500 0.750000
vt 0.375000 0.750000
vt 0.375000 1.000000
vt 0.437500 1.000000
vt 0.562500 1.000000
vt 0.625000 1.000000
vt 0.625000 0.750000
vt 0.562500 0.750000
vt 0.437500 0.750000
vt 0.375000 0.750000
vt 0.375000 1.000000
vt 0.437500 1.000000
vt 0.562500 1.000000
vt 0.625000 1.000000
vt 0.625000 0.750000
vt 0.562500 0.750000
vt 0.437500 0.750000
vn 0.000000 0.000000 1.000000
vn 0.000000 0.000000 1.000000
vn 0.003606 0.057067 0.998364
vn 0.011574 0.009505 0.999888
vn 0.000000 0.000000 1.000000
vn 0.000000 0.000000 -1.000000
vn 0.041543 0.002207 -0.999134
vn 0.011574 0.009505 -0.999888
vn 0.000000 -1.000000 0.000000
vn 0.000000 -1.000000 0.000000
vn 0.000000 -1.000000 0.000000
vn 0.000000 -1.000000 0.000000
vn 1.000000 0.000000 0.000000
vn 1.000000 0.000000 0.000000
vn 1.000000 0.000000 0.000000
vn 1.000000 0.000000 0.000000
vn -1.000000 0.000000 0.000000
vn -1.000000 0.000000 0.000000
vn -1.000000 0.000000 0.000000
vn -1.000000 0.000000 0.000000
vn 0.000000 0.000000 -1.000000
vn -0.003606 0.057067 -0.998364
vn -0.011574 0.009505 -0.999888
vn 0.000000 0.000000 -1.000000
vn 0.000000 0.000000 -1.000000
vn 0.000000 -1.000000 0.000000
vn 0.000000 -1.000000 0.000000
vn 0.000000 -1.000000 0.000000
vn 0.000000 -1.000000 0.000000
vn -0.041543 0.002207 0.999134
vn -0.011574 0.009505 0.999888
vn 0.000000 0.000000 1.000000
vn -0.032764 0.918509 0.394040
vn -0.029077 0.998962 0.035048
vn 0.029077 0.998962 0.035048
vn 0.032764 0.918509 0.394040
vn -0.003606 0.057067 0.998364
vn -0.004334 0.378979 0.925395
vn 0.004334 0.378979 0.925395
vn -0.998476 0.043307 0.034205
vn -0.916784 0.042053 0.397163
vn -0.924615 0.019952 0.380380
vn -0.998647 0.042568 0.029876
vn -0.372462 0.011916 0.927971
vn -0.050597 0.035673 0.998082
vn -0.379224 0.029489 0.924835
vn -0.382321 0.923016 0.043265
vn -0.382321 0.923016 -0.043265
vn -0.029077 0.998962 -0.035048
vn -0.923160 0.382387 0.039436
vn -0.998476 0.043307 -0.034205
vn -0.923160 0.382388 -0.039436
vn -0.004334 0.378979 -0.925395
vn 0.003606 0.057067 -0.998364
vn 0.004334 0.378979 -0.925395
vn -0.032764 0.918509 -0.394040
vn 0.032764 0.918509 -0.394040
vn 0.029077 0.998962 -0.035048
vn -0.041543 0.002207 -0.999134
vn -0.372462 0.011916 -0.927971
vn -0.382649 0.013385 -0.923797
vn -0.049537 0.034613 -0.998172
vn -0.916784 0.042053 -0.397163
vn -0.998715 0.041703 -0.028813
vn -0.923843 0.008927 -0.382669
vn 0.041543 0.002207 0.999134
vn 0.372462 0.011916 0.927971
vn 0.382649 0.013385 0.923797
vn 0.049537 0.034613 0.998172
vn 0.916784 0.042053 0.397163
vn 0.998476 0.043307 0.034205
vn 0.998715 0.041703 0.028813
vn 0.923843 0.008927 0.382669
vn 0.923160 0.382388 0.039436
vn 0.923160 0.382387 -0.039436
vn 0.998476 0.043307 -0.034205
vn 0.382321 0.923016 0.043265
vn 0.382321 0.923016 -0.043265
vn 0.916784 0.042053 -0.397163
vn 0.923843 0.008927 -0.382669
vn 0.998715 0.041703 -0.028813
vn 0.372462 0.011916 -0.927971
vn 0.049537 0.034613 -0.998172
vn 0.382649 0.013385 -0.923797
vn 0.052989 0.998210 0.027718
vn 0.382665 0.923847 0.008675
vn 0.382665 0.923847 -0.008675
vn 0.052989 0.998210 -0.027718
vn 0.923840 0.382667 0.009194
vn 0.923840 0.382667 -0.009194
vn 0.020077 0.382605 0.923694
vn 0.000000 0.382682 0.923880
vn 0.000000 0.037972 0.999279
vn 0.013115 0.923803 0.382644
vn 0.000000 0.999541 0.030282
vn 0.000000 0.923882 0.382677
vn 0.013115 0.923803 -0.382644
vn 0.000000 0.923882 -0.382677
vn 0.000000 0.999541 -0.030282
vn 0.020077 0.382605 -0.923694
vn 0.000000 0.037972 -0.999279
vn 0.000000 0.382682 -0.923880
vn -0.054130 0.998109 0.029113
vn -0.028918 0.924827 0.379288
vn 0.000000 0.923882 0.382677
vn 0.000000 0.999541 0.030282
vn -0.043302 0.377487 0.925002
vn 0.000000 0.037972 0.999279
vn 0.000000 0.382682 0.923880
vn -0.924631 0.380311 0.020531
vn -0.923840 0.382667 -0.009194
vn -0.380441 0.924602 0.019404
vn -0.052989 0.998210 -0.027718
vn -0.382665 0.923847 -0.008675
vn -0.020077 0.382605 -0.923694
vn 0.000000 0.382682 -0.923880
vn 0.000000 0.037972 -0.999279
vn -0.013115 0.923803 -0.382644
vn 0.000000 0.999541 -0.030282
vn 0.000000 0.923882 -0.382677
vn 0.000000 0.000000 1.000000
vn 0.000000 0.000000 -1.000000
vn -1.000000 0.000000 0.000000
vn -1.000000 0.000000 0.000000
vn 1.000000 -0.000000 0.000000
vn 1.000000 -0.000000 0.000000
vn -0.185238 0.212203 0.959509
vn -0.812520 0.336559 0.475962
vn -0.336558 0.812519 0.475964
vn -0.812520 0.336559 -0.475962
vn -0.185238 0.212203 -0.959508
vn -0.336558 0.812519 -0.475963
vn 0.812520 0.336559 0.475962
vn 0.185238 0.212203 0.959508
vn 0.336558 0.812519 0.475963
vn 0.185238 0.212203 -0.959509
vn 0.812520 0.336559 -0.475962
vn 0.336558 0.812519 -0.475964
vn 0.887309 0.298825 0.351264
vn 0.305976 0.887595 0.344316
vn 0.331994 0.318515 0.887879
vn 0.331994 0.318515 -0.887879
vn 0.305976 0.887595 -0.344316
vn 0.887309 0.298825 -0.351264
vn -0.325269 0.325269 0.887919
vn -0.325265 0.887922 0.325264
vn -0.887920 0.325267 0.325269
vn -0.305976 0.887595 -0.344316
vn -0.331994 0.318515 -0.887879
vn -0.887309 0.298825 -0.351264
vn 1.000000 -0.000000 0.000000
vn 1.000000 0.000003 0.000000
vn 1.000000 0.000003 0.000000
vn 1.000000 -0.000000 0.000000
vn 0.000000 0.000000 1.000000
vn 0.000000 0.000000 -1.000000
vn -1.000000 0.000000 0.000000
vn -1.000000 0.000000 0.000000
vn -1.000000 -0.000001 0.000000
vn -1.000000 -0.000001 0.000000
vn 0.000000 0.000000 -1.000000
vn 0.000000 0.000000 -1.000000
vn 0.000000 0.000000 -1.000000
vn 0.000000 0.000000 -1.000000
vn 0.000000 0.000000 1.000000
vn 0.000000 0.000000 1.000000
vn 0.000000 0.000000 1.000000
vn 0.000000 0.000000 1.000000
vn -1.000000 0.000000 0.000000
vn -1.000000 0.000000 0.000000
vn -1.000000 0.000000 0.000000
vn -1.000000 0.000000 0.000000
vn 0.000000 0.000000 -1.000000
vn 0.000000 0.000000 -1.000000
vn 0.000000 0.000000 -1.000000
vn 0.000000 0.000000 -1.000000
vn 1.000000 0.000000 0.000000
vn 1.000000 0.000000 0.000000
vn 1.000000 0.000000 0.000000
vn 1.000000 0.000000 0.000000
vn 0.000000 0.000000 1.000000
vn 0.000000 0.000000 1.000000
vn 0.000000 0.000000 1.000000
vn 0.000000 0.000000 1.000000
vn 0.000000 0.000000 -1.000000
vn 0.000000 0.000000 -1.000000
vn 0.000000 0.000000 -1.000000
vn 0.000000 0.000000 -1.000000
vn 0.000000 0.000000 1.000000
vn 0.000000 0.000000 1.000000
vn 0.000000 0.000000 1.000000
vn 0.000000 0.000000 1.000000
vn -1.000000 0.000000 0.000000
vn -1.000000 0.000000 0.000000
vn -1.000000 0.000000 0.000000
vn -1.000000 0.000000 0.000000
vn 0.000000 0.000000 1.000000
vn 0.000000 0.000000 1.000000
vn 0.000000 0.000000 1.000000
vn 0.000000 0.000000 1.000000
vn 0.000000 0.000000 1.000000
vn 0.000000 0.000000 1.000000
vn 0.000000 0.000000 1.000000
vn 0.000000 0.000000 1.000000
vn 0.000000 0.000000 1.000000
vn 0.000000 0.000000 1.000000
vn 0.000000 0.000000 1.000000
vn 0.000000 0.000000 1.000000
vn 1.000000 0.000000 0.000000
vn 1.000000 0.000000 0.000000
vn 1.000000 0.000000 0.000000
vn 1.000000 0.000000 0.000000
vn 0.000000 0.000000 -1.000000
vn 0.000000 0.000000 -1.000000
vn 0.000000 0.000000 -1.000000
vn 0.000000 0.000000 -1.000000
vn 0.000000 0.000000 -1.000000
vn 0.000000 0.000000 -1.000000
vn 0.000000 0.000000 -1.000000
vn 0.000000 0.000000 -1.000000
vn 0.000000 0.000000 -1.000000
vn 0.000000 0.000000 -1.000000
vn 0.000000 0.000000 -1.000000
vn 0.000000 0.000000 -1.000000
vn -1.000000 0.000000 0.000000
vn -1.000000 0.000000 0.000000
vn -1.000000 0.000000 0.000000
vn -1.000000 0.000000 0.000000
vn 0.000000 0.300221 0.953870
vn 0.000000 0.300221 0.953870
vn 0.000000 0.300221 0.953870
vn 0.000000 0.300221 0.953870
vn 0.000000 0.300221 0.953870
vn 0.000000 0.300221 0.953870
vn 0.000000 0.300221 0.953870
vn 0.000000 0.300221 0.953870
vn 0.000000 0.300221 0.953870
vn 0.000000 0.300221 0.953870
vn 0.000000 0.300221 0.953870
vn 0.000000 0.300221 0.953870
vn 1.000000 0.000000 0.000000
vn 1.000000 0.000000 0.000000
vn 1.000000 0.000000 0.000000
vn 1.000000 0.000000 0.000000
vn 0.000000 0.300221 -0.953870
vn 0.000000 0.300221 -0.953870
vn 0.000000 0.300221 -0.953870
vn 0.000000 0.300221 -0.953870
vn 0.000000 0.300221 -0.953870
vn 0.000000 0.300221 -0.953870
vn 0.000000 0.300221 -0.953870
vn 0.000000 0.300221 -0.953870
vn 0.000000 0.300221 -0.953870
vn 0.000000 0.300221 -0.953870
vn 0.000000 0.300221 -0.953870
vn 0.000000 0.300221 -0.953870
vn -1.000000 0.000000 0.000000
vn -1.000000 0.000000 0.000000
vn -1.000000 0.000000 0.000000
vn -1.000000 0.000000 0.000000
vn 0.000000 0.000000 1.000000
vn 0.000000 0.000000 1.000000
vn 0.000000 0.000000 1.000000
vn 0.000000 0.000000 1.000000
vn 0.000000 0.000000 1.000000
vn 0.000000 0.000000 1.000000
vn 0.000000 0.000000 1.000000
vn 0.000000 0.000000 1.000000
vn 0.000000 0.000000 1.000000
vn 0.000000 0.000000 1.000000
vn 0.000000 0.000000 1.000000
vn 0.000000 0.000000 1.000000
vn 1.000000 0.000000 0.000000
vn 1.000000 0.000000 0.000000
vn 1.000000 0.000000 0.000000
vn 1.000000 0.000000 0.000000
vn 0.000000 0.000000 -1.000000
vn 0.000000 0.000000 -1.000000
vn 0.000000 0.000000 -1.000000
vn 0.000000 0.000000 -1.000000
vn 0.000000 0.000000 -1.000000
vn 0.000000 0.000000 -1.000000
vn 0.000000 0.000000 -1.000000
vn 0.000000 0.000000 -1.000000
vn 0.000000 0.000000 -1.000000
vn 0.000000 0.000000 -1.000000
vn 0.000000 0.000000 -1.000000
vn 0.000000 0.000000 -1.000000
vn -1.000000 0.000000 0.000000
vn -1.000000 0.000000 0.000000
vn -1.000000 0.000000 0.000000
vn -1.000000 0.000000 0.000000
vn 0.000000 -0.152668 0.988277
vn 0.000000 -0.152668 0.988277
vn 0.000000 -0.152668 0.988277
vn 0.000000 -0.152668 0.988277
vn 0.000000 -0.152668 0.988277
vn 0.000000 -0.152668 0.988277
vn 0.000000 -0.152668 0.988277
vn 0.000000 -0.152668 0.988277
vn 0.000000 -0.152668 0.988277
vn 0.000000 -0.152668 0.988277
vn 0.000000 -0.152668 0.988277
vn 0.000000 -0.152668 0.988277
vn 1.000000 0.000000 0.000000
vn 1.000000 0.000000 0.000000
vn 1.000000 0.000000 0.000000
vn 1.000000 0.000000 0.000000
vn 0.000000 -0.152668 -0.988277
vn 0.000000 -0.152668 -0.988277
vn 0.000000 -0.152668 -0.988277
vn 0.000000 -0.152668 -0.988277
vn 0.000000 -0.152668 -0.988277
vn 0.000000 -0.152668 -0.988277
vn 0.000000 -0.152668 -0.988277
vn 0.000000 -0.152668 -0.988277
vn 0.000000 -0.152668 -0.988277
vn 0.000000 -0.152668 -0.988277
vn 0.000000 -0.152668 -0.988277
vn 0.000000 -0.152668 -0.988277
s 1
g wall_1
usemtl initialShadingGroup
f 1/14/1 11/42/2 32/53/3 36/58/4 3/52/5
s 2
f 5/46/6 43/24/7 44/60/8
s 3
f 89/97/9 90/98/10 91/99/11 92/100/12
s 4
f 2/1/13 8/4/14 6/5/15 4/11/16
s 5
f 7/6/17 1/14/18 3/52/19 5/7/20
s 2
f 10/12/21 24/19/22 28/57/23 6/47/24 8/13/25
s 3
f 94/104/26 93/101/27 95/102/28 96/103/29
f 91/99/11 90/98/10 93/101/27 94/104/26
s 1
f 19/17/30 20/56/31 4/11/32
s 8
f 17/63/33 16/18/34 34/59/35 33/68/36
s 1
f 18/16/37 17/63/38 33/68/39 32/53/3
s 10
f 14/55/40 13/61/41 67/83/42 66/50/43
s 1
f 13/61/44 19/17/30 68/34/45 67/83/46
s 8
f 16/18/34 15/62/47 27/66/48 26/20/49
s 10
f 15/62/50 14/55/40 21/21/51 27/66/52
s 2
f 25/65/53 24/19/22 42/54/54 41/72/55
s 8
f 26/20/49 25/65/56 41/72/57 40/23/58
s 2
f 23/48/59 22/64/60 71/85/61 70/49/62
s 10
f 22/64/63 21/21/51 72/36/64 71/85/65
s 1
f 31/44/66 30/67/67 49/75/68 48/45/69
s 13
f 30/67/70 29/22/71 50/25/72 49/75/73
f 29/22/71 35/69/74 39/71/75 38/51/76
s 8
f 35/69/77 34/59/35 40/23/58 39/71/78
s 13
f 38/51/76 37/70/79 58/79/80 57/26/81
s 2
f 37/70/82 43/24/7 59/31/83 58/79/84
s 14
f 46/28/85 45/73/86 56/78/87 55/41/88
s 13
f 45/73/89 50/25/72 57/26/81 56/78/90
s 1
f 48/45/69 47/74/91 53/76/92 52/27/93
s 14
f 47/74/94 46/28/85 51/29/95 53/76/96
f 55/41/88 54/77/97 61/80/98 60/30/99
s 2
f 54/77/100 59/31/83 62/32/101 61/80/102
s 20
f 64/37/103 63/81/104 76/87/105 75/33/106
s 1
f 63/81/107 68/34/45 77/35/108 76/87/109
s 10
f 66/50/43 65/82/110 73/86/111 72/36/64
s 20
f 65/82/112 64/37/103 74/39/113 73/86/114
s 2
f 70/49/62 69/84/115 78/88/116 80/38/117
s 20
f 69/84/118 74/39/113 79/40/119 78/88/120
s 14
f 51/29/95 46/28/85 55/41/88 60/30/99
s 1
f 11/42/2 9/10/121 18/16/37 32/53/3
s 2
f 42/54/54 24/19/22 10/12/21 12/43/122
s 20
f 74/39/113 64/37/103 75/33/106 79/40/119
s 1
f 3/52/5 31/44/66 48/45/69 52/27/93
s 2
f 59/31/83 43/24/7 5/46/6 62/32/101
s 1
f 68/34/45 19/17/30 4/11/32 77/35/108
s 2
f 6/47/24 23/48/59 70/49/62 80/38/117
s 8
f 34/59/35 16/18/34 26/20/49 40/23/58
s 10
f 72/36/64 21/21/51 14/55/40 66/50/43
s 13
f 50/25/72 29/22/71 38/51/76 57/26/81
s 5
f 5/46/20 3/52/19 52/27/123 62/32/124
s 4
f 80/38/125 77/35/126 4/11/16 6/47/15
s 1
f 20/56/31 19/17/30 13/61/44 81/89/127
s 10
f 13/61/41 14/55/40 15/62/50 81/89/128
s 8
f 15/62/47 16/18/34 17/63/33 81/89/129
s 1
f 17/63/38 18/16/37 20/56/31 81/89/127
s 10
f 27/66/52 21/21/51 22/64/63 82/90/130
s 2
f 22/64/60 23/48/59 28/57/23 82/90/131
f 28/57/23 24/19/22 25/65/53 82/90/131
s 8
f 25/65/56 26/20/49 27/66/48 82/90/132
s 13
f 35/69/74 29/22/71 30/67/70 83/91/133
s 1
f 30/67/67 31/44/66 36/58/4 83/91/134
f 36/58/4 32/53/3 33/68/39 83/91/134
s 8
f 33/68/36 34/59/35 35/69/77 83/91/135
s 2
f 44/60/8 43/24/7 37/70/82 84/92/136
s 13
f 37/70/79 38/51/76 39/71/75 84/92/137
s 8
f 39/71/78 40/23/58 41/72/57 84/92/138
s 2
f 41/72/55 42/54/54 44/60/8 84/92/136
s 13
f 85/93/139 50/25/72 45/73/89
s 14
f 45/73/86 46/28/85 85/93/140
s 1
f 85/93/141 48/45/69 49/75/68
s 2
f 86/94/142 59/31/83 54/77/100
s 14
f 54/77/97 55/41/88 86/94/143
s 13
f 86/94/144 57/26/81 58/79/80
s 1
f 67/83/46 68/34/45 63/81/107 87/95/145
s 20
f 63/81/104 64/37/103 65/82/112 87/95/146
s 10
f 65/82/110 66/50/43 67/83/42 87/95/147
s 20
f 73/86/114 74/39/113 88/96/148
s 2
f 88/96/149 70/49/62 71/85/61
s 10
f 71/85/65 72/36/64 88/96/150
s 4
f 78/88/151 79/40/152 75/33/153 76/87/154
f 78/88/151 76/87/154 77/35/126 80/38/125
s 1
f 4/11/32 20/56/31 18/16/37 9/10/121 2/1/155
s 2
f 6/47/24 28/57/23 23/48/59
f 5/46/6 44/60/8 42/54/54 12/43/122 7/15/156
s 1
f 3/52/5 36/58/4 31/44/66
s 5
f 61/80/157 53/76/158 51/29/159 60/30/160
f 62/32/124 52/27/123 53/76/158 61/80/157
s 14
f 85/93/140 46/28/85 47/74/94
s 13
f 49/75/73 50/25/72 85/93/139
s 1
f 47/74/91 48/45/69 85/93/141
s 14
f 86/94/143 55/41/88 56/78/87
s 2
f 58/79/84 59/31/83 86/94/142
s 13
f 56/78/90 57/26/81 86/94/144
s 20
f 88/96/148 74/39/113 69/84/118
s 10
f 88/96/150 72/36/64 73/86/111
s 2
f 69/84/115 70/49/62 88/96/149
s off
f 7/15/161 12/43/162 128/136/163 121/129/164
f 11/9/165 1/2/166 122/130/167 123/131/168
f 1/2/169 7/15/170 121/129/171 122/130/172
f 10/12/173 8/13/174 126/134/175 127/135/176
f 8/13/177 2/3/178 125/133/179 126/134/180
f 2/3/181 9/8/182 124/132/183 125/133/184
f 12/43/185 10/12/186 127/135/187 128/136/188
f 9/8/189 11/9/190 123/131/191 124/132/192
f 98/106/193 97/105/194 89/97/195 92/100/196
f 99/107/197 98/106/198 92/100/199 91/99/200
f 100/108/201 99/107/202 91/99/203 94/104/204
f 101/109/205 100/108/206 94/104/207 96/103/208
f 102/110/209 101/109/210 96/103/211 95/102/212
f 103/111/213 102/110/214 95/102/215 93/101/216
f 104/112/217 103/111/218 93/101/219 90/98/220
f 97/105/221 104/112/222 90/98/223 89/97/224
f 106/114/225 105/113/226 97/105/227 98/106/228
f 107/115/229 106/114/230 98/106/231 99/107/232
f 108/116/233 107/115/234 99/107/235 100/108/236
f 109/117/237 108/116/238 100/108/239 101/109/240
f 110/118/241 109/117/242 101/109/243 102/110/244
f 111/119/245 110/118/246 102/110/247 103/111/248
f 112/120/249 111/119/250 103/111/251 104/112/252
f 105/113/253 112/120/254 104/112/255 97/105/256
f 114/122/257 113/121/258 105/113/259 106/114/260
f 115/123/261 114/122/262 106/114/263 107/115/264
f 116/124/265 115/123/266 107/115/267 108/116/268
f 117/125/269 116/124/270 108/116/271 109/117/272
f 118/126/273 117/125/274 109/117/275 110/118/276
f 119/127/277 118/126/278 110/118/279 111/119/280
f 120/128/281 119/127/282 111/119/283 112/120/284
f 113/121/285 120/128/286 112/120/287 105/113/288
f 122/130/289 121/129/290 113/121/291 114/122/292
f 123/131/293 122/130/294 114/122/295 115/123/296
f 124/132/297 123/131/298 115/123/299 116/124/300
f 125/133/301 124/132/302 116/124/303 117/125/304
f 126/134/305 125/133/306 117/125/307 118/126/308
f 127/135/309 126/134/310 118/126/311 119/127/312
f 128/136/313 127/135/314 119/127/315 120/128/316
f 121/129/317 128/136/318 120/128/319 113/121/320
