# This file uses centimeters as units for non-parametric coordinates.

mtllib Cloud_Icon.mtl
g default
v 4.331127 4.482141 -8.529637
v 4.369794 4.471816 -8.529637
v 4.340331 4.516615 -8.503163
v 4.378999 4.506291 -8.503163
v 4.349536 4.551090 -8.510503
v 4.388204 4.540766 -8.510503
v 4.358741 4.585565 -8.544261
v 4.397409 4.575240 -8.544261
v 4.367946 4.620039 -8.567877
v 4.406613 4.609715 -8.567877
v 4.377151 4.654514 -8.628893
v 4.415818 4.644189 -8.628893
v 4.388482 4.696951 -8.677071
v 4.427149 4.686627 -8.677071
v 4.388482 4.696951 -8.743844
v 4.427149 4.686627 -8.743844
v 4.377151 4.654514 -8.791266
v 4.415818 4.644189 -8.791266
v 4.367946 4.620039 -8.804797
v 4.406613 4.609715 -8.804797
v 4.358741 4.585565 -8.843625
v 4.397409 4.575240 -8.843625
v 4.349536 4.551090 -8.860098
v 4.388204 4.540766 -8.860098
v 4.340331 4.516615 -8.857156
v 4.378999 4.506291 -8.857156
v 4.331127 4.482141 -8.821269
v 4.369794 4.471816 -8.821269
v 4.335729 4.499378 -8.509480
v 4.335729 4.499378 -8.839212
v 4.374396 4.489054 -8.839212
v 4.374396 4.489054 -8.509480
v 4.354139 4.568327 -8.540313
v 4.354139 4.568327 -8.851861
v 4.392806 4.558003 -8.851861
v 4.392806 4.558003 -8.540313
v 4.352119 4.560764 -8.521037
v 4.351838 4.559709 -8.855980
v 4.390505 4.549384 -8.855980
v 4.390787 4.550440 -8.521037
v 4.344934 4.533853 -8.503555
v 4.344934 4.533853 -8.858627
v 4.383601 4.523528 -8.858627
v 4.383601 4.523528 -8.503555
v 4.371139 4.631998 -8.618054
v 4.372549 4.637276 -8.798032
v 4.411216 4.626952 -8.798032
v 4.409806 4.621673 -8.618054
v 4.370905 4.631121 -8.592966
v 4.370247 4.628658 -8.801415
v 4.408915 4.618333 -8.801415
v 4.409572 4.620797 -8.592966
v 4.363344 4.602802 -8.556068
v 4.362686 4.600338 -8.808185
v 4.401353 4.590014 -8.808185
v 4.402011 4.592477 -8.556068
v 4.381753 4.671751 -8.641539
v 4.381753 4.671751 -8.778998
v 4.420421 4.661426 -8.778998
v 4.420421 4.661426 -8.641539
v 4.384055 4.680369 -8.769248
v 4.384055 4.680369 -8.651478
v 4.422722 4.670045 -8.651478
v 4.422722 4.670045 -8.769248
v 4.389829 4.701995 -8.710458
v 4.384055 4.680369 -8.710363
v 4.381753 4.671751 -8.710269
v 4.377151 4.654514 -8.710079
v 4.371844 4.634637 -8.708043
v 4.370576 4.629889 -8.697190
v 4.367946 4.620039 -8.686337
v 4.363015 4.601570 -8.682127
v 4.358741 4.585565 -8.693943
v 4.354139 4.568327 -8.696087
v 4.351979 4.560236 -8.688508
v 4.349536 4.551090 -8.685301
v 4.344934 4.533853 -8.681091
v 4.340331 4.516615 -8.680160
v 4.335729 4.499378 -8.674346
v 4.331127 4.482141 -8.675453
v 4.369794 4.471816 -8.675453
v 4.374396 4.489054 -8.674346
v 4.378999 4.506291 -8.680160
v 4.383601 4.523528 -8.681091
v 4.388204 4.540766 -8.685301
v 4.390646 4.549912 -8.688508
v 4.392806 4.558003 -8.696087
v 4.397409 4.575240 -8.693943
v 4.401682 4.591246 -8.682127
v 4.406613 4.609715 -8.686337
v 4.409243 4.619565 -8.697190
v 4.410511 4.624313 -8.708043
v 4.415818 4.644189 -8.710079
v 4.420421 4.661426 -8.710269
v 4.422722 4.670045 -8.710363
v 4.428496 4.691671 -8.710458
v 4.319729 4.385517 -8.679639
v 4.330752 4.382574 -8.679639
v 4.336978 4.450117 -8.659226
v 4.348000 4.447174 -8.659226
v 4.338042 4.454103 -8.672153
v 4.349064 4.451160 -8.672153
v 4.320837 4.389665 -8.693091
v 4.331859 4.386722 -8.693091
v 4.338566 4.456065 -8.664302
v 4.319216 4.383595 -8.688242
v 4.330239 4.380652 -8.688242
v 4.349589 4.453122 -8.664302
v 4.334413 4.440513 -8.661285
v 4.336886 4.449774 -8.666312
v 4.335616 4.445019 -8.675901
v 4.346639 4.442076 -8.675901
v 4.347909 4.446831 -8.666312
v 4.345436 4.437570 -8.661285
v 4.322390 4.395482 -8.675542
v 4.322249 4.394956 -8.684688
v 4.323645 4.400183 -8.690789
v 4.334668 4.397240 -8.690789
v 4.333272 4.392013 -8.684688
v 4.333412 4.392539 -8.675542
v 4.319729 4.385517 -8.789949
v 4.330752 4.382574 -8.789949
v 4.336978 4.450117 -8.769536
v 4.348000 4.447174 -8.769536
v 4.338042 4.454103 -8.782463
v 4.349064 4.451160 -8.782463
v 4.320837 4.389665 -8.803402
v 4.331859 4.386722 -8.803402
v 4.338566 4.456065 -8.774613
v 4.319216 4.383595 -8.798553
v 4.330239 4.380652 -8.798553
v 4.349589 4.453122 -8.774613
v 4.334413 4.440513 -8.771595
v 4.336886 4.449774 -8.776623
v 4.335616 4.445019 -8.786211
v 4.346639 4.442076 -8.786211
v 4.347909 4.446831 -8.776623
v 4.345436 4.437570 -8.771595
v 4.322390 4.395482 -8.785853
v 4.322249 4.394956 -8.794998
v 4.323645 4.400183 -8.801100
v 4.334668 4.397240 -8.801100
v 4.333272 4.392013 -8.794998
v 4.333412 4.392539 -8.785853
v 4.319729 4.385517 -8.580546
v 4.330752 4.382574 -8.580546
v 4.336978 4.450117 -8.560132
v 4.348000 4.447174 -8.560132
v 4.338042 4.454103 -8.573059
v 4.349064 4.451160 -8.573059
v 4.320837 4.389665 -8.593998
v 4.331859 4.386722 -8.593998
v 4.338566 4.456065 -8.565209
v 4.319216 4.383595 -8.589149
v 4.330239 4.380652 -8.589149
v 4.349589 4.453122 -8.565209
v 4.334413 4.440513 -8.562191
v 4.336886 4.449774 -8.567219
v 4.335616 4.445019 -8.576807
v 4.346639 4.442076 -8.576807
v 4.347909 4.446831 -8.567219
v 4.345436 4.437570 -8.562191
v 4.322390 4.395482 -8.576449
v 4.322249 4.394956 -8.585594
v 4.323645 4.400183 -8.591696
v 4.334668 4.397240 -8.591696
v 4.333272 4.392013 -8.585594
v 4.333412 4.392539 -8.576449
v 4.326183 4.409688 -8.620363
v 4.337205 4.406745 -8.620363
v 4.337208 4.450979 -8.607649
v 4.348230 4.448036 -8.607649
v 4.338272 4.454965 -8.620575
v 4.349295 4.452022 -8.620575
v 4.327290 4.413836 -8.633816
v 4.338313 4.410892 -8.633816
v 4.338411 4.455487 -8.613201
v 4.326071 4.409270 -8.628470
v 4.337094 4.406327 -8.628470
v 4.349434 4.452544 -8.613201
v 4.335542 4.444741 -8.608596
v 4.337338 4.451467 -8.614460
v 4.336746 4.449248 -8.623211
v 4.347768 4.446305 -8.623211
v 4.348361 4.448524 -8.614460
v 4.346565 4.441798 -8.608596
v 4.327858 4.415961 -8.617485
v 4.328011 4.416535 -8.626268
v 4.329113 4.420662 -8.632732
v 4.340136 4.417719 -8.632732
v 4.339034 4.413592 -8.626268
v 4.338880 4.413018 -8.617485
v 4.326183 4.409688 -8.727209
v 4.337205 4.406745 -8.727209
v 4.337208 4.450979 -8.714495
v 4.348230 4.448036 -8.714495
v 4.338272 4.454965 -8.727421
v 4.349295 4.452022 -8.727421
v 4.327290 4.413836 -8.740662
v 4.338313 4.410892 -8.740662
v 4.338411 4.455487 -8.720047
v 4.326071 4.409270 -8.735315
v 4.337094 4.406327 -8.735315
v 4.349434 4.452544 -8.720047
v 4.335542 4.444741 -8.715442
v 4.337338 4.451467 -8.721306
v 4.336746 4.449248 -8.730057
v 4.347768 4.446305 -8.730057
v 4.348361 4.448524 -8.721306
v 4.346565 4.441798 -8.715442
v 4.327858 4.415961 -8.724331
v 4.328011 4.416535 -8.733113
v 4.329113 4.420662 -8.739578
v 4.340136 4.417719 -8.739578
v 4.339034 4.413592 -8.733113
v 4.338880 4.413018 -8.724331
vt 0.871649 0.049316
vt 0.989549 0.173321
vt 0.939726 0.141071
vt 0.945542 0.141428
vt 0.920853 0.232827
vt 0.925594 0.235089
vt 0.834045 0.324582
vt 0.836202 0.328264
vt 0.773318 0.416337
vt 0.773470 0.421626
vt 0.616417 0.508093
vt 0.612427 0.514302
vt 0.492531 0.621042
vt 0.990021 0.464855
vt 0.954071 0.525788
vt 0.990119 0.525730
vt 0.954166 0.584808
vt 0.990215 0.584750
vt 0.954222 0.619181
vt 0.990270 0.619123
vt 0.954308 0.672566
vt 0.990357 0.672507
vt 0.954366 0.707965
vt 0.990414 0.707906
vt 0.954418 0.740214
vt 0.990466 0.740155
vt 0.954492 0.785796
vt 0.990540 0.785738
vt 0.953501 0.173379
vt 0.110018 0.041795
vt 0.015030 0.134931
vt 0.006642 0.228673
vt 0.049287 0.322770
vt 0.150696 0.417278
vt 0.185611 0.511322
vt 0.309458 0.627652
vt 0.121731 0.049316
vt 0.029450 0.141071
vt 0.021884 0.232827
vt 0.064244 0.324582
vt 0.164088 0.416337
vt 0.198884 0.508093
vt 0.320826 0.621042
vt 0.953540 0.197625
vt 0.075590 0.095194
vt 0.954455 0.763005
vt 0.990503 0.762946
vt 0.062524 0.088363
vt 0.929267 0.094414
vt 0.844198 0.278705
vt 0.043065 0.278705
vt 0.954337 0.690265
vt 0.990385 0.690207
vt 0.027966 0.275722
vt 0.846908 0.281439
vt 0.953643 0.261083
vt 0.032474 0.255765
vt 0.954351 0.699115
vt 0.990400 0.699057
vt 0.017303 0.252197
vt 0.897720 0.261217
vt 0.953593 0.230746
vt 0.025666 0.186949
vt 0.954392 0.724089
vt 0.990440 0.724031
vt 0.010835 0.181802
vt 0.944184 0.188319
vt 0.644288 0.448166
vt 0.181484 0.462215
vt 0.954194 0.601995
vt 0.990243 0.601936
vt 0.168153 0.464299
vt 0.641345 0.453241
vt 0.953802 0.359669
vt 0.172786 0.439276
vt 0.954208 0.610588
vt 0.990256 0.610529
vt 0.159425 0.440789
vt 0.707310 0.451317
vt 0.953731 0.315550
vt 0.155377 0.363903
vt 0.954252 0.637799
vt 0.990300 0.637741
vt 0.142167 0.363616
vt 0.804837 0.374945
vt 0.953908 0.425129
vt 0.230428 0.553970
vt 0.954135 0.565306
vt 0.990183 0.565248
vt 0.217529 0.558444
vt 0.578859 0.560966
vt 0.255501 0.576909
vt 0.954116 0.553403
vt 0.558342 0.576909
vt 0.552569 0.584233
vt 0.990164 0.553344
vt 0.242996 0.582072
vt 0.406677 0.634467
vt 0.954022 0.495351
vt 0.406920 0.576909
vt 0.407163 0.553970
vt 0.407651 0.508093
vt 0.412887 0.455190
vt 0.440794 0.442555
vt 0.468704 0.416337
vt 0.479528 0.367182
vt 0.449144 0.324582
vt 0.443631 0.278705
vt 0.463120 0.257171
vt 0.471367 0.232827
vt 0.482192 0.186949
vt 0.484588 0.141071
vt 0.499537 0.095194
vt 0.496690 0.049316
vt 0.954704 0.917135
vt 0.990752 0.917077
vt 0.493312 0.044471
vt 0.495895 0.091389
vt 0.480286 0.138180
vt 0.477509 0.185061
vt 0.466117 0.231881
vt 0.457512 0.256707
vt 0.437437 0.278580
vt 0.442745 0.325517
vt 0.473501 0.369280
vt 0.462085 0.419452
vt 0.433367 0.446053
vt 0.404749 0.458770
vt 0.399019 0.512812
vt 0.398193 0.559705
vt 0.397781 0.583152
vt 0.990070 0.495293
vt 0.397122 0.641988
vt 0.918653 0.704223
vt 0.920120 0.834795
vt 0.908368 0.834927
vt 0.906901 0.704355
vt 0.788081 0.705690
vt 0.789548 0.836262
vt 0.724262 0.836995
vt 0.722795 0.706423
vt 0.538688 0.708491
vt 0.540155 0.839063
vt 0.528403 0.839195
vt 0.526937 0.708623
vt 0.461651 0.709356
vt 0.463117 0.839928
vt 0.397831 0.840662
vt 0.396364 0.710090
vt 0.920853 0.900081
vt 0.909102 0.900213
vt 0.906168 0.639069
vt 0.917919 0.638937
vt 0.917186 0.573651
vt 0.905435 0.573783
vt 0.909835 0.965499
vt 0.921586 0.965367
vt 0.658975 0.837728
vt 0.657509 0.707156
vt 0.787347 0.640403
vt 0.800405 0.640257
vt 0.801138 0.705543
vt 0.799671 0.574971
vt 0.786614 0.575117
vt 0.645918 0.837875
vt 0.644452 0.707303
vt 0.790281 0.901548
vt 0.803338 0.901401
vt 0.804072 0.966687
vt 0.791014 0.966834
vt 0.802605 0.836115
vt 0.918653 0.704223
vt 0.920120 0.834795
vt 0.908368 0.834927
vt 0.906901 0.704355
vt 0.788081 0.705690
vt 0.789548 0.836262
vt 0.724262 0.836995
vt 0.722795 0.706423
vt 0.538688 0.708491
vt 0.540155 0.839063
vt 0.528403 0.839195
vt 0.526937 0.708623
vt 0.461651 0.709356
vt 0.463117 0.839928
vt 0.397831 0.840662
vt 0.396364 0.710090
vt 0.920853 0.900081
vt 0.909102 0.900213
vt 0.906168 0.639069
vt 0.917919 0.638937
vt 0.917186 0.573651
vt 0.905435 0.573783
vt 0.909835 0.965499
vt 0.921586 0.965367
vt 0.658975 0.837728
vt 0.657509 0.707156
vt 0.787347 0.640403
vt 0.800405 0.640257
vt 0.801138 0.705543
vt 0.799671 0.574971
vt 0.786614 0.575117
vt 0.645918 0.837875
vt 0.644452 0.707303
vt 0.790281 0.901548
vt 0.803338 0.901401
vt 0.804072 0.966687
vt 0.791014 0.966834
vt 0.802605 0.836115
vt 0.918653 0.704223
vt 0.920120 0.834795
vt 0.908368 0.834927
vt 0.906901 0.704355
vt 0.788081 0.705690
vt 0.789548 0.836262
vt 0.724262 0.836995
vt 0.722795 0.706423
vt 0.538688 0.708491
vt 0.540155 0.839063
vt 0.528403 0.839195
vt 0.526937 0.708623
vt 0.461651 0.709356
vt 0.463117 0.839928
vt 0.397831 0.840662
vt 0.396364 0.710090
vt 0.920853 0.900081
vt 0.909102 0.900213
vt 0.906168 0.639069
vt 0.917919 0.638937
vt 0.917186 0.573651
vt 0.905435 0.573783
vt 0.909835 0.965499
vt 0.921586 0.965367
vt 0.658975 0.837728
vt 0.657509 0.707156
vt 0.787347 0.640403
vt 0.800405 0.640257
vt 0.801138 0.705543
vt 0.799671 0.574971
vt 0.786614 0.575117
vt 0.645918 0.837875
vt 0.644452 0.707303
vt 0.790281 0.901548
vt 0.803338 0.901401
vt 0.804072 0.966687
vt 0.791014 0.966834
vt 0.802605 0.836115
vt 0.918653 0.704223
vt 0.920120 0.834795
vt 0.908368 0.834927
vt 0.906901 0.704355
vt 0.788081 0.705690
vt 0.789548 0.836262
vt 0.724262 0.836995
vt 0.722795 0.706423
vt 0.538688 0.708491
vt 0.540155 0.839063
vt 0.528403 0.839195
vt 0.526937 0.708623
vt 0.461650 0.709356
vt 0.463117 0.839928
vt 0.397831 0.840662
vt 0.396364 0.710090
vt 0.920853 0.900081
vt 0.909102 0.900213
vt 0.906168 0.639069
vt 0.917919 0.638937
vt 0.917186 0.573651
vt 0.905435 0.573783
vt 0.909835 0.965499
vt 0.921586 0.965367
vt 0.658975 0.837728
vt 0.657509 0.707156
vt 0.787347 0.640403
vt 0.800405 0.640257
vt 0.801138 0.705543
vt 0.799671 0.574971
vt 0.786614 0.575117
vt 0.645918 0.837875
vt 0.644452 0.707303
vt 0.790281 0.901548
vt 0.803338 0.901401
vt 0.804072 0.966687
vt 0.791014 0.966834
vt 0.802605 0.836115
vt 0.918653 0.704223
vt 0.920120 0.834795
vt 0.908368 0.834927
vt 0.906901 0.704355
vt 0.788081 0.705690
vt 0.789548 0.836262
vt 0.724262 0.836995
vt 0.722795 0.706423
vt 0.538688 0.708491
vt 0.540155 0.839063
vt 0.528403 0.839195
vt 0.526937 0.708623
vt 0.461650 0.709356
vt 0.463117 0.839928
vt 0.397831 0.840662
vt 0.396364 0.710090
vt 0.920853 0.900081
vt 0.909102 0.900213
vt 0.906168 0.639069
vt 0.917919 0.638937
vt 0.917186 0.573651
vt 0.905435 0.573783
vt 0.909835 0.965499
vt 0.921586 0.965367
vt 0.658975 0.837728
vt 0.657509 0.707156
vt 0.787347 0.640403
vt 0.800405 0.640257
vt 0.801138 0.705543
vt 0.799671 0.574971
vt 0.786614 0.575117
vt 0.645918 0.837875
vt 0.644452 0.707303
vt 0.790281 0.901548
vt 0.803338 0.901401
vt 0.804072 0.966687
vt 0.791014 0.966834
vt 0.802605 0.836115
vt 0.989976 0.437100
vt 0.484980 0.628878
vt 0.953927 0.437158
vt 0.953972 0.464914
vt 0.989956 0.425070
vt 0.583900 0.553970
vt 0.989779 0.315492
vt 0.989810 0.334763
vt 0.803683 0.370460
vt 0.953762 0.334821
vt 0.989850 0.359611
vt 0.989887 0.382223
vt 0.708802 0.445833
vt 0.953839 0.382282
vt 0.989924 0.405374
vt 0.953876 0.405432
vt 0.989642 0.230688
vt 0.989670 0.247933
vt 0.938718 0.186949
vt 0.953621 0.247992
vt 0.989691 0.261024
vt 0.989721 0.279763
vt 0.893764 0.258576
vt 0.953673 0.279822
vt 0.989748 0.296222
vt 0.953699 0.296280
vt 0.989588 0.197567
vt 0.989616 0.214614
vt 0.923484 0.095194
vt 0.953567 0.214673
vt 0.876607 0.047147
vt 0.953288 0.042040
vt 0.989337 0.041982
vn -0.193174 -0.723483 0.662764
vn -0.193174 -0.723483 0.662764
vn -0.153710 -0.575682 0.803096
vn -0.153710 -0.575682 0.803096
vn -0.042251 -0.158240 0.986496
vn -0.042251 -0.158240 0.986496
vn 0.051973 0.194651 0.979495
vn 0.051973 0.194651 0.979495
vn 0.137133 0.513597 0.847002
vn 0.137133 0.513597 0.847002
vn 0.221352 0.829020 0.513545
vn 0.221352 0.829020 0.513545
vn 0.104201 0.390259 0.914790
vn 0.104201 0.390259 0.914790
vn 0.142375 0.533230 0.833904
vn 0.142375 0.533230 0.833904
vn 0.201989 0.756500 0.622020
vn 0.201989 0.756500 0.622020
vn 0.250460 0.938036 0.239496
vn 0.250460 0.938036 0.239496
vn 0.127875 0.478922 0.868494
vn 0.127875 0.478922 0.868494
vn 0.166376 0.623121 0.764225
vn 0.166376 0.623121 0.764225
vn 0.254871 0.954556 0.154482
vn 0.254871 0.954556 0.154482
vn 0.257968 0.966154 0.000000
vn 0.257968 0.966154 0.000000
vn 0.163896 0.613833 -0.772235
vn 0.163896 0.613833 -0.772235
vn 0.121411 0.454715 -0.882323
vn 0.121411 0.454715 -0.882323
vn 0.091466 0.342563 -0.935032
vn 0.091466 0.342563 -0.935032
vn 0.058054 0.217428 -0.974348
vn 0.058054 0.217428 -0.974348
vn 0.189942 0.711380 -0.676654
vn 0.189942 0.711380 -0.676654
vn 0.205523 0.769735 -0.604374
vn 0.205523 0.769735 -0.604374
vn 0.108131 0.404978 -0.907910
vn 0.108131 0.404978 -0.907910
vn 0.025396 0.095113 -0.995143
vn 0.025396 0.095113 -0.995143
vn -0.021198 -0.079392 -0.996618
vn -0.021198 -0.079392 -0.996618
vn -0.123292 -0.461761 -0.878394
vn -0.123292 -0.461761 -0.878394
vn -0.182932 -0.685126 -0.705081
vn -0.182932 -0.685126 -0.705081
vn -0.182932 -0.685126 -0.705081
vn -0.182932 -0.685126 -0.705081
vn -0.257968 -0.966154 0.000000
vn -0.257968 -0.966154 0.000000
vn -0.257968 -0.966154 0.000000
vn -0.257968 -0.966154 0.000000
vn 0.966154 -0.257965 0.000000
vn 0.966157 -0.257956 0.000000
vn 0.966156 -0.257960 0.000000
vn 0.966155 -0.257962 0.000000
vn 0.966153 -0.257969 0.000000
vn 0.966153 -0.257968 0.000000
vn 0.966153 -0.257970 0.000000
vn 0.966152 -0.257972 0.000000
vn 0.966153 -0.257969 0.000000
vn 0.966153 -0.257969 0.000000
vn 0.966155 -0.257963 0.000000
vn 0.966154 -0.257968 0.000000
vn 0.966153 -0.257971 0.000000
vn 0.966153 -0.257969 0.000000
vn 0.966155 -0.257962 0.000000
vn 0.966155 -0.257962 0.000000
vn 0.966159 -0.257949 0.000000
vn 0.966152 -0.257974 0.000000
vn 0.966147 -0.257992 0.000000
vn 0.966143 -0.258009 0.000000
vn 0.966154 -0.257965 0.000000
vn 0.966154 -0.257967 0.000000
vn 0.966153 -0.257972 0.000000
vn 0.966153 -0.257971 0.000000
vn -0.966154 0.257967 0.000000
vn -0.966158 0.257951 0.000000
vn -0.966159 0.257947 0.000000
vn -0.966151 0.257977 0.000000
vn -0.966154 0.257966 0.000000
vn -0.966151 0.257976 0.000000
vn -0.966151 0.257976 0.000000
vn -0.966154 0.257968 0.000000
vn -0.966150 0.257982 0.000000
vn -0.966154 0.257965 0.000000
vn -0.966154 0.257968 0.000000
vn -0.966154 0.257968 0.000000
vn -0.966154 0.257965 0.000000
vn -0.966154 0.257967 0.000000
vn -0.966154 0.257968 0.000000
vn -0.966154 0.257968 0.000000
vn -0.966155 0.257964 0.000000
vn -0.966157 0.257954 0.000000
vn -0.966154 0.257966 0.000000
vn -0.966160 0.257944 0.000000
vn -0.966153 0.257970 0.000000
vn -0.966152 0.257972 0.000000
vn -0.966150 0.257979 0.000000
vn -0.966154 0.257968 0.000000
vn -0.966154 0.257964 0.000000
vn -0.966154 0.257968 0.000000
vn 0.108128 0.404965 -0.907916
vn 0.108128 0.404965 -0.907916
vn 0.966155 -0.257961 0.000000
vn 0.966154 -0.257967 0.000000
vn 0.173073 0.648200 0.741541
vn 0.173073 0.648200 0.741541
vn -0.966152 0.257972 0.000000
vn -0.966151 0.257979 0.000000
vn 0.091474 0.342592 -0.935021
vn 0.091474 0.342592 -0.935021
vn 0.966155 -0.257964 0.000000
vn 0.966154 -0.257965 0.000000
vn 0.213923 0.801195 0.558859
vn 0.213923 0.801195 0.558859
vn -0.966155 0.257964 0.000000
vn -0.966155 0.257963 0.000000
vn -0.966155 0.257963 0.000000
vn -0.966158 0.257951 0.000000
vn 0.213758 0.800575 -0.559810
vn 0.213758 0.800575 -0.559810
vn 0.207170 0.775901 -0.595868
vn 0.207170 0.775901 -0.595868
vn 0.966158 -0.257952 0.000000
vn 0.966155 -0.257963 0.000000
vn 0.966157 -0.257956 0.000000
vn 0.966160 -0.257943 0.000000
vn 0.207952 0.778831 0.591759
vn 0.207952 0.778831 0.591759
vn 0.214252 0.802427 0.556962
vn 0.214252 0.802427 0.556962
vn -0.966155 0.257961 0.000000
vn -0.966151 0.257976 0.000000
vn -0.966151 0.257976 0.000000
vn -0.966154 0.257965 0.000000
vn -0.966155 0.257963 0.000000
vn -0.966153 0.257969 0.000000
vn -0.966157 0.257954 0.000000
vn -0.966153 0.257970 0.000000
vn -0.966157 0.257954 0.000000
vn -0.966154 0.257964 0.000000
vn -0.966145 0.257998 0.000000
vn -0.966155 0.257964 0.000000
vn -0.966155 0.257962 0.000000
vn -0.966151 0.257978 0.000000
vn -0.966153 0.257970 0.000000
vn -0.966157 0.257955 0.000000
vn -0.257968 -0.966154 0.000000
vn -0.257968 -0.966154 0.000000
vn 0.966159 -0.257947 0.000000
vn 0.966155 -0.257963 0.000000
vn 0.966154 -0.257968 0.000000
vn 0.966154 -0.257968 0.000000
vn 0.966154 -0.257968 0.000000
vn 0.966154 -0.257968 0.000000
vn 0.966154 -0.257968 0.000000
vn 0.966154 -0.257968 0.000000
vn 0.966154 -0.257968 0.000000
vn 0.966152 -0.257974 0.000000
vn 0.966148 -0.257987 0.000000
vn 0.966154 -0.257968 0.000000
vn 0.966154 -0.257968 0.000000
vn 0.966153 -0.257971 0.000000
vn 0.966149 -0.257986 0.000000
vn 0.966154 -0.257968 0.000000
vn 0.254871 0.954555 -0.154485
vn 0.254871 0.954555 -0.154485
vn -0.095238 -0.356690 0.929356
vn -0.095238 -0.356690 0.929356
vn -0.079168 -0.296503 0.951745
vn -0.079168 -0.296503 0.951745
vn 0.164105 0.614615 0.771568
vn 0.164105 0.614615 0.771568
vn 0.245757 0.920421 0.304019
vn 0.245757 0.920421 0.304019
vn 0.074137 0.277660 -0.957814
vn 0.074137 0.277660 -0.957814
vn 0.053373 0.199894 -0.978363
vn 0.053373 0.199894 -0.978363
vn -0.245754 -0.920412 -0.304052
vn -0.245754 -0.920412 -0.304052
vn -0.251337 -0.941318 0.225278
vn -0.251337 -0.941318 0.225278
vn 0.966154 -0.257968 0.000000
vn 0.966151 -0.257978 0.000000
vn 0.966154 -0.257967 0.000000
vn 0.966156 -0.257961 0.000000
vn -0.966155 0.257963 0.000000
vn -0.966151 0.257976 0.000000
vn -0.966148 0.257989 0.000000
vn -0.966148 0.257987 0.000000
vn -0.966147 0.257991 0.000000
vn -0.966149 0.257986 0.000000
vn -0.157624 -0.590340 -0.791614
vn -0.157624 -0.590340 -0.791614
vn 0.966153 -0.257970 0.000000
vn 0.966147 -0.257991 0.000000
vn 0.249741 0.935341 -0.250533
vn 0.249741 0.935341 -0.250533
vn -0.966149 0.257983 0.000000
vn -0.966152 0.257975 0.000000
vn -0.966156 0.257960 0.000000
vn -0.966154 0.257968 0.000000
vn -0.966149 0.257986 0.000000
vn -0.966145 0.257998 0.000000
vn 0.095529 0.357780 -0.928907
vn 0.095529 0.357780 -0.928907
vn 0.081709 0.306021 -0.948512
vn 0.081709 0.306021 -0.948512
vn 0.966154 -0.257968 0.000000
vn 0.966154 -0.257965 0.000000
vn 0.966154 -0.257968 0.000000
vn 0.966154 -0.257968 0.000000
vn 0.966156 -0.257960 0.000000
vn 0.966154 -0.257968 0.000000
vn -0.071515 -0.267843 0.960805
vn -0.071515 -0.267843 0.960805
vn -0.052321 -0.195956 0.979216
vn -0.052321 -0.195956 0.979216
vn -0.095238 -0.356690 0.929356
vn -0.095238 -0.356690 0.929356
vn -0.079168 -0.296503 0.951745
vn -0.079168 -0.296503 0.951745
vn 0.164105 0.614615 0.771568
vn 0.164105 0.614615 0.771568
vn 0.245757 0.920421 0.304019
vn 0.245757 0.920421 0.304019
vn 0.074137 0.277660 -0.957814
vn 0.074137 0.277660 -0.957814
vn 0.053373 0.199894 -0.978363
vn 0.053373 0.199894 -0.978363
vn -0.245754 -0.920412 -0.304052
vn -0.245754 -0.920412 -0.304052
vn -0.251337 -0.941318 0.225278
vn -0.251337 -0.941318 0.225278
vn 0.966154 -0.257968 0.000000
vn 0.966151 -0.257978 0.000000
vn 0.966154 -0.257967 0.000000
vn 0.966155 -0.257961 0.000000
vn -0.966155 0.257963 0.000000
vn -0.966151 0.257976 0.000000
vn -0.966148 0.257989 0.000000
vn -0.966148 0.257987 0.000000
vn -0.966147 0.257991 0.000000
vn -0.966149 0.257986 0.000000
vn -0.157624 -0.590340 -0.791614
vn -0.157624 -0.590340 -0.791614
vn 0.966153 -0.257970 0.000000
vn 0.966147 -0.257991 0.000000
vn 0.249741 0.935341 -0.250533
vn 0.249741 0.935341 -0.250533
vn -0.966149 0.257983 0.000000
vn -0.966152 0.257975 0.000000
vn -0.966156 0.257960 0.000000
vn -0.966154 0.257968 0.000000
vn -0.966149 0.257986 0.000000
vn -0.966145 0.257998 0.000000
vn 0.095529 0.357780 -0.928907
vn 0.095529 0.357780 -0.928907
vn 0.081709 0.306021 -0.948512
vn 0.081709 0.306021 -0.948512
vn 0.966154 -0.257968 0.000000
vn 0.966154 -0.257965 0.000000
vn 0.966154 -0.257968 0.000000
vn 0.966154 -0.257968 0.000000
vn 0.966156 -0.257960 0.000000
vn 0.966154 -0.257968 0.000000
vn -0.071515 -0.267843 0.960805
vn -0.071515 -0.267843 0.960805
vn -0.052321 -0.195956 0.979216
vn -0.052321 -0.195956 0.979216
vn -0.095238 -0.356690 0.929356
vn -0.095238 -0.356690 0.929356
vn -0.079168 -0.296503 0.951745
vn -0.079168 -0.296503 0.951745
vn 0.164105 0.614615 0.771568
vn 0.164105 0.614615 0.771568
vn 0.245757 0.920421 0.304019
vn 0.245757 0.920421 0.304019
vn 0.074137 0.277660 -0.957814
vn 0.074137 0.277660 -0.957814
vn 0.053373 0.199894 -0.978363
vn 0.053373 0.199894 -0.978363
vn -0.245754 -0.920412 -0.304052
vn -0.245754 -0.920412 -0.304052
vn -0.251337 -0.941318 0.225278
vn -0.251337 -0.941318 0.225278
vn 0.966154 -0.257968 0.000000
vn 0.966151 -0.257978 0.000000
vn 0.966154 -0.257967 0.000000
vn 0.966156 -0.257961 0.000000
vn -0.966155 0.257963 0.000000
vn -0.966151 0.257976 0.000000
vn -0.966148 0.257989 0.000000
vn -0.966148 0.257987 0.000000
vn -0.966147 0.257991 0.000000
vn -0.966149 0.257986 0.000000
vn -0.157624 -0.590340 -0.791614
vn -0.157624 -0.590340 -0.791614
vn 0.966153 -0.257970 0.000000
vn 0.966147 -0.257991 0.000000
vn 0.249741 0.935341 -0.250533
vn 0.249741 0.935341 -0.250533
vn -0.966149 0.257983 0.000000
vn -0.966152 0.257975 0.000000
vn -0.966156 0.257960 0.000000
vn -0.966154 0.257968 0.000000
vn -0.966149 0.257986 0.000000
vn -0.966145 0.257998 0.000000
vn 0.095529 0.357780 -0.928907
vn 0.095529 0.357780 -0.928907
vn 0.081709 0.306021 -0.948512
vn 0.081709 0.306021 -0.948512
vn 0.966154 -0.257968 0.000000
vn 0.966154 -0.257965 0.000000
vn 0.966154 -0.257968 0.000000
vn 0.966154 -0.257968 0.000000
vn 0.966156 -0.257960 0.000000
vn 0.966154 -0.257968 0.000000
vn -0.071515 -0.267843 0.960805
vn -0.071515 -0.267843 0.960805
vn -0.052321 -0.195956 0.979216
vn -0.052321 -0.195956 0.979216
vn -0.104544 -0.391545 0.914201
vn -0.104544 -0.391545 0.914201
vn -0.079586 -0.298069 0.951221
vn -0.079586 -0.298069 0.951221
vn 0.197501 0.739689 0.643315
vn 0.197501 0.739689 0.643315
vn 0.245754 0.920408 0.304062
vn 0.245754 0.920408 0.304062
vn 0.071696 0.268518 -0.960603
vn 0.071696 0.268518 -0.960603
vn 0.039095 0.146421 -0.988450
vn 0.039095 0.146421 -0.988450
vn -0.245757 -0.920420 -0.304024
vn -0.245757 -0.920420 -0.304024
vn -0.257601 -0.964778 0.053336
vn -0.257601 -0.964778 0.053336
vn 0.966158 -0.257953 0.000000
vn 0.966154 -0.257967 0.000000
vn 0.966155 -0.257963 0.000000
vn 0.966154 -0.257966 0.000000
vn -0.966156 0.257959 0.000000
vn -0.966155 0.257963 0.000000
vn -0.966152 0.257972 0.000000
vn -0.966150 0.257983 0.000000
vn -0.966156 0.257959 0.000000
vn -0.966154 0.257967 0.000000
vn -0.193277 -0.723871 -0.662311
vn -0.193277 -0.723871 -0.662311
vn 0.966156 -0.257957 0.000000
vn 0.966149 -0.257986 0.000000
vn 0.257280 0.963576 -0.073003
vn 0.257280 0.963576 -0.073003
vn -0.966160 0.257943 0.000000
vn -0.966156 0.257957 0.000000
vn -0.966157 0.257956 0.000000
vn -0.966154 0.257968 0.000000
vn -0.966154 0.257965 0.000000
vn -0.966166 0.257920 0.000000
vn 0.104972 0.393145 -0.913465
vn 0.104972 0.393145 -0.913465
vn 0.083569 0.312985 -0.946074
vn 0.083569 0.312985 -0.946074
vn 0.966142 -0.258011 0.000000
vn 0.966152 -0.257972 0.000000
vn 0.966156 -0.257960 0.000000
vn 0.966128 -0.258063 0.000000
vn 0.966154 -0.257967 0.000000
vn 0.966157 -0.257956 0.000000
vn -0.067563 -0.253039 0.965094
vn -0.067563 -0.253039 0.965094
vn -0.037437 -0.140213 0.989413
vn -0.037437 -0.140213 0.989413
vn -0.104544 -0.391545 0.914201
vn -0.104544 -0.391545 0.914201
vn -0.079586 -0.298069 0.951221
vn -0.079586 -0.298069 0.951221
vn 0.197501 0.739689 0.643315
vn 0.197501 0.739689 0.643315
vn 0.245754 0.920408 0.304062
vn 0.245754 0.920408 0.304062
vn 0.071696 0.268518 -0.960603
vn 0.071696 0.268518 -0.960603
vn 0.039095 0.146421 -0.988450
vn 0.039095 0.146421 -0.988450
vn -0.245757 -0.920420 -0.304024
vn -0.245757 -0.920420 -0.304024
vn -0.257601 -0.964778 0.053336
vn -0.257601 -0.964778 0.053336
vn 0.966158 -0.257953 0.000000
vn 0.966154 -0.257967 0.000000
vn 0.966155 -0.257963 0.000000
vn 0.966154 -0.257966 0.000000
vn -0.966156 0.257959 0.000000
vn -0.966155 0.257963 0.000000
vn -0.966152 0.257972 0.000000
vn -0.966150 0.257983 0.000000
vn -0.966156 0.257959 0.000000
vn -0.966154 0.257967 0.000000
vn -0.193277 -0.723871 -0.662311
vn -0.193277 -0.723871 -0.662311
vn 0.966156 -0.257957 0.000000
vn 0.966149 -0.257986 0.000000
vn 0.257280 0.963576 -0.073003
vn 0.257280 0.963576 -0.073003
vn -0.966160 0.257943 0.000000
vn -0.966156 0.257957 0.000000
vn -0.966157 0.257956 0.000000
vn -0.966154 0.257968 0.000000
vn -0.966154 0.257965 0.000000
vn -0.966166 0.257920 0.000000
vn 0.104972 0.393145 -0.913465
vn 0.104972 0.393145 -0.913465
vn 0.083569 0.312985 -0.946074
vn 0.083569 0.312985 -0.946074
vn 0.966142 -0.258011 0.000000
vn 0.966152 -0.257972 0.000000
vn 0.966156 -0.257960 0.000000
vn 0.966128 -0.258063 0.000000
vn 0.966154 -0.257967 0.000000
vn 0.966157 -0.257956 0.000000
vn -0.067563 -0.253039 0.965094
vn -0.067563 -0.253039 0.965094
vn -0.037437 -0.140213 0.989413
vn -0.037437 -0.140213 0.989413
s 1
g pasted__pCube26
usemtl pasted__standardSurface2SG1
f 1/29/1 2/2/2 32/350/3 29/44/4
f 3/353/5 4/351/6 44/340/7 41/62/8
f 5/343/9 6/341/10 40/344/11 37/56/12
f 7/349/13 8/348/14 56/330/15 53/80/16
f 9/333/17 10/331/18 52/334/19 49/74/20
f 11/339/21 12/338/22 60/328/23 57/86/24
s 4
f 13/327/25 14/14/26 96/132/27 65/99/28
s 5
f 58/88/29 59/89/30 18/18/31 17/17/32
f 50/76/33 51/77/34 20/20/35 19/19/36
f 54/82/37 55/83/38 22/22/39 21/21/40
f 38/58/41 39/59/42 24/24/43 23/23/44
f 42/64/45 43/65/46 26/26/47 25/25/48
f 30/46/49 31/47/50 28/28/51 27/27/52
s 8
f 80/355/53 81/356/54 2/2/55 1/29/56
s 9
f 2/354/57 81/117/58 82/118/59 32/49/60
f 4/4/61 83/119/62 84/120/63 44/67/64
f 6/6/65 85/121/66 86/122/67 40/61/68
f 8/8/69 88/124/70 89/125/71 56/85/72
f 10/10/73 90/126/74 91/127/75 52/79/76
f 12/12/77 93/129/78 94/130/79 60/91/80
s 12
f 79/113/81 80/114/82 1/1/83 29/352/84
f 77/111/85 78/112/86 3/3/87 41/342/88
f 75/109/89 76/110/90 5/5/91 37/346/92
f 72/106/93 73/107/94 7/7/95 53/332/96
f 70/104/97 71/105/98 9/9/99 49/336/100
f 67/101/101 68/102/102 11/11/103 57/329/104
f 78/112/86 79/113/81 29/352/84 3/3/87
s 5
f 25/25/48 26/26/47 31/47/50 30/46/49
s 9
f 32/49/60 82/118/59 83/119/62 4/4/61
s 1
f 29/44/4 32/350/3 4/351/6 3/353/5
s 12
f 73/107/94 74/108/105 33/50/106 7/7/95
s 5
f 21/21/40 22/22/39 35/53/107 34/52/108
s 9
f 36/55/109 87/123/110 88/124/70 8/8/69
s 1
f 33/347/111 36/345/112 8/348/14 7/349/13
s 12
f 74/108/105 75/109/89 37/346/92 33/50/106
s 5
f 34/52/108 35/53/107 39/59/42 38/58/41
s 9
f 40/61/68 86/122/67 87/123/110 36/55/109
s 1
f 37/56/12 40/344/11 36/345/112 33/347/111
s 12
f 76/110/90 77/111/85 41/342/88 5/5/91
s 5
f 23/23/44 24/24/43 43/65/46 42/64/45
s 9
f 44/67/64 84/120/63 85/121/66 6/6/65
s 1
f 41/62/8 44/340/7 6/341/10 5/343/9
s 12
f 68/102/102 69/103/113 45/68/114 11/11/103
s 5
f 17/17/32 18/18/31 47/71/115 46/70/116
s 9
f 48/73/117 92/128/118 93/129/78 12/12/77
s 1
f 45/337/119 48/335/120 12/338/22 11/339/21
s 12
f 69/103/113 70/104/97 49/336/100 45/68/114
s 5
f 46/70/116 47/71/115 51/77/34 50/76/33
s 9
f 52/79/76 91/127/75 92/128/118 48/73/117
s 1
f 49/74/20 52/334/19 48/335/120 45/337/119
s 12
f 71/105/98 72/106/93 53/332/96 9/9/99
s 5
f 19/19/36 20/20/35 55/83/38 54/82/37
s 9
f 56/85/72 89/125/71 90/126/74 10/10/73
s 1
f 53/80/16 56/330/15 10/331/18 9/333/17
s 12
f 65/98/121 66/100/122 62/94/123 13/13/124
s 5
f 15/15/125 16/16/126 64/96/127 61/93/128
s 9
f 63/95/129 95/131/130 96/133/131 14/325/132
s 1
f 62/326/133 63/324/134 14/14/135 13/327/136
s 12
f 66/100/122 67/101/101 57/329/104 62/94/123
s 1
f 57/86/24 60/328/23 63/324/134 62/326/133
s 9
f 60/91/80 94/130/79 95/131/130 63/95/129
s 5
f 61/93/128 64/96/127 59/89/30 58/88/29
s 12
f 61/92/137 66/100/122 65/98/121 15/43/138
f 58/87/139 67/101/101 66/100/122 61/92/137
f 17/42/140 68/102/102 67/101/101 58/87/139
f 46/69/141 69/103/113 68/102/102 17/42/140
f 50/75/142 70/104/97 69/103/113 46/69/141
f 19/41/143 71/105/98 70/104/97 50/75/142
f 54/81/144 72/106/93 71/105/98 19/41/143
f 21/40/145 73/107/94 72/106/93 54/81/144
f 34/51/146 74/108/105 73/107/94 21/40/145
f 38/57/147 75/109/89 74/108/105 34/51/146
f 23/39/148 76/110/90 75/109/89 38/57/147
f 42/63/149 77/111/85 76/110/90 23/39/148
f 25/38/150 78/112/86 77/111/85 42/63/149
f 30/45/151 79/113/81 78/112/86 25/38/150
f 27/37/152 80/114/82 79/113/81 30/45/151
s 8
f 27/27/153 28/28/154 81/116/54 80/115/53
s 9
f 82/118/59 81/117/58 28/30/155 31/48/156
f 83/119/62 82/118/59 31/48/156 26/31/157
f 84/120/63 83/119/62 26/31/157 43/66/158
f 85/121/66 84/120/63 43/66/158 24/32/159
f 86/122/67 85/121/66 24/32/159 39/60/160
f 87/123/110 86/122/67 39/60/160 35/54/161
f 88/124/70 87/123/110 35/54/161 22/33/162
f 89/125/71 88/124/70 22/33/162 55/84/163
f 90/126/74 89/125/71 55/84/163 20/34/164
f 91/127/75 90/126/74 20/34/164 51/78/165
f 92/128/118 91/127/75 51/78/165 47/72/166
f 93/129/78 92/128/118 47/72/166 18/35/167
f 94/130/79 93/129/78 18/35/167 59/90/168
f 95/131/130 94/130/79 59/90/168 64/97/169
f 96/133/131 95/131/130 64/97/169 16/36/170
s 4
f 65/99/28 96/132/27 16/16/171 15/15/172
s 19
f 97/134/173 98/135/174 120/136/175 115/137/176
s 20
f 99/138/177 100/139/178 108/140/179 105/141/180
s 21
f 117/142/181 118/143/182 104/144/183 103/145/184
s 22
f 106/146/185 107/147/186 98/148/187 97/149/188
s 23
f 98/135/189 107/150/190 119/151/191 120/136/192
s 24
f 115/137/193 116/152/194 106/153/195 97/134/196
f 103/154/197 106/153/195 116/152/194 117/155/198
s 22
f 103/145/199 104/144/200 107/147/186 106/146/185
s 23
f 118/156/201 119/151/191 107/150/190 104/157/202
s 20
f 105/141/180 108/140/179 102/158/203 101/159/204
s 24
f 105/160/205 110/161/206 109/162/207 99/138/208
f 111/163/209 110/161/206 105/160/205 101/164/210
s 21
f 101/159/211 102/158/212 112/165/213 111/166/214
s 23
f 108/167/215 113/168/216 112/169/217 102/170/218
f 114/171/219 113/168/216 108/167/215 100/139/220
s 19
f 109/162/221 114/171/222 100/139/223 99/138/224
s 24
f 109/162/207 110/161/206 116/152/194 115/137/193
f 117/155/198 116/152/194 110/161/206 111/163/209
s 21
f 111/166/214 112/165/213 118/143/182 117/142/181
s 23
f 112/169/217 113/168/216 119/151/191 118/156/201
f 120/136/192 119/151/191 113/168/216 114/171/219
s 19
f 115/137/176 120/136/175 114/171/222 109/162/221
s 27
f 121/172/225 122/173/226 144/174/227 139/175/228
s 28
f 123/176/229 124/177/230 132/178/231 129/179/232
s 29
f 141/180/233 142/181/234 128/182/235 127/183/236
s 30
f 130/184/237 131/185/238 122/186/239 121/187/240
s 31
f 122/173/241 131/188/242 143/189/243 144/174/244
s 32
f 139/175/245 140/190/246 130/191/247 121/172/248
f 127/192/249 130/191/247 140/190/246 141/193/250
s 30
f 127/183/251 128/182/252 131/185/238 130/184/237
s 31
f 142/194/253 143/189/243 131/188/242 128/195/254
s 28
f 129/179/232 132/178/231 126/196/255 125/197/256
s 32
f 129/198/257 134/199/258 133/200/259 123/176/260
f 135/201/261 134/199/258 129/198/257 125/202/262
s 29
f 125/197/263 126/196/264 136/203/265 135/204/266
s 31
f 132/205/267 137/206/268 136/207/269 126/208/270
f 138/209/271 137/206/268 132/205/267 124/177/272
s 27
f 133/200/273 138/209/274 124/177/275 123/176/276
s 32
f 133/200/259 134/199/258 140/190/246 139/175/245
f 141/193/250 140/190/246 134/199/258 135/201/261
s 29
f 135/204/266 136/203/265 142/181/234 141/180/233
s 31
f 136/207/269 137/206/268 143/189/243 142/194/253
f 144/174/244 143/189/243 137/206/268 138/209/271
s 27
f 139/175/228 144/174/227 138/209/274 133/200/273
s 35
f 145/210/277 146/211/278 168/212/279 163/213/280
s 36
f 147/214/281 148/215/282 156/216/283 153/217/284
s 37
f 165/218/285 166/219/286 152/220/287 151/221/288
s 38
f 154/222/289 155/223/290 146/224/291 145/225/292
s 39
f 146/211/293 155/226/294 167/227/295 168/212/296
s 40
f 163/213/297 164/228/298 154/229/299 145/210/300
f 151/230/301 154/229/299 164/228/298 165/231/302
s 38
f 151/221/303 152/220/304 155/223/290 154/222/289
s 39
f 166/232/305 167/227/295 155/226/294 152/233/306
s 36
f 153/217/284 156/216/283 150/234/307 149/235/308
s 40
f 153/236/309 158/237/310 157/238/311 147/214/312
f 159/239/313 158/237/310 153/236/309 149/240/314
s 37
f 149/235/315 150/234/316 160/241/317 159/242/318
s 39
f 156/243/319 161/244/320 160/245/321 150/246/322
f 162/247/323 161/244/320 156/243/319 148/215/324
s 35
f 157/238/325 162/247/326 148/215/327 147/214/328
s 40
f 157/238/311 158/237/310 164/228/298 163/213/297
f 165/231/302 164/228/298 158/237/310 159/239/313
s 37
f 159/242/318 160/241/317 166/219/286 165/218/285
s 39
f 160/245/321 161/244/320 167/227/295 166/232/305
f 168/212/296 167/227/295 161/244/320 162/247/323
s 35
f 163/213/280 168/212/279 162/247/326 157/238/325
s 43
f 169/248/329 170/249/330 192/250/331 187/251/332
s 44
f 171/252/333 172/253/334 180/254/335 177/255/336
s 45
f 189/256/337 190/257/338 176/258/339 175/259/340
s 46
f 178/260/341 179/261/342 170/262/343 169/263/344
s 47
f 170/249/345 179/264/346 191/265/347 192/250/348
s 48
f 187/251/349 188/266/350 178/267/351 169/248/352
f 175/268/353 178/267/351 188/266/350 189/269/354
s 46
f 175/259/355 176/258/356 179/261/342 178/260/341
s 47
f 190/270/357 191/265/347 179/264/346 176/271/358
s 44
f 177/255/336 180/254/335 174/272/359 173/273/360
s 48
f 177/274/361 182/275/362 181/276/363 171/252/364
f 183/277/365 182/275/362 177/274/361 173/278/366
s 45
f 173/273/367 174/272/368 184/279/369 183/280/370
s 47
f 180/281/371 185/282/372 184/283/373 174/284/374
f 186/285/375 185/282/372 180/281/371 172/253/376
s 43
f 181/276/377 186/285/378 172/253/379 171/252/380
s 48
f 181/276/363 182/275/362 188/266/350 187/251/349
f 189/269/354 188/266/350 182/275/362 183/277/365
s 45
f 183/280/370 184/279/369 190/257/338 189/256/337
s 47
f 184/283/373 185/282/372 191/265/347 190/270/357
f 192/250/348 191/265/347 185/282/372 186/285/375
s 43
f 187/251/332 192/250/331 186/285/378 181/276/377
s 51
f 193/286/381 194/287/382 216/288/383 211/289/384
s 52
f 195/290/385 196/291/386 204/292/387 201/293/388
s 53
f 213/294/389 214/295/390 200/296/391 199/297/392
s 54
f 202/298/393 203/299/394 194/300/395 193/301/396
s 55
f 194/287/397 203/302/398 215/303/399 216/288/400
s 56
f 211/289/401 212/304/402 202/305/403 193/286/404
f 199/306/405 202/305/403 212/304/402 213/307/406
s 54
f 199/297/407 200/296/408 203/299/394 202/298/393
s 55
f 214/308/409 215/303/399 203/302/398 200/309/410
s 52
f 201/293/388 204/292/387 198/310/411 197/311/412
s 56
f 201/312/413 206/313/414 205/314/415 195/290/416
f 207/315/417 206/313/414 201/312/413 197/316/418
s 53
f 197/311/419 198/310/420 208/317/421 207/318/422
s 55
f 204/319/423 209/320/424 208/321/425 198/322/426
f 210/323/427 209/320/424 204/319/423 196/291/428
s 51
f 205/314/429 210/323/430 196/291/431 195/290/432
s 56
f 205/314/415 206/313/414 212/304/402 211/289/401
f 213/307/406 212/304/402 206/313/414 207/315/417
s 53
f 207/318/422 208/317/421 214/295/390 213/294/389
s 55
f 208/321/425 209/320/424 215/303/399 214/308/409
f 216/288/400 215/303/399 209/320/424 210/323/427
s 51
f 211/289/384 216/288/383 210/323/430 205/314/429
