# This file uses centimeters as units for non-parametric coordinates.

mtllib Fire_Icon.mtl
g default
v 4.194302 4.430116 -10.552851
v 4.202519 4.422003 -10.552851
v 4.204184 4.426096 -10.542182
v 4.208205 4.435978 -10.537763
v 4.198323 4.439998 -10.542182
v 4.194230 4.441664 -10.552851
v 4.325881 4.376585 -10.552851
v 4.333995 4.384801 -10.552851
v 4.329902 4.386467 -10.542182
v 4.320020 4.390487 -10.537763
v 4.315999 4.380605 -10.542182
v 4.314334 4.376512 -10.552851
v 4.247834 4.561696 -10.552851
v 4.239721 4.553479 -10.552851
v 4.243814 4.551814 -10.542182
v 4.253696 4.547793 -10.537763
v 4.257717 4.557675 -10.542182
v 4.259382 4.561768 -10.552851
v 4.379413 4.508164 -10.552851
v 4.371196 4.516278 -10.552851
v 4.369531 4.512185 -10.542182
v 4.365511 4.502303 -10.537763
v 4.375393 4.498282 -10.542182
v 4.379486 4.496617 -10.552851
v 4.243814 4.551814 -10.684233
v 4.239721 4.553479 -10.673565
v 4.247834 4.561696 -10.673565
v 4.259382 4.561768 -10.673565
v 4.257717 4.557675 -10.684233
v 4.253696 4.547793 -10.688652
v 4.375393 4.498282 -10.684233
v 4.365511 4.502303 -10.688652
v 4.369531 4.512185 -10.684233
v 4.371196 4.516278 -10.673565
v 4.379413 4.508164 -10.673565
v 4.379486 4.496617 -10.673565
v 4.194302 4.430116 -10.673565
v 4.194230 4.441664 -10.673565
v 4.198323 4.439998 -10.684233
v 4.208205 4.435978 -10.688652
v 4.204184 4.426096 -10.684233
v 4.202519 4.422003 -10.673565
v 4.325881 4.376585 -10.673565
v 4.314334 4.376512 -10.673565
v 4.315999 4.380605 -10.684233
v 4.320020 4.390487 -10.688652
v 4.329902 4.386467 -10.684233
v 4.333995 4.384801 -10.673565
v 4.196857 4.431194 -10.544144
v 4.324804 4.379140 -10.544144
v 4.248911 4.559141 -10.544144
v 4.376858 4.507087 -10.544144
v 4.248911 4.559141 -10.682272
v 4.376858 4.507087 -10.682272
v 4.196857 4.431194 -10.682272
v 4.324804 4.379140 -10.682272
v 4.343384 4.673058 -10.573635
v 4.378685 4.658695 -10.573635
v 4.358265 4.709635 -10.580998
v 4.393567 4.695273 -10.580998
v 4.371374 4.741856 -10.591395
v 4.406675 4.727494 -10.591395
v 4.382738 4.769788 -10.606148
v 4.418039 4.755426 -10.606148
v 4.391562 4.791478 -10.621370
v 4.426864 4.777116 -10.621370
v 4.396045 4.802498 -10.628569
v 4.431347 4.788136 -10.628569
v 4.396202 4.802882 -10.634580
v 4.431503 4.788520 -10.634580
v 4.391562 4.791478 -10.630856
v 4.426864 4.777116 -10.630856
v 4.382738 4.769788 -10.627287
v 4.418039 4.755426 -10.627287
v 4.371374 4.741856 -10.628209
v 4.406675 4.727494 -10.628209
v 4.358265 4.709635 -10.634572
v 4.393567 4.695273 -10.634572
v 4.343384 4.673058 -10.645661
v 4.378685 4.658695 -10.645661
v 4.400793 4.814166 -10.638219
v 4.391562 4.791478 -10.626113
v 4.378763 4.771406 -10.615402
v 4.366445 4.758331 -10.613694
v 4.378685 4.658695 -10.609649
v 4.393567 4.695273 -10.607784
v 4.406675 4.727494 -10.609803
v 4.418039 4.755426 -10.615402
v 4.426864 4.777116 -10.626113
v 4.436094 4.799804 -10.638219
v 4.362586 4.619125 -10.611699
v 4.362586 4.619125 -10.572090
v 4.327285 4.633488 -10.572090
v 4.327285 4.633488 -10.651308
v 4.362586 4.619125 -10.651308
v 4.350549 4.589537 -10.611699
v 4.350549 4.589537 -10.574732
v 4.315247 4.603899 -10.574732
v 4.315247 4.603899 -10.648667
v 4.350549 4.589537 -10.648667
v 4.293927 4.577257 -10.611699
v 4.338221 4.559236 -10.611699
v 4.338221 4.559236 -10.582536
v 4.296407 4.576248 -10.582536
v 4.296407 4.576248 -10.640863
v 4.338221 4.559236 -10.640863
v 4.291476 4.545469 -10.611699
v 4.326777 4.531107 -10.611699
v 4.331716 4.543246 -10.591313
v 4.296414 4.557608 -10.591313
v 4.296414 4.557608 -10.632085
v 4.331716 4.543246 -10.632085
v 4.396375 4.803308 -10.632425
v 4.431222 4.787828 -10.631829
v 4.328338 4.674073 -10.587109
v 4.338577 4.699241 -10.594528
v 4.357403 4.746807 -10.612726
v 4.347010 4.719968 -10.600238
v 4.337315 4.696138 -10.620255
v 4.344943 4.714889 -10.617112
v 4.327075 4.670969 -10.624998
v 4.316562 4.645129 -10.585528
v 4.316217 4.644282 -10.632342
v 4.306808 4.621154 -10.585874
v 4.308186 4.624540 -10.633866
v 4.295684 4.593812 -10.612186
v 4.300067 4.604585 -10.592938
v 4.300067 4.604585 -10.630179
v 4.347447 4.695633 -10.607383
v 4.330927 4.672690 -10.606555
v 4.337207 4.670464 -10.587109
v 4.347447 4.695633 -10.594528
v 4.366272 4.743198 -10.612726
v 4.355880 4.716360 -10.600238
v 4.346184 4.692529 -10.620255
v 4.353813 4.711281 -10.617112
v 4.335945 4.667361 -10.624998
v 4.319725 4.645157 -10.609501
v 4.325432 4.641520 -10.585528
v 4.325087 4.640673 -10.632342
v 4.311349 4.624569 -10.610828
v 4.315678 4.617545 -10.585874
v 4.317055 4.620931 -10.633866
v 4.304554 4.590204 -10.612186
v 4.308937 4.600977 -10.592938
v 4.308937 4.600977 -10.630179
vt 0.248696 0.824196
vt 0.248696 0.031853
vt 0.415508 0.824196
vt 0.457204 0.031853
vt 0.248696 0.198666
vt 0.415508 0.198666
vt 0.457204 0.198666
vt 0.040188 0.031853
vt 0.248696 0.407173
vt 0.415508 0.407173
vt 0.624016 0.198666
vt 0.624016 0.031853
vt 0.415508 0.657384
vt 0.248696 0.615685
vt 0.415508 0.615685
vt 0.415508 0.031853
vt 0.248696 0.240361
vt 0.415508 0.240361
vt 0.248696 0.448872
vt 0.415508 0.448872
vt 0.248696 0.657384
vt 0.207000 0.031853
vt 0.207000 0.198666
vt 0.040188 0.198666
vt 0.227847 0.831336
vt 0.214139 0.011004
vt 0.241557 0.011004
vt 0.241557 0.845043
vt 0.227847 0.031202
vt 0.450065 0.011004
vt 0.436357 0.831336
vt 0.436356 0.031202
vt 0.422647 0.845043
vt 0.422647 0.011004
vt 0.214139 0.219514
vt 0.227847 0.233222
vt 0.227847 0.199317
vt 0.248045 0.219514
vt 0.436357 0.233222
vt 0.450065 0.219514
vt 0.416159 0.219514
vt 0.436356 0.199317
vt 0.019337 0.205805
vt 0.227847 0.441733
vt 0.227847 0.414315
vt 0.033046 0.219514
vt 0.248044 0.428022
vt 0.436357 0.441733
vt 0.644867 0.205805
vt 0.416159 0.428022
vt 0.631158 0.219514
vt 0.436357 0.414315
vt 0.033046 0.011004
vt 0.227847 0.650243
vt 0.227847 0.622825
vt 0.019337 0.024713
vt 0.248044 0.636535
vt 0.436357 0.650243
vt 0.631158 0.011004
vt 0.416159 0.636535
vt 0.644867 0.024713
vt 0.436357 0.622825
vt 0.227847 0.845043
vt 0.227847 0.011004
vt 0.436357 0.011004
vt 0.436357 0.845043
vt 0.227847 0.219514
vt 0.436357 0.219514
vt 0.019337 0.219514
vt 0.227847 0.428024
vt 0.436357 0.428024
vt 0.644867 0.219514
vt 0.019337 0.011004
vt 0.227847 0.636534
vt 0.436357 0.636534
vt 0.644867 0.011004
vt 0.206623 0.539114
vt 0.983347 0.462090
vt 0.835686 0.631288
vt 0.193300 0.627877
vt 0.811208 0.728685
vt 0.173323 0.707235
vt 0.774405 0.812750
vt 0.138091 0.774550
vt 0.735599 0.877783
vt 0.106591 0.827379
vt 0.717337 0.910860
vt 0.093482 0.855179
vt 0.692494 0.945752
vt 0.870055 0.872999
vt 0.080353 0.857463
vt 0.701060 0.911641
vt 0.709843 0.877172
vt 0.085742 0.829573
vt 0.717004 0.811388
vt 0.087278 0.777719
vt 0.711245 0.726314
vt 0.070540 0.711415
vt 0.690210 0.627836
vt 0.051931 0.634233
vt 0.655834 0.515797
vt 0.024455 0.546774
vt 0.098354 0.233598
vt 0.983349 0.038960
vt 0.983348 0.088185
vt 0.145581 0.259604
vt 0.753622 0.518116
vt 0.762949 0.629562
vt 0.761223 0.727499
vt 0.749276 0.812154
vt 0.722721 0.877478
vt 0.708448 0.909713
vt 0.553137 0.670116
vt 0.552724 0.609144
vt 0.598781 0.608998
vt 0.583188 0.669726
vt 0.548628 0.763525
vt 0.571477 0.718119
vt 0.115279 0.773518
vt 0.116059 0.733682
vt 0.096178 0.828395
vt 0.085199 0.857985
vt 0.522940 0.664446
vt 0.533418 0.708253
vt 0.507813 0.603914
vt 0.870059 0.066377
vt 0.679240 0.165294
vt 0.983346 0.338001
vt 0.743441 0.397550
vt 0.207095 0.443231
vt 0.546464 0.545312
vt 0.603405 0.539292
vt 0.635888 0.394998
vt 0.007596 0.451370
vt 0.492625 0.538700
vt 0.983347 0.243183
vt 0.739992 0.307495
vt 0.197403 0.371261
vt 0.543498 0.499209
vt 0.597812 0.480929
vt 0.639609 0.305114
vt 0.010519 0.378766
vt 0.490851 0.491621
vt 0.983347 0.143356
vt 0.736459 0.215273
vt 0.166105 0.300691
vt 0.538456 0.426322
vt 0.578614 0.445064
vt 0.657269 0.213394
vt 0.035792 0.305601
vt 0.502683 0.447773
vt 0.101011 0.303902
vt 0.604174 0.675293
vt 0.619925 0.611578
vt 0.591664 0.728608
vt 0.546500 0.780593
vt 0.512115 0.716262
vt 0.501832 0.669616
vt 0.486779 0.607922
vt 0.624844 0.537526
vt 0.471543 0.539814
vt 0.617170 0.472567
vt 0.470513 0.487110
vt 0.590683 0.428334
vt 0.536013 0.406818
vt 0.487643 0.434901
vt 0.062469 0.367465
vt 0.101344 0.340713
vt 0.056104 0.415018
vt 0.160805 0.403543
vt 0.144856 0.364497
vt 0.060841 0.461844
vt 0.164106 0.460092
vt 0.078912 0.525032
vt 0.162985 0.528784
vt 0.092270 0.584689
vt 0.101651 0.628853
vt 0.116652 0.702286
vt 0.140143 0.638766
vt 0.150128 0.589170
vt 0.053207 0.263081
vt 0.870059 0.038960
vt 0.849159 0.112159
vt 0.870059 0.088184
vt 0.849159 0.143355
vt 0.870057 0.203637
vt 0.870057 0.243182
vt 0.870057 0.295630
vt 0.870057 0.338001
vt 0.870057 0.423566
vt 0.870057 0.462090
vt 0.075119 0.885109
vt 0.870055 0.839323
vt 0.870057 0.544963
vt 0.870056 0.650083
vt 0.870055 0.738753
vt 0.870055 0.805315
vt 0.870055 0.841325
vt 0.870055 0.810388
vt 0.870055 0.750059
vt 0.870056 0.669773
vt 0.870057 0.573618
vt 0.983347 0.112159
vt 0.815650 0.217151
vt 0.983347 0.203638
vt 0.840373 0.309876
vt 0.983346 0.295630
vt 0.850995 0.400101
vt 0.983347 0.423566
vt 0.851414 0.520436
vt 0.983344 0.872999
vt 0.983344 0.839323
vt 0.983346 0.544964
vt 0.983345 0.650083
vt 0.983345 0.738754
vt 0.983345 0.805315
vt 0.983344 0.841326
vt 0.983345 0.810388
vt 0.983345 0.750060
vt 0.983345 0.669773
vt 0.983346 0.573619
vt 0.983348 0.066378
vt 0.733181 0.129660
vt 0.789951 0.167920
vn -0.406740 -0.912958 0.032710
vn -0.700634 -0.713205 0.021207
vn -0.700636 -0.713204 -0.021208
vn -0.406743 -0.912957 -0.032710
vn -0.999768 -0.003767 0.021204
vn -0.937612 0.346143 0.032712
vn -0.937611 0.346143 -0.032711
vn -0.999768 -0.003767 -0.021205
vn -0.042629 -0.017974 0.998929
vn -0.162944 -0.344225 0.924640
vn -0.123654 -0.360211 0.924639
vn 0.017972 -0.042630 0.998929
vn -0.368080 -0.848507 0.380202
vn -0.346144 -0.937611 0.032710
vn -0.328796 -0.864487 0.380204
vn -0.864473 0.328810 0.380223
vn -0.848490 0.368093 0.380226
vn -0.912958 0.406740 0.032712
vn -0.360189 0.123649 0.924649
vn -0.017972 0.042630 0.998929
vn -0.344207 0.162946 0.924646
vn 0.912957 -0.406744 0.032712
vn 0.713193 -0.700646 0.021205
vn 0.713191 -0.700648 -0.021205
vn 0.912956 -0.406744 -0.032713
vn 0.003716 -0.999768 0.021208
vn -0.346147 -0.937610 -0.032710
vn 0.003716 -0.999768 -0.021209
vn 0.344210 -0.162945 0.924645
vn 0.360197 -0.123651 0.924645
vn 0.042629 0.017973 0.998929
vn 0.848491 -0.368094 0.380223
vn 0.937612 -0.346142 0.032712
vn 0.864473 -0.328811 0.380225
vn -0.713224 0.700615 0.021208
vn -0.713222 0.700617 -0.021208
vn -0.912958 0.406741 -0.032711
vn -0.003717 0.999768 0.021208
vn 0.346145 0.937611 0.032711
vn 0.346145 0.937611 -0.032711
vn -0.003717 0.999768 -0.021209
vn 0.328810 0.864475 0.380219
vn 0.368096 0.848492 0.380219
vn 0.406742 0.912957 0.032711
vn 0.123654 0.360204 0.924642
vn 0.162944 0.344219 0.924642
vn 0.700634 0.713205 0.021209
vn 0.700636 0.713204 -0.021209
vn 0.406743 0.912957 -0.032712
vn 0.999768 0.003765 0.021205
vn 0.937611 -0.346143 -0.032713
vn 0.999768 0.003764 -0.021205
vn -0.848476 0.368095 -0.380257
vn -0.864460 0.328806 -0.380256
vn -0.344207 0.162941 -0.924647
vn -0.017981 0.042630 -0.998929
vn -0.042635 -0.017974 -0.998929
vn -0.360192 0.123652 -0.924647
vn 0.123634 0.360201 -0.924646
vn 0.162928 0.344219 -0.924645
vn 0.042621 0.017973 -0.998930
vn 0.328812 0.864463 -0.380246
vn 0.368103 0.848477 -0.380245
vn 0.360200 -0.123653 -0.924644
vn 0.344212 -0.162941 -0.924645
vn 0.017967 -0.042631 -0.998929
vn 0.864459 -0.328809 -0.380256
vn 0.848476 -0.368095 -0.380255
vn -0.368106 -0.848485 -0.380226
vn -0.328816 -0.864469 -0.380228
vn -0.162931 -0.344232 -0.924639
vn -0.123635 -0.360215 -0.924640
vn -0.945045 0.033291 0.325240
vn -0.635900 -0.699885 0.325258
vn -0.423844 -0.178747 0.887922
vn -0.033329 -0.945024 0.325299
vn 0.699896 -0.635894 0.325246
vn 0.178733 -0.423903 0.887897
vn 0.033308 0.945029 0.325285
vn -0.699895 0.635873 0.325289
vn -0.178730 0.423932 0.887883
vn 0.945037 -0.033311 0.325262
vn 0.635892 0.699877 0.325290
vn 0.423922 0.178759 0.887883
vn -0.178735 0.423881 -0.887907
vn -0.699866 0.635894 -0.325309
vn 0.033310 0.945022 -0.325306
vn 0.945029 -0.033331 -0.325283
vn 0.423979 0.178726 -0.887862
vn 0.635914 0.699856 -0.325292
vn -0.635922 -0.699856 -0.325278
vn -0.945030 0.033296 -0.325284
vn -0.423905 -0.178716 -0.887900
vn 0.699862 -0.635917 -0.325272
vn -0.033330 -0.945019 -0.325312
vn 0.178772 -0.423849 -0.887915
vn 0.069069 0.169772 0.983060
vn 0.069069 0.169772 0.983060
vn 0.087641 0.215419 0.972581
vn 0.087641 0.215419 0.972581
vn 0.136091 0.334520 0.932510
vn 0.136092 0.334521 0.932510
vn 0.184006 0.452293 0.872681
vn 0.184006 0.452293 0.872681
vn 0.201998 0.496489 0.844213
vn 0.201998 0.496489 0.844213
vn 0.195096 0.479502 0.855579
vn 0.195096 0.479502 0.855579
vn 0.229167 0.563290 0.793843
vn 0.229167 0.563290 0.793843
vn 0.375924 0.924090 0.068842
vn 0.375924 0.924089 0.068851
vn -0.109096 -0.268183 -0.957171
vn -0.109096 -0.268183 -0.957171
vn -0.075358 -0.185253 -0.979797
vn -0.075358 -0.185253 -0.979797
vn -0.018581 -0.045703 -0.998782
vn -0.018581 -0.045703 -0.998782
vn 0.042026 0.103263 -0.993766
vn 0.042025 0.103263 -0.993766
vn 0.086195 0.211878 -0.973488
vn 0.086195 0.211878 -0.973488
vn 0.101865 0.250432 -0.962760
vn 0.101865 0.250432 -0.962760
vn -0.376845 -0.926276 0.000000
vn -0.376845 -0.926276 0.000000
vn -0.317001 -0.779160 0.540758
vn -0.317001 -0.779160 0.540758
vn 0.926273 -0.376853 0.000000
vn 0.926275 -0.376847 0.000000
vn 0.926276 -0.376847 0.000000
vn 0.926275 -0.376849 0.000000
vn 0.926278 -0.376842 0.000000
vn 0.926282 -0.376832 0.000000
vn 0.926275 -0.376848 0.000000
vn 0.926288 -0.376817 0.000000
vn 0.926280 -0.376836 0.000000
vn 0.926267 -0.376868 0.000000
vn 0.926306 -0.376771 0.000032
vn 0.926306 -0.376771 0.000034
vn 0.926327 -0.376721 0.000105
vn -0.897016 0.441994 0.001641
vn -0.896595 0.442524 0.017001
vn -0.874986 0.408117 0.260460
vn -0.880383 0.456257 0.129441
vn -0.928349 0.371691 0.003683
vn -0.927878 0.372617 0.014124
vn -0.827674 0.561181 0.005643
vn -0.814076 0.580527 -0.016432
vn -0.649132 0.511409 0.563107
vn -0.668622 0.577404 0.468561
vn -0.894195 0.443885 -0.058150
vn -0.792796 0.554805 0.252322
vn -0.926260 0.376885 0.000066
vn -0.926274 0.376852 0.000013
vn -0.926269 0.376862 0.000020
vn -0.926300 0.376786 -0.000066
vn -0.803778 0.406151 -0.434720
vn -0.904815 0.378653 -0.194759
vn -0.663738 0.382910 -0.642520
vn -0.874799 0.454950 -0.166577
vn -0.928878 0.370175 -0.012511
vn -0.853960 0.433324 -0.288065
vn -0.316988 -0.779168 -0.540755
vn -0.316988 -0.779168 -0.540755
vn 0.926278 -0.376842 0.000000
vn 0.926277 -0.376845 0.000000
vn 0.926271 -0.376858 0.000000
vn 0.926271 -0.376859 0.000000
vn 0.926285 -0.376824 0.000000
vn 0.926302 -0.376783 0.000000
vn -0.107877 -0.265125 -0.958160
vn -0.107877 -0.265125 -0.958160
vn 0.926274 -0.376851 0.000000
vn 0.926274 -0.376851 0.000000
vn 0.926274 -0.376851 0.000000
vn 0.926274 -0.376851 0.000000
vn 0.013628 0.033477 0.999347
vn 0.013628 0.033477 0.999347
vn 0.013628 0.033477 0.999347
vn 0.013628 0.033477 0.999347
vn -0.920240 0.391337 0.003793
vn -0.892790 0.354810 0.277554
vn 0.049378 0.121380 -0.991377
vn 0.049378 0.121380 -0.991377
vn 0.049378 0.121380 -0.991377
vn 0.049378 0.121380 -0.991377
vn 0.926276 -0.376847 0.000000
vn 0.926276 -0.376847 0.000000
vn 0.926276 -0.376847 0.000000
vn 0.926276 -0.376847 0.000000
vn -0.871097 0.392527 -0.295149
vn 0.926273 -0.376852 0.000000
vn 0.926273 -0.376852 0.000000
vn 0.926274 -0.376852 0.000000
vn 0.926273 -0.376852 0.000000
vn -0.031057 -0.076343 0.996598
vn -0.031057 -0.076343 0.996598
vn -0.031057 -0.076343 0.996598
vn -0.031057 -0.076343 0.996598
vn -0.948262 0.317485 0.001779
vn -0.930667 0.294016 0.217748
vn -0.031058 -0.076316 -0.996600
vn -0.031058 -0.076316 -0.996600
vn -0.031058 -0.076316 -0.996600
vn -0.031058 -0.076316 -0.996600
vn 0.926273 -0.376853 0.000000
vn 0.926273 -0.376853 0.000000
vn 0.926273 -0.376853 0.000000
vn 0.926273 -0.376853 0.000000
vn -0.920881 0.312783 -0.232689
vn 0.926277 -0.376845 0.000000
vn 0.926277 -0.376845 0.000000
vn 0.926276 -0.376845 0.000000
vn 0.926277 -0.376845 0.000000
vn -0.087453 -0.214938 0.972704
vn -0.087453 -0.214938 0.972704
vn -0.087453 -0.214938 0.972704
vn -0.087453 -0.214938 0.972704
vn -0.969679 0.243930 -0.014874
vn -0.959032 0.226799 0.169766
vn -0.087452 -0.214964 -0.972699
vn -0.087452 -0.214964 -0.972699
vn -0.087452 -0.214964 -0.972699
vn -0.087452 -0.214964 -0.972699
vn 0.926274 -0.376851 0.000000
vn 0.926274 -0.376851 0.000000
vn 0.926274 -0.376851 0.000000
vn 0.926274 -0.376851 0.000000
vn -0.948897 0.252403 -0.189437
vn 0.926284 -0.376827 0.000000
vn 0.926284 -0.376827 0.000000
vn 0.926284 -0.376827 0.000000
vn 0.926284 -0.376827 0.000000
vn -0.170818 -0.419836 0.891381
vn -0.170818 -0.419836 0.891380
vn -0.170818 -0.419836 0.891381
vn -0.170818 -0.419836 0.891380
vn -0.961880 0.117674 0.246860
vn -0.996461 0.084054 0.001015
vn -0.989458 0.023065 0.142971
vn -0.989458 0.023065 0.142971
vn -0.170819 -0.419838 -0.891379
vn -0.170819 -0.419838 -0.891379
vn -0.170819 -0.419838 -0.891379
vn -0.170819 -0.419838 -0.891379
vn 0.926287 -0.376818 0.000000
vn 0.926287 -0.376818 0.000000
vn 0.926287 -0.376818 0.000000
vn 0.926287 -0.376818 0.000000
vn -0.957323 0.132519 -0.256851
vn -0.989457 0.023066 -0.142976
vn -0.989457 0.023066 -0.142976
vn -0.625437 0.356921 0.693856
vn -0.638060 0.437605 0.633547
vn -0.631816 0.424835 0.648324
vn -0.625029 0.345377 0.700039
vn -0.646469 0.466869 0.603416
vn -0.818993 0.570547 -0.061041
vn -0.665116 0.386810 -0.638748
vn -0.685388 0.406327 -0.604270
vn -0.699228 0.422334 -0.576814
vn -0.708209 0.417898 -0.569036
vn -0.708462 0.415236 -0.570667
vn -0.627056 0.248178 0.738382
vn -0.624961 0.262804 0.735090
vn -0.714221 0.341640 -0.610877
vn -0.712823 0.365391 -0.598643
vn -0.707170 0.218602 0.672401
vn -0.673619 0.217383 0.706387
vn -0.731577 0.271991 -0.625153
vn -0.722957 0.274471 -0.634033
vn -0.871406 0.198988 0.448393
vn -0.989317 0.145761 -0.002309
vn -0.852789 0.236537 -0.465619
vn -0.099280 -0.244001 -0.964680
vn -0.099280 -0.244001 -0.964680
vn -0.099280 -0.244001 -0.964680
vn -0.099280 -0.244001 -0.964680
vn -0.093141 -0.228995 -0.968961
vn -0.093141 -0.228995 -0.968961
vn -0.093141 -0.228995 -0.968961
vn -0.093141 -0.228995 -0.968961
vn -0.149993 -0.368745 -0.917349
vn -0.149993 -0.368745 -0.917349
vn -0.149993 -0.368745 -0.917349
vn -0.149993 -0.368745 -0.917349
vn -0.047828 -0.117632 0.991905
vn -0.047828 -0.117632 0.991905
vn -0.047828 -0.117632 0.991905
vn -0.047828 -0.117632 0.991905
vn -0.057822 -0.142078 0.988165
vn -0.057822 -0.142078 0.988165
vn -0.057822 -0.142078 0.988165
vn -0.057822 -0.142078 0.988165
vn -0.064782 -0.159297 0.985103
vn -0.064782 -0.159297 0.985103
vn -0.064782 -0.159297 0.985103
vn -0.064782 -0.159297 0.985103
vn -0.018975 -0.046780 -0.998725
vn -0.018975 -0.046780 -0.998725
vn -0.018975 -0.046780 -0.998725
vn -0.018975 -0.046780 -0.998725
vn -0.093046 -0.228800 0.969017
vn -0.093046 -0.228800 0.969017
vn -0.093046 -0.228800 0.969017
vn -0.093046 -0.228800 0.969017
vn 0.005050 0.012354 -0.999911
vn 0.005050 0.012354 -0.999911
vn 0.005050 0.012354 -0.999911
vn 0.005050 0.012354 -0.999911
vn -0.026965 -0.066062 0.997451
vn -0.026965 -0.066062 0.997451
vn -0.026965 -0.066062 0.997451
vn -0.026965 -0.066062 0.997451
vn 0.322547 0.792789 -0.517155
vn 0.322547 0.792789 -0.517155
vn 0.322547 0.792789 -0.517155
vn 0.322547 0.792789 -0.517155
vn 0.138414 0.340239 -0.930096
vn 0.138414 0.340239 -0.930096
vn 0.138414 0.340239 -0.930096
vn 0.138414 0.340239 -0.930096
vn 0.063634 0.156299 0.985658
vn 0.063634 0.156299 0.985658
vn 0.063634 0.156299 0.985658
vn 0.063634 0.156299 0.985658
vn 0.316430 0.777917 0.542879
vn 0.316430 0.777917 0.542879
vn 0.316430 0.777917 0.542879
vn 0.316430 0.777917 0.542879
s 1
g pCube32
usemtl pasted__standardSurface1SG1
f 2/1/1 1/25/2 37/54/3 42/21/4
s 2
f 1/26/5 6/22/6 38/8/7 37/53/8
s 3
f 4/2/9 3/27/10 11/34/11 10/16/12
s 1
f 3/28/13 2/1/1 12/3/14 11/33/15
s 2
f 6/22/6 5/29/16 15/37/17 14/23/18
s 3
f 5/29/19 4/2/9 16/5/20 15/37/21
s 4
f 8/4/22 7/30/23 43/59/24 48/12/25
s 1
f 7/31/26 12/3/14 44/13/27 43/58/28
s 3
f 10/16/12 9/32/29 23/42/30 22/6/31
s 4
f 9/32/32 8/4/22 24/7/33 23/42/34
s 2
f 14/23/18 13/35/35 27/46/36 26/24/37
s 5
f 13/36/38 18/17/39 28/9/40 27/45/41
f 18/17/39 17/38/42 21/41/43 20/18/44
s 3
f 17/38/45 16/5/20 22/6/31 21/41/46
s 5
f 20/18/44 19/39/47 35/52/48 34/10/49
s 4
f 19/40/50 24/7/33 36/11/51 35/51/52
s 2
f 26/24/37 25/43/53 39/56/54 38/8/7
s 6
f 25/44/55 30/19/56 40/14/57 39/55/58
f 30/19/56 29/47/59 33/50/60 32/20/61
s 5
f 29/47/62 28/9/40 34/10/49 33/50/63
s 6
f 32/20/61 31/48/64 47/62/65 46/15/66
s 4
f 31/49/67 36/11/51 48/12/25 47/61/68
s 1
f 42/21/4 41/57/69 45/60/70 44/13/27
s 6
f 41/57/71 40/14/57 46/15/66 45/60/72
s 3
f 4/2/9 10/16/12 22/6/31 16/5/20
s 5
f 18/17/39 20/18/44 34/10/49 28/9/40
s 6
f 30/19/56 32/20/61 46/15/66 40/14/57
s 1
f 42/21/4 44/13/27 12/3/14 2/1/1
s 4
f 8/4/22 48/12/25 36/11/51 24/7/33
s 2
f 38/8/7 6/22/6 14/23/18 26/24/37
f 5/29/16 6/22/6 1/26/5 49/64/73
s 1
f 1/25/2 2/1/1 3/28/13 49/63/74
s 3
f 3/27/10 4/2/9 5/29/19 49/64/75
s 1
f 11/33/15 12/3/14 7/31/26 50/66/76
s 4
f 7/30/23 8/4/22 9/32/32 50/65/77
s 3
f 9/32/29 10/16/12 11/34/11 50/65/78
s 5
f 17/38/42 18/17/39 13/36/38 51/67/79
s 2
f 13/35/35 14/23/18 15/37/17 51/67/80
s 3
f 15/37/21 16/5/20 17/38/45 51/67/81
s 4
f 23/42/34 24/7/33 19/40/50 52/68/82
s 5
f 19/39/47 20/18/44 21/41/43 52/68/83
s 3
f 21/41/46 22/6/31 23/42/30 52/68/84
s 6
f 29/47/59 30/19/56 25/44/55 53/70/85
s 2
f 25/43/53 26/24/37 27/46/36 53/69/86
s 5
f 27/45/41 28/9/40 29/47/62 53/70/87
s 4
f 35/51/52 36/11/51 31/49/67 54/72/88
s 6
f 31/48/64 32/20/61 33/50/60 54/71/89
s 5
f 33/50/63 34/10/49 35/52/48 54/71/90
s 1
f 41/57/69 42/21/4 37/54/3 55/74/91
s 2
f 37/53/8 38/8/7 39/56/54 55/73/92
s 6
f 39/55/58 40/14/57 41/57/71 55/74/93
s 4
f 47/61/68 48/12/25 43/59/24 56/76/94
s 1
f 43/58/28 44/13/27 45/60/70 56/75/95
s 6
f 45/60/72 46/15/66 47/62/65 56/75/96
s 7
f 57/191/97 58/78/98 60/221/99 59/202/100
f 59/202/100 60/221/99 62/220/101 61/201/102
f 61/201/102 62/220/101 64/219/103 63/200/104
f 63/200/104 64/219/103 66/218/105 65/199/106
f 65/199/106 66/218/105 68/217/107 67/198/108
s 8
f 67/198/109 68/217/110 90/211/111 81/90/112
s 9
f 69/193/113 70/212/114 72/216/115 71/197/116
f 71/197/116 72/216/115 74/215/117 73/196/118
f 73/196/118 74/215/117 76/214/119 75/195/120
f 75/195/120 76/214/119 78/213/121 77/194/122
f 77/194/122 78/213/121 80/209/123 79/190/124
s 10
f 107/182/125 108/104/126 109/105/127 110/184/128
s 11
f 58/210/129 85/107/130 86/108/131 60/79/132
f 60/79/132 86/108/131 87/109/133 62/81/134
f 62/81/134 87/109/133 88/110/135 64/83/136
f 64/83/136 88/110/135 89/111/137 66/85/138
f 68/87/139 114/112/140 90/89/141
s 12
f 129/113/142 130/114/143 131/115/144 132/116/145
f 133/117/146 129/113/142 132/116/145 134/118/147
s 13
f 83/119/148 84/120/149 61/82/150 63/84/151
f 82/121/152 83/119/148 63/84/151 65/86/153
f 81/192/154 113/122/155 67/88/156
f 69/91/157 113/122/155 81/192/154
f 73/96/158 83/119/148 82/121/152 71/94/159
f 75/98/160 84/120/149 83/119/148 73/96/158
s 12
f 135/123/161 129/113/142 133/117/146 136/124/162
f 137/125/163 130/114/143 129/113/142 135/123/161
s 10
f 111/126/164 112/222/165 108/104/126 107/182/125
s 11
f 86/108/131 85/107/130 80/101/166 78/99/167
f 87/109/133 86/108/131 78/99/167 76/97/168
f 88/110/135 87/109/133 76/97/168 74/95/169
f 89/111/137 88/110/135 74/95/169 72/93/170
f 90/89/141 114/112/140 70/92/171
s 8
f 81/90/112 90/211/111 70/212/172 69/193/173
s off
f 85/107/174 58/210/175 92/208/176 91/129/177
f 58/78/178 57/191/179 93/189/180 92/128/181
s 12
f 131/115/144 130/114/143 138/131/182 139/132/183
s off
f 79/190/184 80/209/185 95/207/186 94/188/187
f 80/101/188 85/107/189 91/129/190 95/133/191
s 12
f 130/114/143 137/125/163 140/135/192 138/131/182
s off
f 91/129/193 92/208/194 97/206/195 96/137/196
f 92/128/197 93/189/198 98/187/199 97/136/200
s 12
f 139/132/183 138/131/182 141/139/201 142/140/202
s off
f 94/188/203 95/207/204 100/205/205 99/186/206
f 95/133/207 91/129/208 96/137/209 100/141/210
s 12
f 138/131/182 140/135/192 143/143/211 141/139/201
s off
f 96/137/212 97/206/213 103/204/214 102/145/215
f 97/136/216 98/187/217 104/185/218 103/144/219
s 12
f 142/140/202 141/139/201 144/147/220 145/148/221
s off
f 99/186/222 100/205/223 106/203/224 105/183/225
f 100/141/226 96/137/227 102/145/228 106/149/229
s 12
f 141/139/201 143/143/211 146/151/230 144/147/220
s off
f 102/145/231 103/204/232 109/224/233 108/223/234
f 103/144/235 104/185/236 110/184/237 109/105/238
s 13
f 104/146/239 101/152/240 107/103/241 110/106/242
s off
f 105/183/243 106/203/244 112/222/245 111/126/246
f 106/149/247 102/145/248 108/223/249 112/127/250
s 13
f 101/152/240 105/150/251 111/181/252 107/103/253
f 71/94/159 82/121/152 113/122/155 69/91/157
f 67/88/156 113/122/155 82/121/152 65/86/153
s 11
f 66/85/138 89/111/137 114/112/140 68/87/139
f 70/92/171 114/112/140 89/111/137 72/93/170
s 13
f 57/77/254 59/80/255 116/180/256 115/175/257
f 59/80/255 61/82/150 118/179/258 116/180/256
f 61/82/150 84/120/149 117/178/259 118/179/258
f 84/120/149 75/98/160 120/177/260 117/178/259
f 75/98/160 77/100/261 119/176/262 120/177/260
f 77/100/261 79/102/263 121/174/264 119/176/262
f 93/130/265 57/77/254 115/175/257 122/173/266
f 79/102/263 94/134/267 123/172/268 121/174/264
f 98/138/269 93/130/265 122/173/266 124/170/270
f 94/134/267 99/142/271 125/169/272 123/172/268
f 101/152/240 104/146/239 127/171/273 126/168/274
f 104/146/239 98/138/269 124/170/270 127/171/273
f 99/142/271 105/150/251 128/167/275 125/169/272
f 105/150/251 101/152/240 126/168/274 128/167/275
s off
f 115/154/276 116/153/277 132/116/278 131/115/279
f 116/153/280 118/155/281 134/118/282 132/116/283
f 118/155/284 117/156/285 133/117/286 134/118/287
f 117/156/288 120/157/289 136/124/290 133/117/291
f 120/157/292 119/158/293 135/123/294 136/124/295
f 119/158/296 121/159/297 137/125/298 135/123/299
f 122/160/300 115/154/301 131/115/302 139/132/303
f 121/159/304 123/161/305 140/135/306 137/125/307
f 124/162/308 122/160/309 139/132/310 142/140/311
f 123/161/312 125/163/313 143/143/314 140/135/315
f 126/165/316 127/164/317 145/148/318 144/147/319
f 127/164/320 124/162/321 142/140/322 145/148/323
f 125/163/324 128/166/325 146/151/326 143/143/327
f 128/166/328 126/165/329 144/147/330 146/151/331
