# This file uses centimeters as units for non-parametric coordinates.

mtllib Ground_Icon.mtl
g default
v 4.290876 4.643280 -9.453972
v 4.344051 4.614910 -9.494925
v 4.396101 4.572891 -9.419145
v 4.407835 4.548865 -9.283695
v 4.370415 4.560923 -9.190573
v 4.312019 4.599986 -9.209900
v 4.302703 4.620604 -9.336110
v 4.284451 4.598151 -9.407119
v 4.323400 4.579097 -9.451164
v 4.362643 4.547418 -9.394030
v 4.371490 4.529303 -9.291910
v 4.344519 4.535852 -9.207366
v 4.300493 4.565303 -9.221937
v 4.290314 4.585674 -9.337448
v 4.270934 4.551094 -9.386209
v 4.301000 4.535051 -9.409367
v 4.329292 4.513628 -9.379686
v 4.335927 4.500043 -9.303096
v 4.316009 4.504318 -9.236103
v 4.282990 4.526407 -9.247031
v 4.271752 4.544659 -9.338058
v 4.255092 4.508793 -9.392115
v 4.275072 4.498233 -9.408311
v 4.294878 4.482017 -9.377622
v 4.299596 4.472356 -9.323158
v 4.285673 4.476525 -9.285931
v 4.263594 4.491385 -9.293974
v 4.253078 4.503875 -9.341830
v 4.240924 4.463069 -9.378718
v 4.250946 4.457721 -9.386436
v 4.260758 4.449801 -9.372153
v 4.262969 4.445273 -9.346624
v 4.255916 4.447546 -9.329071
v 4.244909 4.454909 -9.332715
v 4.233685 4.464570 -9.353927
v 4.217949 4.429023 -9.358868
v 4.291985 4.630570 -9.435694
v 4.302055 4.612041 -9.336465
v 4.310316 4.593033 -9.224077
v 4.360946 4.559165 -9.207320
v 4.393390 4.548709 -9.288060
v 4.383217 4.569541 -9.405499
v 4.338087 4.605972 -9.471202
v 4.270829 4.635954 -9.362249
v 4.272987 4.626835 -9.359839
v 4.264526 4.598344 -9.358460
v 4.251359 4.553946 -9.360967
v 4.238515 4.508886 -9.359741
v 4.225442 4.463761 -9.361674
v 4.275532 4.628027 -9.306261
v 4.277862 4.616854 -9.303570
v 4.268764 4.589664 -9.309528
v 4.255191 4.546099 -9.316729
v 4.240207 4.504437 -9.341185
v 4.226769 4.462126 -9.345271
v 4.406360 4.589929 -9.423139
v 4.419115 4.563811 -9.275895
v 4.318482 4.617253 -9.196357
v 4.279791 4.647378 -9.301256
v 4.380006 4.575971 -9.174969
v 4.351345 4.634658 -9.505821
v 4.295498 4.664316 -9.461680
v 4.274685 4.655994 -9.362051
v 4.305267 4.629620 -9.335748
v 4.421903 4.607962 -9.416625
v 4.339475 4.653835 -9.335499
v 4.434891 4.586785 -9.277516
v 4.336813 4.639114 -9.201978
v 4.295347 4.658519 -9.301672
v 4.396588 4.599129 -9.182194
v 4.351361 4.642461 -9.486819
v 4.301277 4.665474 -9.453763
v 4.284840 4.664751 -9.358279
v 4.303846 4.656156 -9.334482
vt 0.193324 0.370650
vt 0.400363 0.348721
vt 0.414737 0.375972
vt 0.185764 0.400656
vt 0.659010 0.822310
vt 0.855344 0.789253
vt 0.879320 0.823727
vt 0.727531 0.441362
vt 0.608105 0.389418
vt 0.042083 0.358017
vt 0.586693 0.816680
vt 0.802788 0.346632
vt 0.693028 0.317660
vt 0.354529 0.286024
vt 0.196168 0.303563
vt 0.060792 0.293651
vt 0.824049 0.717782
vt 0.589121 0.752264
vt 0.836556 0.253418
vt 0.385535 0.192316
vt 0.320470 0.218144
vt 0.202385 0.231630
vt 0.834782 0.599484
vt 0.775210 0.643816
vt 0.590513 0.672416
vt 0.836430 0.169500
vt 0.361492 0.129112
vt 0.304347 0.148484
vt 0.221093 0.158670
vt 0.735403 0.537810
vt 0.694722 0.568632
vt 0.577232 0.592124
vt 0.859540 0.082894
vt 0.309355 0.069930
vt 0.282769 0.080667
vt 0.244500 0.085731
vt 0.645512 0.477555
vt 0.624968 0.491825
vt 0.564974 0.510604
vt 0.558943 0.439149
vt 0.293051 0.556945
vt 0.754956 0.411872
vt 0.971364 0.370458
vt 0.832394 0.771366
vt 0.062599 0.336723
vt 0.196755 0.348544
vt 0.380373 0.328222
vt 0.648486 0.363951
vt 0.895148 0.407256
vt 0.665576 0.859016
vt 0.899648 0.390061
vt 0.898199 0.334624
vt 0.895052 0.249317
vt 0.900759 0.163885
vt 0.900920 0.078261
vt 0.664014 0.802374
vt 0.653727 0.749804
vt 0.639249 0.664164
vt 0.597517 0.580416
vt 0.583424 0.501318
vt 0.398005 0.825140
vt 0.147848 0.775844
vt 0.396857 0.471085
vt 0.571715 0.595525
vt 0.583262 0.748371
vt 0.006214 0.647781
vt 0.048830 0.537253
vt 0.213357 0.457573
vt 0.310250 0.472934
vt 0.386178 0.776268
vt 0.171042 0.742149
vt 0.383106 0.498518
vt 0.528061 0.614875
vt 0.536556 0.727933
vt 0.027785 0.648617
vt 0.065108 0.543437
vt 0.220559 0.472968
vt 0.302400 0.489594
vt 0.585901 0.801943
vt 0.961546 0.321313
vt 0.920639 0.083847
vt 0.943432 0.163035
vt 0.953022 0.242718
vt 0.506933 0.281379
vt 0.464003 0.247203
vt 0.932813 0.702066
vt 0.904331 0.659834
vt 0.216257 0.081334
vt 0.254822 0.011056
vt 0.905842 0.013652
vt 0.835448 0.076301
vt 0.161276 0.153191
vt 0.788140 0.157559
vt 0.096957 0.225560
vt 0.764884 0.233608
vt 0.020129 0.386652
vt 0.713891 0.481003
vt 0.898232 0.444596
vt 0.584743 0.833683
vt 0.595934 0.411659
vt 0.543037 0.298335
vt 0.583144 0.306784
vt 0.966101 0.713419
vt 0.996760 0.743840
vt 0.971316 0.385289
vt 0.974536 0.401904
vt 0.296675 0.474031
vn -0.712933 -0.591646 -0.376406
vn -0.427539 -0.805247 -0.410838
vn -0.354052 -0.737553 -0.575033
vn -0.825198 -0.320802 -0.464902
vn -0.090238 -0.944130 -0.316980
vn 0.285896 -0.877600 -0.384815
vn 0.023627 -0.998811 -0.042642
vn 0.447626 -0.894190 -0.007466
vn -0.285582 -0.922867 0.258380
vn 0.110359 -0.804318 0.583861
vn -0.733902 -0.557309 0.388323
vn -0.827178 -0.003546 0.561929
vn -0.928337 -0.221329 0.298670
vn -0.917864 0.100978 0.383835
vn -0.618602 0.038394 0.784766
vn -0.618602 0.038394 0.784766
vn -0.578030 0.145311 0.802974
vn -0.562169 0.181893 0.806772
vn -0.845266 -0.053093 -0.531701
vn -0.210382 -0.566457 -0.796785
vn -0.112897 -0.462646 -0.879325
vn -0.774353 0.097517 -0.625194
vn 0.544370 -0.737101 -0.400428
vn 0.579876 -0.719087 -0.382959
vn 0.667487 -0.743957 0.031457
vn 0.614744 -0.788518 0.018132
vn 0.289646 -0.614784 0.733584
vn 0.152700 -0.804530 0.573946
vn -0.716037 0.087941 0.692501
vn -0.809013 -0.091323 0.580652
vn -0.888937 0.220889 0.401247
vn -0.909136 0.111917 0.401182
vn -0.595232 0.205582 0.776810
vn -0.586039 0.206215 0.783603
vn -0.650791 0.215800 0.727943
vn -0.658234 0.219010 0.720252
vn 0.037193 -0.258722 -0.965235
vn -0.688525 0.219782 -0.691107
vn 0.615600 -0.675759 -0.405446
vn 0.590058 -0.807355 0.003174
vn 0.040996 -0.865409 0.499387
vn -0.818759 -0.172987 0.547457
vn -0.879451 0.026158 0.475270
vn -0.705155 0.213423 0.676171
vn -0.705716 0.212051 0.676017
vn 0.011533 -0.512035 -0.858887
vn -0.743857 0.079840 -0.663552
vn 0.545092 -0.745786 -0.382986
vn 0.557146 -0.830028 -0.025325
vn 0.045241 -0.845726 0.531696
vn -0.719595 -0.173414 0.672391
vn -0.787016 -0.011157 0.616831
vn -0.714875 0.174363 0.677164
vn -0.717418 0.172066 0.675059
vn 0.503412 0.863738 0.023094
vn 0.440566 0.895970 0.056038
vn 0.534544 0.840132 0.091872
vn -0.621850 -0.036463 -0.782287
vn 0.204019 -0.789979 -0.578195
vn 0.379212 -0.904880 -0.193367
vn 0.274120 -0.933529 0.231047
vn -0.483579 -0.319642 0.814850
vn -0.604037 -0.159764 0.780779
vn -0.681072 0.203711 0.703308
vn 0.484724 0.868294 0.105392
vn 0.180687 0.978421 0.100220
vn 0.529058 0.842255 0.103458
vn 0.440810 0.897001 -0.032797
vn 0.356451 0.934026 -0.023204
vn 0.175850 0.983177 0.049384
vn -0.958613 -0.031197 -0.282999
vn -0.904153 -0.357262 -0.234247
vn -0.913354 0.132644 -0.384956
vn -0.843282 0.215353 -0.492442
vn -0.814439 0.239452 -0.528537
vn -0.806271 0.163042 -0.568634
vn -0.761670 0.198161 -0.616920
vn -0.779389 -0.138762 -0.610981
vn -0.779389 -0.138762 -0.610981
vn -0.751293 0.247922 -0.611632
vn -0.724381 0.344912 -0.596915
vn -0.724773 0.343515 -0.597244
vn -0.671517 0.370962 -0.641445
vn -0.656483 0.380493 -0.651349
vn -0.484201 0.418111 -0.768591
vn -0.487509 0.422832 -0.763903
vn -0.542786 0.368460 -0.754732
vn -0.532800 0.366037 -0.762981
vn 0.067737 0.991644 0.109787
vn -0.734083 0.104142 -0.671027
vn -0.765968 0.408115 -0.496725
vn 0.826918 -0.536989 -0.166883
vn 0.826918 -0.536989 -0.166883
vn 0.806836 -0.566493 -0.167632
vn 0.806594 -0.566836 -0.167640
vn -0.925333 0.083631 0.369817
vn -0.925333 0.083631 0.369817
vn -0.778774 0.471575 0.413675
vn -0.806360 0.424315 0.411997
vn 0.629894 -0.700325 0.335825
vn 0.629894 -0.700325 0.335825
vn 0.729798 -0.580965 0.360380
vn 0.738893 -0.568092 0.362366
vn -0.527206 -0.409602 0.744500
vn -0.527206 -0.409602 0.744500
vn -0.303831 0.029013 0.952284
vn -0.316103 0.008875 0.948683
vn 0.544055 -0.524636 -0.654799
vn 0.544055 -0.524636 -0.654799
vn 0.718060 -0.207139 -0.664441
vn 0.706255 -0.236866 -0.667157
vn -0.655866 -0.146199 -0.740585
vn -0.655866 -0.146199 -0.740585
vn -0.480771 0.311437 -0.819675
vn -0.576409 0.111455 -0.809525
vn -0.967316 0.164329 -0.193121
vn -0.967316 0.164329 -0.193121
vn -0.882711 0.441985 -0.159597
vn -0.902372 0.397604 -0.166240
vn -0.592351 0.115486 0.797360
vn -0.592351 0.115486 0.797360
vn -0.622128 0.100515 0.776436
vn -0.645239 0.088436 0.758845
vn -0.681488 0.290963 -0.671502
vn -0.681488 0.290963 -0.671502
vn -0.758973 0.306096 -0.574687
vn -0.734216 0.301537 -0.608279
vn 0.792994 -0.585605 -0.168011
vn 0.792994 -0.585605 -0.168011
vn -0.600847 0.690583 0.402588
vn -0.600847 0.690583 0.402588
vn 0.791770 -0.483903 0.372744
vn 0.791770 -0.483903 0.372744
vn -0.091380 0.338141 0.936648
vn -0.091379 0.338141 0.936649
vn 0.795274 0.109883 -0.596209
vn 0.795274 0.109883 -0.596209
vn 0.201494 0.915521 -0.348168
vn 0.201494 0.915521 -0.348168
vn -0.498151 0.865345 -0.054986
vn -0.498151 0.865345 -0.054986
vn -0.685661 0.066227 0.724902
vn -0.685661 0.066226 0.724902
vn -0.806523 0.313902 -0.500985
vn -0.806523 0.313902 -0.500986
s 1
g pCone1
usemtl pasted__pasted__pasted__standardSurface1SG1
f 1/8/1 2/9/2 43/48/3 37/42/4
f 2/101/2 3/2/5 42/47/6 43/84/3
f 3/2/5 4/1/7 41/46/8 42/47/6
f 4/1/7 5/10/9 40/45/10 41/46/8
f 5/103/9 6/6/11 39/44/12 40/86/10
f 6/6/11 50/5/13 51/56/14 39/44/12
s 2
f 7/105/15 44/49/16 45/51/17 38/43/18
s 1
f 8/12/19 9/13/20 16/95/21 15/19/22
f 9/85/20 10/14/23 17/21/24 16/20/21
f 10/14/23 11/15/25 18/22/26 17/21/24
f 11/15/25 12/16/27 19/94/28 18/22/26
f 12/87/27 13/17/29 20/24/30 19/23/28
f 13/17/29 52/57/31 53/58/32 20/24/30
s 2
f 14/80/33 46/52/34 47/53/35 21/83/36
s 1
f 15/19/22 16/95/21 23/93/37 22/26/38
f 16/20/21 17/21/24 24/28/39 23/27/37
f 17/21/24 18/22/26 25/29/40 24/28/39
f 18/22/26 19/94/28 26/92/41 25/29/40
f 19/23/28 20/24/30 27/31/42 26/30/41
f 20/24/30 53/58/32 54/59/43 27/31/42
s 2
f 21/83/36 47/53/35 48/54/44 28/82/45
s 1
f 22/26/38 23/93/37 30/91/46 29/33/47
f 23/27/37 24/28/39 31/35/48 30/34/46
f 24/28/39 25/29/40 32/36/49 31/35/48
f 25/29/40 26/92/41 33/88/50 32/36/49
f 26/30/41 27/31/42 34/38/51 33/37/50
f 27/31/42 54/59/43 55/60/52 34/38/51
s 2
f 28/82/45 48/54/44 49/55/53 35/81/54
s 3
f 65/71/55 66/41/56 67/70/57
s 1
f 29/33/47 30/91/46 36/90/58
f 30/34/46 31/35/48 36/89/59
f 31/35/48 32/36/49 36/89/60
f 32/36/49 33/88/50 36/89/61
f 33/37/50 34/38/51 36/40/62
f 34/38/51 55/60/52 36/40/63
s 2
f 35/81/54 49/55/53 36/90/64
s 3
f 68/73/65 66/41/56 69/72/66
f 67/70/57 66/41/56 70/74/67
f 70/74/67 66/41/56 68/73/65
f 71/75/68 66/41/56 65/71/55
f 72/76/69 66/41/56 71/75/68
f 72/76/69 73/77/70 66/41/56
s 2
f 38/43/18 45/51/17 46/52/34 14/80/33
s 1
f 39/44/12 51/56/14 52/57/31 13/17/29
f 40/86/10 39/44/12 13/17/29 12/87/27
f 41/46/8 40/45/10 12/16/27 11/15/25
f 42/47/6 41/46/8 11/15/25 10/14/23
f 43/84/3 42/47/6 10/14/23 9/85/20
f 37/42/4 43/48/3 9/13/20 8/12/19
f 45/51/71 44/49/72 1/8/1 37/42/4
f 46/52/73 45/51/71 37/42/4 8/12/19
f 47/53/74 46/52/73 8/12/19 15/19/22
f 48/54/75 47/53/74 15/19/22 22/26/38
f 49/55/76 48/54/75 22/26/38 29/33/47
s 5
f 51/56/77 50/5/78 7/11/79 38/79/80
f 52/57/81 51/56/77 38/79/80 14/18/82
f 53/58/83 52/57/81 14/18/82 21/25/84
f 54/59/85 53/58/83 21/25/84 28/32/86
f 55/60/87 54/59/85 28/32/86 35/39/88
s 3
f 66/41/56 73/77/70 74/78/89
f 69/72/66 66/41/56 74/78/89
s 1
f 36/90/90 49/55/76 29/33/47
s 5
f 36/40/91 55/60/87 35/39/88
s 6
f 4/1/92 3/2/93 56/3/94 57/4/95
s 7
f 50/5/96 6/6/97 58/7/98 59/50/99
s 8
f 5/10/100 4/1/101 57/4/102 60/96/103
s 9
f 6/6/104 5/103/105 60/104/106 58/7/107
s 10
f 3/2/108 2/101/109 61/102/110 56/3/111
s 11
f 2/9/112 1/8/113 62/97/114 61/100/115
s 12
f 1/8/116 44/49/117 63/98/118 62/97/119
s 13
f 44/49/120 7/105/121 64/106/122 63/98/123
s 14
f 7/11/124 50/5/125 59/50/126 64/99/127
s 6
f 57/61/95 56/62/94 65/71/128 67/70/129
s 7
f 59/63/99 58/64/98 68/73/130 69/72/131
s 8
f 60/65/103 57/61/102 67/70/132 70/74/133
s 9
f 58/64/107 60/65/106 70/74/134 68/73/135
s 10
f 56/62/111 61/66/110 71/75/136 65/71/137
s 11
f 61/66/115 62/67/114 72/76/138 71/75/139
s 12
f 62/67/119 63/68/118 73/77/140 72/76/141
s 13
f 63/68/123 64/107/122 74/78/142 73/77/143
s 14
f 64/69/127 59/63/126 69/72/144 74/78/145
