# This file uses centimeters as units for non-parametric coordinates.

mtllib Tornado_Icon.mtl
g default
v 4.213141 4.432049 -10.033658
v 4.212960 4.432139 -10.033896
v 4.212717 4.432260 -10.033983
v 4.212473 4.432381 -10.033896
v 4.212292 4.432471 -10.033658
v 4.212229 4.432502 -10.033332
v 4.212292 4.432471 -10.033006
v 4.212473 4.432381 -10.032767
v 4.212717 4.432260 -10.032680
v 4.212960 4.432139 -10.032767
v 4.213141 4.432049 -10.033006
v 4.213204 4.432017 -10.033332
v 4.238464 4.473393 -10.028742
v 4.236664 4.474288 -10.033976
v 4.234206 4.475509 -10.035891
v 4.231747 4.476731 -10.033976
v 4.229948 4.477625 -10.028742
v 4.229289 4.477952 -10.021592
v 4.229948 4.477625 -10.014443
v 4.231747 4.476731 -10.009209
v 4.234206 4.475509 -10.007293
v 4.236664 4.474288 -10.009209
v 4.238464 4.473393 -10.014443
v 4.239123 4.473066 -10.021592
v 4.261111 4.514667 -10.068155
v 4.258178 4.515100 -10.076474
v 4.254579 4.516513 -10.079519
v 4.251280 4.518527 -10.076474
v 4.249163 4.520604 -10.068155
v 4.248797 4.522186 -10.056791
v 4.250279 4.522850 -10.045427
v 4.253213 4.522417 -10.037107
v 4.256811 4.521005 -10.034062
v 4.260111 4.518990 -10.037107
v 4.262227 4.516913 -10.045427
v 4.262593 4.515331 -10.056791
v 4.284620 4.553381 -10.047354
v 4.279208 4.552459 -10.059184
v 4.273253 4.554096 -10.063514
v 4.268352 4.557853 -10.059184
v 4.265818 4.562723 -10.047354
v 4.266329 4.567402 -10.031195
v 4.269749 4.570635 -10.015035
v 4.275161 4.571557 -10.003206
v 4.281116 4.569920 -9.998876
v 4.286017 4.566163 -10.003206
v 4.288551 4.561293 -10.015035
v 4.288040 4.556614 -10.031195
v 4.312284 4.598495 -10.082498
v 4.306532 4.601353 -10.098314
v 4.298674 4.605257 -10.104103
v 4.290815 4.609162 -10.098314
v 4.285063 4.612020 -10.082498
v 4.282957 4.613066 -10.060892
v 4.285063 4.612020 -10.039286
v 4.290815 4.609162 -10.023470
v 4.298674 4.605257 -10.017681
v 4.306532 4.601353 -10.023470
v 4.312284 4.598495 -10.039286
v 4.314390 4.597448 -10.060892
v 4.346612 4.643974 -10.090693
v 4.339395 4.653862 -10.112510
v 4.327024 4.662315 -10.120495
v 4.312815 4.667068 -10.112510
v 4.300575 4.666848 -10.090693
v 4.293583 4.661713 -10.060892
v 4.293714 4.653040 -10.031091
v 4.300931 4.643152 -10.009275
v 4.313302 4.634698 -10.001289
v 4.327511 4.629945 -10.009275
v 4.339751 4.630165 -10.031091
v 4.346743 4.635300 -10.060892
v 4.379379 4.674556 -10.043012
v 4.367928 4.688445 -10.093065
v 4.348443 4.701164 -10.106194
v 4.326145 4.709304 -10.093933
v 4.307008 4.710685 -10.044515
v 4.296161 4.704936 -9.997253
v 4.296509 4.693597 -9.949758
v 4.307960 4.679708 -9.914756
v 4.327445 4.666989 -9.901627
v 4.349743 4.658849 -9.913888
v 4.368880 4.657468 -9.948254
v 4.379727 4.663218 -9.995517
v 4.422578 4.711062 -10.054941
v 4.404573 4.732070 -10.106441
v 4.374326 4.751570 -10.125783
v 4.339942 4.764335 -10.107784
v 4.310633 4.766947 -10.057267
v 4.294254 4.758704 -9.987768
v 4.295192 4.741816 -9.917909
v 4.313197 4.720808 -9.866409
v 4.343444 4.701309 -9.847067
v 4.377829 4.688543 -9.865066
v 4.407137 4.685932 -9.915583
v 4.423516 4.694174 -9.985082
v 4.473530 4.740268 -10.052124
v 4.427001 4.776853 -10.109902
v 4.396984 4.796726 -10.131320
v 4.362370 4.809118 -10.111245
v 4.303281 4.825260 -10.055661
v 4.281533 4.817871 -9.978508
v 4.286123 4.797335 -9.900807
v 4.315821 4.769153 -9.843379
v 4.362669 4.740877 -9.821612
v 4.414114 4.720083 -9.841337
v 4.456372 4.712343 -9.897270
v 4.478120 4.719732 -9.974424
v 4.212717 4.432260 -10.033332
v 4.379826 4.768802 -9.976466
vt 0.285745 0.193293
vt 0.283343 0.191751
vt 0.281894 0.189667
vt 0.281421 0.195868
vt 0.283159 0.197724
vt 0.285698 0.198594
vt 0.288359 0.198244
vt 0.290427 0.196768
vt 0.291349 0.194562
vt 0.292005 0.191855
vt 0.290745 0.193353
vt 0.288454 0.193879
vt 0.288353 0.279628
vt 0.277541 0.277754
vt 0.272395 0.279325
vt 0.275999 0.282335
vt 0.286368 0.285310
vt 0.300721 0.287454
vt 0.315214 0.288192
vt 0.325963 0.287327
vt 0.328409 0.275982
vt 0.325592 0.278331
vt 0.316095 0.279961
vt 0.302465 0.280436
vt 0.203747 0.363806
vt 0.186855 0.359526
vt 0.176238 0.351875
vt 0.181956 0.356766
vt 0.198309 0.362768
vt 0.220913 0.368273
vt 0.243714 0.371805
vt 0.260601 0.372418
vt 0.267005 0.365456
vt 0.262421 0.368147
vt 0.247375 0.368783
vt 0.225899 0.367194
vt 0.236942 0.447665
vt 0.213142 0.437787
vt 0.201061 0.429659
vt 0.209011 0.438427
vt 0.231880 0.450797
vt 0.263540 0.463454
vt 0.295507 0.473007
vt 0.319217 0.476896
vt 0.325088 0.463145
vt 0.318893 0.466229
vt 0.297997 0.464086
vt 0.268002 0.457291
vt 0.160474 0.544428
vt 0.127686 0.538460
vt 0.109016 0.522973
vt 0.119863 0.532526
vt 0.151162 0.541853
vt 0.194525 0.548455
vt 0.238334 0.550563
vt 0.270850 0.547611
vt 0.281250 0.532687
vt 0.272890 0.540203
vt 0.244308 0.545434
vt 0.203161 0.546981
vt 0.137573 0.652717
vt 0.090639 0.652748
vt 0.064615 0.632861
vt 0.079685 0.644983
vt 0.123670 0.649737
vt 0.184785 0.645847
vt 0.246653 0.634357
vt 0.292697 0.618345
vt 0.306922 0.591373
vt 0.295904 0.607788
vt 0.256083 0.626760
vt 0.198130 0.643206
vt 0.227409 0.741977
vt 0.123551 0.739507
vt 0.085760 0.712674
vt 0.108727 0.733016
vt 0.208033 0.747011
vt 0.304474 0.745654
vt 0.402575 0.732343
vt 0.476049 0.710644
vt 0.493155 0.654656
vt 0.476600 0.679605
vt 0.414382 0.707191
vt 0.323172 0.730021
vt 0.201934 0.853336
vt 0.091667 0.849087
vt 0.036235 0.808666
vt 0.069777 0.840281
vt 0.170993 0.857645
vt 0.312764 0.856104
vt 0.457102 0.836072
vt 0.565332 0.802917
vt 0.591642 0.722238
vt 0.567942 0.760476
vt 0.476912 0.802177
vt 0.342944 0.836166
vt 0.205620 0.975843
vt 0.075669 0.937970
vt 0.016098 0.897118
vt 0.053901 0.928412
vt 0.162442 0.976025
vt 0.319451 0.978101
vt 0.480365 0.952054
vt 0.602066 0.904864
vt 0.652196 0.850252
vt 0.621831 0.882741
vt 0.520586 0.935801
vt 0.363752 0.970292
vt 0.453779 0.162828
vt 0.347802 0.269939
vt 0.324726 0.393621
vt 0.390732 0.500732
vt 0.528135 0.562572
vt 0.700117 0.562572
vt 0.860597 0.500731
vt 0.959222 0.354101
vt 0.989650 0.269939
vt 0.930994 0.202346
vt 0.786240 0.100987
vt 0.614258 0.100987
vt 0.657188 0.331779
vt 0.651945 0.849176
vt 0.021593 0.914202
vt 0.291895 0.189787
vt 0.280950 0.193523
vt 0.608453 0.765521
vt 0.041687 0.824558
vt 0.505209 0.686372
vt 0.090007 0.723878
vt 0.310580 0.602101
vt 0.069904 0.643288
vt 0.283361 0.540392
vt 0.113582 0.530675
vt 0.328316 0.474079
vt 0.202978 0.430303
vt 0.267048 0.369948
vt 0.179750 0.355501
vt 0.330088 0.285089
vt 0.272926 0.275316
vn 0.808956 -0.453330 -0.374277
vn 0.808956 -0.453330 -0.374277
vn 0.711104 -0.626216 -0.319664
vn 0.735106 -0.590658 -0.332779
vn 0.481106 -0.273986 -0.832748
vn 0.481106 -0.273986 -0.832748
vn 0.259579 -0.669833 -0.695660
vn 0.287807 -0.632345 -0.719241
vn -0.508952 0.217943 -0.832748
vn -0.508952 0.217943 -0.832748
vn -0.677803 -0.152563 -0.719241
vn -0.690631 -0.197703 -0.695660
vn -0.849908 0.370908 -0.374277
vn -0.849908 0.370908 -0.374277
vn -0.914751 0.229105 -0.332779
vn -0.928592 0.188499 -0.319664
vn -0.921728 0.372820 -0.106880
vn -0.921728 0.372820 -0.106880
vn -0.930856 0.352980 -0.094402
vn -0.932993 0.348109 -0.091350
vn -0.939869 0.324566 0.106317
vn -0.939869 0.324566 0.106317
vn -0.903411 0.417412 0.098057
vn -0.897242 0.430809 0.096750
vn -0.908501 0.202954 0.365288
vn -0.908501 0.202954 0.365288
vn -0.820322 0.459816 0.340061
vn -0.811897 0.476459 0.337358
vn -0.631897 -0.132614 0.763623
vn -0.631897 -0.132614 0.763623
vn -0.452867 0.411286 0.791047
vn -0.447635 0.421039 0.788891
vn 0.275978 -0.583709 0.763623
vn 0.275978 -0.583709 0.763623
vn 0.605933 -0.102447 0.788891
vn 0.601320 -0.112507 0.791047
vn 0.710490 -0.601472 0.365288
vn 0.710490 -0.601472 0.365288
vn 0.870118 -0.359282 0.337358
vn 0.861943 -0.376049 0.340061
vn 0.826358 -0.553018 0.106317
vn 0.826358 -0.553018 0.106317
vn 0.885285 -0.454874 0.096750
vn 0.878334 -0.467882 0.098057
vn 0.853858 -0.509414 -0.106880
vn 0.853858 -0.509414 -0.106880
vn 0.840968 -0.533318 -0.091350
vn 0.843560 -0.528673 -0.094402
vn 0.807272 -0.483368 -0.338624
vn 0.798998 -0.498366 -0.336500
vn 0.471446 -0.368594 -0.801173
vn 0.460387 -0.389698 -0.797609
vn -0.588657 0.131540 -0.797609
vn -0.578518 0.153100 -0.801173
vn -0.879787 0.335771 -0.336500
vn -0.872831 0.351424 -0.338624
vn -0.922687 0.375617 -0.086949
vn -0.922018 0.377258 -0.086943
vn -0.922108 0.370174 0.112637
vn -0.921875 0.370791 0.112515
vn -0.876132 0.317350 0.362880
vn -0.872409 0.328890 0.361572
vn -0.580077 0.094421 0.809070
vn -0.575298 0.110496 0.810446
vn 0.435546 -0.391761 0.810446
vn 0.425621 -0.405280 0.809070
vn 0.789058 -0.496642 0.361572
vn 0.782110 -0.506579 0.362880
vn 0.852331 -0.510757 0.112515
vn 0.851980 -0.511315 0.112637
vn 0.857570 -0.506965 -0.086943
vn 0.856667 -0.508490 -0.086949
vn 0.761625 -0.552652 -0.338382
vn 0.743347 -0.579076 -0.334822
vn 0.382266 -0.495631 -0.779886
vn 0.365789 -0.519639 -0.772123
vn -0.635081 -0.022337 -0.772123
vn -0.625899 0.005295 -0.779886
vn -0.910498 0.242668 -0.334822
vn -0.900479 0.273196 -0.338382
vn -0.940532 0.328622 -0.086066
vn -0.936377 0.340241 -0.086219
vn -0.921323 0.371468 0.114782
vn -0.926062 0.358831 0.116826
vn -0.846690 0.384807 0.367478
vn -0.863107 0.342950 0.370717
vn -0.513627 0.238347 0.824244
vn -0.531819 0.194543 0.824210
vn 0.476268 -0.306345 0.824210
vn 0.500192 -0.265388 0.824244
vn 0.794646 -0.480736 0.370717
vn 0.818089 -0.442370 0.367478
vn 0.845328 -0.521318 0.116826
vn 0.852537 -0.509908 0.114782
vn 0.836742 -0.540767 -0.086219
vn 0.829991 -0.551096 -0.086066
vn 0.692333 -0.598674 -0.402821
vn 0.690499 -0.616337 -0.378604
vn 0.297719 -0.510328 -0.806802
vn 0.288511 -0.539982 -0.790683
vn -0.604618 -0.096214 -0.790683
vn -0.586545 -0.070964 -0.806802
vn -0.908273 0.178044 -0.378604
vn -0.895304 0.190173 -0.402821
vn -0.956560 0.266470 -0.118268
vn -0.958906 0.250378 -0.133457
vn -0.948125 0.303150 0.095702
vn -0.960874 0.262072 0.089664
vn -0.877030 0.312867 0.364600
vn -0.896118 0.252765 0.364805
vn -0.529409 0.177543 0.829581
vn -0.545860 0.131015 0.827570
vn 0.434119 -0.355906 0.827570
vn 0.461264 -0.314692 0.829581
vn 0.742708 -0.561517 0.364805
vn 0.779079 -0.510002 0.364600
vn 0.789239 -0.607505 0.089664
vn 0.814277 -0.572533 0.095702
vn 0.778730 -0.613000 -0.133457
vn 0.790138 -0.601410 -0.118268
vn 0.779561 -0.488868 -0.391525
vn 0.795066 -0.470825 -0.382353
vn 0.463277 -0.192281 -0.865102
vn 0.474431 -0.171054 -0.863513
vn -0.407176 0.282792 -0.868468
vn -0.410807 0.275878 -0.868981
vn -0.838044 0.382050 -0.389513
vn -0.845392 0.357748 -0.396646
vn -0.942881 0.288841 -0.165971
vn -0.948903 0.271025 -0.161642
vn -0.996496 0.077411 0.031655
vn -0.992298 0.114868 0.046360
vn -0.949802 -0.222533 0.219899
vn -0.955700 -0.151051 0.252630
vn -0.676622 -0.619450 0.398074
vn -0.680533 -0.594274 0.428617
vn -0.066836 -0.896618 0.437732
vn -0.092864 -0.910311 0.403373
vn 0.454874 -0.850484 0.264132
vn 0.390295 -0.890825 0.232597
vn 0.684234 -0.727151 0.055460
vn 0.653192 -0.755893 0.044327
vn 0.778628 -0.608196 -0.154391
vn 0.784973 -0.599676 -0.155579
vn 0.697193 -0.598305 -0.394910
vn 0.637973 -0.655555 -0.404027
vn 0.367093 -0.318603 -0.873919
vn 0.337112 -0.359749 -0.870021
vn -0.457334 0.062554 -0.887092
vn -0.449338 0.090068 -0.888810
vn -0.894494 0.126656 -0.428764
vn -0.883394 0.213206 -0.417323
vn -0.973936 0.061736 -0.218260
vn -0.967437 0.150184 -0.203741
vn -0.999778 -0.020408 0.005325
vn -0.999947 0.003427 0.009660
vn -0.949032 -0.210692 0.234409
vn -0.945005 -0.248465 0.212675
vn -0.676354 -0.587622 0.444125
vn -0.674204 -0.612274 0.413001
vn -0.094960 -0.901157 0.422964
vn -0.075087 -0.886583 0.456435
vn 0.364227 -0.901369 0.234248
vn 0.394639 -0.881320 0.259873
vn 0.597717 -0.800980 0.034140
vn 0.582270 -0.812233 0.035186
vn 0.694902 -0.696617 -0.178428
vn 0.636862 -0.747689 -0.188063
vn 0.568670 -0.621602 -0.538727
vn 0.568694 -0.621741 -0.538540
vn 0.337857 -0.367980 -0.866281
vn 0.332879 -0.374018 -0.865622
vn -0.469602 0.027652 -0.882445
vn -0.467232 0.037341 -0.883346
vn -0.820650 0.074050 -0.566612
vn -0.820562 0.074087 -0.566735
vn -0.964146 -0.087096 -0.250674
vn -0.964952 -0.081761 -0.249363
vn -0.990919 -0.134340 -0.005639
vn -0.992377 -0.123151 -0.004677
vn -0.936655 -0.182903 0.298703
vn -0.938461 -0.182911 0.292976
vn -0.626214 -0.374745 0.683683
vn -0.629537 -0.382548 0.676269
vn 0.049602 -0.722222 0.689880
vn 0.054283 -0.713463 0.698587
vn 0.407582 -0.854859 0.321080
vn 0.406355 -0.853366 0.326562
vn 0.497061 -0.867320 0.026209
vn 0.488336 -0.872293 0.025143
vn 0.521839 -0.824553 -0.218624
vn 0.518205 -0.826550 -0.219726
vn 0.554380 -0.555212 -0.620001
vn 0.554381 -0.555212 -0.620001
vn 0.400410 -0.287757 -0.869981
vn 0.400410 -0.287757 -0.869981
vn -0.441408 0.132494 -0.887471
vn -0.441408 0.132495 -0.887471
vn -0.755860 0.098884 -0.647223
vn -0.755860 0.098884 -0.647223
vn -0.954754 -0.138809 -0.263014
vn -0.954754 -0.138809 -0.263014
vn -0.982793 -0.184442 -0.009958
vn -0.982793 -0.184442 -0.009958
vn -0.928245 -0.182787 0.323960
vn -0.928245 -0.182787 0.323960
vn -0.580388 -0.277925 0.765446
vn -0.580388 -0.277925 0.765446
vn 0.100986 -0.618080 0.779602
vn 0.100986 -0.618080 0.779602
vn 0.400548 -0.846145 0.351567
vn 0.400548 -0.846145 0.351567
vn 0.443082 -0.896265 0.019666
vn 0.443082 -0.896265 0.019666
vn 0.471121 -0.850631 -0.233391
vn 0.471121 -0.850631 -0.233391
vn -0.444969 -0.895546 0.000000
vn -0.444969 -0.895546 0.000000
vn -0.444969 -0.895546 0.000000
vn -0.444969 -0.895546 0.000000
vn -0.444969 -0.895546 0.000000
vn -0.444969 -0.895546 0.000000
vn -0.444969 -0.895546 0.000000
vn -0.444969 -0.895546 0.000000
vn -0.444969 -0.895546 0.000000
vn -0.444969 -0.895546 0.000000
vn -0.444969 -0.895546 0.000000
vn -0.444969 -0.895546 0.000000
vn -0.444969 -0.895546 0.000000
vn 0.433620 0.877180 0.206227
vn 0.433620 0.877180 0.206227
vn 0.433620 0.877180 0.206227
vn 0.433620 0.877180 0.206227
vn 0.433620 0.877180 0.206227
vn 0.433620 0.877180 0.206227
vn 0.433620 0.877180 0.206227
vn 0.433619 0.877180 0.206227
vn 0.433619 0.877180 0.206227
vn 0.433620 0.877180 0.206227
vn 0.433620 0.877180 0.206227
vn 0.433620 0.877180 0.206227
vn 0.433620 0.877180 0.206227
s 1
g pCylinder4
usemtl initialShadingGroup
f 1/1/1 2/2/2 14/14/3 13/13/4
s 2
f 2/2/5 3/3/6 15/139/7 14/14/8
s 3
f 3/125/9 4/4/10 16/16/11 15/15/12
s 4
f 4/4/13 5/5/14 17/17/15 16/16/16
s 5
f 5/5/17 6/6/18 18/18/19 17/17/20
s 6
f 6/6/21 7/7/22 19/19/23 18/18/24
s 7
f 7/7/25 8/8/26 20/20/27 19/19/28
s 8
f 8/8/29 9/9/30 21/138/31 20/20/32
s 9
f 9/124/33 10/10/34 22/22/35 21/21/36
s 10
f 10/10/37 11/11/38 23/23/39 22/22/40
s 11
f 11/11/41 12/12/42 24/24/43 23/23/44
s 12
f 12/12/45 1/1/46 13/13/47 24/24/48
s 1
f 13/13/4 14/14/3 26/26/49 25/25/50
s 2
f 14/14/8 15/139/7 27/137/51 26/26/52
s 3
f 15/15/12 16/16/11 28/28/53 27/27/54
s 4
f 16/16/16 17/17/15 29/29/55 28/28/56
s 5
f 17/17/20 18/18/19 30/30/57 29/29/58
s 6
f 18/18/24 19/19/23 31/31/59 30/30/60
s 7
f 19/19/28 20/20/27 32/32/61 31/31/62
s 8
f 20/20/32 21/138/31 33/136/63 32/32/64
s 9
f 21/21/36 22/22/35 34/34/65 33/33/66
s 10
f 22/22/40 23/23/39 35/35/67 34/34/68
s 11
f 23/23/44 24/24/43 36/36/69 35/35/70
s 12
f 24/24/48 13/13/47 25/25/71 36/36/72
s 1
f 25/25/50 26/26/49 38/38/73 37/37/74
s 2
f 26/26/52 27/137/51 39/135/75 38/38/76
s 3
f 27/27/54 28/28/53 40/40/77 39/39/78
s 4
f 28/28/56 29/29/55 41/41/79 40/40/80
s 5
f 29/29/58 30/30/57 42/42/81 41/41/82
s 6
f 30/30/60 31/31/59 43/43/83 42/42/84
s 7
f 31/31/62 32/32/61 44/44/85 43/43/86
s 8
f 32/32/64 33/136/63 45/134/87 44/44/88
s 9
f 33/33/66 34/34/65 46/46/89 45/45/90
s 10
f 34/34/68 35/35/67 47/47/91 46/46/92
s 11
f 35/35/70 36/36/69 48/48/93 47/47/94
s 12
f 36/36/72 25/25/71 37/37/95 48/48/96
s 1
f 37/37/74 38/38/73 50/50/97 49/49/98
s 2
f 38/38/76 39/135/75 51/133/99 50/50/100
s 3
f 39/39/78 40/40/77 52/52/101 51/51/102
s 4
f 40/40/80 41/41/79 53/53/103 52/52/104
s 5
f 41/41/82 42/42/81 54/54/105 53/53/106
s 6
f 42/42/84 43/43/83 55/55/107 54/54/108
s 7
f 43/43/86 44/44/85 56/56/109 55/55/110
s 8
f 44/44/88 45/134/87 57/132/111 56/56/112
s 9
f 45/45/90 46/46/89 58/58/113 57/57/114
s 10
f 46/46/92 47/47/91 59/59/115 58/58/116
s 11
f 47/47/94 48/48/93 60/60/117 59/59/118
s 12
f 48/48/96 37/37/95 49/49/119 60/60/120
s 1
f 49/49/98 50/50/97 62/62/121 61/61/122
s 2
f 50/50/100 51/133/99 63/131/123 62/62/124
s 3
f 51/51/102 52/52/101 64/64/125 63/63/126
s 4
f 52/52/104 53/53/103 65/65/127 64/64/128
s 5
f 53/53/106 54/54/105 66/66/129 65/65/130
s 6
f 54/54/108 55/55/107 67/67/131 66/66/132
s 7
f 55/55/110 56/56/109 68/68/133 67/67/134
s 8
f 56/56/112 57/132/111 69/130/135 68/68/136
s 9
f 57/57/114 58/58/113 70/70/137 69/69/138
s 10
f 58/58/116 59/59/115 71/71/139 70/70/140
s 11
f 59/59/118 60/60/117 72/72/141 71/71/142
s 12
f 60/60/120 49/49/119 61/61/143 72/72/144
s 1
f 61/61/122 62/62/121 74/74/145 73/73/146
s 2
f 62/62/124 63/131/123 75/129/147 74/74/148
s 3
f 63/63/126 64/64/125 76/76/149 75/75/150
s 4
f 64/64/128 65/65/127 77/77/151 76/76/152
s 5
f 65/65/130 66/66/129 78/78/153 77/77/154
s 6
f 66/66/132 67/67/131 79/79/155 78/78/156
s 7
f 67/67/134 68/68/133 80/80/157 79/79/158
s 8
f 68/68/136 69/130/135 81/128/159 80/80/160
s 9
f 69/69/138 70/70/137 82/82/161 81/81/162
s 10
f 70/70/140 71/71/139 83/83/163 82/82/164
s 11
f 71/71/142 72/72/141 84/84/165 83/83/166
s 12
f 72/72/144 61/61/143 73/73/167 84/84/168
s 1
f 73/73/146 74/74/145 86/86/169 85/85/170
s 2
f 74/74/148 75/129/147 87/127/171 86/86/172
s 3
f 75/75/150 76/76/149 88/88/173 87/87/174
s 4
f 76/76/152 77/77/151 89/89/175 88/88/176
s 5
f 77/77/154 78/78/153 90/90/177 89/89/178
s 6
f 78/78/156 79/79/155 91/91/179 90/90/180
s 7
f 79/79/158 80/80/157 92/92/181 91/91/182
s 8
f 80/80/160 81/128/159 93/126/183 92/92/184
s 9
f 81/81/162 82/82/161 94/94/185 93/93/186
s 10
f 82/82/164 83/83/163 95/95/187 94/94/188
s 11
f 83/83/166 84/84/165 96/96/189 95/95/190
s 12
f 84/84/168 73/73/167 85/85/191 96/96/192
s 1
f 85/85/170 86/86/169 98/98/193 97/97/194
s 2
f 86/86/172 87/127/171 99/123/195 98/98/196
s 3
f 87/87/174 88/88/173 100/100/197 99/99/198
s 4
f 88/88/176 89/89/175 101/101/199 100/100/200
s 5
f 89/89/178 90/90/177 102/102/201 101/101/202
s 6
f 90/90/180 91/91/179 103/103/203 102/102/204
s 7
f 91/91/182 92/92/181 104/104/205 103/103/206
s 8
f 92/92/184 93/126/183 105/122/207 104/104/208
s 9
f 93/93/186 94/94/185 106/106/209 105/105/210
s 10
f 94/94/188 95/95/187 107/107/211 106/106/212
s 11
f 95/95/190 96/96/189 108/108/213 107/107/214
s 12
f 96/96/192 85/85/191 97/97/215 108/108/216
s 13
f 2//217 1//218 109//219
f 3//220 2//217 109//219
f 4//221 3//220 109//219
f 5//222 4//221 109//219
f 6//223 5//222 109//219
f 7//224 6//223 109//219
f 8//225 7//224 109//219
f 9//226 8//225 109//219
f 10//227 9//226 109//219
f 11//228 10//227 109//219
f 12//229 11//228 109//219
f 1//218 12//229 109//219
s 14
f 97/119/230 98/118/231 110/121/232
f 98/118/231 99/117/233 110/121/232
f 99/117/233 100/116/234 110/121/232
f 100/116/234 101/115/235 110/121/232
f 101/115/235 102/114/236 110/121/232
f 102/114/236 103/113/237 110/121/232
f 103/113/237 104/112/238 110/121/232
f 104/112/238 105/111/239 110/121/232
f 105/111/239 106/110/240 110/121/232
f 106/110/240 107/109/241 110/121/232
f 107/109/241 108/120/242 110/121/232
f 108/120/242 97/119/230 110/121/232
