# This file uses centimeters as units for non-parametric coordinates.

mtllib ICONS DRAFT.mtl
g default
v 4.216410 3.568422 -9.986149
v 4.214849 3.569198 -9.987092
v 4.212717 3.570257 -9.987437
v 4.210584 3.571317 -9.987092
v 4.209023 3.572093 -9.986149
v 4.208452 3.572376 -9.984860
v 4.209023 3.572093 -9.983571
v 4.210584 3.571317 -9.982628
v 4.212717 3.570257 -9.982283
v 4.214849 3.569198 -9.982628
v 4.216410 3.568422 -9.983571
v 4.216981 3.568138 -9.984860
v 4.238464 3.611391 -9.980270
v 4.236664 3.612285 -9.985504
v 4.234206 3.613507 -9.987420
v 4.231747 3.614728 -9.985504
v 4.229948 3.615622 -9.980270
v 4.229289 3.615950 -9.973121
v 4.229948 3.615622 -9.965971
v 4.231747 3.614728 -9.960737
v 4.234206 3.613507 -9.958822
v 4.236664 3.612285 -9.960737
v 4.238464 3.611391 -9.965971
v 4.239123 3.611064 -9.973121
v 4.261111 3.652665 -10.019683
v 4.258178 3.653097 -10.028003
v 4.254579 3.654510 -10.031047
v 4.251280 3.656525 -10.028003
v 4.249163 3.658601 -10.019683
v 4.248797 3.660184 -10.008319
v 4.250279 3.660847 -9.996955
v 4.253213 3.660415 -9.988636
v 4.256811 3.659002 -9.985591
v 4.260111 3.656988 -9.988636
v 4.262227 3.654911 -9.996955
v 4.262593 3.653329 -10.008319
v 4.284620 3.691379 -9.998883
v 4.279208 3.690457 -10.010712
v 4.273253 3.692094 -10.015042
v 4.268352 3.695851 -10.010712
v 4.265818 3.700721 -9.998883
v 4.266329 3.705399 -9.982723
v 4.269749 3.708633 -9.966564
v 4.275161 3.709554 -9.954734
v 4.281116 3.707917 -9.950404
v 4.286017 3.704161 -9.954734
v 4.288551 3.699291 -9.966564
v 4.288040 3.694612 -9.982723
v 4.312284 3.736492 -10.034026
v 4.306532 3.739350 -10.049842
v 4.298674 3.743255 -10.055632
v 4.290815 3.747159 -10.049842
v 4.285063 3.750018 -10.034026
v 4.282957 3.751064 -10.012420
v 4.285063 3.750018 -9.990815
v 4.290815 3.747159 -9.974998
v 4.298674 3.743255 -9.969209
v 4.306532 3.739350 -9.974998
v 4.312284 3.736492 -9.990815
v 4.314390 3.735446 -10.012420
v 4.346612 3.781971 -10.042222
v 4.339395 3.791859 -10.064038
v 4.327024 3.800313 -10.072023
v 4.312815 3.805066 -10.064038
v 4.300575 3.804846 -10.042222
v 4.293583 3.799711 -10.012420
v 4.293714 3.791037 -9.982619
v 4.300931 3.781149 -9.960803
v 4.313302 3.772696 -9.952818
v 4.327511 3.767943 -9.960803
v 4.339751 3.768163 -9.982619
v 4.346743 3.773298 -10.012420
v 4.379379 3.812554 -9.994540
v 4.367928 3.826443 -10.044594
v 4.348443 3.839162 -10.057723
v 4.326145 3.847302 -10.045462
v 4.307008 3.848683 -9.996043
v 4.296161 3.842933 -9.948781
v 4.296509 3.831595 -9.901286
v 4.307960 3.817705 -9.866285
v 4.327445 3.804987 -9.853156
v 4.349743 3.796847 -9.865417
v 4.368880 3.795466 -9.899783
v 4.379727 3.801215 -9.947045
v 4.422578 3.849060 -10.006470
v 4.404573 3.870068 -10.057969
v 4.374326 3.889567 -10.077311
v 4.339942 3.902333 -10.059312
v 4.310633 3.904944 -10.008795
v 4.294254 3.896702 -9.939296
v 4.295192 3.879814 -9.869437
v 4.313197 3.858806 -9.817937
v 4.343444 3.839306 -9.798596
v 4.377829 3.826541 -9.816595
v 4.407137 3.823929 -9.867112
v 4.423516 3.832172 -9.936611
v 4.473530 3.878266 -10.003652
v 4.427001 3.914850 -10.061430
v 4.396984 3.934724 -10.082848
v 4.362370 3.947115 -10.062773
v 4.303281 3.963257 -10.007190
v 4.281533 3.955869 -9.930036
v 4.286123 3.935332 -9.852335
v 4.315821 3.907150 -9.794907
v 4.362669 3.878874 -9.773140
v 4.414114 3.858081 -9.792865
v 4.456372 3.850341 -9.848798
v 4.478120 3.857729 -9.925952
v 4.212717 3.570257 -9.984860
v 4.379826 3.906799 -9.927994
vt 0.635316 0.078125
vt 0.578125 0.020934
vt 0.500000 0.000000
vt 0.421875 0.020934
vt 0.364684 0.078125
vt 0.343750 0.156250
vt 0.364684 0.234375
vt 0.421875 0.291566
vt 0.500000 0.312500
vt 0.578125 0.291566
vt 0.635316 0.234375
vt 0.656250 0.156250
vt 0.375000 0.312500
vt 0.395833 0.312500
vt 0.416667 0.312500
vt 0.437500 0.312500
vt 0.458333 0.312500
vt 0.479167 0.312500
vt 0.500000 0.312500
vt 0.520833 0.312500
vt 0.541667 0.312500
vt 0.562500 0.312500
vt 0.583333 0.312500
vt 0.604167 0.312500
vt 0.625000 0.312500
vt 0.375000 0.359375
vt 0.395833 0.359375
vt 0.416667 0.359375
vt 0.437500 0.359375
vt 0.458333 0.359375
vt 0.479167 0.359375
vt 0.500000 0.359375
vt 0.520833 0.359375
vt 0.541667 0.359375
vt 0.562500 0.359375
vt 0.583333 0.359375
vt 0.604167 0.359375
vt 0.625000 0.359375
vt 0.375000 0.406250
vt 0.395833 0.406250
vt 0.416667 0.406250
vt 0.437500 0.406250
vt 0.458333 0.406250
vt 0.479167 0.406250
vt 0.500000 0.406250
vt 0.520833 0.406250
vt 0.541667 0.406250
vt 0.562500 0.406250
vt 0.583333 0.406250
vt 0.604167 0.406250
vt 0.625000 0.406250
vt 0.375000 0.453125
vt 0.395833 0.453125
vt 0.416667 0.453125
vt 0.437500 0.453125
vt 0.458333 0.453125
vt 0.479167 0.453125
vt 0.500000 0.453125
vt 0.520833 0.453125
vt 0.541667 0.453125
vt 0.562500 0.453125
vt 0.583333 0.453125
vt 0.604167 0.453125
vt 0.625000 0.453125
vt 0.375000 0.500000
vt 0.395833 0.500000
vt 0.416667 0.500000
vt 0.437500 0.500000
vt 0.458333 0.500000
vt 0.479167 0.500000
vt 0.500000 0.500000
vt 0.520833 0.500000
vt 0.541667 0.500000
vt 0.562500 0.500000
vt 0.583333 0.500000
vt 0.604167 0.500000
vt 0.625000 0.500000
vt 0.375000 0.546875
vt 0.395833 0.546875
vt 0.416667 0.546875
vt 0.437500 0.546875
vt 0.458333 0.546875
vt 0.479167 0.546875
vt 0.500000 0.546875
vt 0.520833 0.546875
vt 0.541667 0.546875
vt 0.562500 0.546875
vt 0.583333 0.546875
vt 0.604167 0.546875
vt 0.625000 0.546875
vt 0.375000 0.593750
vt 0.395833 0.593750
vt 0.416667 0.593750
vt 0.437500 0.593750
vt 0.458333 0.593750
vt 0.479167 0.593750
vt 0.500000 0.593750
vt 0.520833 0.593750
vt 0.541667 0.593750
vt 0.562500 0.593750
vt 0.583333 0.593750
vt 0.604167 0.593750
vt 0.625000 0.593750
vt 0.375000 0.640625
vt 0.395833 0.640625
vt 0.416667 0.640625
vt 0.437500 0.640625
vt 0.458333 0.640625
vt 0.479167 0.640625
vt 0.500000 0.640625
vt 0.520833 0.640625
vt 0.541667 0.640625
vt 0.562500 0.640625
vt 0.583333 0.640625
vt 0.604167 0.640625
vt 0.625000 0.640625
vt 0.375000 0.687500
vt 0.395833 0.687500
vt 0.416667 0.687500
vt 0.437500 0.687500
vt 0.458333 0.687500
vt 0.479167 0.687500
vt 0.500000 0.687500
vt 0.520833 0.687500
vt 0.541667 0.687500
vt 0.562500 0.687500
vt 0.583333 0.687500
vt 0.604167 0.687500
vt 0.625000 0.687500
vt 0.635316 0.765625
vt 0.578125 0.708434
vt 0.500000 0.687500
vt 0.421875 0.708434
vt 0.364684 0.765625
vt 0.343750 0.843750
vt 0.364684 0.921875
vt 0.421875 0.979066
vt 0.500000 1.000000
vt 0.578125 0.979066
vt 0.635316 0.921875
vt 0.656250 0.843750
vt 0.500000 0.156250
vt 0.500000 0.843750
vn 0.778944 -0.352057 -0.518943
vn 0.778944 -0.352057 -0.518943
vn 0.714842 -0.598580 -0.361528
vn 0.737455 -0.540459 -0.405048
vn 0.367437 -0.167282 -0.914881
vn 0.367437 -0.167282 -0.914881
vn 0.254920 -0.603671 -0.755379
vn 0.276932 -0.543064 -0.792711
vn -0.355254 0.191801 -0.914881
vn -0.355254 0.191801 -0.914881
vn -0.600080 -0.107304 -0.792711
vn -0.635087 -0.161454 -0.755379
vn -0.751069 0.408159 -0.518943
vn -0.751069 0.408159 -0.518943
vn -0.876162 0.261297 -0.405048
vn -0.908825 0.208171 -0.361528
vn -0.876944 0.452950 -0.160642
vn -0.876944 0.452950 -0.160642
vn -0.914476 0.387336 -0.117066
vn -0.923533 0.368868 -0.104987
vn -0.910018 0.382304 0.160347
vn -0.910018 0.382304 0.160347
vn -0.893220 0.433929 0.117742
vn -0.890174 0.441905 0.110952
vn -0.843387 0.178008 0.506963
vn -0.843387 0.178008 0.506963
vn -0.808305 0.438004 0.393440
vn -0.803192 0.455483 0.383951
vn -0.508017 -0.189663 0.840206
vn -0.508017 -0.189663 0.840207
vn -0.439774 0.314144 0.841375
vn -0.436926 0.324573 0.838897
vn 0.155687 -0.519437 0.840206
vn 0.155687 -0.519437 0.840206
vn 0.522583 -0.152178 0.838897
vn 0.515992 -0.160747 0.841375
vn 0.651279 -0.564645 0.506963
vn 0.651279 -0.564645 0.506963
vn 0.848143 -0.365014 0.383951
vn 0.837301 -0.379647 0.393440
vn 0.854344 -0.494353 0.160347
vn 0.854344 -0.494353 0.160347
vn 0.889859 -0.442539 0.110952
vn 0.885342 -0.449784 0.117742
vn 0.890671 -0.425324 -0.160642
vn 0.890671 -0.425324 -0.160642
vn 0.851800 -0.513240 -0.104987
vn 0.861047 -0.494867 -0.117066
vn 0.807272 -0.483368 -0.338624
vn 0.798998 -0.498366 -0.336500
vn 0.471446 -0.368594 -0.801173
vn 0.460387 -0.389698 -0.797609
vn -0.588657 0.131540 -0.797609
vn -0.578518 0.153100 -0.801173
vn -0.879787 0.335771 -0.336500
vn -0.872831 0.351424 -0.338624
vn -0.922687 0.375617 -0.086949
vn -0.922018 0.377258 -0.086943
vn -0.922108 0.370174 0.112637
vn -0.921875 0.370791 0.112515
vn -0.876132 0.317350 0.362880
vn -0.872409 0.328890 0.361572
vn -0.580077 0.094421 0.809070
vn -0.575298 0.110496 0.810446
vn 0.435546 -0.391761 0.810446
vn 0.425621 -0.405280 0.809070
vn 0.789058 -0.496642 0.361572
vn 0.782110 -0.506579 0.362880
vn 0.852331 -0.510757 0.112515
vn 0.851980 -0.511315 0.112637
vn 0.857570 -0.506965 -0.086943
vn 0.856667 -0.508490 -0.086949
vn 0.761625 -0.552652 -0.338382
vn 0.743347 -0.579076 -0.334822
vn 0.382266 -0.495631 -0.779886
vn 0.365789 -0.519639 -0.772123
vn -0.635081 -0.022337 -0.772123
vn -0.625899 0.005295 -0.779886
vn -0.910498 0.242668 -0.334822
vn -0.900479 0.273196 -0.338382
vn -0.940532 0.328622 -0.086066
vn -0.936377 0.340241 -0.086219
vn -0.921323 0.371468 0.114782
vn -0.926062 0.358831 0.116826
vn -0.846690 0.384807 0.367478
vn -0.863107 0.342950 0.370717
vn -0.513627 0.238347 0.824244
vn -0.531819 0.194543 0.824210
vn 0.476268 -0.306345 0.824210
vn 0.500192 -0.265388 0.824244
vn 0.794646 -0.480736 0.370717
vn 0.818089 -0.442370 0.367478
vn 0.845328 -0.521318 0.116826
vn 0.852537 -0.509908 0.114782
vn 0.836742 -0.540767 -0.086219
vn 0.829991 -0.551096 -0.086066
vn 0.692333 -0.598674 -0.402821
vn 0.690499 -0.616337 -0.378604
vn 0.297719 -0.510328 -0.806802
vn 0.288511 -0.539982 -0.790683
vn -0.604618 -0.096214 -0.790683
vn -0.586545 -0.070964 -0.806802
vn -0.908273 0.178044 -0.378604
vn -0.895304 0.190173 -0.402821
vn -0.956560 0.266470 -0.118268
vn -0.958906 0.250378 -0.133457
vn -0.948125 0.303150 0.095702
vn -0.960874 0.262072 0.089664
vn -0.877030 0.312867 0.364600
vn -0.896118 0.252765 0.364805
vn -0.529409 0.177543 0.829581
vn -0.545860 0.131015 0.827570
vn 0.434119 -0.355906 0.827570
vn 0.461264 -0.314692 0.829581
vn 0.742708 -0.561517 0.364805
vn 0.779079 -0.510002 0.364600
vn 0.789239 -0.607505 0.089664
vn 0.814277 -0.572533 0.095702
vn 0.778730 -0.613000 -0.133457
vn 0.790138 -0.601410 -0.118268
vn 0.779561 -0.488868 -0.391525
vn 0.795066 -0.470825 -0.382353
vn 0.463277 -0.192281 -0.865102
vn 0.474431 -0.171054 -0.863513
vn -0.407176 0.282792 -0.868468
vn -0.410807 0.275878 -0.868981
vn -0.838044 0.382050 -0.389513
vn -0.845392 0.357748 -0.396646
vn -0.942881 0.288841 -0.165971
vn -0.948903 0.271025 -0.161642
vn -0.996496 0.077411 0.031655
vn -0.992298 0.114868 0.046360
vn -0.949802 -0.222533 0.219899
vn -0.955700 -0.151051 0.252630
vn -0.676622 -0.619450 0.398074
vn -0.680533 -0.594274 0.428617
vn -0.066836 -0.896618 0.437732
vn -0.092864 -0.910311 0.403373
vn 0.454874 -0.850484 0.264132
vn 0.390295 -0.890825 0.232597
vn 0.684234 -0.727151 0.055460
vn 0.653192 -0.755893 0.044327
vn 0.778628 -0.608196 -0.154391
vn 0.784973 -0.599676 -0.155579
vn 0.697193 -0.598305 -0.394910
vn 0.637973 -0.655555 -0.404027
vn 0.367093 -0.318603 -0.873919
vn 0.337112 -0.359749 -0.870021
vn -0.457334 0.062554 -0.887092
vn -0.449338 0.090068 -0.888810
vn -0.894494 0.126656 -0.428764
vn -0.883394 0.213206 -0.417323
vn -0.973936 0.061736 -0.218260
vn -0.967437 0.150184 -0.203741
vn -0.999778 -0.020408 0.005325
vn -0.999947 0.003427 0.009660
vn -0.949032 -0.210692 0.234409
vn -0.945005 -0.248465 0.212675
vn -0.676354 -0.587622 0.444125
vn -0.674204 -0.612274 0.413001
vn -0.094960 -0.901157 0.422964
vn -0.075087 -0.886583 0.456435
vn 0.364227 -0.901369 0.234248
vn 0.394639 -0.881320 0.259873
vn 0.597717 -0.800980 0.034140
vn 0.582270 -0.812233 0.035186
vn 0.694902 -0.696617 -0.178428
vn 0.636862 -0.747689 -0.188063
vn 0.568670 -0.621602 -0.538727
vn 0.568694 -0.621741 -0.538540
vn 0.337857 -0.367980 -0.866281
vn 0.332879 -0.374018 -0.865622
vn -0.469602 0.027652 -0.882445
vn -0.467232 0.037341 -0.883346
vn -0.820650 0.074050 -0.566612
vn -0.820562 0.074087 -0.566735
vn -0.964146 -0.087096 -0.250674
vn -0.964952 -0.081761 -0.249363
vn -0.990919 -0.134340 -0.005639
vn -0.992377 -0.123151 -0.004677
vn -0.936655 -0.182903 0.298703
vn -0.938461 -0.182911 0.292976
vn -0.626214 -0.374745 0.683683
vn -0.629537 -0.382548 0.676269
vn 0.049602 -0.722222 0.689880
vn 0.054283 -0.713463 0.698587
vn 0.407582 -0.854859 0.321080
vn 0.406355 -0.853366 0.326562
vn 0.497061 -0.867320 0.026209
vn 0.488336 -0.872293 0.025143
vn 0.521839 -0.824553 -0.218624
vn 0.518205 -0.826550 -0.219726
vn 0.554380 -0.555212 -0.620001
vn 0.554381 -0.555212 -0.620001
vn 0.400410 -0.287757 -0.869981
vn 0.400410 -0.287757 -0.869981
vn -0.441408 0.132494 -0.887471
vn -0.441408 0.132495 -0.887471
vn -0.755860 0.098884 -0.647223
vn -0.755860 0.098884 -0.647223
vn -0.954754 -0.138809 -0.263014
vn -0.954754 -0.138809 -0.263014
vn -0.982793 -0.184442 -0.009958
vn -0.982793 -0.184442 -0.009958
vn -0.928245 -0.182787 0.323960
vn -0.928245 -0.182787 0.323960
vn -0.580388 -0.277925 0.765446
vn -0.580388 -0.277925 0.765446
vn 0.100986 -0.618080 0.779602
vn 0.100986 -0.618080 0.779602
vn 0.400548 -0.846145 0.351567
vn 0.400548 -0.846145 0.351567
vn 0.443082 -0.896265 0.019666
vn 0.443082 -0.896265 0.019666
vn 0.471121 -0.850631 -0.233391
vn 0.471121 -0.850631 -0.233391
vn -0.444969 -0.895546 0.000000
vn -0.444969 -0.895546 0.000000
vn -0.444969 -0.895546 0.000000
vn -0.444969 -0.895546 0.000000
vn -0.444969 -0.895546 0.000000
vn -0.444969 -0.895546 0.000000
vn -0.444969 -0.895546 0.000000
vn -0.444969 -0.895546 0.000000
vn -0.444969 -0.895546 0.000000
vn -0.444969 -0.895546 0.000000
vn -0.444969 -0.895546 0.000000
vn -0.444969 -0.895546 0.000000
vn -0.444969 -0.895546 0.000000
vn 0.433620 0.877180 0.206227
vn 0.433620 0.877180 0.206227
vn 0.433620 0.877180 0.206227
vn 0.433620 0.877180 0.206227
vn 0.433620 0.877180 0.206227
vn 0.433620 0.877180 0.206227
vn 0.433620 0.877180 0.206227
vn 0.433619 0.877180 0.206227
vn 0.433619 0.877180 0.206227
vn 0.433620 0.877180 0.206227
vn 0.433620 0.877180 0.206227
vn 0.433620 0.877180 0.206227
vn 0.433620 0.877180 0.206227
s 1
g pCylinder4
usemtl initialShadingGroup
f 1/13/1 2/14/2 14/27/3 13/26/4
s 2
f 2/14/5 3/15/6 15/28/7 14/27/8
s 3
f 3/15/9 4/16/10 16/29/11 15/28/12
s 4
f 4/16/13 5/17/14 17/30/15 16/29/16
s 5
f 5/17/17 6/18/18 18/31/19 17/30/20
s 6
f 6/18/21 7/19/22 19/32/23 18/31/24
s 7
f 7/19/25 8/20/26 20/33/27 19/32/28
s 8
f 8/20/29 9/21/30 21/34/31 20/33/32
s 9
f 9/21/33 10/22/34 22/35/35 21/34/36
s 10
f 10/22/37 11/23/38 23/36/39 22/35/40
s 11
f 11/23/41 12/24/42 24/37/43 23/36/44
s 12
f 12/24/45 1/25/46 13/38/47 24/37/48
s 1
f 13/26/4 14/27/3 26/40/49 25/39/50
s 2
f 14/27/8 15/28/7 27/41/51 26/40/52
s 3
f 15/28/12 16/29/11 28/42/53 27/41/54
s 4
f 16/29/16 17/30/15 29/43/55 28/42/56
s 5
f 17/30/20 18/31/19 30/44/57 29/43/58
s 6
f 18/31/24 19/32/23 31/45/59 30/44/60
s 7
f 19/32/28 20/33/27 32/46/61 31/45/62
s 8
f 20/33/32 21/34/31 33/47/63 32/46/64
s 9
f 21/34/36 22/35/35 34/48/65 33/47/66
s 10
f 22/35/40 23/36/39 35/49/67 34/48/68
s 11
f 23/36/44 24/37/43 36/50/69 35/49/70
s 12
f 24/37/48 13/38/47 25/51/71 36/50/72
s 1
f 25/39/50 26/40/49 38/53/73 37/52/74
s 2
f 26/40/52 27/41/51 39/54/75 38/53/76
s 3
f 27/41/54 28/42/53 40/55/77 39/54/78
s 4
f 28/42/56 29/43/55 41/56/79 40/55/80
s 5
f 29/43/58 30/44/57 42/57/81 41/56/82
s 6
f 30/44/60 31/45/59 43/58/83 42/57/84
s 7
f 31/45/62 32/46/61 44/59/85 43/58/86
s 8
f 32/46/64 33/47/63 45/60/87 44/59/88
s 9
f 33/47/66 34/48/65 46/61/89 45/60/90
s 10
f 34/48/68 35/49/67 47/62/91 46/61/92
s 11
f 35/49/70 36/50/69 48/63/93 47/62/94
s 12
f 36/50/72 25/51/71 37/64/95 48/63/96
s 1
f 37/52/74 38/53/73 50/66/97 49/65/98
s 2
f 38/53/76 39/54/75 51/67/99 50/66/100
s 3
f 39/54/78 40/55/77 52/68/101 51/67/102
s 4
f 40/55/80 41/56/79 53/69/103 52/68/104
s 5
f 41/56/82 42/57/81 54/70/105 53/69/106
s 6
f 42/57/84 43/58/83 55/71/107 54/70/108
s 7
f 43/58/86 44/59/85 56/72/109 55/71/110
s 8
f 44/59/88 45/60/87 57/73/111 56/72/112
s 9
f 45/60/90 46/61/89 58/74/113 57/73/114
s 10
f 46/61/92 47/62/91 59/75/115 58/74/116
s 11
f 47/62/94 48/63/93 60/76/117 59/75/118
s 12
f 48/63/96 37/64/95 49/77/119 60/76/120
s 1
f 49/65/98 50/66/97 62/79/121 61/78/122
s 2
f 50/66/100 51/67/99 63/80/123 62/79/124
s 3
f 51/67/102 52/68/101 64/81/125 63/80/126
s 4
f 52/68/104 53/69/103 65/82/127 64/81/128
s 5
f 53/69/106 54/70/105 66/83/129 65/82/130
s 6
f 54/70/108 55/71/107 67/84/131 66/83/132
s 7
f 55/71/110 56/72/109 68/85/133 67/84/134
s 8
f 56/72/112 57/73/111 69/86/135 68/85/136
s 9
f 57/73/114 58/74/113 70/87/137 69/86/138
s 10
f 58/74/116 59/75/115 71/88/139 70/87/140
s 11
f 59/75/118 60/76/117 72/89/141 71/88/142
s 12
f 60/76/120 49/77/119 61/90/143 72/89/144
s 1
f 61/78/122 62/79/121 74/92/145 73/91/146
s 2
f 62/79/124 63/80/123 75/93/147 74/92/148
s 3
f 63/80/126 64/81/125 76/94/149 75/93/150
s 4
f 64/81/128 65/82/127 77/95/151 76/94/152
s 5
f 65/82/130 66/83/129 78/96/153 77/95/154
s 6
f 66/83/132 67/84/131 79/97/155 78/96/156
s 7
f 67/84/134 68/85/133 80/98/157 79/97/158
s 8
f 68/85/136 69/86/135 81/99/159 80/98/160
s 9
f 69/86/138 70/87/137 82/100/161 81/99/162
s 10
f 70/87/140 71/88/139 83/101/163 82/100/164
s 11
f 71/88/142 72/89/141 84/102/165 83/101/166
s 12
f 72/89/144 61/90/143 73/103/167 84/102/168
s 1
f 73/91/146 74/92/145 86/105/169 85/104/170
s 2
f 74/92/148 75/93/147 87/106/171 86/105/172
s 3
f 75/93/150 76/94/149 88/107/173 87/106/174
s 4
f 76/94/152 77/95/151 89/108/175 88/107/176
s 5
f 77/95/154 78/96/153 90/109/177 89/108/178
s 6
f 78/96/156 79/97/155 91/110/179 90/109/180
s 7
f 79/97/158 80/98/157 92/111/181 91/110/182
s 8
f 80/98/160 81/99/159 93/112/183 92/111/184
s 9
f 81/99/162 82/100/161 94/113/185 93/112/186
s 10
f 82/100/164 83/101/163 95/114/187 94/113/188
s 11
f 83/101/166 84/102/165 96/115/189 95/114/190
s 12
f 84/102/168 73/103/167 85/116/191 96/115/192
s 1
f 85/104/170 86/105/169 98/118/193 97/117/194
s 2
f 86/105/172 87/106/171 99/119/195 98/118/196
s 3
f 87/106/174 88/107/173 100/120/197 99/119/198
s 4
f 88/107/176 89/108/175 101/121/199 100/120/200
s 5
f 89/108/178 90/109/177 102/122/201 101/121/202
s 6
f 90/109/180 91/110/179 103/123/203 102/122/204
s 7
f 91/110/182 92/111/181 104/124/205 103/123/206
s 8
f 92/111/184 93/112/183 105/125/207 104/124/208
s 9
f 93/112/186 94/113/185 106/126/209 105/125/210
s 10
f 94/113/188 95/114/187 107/127/211 106/126/212
s 11
f 95/114/190 96/115/189 108/128/213 107/127/214
s 12
f 96/115/192 85/116/191 97/129/215 108/128/216
s 13
f 2/2/217 1/1/218 109/142/219
f 3/3/220 2/2/217 109/142/219
f 4/4/221 3/3/220 109/142/219
f 5/5/222 4/4/221 109/142/219
f 6/6/223 5/5/222 109/142/219
f 7/7/224 6/6/223 109/142/219
f 8/8/225 7/7/224 109/142/219
f 9/9/226 8/8/225 109/142/219
f 10/10/227 9/9/226 109/142/219
f 11/11/228 10/10/227 109/142/219
f 12/12/229 11/11/228 109/142/219
f 1/1/218 12/12/229 109/142/219
s 14
f 97/140/230 98/139/231 110/143/232
f 98/139/231 99/138/233 110/143/232
f 99/138/233 100/137/234 110/143/232
f 100/137/234 101/136/235 110/143/232
f 101/136/235 102/135/236 110/143/232
f 102/135/236 103/134/237 110/143/232
f 103/134/237 104/133/238 110/143/232
f 104/133/238 105/132/239 110/143/232
f 105/132/239 106/131/240 110/143/232
f 106/131/240 107/130/241 110/143/232
f 107/130/241 108/141/242 110/143/232
f 108/141/242 97/140/230 110/143/232
g default
v 4.194302 3.639844 -10.552851
v 4.202519 3.631730 -10.552851
v 4.204184 3.635823 -10.542182
v 4.208205 3.645705 -10.537763
v 4.198323 3.649726 -10.542182
v 4.194230 3.651391 -10.552851
v 4.325881 3.586312 -10.552851
v 4.333995 3.594529 -10.552851
v 4.329902 3.596194 -10.542182
v 4.320020 3.600214 -10.537763
v 4.315999 3.590332 -10.542182
v 4.314334 3.586239 -10.552851
v 4.247834 3.771423 -10.552851
v 4.239721 3.763206 -10.552851
v 4.243814 3.761541 -10.542182
v 4.253696 3.757521 -10.537763
v 4.257717 3.767403 -10.542182
v 4.259382 3.771496 -10.552851
v 4.379413 3.717892 -10.552851
v 4.371196 3.726005 -10.552851
v 4.369531 3.721912 -10.542182
v 4.365511 3.712030 -10.537763
v 4.375393 3.708009 -10.542182
v 4.379486 3.706344 -10.552851
v 4.243814 3.761541 -10.684233
v 4.239721 3.763206 -10.673565
v 4.247834 3.771423 -10.673565
v 4.259382 3.771496 -10.673565
v 4.257717 3.767403 -10.684233
v 4.253696 3.757521 -10.688652
v 4.375393 3.708009 -10.684233
v 4.365511 3.712030 -10.688652
v 4.369531 3.721912 -10.684233
v 4.371196 3.726005 -10.673565
v 4.379413 3.717892 -10.673565
v 4.379486 3.706344 -10.673565
v 4.194302 3.639844 -10.673565
v 4.194230 3.651391 -10.673565
v 4.198323 3.649726 -10.684233
v 4.208205 3.645705 -10.688652
v 4.204184 3.635823 -10.684233
v 4.202519 3.631730 -10.673565
v 4.325881 3.586312 -10.673565
v 4.314334 3.586239 -10.673565
v 4.315999 3.590332 -10.684233
v 4.320020 3.600214 -10.688652
v 4.329902 3.596194 -10.684233
v 4.333995 3.594529 -10.673565
v 4.196857 3.640921 -10.544144
v 4.324804 3.588867 -10.544144
v 4.248911 3.768868 -10.544144
v 4.376858 3.716814 -10.544144
v 4.248911 3.768868 -10.682272
v 4.376858 3.716814 -10.682272
v 4.196857 3.640921 -10.682272
v 4.324804 3.588867 -10.682272
v 4.343384 3.882785 -10.573635
v 4.378685 3.868423 -10.573635
v 4.358265 3.919362 -10.580998
v 4.393567 3.905000 -10.580998
v 4.371374 3.951583 -10.591395
v 4.406675 3.937221 -10.591395
v 4.382738 3.979516 -10.606148
v 4.418039 3.965154 -10.606148
v 4.391562 4.001206 -10.621370
v 4.426864 3.986843 -10.621370
v 4.396045 4.012225 -10.628569
v 4.431347 3.997863 -10.628569
v 4.396202 4.012610 -10.634580
v 4.431503 3.998247 -10.634580
v 4.391562 4.001206 -10.630856
v 4.426864 3.986843 -10.630856
v 4.382738 3.979516 -10.627287
v 4.418039 3.965154 -10.627287
v 4.371374 3.951583 -10.628209
v 4.406675 3.937221 -10.628209
v 4.358265 3.919362 -10.634572
v 4.393567 3.905000 -10.634572
v 4.343384 3.882785 -10.645661
v 4.378685 3.868423 -10.645661
v 4.400793 4.023894 -10.638219
v 4.391562 4.001206 -10.626113
v 4.378763 3.981133 -10.615402
v 4.366445 3.968058 -10.613694
v 4.378685 3.868423 -10.609649
v 4.393567 3.905000 -10.607784
v 4.406675 3.937221 -10.609803
v 4.418039 3.965154 -10.615402
v 4.426864 3.986843 -10.626113
v 4.436094 4.009532 -10.638219
v 4.362586 3.828853 -10.611699
v 4.362586 3.828853 -10.572090
v 4.327285 3.843215 -10.572090
v 4.327285 3.843215 -10.651308
v 4.362586 3.828853 -10.651308
v 4.350549 3.799264 -10.611699
v 4.350549 3.799264 -10.574732
v 4.315247 3.813626 -10.574732
v 4.315247 3.813626 -10.648667
v 4.350549 3.799264 -10.648667
v 4.293927 3.786984 -10.611699
v 4.338221 3.768963 -10.611699
v 4.338221 3.768963 -10.582536
v 4.296407 3.785975 -10.582536
v 4.296407 3.785975 -10.640863
v 4.338221 3.768963 -10.640863
v 4.291476 3.755197 -10.611699
v 4.326777 3.740834 -10.611699
v 4.331716 3.752974 -10.591313
v 4.296414 3.767336 -10.591313
v 4.296414 3.767336 -10.632085
v 4.331716 3.752974 -10.632085
v 4.396375 4.013035 -10.632425
v 4.431222 3.997556 -10.631829
v 4.328338 3.883800 -10.587109
v 4.338577 3.908969 -10.594528
v 4.357403 3.956534 -10.612726
v 4.347010 3.929696 -10.600238
v 4.337315 3.905865 -10.620255
v 4.344943 3.924617 -10.617112
v 4.327075 3.880696 -10.624998
v 4.316562 3.854856 -10.585528
v 4.316217 3.854009 -10.632342
v 4.306808 3.830881 -10.585874
v 4.308186 3.834267 -10.633866
v 4.295684 3.803539 -10.612186
v 4.300067 3.814312 -10.592938
v 4.300067 3.814312 -10.630179
v 4.347447 3.905360 -10.607383
v 4.330927 3.882418 -10.606555
v 4.337207 3.880192 -10.587109
v 4.347447 3.905360 -10.594528
v 4.366272 3.952926 -10.612726
v 4.355880 3.926087 -10.600238
v 4.346184 3.902256 -10.620255
v 4.353813 3.921008 -10.617112
v 4.335945 3.877088 -10.624998
v 4.319725 3.854884 -10.609501
v 4.325432 3.851247 -10.585528
v 4.325087 3.850401 -10.632342
v 4.311349 3.834296 -10.610828
v 4.315678 3.827273 -10.585874
v 4.317055 3.830659 -10.633866
v 4.304554 3.799931 -10.612186
v 4.308937 3.810704 -10.592938
v 4.308937 3.810704 -10.630179
vt 0.399997 0.975004
vt 0.399997 0.024997
vt 0.600002 0.975004
vt 0.649996 0.024997
vt 0.399997 0.225003
vt 0.600002 0.225003
vt 0.649996 0.225003
vt 0.150000 0.024997
vt 0.399997 0.475000
vt 0.600002 0.475000
vt 0.850000 0.225003
vt 0.850000 0.024997
vt 0.600002 0.775000
vt 0.399997 0.725003
vt 0.600002 0.725003
vt 0.600002 0.024997
vt 0.399997 0.274996
vt 0.600002 0.274996
vt 0.399997 0.524997
vt 0.600002 0.524997
vt 0.399997 0.775000
vt 0.350004 0.024997
vt 0.350004 0.225003
vt 0.150000 0.225003
vt 0.375000 0.983565
vt 0.358565 0.000000
vt 0.391438 0.000000
vt 0.391438 1.000000
vt 0.375000 0.024216
vt 0.641435 0.000000
vt 0.625000 0.983565
vt 0.624999 0.024216
vt 0.608562 1.000000
vt 0.608562 0.000000
vt 0.358565 0.250000
vt 0.375000 0.266435
vt 0.375000 0.225784
vt 0.399216 0.250000
vt 0.625000 0.266435
vt 0.641435 0.250000
vt 0.600783 0.250000
vt 0.624999 0.225784
vt 0.125000 0.233563
vt 0.375000 0.516437
vt 0.375000 0.483563
vt 0.141437 0.250000
vt 0.399216 0.499998
vt 0.625000 0.516437
vt 0.875000 0.233563
vt 0.600783 0.499998
vt 0.858563 0.250000
vt 0.625000 0.483563
vt 0.141437 0.000000
vt 0.375000 0.766437
vt 0.375000 0.733563
vt 0.125000 0.016437
vt 0.399216 0.750002
vt 0.625000 0.766437
vt 0.858563 0.000000
vt 0.600783 0.750002
vt 0.875000 0.016437
vt 0.625000 0.733563
vt 0.375000 1.000000
vt 0.375000 0.000000
vt 0.625000 0.000000
vt 0.625000 1.000000
vt 0.375000 0.250000
vt 0.625000 0.250000
vt 0.125000 0.250000
vt 0.375000 0.500000
vt 0.625000 0.500000
vt 0.875000 0.250000
vt 0.125000 0.000000
vt 0.375000 0.750000
vt 0.625000 0.750000
vt 0.875000 0.000000
vt 0.375000 0.000000
vt 0.625000 0.000000
vt 0.625000 0.050000
vt 0.375000 0.050000
vt 0.625000 0.100000
vt 0.375000 0.100000
vt 0.625000 0.150000
vt 0.375000 0.150000
vt 0.625000 0.200000
vt 0.375000 0.200000
vt 0.625000 0.250000
vt 0.375000 0.250000
vt 0.625000 0.375000
vt 0.375000 0.375000
vt 0.375000 0.500000
vt 0.625000 0.500000
vt 0.625000 0.550000
vt 0.375000 0.550000
vt 0.625000 0.600000
vt 0.375000 0.600000
vt 0.625000 0.650000
vt 0.375000 0.650000
vt 0.625000 0.700000
vt 0.375000 0.700000
vt 0.625000 0.750000
vt 0.375000 0.750000
vt 0.375000 0.875000
vt 0.625000 0.875000
vt 0.625000 1.000000
vt 0.375000 1.000000
vt 0.750000 0.000000
vt 0.750000 0.050000
vt 0.750000 0.100000
vt 0.750000 0.150000
vt 0.750000 0.200000
vt 0.750000 0.223609
vt 0.750000 0.250000
vt 0.250000 0.050000
vt 0.250000 0.000000
vt 0.375000 0.000000
vt 0.375000 0.050000
vt 0.250000 0.100000
vt 0.375000 0.100000
vt 0.250000 0.150000
vt 0.250000 0.100000
vt 0.250000 0.200000
vt 0.250000 0.250000
vt 0.250000 0.226071
vt 0.125000 0.250000
vt 0.125000 0.150000
vt 0.125000 0.200000
vt 0.125000 0.100000
vt 0.125000 0.050000
vt 0.125000 0.100000
vt 0.125000 0.000000
vt 0.375000 0.750000
vt 0.625000 0.750000
vt 0.875000 0.000000
vt 0.875000 0.050000
vt 0.875000 0.100000
vt 0.875000 0.150000
vt 0.875000 0.200000
vt 0.875000 0.250000
vt 0.625000 0.875000
vt 0.625000 1.000000
vt 0.625000 1.000000
vt 0.625000 0.875000
vt 0.375000 1.000000
vt 0.375000 1.000000
vt 0.375000 1.000000
vt 0.375000 0.875000
vt 0.375000 0.875000
vt 0.375000 1.000000
vt 0.625000 0.750000
vt 0.375000 0.750000
vt 0.375000 0.750000
vt 0.375000 0.750000
vt 0.625000 1.000000
vt 0.625000 0.875000
vt 0.375000 1.000000
vt 0.375000 0.875000
vt 0.375000 1.000000
vt 0.625000 0.750000
vt 0.375000 0.750000
vt 0.375000 0.750000
vt 0.625000 1.000000
vt 0.625000 0.875000
vt 0.375000 1.000000
vt 0.375000 0.875000
vt 0.375000 1.000000
vt 0.625000 0.750000
vt 0.375000 0.750000
vt 0.375000 0.750000
vt 0.375000 0.875000
vt 0.375000 0.050000
vt 0.375000 0.000000
vt 0.375000 0.100000
vt 0.250000 0.100000
vt 0.125000 0.100000
vt 0.125000 0.050000
vt 0.125000 0.050000
vt 0.125000 0.000000
vt 0.125000 0.000000
vt 0.375000 1.000000
vt 0.375000 1.000000
vt 0.375000 0.750000
vt 0.375000 0.750000
vt 0.375000 1.000000
vt 0.375000 0.750000
vt 0.375000 1.000000
vt 0.375000 0.875000
vt 0.375000 0.750000
vn -0.406740 -0.912958 0.032710
vn -0.700634 -0.713205 0.021207
vn -0.700636 -0.713204 -0.021208
vn -0.406743 -0.912957 -0.032710
vn -0.999768 -0.003767 0.021204
vn -0.937612 0.346143 0.032712
vn -0.937611 0.346143 -0.032711
vn -0.999768 -0.003767 -0.021205
vn -0.042629 -0.017974 0.998929
vn -0.162944 -0.344225 0.924640
vn -0.123654 -0.360211 0.924639
vn 0.017972 -0.042630 0.998929
vn -0.368080 -0.848507 0.380202
vn -0.346144 -0.937611 0.032710
vn -0.328796 -0.864487 0.380204
vn -0.864473 0.328810 0.380223
vn -0.848490 0.368093 0.380226
vn -0.912958 0.406740 0.032712
vn -0.360189 0.123649 0.924649
vn -0.017972 0.042630 0.998929
vn -0.344207 0.162946 0.924646
vn 0.912957 -0.406744 0.032712
vn 0.713193 -0.700646 0.021205
vn 0.713191 -0.700648 -0.021205
vn 0.912956 -0.406744 -0.032713
vn 0.003716 -0.999768 0.021208
vn -0.346147 -0.937610 -0.032710
vn 0.003716 -0.999768 -0.021209
vn 0.344210 -0.162945 0.924645
vn 0.360197 -0.123651 0.924645
vn 0.042629 0.017973 0.998929
vn 0.848491 -0.368094 0.380223
vn 0.937612 -0.346142 0.032712
vn 0.864473 -0.328811 0.380225
vn -0.713224 0.700615 0.021208
vn -0.713222 0.700617 -0.021208
vn -0.912958 0.406741 -0.032711
vn -0.003717 0.999768 0.021208
vn 0.346145 0.937611 0.032711
vn 0.346145 0.937611 -0.032711
vn -0.003717 0.999768 -0.021209
vn 0.328810 0.864475 0.380219
vn 0.368096 0.848492 0.380219
vn 0.406742 0.912957 0.032711
vn 0.123654 0.360204 0.924642
vn 0.162944 0.344219 0.924642
vn 0.700634 0.713205 0.021209
vn 0.700636 0.713204 -0.021209
vn 0.406743 0.912957 -0.032712
vn 0.999768 0.003765 0.021205
vn 0.937611 -0.346143 -0.032713
vn 0.999768 0.003764 -0.021205
vn -0.848476 0.368095 -0.380257
vn -0.864460 0.328806 -0.380256
vn -0.344207 0.162941 -0.924647
vn -0.017981 0.042630 -0.998929
vn -0.042635 -0.017974 -0.998929
vn -0.360192 0.123652 -0.924647
vn 0.123634 0.360201 -0.924646
vn 0.162928 0.344219 -0.924645
vn 0.042621 0.017973 -0.998930
vn 0.328812 0.864463 -0.380246
vn 0.368103 0.848477 -0.380245
vn 0.360200 -0.123653 -0.924644
vn 0.344212 -0.162941 -0.924645
vn 0.017967 -0.042631 -0.998929
vn 0.864459 -0.328809 -0.380256
vn 0.848476 -0.368095 -0.380255
vn -0.368106 -0.848485 -0.380226
vn -0.328816 -0.864469 -0.380228
vn -0.162931 -0.344232 -0.924639
vn -0.123635 -0.360215 -0.924640
vn -0.945045 0.033291 0.325240
vn -0.635900 -0.699885 0.325258
vn -0.423844 -0.178747 0.887922
vn -0.033329 -0.945024 0.325299
vn 0.699896 -0.635894 0.325246
vn 0.178733 -0.423903 0.887897
vn 0.033308 0.945029 0.325285
vn -0.699895 0.635873 0.325289
vn -0.178730 0.423932 0.887883
vn 0.945037 -0.033311 0.325262
vn 0.635892 0.699877 0.325290
vn 0.423922 0.178759 0.887883
vn -0.178735 0.423881 -0.887907
vn -0.699866 0.635894 -0.325309
vn 0.033310 0.945022 -0.325306
vn 0.945029 -0.033331 -0.325283
vn 0.423979 0.178726 -0.887862
vn 0.635914 0.699856 -0.325292
vn -0.635922 -0.699856 -0.325278
vn -0.945030 0.033296 -0.325284
vn -0.423905 -0.178716 -0.887900
vn 0.699862 -0.635917 -0.325272
vn -0.033330 -0.945019 -0.325312
vn 0.178772 -0.423849 -0.887915
vn 0.069069 0.169772 0.983060
vn 0.069069 0.169772 0.983060
vn 0.087641 0.215419 0.972581
vn 0.087641 0.215419 0.972581
vn 0.136091 0.334520 0.932510
vn 0.136092 0.334521 0.932510
vn 0.184006 0.452293 0.872681
vn 0.184006 0.452293 0.872681
vn 0.201998 0.496489 0.844213
vn 0.201998 0.496489 0.844213
vn 0.195096 0.479502 0.855579
vn 0.195096 0.479502 0.855579
vn 0.229167 0.563290 0.793843
vn 0.229167 0.563290 0.793843
vn 0.375924 0.924090 0.068842
vn 0.375924 0.924089 0.068851
vn -0.109096 -0.268183 -0.957171
vn -0.109096 -0.268183 -0.957171
vn -0.075358 -0.185253 -0.979797
vn -0.075358 -0.185253 -0.979797
vn -0.018581 -0.045703 -0.998782
vn -0.018581 -0.045703 -0.998782
vn 0.042026 0.103263 -0.993766
vn 0.042025 0.103263 -0.993766
vn 0.086195 0.211878 -0.973488
vn 0.086195 0.211878 -0.973488
vn 0.101865 0.250432 -0.962760
vn 0.101865 0.250432 -0.962760
vn -0.376845 -0.926276 0.000000
vn -0.376845 -0.926276 0.000000
vn -0.317001 -0.779160 0.540758
vn -0.317001 -0.779160 0.540758
vn 0.926273 -0.376853 0.000000
vn 0.926275 -0.376847 0.000000
vn 0.926276 -0.376847 0.000000
vn 0.926275 -0.376849 0.000000
vn 0.926278 -0.376842 0.000000
vn 0.926282 -0.376832 0.000000
vn 0.926275 -0.376848 0.000000
vn 0.926288 -0.376817 0.000000
vn 0.926280 -0.376836 0.000000
vn 0.926267 -0.376868 0.000000
vn 0.926306 -0.376771 0.000032
vn 0.926306 -0.376771 0.000034
vn 0.926327 -0.376721 0.000105
vn -0.897016 0.441994 0.001641
vn -0.896595 0.442524 0.017001
vn -0.874986 0.408117 0.260460
vn -0.880383 0.456257 0.129441
vn -0.928349 0.371691 0.003683
vn -0.927878 0.372617 0.014124
vn -0.827674 0.561181 0.005643
vn -0.814076 0.580527 -0.016432
vn -0.649132 0.511409 0.563107
vn -0.668622 0.577404 0.468561
vn -0.894195 0.443885 -0.058150
vn -0.792796 0.554805 0.252322
vn -0.926260 0.376885 0.000066
vn -0.926274 0.376852 0.000013
vn -0.926269 0.376862 0.000020
vn -0.926300 0.376786 -0.000066
vn -0.803778 0.406151 -0.434720
vn -0.904815 0.378653 -0.194759
vn -0.663738 0.382910 -0.642520
vn -0.874799 0.454950 -0.166577
vn -0.928878 0.370175 -0.012511
vn -0.853960 0.433324 -0.288065
vn -0.316988 -0.779168 -0.540755
vn -0.316988 -0.779168 -0.540755
vn 0.926278 -0.376842 0.000000
vn 0.926277 -0.376845 0.000000
vn 0.926271 -0.376858 0.000000
vn 0.926271 -0.376859 0.000000
vn 0.926285 -0.376824 0.000000
vn 0.926302 -0.376783 0.000000
vn -0.107877 -0.265125 -0.958160
vn -0.107877 -0.265125 -0.958160
vn 0.926274 -0.376851 0.000000
vn 0.926274 -0.376851 0.000000
vn 0.926274 -0.376851 0.000000
vn 0.926274 -0.376851 0.000000
vn 0.013628 0.033477 0.999347
vn 0.013628 0.033477 0.999347
vn 0.013628 0.033477 0.999347
vn 0.013628 0.033477 0.999347
vn -0.920240 0.391337 0.003793
vn -0.892790 0.354810 0.277554
vn 0.049378 0.121380 -0.991377
vn 0.049378 0.121380 -0.991377
vn 0.049378 0.121380 -0.991377
vn 0.049378 0.121380 -0.991377
vn 0.926276 -0.376847 0.000000
vn 0.926276 -0.376847 0.000000
vn 0.926276 -0.376847 0.000000
vn 0.926276 -0.376847 0.000000
vn -0.871097 0.392527 -0.295149
vn 0.926273 -0.376852 0.000000
vn 0.926273 -0.376852 0.000000
vn 0.926274 -0.376852 0.000000
vn 0.926273 -0.376852 0.000000
vn -0.031057 -0.076343 0.996598
vn -0.031057 -0.076343 0.996598
vn -0.031057 -0.076343 0.996598
vn -0.031057 -0.076343 0.996598
vn -0.948262 0.317485 0.001779
vn -0.930667 0.294016 0.217748
vn -0.031058 -0.076316 -0.996600
vn -0.031058 -0.076316 -0.996600
vn -0.031058 -0.076316 -0.996600
vn -0.031058 -0.076316 -0.996600
vn 0.926273 -0.376853 0.000000
vn 0.926273 -0.376853 0.000000
vn 0.926273 -0.376853 0.000000
vn 0.926273 -0.376853 0.000000
vn -0.920881 0.312783 -0.232689
vn 0.926277 -0.376845 0.000000
vn 0.926277 -0.376845 0.000000
vn 0.926276 -0.376845 0.000000
vn 0.926277 -0.376845 0.000000
vn -0.087453 -0.214938 0.972704
vn -0.087453 -0.214938 0.972704
vn -0.087453 -0.214938 0.972704
vn -0.087453 -0.214938 0.972704
vn -0.969679 0.243930 -0.014874
vn -0.959032 0.226799 0.169766
vn -0.087452 -0.214964 -0.972699
vn -0.087452 -0.214964 -0.972699
vn -0.087452 -0.214964 -0.972699
vn -0.087452 -0.214964 -0.972699
vn 0.926274 -0.376851 0.000000
vn 0.926274 -0.376851 0.000000
vn 0.926274 -0.376851 0.000000
vn 0.926274 -0.376851 0.000000
vn -0.948897 0.252403 -0.189437
vn 0.926284 -0.376827 0.000000
vn 0.926284 -0.376827 0.000000
vn 0.926284 -0.376827 0.000000
vn 0.926284 -0.376827 0.000000
vn -0.170818 -0.419836 0.891381
vn -0.170818 -0.419836 0.891380
vn -0.170818 -0.419836 0.891381
vn -0.170818 -0.419836 0.891380
vn -0.961880 0.117674 0.246860
vn -0.996461 0.084054 0.001015
vn -0.989458 0.023065 0.142971
vn -0.989458 0.023065 0.142971
vn -0.170819 -0.419838 -0.891379
vn -0.170819 -0.419838 -0.891379
vn -0.170819 -0.419838 -0.891379
vn -0.170819 -0.419838 -0.891379
vn 0.926287 -0.376818 0.000000
vn 0.926287 -0.376818 0.000000
vn 0.926287 -0.376818 0.000000
vn 0.926287 -0.376818 0.000000
vn -0.957323 0.132519 -0.256851
vn -0.989457 0.023066 -0.142976
vn -0.989457 0.023066 -0.142976
vn -0.625437 0.356921 0.693856
vn -0.638060 0.437605 0.633547
vn -0.631816 0.424835 0.648324
vn -0.625029 0.345377 0.700039
vn -0.646469 0.466869 0.603416
vn -0.818993 0.570547 -0.061041
vn -0.665116 0.386810 -0.638748
vn -0.685388 0.406327 -0.604270
vn -0.699228 0.422334 -0.576814
vn -0.708209 0.417898 -0.569036
vn -0.708462 0.415236 -0.570667
vn -0.627056 0.248178 0.738382
vn -0.624961 0.262804 0.735090
vn -0.714221 0.341640 -0.610877
vn -0.712823 0.365391 -0.598643
vn -0.707170 0.218602 0.672401
vn -0.673619 0.217383 0.706387
vn -0.731577 0.271991 -0.625153
vn -0.722957 0.274471 -0.634033
vn -0.871406 0.198988 0.448393
vn -0.989317 0.145761 -0.002309
vn -0.852789 0.236537 -0.465619
vn -0.099280 -0.244001 -0.964680
vn -0.099280 -0.244001 -0.964680
vn -0.099280 -0.244001 -0.964680
vn -0.099280 -0.244001 -0.964680
vn -0.093141 -0.228995 -0.968961
vn -0.093141 -0.228995 -0.968961
vn -0.093141 -0.228995 -0.968961
vn -0.093141 -0.228995 -0.968961
vn -0.149993 -0.368745 -0.917349
vn -0.149993 -0.368745 -0.917349
vn -0.149993 -0.368745 -0.917349
vn -0.149993 -0.368745 -0.917349
vn -0.047828 -0.117632 0.991905
vn -0.047828 -0.117632 0.991905
vn -0.047828 -0.117632 0.991905
vn -0.047828 -0.117632 0.991905
vn -0.057822 -0.142078 0.988165
vn -0.057822 -0.142078 0.988165
vn -0.057822 -0.142078 0.988165
vn -0.057822 -0.142078 0.988165
vn -0.064782 -0.159297 0.985103
vn -0.064782 -0.159297 0.985103
vn -0.064782 -0.159297 0.985103
vn -0.064782 -0.159297 0.985103
vn -0.018975 -0.046780 -0.998725
vn -0.018975 -0.046780 -0.998725
vn -0.018975 -0.046780 -0.998725
vn -0.018975 -0.046780 -0.998725
vn -0.093046 -0.228800 0.969017
vn -0.093046 -0.228800 0.969017
vn -0.093046 -0.228800 0.969017
vn -0.093046 -0.228800 0.969017
vn 0.005050 0.012354 -0.999911
vn 0.005050 0.012354 -0.999911
vn 0.005050 0.012354 -0.999911
vn 0.005050 0.012354 -0.999911
vn -0.026965 -0.066062 0.997451
vn -0.026965 -0.066062 0.997451
vn -0.026965 -0.066062 0.997451
vn -0.026965 -0.066062 0.997451
vn 0.322547 0.792789 -0.517155
vn 0.322547 0.792789 -0.517155
vn 0.322547 0.792789 -0.517155
vn 0.322547 0.792789 -0.517155
vn 0.138414 0.340239 -0.930096
vn 0.138414 0.340239 -0.930096
vn 0.138414 0.340239 -0.930096
vn 0.138414 0.340239 -0.930096
vn 0.063634 0.156299 0.985658
vn 0.063634 0.156299 0.985658
vn 0.063634 0.156299 0.985658
vn 0.063634 0.156299 0.985658
vn 0.316430 0.777917 0.542879
vn 0.316430 0.777917 0.542879
vn 0.316430 0.777917 0.542879
vn 0.316430 0.777917 0.542879
s 1
g pCube32
usemtl pasted__standardSurface1SG1
f 112/144/243 111/168/244 147/197/245 152/164/246
s 2
f 111/169/247 116/165/248 148/151/249 147/196/250
s 3
f 114/145/251 113/170/252 121/177/253 120/159/254
s 1
f 113/171/255 112/144/243 122/146/256 121/176/257
s 2
f 116/165/248 115/172/258 125/180/259 124/166/260
s 3
f 115/172/261 114/145/251 126/148/262 125/180/263
s 4
f 118/147/264 117/173/265 153/202/266 158/155/267
s 1
f 117/174/268 122/146/256 154/156/269 153/201/270
s 3
f 120/159/254 119/175/271 133/185/272 132/149/273
s 4
f 119/175/274 118/147/264 134/150/275 133/185/276
s 2
f 124/166/260 123/178/277 137/189/278 136/167/279
s 5
f 123/179/280 128/160/281 138/152/282 137/188/283
f 128/160/281 127/181/284 131/184/285 130/161/286
s 3
f 127/181/287 126/148/262 132/149/273 131/184/288
s 5
f 130/161/286 129/182/289 145/195/290 144/153/291
s 4
f 129/183/292 134/150/275 146/154/293 145/194/294
s 2
f 136/167/279 135/186/295 149/199/296 148/151/249
s 6
f 135/187/297 140/162/298 150/157/299 149/198/300
f 140/162/298 139/190/301 143/193/302 142/163/303
s 5
f 139/190/304 138/152/282 144/153/291 143/193/305
s 6
f 142/163/303 141/191/306 157/205/307 156/158/308
s 4
f 141/192/309 146/154/293 158/155/267 157/204/310
s 1
f 152/164/246 151/200/311 155/203/312 154/156/269
s 6
f 151/200/313 150/157/299 156/158/308 155/203/314
s 3
f 114/145/251 120/159/254 132/149/273 126/148/262
s 5
f 128/160/281 130/161/286 144/153/291 138/152/282
s 6
f 140/162/298 142/163/303 156/158/308 150/157/299
s 1
f 152/164/246 154/156/269 122/146/256 112/144/243
s 4
f 118/147/264 158/155/267 146/154/293 134/150/275
s 2
f 148/151/249 116/165/248 124/166/260 136/167/279
f 115/172/258 116/165/248 111/169/247 159/207/315
s 1
f 111/168/244 112/144/243 113/171/255 159/206/316
s 3
f 113/170/252 114/145/251 115/172/261 159/207/317
s 1
f 121/176/257 122/146/256 117/174/268 160/209/318
s 4
f 117/173/265 118/147/264 119/175/274 160/208/319
s 3
f 119/175/271 120/159/254 121/177/253 160/208/320
s 5
f 127/181/284 128/160/281 123/179/280 161/210/321
s 2
f 123/178/277 124/166/260 125/180/259 161/210/322
s 3
f 125/180/263 126/148/262 127/181/287 161/210/323
s 4
f 133/185/276 134/150/275 129/183/292 162/211/324
s 5
f 129/182/289 130/161/286 131/184/285 162/211/325
s 3
f 131/184/288 132/149/273 133/185/272 162/211/326
s 6
f 139/190/301 140/162/298 135/187/297 163/213/327
s 2
f 135/186/295 136/167/279 137/189/278 163/212/328
s 5
f 137/188/283 138/152/282 139/190/304 163/213/329
s 4
f 145/194/294 146/154/293 141/192/309 164/215/330
s 6
f 141/191/306 142/163/303 143/193/302 164/214/331
s 5
f 143/193/305 144/153/291 145/195/290 164/214/332
s 1
f 151/200/311 152/164/246 147/197/245 165/217/333
s 2
f 147/196/250 148/151/249 149/199/296 165/216/334
s 6
f 149/198/300 150/157/299 151/200/313 165/217/335
s 4
f 157/204/310 158/155/267 153/202/266 166/219/336
s 1
f 153/201/270 154/156/269 155/203/312 166/218/337
s 6
f 155/203/314 156/158/308 157/205/307 166/218/338
s 7
f 167/220/339 168/221/340 170/222/341 169/223/342
f 169/223/342 170/222/341 172/224/343 171/225/344
f 171/225/344 172/224/343 174/226/345 173/227/346
f 173/227/346 174/226/345 176/228/347 175/229/348
f 175/229/348 176/228/347 178/230/349 177/231/350
s 8
f 177/231/351 178/230/352 200/232/353 191/233/354
s 9
f 179/234/355 180/235/356 182/236/357 181/237/358
f 181/237/358 182/236/357 184/238/359 183/239/360
f 183/239/360 184/238/359 186/240/361 185/241/362
f 185/241/362 186/240/361 188/242/363 187/243/364
f 187/243/364 188/242/363 190/244/365 189/245/366
s 10
f 217/246/367 218/247/368 219/248/369 220/249/370
s 11
f 168/221/371 195/250/372 196/251/373 170/222/374
f 170/222/374 196/251/373 197/252/375 172/224/376
f 172/224/376 197/252/375 198/253/377 174/226/378
f 174/226/378 198/253/377 199/254/379 176/228/380
f 178/230/381 224/255/382 200/256/383
s 12
f 239/257/384 240/258/385 241/259/386 242/260/387
f 243/261/388 239/257/384 242/260/387 244/262/389
s 13
f 193/263/390 194/264/391 171/225/392 173/227/393
f 192/265/394 193/263/390 173/227/393 175/229/395
f 191/266/396 223/267/397 177/231/398
f 179/268/399 223/267/397 191/266/396
f 183/269/400 193/263/390 192/265/394 181/270/401
f 185/271/402 194/264/391 193/263/390 183/269/400
s 12
f 245/272/403 239/257/384 243/261/388 246/273/404
f 247/274/405 240/258/385 239/257/384 245/272/403
s 10
f 221/275/406 222/276/407 218/247/368 217/246/367
s 11
f 196/251/373 195/250/372 190/277/408 188/278/409
f 197/252/375 196/251/373 188/278/409 186/279/410
f 198/253/377 197/252/375 186/279/410 184/280/411
f 199/254/379 198/253/377 184/280/411 182/281/412
f 200/256/383 224/255/382 180/282/413
s 8
f 191/233/354 200/232/353 180/235/414 179/234/415
s off
f 195/283/416 168/284/417 202/285/418 201/286/419
f 168/284/420 167/287/421 203/288/422 202/285/423
s 12
f 241/289/386 240/290/385 248/291/424 249/292/425
s off
f 189/245/426 190/244/427 205/293/428 204/294/429
f 190/244/430 195/283/431 201/286/432 205/293/433
s 12
f 240/290/385 247/295/405 250/296/434 248/291/424
s off
f 201/286/435 202/285/436 207/297/437 206/298/438
f 202/285/439 203/288/440 208/299/441 207/297/442
s 12
f 249/292/425 248/291/424 251/300/443 252/301/444
s off
f 204/294/445 205/293/446 210/302/447 209/303/448
f 205/293/449 201/286/450 206/298/451 210/302/452
s 12
f 248/291/424 250/296/434 253/304/453 251/300/443
s off
f 206/298/454 207/297/455 213/305/456 212/306/457
f 207/297/458 208/299/459 214/307/460 213/305/461
s 12
f 252/301/444 251/300/443 254/308/462 255/309/463
s off
f 209/303/464 210/302/465 216/310/466 215/311/467
f 210/302/468 206/298/469 212/306/470 216/310/471
s 12
f 251/300/443 253/304/453 256/312/472 254/308/462
s off
f 212/306/473 213/305/474 219/248/475 218/247/476
f 213/305/477 214/307/478 220/249/479 219/248/480
s 13
f 214/307/481 211/313/482 217/246/483 220/249/484
s off
f 215/311/485 216/310/486 222/276/487 221/275/488
f 216/310/489 212/306/490 218/247/491 222/276/492
s 13
f 211/313/482 215/311/493 221/275/494 217/246/495
f 181/270/401 192/265/394 223/267/397 179/268/399
f 177/231/398 223/267/397 192/265/394 175/229/395
s 11
f 176/228/380 199/254/379 224/255/382 178/230/381
f 180/282/413 224/255/382 199/254/379 182/281/412
s 13
f 167/220/496 169/223/497 226/314/498 225/315/499
f 169/223/497 171/225/392 228/316/500 226/314/498
f 171/225/392 194/264/391 227/317/501 228/316/500
f 194/264/391 185/271/402 230/318/502 227/317/501
f 185/271/402 187/319/503 229/320/504 230/318/502
f 187/319/503 189/321/505 231/322/506 229/320/504
f 203/288/507 167/287/496 225/323/499 232/324/508
f 189/245/505 204/294/509 233/325/510 231/326/506
f 208/299/511 203/288/507 232/324/508 234/327/512
f 204/294/509 209/303/513 235/328/514 233/325/510
f 211/313/482 214/307/481 237/329/515 236/330/516
f 214/307/481 208/299/511 234/327/512 237/329/515
f 209/303/513 215/311/493 238/331/517 235/328/514
f 215/311/493 211/313/482 236/330/516 238/331/517
s off
f 225/315/518 226/314/519 242/260/520 241/259/521
f 226/314/522 228/316/523 244/262/524 242/260/525
f 228/316/526 227/317/527 243/261/528 244/262/529
f 227/317/530 230/318/531 246/273/532 243/261/533
f 230/318/534 229/320/535 245/272/536 246/273/537
f 229/320/538 231/322/539 247/274/540 245/272/541
f 232/324/542 225/323/543 241/289/544 249/292/545
f 231/326/546 233/325/547 250/296/548 247/295/549
f 234/327/550 232/324/551 249/292/552 252/301/553
f 233/325/554 235/328/555 253/304/556 250/296/557
f 236/330/558 237/329/559 255/309/560 254/308/561
f 237/329/562 234/327/563 252/301/564 255/309/565
f 235/328/566 238/331/567 256/312/568 253/304/569
f 238/331/570 236/330/571 254/308/572 256/312/573
g default
v 4.290876 3.944630 -9.368974
v 4.344050 3.916260 -9.409927
v 4.396101 3.874241 -9.334148
v 4.407835 3.850215 -9.198697
v 4.370415 3.862274 -9.105575
v 4.312019 3.901337 -9.124901
v 4.302703 3.921954 -9.251112
v 4.284451 3.899501 -9.322120
v 4.323400 3.880448 -9.366166
v 4.362644 3.848768 -9.309032
v 4.371490 3.830654 -9.206912
v 4.344519 3.837202 -9.122367
v 4.300493 3.866654 -9.136939
v 4.290314 3.887025 -9.252450
v 4.270934 3.852444 -9.301211
v 4.301001 3.836402 -9.324368
v 4.329292 3.814979 -9.294687
v 4.335927 3.801393 -9.218097
v 4.316010 3.805668 -9.151105
v 4.282990 3.827757 -9.162033
v 4.271752 3.846009 -9.253060
v 4.255093 3.810143 -9.307116
v 4.275072 3.799583 -9.323312
v 4.294878 3.783367 -9.292623
v 4.299596 3.773706 -9.238159
v 4.285673 3.777875 -9.200932
v 4.263594 3.792735 -9.208975
v 4.253079 3.805226 -9.256832
v 4.240924 3.764419 -9.293720
v 4.250947 3.759072 -9.301438
v 4.260757 3.751152 -9.287155
v 4.262969 3.746623 -9.261625
v 4.255916 3.748896 -9.244073
v 4.244909 3.756259 -9.247716
v 4.233684 3.765919 -9.268928
v 4.217949 3.730373 -9.273870
v 4.291984 3.931920 -9.350696
v 4.302055 3.913391 -9.251467
v 4.310316 3.894384 -9.139079
v 4.360946 3.860515 -9.122322
v 4.393390 3.850060 -9.203062
v 4.383217 3.870891 -9.320500
v 4.338087 3.907322 -9.386203
v 4.270829 3.937305 -9.277251
v 4.272987 3.928186 -9.274841
v 4.264526 3.899694 -9.273461
v 4.251358 3.855296 -9.275969
v 4.238514 3.810236 -9.274743
v 4.225443 3.765111 -9.276676
v 4.275532 3.929378 -9.221263
v 4.277862 3.918205 -9.218571
v 4.268765 3.891015 -9.224530
v 4.255191 3.847449 -9.231730
v 4.240207 3.805788 -9.256186
v 4.226770 3.763477 -9.260273
v 4.406360 3.891279 -9.338141
v 4.419115 3.865161 -9.190896
v 4.318482 3.918603 -9.111359
v 4.279791 3.948728 -9.216258
v 4.380006 3.877321 -9.089970
v 4.351345 3.936008 -9.420822
v 4.295498 3.965667 -9.376682
v 4.274685 3.957344 -9.277052
v 4.305267 3.930970 -9.250749
v 4.421903 3.909313 -9.331626
v 4.340321 3.959613 -9.249789
v 4.434891 3.888135 -9.192518
v 4.336813 3.940465 -9.116980
v 4.294187 3.958022 -9.216900
v 4.396588 3.900479 -9.097197
v 4.351361 3.943812 -9.401820
v 4.301277 3.966825 -9.368765
v 4.282503 3.962380 -9.273737
v 4.311782 3.937128 -9.249830
vt 0.655872 0.054542
vt 0.444370 0.006268
vt 0.274758 0.141529
vt 0.274758 0.358471
vt 0.444370 0.493732
vt 0.655872 0.445458
vt 0.750000 0.250000
vt 0.250000 0.500000
vt 0.321429 0.500000
vt 0.392857 0.500000
vt 0.464286 0.500000
vt 0.535714 0.500000
vt 0.607143 0.500000
vt 0.678571 0.500000
vt 0.750000 0.500000
vt 0.300000 0.600000
vt 0.357143 0.600000
vt 0.414286 0.600000
vt 0.471429 0.600000
vt 0.528571 0.600000
vt 0.585714 0.600000
vt 0.642857 0.600000
vt 0.700000 0.600000
vt 0.350000 0.700000
vt 0.392857 0.700000
vt 0.435714 0.700000
vt 0.478571 0.700000
vt 0.521429 0.700000
vt 0.564286 0.700000
vt 0.607143 0.700000
vt 0.650000 0.700000
vt 0.400000 0.800000
vt 0.428571 0.800000
vt 0.457143 0.800000
vt 0.485714 0.800000
vt 0.514286 0.800000
vt 0.542857 0.800000
vt 0.571429 0.800000
vt 0.600000 0.800000
vt 0.450000 0.900000
vt 0.464286 0.900000
vt 0.478571 0.900000
vt 0.492857 0.900000
vt 0.507143 0.900000
vt 0.521429 0.900000
vt 0.535714 0.900000
vt 0.550000 0.900000
vt 0.500000 1.000000
vt 0.529482 0.223632
vt 0.730000 0.540000
vt 0.270000 0.540000
vt 0.664286 0.540000
vt 0.598571 0.540000
vt 0.532857 0.540000
vt 0.467143 0.540000
vt 0.401429 0.540000
vt 0.335714 0.540000
vt 0.714286 0.500000
vt 0.702936 0.152271
vt 0.697143 0.540000
vt 0.671429 0.600000
vt 0.628572 0.700000
vt 0.585714 0.800000
vt 0.542857 0.900000
vt 0.642857 0.500000
vt 0.702936 0.347729
vt 0.631429 0.540000
vt 0.614286 0.600000
vt 0.585714 0.700000
vt 0.557143 0.800000
vt 0.528571 0.900000
vt 0.274758 0.358471
vt 0.274758 0.141529
vt 0.702936 0.347729
vt 0.655872 0.445458
vt 0.444370 0.493732
vt 0.444370 0.006268
vt 0.655872 0.054542
vt 0.702936 0.152271
vt 0.750000 0.250000
vt 0.274758 0.358471
vt 0.274758 0.141529
vt 0.702936 0.347729
vt 0.655872 0.445458
vt 0.444370 0.493732
vt 0.444370 0.006268
vt 0.655872 0.054542
vt 0.702936 0.152271
vt 0.750000 0.250000
vn -0.712927 -0.591662 -0.376392
vn -0.427543 -0.805250 -0.410827
vn -0.354055 -0.737558 -0.575024
vn -0.825197 -0.320811 -0.464898
vn -0.090248 -0.944129 -0.316980
vn 0.285892 -0.877602 -0.384812
vn 0.023626 -0.998811 -0.042643
vn 0.447624 -0.894191 -0.007463
vn -0.285589 -0.922865 0.258379
vn 0.110352 -0.804319 0.583861
vn -0.733899 -0.557313 0.388321
vn -0.827178 -0.003546 0.561929
vn -0.928335 -0.221341 0.298667
vn -0.917865 0.100974 0.383834
vn -0.618615 0.038360 0.784757
vn -0.618615 0.038360 0.784757
vn -0.578030 0.145307 0.802974
vn -0.562165 0.181897 0.806774
vn -0.845266 -0.053094 -0.531701
vn -0.210384 -0.566458 -0.796784
vn -0.112898 -0.462646 -0.879325
vn -0.774349 0.097517 -0.625199
vn 0.544369 -0.737103 -0.400428
vn 0.579875 -0.719087 -0.382959
vn 0.667488 -0.743956 0.031457
vn 0.614744 -0.788518 0.018135
vn 0.289652 -0.614780 0.733585
vn 0.152704 -0.804526 0.573951
vn -0.716035 0.087944 0.692503
vn -0.809012 -0.091324 0.580654
vn -0.888936 0.220893 0.401247
vn -0.909136 0.111917 0.401181
vn -0.595229 0.205584 0.776812
vn -0.586035 0.206219 0.783605
vn -0.650791 0.215796 0.727944
vn -0.658234 0.219006 0.720253
vn 0.037196 -0.258726 -0.965235
vn -0.688520 0.219779 -0.691113
vn 0.615602 -0.675759 -0.405442
vn 0.590055 -0.807357 0.003176
vn 0.040995 -0.865408 0.499387
vn -0.818758 -0.172995 0.547456
vn -0.879452 0.026154 0.475269
vn -0.705158 0.213424 0.676167
vn -0.705719 0.212051 0.676014
vn 0.011519 -0.512026 -0.858893
vn -0.743857 0.079846 -0.663552
vn 0.545091 -0.745789 -0.382982
vn 0.557143 -0.830031 -0.025322
vn 0.045245 -0.845727 0.531694
vn -0.719592 -0.173424 0.672392
vn -0.787020 -0.011153 0.616826
vn -0.714894 0.174372 0.677142
vn -0.717434 0.172074 0.675040
vn 0.530239 0.847815 0.007487
vn 0.411582 0.909266 0.061930
vn 0.562636 0.821140 0.095761
vn -0.621886 -0.036408 -0.782261
vn 0.204016 -0.789983 -0.578191
vn 0.379213 -0.904881 -0.193358
vn 0.274117 -0.933528 0.231054
vn -0.483536 -0.319705 0.814851
vn -0.604048 -0.159758 0.780771
vn -0.681123 0.203731 0.703254
vn 0.460998 0.876518 0.138552
vn 0.031696 0.995197 0.092617
vn 0.541084 0.831942 0.122882
vn 0.448893 0.891564 -0.060068
vn 0.312317 0.948913 -0.044976
vn 0.001748 0.993863 0.110604
vn -0.958615 -0.031195 -0.282993
vn -0.904155 -0.357262 -0.234240
vn -0.913354 0.132648 -0.384952
vn -0.843279 0.215355 -0.492446
vn -0.814433 0.239445 -0.528550
vn -0.806262 0.163035 -0.568649
vn -0.761670 0.198168 -0.616918
vn -0.779391 -0.138738 -0.610984
vn -0.779391 -0.138738 -0.610984
vn -0.751293 0.247929 -0.611629
vn -0.724382 0.344907 -0.596917
vn -0.724774 0.343510 -0.597246
vn -0.671515 0.370959 -0.641449
vn -0.656482 0.380490 -0.651352
vn -0.484191 0.418112 -0.768597
vn -0.487500 0.422832 -0.763909
vn -0.542755 0.368449 -0.754760
vn -0.532780 0.366028 -0.763000
vn -0.330506 0.417937 0.846223
vn -0.475869 0.605146 -0.638237
vn -0.734067 0.104136 -0.671045
vn -0.765952 0.408123 -0.496743
vn 0.826918 -0.536989 -0.166884
vn 0.826918 -0.536989 -0.166884
vn 0.806834 -0.566496 -0.167634
vn 0.806591 -0.566840 -0.167642
vn -0.925331 0.083644 0.369819
vn -0.925331 0.083644 0.369819
vn -0.778973 0.472899 0.411786
vn -0.807822 0.423211 0.410263
vn 0.629878 -0.700341 0.335823
vn 0.629878 -0.700341 0.335822
vn 0.729797 -0.580965 0.360383
vn 0.738893 -0.568090 0.362369
vn -0.527205 -0.409605 0.744499
vn -0.527205 -0.409605 0.744499
vn -0.303826 0.029015 0.952286
vn -0.316097 0.008878 0.948685
vn 0.544063 -0.524626 -0.654800
vn 0.544063 -0.524626 -0.654800
vn 0.718061 -0.207137 -0.664441
vn 0.706259 -0.236857 -0.667156
vn -0.655859 -0.146183 -0.740594
vn -0.655859 -0.146183 -0.740594
vn -0.480751 0.311467 -0.819675
vn -0.576398 0.111473 -0.809530
vn -0.967316 0.164331 -0.193117
vn -0.967316 0.164331 -0.193117
vn -0.884539 0.439387 -0.156619
vn -0.906986 0.387516 -0.164947
vn -0.592368 0.115467 0.797351
vn -0.592368 0.115467 0.797351
vn -0.548141 0.176534 0.817543
vn -0.546752 0.178364 0.818076
vn -0.681468 0.290982 -0.671514
vn -0.681468 0.290982 -0.671514
vn -0.578008 0.464354 -0.671031
vn -0.586126 0.452677 -0.671967
vn 0.792989 -0.585610 -0.168013
vn 0.792989 -0.585610 -0.168013
vn -0.591415 0.701268 0.398059
vn -0.591415 0.701268 0.398060
vn 0.791776 -0.483890 0.372749
vn 0.791776 -0.483890 0.372749
vn -0.091368 0.338149 0.936647
vn -0.091368 0.338150 0.936647
vn 0.795274 0.109893 -0.596206
vn 0.795274 0.109893 -0.596206
vn 0.201510 0.915525 -0.348148
vn 0.201510 0.915525 -0.348148
vn -0.399913 0.916307 -0.021233
vn -0.399913 0.916307 -0.021233
vn -0.465273 0.277880 0.840418
vn -0.465273 0.277880 0.840418
vn -0.449728 0.620107 -0.642816
vn -0.449728 0.620107 -0.642816
s 1
g pCone1
usemtl pasted__pasted__pasted__standardSurface1SG1
f 257/339/574 258/340/575 299/388/576 293/382/577
f 258/340/575 259/341/578 298/387/579 299/388/576
f 259/341/578 260/342/580 297/386/581 298/387/579
f 260/342/580 261/343/582 296/385/583 297/386/581
f 261/343/582 262/344/584 295/384/585 296/385/583
f 262/344/584 306/396/586 307/398/587 295/384/585
s 2
f 263/345/588 300/389/589 301/391/590 294/383/591
s 1
f 264/347/592 265/348/593 272/356/594 271/355/595
f 265/348/593 266/349/596 273/357/597 272/356/594
f 266/349/596 267/350/598 274/358/599 273/357/597
f 267/350/598 268/351/600 275/359/601 274/358/599
f 268/351/600 269/352/602 276/360/603 275/359/601
f 269/352/602 308/399/604 309/400/605 276/360/603
s 2
f 270/353/606 302/392/607 303/393/608 277/361/609
s 1
f 271/355/595 272/356/594 279/364/610 278/363/611
f 272/356/594 273/357/597 280/365/612 279/364/610
f 273/357/597 274/358/599 281/366/613 280/365/612
f 274/358/599 275/359/601 282/367/614 281/366/613
f 275/359/601 276/360/603 283/368/615 282/367/614
f 276/360/603 309/400/605 310/401/616 283/368/615
s 2
f 277/361/609 303/393/608 304/394/617 284/369/618
s 1
f 278/363/611 279/364/610 286/372/619 285/371/620
f 279/364/610 280/365/612 287/373/621 286/372/619
f 280/365/612 281/366/613 288/374/622 287/373/621
f 281/366/613 282/367/614 289/375/623 288/374/622
f 282/367/614 283/368/615 290/376/624 289/375/623
f 283/368/615 310/401/616 311/402/625 290/376/624
s 2
f 284/369/618 304/394/617 305/395/626 291/377/627
s 3
f 321/413/628 322/380/629 323/412/630
s 1
f 285/371/620 286/372/619 292/379/631
f 286/372/619 287/373/621 292/379/632
f 287/373/621 288/374/622 292/379/633
f 288/374/622 289/375/623 292/379/634
f 289/375/623 290/376/624 292/379/635
f 290/376/624 311/402/625 292/379/636
s 2
f 291/377/627 305/395/626 292/379/637
s 3
f 324/415/638 322/380/629 325/414/639
f 323/412/630 322/380/629 326/416/640
f 326/416/640 322/380/629 324/415/638
f 327/417/641 322/380/629 321/413/628
f 328/418/642 322/380/629 327/417/641
f 328/418/642 329/419/643 322/380/629
s 2
f 294/383/591 301/391/590 302/392/607 270/353/606
s 1
f 295/384/585 307/398/587 308/399/604 269/352/602
f 296/385/583 295/384/585 269/352/602 268/351/600
f 297/386/581 296/385/583 268/351/600 267/350/598
f 298/387/579 297/386/581 267/350/598 266/349/596
f 299/388/576 298/387/579 266/349/596 265/348/593
f 293/382/577 299/388/576 265/348/593 264/347/592
f 301/391/644 300/389/645 257/346/574 293/381/577
f 302/392/646 301/391/644 293/381/577 264/354/592
f 303/393/647 302/392/646 264/354/592 271/362/595
f 304/394/648 303/393/647 271/362/595 278/370/611
f 305/395/649 304/394/648 278/370/611 285/378/620
s 5
f 307/398/650 306/396/651 263/345/652 294/383/653
f 308/399/654 307/398/650 294/383/653 270/353/655
f 309/400/656 308/399/654 270/353/655 277/361/657
f 310/401/658 309/400/656 277/361/657 284/369/659
f 311/402/660 310/401/658 284/369/659 291/377/661
s 3
f 322/380/629 329/419/643 330/420/662
f 325/414/639 322/380/629 330/420/663
s 1
f 292/379/664 305/395/649 285/378/620
s 5
f 292/379/665 311/402/660 291/377/661
s 6
f 260/335/666 259/334/667 312/404/668 313/403/669
s 7
f 306/397/670 262/337/671 314/406/672 315/405/673
s 8
f 261/336/674 260/335/675 313/403/676 316/407/677
s 9
f 262/337/678 261/336/679 316/407/680 314/406/681
s 10
f 259/334/682 258/333/683 317/408/684 312/404/685
s 11
f 258/333/686 257/332/687 318/409/688 317/408/689
s 12
f 257/332/690 300/390/691 319/410/692 318/409/693
s 13
f 300/390/694 263/338/695 320/411/696 319/410/697
s 14
f 263/338/698 306/397/699 315/405/700 320/411/701
s 6
f 313/403/669 312/404/668 321/413/702 323/412/703
s 7
f 315/405/673 314/406/672 324/415/704 325/414/705
s 8
f 316/407/677 313/403/676 323/412/706 326/416/707
s 9
f 314/406/681 316/407/680 326/416/708 324/415/709
s 10
f 312/404/685 317/408/684 327/417/710 321/413/711
s 11
f 317/408/689 318/409/688 328/418/712 327/417/713
s 12
f 318/409/693 319/410/692 329/419/714 328/418/715
s 13
f 319/410/697 320/411/696 330/420/716 329/419/717
s 14
f 320/411/701 315/405/700 325/414/718 330/420/719
g default
v 4.331127 3.708334 -8.425831
v 4.369794 3.698010 -8.425831
v 4.340331 3.742809 -8.399357
v 4.378999 3.732485 -8.399357
v 4.349536 3.777284 -8.406697
v 4.388204 3.766959 -8.406697
v 4.358741 3.811758 -8.440455
v 4.397409 3.801434 -8.440455
v 4.367946 3.846233 -8.464071
v 4.406613 3.835908 -8.464071
v 4.377151 3.880707 -8.525087
v 4.415818 3.870383 -8.525087
v 4.388482 3.923145 -8.573265
v 4.427149 3.912821 -8.573265
v 4.388482 3.923145 -8.640038
v 4.427149 3.912821 -8.640038
v 4.377151 3.880707 -8.687459
v 4.415818 3.870383 -8.687459
v 4.367946 3.846233 -8.700991
v 4.406613 3.835908 -8.700991
v 4.358741 3.811758 -8.739819
v 4.397409 3.801434 -8.739819
v 4.349536 3.777284 -8.756292
v 4.388204 3.766959 -8.756292
v 4.340331 3.742809 -8.753350
v 4.378999 3.732485 -8.753350
v 4.331127 3.708334 -8.717463
v 4.369794 3.698010 -8.717463
v 4.335729 3.725572 -8.405673
v 4.335729 3.725572 -8.735406
v 4.374396 3.715247 -8.735406
v 4.374396 3.715247 -8.405673
v 4.354139 3.794521 -8.436507
v 4.354139 3.794521 -8.748055
v 4.392806 3.784197 -8.748055
v 4.392806 3.784197 -8.436507
v 4.352119 3.786958 -8.417231
v 4.351838 3.785902 -8.752174
v 4.390505 3.775578 -8.752174
v 4.390787 3.776634 -8.417231
v 4.344934 3.760046 -8.399749
v 4.344934 3.760046 -8.754821
v 4.383601 3.749722 -8.754821
v 4.383601 3.749722 -8.399749
v 4.371139 3.858191 -8.514248
v 4.372549 3.863470 -8.694226
v 4.411216 3.853146 -8.694226
v 4.409806 3.847867 -8.514248
v 4.370905 3.857315 -8.489160
v 4.370247 3.854851 -8.697608
v 4.408915 3.844527 -8.697608
v 4.409572 3.846991 -8.489160
v 4.363344 3.828995 -8.452262
v 4.362686 3.826532 -8.704379
v 4.401353 3.816208 -8.704379
v 4.402011 3.818671 -8.452262
v 4.381753 3.897944 -8.537733
v 4.381753 3.897944 -8.675192
v 4.420421 3.887620 -8.675192
v 4.420421 3.887620 -8.537733
v 4.384055 3.906563 -8.665442
v 4.384055 3.906563 -8.547672
v 4.422722 3.896239 -8.547672
v 4.422722 3.896239 -8.665442
v 4.389829 3.928189 -8.606652
v 4.384055 3.906563 -8.606557
v 4.381753 3.897944 -8.606463
v 4.377151 3.880707 -8.606273
v 4.371844 3.860831 -8.604237
v 4.370576 3.856083 -8.593384
v 4.367946 3.846233 -8.582530
v 4.363015 3.827764 -8.578321
v 4.358741 3.811758 -8.590137
v 4.354139 3.794521 -8.592281
v 4.351979 3.786430 -8.584702
v 4.349536 3.777284 -8.581495
v 4.344934 3.760046 -8.577285
v 4.340331 3.742809 -8.576353
v 4.335729 3.725572 -8.570540
v 4.331127 3.708334 -8.571647
v 4.369794 3.698010 -8.571647
v 4.374396 3.715247 -8.570540
v 4.378999 3.732485 -8.576353
v 4.383601 3.749722 -8.577285
v 4.388204 3.766959 -8.581495
v 4.390646 3.776106 -8.584702
v 4.392806 3.784197 -8.592281
v 4.397409 3.801434 -8.590137
v 4.401682 3.817439 -8.578321
v 4.406613 3.835908 -8.582530
v 4.409243 3.845759 -8.593384
v 4.410511 3.850506 -8.604237
v 4.415818 3.870383 -8.606273
v 4.420421 3.887620 -8.606463
v 4.422722 3.896239 -8.606557
v 4.428496 3.917864 -8.606652
v 4.319729 3.611711 -8.575833
v 4.330752 3.608767 -8.575833
v 4.336978 3.676311 -8.555419
v 4.348000 3.673367 -8.555419
v 4.338042 3.680296 -8.568346
v 4.349064 3.677353 -8.568346
v 4.320837 3.615859 -8.589285
v 4.331859 3.612916 -8.589285
v 4.338566 3.682259 -8.560496
v 4.319216 3.609789 -8.584436
v 4.330239 3.606846 -8.584436
v 4.349589 3.679316 -8.560496
v 4.334413 3.666706 -8.557478
v 4.336886 3.675968 -8.562506
v 4.335616 3.671213 -8.572094
v 4.346639 3.668270 -8.572094
v 4.347909 3.673024 -8.562506
v 4.345436 3.663763 -8.557478
v 4.322390 3.621675 -8.571736
v 4.322249 3.621149 -8.580882
v 4.323645 3.626377 -8.586983
v 4.334668 3.623434 -8.586983
v 4.333272 3.618206 -8.580882
v 4.333412 3.618732 -8.571736
v 4.319729 3.611711 -8.686143
v 4.330752 3.608767 -8.686143
v 4.336978 3.676311 -8.665730
v 4.348000 3.673367 -8.665730
v 4.338042 3.680296 -8.678657
v 4.349064 3.677353 -8.678657
v 4.320837 3.615859 -8.699596
v 4.331859 3.612916 -8.699596
v 4.338566 3.682259 -8.670806
v 4.319216 3.609789 -8.694746
v 4.330239 3.606846 -8.694746
v 4.349589 3.679316 -8.670806
v 4.334413 3.666706 -8.667789
v 4.336886 3.675968 -8.672817
v 4.335616 3.671213 -8.682405
v 4.346639 3.668270 -8.682405
v 4.347909 3.673024 -8.672817
v 4.345436 3.663763 -8.667789
v 4.322390 3.621675 -8.682046
v 4.322249 3.621149 -8.691192
v 4.323645 3.626377 -8.697294
v 4.334668 3.623434 -8.697294
v 4.333272 3.618206 -8.691192
v 4.333412 3.618732 -8.682046
v 4.319729 3.611711 -8.476739
v 4.330752 3.608767 -8.476739
v 4.336978 3.676311 -8.456326
v 4.348000 3.673367 -8.456326
v 4.338042 3.680296 -8.469253
v 4.349064 3.677353 -8.469253
v 4.320837 3.615859 -8.490192
v 4.331859 3.612916 -8.490192
v 4.338566 3.682259 -8.461402
v 4.319216 3.609789 -8.485342
v 4.330239 3.606846 -8.485342
v 4.349589 3.679316 -8.461402
v 4.334413 3.666706 -8.458385
v 4.336886 3.675968 -8.463413
v 4.335616 3.671213 -8.473001
v 4.346639 3.668270 -8.473001
v 4.347909 3.673024 -8.463413
v 4.345436 3.663763 -8.458385
v 4.322390 3.621675 -8.472642
v 4.322249 3.621149 -8.481788
v 4.323645 3.626377 -8.487890
v 4.334668 3.623434 -8.487890
v 4.333272 3.618206 -8.481788
v 4.333412 3.618732 -8.472642
v 4.326183 3.635881 -8.516557
v 4.337205 3.632938 -8.516557
v 4.337208 3.677173 -8.503843
v 4.348230 3.674230 -8.503843
v 4.338272 3.681159 -8.516769
v 4.349295 3.678216 -8.516769
v 4.327290 3.640029 -8.530010
v 4.338313 3.637086 -8.530010
v 4.338411 3.681680 -8.509395
v 4.326071 3.635463 -8.524663
v 4.337094 3.632520 -8.524663
v 4.349434 3.678737 -8.509395
v 4.335542 3.670935 -8.504790
v 4.337338 3.677661 -8.510654
v 4.336746 3.675442 -8.519405
v 4.347768 3.672499 -8.519405
v 4.348361 3.674718 -8.510654
v 4.346565 3.667992 -8.504790
v 4.327858 3.642154 -8.513679
v 4.328011 3.642728 -8.522461
v 4.329113 3.646856 -8.528926
v 4.340136 3.643913 -8.528926
v 4.339034 3.639785 -8.522461
v 4.338880 3.639211 -8.513679
v 4.326183 3.635881 -8.623403
v 4.337205 3.632938 -8.623403
v 4.337208 3.677173 -8.610689
v 4.348230 3.674230 -8.610689
v 4.338272 3.681159 -8.623615
v 4.349295 3.678216 -8.623615
v 4.327290 3.640029 -8.636856
v 4.338313 3.637086 -8.636856
v 4.338411 3.681680 -8.616241
v 4.326071 3.635463 -8.631509
v 4.337094 3.632520 -8.631509
v 4.349434 3.678737 -8.616241
v 4.335542 3.670935 -8.611636
v 4.337338 3.677661 -8.617500
v 4.336746 3.675442 -8.626251
v 4.347768 3.672499 -8.626251
v 4.348361 3.674718 -8.617500
v 4.346565 3.667992 -8.611636
v 4.327858 3.642154 -8.620525
v 4.328011 3.642728 -8.629307
v 4.329113 3.646856 -8.635772
v 4.340136 3.643913 -8.635772
v 4.339034 3.639785 -8.629307
v 4.338880 3.639211 -8.620525
vt 0.375000 0.000000
vt 0.625000 0.000000
vt 0.375000 0.041667
vt 0.625000 0.041667
vt 0.375000 0.083333
vt 0.625000 0.083333
vt 0.375000 0.125000
vt 0.625000 0.125000
vt 0.375000 0.166667
vt 0.625000 0.166667
vt 0.375000 0.208333
vt 0.625000 0.208333
vt 0.375000 0.250000
vt 0.625000 0.250000
vt 0.375000 0.500000
vt 0.625000 0.500000
vt 0.375000 0.541667
vt 0.625000 0.541667
vt 0.375000 0.583333
vt 0.625000 0.583333
vt 0.375000 0.625000
vt 0.625000 0.625000
vt 0.375000 0.666667
vt 0.625000 0.666667
vt 0.375000 0.708333
vt 0.625000 0.708333
vt 0.375000 0.750000
vt 0.625000 0.750000
vt 0.375000 1.000000
vt 0.625000 1.000000
vt 0.875000 0.000000
vt 0.875000 0.041667
vt 0.875000 0.083333
vt 0.875000 0.125000
vt 0.875000 0.166667
vt 0.875000 0.208333
vt 0.875000 0.250000
vt 0.125000 0.000000
vt 0.125000 0.041667
vt 0.125000 0.083333
vt 0.125000 0.125000
vt 0.125000 0.166667
vt 0.125000 0.208333
vt 0.125000 0.250000
vt 0.375000 0.020833
vt 0.125000 0.020833
vt 0.375000 0.729167
vt 0.625000 0.729167
vt 0.875000 0.020833
vt 0.625000 0.020833
vt 0.375000 0.104167
vt 0.125000 0.104167
vt 0.375000 0.645833
vt 0.625000 0.645833
vt 0.875000 0.104167
vt 0.625000 0.104167
vt 0.375000 0.093750
vt 0.125000 0.093750
vt 0.375000 0.656250
vt 0.625000 0.656250
vt 0.875000 0.093750
vt 0.625000 0.093750
vt 0.375000 0.062500
vt 0.125000 0.062500
vt 0.375000 0.687500
vt 0.625000 0.687500
vt 0.875000 0.062500
vt 0.625000 0.062500
vt 0.375000 0.187500
vt 0.125000 0.187500
vt 0.375000 0.562500
vt 0.625000 0.562500
vt 0.875000 0.187500
vt 0.625000 0.187500
vt 0.375000 0.177083
vt 0.125000 0.177083
vt 0.375000 0.572917
vt 0.625000 0.572917
vt 0.875000 0.177083
vt 0.625000 0.177083
vt 0.375000 0.145833
vt 0.125000 0.145833
vt 0.375000 0.604167
vt 0.625000 0.604167
vt 0.875000 0.145833
vt 0.625000 0.145833
vt 0.375000 0.229167
vt 0.125000 0.229167
vt 0.375000 0.520833
vt 0.625000 0.520833
vt 0.875000 0.229167
vt 0.625000 0.229167
vt 0.125000 0.239583
vt 0.375000 0.510417
vt 0.375000 0.239583
vt 0.625000 0.239583
vt 0.625000 0.510417
vt 0.875000 0.239583
vt 0.250000 0.250000
vt 0.375000 0.375000
vt 0.250000 0.239583
vt 0.250000 0.229167
vt 0.250000 0.208333
vt 0.250000 0.187500
vt 0.250000 0.177083
vt 0.250000 0.166667
vt 0.250000 0.145833
vt 0.250000 0.125000
vt 0.250000 0.104167
vt 0.250000 0.093750
vt 0.250000 0.083333
vt 0.250000 0.062500
vt 0.250000 0.041667
vt 0.250000 0.020833
vt 0.250000 0.000000
vt 0.375000 0.875000
vt 0.625000 0.875000
vt 0.750000 0.000000
vt 0.750000 0.020833
vt 0.750000 0.041667
vt 0.750000 0.062500
vt 0.750000 0.083333
vt 0.750000 0.093750
vt 0.750000 0.104167
vt 0.750000 0.125000
vt 0.750000 0.145833
vt 0.750000 0.166667
vt 0.750000 0.177083
vt 0.750000 0.187500
vt 0.750000 0.208333
vt 0.750000 0.229167
vt 0.750000 0.239583
vt 0.625000 0.375000
vt 0.750000 0.250000
vt 0.375000 0.000000
vt 0.625000 0.000000
vt 0.625000 0.022500
vt 0.375000 0.022500
vt 0.375000 0.250000
vt 0.625000 0.250000
vt 0.625000 0.375000
vt 0.375000 0.375000
vt 0.375000 0.727500
vt 0.625000 0.727500
vt 0.625000 0.750000
vt 0.375000 0.750000
vt 0.375000 0.875000
vt 0.625000 0.875000
vt 0.625000 1.000000
vt 0.375000 1.000000
vt 0.750000 0.000000
vt 0.750000 0.022500
vt 0.250000 0.022500
vt 0.250000 0.000000
vt 0.125000 0.000000
vt 0.125000 0.022500
vt 0.875000 0.022500
vt 0.875000 0.000000
vt 0.625000 0.500000
vt 0.375000 0.500000
vt 0.250000 0.250000
vt 0.250000 0.225000
vt 0.375000 0.225000
vt 0.125000 0.225000
vt 0.125000 0.250000
vt 0.625000 0.525000
vt 0.375000 0.525000
vt 0.750000 0.250000
vt 0.750000 0.225000
vt 0.875000 0.225000
vt 0.875000 0.250000
vt 0.625000 0.225000
vt 0.375000 0.000000
vt 0.625000 0.000000
vt 0.625000 0.022500
vt 0.375000 0.022500
vt 0.375000 0.250000
vt 0.625000 0.250000
vt 0.625000 0.375000
vt 0.375000 0.375000
vt 0.375000 0.727500
vt 0.625000 0.727500
vt 0.625000 0.750000
vt 0.375000 0.750000
vt 0.375000 0.875000
vt 0.625000 0.875000
vt 0.625000 1.000000
vt 0.375000 1.000000
vt 0.750000 0.000000
vt 0.750000 0.022500
vt 0.250000 0.022500
vt 0.250000 0.000000
vt 0.125000 0.000000
vt 0.125000 0.022500
vt 0.875000 0.022500
vt 0.875000 0.000000
vt 0.625000 0.500000
vt 0.375000 0.500000
vt 0.250000 0.250000
vt 0.250000 0.225000
vt 0.375000 0.225000
vt 0.125000 0.225000
vt 0.125000 0.250000
vt 0.625000 0.525000
vt 0.375000 0.525000
vt 0.750000 0.250000
vt 0.750000 0.225000
vt 0.875000 0.225000
vt 0.875000 0.250000
vt 0.625000 0.225000
vt 0.375000 0.000000
vt 0.625000 0.000000
vt 0.625000 0.022500
vt 0.375000 0.022500
vt 0.375000 0.250000
vt 0.625000 0.250000
vt 0.625000 0.375000
vt 0.375000 0.375000
vt 0.375000 0.727500
vt 0.625000 0.727500
vt 0.625000 0.750000
vt 0.375000 0.750000
vt 0.375000 0.875000
vt 0.625000 0.875000
vt 0.625000 1.000000
vt 0.375000 1.000000
vt 0.750000 0.000000
vt 0.750000 0.022500
vt 0.250000 0.022500
vt 0.250000 0.000000
vt 0.125000 0.000000
vt 0.125000 0.022500
vt 0.875000 0.022500
vt 0.875000 0.000000
vt 0.625000 0.500000
vt 0.375000 0.500000
vt 0.250000 0.250000
vt 0.250000 0.225000
vt 0.375000 0.225000
vt 0.125000 0.225000
vt 0.125000 0.250000
vt 0.625000 0.525000
vt 0.375000 0.525000
vt 0.750000 0.250000
vt 0.750000 0.225000
vt 0.875000 0.225000
vt 0.875000 0.250000
vt 0.625000 0.225000
vt 0.375000 0.000000
vt 0.625000 0.000000
vt 0.625000 0.022500
vt 0.375000 0.022500
vt 0.375000 0.250000
vt 0.625000 0.250000
vt 0.625000 0.375000
vt 0.375000 0.375000
vt 0.375000 0.727500
vt 0.625000 0.727500
vt 0.625000 0.750000
vt 0.375000 0.750000
vt 0.375000 0.875000
vt 0.625000 0.875000
vt 0.625000 1.000000
vt 0.375000 1.000000
vt 0.750000 0.000000
vt 0.750000 0.022500
vt 0.250000 0.022500
vt 0.250000 0.000000
vt 0.125000 0.000000
vt 0.125000 0.022500
vt 0.875000 0.022500
vt 0.875000 0.000000
vt 0.625000 0.500000
vt 0.375000 0.500000
vt 0.250000 0.250000
vt 0.250000 0.225000
vt 0.375000 0.225000
vt 0.125000 0.225000
vt 0.125000 0.250000
vt 0.625000 0.525000
vt 0.375000 0.525000
vt 0.750000 0.250000
vt 0.750000 0.225000
vt 0.875000 0.225000
vt 0.875000 0.250000
vt 0.625000 0.225000
vt 0.375000 0.000000
vt 0.625000 0.000000
vt 0.625000 0.022500
vt 0.375000 0.022500
vt 0.375000 0.250000
vt 0.625000 0.250000
vt 0.625000 0.375000
vt 0.375000 0.375000
vt 0.375000 0.727500
vt 0.625000 0.727500
vt 0.625000 0.750000
vt 0.375000 0.750000
vt 0.375000 0.875000
vt 0.625000 0.875000
vt 0.625000 1.000000
vt 0.375000 1.000000
vt 0.750000 0.000000
vt 0.750000 0.022500
vt 0.250000 0.022500
vt 0.250000 0.000000
vt 0.125000 0.000000
vt 0.125000 0.022500
vt 0.875000 0.022500
vt 0.875000 0.000000
vt 0.625000 0.500000
vt 0.375000 0.500000
vt 0.250000 0.250000
vt 0.250000 0.225000
vt 0.375000 0.225000
vt 0.125000 0.225000
vt 0.125000 0.250000
vt 0.625000 0.525000
vt 0.375000 0.525000
vt 0.750000 0.250000
vt 0.750000 0.225000
vt 0.875000 0.225000
vt 0.875000 0.250000
vt 0.625000 0.225000
vn -0.193174 -0.723483 0.662764
vn -0.193174 -0.723483 0.662764
vn -0.153710 -0.575682 0.803096
vn -0.153710 -0.575682 0.803096
vn -0.042251 -0.158240 0.986496
vn -0.042251 -0.158240 0.986496
vn 0.051973 0.194651 0.979495
vn 0.051973 0.194651 0.979495
vn 0.137133 0.513597 0.847002
vn 0.137133 0.513597 0.847002
vn 0.221352 0.829020 0.513545
vn 0.221352 0.829020 0.513545
vn 0.104201 0.390259 0.914790
vn 0.104201 0.390259 0.914790
vn 0.142375 0.533230 0.833904
vn 0.142375 0.533230 0.833904
vn 0.201989 0.756500 0.622020
vn 0.201989 0.756500 0.622020
vn 0.250460 0.938036 0.239496
vn 0.250460 0.938036 0.239496
vn 0.127875 0.478922 0.868494
vn 0.127875 0.478922 0.868494
vn 0.166376 0.623121 0.764225
vn 0.166376 0.623121 0.764225
vn 0.254871 0.954556 0.154482
vn 0.254871 0.954556 0.154482
vn 0.257968 0.966154 0.000000
vn 0.257968 0.966154 0.000000
vn 0.163896 0.613833 -0.772235
vn 0.163896 0.613833 -0.772235
vn 0.121411 0.454715 -0.882323
vn 0.121411 0.454715 -0.882323
vn 0.091466 0.342563 -0.935032
vn 0.091466 0.342563 -0.935032
vn 0.058054 0.217428 -0.974348
vn 0.058054 0.217428 -0.974348
vn 0.189942 0.711380 -0.676654
vn 0.189942 0.711380 -0.676654
vn 0.205523 0.769735 -0.604374
vn 0.205523 0.769735 -0.604374
vn 0.108131 0.404978 -0.907910
vn 0.108131 0.404978 -0.907910
vn 0.025396 0.095113 -0.995143
vn 0.025396 0.095113 -0.995143
vn -0.021198 -0.079392 -0.996618
vn -0.021198 -0.079392 -0.996618
vn -0.123292 -0.461761 -0.878394
vn -0.123292 -0.461761 -0.878394
vn -0.182932 -0.685126 -0.705081
vn -0.182932 -0.685126 -0.705081
vn -0.182932 -0.685126 -0.705081
vn -0.182932 -0.685126 -0.705081
vn -0.257968 -0.966154 0.000000
vn -0.257968 -0.966154 0.000000
vn -0.257968 -0.966154 0.000000
vn -0.257968 -0.966154 0.000000
vn 0.966154 -0.257965 0.000000
vn 0.966157 -0.257956 0.000000
vn 0.966156 -0.257960 0.000000
vn 0.966155 -0.257962 0.000000
vn 0.966153 -0.257969 0.000000
vn 0.966153 -0.257968 0.000000
vn 0.966153 -0.257970 0.000000
vn 0.966152 -0.257972 0.000000
vn 0.966153 -0.257969 0.000000
vn 0.966153 -0.257969 0.000000
vn 0.966155 -0.257963 0.000000
vn 0.966154 -0.257968 0.000000
vn 0.966153 -0.257971 0.000000
vn 0.966153 -0.257969 0.000000
vn 0.966155 -0.257962 0.000000
vn 0.966155 -0.257962 0.000000
vn 0.966159 -0.257949 0.000000
vn 0.966152 -0.257974 0.000000
vn 0.966147 -0.257992 0.000000
vn 0.966143 -0.258009 0.000000
vn 0.966154 -0.257965 0.000000
vn 0.966154 -0.257967 0.000000
vn 0.966153 -0.257972 0.000000
vn 0.966153 -0.257971 0.000000
vn -0.966154 0.257967 0.000000
vn -0.966158 0.257951 0.000000
vn -0.966159 0.257947 0.000000
vn -0.966151 0.257977 0.000000
vn -0.966154 0.257966 0.000000
vn -0.966151 0.257976 0.000000
vn -0.966151 0.257976 0.000000
vn -0.966154 0.257968 0.000000
vn -0.966150 0.257982 0.000000
vn -0.966154 0.257965 0.000000
vn -0.966154 0.257968 0.000000
vn -0.966154 0.257968 0.000000
vn -0.966154 0.257965 0.000000
vn -0.966154 0.257967 0.000000
vn -0.966154 0.257968 0.000000
vn -0.966154 0.257968 0.000000
vn -0.966155 0.257964 0.000000
vn -0.966157 0.257954 0.000000
vn -0.966154 0.257966 0.000000
vn -0.966160 0.257944 0.000000
vn -0.966153 0.257970 0.000000
vn -0.966152 0.257972 0.000000
vn -0.966150 0.257979 0.000000
vn -0.966154 0.257968 0.000000
vn -0.966154 0.257964 0.000000
vn -0.966154 0.257968 0.000000
vn 0.108128 0.404965 -0.907916
vn 0.108128 0.404965 -0.907916
vn 0.966155 -0.257961 0.000000
vn 0.966154 -0.257967 0.000000
vn 0.173073 0.648200 0.741541
vn 0.173073 0.648200 0.741541
vn -0.966152 0.257972 0.000000
vn -0.966151 0.257979 0.000000
vn 0.091474 0.342592 -0.935021
vn 0.091474 0.342592 -0.935021
vn 0.966155 -0.257964 0.000000
vn 0.966154 -0.257965 0.000000
vn 0.213923 0.801195 0.558859
vn 0.213923 0.801195 0.558859
vn -0.966155 0.257964 0.000000
vn -0.966155 0.257963 0.000000
vn -0.966155 0.257963 0.000000
vn -0.966158 0.257951 0.000000
vn 0.213758 0.800575 -0.559810
vn 0.213758 0.800575 -0.559810
vn 0.207170 0.775901 -0.595868
vn 0.207170 0.775901 -0.595868
vn 0.966158 -0.257952 0.000000
vn 0.966155 -0.257963 0.000000
vn 0.966157 -0.257956 0.000000
vn 0.966160 -0.257943 0.000000
vn 0.207952 0.778831 0.591759
vn 0.207952 0.778831 0.591759
vn 0.214252 0.802427 0.556962
vn 0.214252 0.802427 0.556962
vn -0.966155 0.257961 0.000000
vn -0.966151 0.257976 0.000000
vn -0.966151 0.257976 0.000000
vn -0.966154 0.257965 0.000000
vn -0.966155 0.257963 0.000000
vn -0.966153 0.257969 0.000000
vn -0.966157 0.257954 0.000000
vn -0.966153 0.257970 0.000000
vn -0.966157 0.257954 0.000000
vn -0.966154 0.257964 0.000000
vn -0.966145 0.257998 0.000000
vn -0.966155 0.257964 0.000000
vn -0.966155 0.257962 0.000000
vn -0.966151 0.257978 0.000000
vn -0.966153 0.257970 0.000000
vn -0.966157 0.257955 0.000000
vn -0.257968 -0.966154 0.000000
vn -0.257968 -0.966154 0.000000
vn 0.966159 -0.257947 0.000000
vn 0.966155 -0.257963 0.000000
vn 0.966154 -0.257968 0.000000
vn 0.966154 -0.257968 0.000000
vn 0.966154 -0.257968 0.000000
vn 0.966154 -0.257968 0.000000
vn 0.966154 -0.257968 0.000000
vn 0.966154 -0.257968 0.000000
vn 0.966154 -0.257968 0.000000
vn 0.966152 -0.257974 0.000000
vn 0.966148 -0.257987 0.000000
vn 0.966154 -0.257968 0.000000
vn 0.966154 -0.257968 0.000000
vn 0.966153 -0.257971 0.000000
vn 0.966149 -0.257986 0.000000
vn 0.966154 -0.257968 0.000000
vn 0.254871 0.954555 -0.154485
vn 0.254871 0.954555 -0.154485
vn -0.095238 -0.356690 0.929356
vn -0.095238 -0.356690 0.929356
vn -0.079168 -0.296503 0.951745
vn -0.079168 -0.296503 0.951745
vn 0.164105 0.614615 0.771568
vn 0.164105 0.614615 0.771568
vn 0.245757 0.920421 0.304019
vn 0.245757 0.920421 0.304019
vn 0.074137 0.277660 -0.957814
vn 0.074137 0.277660 -0.957814
vn 0.053373 0.199894 -0.978363
vn 0.053373 0.199894 -0.978363
vn -0.245754 -0.920412 -0.304052
vn -0.245754 -0.920412 -0.304052
vn -0.251337 -0.941318 0.225278
vn -0.251337 -0.941318 0.225278
vn 0.966154 -0.257968 0.000000
vn 0.966151 -0.257978 0.000000
vn 0.966154 -0.257967 0.000000
vn 0.966156 -0.257961 0.000000
vn -0.966155 0.257963 0.000000
vn -0.966151 0.257976 0.000000
vn -0.966148 0.257989 0.000000
vn -0.966148 0.257987 0.000000
vn -0.966147 0.257991 0.000000
vn -0.966149 0.257986 0.000000
vn -0.157624 -0.590340 -0.791614
vn -0.157624 -0.590340 -0.791614
vn 0.966153 -0.257970 0.000000
vn 0.966147 -0.257991 0.000000
vn 0.249741 0.935341 -0.250533
vn 0.249741 0.935341 -0.250533
vn -0.966149 0.257983 0.000000
vn -0.966152 0.257975 0.000000
vn -0.966156 0.257960 0.000000
vn -0.966154 0.257968 0.000000
vn -0.966149 0.257986 0.000000
vn -0.966145 0.257998 0.000000
vn 0.095529 0.357780 -0.928907
vn 0.095529 0.357780 -0.928907
vn 0.081709 0.306021 -0.948512
vn 0.081709 0.306021 -0.948512
vn 0.966154 -0.257968 0.000000
vn 0.966154 -0.257965 0.000000
vn 0.966154 -0.257968 0.000000
vn 0.966154 -0.257968 0.000000
vn 0.966156 -0.257960 0.000000
vn 0.966154 -0.257968 0.000000
vn -0.071515 -0.267843 0.960805
vn -0.071515 -0.267843 0.960805
vn -0.052321 -0.195956 0.979216
vn -0.052321 -0.195956 0.979216
vn -0.095238 -0.356690 0.929356
vn -0.095238 -0.356690 0.929356
vn -0.079168 -0.296503 0.951745
vn -0.079168 -0.296503 0.951745
vn 0.164105 0.614615 0.771568
vn 0.164105 0.614615 0.771568
vn 0.245757 0.920421 0.304019
vn 0.245757 0.920421 0.304019
vn 0.074137 0.277660 -0.957814
vn 0.074137 0.277660 -0.957814
vn 0.053373 0.199894 -0.978363
vn 0.053373 0.199894 -0.978363
vn -0.245754 -0.920412 -0.304052
vn -0.245754 -0.920412 -0.304052
vn -0.251337 -0.941318 0.225278
vn -0.251337 -0.941318 0.225278
vn 0.966154 -0.257968 0.000000
vn 0.966151 -0.257978 0.000000
vn 0.966154 -0.257967 0.000000
vn 0.966155 -0.257961 0.000000
vn -0.966155 0.257963 0.000000
vn -0.966151 0.257976 0.000000
vn -0.966148 0.257989 0.000000
vn -0.966148 0.257987 0.000000
vn -0.966147 0.257991 0.000000
vn -0.966149 0.257986 0.000000
vn -0.157624 -0.590340 -0.791614
vn -0.157624 -0.590340 -0.791614
vn 0.966153 -0.257970 0.000000
vn 0.966147 -0.257991 0.000000
vn 0.249741 0.935341 -0.250533
vn 0.249741 0.935341 -0.250533
vn -0.966149 0.257983 0.000000
vn -0.966152 0.257975 0.000000
vn -0.966156 0.257960 0.000000
vn -0.966154 0.257968 0.000000
vn -0.966149 0.257986 0.000000
vn -0.966145 0.257998 0.000000
vn 0.095529 0.357780 -0.928907
vn 0.095529 0.357780 -0.928907
vn 0.081709 0.306021 -0.948512
vn 0.081709 0.306021 -0.948512
vn 0.966154 -0.257968 0.000000
vn 0.966154 -0.257965 0.000000
vn 0.966154 -0.257968 0.000000
vn 0.966154 -0.257968 0.000000
vn 0.966156 -0.257960 0.000000
vn 0.966154 -0.257968 0.000000
vn -0.071515 -0.267843 0.960805
vn -0.071515 -0.267843 0.960805
vn -0.052321 -0.195956 0.979216
vn -0.052321 -0.195956 0.979216
vn -0.095238 -0.356690 0.929356
vn -0.095238 -0.356690 0.929356
vn -0.079168 -0.296503 0.951745
vn -0.079168 -0.296503 0.951745
vn 0.164105 0.614615 0.771568
vn 0.164105 0.614615 0.771568
vn 0.245757 0.920421 0.304019
vn 0.245757 0.920421 0.304019
vn 0.074137 0.277660 -0.957814
vn 0.074137 0.277660 -0.957814
vn 0.053373 0.199894 -0.978363
vn 0.053373 0.199894 -0.978363
vn -0.245754 -0.920412 -0.304052
vn -0.245754 -0.920412 -0.304052
vn -0.251337 -0.941318 0.225278
vn -0.251337 -0.941318 0.225278
vn 0.966154 -0.257968 0.000000
vn 0.966151 -0.257978 0.000000
vn 0.966154 -0.257967 0.000000
vn 0.966156 -0.257961 0.000000
vn -0.966155 0.257963 0.000000
vn -0.966151 0.257976 0.000000
vn -0.966148 0.257989 0.000000
vn -0.966148 0.257987 0.000000
vn -0.966147 0.257991 0.000000
vn -0.966149 0.257986 0.000000
vn -0.157624 -0.590340 -0.791614
vn -0.157624 -0.590340 -0.791614
vn 0.966153 -0.257970 0.000000
vn 0.966147 -0.257991 0.000000
vn 0.249741 0.935341 -0.250533
vn 0.249741 0.935341 -0.250533
vn -0.966149 0.257983 0.000000
vn -0.966152 0.257975 0.000000
vn -0.966156 0.257960 0.000000
vn -0.966154 0.257968 0.000000
vn -0.966149 0.257986 0.000000
vn -0.966145 0.257998 0.000000
vn 0.095529 0.357780 -0.928907
vn 0.095529 0.357780 -0.928907
vn 0.081709 0.306021 -0.948512
vn 0.081709 0.306021 -0.948512
vn 0.966154 -0.257968 0.000000
vn 0.966154 -0.257965 0.000000
vn 0.966154 -0.257968 0.000000
vn 0.966154 -0.257968 0.000000
vn 0.966156 -0.257960 0.000000
vn 0.966154 -0.257968 0.000000
vn -0.071515 -0.267843 0.960805
vn -0.071515 -0.267843 0.960805
vn -0.052321 -0.195956 0.979216
vn -0.052321 -0.195956 0.979216
vn -0.104544 -0.391545 0.914201
vn -0.104544 -0.391545 0.914201
vn -0.079586 -0.298069 0.951221
vn -0.079586 -0.298069 0.951221
vn 0.197501 0.739689 0.643315
vn 0.197501 0.739689 0.643315
vn 0.245754 0.920408 0.304062
vn 0.245754 0.920408 0.304062
vn 0.071696 0.268518 -0.960603
vn 0.071696 0.268518 -0.960603
vn 0.039095 0.146421 -0.988450
vn 0.039095 0.146421 -0.988450
vn -0.245757 -0.920420 -0.304024
vn -0.245757 -0.920420 -0.304024
vn -0.257601 -0.964778 0.053336
vn -0.257601 -0.964778 0.053336
vn 0.966158 -0.257953 0.000000
vn 0.966154 -0.257967 0.000000
vn 0.966155 -0.257963 0.000000
vn 0.966154 -0.257966 0.000000
vn -0.966156 0.257959 0.000000
vn -0.966155 0.257963 0.000000
vn -0.966152 0.257972 0.000000
vn -0.966150 0.257983 0.000000
vn -0.966156 0.257959 0.000000
vn -0.966154 0.257967 0.000000
vn -0.193277 -0.723871 -0.662311
vn -0.193277 -0.723871 -0.662311
vn 0.966156 -0.257957 0.000000
vn 0.966149 -0.257986 0.000000
vn 0.257280 0.963576 -0.073003
vn 0.257280 0.963576 -0.073003
vn -0.966160 0.257943 0.000000
vn -0.966156 0.257957 0.000000
vn -0.966157 0.257956 0.000000
vn -0.966154 0.257968 0.000000
vn -0.966154 0.257965 0.000000
vn -0.966166 0.257920 0.000000
vn 0.104972 0.393145 -0.913465
vn 0.104972 0.393145 -0.913465
vn 0.083569 0.312985 -0.946074
vn 0.083569 0.312985 -0.946074
vn 0.966142 -0.258011 0.000000
vn 0.966152 -0.257972 0.000000
vn 0.966156 -0.257960 0.000000
vn 0.966128 -0.258063 0.000000
vn 0.966154 -0.257967 0.000000
vn 0.966157 -0.257956 0.000000
vn -0.067563 -0.253039 0.965094
vn -0.067563 -0.253039 0.965094
vn -0.037437 -0.140213 0.989413
vn -0.037437 -0.140213 0.989413
vn -0.104544 -0.391545 0.914201
vn -0.104544 -0.391545 0.914201
vn -0.079586 -0.298069 0.951221
vn -0.079586 -0.298069 0.951221
vn 0.197501 0.739689 0.643315
vn 0.197501 0.739689 0.643315
vn 0.245754 0.920408 0.304062
vn 0.245754 0.920408 0.304062
vn 0.071696 0.268518 -0.960603
vn 0.071696 0.268518 -0.960603
vn 0.039095 0.146421 -0.988450
vn 0.039095 0.146421 -0.988450
vn -0.245757 -0.920420 -0.304024
vn -0.245757 -0.920420 -0.304024
vn -0.257601 -0.964778 0.053336
vn -0.257601 -0.964778 0.053336
vn 0.966158 -0.257953 0.000000
vn 0.966154 -0.257967 0.000000
vn 0.966155 -0.257963 0.000000
vn 0.966154 -0.257966 0.000000
vn -0.966156 0.257959 0.000000
vn -0.966155 0.257963 0.000000
vn -0.966152 0.257972 0.000000
vn -0.966150 0.257983 0.000000
vn -0.966156 0.257959 0.000000
vn -0.966154 0.257967 0.000000
vn -0.193277 -0.723871 -0.662311
vn -0.193277 -0.723871 -0.662311
vn 0.966156 -0.257957 0.000000
vn 0.966149 -0.257986 0.000000
vn 0.257280 0.963576 -0.073003
vn 0.257280 0.963576 -0.073003
vn -0.966160 0.257943 0.000000
vn -0.966156 0.257957 0.000000
vn -0.966157 0.257956 0.000000
vn -0.966154 0.257968 0.000000
vn -0.966154 0.257965 0.000000
vn -0.966166 0.257920 0.000000
vn 0.104972 0.393145 -0.913465
vn 0.104972 0.393145 -0.913465
vn 0.083569 0.312985 -0.946074
vn 0.083569 0.312985 -0.946074
vn 0.966142 -0.258011 0.000000
vn 0.966152 -0.257972 0.000000
vn 0.966156 -0.257960 0.000000
vn 0.966128 -0.258063 0.000000
vn 0.966154 -0.257967 0.000000
vn 0.966157 -0.257956 0.000000
vn -0.067563 -0.253039 0.965094
vn -0.067563 -0.253039 0.965094
vn -0.037437 -0.140213 0.989413
vn -0.037437 -0.140213 0.989413
s 1
g pasted__pCube26
usemtl pasted__standardSurface2SG1
f 331/421/720 332/422/721 362/470/722 359/465/723
f 333/423/724 334/424/725 374/488/726 371/483/727
f 335/425/728 336/426/729 370/482/730 367/477/731
f 337/427/732 338/428/733 386/506/734 383/501/735
f 339/429/736 340/430/737 382/500/738 379/495/739
f 341/431/740 342/432/741 390/512/742 387/507/743
s 4
f 343/433/744 344/434/745 426/553/746 395/520/747
s 5
f 388/509/748 389/510/749 348/438/750 347/437/751
f 380/497/752 381/498/753 350/440/754 349/439/755
f 384/503/756 385/504/757 352/442/758 351/441/759
f 368/479/760 369/480/761 354/444/762 353/443/763
f 372/485/764 373/486/765 356/446/766 355/445/767
f 360/467/768 361/468/769 358/448/770 357/447/771
s 8
f 410/536/772 411/537/773 332/450/774 331/449/775
s 9
f 332/422/776 411/538/777 412/539/778 362/470/779
f 334/424/780 413/540/781 414/541/782 374/488/783
f 336/426/784 415/542/785 416/543/786 370/482/787
f 338/428/788 418/545/789 419/546/790 386/506/791
f 340/430/792 420/547/793 421/548/794 382/500/795
f 342/432/796 423/550/797 424/551/798 390/512/799
s 12
f 409/534/800 410/535/801 331/421/802 359/465/803
f 407/532/804 408/533/805 333/423/806 371/483/807
f 405/530/808 406/531/809 335/425/810 367/477/811
f 402/527/812 403/528/813 337/427/814 383/501/815
f 400/525/816 401/526/817 339/429/818 379/495/819
f 397/522/820 398/523/821 341/431/822 387/507/823
f 408/533/805 409/534/800 359/465/803 333/423/806
s 5
f 355/445/767 356/446/766 361/468/769 360/467/768
s 9
f 362/470/779 412/539/778 413/540/781 334/424/780
s 1
f 359/465/723 362/470/722 334/424/725 333/423/724
s 12
f 403/528/813 404/529/824 363/471/825 337/427/814
s 5
f 351/441/759 352/442/758 365/474/826 364/473/827
s 9
f 366/476/828 417/544/829 418/545/789 338/428/788
s 1
f 363/471/830 366/476/831 338/428/733 337/427/732
s 12
f 404/529/824 405/530/808 367/477/811 363/471/825
s 5
f 364/473/827 365/474/826 369/480/761 368/479/760
s 9
f 370/482/787 416/543/786 417/544/829 366/476/828
s 1
f 367/477/731 370/482/730 366/476/831 363/471/830
s 12
f 406/531/809 407/532/804 371/483/807 335/425/810
s 5
f 353/443/763 354/444/762 373/486/765 372/485/764
s 9
f 374/488/783 414/541/782 415/542/785 336/426/784
s 1
f 371/483/727 374/488/726 336/426/729 335/425/728
s 12
f 398/523/821 399/524/832 375/489/833 341/431/822
s 5
f 347/437/751 348/438/750 377/492/834 376/491/835
s 9
f 378/494/836 422/549/837 423/550/797 342/432/796
s 1
f 375/489/838 378/494/839 342/432/741 341/431/740
s 12
f 399/524/832 400/525/816 379/495/819 375/489/833
s 5
f 376/491/835 377/492/834 381/498/753 380/497/752
s 9
f 382/500/795 421/548/794 422/549/837 378/494/836
s 1
f 379/495/739 382/500/738 378/494/839 375/489/838
s 12
f 401/526/817 402/527/812 383/501/815 339/429/818
s 5
f 349/439/755 350/440/754 385/504/757 384/503/756
s 9
f 386/506/791 419/546/790 420/547/793 340/430/792
s 1
f 383/501/735 386/506/734 340/430/737 339/429/736
s 12
f 395/519/840 396/521/841 392/515/842 343/433/843
s 5
f 345/435/844 346/436/845 394/517/846 391/514/847
s 9
f 393/516/848 425/552/849 426/554/850 344/434/851
s 1
f 392/515/852 393/516/853 344/434/854 343/433/855
s 12
f 396/521/841 397/522/820 387/507/823 392/515/842
s 1
f 387/507/743 390/512/742 393/516/853 392/515/852
s 9
f 390/512/799 424/551/798 425/552/849 393/516/848
s 5
f 391/514/847 394/517/846 389/510/749 388/509/748
s 12
f 391/513/856 396/521/841 395/519/840 345/464/857
f 388/508/858 397/522/820 396/521/841 391/513/856
f 347/463/859 398/523/821 397/522/820 388/508/858
f 376/490/860 399/524/832 398/523/821 347/463/859
f 380/496/861 400/525/816 399/524/832 376/490/860
f 349/462/862 401/526/817 400/525/816 380/496/861
f 384/502/863 402/527/812 401/526/817 349/462/862
f 351/461/864 403/528/813 402/527/812 384/502/863
f 364/472/865 404/529/824 403/528/813 351/461/864
f 368/478/866 405/530/808 404/529/824 364/472/865
f 353/460/867 406/531/809 405/530/808 368/478/866
f 372/484/868 407/532/804 406/531/809 353/460/867
f 355/459/869 408/533/805 407/532/804 372/484/868
f 360/466/870 409/534/800 408/533/805 355/459/869
f 357/458/871 410/535/801 409/534/800 360/466/870
s 8
f 357/447/872 358/448/873 411/537/773 410/536/772
s 9
f 412/539/778 411/538/777 358/451/874 361/469/875
f 413/540/781 412/539/778 361/469/875 356/452/876
f 414/541/782 413/540/781 356/452/876 373/487/877
f 415/542/785 414/541/782 373/487/877 354/453/878
f 416/543/786 415/542/785 354/453/878 369/481/879
f 417/544/829 416/543/786 369/481/879 365/475/880
f 418/545/789 417/544/829 365/475/880 352/454/881
f 419/546/790 418/545/789 352/454/881 385/505/882
f 420/547/793 419/546/790 385/505/882 350/455/883
f 421/548/794 420/547/793 350/455/883 381/499/884
f 422/549/837 421/548/794 381/499/884 377/493/885
f 423/550/797 422/549/837 377/493/885 348/456/886
f 424/551/798 423/550/797 348/456/886 389/511/887
f 425/552/849 424/551/798 389/511/887 394/518/888
f 426/554/850 425/552/849 394/518/888 346/457/889
s 4
f 395/520/747 426/553/746 346/436/890 345/435/891
s 19
f 427/555/892 428/556/893 450/557/894 445/558/895
s 20
f 429/559/896 430/560/897 438/561/898 435/562/899
s 21
f 447/563/900 448/564/901 434/565/902 433/566/903
s 22
f 436/567/904 437/568/905 428/569/906 427/570/907
s 23
f 428/556/908 437/571/909 449/572/910 450/557/911
s 24
f 445/558/912 446/573/913 436/574/914 427/555/915
f 433/575/916 436/574/914 446/573/913 447/576/917
s 22
f 433/566/918 434/565/919 437/568/905 436/567/904
s 23
f 448/577/920 449/572/910 437/571/909 434/578/921
s 20
f 435/562/899 438/561/898 432/579/922 431/580/923
s 24
f 435/581/924 440/582/925 439/583/926 429/559/927
f 441/584/928 440/582/925 435/581/924 431/585/929
s 21
f 431/580/930 432/579/931 442/586/932 441/587/933
s 23
f 438/588/934 443/589/935 442/590/936 432/591/937
f 444/592/938 443/589/935 438/588/934 430/560/939
s 19
f 439/583/940 444/592/941 430/560/942 429/559/943
s 24
f 439/583/926 440/582/925 446/573/913 445/558/912
f 447/576/917 446/573/913 440/582/925 441/584/928
s 21
f 441/587/933 442/586/932 448/564/901 447/563/900
s 23
f 442/590/936 443/589/935 449/572/910 448/577/920
f 450/557/911 449/572/910 443/589/935 444/592/938
s 19
f 445/558/895 450/557/894 444/592/941 439/583/940
s 27
f 451/593/944 452/594/945 474/595/946 469/596/947
s 28
f 453/597/948 454/598/949 462/599/950 459/600/951
s 29
f 471/601/952 472/602/953 458/603/954 457/604/955
s 30
f 460/605/956 461/606/957 452/607/958 451/608/959
s 31
f 452/594/960 461/609/961 473/610/962 474/595/963
s 32
f 469/596/964 470/611/965 460/612/966 451/593/967
f 457/613/968 460/612/966 470/611/965 471/614/969
s 30
f 457/604/970 458/603/971 461/606/957 460/605/956
s 31
f 472/615/972 473/610/962 461/609/961 458/616/973
s 28
f 459/600/951 462/599/950 456/617/974 455/618/975
s 32
f 459/619/976 464/620/977 463/621/978 453/597/979
f 465/622/980 464/620/977 459/619/976 455/623/981
s 29
f 455/618/982 456/617/983 466/624/984 465/625/985
s 31
f 462/626/986 467/627/987 466/628/988 456/629/989
f 468/630/990 467/627/987 462/626/986 454/598/991
s 27
f 463/621/992 468/630/993 454/598/994 453/597/995
s 32
f 463/621/978 464/620/977 470/611/965 469/596/964
f 471/614/969 470/611/965 464/620/977 465/622/980
s 29
f 465/625/985 466/624/984 472/602/953 471/601/952
s 31
f 466/628/988 467/627/987 473/610/962 472/615/972
f 474/595/963 473/610/962 467/627/987 468/630/990
s 27
f 469/596/947 474/595/946 468/630/993 463/621/992
s 35
f 475/631/996 476/632/997 498/633/998 493/634/999
s 36
f 477/635/1000 478/636/1001 486/637/1002 483/638/1003
s 37
f 495/639/1004 496/640/1005 482/641/1006 481/642/1007
s 38
f 484/643/1008 485/644/1009 476/645/1010 475/646/1011
s 39
f 476/632/1012 485/647/1013 497/648/1014 498/633/1015
s 40
f 493/634/1016 494/649/1017 484/650/1018 475/631/1019
f 481/651/1020 484/650/1018 494/649/1017 495/652/1021
s 38
f 481/642/1022 482/641/1023 485/644/1009 484/643/1008
s 39
f 496/653/1024 497/648/1014 485/647/1013 482/654/1025
s 36
f 483/638/1003 486/637/1002 480/655/1026 479/656/1027
s 40
f 483/657/1028 488/658/1029 487/659/1030 477/635/1031
f 489/660/1032 488/658/1029 483/657/1028 479/661/1033
s 37
f 479/656/1034 480/655/1035 490/662/1036 489/663/1037
s 39
f 486/664/1038 491/665/1039 490/666/1040 480/667/1041
f 492/668/1042 491/665/1039 486/664/1038 478/636/1043
s 35
f 487/659/1044 492/668/1045 478/636/1046 477/635/1047
s 40
f 487/659/1030 488/658/1029 494/649/1017 493/634/1016
f 495/652/1021 494/649/1017 488/658/1029 489/660/1032
s 37
f 489/663/1037 490/662/1036 496/640/1005 495/639/1004
s 39
f 490/666/1040 491/665/1039 497/648/1014 496/653/1024
f 498/633/1015 497/648/1014 491/665/1039 492/668/1042
s 35
f 493/634/999 498/633/998 492/668/1045 487/659/1044
s 43
f 499/669/1048 500/670/1049 522/671/1050 517/672/1051
s 44
f 501/673/1052 502/674/1053 510/675/1054 507/676/1055
s 45
f 519/677/1056 520/678/1057 506/679/1058 505/680/1059
s 46
f 508/681/1060 509/682/1061 500/683/1062 499/684/1063
s 47
f 500/670/1064 509/685/1065 521/686/1066 522/671/1067
s 48
f 517/672/1068 518/687/1069 508/688/1070 499/669/1071
f 505/689/1072 508/688/1070 518/687/1069 519/690/1073
s 46
f 505/680/1074 506/679/1075 509/682/1061 508/681/1060
s 47
f 520/691/1076 521/686/1066 509/685/1065 506/692/1077
s 44
f 507/676/1055 510/675/1054 504/693/1078 503/694/1079
s 48
f 507/695/1080 512/696/1081 511/697/1082 501/673/1083
f 513/698/1084 512/696/1081 507/695/1080 503/699/1085
s 45
f 503/694/1086 504/693/1087 514/700/1088 513/701/1089
s 47
f 510/702/1090 515/703/1091 514/704/1092 504/705/1093
f 516/706/1094 515/703/1091 510/702/1090 502/674/1095
s 43
f 511/697/1096 516/706/1097 502/674/1098 501/673/1099
s 48
f 511/697/1082 512/696/1081 518/687/1069 517/672/1068
f 519/690/1073 518/687/1069 512/696/1081 513/698/1084
s 45
f 513/701/1089 514/700/1088 520/678/1057 519/677/1056
s 47
f 514/704/1092 515/703/1091 521/686/1066 520/691/1076
f 522/671/1067 521/686/1066 515/703/1091 516/706/1094
s 43
f 517/672/1051 522/671/1050 516/706/1097 511/697/1096
s 51
f 523/707/1100 524/708/1101 546/709/1102 541/710/1103
s 52
f 525/711/1104 526/712/1105 534/713/1106 531/714/1107
s 53
f 543/715/1108 544/716/1109 530/717/1110 529/718/1111
s 54
f 532/719/1112 533/720/1113 524/721/1114 523/722/1115
s 55
f 524/708/1116 533/723/1117 545/724/1118 546/709/1119
s 56
f 541/710/1120 542/725/1121 532/726/1122 523/707/1123
f 529/727/1124 532/726/1122 542/725/1121 543/728/1125
s 54
f 529/718/1126 530/717/1127 533/720/1113 532/719/1112
s 55
f 544/729/1128 545/724/1118 533/723/1117 530/730/1129
s 52
f 531/714/1107 534/713/1106 528/731/1130 527/732/1131
s 56
f 531/733/1132 536/734/1133 535/735/1134 525/711/1135
f 537/736/1136 536/734/1133 531/733/1132 527/737/1137
s 53
f 527/732/1138 528/731/1139 538/738/1140 537/739/1141
s 55
f 534/740/1142 539/741/1143 538/742/1144 528/743/1145
f 540/744/1146 539/741/1143 534/740/1142 526/712/1147
s 51
f 535/735/1148 540/744/1149 526/712/1150 525/711/1151
s 56
f 535/735/1134 536/734/1133 542/725/1121 541/710/1120
f 543/728/1125 542/725/1121 536/734/1133 537/736/1136
s 53
f 537/739/1141 538/738/1140 544/716/1109 543/715/1108
s 55
f 538/742/1144 539/741/1143 545/724/1118 544/729/1128
f 546/709/1119 545/724/1118 539/741/1143 540/744/1146
s 51
f 541/710/1103 546/709/1102 540/744/1149 535/735/1148
