# This file uses centimeters as units for non-parametric coordinates.

mtllib Moving Bar.mtl
g default
v 4.324628 3.571080 -10.796535
v 4.351794 3.560104 -10.796535
v 4.474967 3.965553 -10.801659
v 4.502132 3.954578 -10.801659
v 4.474967 3.965553 -10.832495
v 4.502132 3.954578 -10.832495
v 4.324628 3.571080 -10.827371
v 4.351794 3.560104 -10.827371
v 4.625296 3.942713 -10.825605
v 4.623877 3.939232 -10.832971
v 4.621666 3.933809 -10.838817
v 4.618879 3.926976 -10.842571
v 4.615791 3.919402 -10.843863
v 4.612702 3.911828 -10.842571
v 4.609916 3.904995 -10.838817
v 4.607705 3.899573 -10.832971
v 4.606285 3.896091 -10.825605
v 4.605796 3.894892 -10.817439
v 4.606285 3.896091 -10.809274
v 4.607705 3.899573 -10.801907
v 4.609916 3.904995 -10.796061
v 4.612702 3.911828 -10.792308
v 4.615791 3.919402 -10.791015
v 4.618879 3.926976 -10.792308
v 4.621666 3.933809 -10.796061
v 4.623877 3.939232 -10.801907
v 4.625296 3.942713 -10.809274
v 4.625786 3.943913 -10.817439
v 4.482036 4.001130 -10.825605
v 4.480616 3.997649 -10.832971
v 4.478405 3.992226 -10.838817
v 4.475618 3.985394 -10.842571
v 4.472530 3.977819 -10.843863
v 4.469441 3.970245 -10.842571
v 4.466655 3.963412 -10.838817
v 4.464444 3.957990 -10.832971
v 4.463024 3.954508 -10.825605
v 4.462535 3.953309 -10.817439
v 4.463024 3.954508 -10.809274
v 4.464444 3.957990 -10.801907
v 4.466655 3.963412 -10.796061
v 4.469441 3.970245 -10.792308
v 4.472530 3.977819 -10.791015
v 4.475618 3.985394 -10.792308
v 4.478405 3.992226 -10.796061
v 4.480616 3.997649 -10.801907
v 4.482036 4.001130 -10.809274
v 4.482525 4.002330 -10.817439
v 4.472530 3.977819 -10.817439
vt 0.077388 0.033303
vt 0.077388 0.032531
vt 0.070591 0.593316
vt 0.070591 0.592544
vt 0.029685 0.593316
vt 0.029685 0.592544
vt 0.036482 0.033303
vt 0.036482 0.032531
vt 0.096314 0.028241
vt 0.103236 0.028241
vt 0.103236 0.235921
vt 0.096314 0.235921
vt 0.110159 0.028241
vt 0.110159 0.235921
vt 0.117082 0.028241
vt 0.117082 0.235921
vt 0.124004 0.028241
vt 0.124004 0.235921
vt 0.130927 0.028241
vt 0.130927 0.235921
vt 0.137850 0.028241
vt 0.137850 0.235921
vt 0.144772 0.028241
vt 0.144772 0.235921
vt 0.151695 0.028241
vt 0.151695 0.235921
vt 0.158618 0.028241
vt 0.158618 0.235921
vt 0.165540 0.028241
vt 0.165540 0.235921
vt 0.172463 0.028241
vt 0.172463 0.235921
vt 0.179386 0.028241
vt 0.179386 0.235921
vt 0.186308 0.028241
vt 0.186308 0.235921
vt 0.193231 0.028241
vt 0.193231 0.235921
vt 0.200153 0.028241
vt 0.200153 0.235921
vt 0.207076 0.028241
vt 0.207076 0.235921
vt 0.213999 0.028241
vt 0.213999 0.235921
vt 0.220921 0.028241
vt 0.220921 0.235921
vt 0.227844 0.028241
vt 0.227844 0.235921
vt 0.234767 0.028241
vt 0.234767 0.235921
vt 0.104319 0.683860
vt 0.097398 0.697444
vt 0.057975 0.668802
vt 0.086617 0.708224
vt 0.073033 0.715146
vt 0.057975 0.717531
vt 0.042917 0.715146
vt 0.029333 0.708224
vt 0.018553 0.697444
vt 0.011631 0.683860
vt 0.009247 0.668802
vt 0.011631 0.653744
vt 0.018553 0.640160
vt 0.029333 0.629380
vt 0.042917 0.622458
vt 0.057975 0.620073
vt 0.073033 0.622458
vt 0.086617 0.629380
vt 0.097398 0.640160
vt 0.104319 0.653744
vt 0.106704 0.668802
vn 0.004547 0.011255 0.999926
vn 0.004547 0.011255 0.999926
vn 0.004547 0.011255 0.999926
vn 0.004547 0.011255 0.999926
vn 0.374607 0.927184 0.000000
vn 0.374607 0.927184 0.000000
vn 0.374607 0.927184 0.000000
vn 0.374607 0.927184 0.000000
vn -0.004547 -0.011255 -0.999926
vn -0.004547 -0.011255 -0.999926
vn -0.004547 -0.011255 -0.999926
vn -0.004547 -0.011255 -0.999926
vn -0.374607 -0.927184 0.000000
vn -0.374607 -0.927184 0.000000
vn -0.374607 -0.927184 0.000000
vn -0.374607 -0.927184 0.000000
vn 0.934438 -0.356127 0.000000
vn 0.934438 -0.356127 0.000000
vn 0.934438 -0.356127 0.000000
vn 0.934438 -0.356127 0.000000
vn -0.934438 0.356127 0.000000
vn -0.934438 0.356127 0.000000
vn -0.934438 0.356127 0.000000
vn -0.934438 0.356127 0.000000
vn 0.359044 0.880511 -0.309497
vn 0.305296 0.748699 -0.588425
vn 0.305295 0.748698 -0.588427
vn 0.359044 0.880510 -0.309499
vn 0.221691 0.543668 -0.809492
vn 0.221691 0.543669 -0.809492
vn 0.116483 0.285657 -0.951226
vn 0.116483 0.285657 -0.951226
vn 0.000000 -0.000000 -1.000000
vn 0.000000 -0.000000 -1.000000
vn -0.116487 -0.285665 -0.951224
vn -0.116487 -0.285665 -0.951224
vn -0.221692 -0.543666 -0.809494
vn -0.221692 -0.543666 -0.809494
vn -0.305293 -0.748693 -0.588434
vn -0.305294 -0.748694 -0.588432
vn -0.359043 -0.880510 -0.309499
vn -0.359043 -0.880511 -0.309498
vn -0.377583 -0.925976 0.000000
vn -0.377583 -0.925976 0.000000
vn -0.359044 -0.880510 0.309499
vn -0.359044 -0.880510 0.309498
vn -0.305293 -0.748694 0.588434
vn -0.305294 -0.748695 0.588432
vn -0.221690 -0.543667 0.809494
vn -0.221690 -0.543667 0.809494
vn -0.116485 -0.285666 0.951224
vn -0.116485 -0.285666 0.951224
vn 0.000001 -0.000001 1.000000
vn 0.000001 -0.000000 1.000000
vn 0.116483 0.285658 0.951226
vn 0.116483 0.285658 0.951226
vn 0.221690 0.543669 0.809492
vn 0.221690 0.543669 0.809492
vn 0.305295 0.748699 0.588425
vn 0.305294 0.748698 0.588427
vn 0.359044 0.880511 0.309497
vn 0.359044 0.880510 0.309499
vn 0.377583 0.925976 0.000000
vn 0.377583 0.925976 0.000000
vn -0.925976 0.377582 0.000004
vn -0.925963 0.377614 0.000005
vn -0.925974 0.377588 -0.000000
vn -0.925970 0.377598 -0.000001
vn -0.925976 0.377582 0.000003
vn -0.925950 0.377647 0.000000
vn -0.925976 0.377582 0.000003
vn -0.925990 0.377549 0.000002
vn -0.925970 0.377598 -0.000013
vn -0.925979 0.377574 -0.000008
vn -0.925983 0.377566 0.000000
vn -0.925979 0.377574 0.000008
vn -0.925970 0.377598 0.000013
vn -0.925990 0.377549 -0.000002
vn -0.925976 0.377582 -0.000003
vn -0.925950 0.377647 0.000000
vn -0.925990 0.377549 -0.000003
vn -0.925976 0.377582 0.000001
vn -0.925956 0.377631 -0.000005
vn -0.925976 0.377582 -0.000004
vn -0.925976 0.377582 0.000000
s off
g pCube34
usemtl initialShadingGroup
f 1/1/1 2/2/2 4/4/3 3/3/4
f 3/3/5 4/4/6 6/6/7 5/5/8
f 5/5/9 6/6/10 8/8/11 7/7/12
f 7/7/13 8/8/14 2/2/15 1/1/16
f 2/2/17 8/8/18 6/6/19 4/4/20
f 7/7/21 1/1/22 3/3/23 5/5/24
s 1
f 9/9/25 10/10/26 30/11/27 29/12/28
f 10/10/26 11/13/29 31/14/30 30/11/27
f 11/13/29 12/15/31 32/16/32 31/14/30
f 12/15/31 13/17/33 33/18/34 32/16/32
f 13/17/33 14/19/35 34/20/36 33/18/34
f 14/19/35 15/21/37 35/22/38 34/20/36
f 15/21/37 16/23/39 36/24/40 35/22/38
f 16/23/39 17/25/41 37/26/42 36/24/40
f 17/25/41 18/27/43 38/28/44 37/26/42
f 18/27/43 19/29/45 39/30/46 38/28/44
f 19/29/45 20/31/47 40/32/48 39/30/46
f 20/31/47 21/33/49 41/34/50 40/32/48
f 21/33/49 22/35/51 42/36/52 41/34/50
f 22/35/51 23/37/53 43/38/54 42/36/52
f 23/37/53 24/39/55 44/40/56 43/38/54
f 24/39/55 25/41/57 45/42/58 44/40/56
f 25/41/57 26/43/59 46/44/60 45/42/58
f 26/43/59 27/45/61 47/46/62 46/44/60
f 27/45/61 28/47/63 48/48/64 47/46/62
f 28/47/63 9/49/25 29/50/28 48/48/64
s 2
f 29/51/65 30/52/66 49/53/67
f 30/52/66 31/54/68 49/53/67
f 31/54/68 32/55/69 49/53/67
f 32/55/69 33/56/70 49/53/67
f 33/56/70 34/57/71 49/53/67
f 34/57/71 35/58/72 49/53/67
f 35/58/72 36/59/73 49/53/67
f 36/59/73 37/60/74 49/53/67
f 37/60/74 38/61/75 49/53/67
f 38/61/75 39/62/76 49/53/67
f 39/62/76 40/63/77 49/53/67
f 40/63/77 41/64/78 49/53/67
f 41/64/78 42/65/79 49/53/67
f 42/65/79 43/66/80 49/53/67
f 43/66/80 44/67/81 49/53/67
f 44/67/81 45/68/82 49/53/67
f 45/68/82 46/69/83 49/53/67
f 46/69/83 47/70/84 49/53/67
f 47/70/84 48/71/85 49/53/67
f 48/71/85 29/51/65 49/53/67
